<?xml version="1.0" encoding="UTF-8" standalone="no"?>
<!-- Created with Inkscape (http://www.inkscape.org/) -->

<svg
   xmlns:dc="http://purl.org/dc/elements/1.1/"
   xmlns:cc="http://creativecommons.org/ns#"
   xmlns:rdf="http://www.w3.org/1999/02/22-rdf-syntax-ns#"
   xmlns:svg="http://www.w3.org/2000/svg"
   xmlns="http://www.w3.org/2000/svg"
   xmlns:sodipodi="http://sodipodi.sourceforge.net/DTD/sodipodi-0.dtd"
   xmlns:inkscape="http://www.inkscape.org/namespaces/inkscape"
   id="svg4224"
   version="1.1"
   inkscape:version="0.91 r13725"
   width="621.5625"
   height="587.8125"
   viewBox="0 0 621.5625 587.8125"
   sodipodi:docname="Angela.svg">
  <metadata
     id="metadata4230">
    <rdf:RDF>
      <cc:Work
         rdf:about="">
        <dc:format>image/svg+xml</dc:format>
        <dc:type
           rdf:resource="http://purl.org/dc/dcmitype/StillImage" />
        <dc:title></dc:title>
      </cc:Work>
    </rdf:RDF>
  </metadata>
  <defs
     id="defs4228" />
  <sodipodi:namedview
     pagecolor="#ffffff"
     bordercolor="#666666"
     borderopacity="1"
     objecttolerance="10"
     gridtolerance="10"
     guidetolerance="10"
     inkscape:pageopacity="0"
     inkscape:pageshadow="2"
     inkscape:window-width="1173"
     inkscape:window-height="686"
     id="namedview4226"
     showgrid="false"
     inkscape:zoom="0.40148857"
     inkscape:cx="-157.32908"
     inkscape:cy="293.90625"
     inkscape:window-x="0"
     inkscape:window-y="0"
     inkscape:window-maximized="0"
     inkscape:current-layer="svg4224" />
  <g
     id="g4813"
     transform="translate(630.15493,-2.4907309)">
    <path
       inkscape:connector-curvature="0"
       id="path4811"
       d="m -355.43379,591.59779 c -1.54688,-0.21123 -6.82031,-0.8332 -11.71875,-1.38216 -42.37242,-4.74864 -87.18822,-21.48511 -124.6875,-46.56461 -39.33666,-26.30833 -72.86198,-64.00147 -94.7945,-106.57923 -15.20866,-29.52468 -24.45779,-58.56336 -29.58651,-92.89012 -2.4053,-16.09884 -2.4053,-61.71366 0,-77.8125 5.12513,-34.30277 14.38549,-63.38809 29.55022,-92.8125 28.09164,-54.50678 72.62363,-98.2575 128.11204,-125.86445 28.04874,-13.954989 59.12148,-23.286439 91.875,-27.590967 12.51565,-1.64483 57.79685,-1.64483 70.3125,0 57.43006,7.547565 108.33254,30.120772 152.44984,67.605386 10.07019,8.556224 27.15397,26.232631 35.85618,37.100031 28.171918,35.18137 47.972348,76.55387 57.246468,119.61508 4.84623,22.5018 5.66561,31.30264 5.66561,60.85367 0,29.55103 -0.81938,38.35187 -5.66561,60.85367 -14.24426,66.13833 -52.981108,127.1338 -106.298278,167.37844 -40.52959,30.59236 -83.93554,48.71904 -135.03546,56.39186 -9.34311,1.4029 -56.22983,2.66129 -63.28125,1.6984 z m 17.1408,-5.76019 c -2.43193,-0.19242 -6.65068,-0.19441 -9.375,-0.005 -2.72432,0.18997 -0.73455,0.34741 4.4217,0.34984 5.15625,0.003 7.38523,-0.15299 4.9533,-0.34541 z m 23.4375,0 c -2.43193,-0.19242 -6.65068,-0.19441 -9.375,-0.005 -2.72432,0.18997 -0.73455,0.34741 4.4217,0.34984 5.15625,0.003 7.38523,-0.15299 4.9533,-0.34541 z m -40.79978,-0.90961 c -1.15307,-0.22253 -3.26245,-0.2283 -4.6875,-0.0127 -1.42506,0.21548 -0.48165,0.39755 2.09648,0.40459 2.57812,0.008 3.74408,-0.16927 2.59102,-0.3918 z m 53.4375,0 c -1.15307,-0.22253 -3.26245,-0.2283 -4.6875,-0.0127 -1.42506,0.21548 -0.48165,0.39755 2.09648,0.40459 2.57812,0.008 3.74408,-0.16927 2.59102,-0.3918 z m -62.8254,-0.93919 c -1.16015,-0.22346 -3.05859,-0.22346 -4.21875,0 -1.16015,0.22345 -0.21093,0.40628 2.10938,0.40628 2.32031,0 3.26953,-0.18283 2.10937,-0.40628 z m 71.25,0 c -1.16015,-0.22346 -3.05859,-0.22346 -4.21875,0 -1.16015,0.22345 -0.21093,0.40628 2.10938,0.40628 2.32031,0 3.26953,-0.18283 2.10937,-0.40628 z m -78.73215,-0.89082 c -0.63472,-0.2568 -1.90035,-0.27243 -2.8125,-0.0348 -0.91216,0.2377 -0.39285,0.44781 1.15403,0.46692 1.54687,0.0191 2.29318,-0.17537 1.65847,-0.43218 z m 85.3125,0 c -0.63472,-0.2568 -1.90035,-0.27243 -2.8125,-0.0348 -0.91216,0.2377 -0.39285,0.44781 1.15403,0.46692 1.54687,0.0191 2.29318,-0.17537 1.65847,-0.43218 z m -96.25867,-1.82797 c -3.56136,-0.70762 -11.52235,-2.55682 -17.6911,-4.10933 -11.74769,-2.9566 -12.53046,-3.11326 -11.77368,-2.35649 0.46898,0.46898 24.53491,6.55516 28.90873,7.31091 5.86616,1.01362 6.3338,0.30291 0.55605,-0.84509 z m 119.82712,-2.77546 c 7.17167,-1.77052 13.2537,-3.21913 13.51562,-3.21913 0.26191,0 0.26136,-0.21486 -9.3e-4,-0.47745 -0.2626,-0.26259 -5.54017,0.79671 -11.72792,2.35401 -6.18776,1.5573 -14.16432,3.44188 -17.72568,4.18795 -5.25418,1.1007 -5.59129,1.26383 -1.7877,0.86512 2.57812,-0.27025 10.55524,-1.93997 17.72691,-3.7105 z m -60.29844,-16.34413 c 1.87918,-10.57031 3.66984,-18.58594 3.97924,-17.8125 0.3094,0.77344 2.50399,9.20507 4.87686,18.73695 2.37288,9.53189 4.50064,17.51703 4.72837,17.74475 0.22772,0.22772 4.63211,-0.58171 9.78752,-1.79874 7.48481,-1.76692 9.28511,-2.50886 8.93491,-3.68224 -0.24122,-0.80821 -1.56465,-6.01162 -2.94096,-11.56313 -2.2174,-8.94421 -2.67559,-9.96586 -4.02339,-8.97143 -0.83657,0.61723 1.18872,-1.39966 4.50064,-4.48196 l 6.02168,-5.60418 -10.17119,-11.67439 c -5.59415,-6.42091 -9.01813,-10.62902 -7.60884,-9.35137 l 2.56234,2.32302 11.75374,-12.01228 c 13.24111,-13.53238 16.22716,-18.47323 16.4576,-27.23144 0.0759,-2.88533 0.26327,-5.24606 0.41635,-5.24606 0.15308,0 3.3113,1.47605 7.01824,3.28012 17.37117,8.45403 35.34669,23.74111 46.86714,39.85762 6.76242,9.46029 16.3318,28.23234 15.49868,30.40344 -0.84332,2.19763 -21.64403,11.37178 -36.56578,16.12732 -4.04435,1.28893 -7.16716,2.52973 -6.93956,2.75733 0.74127,0.74127 12.75109,-3.3664 25.3449,-8.66861 37.10155,-15.62041 65.95261,-35.37055 94.44534,-64.65305 42.326748,-43.49998 68.773328,-98.52051 77.001928,-160.19792 0.78508,-5.88453 1.25076,-18.97379 1.25076,-35.15625 0,-27.1776 -0.73476,-35.7358 -4.80976,-56.02246 C -71.029342,172.22193 -118.73631,104.76339 -186.68379,63.835941 -230.88817,37.20989 -278.80873,24.045498 -331.52754,24.045498 c -78.01195,0 -148.08724,29.730922 -202.5366,85.930442 -42.54908,43.9167 -68.76146,98.43707 -76.9939,160.14323 -1.6777,12.57517 -1.6777,57.73732 0,70.3125 10.40136,77.96326 50.3853,145.67384 113.593,192.36344 9.68434,7.15353 28.45635,18.71687 38.93759,23.98509 14.52368,7.3001 43.04349,18.38914 44.23373,17.1989 0.21227,-0.21228 -2.48865,-1.31056 -6.00206,-2.44063 -5.61878,-1.80726 -22.74282,-8.332 -23.57087,-8.98117 -0.68536,-0.5373 4.86959,-14.36687 8.92365,-22.21628 12.19214,-23.60621 33.10186,-44.19082 56.41262,-55.53548 3.70694,-1.80407 6.93969,-3.28012 7.18387,-3.28012 0.24419,0 0.4481,2.42578 0.45313,5.39063 0.0151,8.86218 2.82889,13.45656 17.08355,27.89369 l 12.48452,12.64433 -8.22609,8.18798 -8.2261,8.18799 7.41209,7.51956 c 6.01467,6.10189 7.27733,7.87306 6.69736,9.39457 -1.04261,2.73516 -3.18304,17.33271 -2.62352,17.89222 0.74749,0.74748 14.034,3.05492 16.61367,2.88526 2.26506,-0.14897 2.39698,-0.59456 5.73509,-19.37123 z m 19.14066,-4.67677 c -0.32845,-0.53143 0.0479,-0.68859 0.88217,-0.36844 1.62414,0.62324 1.9213,1.29521 0.57277,1.29521 -0.48519,0 -1.13992,-0.41705 -1.45494,-0.92677 z m -4.78321,-5.87011 -1.78593,-2.10937 2.10937,1.78593 c 1.98229,1.67833 2.53617,2.43282 1.78593,2.43282 -0.1779,0 -1.12712,-0.94922 -2.10937,-2.10938 z m -6.5625,-7.5 -1.78593,-2.10937 2.10937,1.78593 c 1.98229,1.67833 2.53617,2.43282 1.78593,2.43282 -0.1779,0 -1.12712,-0.94922 -2.10937,-2.10938 z m -6.41824,-6.82668 c -1.00089,-0.75704 -1.36896,-1.37644 -0.81791,-1.37644 0.55103,0 1.52707,0.63281 2.16897,1.40625 1.45987,1.75905 1.00063,1.74892 -1.35106,-0.0298 z m -5.71874,-4.25131 c -0.33987,-0.54993 -0.41689,-1.20094 -0.17114,-1.44669 0.24574,-0.24574 0.69662,0.2042 1.00195,0.99988 0.63392,1.65197 0.0937,1.94255 -0.83081,0.44681 z m 13.70632,-2.3595 c 0.045,-1.09214 0.26713,-1.31428 0.5664,-0.56641 0.27081,0.67675 0.23751,1.48536 -0.074,1.79688 -0.31152,0.31152 -0.5331,-0.2422 -0.4924,-1.23047 z m -14.8376,-6.48438 c 0.0104,-2.0625 0.2024,-2.79586 0.42664,-1.62969 0.22424,1.16616 0.21572,2.85366 -0.0189,3.75 -0.23465,0.89633 -0.41813,-0.0579 -0.40772,-2.12031 z m 15,-0.9375 c 0.0104,-2.0625 0.2024,-2.79586 0.42664,-1.62969 0.22424,1.16616 0.21572,2.85366 -0.0189,3.75 -0.23465,0.89633 -0.41813,-0.0579 -0.40772,-2.12031 z m -0.23642,-4.38521 c 0,-0.2978 0.57683,-1.02019 1.28186,-1.60531 0.9837,-0.8164 1.58338,-0.67954 2.57813,0.58834 1.14541,1.45991 1.12456,1.5184 -0.17917,0.50261 -1.13098,-0.88119 -1.73287,-0.89213 -2.57812,-0.0469 -0.60649,0.60649 -1.1027,0.85904 -1.1027,0.56124 z m -14.92598,-2.25541 c 0.045,-1.09214 0.26713,-1.31428 0.5664,-0.56641 0.27081,0.67675 0.23751,1.48536 -0.074,1.79688 -0.31152,0.31152 -0.5331,-0.2422 -0.4924,-1.23047 z m 13.58,-1.99082 c -0.50876,-1.33613 -0.40108,-1.44381 0.52481,-0.52481 0.64071,0.63594 0.92876,1.39241 0.64011,1.68106 -0.28865,0.28864 -0.81286,-0.23167 -1.16492,-1.15625 z m -12.71652,-0.62877 c 0,-0.19467 0.73828,-0.93296 1.64062,-1.64063 1.48694,-1.16613 1.5201,-1.13297 0.35397,0.35396 -1.22472,1.56165 -1.99459,2.05827 -1.99459,1.28667 z m -7.19608,-100.32179 c -4.9033,-1.59426 -10.26301,-4.86354 -10.96272,-6.68698 -0.46155,-1.20278 2.70971,-1.38727 23.84621,-1.38727 23.76566,0 24.35429,0.0454 23.41338,1.80345 -0.53084,0.9919 -3.39335,2.99405 -6.36111,4.44922 -4.79158,2.34943 -6.55094,2.67088 -15.70843,2.8701 -6.71968,0.14618 -11.67641,-0.21912 -14.22733,-1.04852 z"
       style="fill:#f9f9f9;fill-opacity:1" />
    <path
       style="fill:#fdcfc1"
       d="m -346.72209,585.87574 c 0.91215,-0.23769 2.17778,-0.22206 2.8125,0.0348 0.63471,0.25681 -0.1116,0.45129 -1.65847,0.43218 -1.54688,-0.0191 -2.06619,-0.22922 -1.15403,-0.46691 z m 29.0625,0 c 0.91215,-0.23769 2.17778,-0.22206 2.8125,0.0348 0.63471,0.25681 -0.1116,0.45129 -1.65847,0.43218 -1.54688,-0.0191 -2.06619,-0.22922 -1.15403,-0.46691 z m -41.678,-0.92824 c 0.67675,-0.27081 1.48535,-0.23751 1.79688,0.074 0.31152,0.31152 -0.2422,0.5331 -1.23047,0.4924 -1.09214,-0.045 -1.31428,-0.26713 -0.56641,-0.5664 z m 55.3125,0 c 0.67675,-0.27081 1.48535,-0.23751 1.79688,0.074 0.31152,0.31152 -0.2422,0.5331 -1.23047,0.4924 -1.09214,-0.045 -1.31428,-0.26713 -0.56641,-0.5664 z m -34.04297,-4.751 c -4.125,-0.77363 -7.64329,-1.53205 -7.81841,-1.68537 -0.17514,-0.15334 0.42021,-4.49899 1.323,-9.65701 l 1.64142,-9.37823 10.86449,-10.78668 10.8645,-10.78667 9.26473,10.77419 9.26472,10.77419 2.67862,-2.56628 c 1.47324,-1.41145 2.86024,-2.38467 3.0822,-2.1627 0.54602,0.54602 5.24098,19.15503 5.24098,20.77322 0,0.84957 -3.04228,2.01963 -8.96159,3.44664 -4.92888,1.18824 -9.06891,2.00955 -9.20007,1.82516 -0.13116,-0.18441 -2.2695,-8.77279 -4.75188,-19.08529 -2.48238,-10.3125 -4.75122,-19.15678 -5.04188,-19.65396 -0.29067,-0.49717 -1.89987,6.88564 -3.576,16.40625 -1.67614,9.52062 -3.30201,18.6813 -3.61304,20.35709 -0.64365,3.46791 -0.41606,3.4395 -11.26179,1.40545 z m -114.375,-20.96619 c -31.08313,-15.58078 -53.15375,-31.13021 -75.03029,-52.86114 -14.12473,-14.03072 -16.52764,-16.69427 -26.0484,-28.87388 -30.77749,-39.37265 -49.95911,-85.91216 -57.07143,-138.46987 -1.59908,-11.81671 -1.59908,-55.68329 0,-67.5 2.97459,-21.98123 8.64848,-45.28692 15.67391,-64.38109 4.47653,-12.16658 18.59856,-40.80923 25.34246,-51.40016 5.87084,-9.21983 18.35743,-26.0824 25.3387,-34.21875 8.31002,-9.68495 29.07548,-29.52025 38.87984,-37.138275 40.16633,-31.209402 83.42003,-49.82859 134.00896,-57.686114 11.73583,-1.822821 17.24552,-2.111395 40.3125,-2.111395 23.06698,0 28.57667,0.288574 40.3125,2.111395 33.94101,5.271753 60.55957,13.983264 90.73052,29.693563 25.58316,13.321397 46.68871,28.957292 68.2095,50.532516 40.30087,40.40284 66.53044,89.95054 77.20918,145.84831 3.62265,18.96269 4.2999,27.23162 4.2999,52.5 0,25.26838 -0.67725,33.53731 -4.2999,52.5 -8.04584,42.11587 -24.48079,79.80469 -49.87545,114.375 -9.38024,12.76954 -15.26137,19.48677 -29.15386,33.29864 -14.0853,14.00356 -25.33929,23.2364 -41.33864,33.91447 -9.87083,6.58786 -31.09001,18.69991 -29.36525,16.76187 0.34912,-0.39228 -0.79351,-4.09979 -2.53916,-8.2389 -9.78666,-23.20505 -28.03601,-44.10308 -50.59559,-57.9389 -5.43345,-3.33234 -15.57023,-8.42218 -16.77337,-8.42218 -0.17252,0 -0.52632,2.64913 -0.78622,5.88695 -0.69669,8.67937 -3.35033,12.89797 -16.4957,26.22397 l -11.79263,11.95467 -4.06433,-4.64612 c -2.8935,-3.30771 -4.52681,-4.48044 -5.66978,-4.07093 -0.88301,0.31636 -1.3039,0.24158 -0.93533,-0.16618 1.19313,-1.31998 -1.20572,-4.36846 -4.53079,-5.75776 -2.88757,-1.20651 -3.60035,-1.18364 -6.53654,0.20967 -2.31437,1.09825 -3.45527,2.36242 -3.832,4.24604 -0.29504,1.47521 -0.93048,2.68219 -1.41208,2.68219 -0.4816,0 -0.58088,-0.52734 -0.22062,-1.17188 0.36025,-0.64453 -1.85172,1.2636 -4.9155,4.24029 l -5.57051,5.41217 -12.69475,-12.91217 c -13.79103,-14.02721 -16.7386,-18.94857 -16.7386,-27.94733 0,-2.30097 -0.15845,-4.18358 -0.3521,-4.18358 -1.24598,0 -11.68507,5.18893 -17.09689,8.49831 -17.4057,10.64372 -33.00494,26.37732 -43.39295,43.7667 -4.05861,6.79404 -12.28306,25.53958 -12.28306,27.9961 0,1.81176 -0.44987,1.68264 -8.90625,-2.55622 z m 98.90625,-65.87135 c 0,-0.19467 -0.73828,-0.93296 -1.64063,-1.64063 -1.48693,-1.16613 -1.52009,-1.13297 -0.35396,0.35396 1.22472,1.56165 1.99459,2.05827 1.99459,1.28667 z m 63.86959,-1.28667 c 1.16613,-1.48693 1.13297,-1.52009 -0.35397,-0.35396 -0.90234,0.70767 -1.64062,1.44596 -1.64062,1.64063 0,0.7716 0.76987,0.27498 1.99459,-1.28667 z m -18.22017,-78.96869 c 4.98255,-1.75122 9.66308,-5.01666 9.66308,-6.7416 0,-0.42574 -10.96875,-0.77408 -24.375,-0.77408 -13.40625,0 -24.375,0.34834 -24.375,0.77408 0,1.68638 4.63138,4.97285 9.45008,6.70587 7.19856,2.58891 22.32071,2.60715 29.63684,0.0357 z m -42.37857,137.78634 -6.52262,-6.57298 12.76786,-12.76786 c 7.44204,-7.44204 13.20398,-12.49833 13.81339,-12.12169 0.57504,0.35539 1.04552,2.74419 1.04552,5.30845 0,5.8348 2.00547,10.78207 4.71998,11.64361 1.8894,0.59967 1.15184,1.58941 -8.10156,10.87159 -5.59911,5.61653 -10.40964,10.21186 -10.69008,10.21186 -0.28043,0 -3.44505,-2.95784 -7.03249,-6.57298 z m 38.91665,-2.92311 c -8.69651,-10.2189 -9.28341,-11.12891 -7.17742,-11.12891 0.77898,0 2.2907,-1.11158 3.35938,-2.47018 1.56302,-1.98707 1.94304,-3.80979 1.94304,-9.31967 0,-3.76722 0.31641,-7.03969 0.70312,-7.27214 0.585,-0.35163 10.86913,10.97494 22.03137,24.26453 l 2.57823,3.06961 -7.05867,5.94206 c -3.88227,3.26812 -7.36278,6.01773 -7.73448,6.11024 -0.3717,0.0925 -4.26176,-4.04548 -8.64457,-9.19554 z m -14.62032,-14.03848 c -1.4046,-1.55101 -1.85517,-3.7337 -2.11023,-10.22258 -0.28977,-7.37214 -0.11511,-8.45969 1.64062,-10.21542 2.61506,-2.61506 7.65132,-2.61147 10.02275,0.007 1.4046,1.551 1.85517,3.7337 2.11023,10.22258 0.28977,7.37213 0.11511,8.45969 -1.64063,10.21542 -2.61505,2.61505 -7.65131,2.61146 -10.02274,-0.008 z"
       id="path4792"
       inkscape:connector-curvature="0" />
    <path
       style="fill:#98dcfd"
       d="m -338.06806,580.1965 c -4.125,-0.77363 -7.64329,-1.53205 -7.81841,-1.68537 -0.17514,-0.15334 0.42021,-4.49899 1.323,-9.65701 l 1.64142,-9.37823 10.86449,-10.78668 10.8645,-10.78667 9.26473,10.77419 9.26472,10.77419 2.67862,-2.56628 c 1.47324,-1.41145 2.86024,-2.38467 3.0822,-2.1627 0.54602,0.54602 5.24098,19.15503 5.24098,20.77322 0,0.84957 -3.04228,2.01963 -8.96159,3.44664 -4.92888,1.18824 -9.06891,2.00955 -9.20007,1.82516 -0.13116,-0.18441 -2.2695,-8.77279 -4.75188,-19.08529 -2.48238,-10.3125 -4.75122,-19.15678 -5.04188,-19.65396 -0.29067,-0.49717 -1.89987,6.88564 -3.576,16.40625 -1.67614,9.52062 -3.30201,18.6813 -3.61304,20.35709 -0.64365,3.46791 -0.41606,3.4395 -11.26179,1.40545 z m -116.49,-22.19367 c -75.30616,-36.95895 -131.06519,-106.55233 -150.11075,-187.35465 -5.56266,-23.60004 -7.12477,-37.93304 -7.12477,-65.37276 0,-23.39383 0.65015,-31.73065 3.87489,-49.6875 6.05929,-33.74085 17.64046,-64.63928 35.40901,-94.47076 38.52292,-64.67584 103.32518,-112.320279 176.10011,-129.473739 23.54125,-5.548803 37.87828,-7.107581 65.37276,-7.107581 23.37912,0 31.88217,0.660171 49.6875,3.857705 26.33191,4.728764 51.62131,13.082058 75.46875,24.927947 79.39244,39.4371 136.0477,114.964598 151.72563,202.266428 3.22475,17.95685 3.87489,26.29367 3.87489,49.6875 0,27.43972 -1.56211,41.77272 -7.12476,65.37276 -14.9885,63.5899 -53.38448,121.74599 -105.81951,160.2785 -13.89844,10.21343 -37.13199,24.66124 -39.65781,24.66124 -0.45662,0 -1.06146,-0.88424 -1.34408,-1.96498 -0.79511,-3.0405 -7.54615,-16.71921 -10.82899,-21.94127 -8.30369,-13.20885 -21.37074,-27.11378 -34.07092,-36.25559 -7.35718,-5.29583 -22.3741,-13.85518 -24.36047,-13.88499 -0.60802,-0.009 -1.24074,2.44123 -1.51607,5.87128 -0.69669,8.67937 -3.35034,12.89797 -16.4957,26.22397 l -11.79263,11.95467 -4.06433,-4.64612 c -2.87667,-3.28848 -4.53346,-4.4818 -5.66978,-4.08374 -0.88301,0.30932 4.35908,-5.51077 11.64909,-12.93354 12.86313,-13.09737 19.08919,-21.05347 19.08919,-24.3935 0,-1.20539 -1.33986,-1.92406 -5.1959,-2.78702 -3.5405,-0.79232 -5.04836,-1.54727 -4.7328,-2.36961 0.25471,-0.66375 0.9391,-3.86215 1.52087,-7.10756 1.83667,-10.24581 1.77292,-10.14707 8.00292,-12.3949 12.59002,-4.54254 28.84822,-15.17 39.13066,-25.57846 7.48013,-7.57178 15.66124,-18.7303 20.54122,-28.01693 3.36078,-6.39557 3.61559,-6.63585 8.14598,-7.68159 7.58364,-1.75051 13.00903,-4.81001 19.3085,-10.88845 10.06707,-9.71385 14.22818,-21.54532 12.53214,-35.63329 -1.13286,-9.41005 -7.52358,-20.42821 -15.28025,-26.34452 -2.90627,-2.21672 -3.24725,-2.27218 -5.79626,-0.94284 -3.76458,1.96328 -5.02462,1.80484 -9.79041,-1.23107 -5.37964,-3.42693 -10.11939,-8.74892 -16.47373,-18.49732 -15.19255,-23.30742 -31.48936,-69.48704 -32.92046,-93.2854 l -0.48299,-8.03151 -5.42629,0.7421 c -18.33761,2.50782 -33.20638,17.4411 -35.58323,35.73756 -1.28425,9.886 -1.18621,57.80879 0.12598,61.57294 0.68753,1.97224 2.09597,3.50002 3.98438,4.32195 2.49399,1.08552 -7.13521,1.27671 -65.88048,1.30804 l -68.80139,0.0367 0.53452,30.23437 c 0.58642,33.17022 1.54245,40.59885 7.23084,56.1854 7.50255,20.55746 22.70984,40.26663 40.77493,52.84569 7.30773,5.08851 21.37257,12.67354 25.48489,13.74376 1.51785,0.39501 2.18823,1.469 2.59192,4.15243 0.29949,1.99078 1.1366,6.35249 1.86024,9.69268 0.72363,3.3402 1.14396,6.35096 0.93406,6.6906 -0.20991,0.33964 -1.86287,0.89539 -3.67325,1.23502 -2.34804,0.4405 -3.29161,1.11221 -3.29161,2.3432 0,3.40939 7.60076,12.94733 20.43961,25.64895 7.1874,7.1106 12.5952,12.75016 12.01732,12.53236 -0.57787,-0.2178 -3.1826,1.67283 -5.78828,4.20139 l -4.7376,4.59738 -12.6936,-12.91099 c -13.81203,-14.04857 -16.73745,-18.94412 -16.73745,-28.00933 0,-3.96842 -0.13825,-4.20487 -2.10938,-3.60762 -4.12393,1.24957 -15.3221,7.52957 -22.114,12.40168 -22.7324,16.30688 -38.51583,36.92347 -46.99984,61.39205 l -2.52256,7.27526 -10.40047,-5.10437 z m 104.2921,-7.11289 -6.52262,-6.57298 12.76786,-12.76786 c 7.44204,-7.44204 13.20398,-12.49833 13.81339,-12.12169 0.57504,0.35539 1.04552,2.74419 1.04552,5.30845 0,5.8348 2.00547,10.78207 4.71998,11.64361 1.8894,0.59967 1.15184,1.58941 -8.10156,10.87159 -5.59911,5.61653 -10.40964,10.21186 -10.69008,10.21186 -0.28043,0 -3.44505,-2.95784 -7.03249,-6.57298 z m 38.91665,-2.92311 c -8.69651,-10.2189 -9.28341,-11.12891 -7.17742,-11.12891 0.77898,0 2.2907,-1.11158 3.35938,-2.47018 1.56302,-1.98707 1.94304,-3.80979 1.94304,-9.31967 0,-3.76722 0.31641,-7.03969 0.70312,-7.27214 0.585,-0.35163 10.86913,10.97494 22.03137,24.26453 l 2.57823,3.06961 -7.05867,5.94206 c -3.88227,3.26812 -7.36278,6.01773 -7.73448,6.11024 -0.3717,0.0925 -4.26176,-4.04548 -8.64457,-9.19554 z m -14.62032,-14.03848 c -1.4046,-1.55101 -1.85517,-3.7337 -2.11023,-10.22258 -0.28977,-7.37214 -0.11511,-8.45969 1.64062,-10.21542 2.61506,-2.61506 7.65132,-2.61147 10.02275,0.007 1.4046,1.551 1.85517,3.7337 2.11023,10.22258 0.28977,7.37213 0.11511,8.45969 -1.64063,10.21542 -2.61505,2.61505 -7.65131,2.61146 -10.02274,-0.008 z m -11.55919,-107.741 c -12.79342,-2.68347 -21.72383,-7.43265 -25.51371,-13.56818 -1.27997,-2.07218 -1.7382,-2.36255 -1.74077,-1.10314 -0.002,1.12246 -0.56682,1.60089 -1.64414,1.39342 -0.90234,-0.17378 -1.59843,-0.83753 -1.54687,-1.475 0.0516,-0.63746 0.15703,-2.43789 0.23437,-4.00095 0.14198,-2.86912 2.95359,-5.12546 3.67816,-2.95175 0.24465,0.73395 3.04419,1.10617 8.31987,1.10617 7.6499,0 8.03912,0.10456 10.27328,2.7597 3.83141,4.55337 10.95955,6.6153 22.86932,6.6153 11.90977,0 19.03791,-2.06193 22.86932,-6.6153 2.23415,-2.65514 2.62338,-2.7597 10.27328,-2.7597 5.27568,0 8.07522,-0.37222 8.31987,-1.10617 0.72457,-2.17371 3.53618,0.0826 3.67815,2.95175 0.0773,1.56306 0.18282,3.36349 0.23438,4.00095 0.0516,0.63747 -0.64453,1.30122 -1.54688,1.475 -1.07731,0.20747 -1.64182,-0.27096 -1.64413,-1.39342 -0.003,-1.25941 -0.4608,-0.96904 -1.74077,1.10314 -3.13074,5.06843 -8.74654,8.6237 -18.62482,11.79106 -4.97246,1.59436 -9.19637,2.10223 -19.47465,2.34158 -7.21875,0.16812 -14.99172,-0.0859 -17.27326,-0.56446 z m -64.50748,-31.84396 c -4.72822,-1.0005 -10.05111,-3.4153 -11.57457,-5.25096 -1.96856,-2.37196 -1.27895,-6.2247 1.51256,-8.45057 10.25361,-8.17594 38.17088,-4.78341 38.17088,4.63856 0,1.40642 -0.7282,3.36177 -1.61821,4.34523 -3.55695,3.93039 -18.03029,6.50795 -26.49066,4.71774 z m 146.25,0 c -4.72822,-1.0005 -10.05111,-3.4153 -11.57457,-5.25096 -1.96856,-2.37196 -1.27895,-6.2247 1.51256,-8.45057 10.25361,-8.17594 38.17088,-4.78341 38.17088,4.63856 0,1.40642 -0.7282,3.36177 -1.61821,4.34523 -3.55695,3.93039 -18.03029,6.50795 -26.49066,4.71774 z m -70.85367,-9.34987 c -6.11021,-5.36483 -5.53787,-14.92487 1.17747,-19.66837 1.78165,-1.2585 2.9707,-1.47555 4.64615,-0.8481 l 2.25171,0.84326 -1.90018,2.08693 c -4.85208,5.32894 -5.15848,9.1676 -1.03895,13.01582 l 2.97056,2.7749 -2.3731,2.3731 -2.37309,2.37308 -3.36057,-2.95062 z m 114.98753,-17.4631 c 0.33784,-3.04494 0.89066,-10.91516 1.2285,-17.48938 0.33785,-6.57421 0.97097,-11.95312 1.40695,-11.95312 0.43597,0 2.43135,1.63867 4.43416,3.64148 8.70461,8.70461 7.2208,21.08259 -3.40351,28.3923 l -4.28035,2.94495 0.61425,-5.53623 z M -397.0717,353.4574 c -0.73428,-2.9256 0.95881,-5.82511 5.36294,-9.1843 10.464,-7.98128 25.93424,-6.80266 34.1944,2.60514 3.27957,3.73523 3.29161,3.7692 2.44915,6.9128 -0.68892,2.57073 -1.3135,2.62602 -3.77364,0.33405 -8.46531,-7.88664 -25.93061,-7.88664 -34.39592,0 -2.51855,2.34638 -3.10612,2.24414 -3.83693,-0.66769 z m 106.875,0 c -0.73428,-2.9256 0.95881,-5.82511 5.36294,-9.1843 10.464,-7.98128 25.93424,-6.80266 34.1944,2.60514 3.27957,3.73523 3.29161,3.7692 2.44915,6.9128 -0.68892,2.57073 -1.3135,2.62602 -3.77364,0.33405 -4.98442,-4.64369 -14.21086,-6.94913 -22.08386,-5.51817 -5.34601,0.97167 -9.3658,2.77331 -12.31206,5.51817 -2.51855,2.34638 -3.10612,2.24414 -3.83693,-0.66769 z m -118.14092,-38.56439 c -0.81622,-2.12704 1.78484,-4.21454 8.66737,-6.95609 4.63939,-1.84804 7.03774,-2.13197 18.00844,-2.13197 11.05655,0 13.36723,0.27808 18.28125,2.20004 5.30009,2.07295 8.92421,4.36307 8.8919,5.61886 -0.007,0.30679 -0.34424,1.07713 -0.74743,1.71184 -0.56382,0.88759 -1.85378,0.7282 -5.58712,-0.69036 -10.91016,-4.14553 -30.79058,-4.13725 -41.7215,0.0173 -2.69409,1.02397 -4.95869,1.86198 -5.03242,1.86224 -0.0738,2.6e-4 -0.41596,-0.73412 -0.76049,-1.63194 z m 118.125,-2.8125 c -0.81622,-2.12704 1.78484,-4.21454 8.66737,-6.95609 4.63939,-1.84804 7.03774,-2.13197 18.00844,-2.13197 11.05655,0 13.36723,0.27808 18.28125,2.20004 5.30009,2.07295 8.92421,4.36307 8.8919,5.61886 -0.007,0.30679 -0.34424,1.07713 -0.74743,1.71184 -0.56382,0.88759 -1.85378,0.7282 -5.58712,-0.69036 -10.91016,-4.14553 -30.79058,-4.13725 -41.7215,0.0173 -2.69409,1.02397 -4.95869,1.86198 -5.03242,1.86224 -0.0738,2.6e-4 -0.41596,-0.73412 -0.76049,-1.63194 z"
       id="path4790"
       inkscape:connector-curvature="0" />
    <path
       style="fill:#e8a7ab"
       d="m -454.55806,558.00283 c -75.30616,-36.95895 -131.06519,-106.55233 -150.11075,-187.35465 -5.56266,-23.60004 -7.12477,-37.93304 -7.12477,-65.37276 0,-23.39383 0.65015,-31.73065 3.87489,-49.6875 6.05929,-33.74085 17.64046,-64.63928 35.40901,-94.47076 38.52292,-64.67584 103.32518,-112.320279 176.10011,-129.473739 23.54125,-5.548803 37.87828,-7.107581 65.37276,-7.107581 23.37912,0 31.88217,0.660171 49.6875,3.857705 26.33191,4.728764 51.62131,13.082058 75.46875,24.927947 79.39244,39.4371 136.0477,114.964598 151.72563,202.266428 3.22475,17.95685 3.87489,26.29367 3.87489,49.6875 0,27.43972 -1.56211,41.77272 -7.12476,65.37276 -14.9885,63.5899 -53.38448,121.74599 -105.81951,160.2785 -13.89844,10.21343 -37.13199,24.66124 -39.65781,24.66124 -0.45662,0 -1.06146,-0.88424 -1.34408,-1.96498 -0.79511,-3.0405 -7.54615,-16.71921 -10.82899,-21.94127 -15.91961,-25.32364 -43.78124,-46.91989 -69.81124,-54.11244 -5.01619,-1.38607 -7.58646,-2.535 -7.31092,-3.26806 0.23372,-0.62178 0.90094,-3.78584 1.48271,-7.03125 1.83667,-10.24581 1.77292,-10.14707 8.00292,-12.3949 12.59002,-4.54254 28.84822,-15.17 39.13066,-25.57846 7.48013,-7.57178 15.66124,-18.7303 20.54122,-28.01693 3.36078,-6.39557 3.61559,-6.63585 8.14598,-7.68159 7.58364,-1.75051 13.00903,-4.81001 19.3085,-10.88845 10.06707,-9.71385 14.22817,-21.54532 12.53214,-35.63329 -1.13286,-9.41005 -7.52358,-20.42821 -15.28025,-26.34452 -2.90627,-2.21672 -3.24725,-2.27218 -5.79626,-0.94284 -3.76458,1.96328 -5.02462,1.80484 -9.79041,-1.23107 -5.37964,-3.42693 -10.11939,-8.74892 -16.47373,-18.49732 -15.19255,-23.30742 -31.48936,-69.48704 -32.92046,-93.2854 l -0.48299,-8.03151 -5.42629,0.7421 c -18.33761,2.50782 -33.20638,17.4411 -35.58323,35.73756 -1.28425,9.886 -1.18621,57.80879 0.12598,61.57294 0.68753,1.97224 2.09597,3.50002 3.98438,4.32195 2.49399,1.08552 -7.13521,1.27671 -65.88048,1.30804 l -68.80139,0.0367 0.53452,30.23437 c 0.58642,33.17022 1.54245,40.59885 7.23084,56.1854 7.50255,20.55746 22.70984,40.26663 40.77493,52.84569 7.30773,5.08851 21.37257,12.67354 25.48489,13.74376 1.51196,0.39348 2.19546,1.4794 2.61363,4.15243 0.31143,1.99078 1.07595,6.15085 1.69892,9.2446 0.62297,3.09375 1.13434,5.98105 1.13637,6.41623 0.002,0.43518 -3.03447,1.75449 -6.74777,2.9318 -35.35866,11.21056 -66.63126,41.93362 -79.00301,77.61474 l -2.52255,7.27526 -10.40048,-5.10437 z m 117.02924,-131.81548 c -12.79342,-2.68347 -21.72383,-7.43265 -25.51371,-13.56818 -1.27997,-2.07218 -1.7382,-2.36255 -1.74077,-1.10314 -0.002,1.12246 -0.56682,1.60089 -1.64414,1.39342 -0.90234,-0.17378 -1.59843,-0.83753 -1.54687,-1.475 0.0516,-0.63746 0.15703,-2.43789 0.23437,-4.00095 0.14198,-2.86912 2.95359,-5.12546 3.67816,-2.95175 0.24465,0.73395 3.04419,1.10617 8.31987,1.10617 7.6499,0 8.03912,0.10456 10.27328,2.7597 3.83141,4.55337 10.95955,6.6153 22.86932,6.6153 11.90977,0 19.03791,-2.06193 22.86932,-6.6153 2.23415,-2.65514 2.62338,-2.7597 10.27328,-2.7597 5.27568,0 8.07522,-0.37222 8.31987,-1.10617 0.72457,-2.17371 3.53618,0.0826 3.67815,2.95175 0.0773,1.56306 0.18282,3.36349 0.23438,4.00095 0.0516,0.63747 -0.64453,1.30122 -1.54688,1.475 -1.07731,0.20747 -1.64182,-0.27096 -1.64413,-1.39342 -0.003,-1.25941 -0.4608,-0.96904 -1.74077,1.10314 -3.13074,5.06843 -8.74654,8.6237 -18.62482,11.79106 -4.97246,1.59436 -9.19637,2.10223 -19.47465,2.34158 -7.21875,0.16812 -14.99172,-0.0859 -17.27326,-0.56446 z m -64.50748,-31.84396 c -4.72822,-1.0005 -10.05111,-3.4153 -11.57457,-5.25096 -1.96856,-2.37196 -1.27895,-6.2247 1.51256,-8.45057 10.25361,-8.17594 38.17088,-4.78341 38.17088,4.63856 0,1.40642 -0.7282,3.36177 -1.61821,4.34523 -3.55695,3.93039 -18.03029,6.50795 -26.49066,4.71774 z m 146.25,0 c -4.72822,-1.0005 -10.05111,-3.4153 -11.57457,-5.25096 -1.96856,-2.37196 -1.27895,-6.2247 1.51256,-8.45057 10.25361,-8.17594 38.17088,-4.78341 38.17088,4.63856 0,1.40642 -0.7282,3.36177 -1.61821,4.34523 -3.55695,3.93039 -18.03029,6.50795 -26.49066,4.71774 z m -70.85367,-9.34987 c -6.11021,-5.36483 -5.53787,-14.92487 1.17747,-19.66837 1.78165,-1.2585 2.9707,-1.47555 4.64615,-0.8481 l 2.25171,0.84326 -1.90018,2.08693 c -4.85208,5.32894 -5.15848,9.1676 -1.03895,13.01582 l 2.97056,2.7749 -2.3731,2.3731 -2.37309,2.37308 -3.36057,-2.95062 z m 114.98753,-17.4631 c 0.33784,-3.04494 0.89066,-10.91516 1.2285,-17.48938 0.33785,-6.57421 0.97097,-11.95312 1.40695,-11.95312 0.43597,0 2.43135,1.63867 4.43416,3.64148 8.70461,8.70461 7.2208,21.08259 -3.40351,28.3923 l -4.28035,2.94495 0.61425,-5.53623 z M -397.0717,353.4574 c -0.73428,-2.9256 0.95881,-5.82511 5.36294,-9.1843 10.464,-7.98128 25.93424,-6.80266 34.1944,2.60514 3.27957,3.73523 3.29161,3.7692 2.44915,6.9128 -0.68892,2.57073 -1.3135,2.62602 -3.77364,0.33405 -8.46531,-7.88664 -25.93061,-7.88664 -34.39592,0 -2.51855,2.34638 -3.10612,2.24414 -3.83693,-0.66769 z m 106.875,0 c -0.73428,-2.9256 0.95881,-5.82511 5.36294,-9.1843 10.464,-7.98128 25.93424,-6.80266 34.1944,2.60514 3.27957,3.73523 3.29161,3.7692 2.44915,6.9128 -0.68892,2.57073 -1.3135,2.62602 -3.77364,0.33405 -4.98442,-4.64369 -14.21086,-6.94913 -22.08386,-5.51817 -5.34601,0.97167 -9.3658,2.77331 -12.31206,5.51817 -2.51855,2.34638 -3.10612,2.24414 -3.83693,-0.66769 z m -118.14092,-38.56439 c -0.81622,-2.12704 1.78484,-4.21454 8.66737,-6.95609 4.63939,-1.84804 7.03774,-2.13197 18.00844,-2.13197 11.05655,0 13.36723,0.27808 18.28125,2.20004 5.30009,2.07295 8.92421,4.36307 8.8919,5.61886 -0.007,0.30679 -0.34424,1.07713 -0.74743,1.71184 -0.56382,0.88759 -1.85378,0.7282 -5.58712,-0.69036 -10.91016,-4.14553 -30.79058,-4.13725 -41.7215,0.0173 -2.69409,1.02397 -4.95869,1.86198 -5.03242,1.86224 -0.0738,2.6e-4 -0.41596,-0.73412 -0.76049,-1.63194 z m 118.125,-2.8125 c -0.81622,-2.12704 1.78484,-4.21454 8.66737,-6.95609 4.63939,-1.84804 7.03774,-2.13197 18.00844,-2.13197 11.05655,0 13.36723,0.27808 18.28125,2.20004 5.30009,2.07295 8.92421,4.36307 8.8919,5.61886 -0.007,0.30679 -0.34424,1.07713 -0.74743,1.71184 -0.56382,0.88759 -1.85378,0.7282 -5.58712,-0.69036 -10.91016,-4.14553 -30.79058,-4.13725 -41.7215,0.0173 -2.69409,1.02397 -4.95869,1.86198 -5.03242,1.86224 -0.0738,2.6e-4 -0.41596,-0.73412 -0.76049,-1.63194 z"
       id="path4788"
       inkscape:connector-curvature="0" />
    <path
       style="fill:#e3887e"
       d="m -456.19306,556.86457 c -86.26221,-43.70554 -142.80774,-124.71688 -154.34098,-221.1204 -1.54957,-12.95246 -1.55354,-48.51133 -0.007,-60.9375 8.09216,-65.01053 34.38234,-120.33025 78.78354,-165.77602 45.71854,-46.794125 104.25019,-75.412321 170.25174,-83.242099 12.9462,-1.535809 48.52651,-1.540396 60.9375,-0.0079 61.3045,7.570039 114.7641,31.763769 158.4375,71.702637 45.98166,42.049742 76.59026,97.154752 87.56034,157.635832 3.35564,18.50061 4.21559,28.73195 4.21559,50.15625 0,21.42431 -0.85995,31.65565 -4.21559,50.15625 -13.00223,71.68491 -53.94918,136.2206 -113.29403,178.56047 -8.41398,6.003 -24.08601,15.75603 -30.72028,19.11785 l -4.81877,2.44186 -1.11288,-3.49758 c -2.41847,-7.6009 -10.86387,-22.06504 -18.4284,-31.5617 -16.25806,-20.41067 -36.31004,-34.61396 -59.81098,-42.36552 -6.19628,-2.04378 -9.25799,-3.50178 -9.0299,-4.30006 0.1898,-0.66429 1.011,-4.66263 1.82489,-8.88519 l 1.4798,-7.67738 4.26885,-1.62236 c 27.26373,-10.36148 49.06125,-29.88431 61.77875,-55.33178 2.74999,-5.50269 3.05045,-5.77319 7.08438,-6.37812 10.48335,-1.57207 23.56879,-11.86634 28.68068,-22.56298 3.9779,-8.32376 5.29837,-16.75762 3.85303,-24.60938 -1.94176,-10.54861 -6.03747,-17.67197 -14.89441,-25.90472 l -2.90644,-2.70161 -3.86315,1.54573 c -3.61493,1.44641 -4.08529,1.44103 -7.31982,-0.0838 -7.13526,-3.36368 -16.43914,-14.98115 -25.7494,-32.15244 -11.99467,-22.12227 -25.98851,-67.23986 -25.98851,-83.78966 0,-6.08853 0.10804,-6.04403 -9.29378,-3.82789 -8.07837,1.90419 -13.87243,5.21471 -20.22094,11.55355 -5.77346,5.76467 -9.9735,13.52489 -11.63677,21.50077 -0.62801,3.01151 -1.03056,16.30295 -1.02219,33.75 0.0148,30.77011 0.22909,32.35085 4.69216,34.60906 1.88616,0.95435 -10.55426,1.17914 -65.87786,1.19035 l -68.20312,0.0138 0,24.27567 c 0,13.35161 0.43841,28.64458 0.97426,33.98438 2.55312,25.44246 13.81613,49.84084 31.13246,67.44034 11.26784,11.45212 20.9388,18.17318 35.62765,24.76027 6.41154,2.8752 8.20668,4.09681 8.2194,5.59336 0.0187,2.1922 2.33154,13.33442 3.24758,15.64497 0.49809,1.25636 -0.83577,2.018 -7.18549,4.10291 -20.00262,6.56784 -38.92248,19.23917 -54.40743,36.43868 -11.19063,12.42972 -17.79864,23.26855 -23.76107,38.97434 -1.65654,4.36352 -3.37565,8.04122 -3.82025,8.17266 -0.4446,0.13145 -5.44899,-2.11222 -11.12086,-4.98593 z M -336.12275,426.22 c -6.59561,-1.19434 -13.53235,-3.55783 -17.94717,-6.11499 -4.63032,-2.68198 -9.75764,-7.7751 -9.83882,-9.77319 -0.0372,-0.91705 -0.37354,-0.68164 -0.90151,0.63112 -0.96666,2.40349 -3.69529,1.96694 -3.21067,-0.51369 1.11271,-5.69575 1.54264,-6.73633 2.78322,-6.73633 0.76361,0 1.38839,0.42187 1.38839,0.9375 0,0.55237 3.3144,0.9375 8.0682,0.9375 7.5132,0 8.19643,0.16302 9.93237,2.36991 1.02529,1.30344 3.61726,3.30735 5.75993,4.45312 3.51147,1.87773 5.23664,2.08322 17.4895,2.08322 12.25286,0 13.97803,-0.20549 17.4895,-2.08322 2.14267,-1.14577 4.73464,-3.14968 5.75993,-4.45312 1.73594,-2.20689 2.41917,-2.36991 9.93237,-2.36991 4.7538,0 8.0682,-0.38513 8.0682,-0.9375 0,-0.51563 0.62478,-0.9375 1.38839,-0.9375 1.24058,0 1.67051,1.04058 2.78322,6.73633 0.48462,2.48063 -2.24401,2.91718 -3.21067,0.51369 -0.54421,-1.35313 -0.86311,-1.56869 -0.90151,-0.6094 -0.16716,4.17539 -11.35738,11.66756 -21.7447,14.55869 -6.00672,1.67186 -26.58576,2.48522 -33.08817,1.30777 z m 9.13354,-42.06051 c -3.32439,-3.03663 -4.6692,-7.75206 -3.26452,-11.44668 1.38044,-3.63082 5.73225,-8.37489 7.68243,-8.37489 2.87244,0 3.05821,1.74779 0.50793,4.77862 -3.30726,3.93045 -3.25631,8.58994 0.12819,11.7266 2.02227,1.87417 2.33579,2.67613 1.54015,3.93961 -1.56904,2.49165 -3.37048,2.32138 -6.59418,-0.62326 z m 115.49093,-14.81164 c 0.39794,-1.4664 0.98493,-9.20524 1.30445,-17.19743 l 0.58094,-14.53125 4.29484,4.31362 c 5.17732,5.19995 6.90767,10.45671 5.40557,16.42208 -1.1523,4.57619 -5.44869,10.11141 -9.45744,12.18442 l -2.85186,1.47475 0.7235,-2.66619 z m -185.16265,-15.78886 c -1.12559,-2.96054 1.2805,-6.71852 6.4921,-10.13978 9.63061,-6.32219 21.16538,-5.821 30.17012,1.31089 4.76737,3.77582 5.77648,5.69775 4.60684,8.77412 l -0.91782,2.41406 -4.14922,-3.16717 c -5.97912,-4.56396 -14.13842,-6.00426 -22.25801,-3.92903 -3.4694,0.88671 -7.45285,2.71177 -9.49668,4.35099 l -3.52053,2.82359 -0.9268,-2.43767 z m 106.875,0 c -1.12559,-2.96054 1.2805,-6.71852 6.4921,-10.13978 9.63061,-6.32219 21.16538,-5.821 30.17012,1.31089 4.76737,3.77582 5.77648,5.69775 4.60684,8.77412 l -0.91782,2.41406 -4.14922,-3.16717 c -5.97912,-4.56396 -14.13842,-6.00426 -22.25801,-3.92903 -3.4694,0.88671 -7.45285,2.71177 -9.49668,4.35099 l -3.52053,2.82359 -0.9268,-2.43767 z m -118.09896,-38.85827 c -0.85184,-1.59166 -0.44986,-2.14781 3.02363,-4.18342 11.68876,-6.85006 34.71014,-6.85006 46.3989,0 3.47349,2.03561 3.87547,2.59176 3.02363,4.18342 -0.92356,1.72568 -1.15271,1.74764 -3.82376,0.36639 -3.79795,-1.96401 -15.63919,-4.16669 -22.39932,-4.16669 -6.76013,0 -18.60137,2.20268 -22.39932,4.16669 -2.67105,1.38125 -2.90021,1.35929 -3.82376,-0.36639 z m 118.125,-2.8125 c -0.85184,-1.59166 -0.44986,-2.14781 3.02363,-4.18342 11.68876,-6.85006 34.71014,-6.85006 46.3989,0 3.47349,2.03561 3.87547,2.59176 3.02363,4.18342 -0.92356,1.72568 -1.15271,1.74764 -3.82376,0.36639 -3.79795,-1.96401 -15.63919,-4.16669 -22.39932,-4.16669 -6.76013,0 -18.60137,2.20268 -22.39932,4.16669 -2.67105,1.38125 -2.9002,1.35929 -3.82376,-0.36639 z"
       id="path4786"
       inkscape:connector-curvature="0" />
    <path
       style="fill:#a69490"
       d="m -456.19306,556.86457 c -86.26221,-43.70554 -142.80774,-124.71688 -154.34098,-221.1204 -1.54957,-12.95246 -1.55354,-48.51133 -0.007,-60.9375 8.09216,-65.01053 34.38234,-120.33025 78.78354,-165.77602 45.71854,-46.794125 104.25019,-75.412321 170.25174,-83.242099 12.9462,-1.535809 48.52651,-1.540396 60.9375,-0.0079 61.3045,7.570039 114.7641,31.763769 158.4375,71.702637 45.98166,42.049742 76.59026,97.154752 87.56034,157.635832 3.35564,18.50061 4.21559,28.73195 4.21559,50.15625 0,21.42431 -0.85995,31.65565 -4.21559,50.15625 -13.00223,71.68491 -53.94918,136.2206 -113.29403,178.56047 -8.41398,6.003 -24.08601,15.75603 -30.72028,19.11785 l -4.81877,2.44186 -1.11288,-3.49758 c -2.41847,-7.6009 -10.86387,-22.06504 -18.4284,-31.5617 -16.25806,-20.41067 -36.31004,-34.61396 -59.81098,-42.36552 -6.19628,-2.04378 -9.25799,-3.50178 -9.0299,-4.30006 0.1898,-0.66429 1.011,-4.66263 1.82489,-8.88519 l 1.4798,-7.67738 4.26885,-1.62236 c 27.26373,-10.36148 49.06125,-29.88431 61.77875,-55.33178 2.74999,-5.50269 3.05045,-5.77319 7.08438,-6.37812 10.48335,-1.57207 23.56879,-11.86634 28.68068,-22.56298 3.9779,-8.32376 5.29837,-16.75762 3.85303,-24.60938 -1.94176,-10.54861 -6.03747,-17.67197 -14.89441,-25.90472 l -2.90644,-2.70161 -3.86315,1.54573 c -3.61493,1.44641 -4.08529,1.44103 -7.31982,-0.0838 -7.13526,-3.36368 -16.43914,-14.98115 -25.7494,-32.15244 -11.99467,-22.12227 -25.98851,-67.23986 -25.98851,-83.78966 0,-6.08853 0.10804,-6.04403 -9.29378,-3.82789 -8.07837,1.90419 -13.87243,5.21471 -20.22094,11.55355 -5.77346,5.76467 -9.9735,13.52489 -11.63677,21.50077 -0.62801,3.01151 -1.03056,16.30295 -1.02219,33.75 0.0148,30.77011 0.22909,32.35085 4.69216,34.60906 1.88616,0.95435 -10.55426,1.17914 -65.87786,1.19035 l -68.20312,0.0138 0,24.27567 c 0,13.35161 0.43841,28.64458 0.97426,33.98438 2.55312,25.44246 13.81613,49.84084 31.13246,67.44034 11.26784,11.45212 20.9388,18.17318 35.62765,24.76027 6.41154,2.8752 8.20668,4.09681 8.2194,5.59336 0.0187,2.1922 2.33154,13.33442 3.24758,15.64497 0.49809,1.25636 -0.83577,2.018 -7.18549,4.10291 -20.00262,6.56784 -38.92248,19.23917 -54.40743,36.43868 -11.19063,12.42972 -17.79864,23.26855 -23.76107,38.97434 -1.65654,4.36352 -3.37565,8.04122 -3.82025,8.17266 -0.4446,0.13145 -5.44899,-2.11222 -11.12086,-4.98593 z M -352.2373,421.06148 c -5.27933,-2.63079 -11.57948,-8.41086 -11.67144,-10.70794 -0.0384,-0.95929 -0.3573,-0.74373 -0.90151,0.6094 -0.96666,2.40349 -3.69529,1.96694 -3.21067,-0.51369 1.11271,-5.69575 1.54264,-6.73633 2.78322,-6.73633 0.76361,0 1.38839,0.42187 1.38839,0.9375 0,0.55237 3.3144,0.9375 8.0682,0.9375 7.5132,0 8.19643,0.16302 9.93237,2.36991 1.02529,1.30344 3.61726,3.30735 5.75993,4.45312 3.51147,1.87773 5.23664,2.08322 17.4895,2.08322 12.25286,0 13.97803,-0.20549 17.4895,-2.08322 2.14267,-1.14577 4.73464,-3.14968 5.75993,-4.45312 1.73594,-2.20689 2.41917,-2.36991 9.93237,-2.36991 4.7538,0 8.0682,-0.38513 8.0682,-0.9375 0,-0.51563 0.62478,-0.9375 1.38839,-0.9375 1.24058,0 1.67051,1.04058 2.78322,6.73633 0.48462,2.48063 -2.24401,2.91718 -3.21067,0.51369 -0.52797,-1.31276 -0.86426,-1.54817 -0.90151,-0.63112 -0.0807,1.9874 -5.18773,7.07347 -9.8404,9.80012 -3.43401,2.01246 -4.238,2.13392 -8.0331,1.21347 -8.63937,-2.09536 -40.82311,-1.07427 -46.8901,1.48766 -0.7826,0.33048 -3.56532,-0.46674 -6.18382,-1.77159 z m 25.24809,-36.90199 c -3.32439,-3.03663 -4.6692,-7.75206 -3.26452,-11.44668 1.38045,-3.63082 5.73225,-8.37489 7.68243,-8.37489 2.87244,0 3.05821,1.74779 0.50793,4.77862 -3.30726,3.93045 -3.25631,8.58994 0.12819,11.7266 2.02227,1.87417 2.33579,2.67613 1.54015,3.93961 -1.56904,2.49165 -3.37048,2.32138 -6.59418,-0.62326 z m -69.67172,-30.6005 c -1.12559,-2.96054 1.2805,-6.71852 6.4921,-10.13978 9.63061,-6.32219 21.16538,-5.821 30.17012,1.31089 4.76737,3.77582 5.77648,5.69775 4.60684,8.77412 l -0.91782,2.41406 -4.14922,-3.16717 c -5.97912,-4.56396 -14.13842,-6.00426 -22.25801,-3.92903 -3.4694,0.88671 -7.45285,2.71177 -9.49668,4.35099 l -3.52053,2.82359 -0.9268,-2.43767 z m 106.875,0 c -1.12559,-2.96054 1.2805,-6.71852 6.4921,-10.13978 9.63061,-6.32219 21.16538,-5.821 30.17012,1.31089 4.76737,3.77582 5.77648,5.69775 4.60684,8.77412 l -0.91782,2.41406 -4.14922,-3.16717 c -5.97912,-4.56396 -14.13842,-6.00426 -22.25801,-3.92903 -3.4694,0.88671 -7.45285,2.71177 -9.49668,4.35099 l -3.52053,2.82359 -0.9268,-2.43767 z m -118.09896,-38.85827 c -0.85184,-1.59166 -0.44986,-2.14781 3.02363,-4.18342 11.68876,-6.85006 34.71014,-6.85006 46.3989,0 3.47349,2.03561 3.87547,2.59176 3.02363,4.18342 -0.92356,1.72568 -1.15271,1.74764 -3.82376,0.36639 -3.79795,-1.96401 -15.63919,-4.16669 -22.39932,-4.16669 -6.76013,0 -18.60137,2.20268 -22.39932,4.16669 -2.67105,1.38125 -2.90021,1.35929 -3.82376,-0.36639 z m 118.125,-2.8125 c -0.85184,-1.59166 -0.44986,-2.14781 3.02363,-4.18342 11.68876,-6.85006 34.71014,-6.85006 46.3989,0 3.47349,2.03561 3.87547,2.59176 3.02363,4.18342 -0.92356,1.72568 -1.15271,1.74764 -3.82376,0.36639 -3.79795,-1.96401 -15.63919,-4.16669 -22.39932,-4.16669 -6.76013,0 -18.60137,2.20268 -22.39932,4.16669 -2.67105,1.38125 -2.9002,1.35929 -3.82376,-0.36639 z"
       id="path4784"
       inkscape:connector-curvature="0" />
    <path
       style="fill:#bb678e"
       d="m -456.19306,556.86457 c -86.26221,-43.70554 -142.80774,-124.71688 -154.34098,-221.1204 -1.54957,-12.95246 -1.55354,-48.51133 -0.007,-60.9375 8.09216,-65.01053 34.38234,-120.33025 78.78354,-165.77602 45.71854,-46.794125 104.25019,-75.412321 170.25174,-83.242099 12.9462,-1.535809 48.52651,-1.540396 60.9375,-0.0079 61.3045,7.570039 114.7641,31.763769 158.4375,71.702637 45.98166,42.049742 76.59026,97.154752 87.56034,157.635832 3.35564,18.50061 4.21559,28.73195 4.21559,50.15625 0,21.42431 -0.85995,31.65565 -4.21559,50.15625 -13.00223,71.68491 -53.94918,136.2206 -113.29403,178.56047 -8.41398,6.003 -24.08601,15.75603 -30.72028,19.11785 l -4.81877,2.44186 -1.12017,-3.49758 c -0.61609,-1.92368 -3.03075,-7.23082 -5.36592,-11.79365 -14.81782,-28.95359 -41.84466,-52.3295 -71.79466,-62.09625 -7.57895,-2.47151 -9.48107,-3.44411 -9.37138,-4.7918 0.0757,-0.92999 0.69176,-4.92022 1.36902,-8.86718 1.22553,-7.14226 1.24811,-7.18132 4.76009,-8.23353 6.19928,-1.85735 21.66241,-10.08264 28.43063,-15.12309 13.83504,-10.30328 24.9508,-23.10665 33.05011,-38.06784 4.29054,-7.92556 4.59436,-8.2487 8.35971,-8.8915 10.62959,-1.81461 23.81868,-12.18026 28.74334,-22.59016 8.47841,-17.92188 3.95669,-38.56701 -11.16001,-50.954 -3.76461,-3.08481 -4.23424,-3.24129 -5.60722,-1.86832 -1.86367,1.86367 -6.24861,1.92979 -9.69763,0.14622 -7.09891,-3.67096 -19.62986,-21.12436 -28.3087,-39.42897 -11.43324,-24.11393 -22.42072,-62.13007 -22.42072,-77.57457 l 0,-3.73523 -5.356,0.66919 c -14.79746,1.84883 -28.05221,12.21835 -34.17295,26.73436 -2.11441,5.01456 -2.18227,6.07228 -2.46954,38.49084 l -0.29539,33.3346 2.52478,2.52478 2.52478,2.52478 -67.15909,0 -67.15909,0 0,27.66242 c 0,19.6092 0.40305,30.34591 1.38446,36.88005 4.40779,29.34653 20.4972,55.85047 45.02179,74.16395 6.24467,4.66314 25.79631,15.04358 28.3347,15.04358 0.74807,0 1.21681,1.31768 1.2506,3.51562 0.0297,1.9336 0.77962,6.29531 1.66645,9.69269 l 1.61243,6.17705 -7.99459,2.68867 c -35.08011,11.79784 -64.17414,40.09179 -77.41645,75.2875 -1.66315,4.42039 -3.38768,8.14461 -3.83228,8.27605 -0.4446,0.13145 -5.44899,-2.11222 -11.12086,-4.98593 z m 103.9064,-136.34915 c -6.51288,-3.41451 -10.47928,-6.98863 -11.27527,-10.16011 -0.57808,-2.30325 -0.58536,-2.30466 -1.3416,-0.26035 -0.83969,2.2699 -2.69578,2.79758 -2.69578,0.7664 0,-0.70899 0.26125,-2.59534 0.58057,-4.19189 0.49044,-2.45224 0.84468,-2.76148 2.28211,-1.99219 0.93585,0.50085 4.90741,0.91064 8.82569,0.91064 6.8504,0 7.24647,0.12233 10.30811,3.18397 4.75669,4.7567 11.2617,6.63216 23.00352,6.63216 11.74182,0 18.24682,-1.87546 23.00352,-6.63216 3.06164,-3.06164 3.45771,-3.18397 10.30811,-3.18397 3.91828,0 7.88984,-0.40979 8.82569,-0.91064 1.43743,-0.76929 1.79167,-0.46005 2.28211,1.99219 0.31932,1.59655 0.58057,3.4829 0.58057,4.19189 0,2.04343 -1.85155,1.49772 -2.78329,-0.82032 -0.60327,-1.50086 -0.865,-1.65683 -0.90728,-0.54068 -0.0945,2.49385 -4.41139,6.98906 -9.5745,9.96998 -3.98499,2.30071 -5.31009,2.62771 -8.16769,2.01561 -10.64907,-2.28107 -41.20712,-1.62409 -46.09341,0.99098 -1.27232,0.68092 -3.04946,0.19415 -7.16118,-1.96151 z m 26.69312,-35.8322 c -4.43516,-3.74781 -5.47999,-6.29017 -4.37469,-10.64472 1.14118,-4.49591 6.23674,-10.04221 8.14345,-8.8638 0.9617,0.59436 0.70345,1.54001 -1.17758,4.31185 -3.06213,4.5123 -3.08882,8.07266 -0.0819,10.92484 2.62136,2.48646 2.91686,3.85976 1.14663,5.32891 -0.89778,0.74509 -1.84856,0.47018 -3.65591,-1.05708 z m -70.48043,-30.21677 c -1.24867,-3.25396 -0.43233,-5.11664 3.86528,-8.81964 4.39935,-3.79066 11.31304,-6.62139 16.17188,-6.62139 5.28992,0 12.02473,2.84848 16.72372,7.07328 4.46192,4.01164 4.66522,4.3948 3.74004,7.04877 l -0.97836,2.80653 -2.28271,-2.2827 c -4.32115,-4.32116 -8.59283,-5.74128 -17.20269,-5.71907 -8.43238,0.0217 -13.66344,1.83567 -17.65764,6.12294 -1.58824,1.70477 -1.85844,1.74921 -2.37952,0.39128 z m 106.875,0 c -1.24867,-3.25396 -0.43233,-5.11664 3.86528,-8.81964 4.39935,-3.79066 11.31304,-6.62139 16.17188,-6.62139 5.28992,0 12.02473,2.84848 16.72372,7.07328 4.46192,4.01164 4.66522,4.3948 3.74004,7.04877 l -0.97836,2.80653 -2.28271,-2.2827 c -4.32115,-4.32116 -8.59283,-5.74128 -17.20269,-5.71907 -8.43238,0.0217 -13.66344,1.83567 -17.65764,6.12294 -1.58824,1.70477 -1.85844,1.74921 -2.37952,0.39128 z m -118.08784,-39.50353 c -1.18548,-1.18547 -0.61378,-2.00892 2.78834,-4.01622 7.56528,-4.46362 24.47111,-6.29413 35.37693,-3.83049 5.28863,1.19471 12.37204,4.25324 13.28994,5.73843 1.44229,2.33367 -1.27694,2.61568 -6.17594,0.6405 -4.51365,-1.8198 -6.85148,-2.06549 -19.65427,-2.06549 -12.83047,0 -15.13475,0.24329 -19.6875,2.07866 -6.02907,2.43053 -5.17164,2.22047 -5.9375,1.45461 z m 118.125,-2.8125 c -1.18547,-1.18547 -0.61378,-2.00892 2.78834,-4.01622 7.56528,-4.46362 24.47111,-6.29413 35.37693,-3.83049 5.28863,1.19471 12.37204,4.25324 13.28994,5.73843 1.44229,2.33367 -1.27694,2.61568 -6.17594,0.6405 -4.51365,-1.8198 -6.85148,-2.06549 -19.65427,-2.06549 -12.83047,0 -15.13475,0.24329 -19.6875,2.07866 -6.02907,2.43053 -5.17164,2.22047 -5.9375,1.45461 z"
       id="path4782"
       inkscape:connector-curvature="0" />
    <path
       style="fill:#ad4b7a"
       d="m -455.75439,556.61444 c -29.47078,-14.91164 -51.4773,-30.8577 -74.50117,-53.98405 -52.46045,-52.69394 -81.21928,-122.5751 -81.21928,-197.35497 0,-74.43579 28.74835,-144.52968 80.75053,-196.88497 47.06873,-47.388356 106.10058,-75.700539 172.03125,-82.507681 13.24818,-1.367835 42.06432,-1.367835 55.3125,0 45.88648,4.73764 89.26357,20.166672 126.40106,44.960276 5.06746,3.383121 10.25259,6.830736 11.5225,7.661366 11.99242,7.844084 40.21246,34.804609 52.53,50.185499 40.96059,51.14741 62.32821,111.6852 62.32821,176.58551 0,65.37739 -21.10218,124.91822 -62.78514,177.15132 -12.12757,15.19711 -38.98896,40.73442 -52.33822,49.7583 -1.11599,0.7544 -5.54568,3.74793 -9.84375,6.6523 -11.04564,7.46398 -25.55134,15.81308 -27.47357,15.81308 -0.19356,0 -0.85819,-1.58203 -1.47697,-3.51563 -2.11635,-6.61335 -8.8435,-18.51199 -15.50353,-27.42187 -16.41971,-21.96648 -37.84732,-37.7742 -61.79809,-45.59011 -7.46357,-2.4356 -9.34694,-3.40411 -9.23737,-4.75025 0.0757,-0.92999 0.69176,-4.92022 1.36902,-8.86718 1.22553,-7.14226 1.24811,-7.18132 4.76009,-8.23353 6.19928,-1.85735 21.66241,-10.08264 28.43063,-15.12309 13.83504,-10.30328 24.9508,-23.10665 33.05011,-38.06784 4.29054,-7.92556 4.59436,-8.2487 8.35971,-8.8915 10.62959,-1.81461 23.81868,-12.18026 28.74334,-22.59016 8.47841,-17.92188 3.95669,-38.56701 -11.16001,-50.954 -3.76461,-3.08481 -4.23424,-3.24129 -5.60722,-1.86832 -1.86367,1.86367 -6.24861,1.92979 -9.69763,0.14622 -7.09891,-3.67098 -19.62986,-21.12438 -28.3087,-39.42899 -11.43324,-24.11393 -22.42072,-62.13007 -22.42072,-77.57457 l 0,-3.73523 -5.356,0.66919 c -14.79746,1.84883 -28.05221,12.21835 -34.17295,26.73436 -2.11441,5.01456 -2.18227,6.07228 -2.46954,38.49084 l -0.29539,33.3346 2.52478,2.52478 2.52478,2.52478 -67.15909,0 -67.15909,0 0,27.66242 c 0,19.6092 0.40305,30.34591 1.38446,36.88005 4.40779,29.34653 20.4972,55.85047 45.02179,74.16395 6.24467,4.66314 25.79631,15.04358 28.3347,15.04358 0.74807,0 1.21681,1.31768 1.2506,3.51562 0.0297,1.9336 0.77962,6.29531 1.66645,9.69269 l 1.61243,6.17705 -7.99459,2.68867 c -35.43784,11.91815 -65.01297,40.64171 -77.93663,75.69255 -1.55211,4.20955 -2.91677,7.74847 -3.03257,7.86427 -0.11579,0.1158 -5.04856,-2.2374 -10.96171,-5.22933 z M -354.2045,419.62478 c -5.31079,-3.15262 -9.61005,-7.63802 -9.70424,-10.12442 -0.0423,-1.11615 -0.30401,-0.96018 -0.90728,0.54068 -0.93174,2.31804 -2.78329,2.86375 -2.78329,0.82032 0,-0.70899 0.26125,-2.59534 0.58057,-4.19189 0.49044,-2.45224 0.84468,-2.76148 2.28211,-1.99219 0.93585,0.50085 4.90741,0.91064 8.82569,0.91064 6.8504,0 7.24647,0.12233 10.30811,3.18397 4.75669,4.7567 11.2617,6.63216 23.00352,6.63216 11.74182,0 18.24682,-1.87546 23.00352,-6.63216 3.06164,-3.06164 3.45771,-3.18397 10.30811,-3.18397 3.91828,0 7.88984,-0.40979 8.82569,-0.91064 1.43743,-0.76929 1.79167,-0.46005 2.28211,1.99219 0.31932,1.59655 0.58057,3.4829 0.58057,4.19189 0,2.04343 -1.85155,1.49772 -2.78329,-0.82032 -0.60327,-1.50086 -0.865,-1.65683 -0.90728,-0.54068 -0.0905,2.38711 -4.29128,6.89236 -8.99936,9.65149 -4.15239,2.43346 -4.35993,2.45705 -13.07152,1.48564 -14.18167,-1.58135 -23.98233,-1.26801 -42.2073,1.34942 -3.09184,0.44404 -4.60762,0.0294 -8.63644,-2.36213 z m 28.61096,-34.94156 c -4.43516,-3.74781 -5.47999,-6.29017 -4.37469,-10.64472 1.14118,-4.49591 6.23674,-10.04221 8.14345,-8.8638 0.9617,0.59436 0.70345,1.54001 -1.17758,4.31185 -3.06213,4.5123 -3.08882,8.07266 -0.0819,10.92484 2.62136,2.48646 2.91686,3.85976 1.14663,5.32891 -0.89778,0.74509 -1.84856,0.47018 -3.65591,-1.05708 z m -70.48043,-30.21677 c -1.24867,-3.25396 -0.43233,-5.11664 3.86528,-8.81964 4.39935,-3.79066 11.31304,-6.62139 16.17188,-6.62139 5.28992,0 12.02473,2.84848 16.72372,7.07328 4.46192,4.01164 4.66522,4.3948 3.74004,7.04877 l -0.97836,2.80653 -2.28271,-2.2827 c -4.32115,-4.32116 -8.59283,-5.74128 -17.20269,-5.71907 -8.43238,0.0217 -13.66344,1.83567 -17.65764,6.12294 -1.58824,1.70477 -1.85844,1.74921 -2.37952,0.39128 z m 106.875,0 c -1.24867,-3.25396 -0.43233,-5.11664 3.86528,-8.81964 4.39935,-3.79066 11.31304,-6.62139 16.17188,-6.62139 5.28992,0 12.02473,2.84848 16.72372,7.07328 4.46192,4.01164 4.66522,4.3948 3.74004,7.04877 l -0.97836,2.80653 -2.28271,-2.2827 c -4.32115,-4.32116 -8.59283,-5.74128 -17.20269,-5.71907 -8.43238,0.0217 -13.66344,1.83567 -17.65764,6.12294 -1.58824,1.70477 -1.85844,1.74921 -2.37952,0.39128 z m -118.08784,-39.50353 c -1.18548,-1.18547 -0.61378,-2.00892 2.78834,-4.01622 7.56528,-4.46362 24.47111,-6.29413 35.37693,-3.83049 5.28863,1.19471 12.37204,4.25324 13.28994,5.73843 1.44229,2.33367 -1.27694,2.61568 -6.17594,0.6405 -4.51365,-1.8198 -6.85148,-2.06549 -19.65427,-2.06549 -12.83047,0 -15.13475,0.24329 -19.6875,2.07866 -6.02907,2.43053 -5.17164,2.22047 -5.9375,1.45461 z m 118.125,-2.8125 c -1.18547,-1.18547 -0.61378,-2.00892 2.78834,-4.01622 7.56528,-4.46362 24.47111,-6.29413 35.37693,-3.83049 5.28863,1.19471 12.37204,4.25324 13.28994,5.73843 1.44229,2.33367 -1.27694,2.61568 -6.17594,0.6405 -4.51365,-1.8198 -6.85148,-2.06549 -19.65427,-2.06549 -12.83047,0 -15.13475,0.24329 -19.6875,2.07866 -6.02907,2.43053 -5.17164,2.22047 -5.9375,1.45461 z"
       id="path4780"
       inkscape:connector-curvature="0" />
    <path
       style="fill:#4e535b"
       d="m -221.75917,521.333 c -5.3192,-7.42445 -18.52584,-20.23364 -27.38783,-26.56361 -9.89968,-7.07117 -21.93688,-13.19997 -33.37419,-16.99264 -5.02734,-1.66709 -9.13561,-3.2986 -9.12949,-3.62557 0.007,-0.32698 0.63393,-2.91482 1.39512,-5.75076 0.76119,-2.83594 1.389,-6.46057 1.39512,-8.05473 0.01,-2.59661 0.42609,-3.02143 3.9955,-4.07898 6.5943,-1.95376 22.16891,-10.37971 29.71246,-16.07461 13.19585,-9.96203 24.45393,-23.15984 31.79881,-37.27761 3.16433,-6.08225 4.48001,-7.73744 6.50139,-8.17913 24.96863,-5.4558 39.65935,-28.51672 33.42297,-52.4661 -2.28121,-8.76045 -8.55281,-18.04147 -15.56597,-23.03528 -2.42603,-1.72748 -2.80472,-1.7668 -4.14157,-0.42995 -2.04359,2.04358 -6.61802,1.83718 -10.34595,-0.4668 -18.99695,-11.74076 -46.07703,-73.19532 -49.65565,-112.68674 -0.63922,-7.05404 -0.72421,-7.25007 -3.1432,-7.25007 -4.56249,0 -13.60529,2.85816 -18.66383,5.89907 -5.80632,3.49045 -11.8951,9.68679 -15.405,15.67715 -4.88232,8.33267 -5.37383,12.59785 -5.37383,46.63211 l 0,31.2519 2.30114,2.30113 2.30113,2.30114 -66.98863,0 -66.98864,0 0.004,28.35937 c 0.003,20.60829 0.38493,30.70947 1.39833,36.95777 4.689,28.91093 20.64193,55.30728 43.89754,72.63464 7.09017,5.28276 26.59793,15.79822 29.30807,15.79822 0.90967,0 1.33331,1.1107 1.34092,3.51563 0.007,1.93359 0.63393,5.83593 1.39512,8.67187 1.86295,6.94068 1.80168,7.36503 -1.1712,8.11118 -4.81117,1.20752 -19.4815,7.41829 -25.57467,10.82718 -9.78578,5.47476 -18.56884,12.29862 -28.32345,22.00544 l -9.13181,9.08709 -2.46299,-2.28107 c -3.49382,-3.23575 -12.56307,-15.26139 -17.10125,-22.67589 -8.86688,-14.48677 -14.91646,-29.76142 -19.02748,-48.04268 -2.08153,-9.25634 -2.1126,-10.40734 -2.45458,-90.9375 -0.24495,-57.6817 -0.031,-84.12303 0.73067,-90.30773 9.18407,-74.57205 72.03251,-130.46247 146.70426,-130.46247 67.83335,0 127.50085,46.85739 143.42815,112.63531 4.20922,17.38358 4.37336,21.81346 4.00679,108.13489 -0.34199,80.53016 -0.37305,81.68116 -2.45459,90.9375 -5.19714,23.11114 -13.95123,42.47547 -27.12436,60 -4.08266,5.43125 -18.8679,21.11478 -19.86654,21.07353 -0.2692,-0.0112 -2.15045,-2.33861 -4.18055,-5.1722 z M -354.2045,419.62033 c -5.3089,-3.14666 -9.60999,-7.632 -9.70424,-10.11997 -0.0423,-1.11615 -0.30401,-0.96018 -0.90728,0.54068 -0.93174,2.31804 -2.78329,2.86375 -2.78329,0.82032 0,-0.70899 0.26125,-2.59534 0.58057,-4.19189 0.49044,-2.45224 0.84468,-2.76148 2.28211,-1.99219 0.93585,0.50085 4.90741,0.91064 8.82569,0.91064 6.8504,0 7.24647,0.12233 10.30811,3.18397 4.75669,4.7567 11.2617,6.63216 23.00352,6.63216 11.74182,0 18.24682,-1.87546 23.00352,-6.63216 3.06164,-3.06164 3.45771,-3.18397 10.30811,-3.18397 3.91828,0 7.88984,-0.40979 8.82569,-0.91064 1.43743,-0.76929 1.79167,-0.46005 2.28211,1.99219 0.31932,1.59655 0.58057,3.4829 0.58057,4.19189 0,2.04343 -1.85155,1.49772 -2.78329,-0.82032 -0.60327,-1.50086 -0.865,-1.65683 -0.90728,-0.54068 -0.0907,2.39184 -4.2945,6.89425 -9.02631,9.66728 -4.07074,2.38561 -4.51358,2.44704 -10.70992,1.48564 -8.23465,-1.27765 -29.71242,-1.28747 -37.04195,-0.017 -3.09375,0.53628 -6.89063,1.17872 -8.4375,1.42766 -2.02862,0.32644 -4.17441,-0.35464 -7.69894,-2.44367 z m 28.61096,-34.93711 c -4.43516,-3.74781 -5.47999,-6.29017 -4.37469,-10.64472 1.14118,-4.49591 6.23674,-10.04221 8.14345,-8.8638 0.9617,0.59436 0.70345,1.54001 -1.17758,4.31185 -3.06213,4.5123 -3.08882,8.07266 -0.0819,10.92484 2.62136,2.48646 2.91686,3.85976 1.14663,5.32891 -0.89778,0.74509 -1.84856,0.47018 -3.65591,-1.05708 z m -70.48043,-30.21677 c -1.24867,-3.25396 -0.43233,-5.11664 3.86528,-8.81964 4.39935,-3.79066 11.31304,-6.62139 16.17188,-6.62139 5.28992,0 12.02473,2.84848 16.72372,7.07328 4.46192,4.01164 4.66522,4.3948 3.74004,7.04877 l -0.97836,2.80653 -2.28271,-2.2827 c -4.32115,-4.32116 -8.59283,-5.74128 -17.20269,-5.71907 -8.43238,0.0217 -13.66344,1.83567 -17.65764,6.12294 -1.58824,1.70477 -1.85844,1.74921 -2.37952,0.39128 z m 106.875,0 c -1.24867,-3.25396 -0.43233,-5.11664 3.86528,-8.81964 4.39935,-3.79066 11.31304,-6.62139 16.17188,-6.62139 5.28992,0 12.02473,2.84848 16.72372,7.07328 4.46192,4.01164 4.66522,4.3948 3.74004,7.04877 l -0.97836,2.80653 -2.28271,-2.2827 c -4.32115,-4.32116 -8.59283,-5.74128 -17.20269,-5.71907 -8.43238,0.0217 -13.66344,1.83567 -17.65764,6.12294 -1.58824,1.70477 -1.85844,1.74921 -2.37952,0.39128 z m -118.08784,-39.50353 c -1.18548,-1.18547 -0.61378,-2.00892 2.78834,-4.01622 7.56528,-4.46362 24.47111,-6.29413 35.37693,-3.83049 5.28863,1.19471 12.37204,4.25324 13.28994,5.73843 1.44229,2.33367 -1.27694,2.61568 -6.17594,0.6405 -4.51365,-1.8198 -6.85148,-2.06549 -19.65427,-2.06549 -12.83047,0 -15.13475,0.24329 -19.6875,2.07866 -6.02907,2.43053 -5.17164,2.22047 -5.9375,1.45461 z m 118.125,-2.8125 c -1.18547,-1.18547 -0.61378,-2.00892 2.78834,-4.01622 7.56528,-4.46362 24.47111,-6.29413 35.37693,-3.83049 5.28863,1.19471 12.37204,4.25324 13.28994,5.73843 1.44229,2.33367 -1.27694,2.61568 -6.17594,0.6405 -4.51365,-1.8198 -6.85148,-2.06549 -19.65427,-2.06549 -12.83047,0 -15.13475,0.24329 -19.6875,2.07866 -6.02907,2.43053 -5.17164,2.22047 -5.9375,1.45461 z"
       id="path4778"
       inkscape:connector-curvature="0" />
    <path
       style="fill:#2e2626"
       d="m -223.02072,519.11903 c -9.09731,-11.92884 -22.77973,-23.61131 -37.23484,-31.79224 -8.22468,-4.65479 -22.23321,-10.5065 -28.35938,-11.84644 -3.48655,-0.76258 -3.3602,-0.51591 -2.03467,-3.97202 0.55671,-1.45154 1.29499,-5.13093 1.64062,-8.17644 l 0.62843,-5.53728 4.6875,-1.59392 c 24.84437,-8.44798 50.02978,-31.01368 61.98184,-55.53465 1.44513,-2.96484 3.18574,-5.39062 3.86803,-5.39062 3.22805,0 13.36829,-4.28745 18.26652,-7.72336 19.03453,-13.35197 23.5019,-40.81431 9.66774,-59.43083 -2.33296,-3.13945 -5.90775,-6.86263 -7.94397,-8.27373 -3.48633,-2.41603 -3.82682,-2.47836 -5.83916,-1.06886 -3.08543,2.16112 -5.54019,1.85934 -10.2309,-1.25775 -19.14941,-12.72528 -44.94776,-71.89546 -49.17776,-112.79235 l -0.65452,-6.32812 -3.67036,0 c -9.76504,0 -23.25639,7.65604 -30.37711,17.23832 -7.52618,10.12793 -7.9216,12.63833 -7.9216,50.29238 l 0,32.64571 2.47018,1.94305 2.47018,1.94304 -67.15768,0 -67.15768,0 0,29.40845 c 0,31.85191 0.67939,38.73135 5.25893,53.25181 9.04357,28.67455 30.91575,53.51748 59.10421,67.13192 4.20443,2.03064 8.52865,3.92331 9.60938,4.20593 1.62233,0.42425 1.96498,1.23884 1.96498,4.67137 0,2.28664 0.62825,6.22848 1.39611,8.75965 1.72742,5.69433 1.73216,6.00837 0.0906,6.00837 -0.72921,0 -5.26436,1.49779 -10.07813,3.32842 -17.684,6.72505 -35.52805,18.7726 -47.9282,32.35911 l -6.01107,6.58617 -5.06276,-5.47669 c -16.9973,-18.38695 -30.38691,-47.37427 -34.75182,-75.23451 -1.80967,-11.55066 -1.80967,-165.63684 0,-177.1875 1.43348,-9.14961 3.99709,-19.15984 7.32282,-28.59375 14.23541,-40.38083 48.54787,-74.69329 88.9287,-88.9287 17.71871,-6.24637 30.80632,-8.47997 49.6875,-8.47997 27.43013,0 50.49268,6.19167 74.0625,19.8838 38.32415,22.26316 64.88181,61.47294 71.87652,106.11862 1.80967,11.55066 1.80967,165.63684 0,177.1875 -4.85212,30.97001 -18.77106,59.12677 -40.20354,81.32812 -3.60881,3.73829 -6.94247,6.79688 -7.40813,6.79688 -0.46565,0 -3.06665,-2.911 -5.78001,-6.46889 z"
       id="path4776"
       inkscape:connector-curvature="0" />
  </g>
</svg>
