<?xml version="1.0" encoding="UTF-8" standalone="no"?>
<!-- Created with Inkscape (http://www.inkscape.org/) -->

<svg
   xmlns:dc="http://purl.org/dc/elements/1.1/"
   xmlns:cc="http://creativecommons.org/ns#"
   xmlns:rdf="http://www.w3.org/1999/02/22-rdf-syntax-ns#"
   xmlns:svg="http://www.w3.org/2000/svg"
   xmlns="http://www.w3.org/2000/svg"
   xmlns:sodipodi="http://sodipodi.sourceforge.net/DTD/sodipodi-0.dtd"
   xmlns:inkscape="http://www.inkscape.org/namespaces/inkscape"
   id="svg2"
   version="1.1"
   inkscape:version="0.91 r13725"
   width="403.125"
   height="395.625"
   viewBox="0 0 403.125 395.625"
   sodipodi:docname="Christina.svg">
  <metadata
     id="metadata8">
    <rdf:RDF>
      <cc:Work
         rdf:about="">
        <dc:format>image/svg+xml</dc:format>
        <dc:type
           rdf:resource="http://purl.org/dc/dcmitype/StillImage" />
        <dc:title></dc:title>
      </cc:Work>
    </rdf:RDF>
  </metadata>
  <defs
     id="defs6" />
  <sodipodi:namedview
     pagecolor="#ffffff"
     bordercolor="#666666"
     borderopacity="1"
     objecttolerance="10"
     gridtolerance="10"
     guidetolerance="10"
     inkscape:pageopacity="0"
     inkscape:pageshadow="2"
     inkscape:window-width="1083"
     inkscape:window-height="741"
     id="namedview4"
     showgrid="false"
     inkscape:zoom="0.84361302"
     inkscape:cx="241.49445"
     inkscape:cy="259.29507"
     inkscape:window-x="0"
     inkscape:window-y="0"
     inkscape:window-maximized="0"
     inkscape:current-layer="svg2" />
  <g
     id="g4201">
    <path
       inkscape:connector-curvature="0"
       id="path4199"
       d="m 197.74529,391.2858 c -36.28993,-2.46505 -74.06959,-17.45822 -103.113406,-40.92138 -3.86719,-3.12412 -11.28023,-10.05263 -16.47342,-15.39668 -28.86357,-29.702 -45.98905,-64.86117 -52.44803,-107.67749 -1.7542,-11.62854 -2.01268,-37.0578 -0.49824,-49.0165 7.27429,-57.441 37.88533,-106.911963 85.507656,-138.190233 42.03118,-27.606 97.11575,-36.7344102 145.16203,-24.0557 20.12254,5.31004 39.90729,13.9805 55.78125,24.44554 32.04154,21.12366 57.42053,52.0381 71.80313,87.464203 9.95297,24.5154 14.15004,46.55433 14.10013,74.04019 -0.0754,41.5266 -13.08012,81.02987 -37.45971,113.78823 -8.2233,11.04949 -22.94401,26.49503 -32.9748,34.59844 -22.91123,18.50894 -51.35377,31.89342 -80.17617,37.7293 -10.21211,2.06771 -31.0701,4.37346 -36.54258,4.03959 -1.03125,-0.0629 -6.73177,-0.44429 -12.66784,-0.84751 z m 43.60534,-4.92002 c 52.40169,-9.85584 95.21916,-38.45029 123.78932,-82.66928 13.92764,-21.55628 24.3128,-50.27706 28.13624,-77.8125 2.11065,-15.20029 1.44609,-44.25949 -1.34627,-58.86887 -8.6509,-45.26081 -30.68496,-83.219943 -64.86219,-111.741243 -22.35499,-18.6555 -50.90943,-32.28962 -80.56085,-38.46606 -16.09928,-3.35351 -44.07898,-4.24126 -60,-1.90371 -54.14685,7.94994 -100.218426,37.49349 -129.653866,83.140983 -13.15719,20.40373 -22.8082,45.28211 -27.40761,70.6514 -2.37885,13.12114 -2.88451,43.31206 -0.95783,57.1875 8.73743,62.9247 45.8889,115.93129 100.363056,143.19497 18.14248,9.0801 35.84665,14.7841 55.78125,17.97182 11.39962,1.8229 45.57938,1.4101 56.71875,-0.68501 z"
       style="fill:#ffffff" />
    <path
       style="fill:#f9e3e3"
       d="m 189.78814,387.77127 c -30.97458,-3.49956 -63.45038,-16.92854 -90,-37.21567 C 91.194447,343.98898 76.471148,329.385 68.649371,319.66918 35.082353,277.97393 20.436897,219.43986 30.461908,167.04386 40.425786,114.96737 69.320421,71.485425 112.91314,42.967557 c 20.292,-13.274799 48.50404,-23.679249 74.0625,-27.313855 12.4966,-1.777111 38.1988,-1.560387 50.625,0.426877 40.45762,6.470198 75.45045,24.603617 103.68476,53.729837 58.43317,60.279034 69.79286,152.073944 27.99497,226.220504 -21.42236,38.00178 -59.78283,69.72504 -100.84288,83.39482 -24.81663,8.262 -52.95842,11.24814 -78.64935,8.34553 z"
       id="path4174"
       inkscape:connector-curvature="0" />
    <path
       style="fill:#e9d7d4"
       d="m 190.5618,387.83688 c -20.67973,-2.40958 -54.67991,-12.65176 -54.67991,-16.47172 0,-3.59594 3.2726,-16.56214 5.75808,-22.81378 7.81942,-19.66798 22.51423,-35.52833 41.68394,-44.99016 l 6.87238,-3.39209 -7.23532,-3.1073 c -12.5504,-5.38993 -25.09093,-14.51187 -33.51001,-24.37509 l -4.07919,-4.77889 0.49601,3.52489 c 1.57637,11.20213 7.47329,19.8352 15.16583,22.20268 3.94821,1.21512 4.0942,1.3543 1.48239,1.41316 -4.0169,0.0906 -14.00153,-5.10127 -16.75629,-8.71295 -4.46925,-5.8595 -6.08525,-10.86659 -6.10723,-18.92307 -0.0188,-6.87542 -0.35186,-8.22091 -3.7532,-15.16019 -2.05294,-4.18831 -4.89411,-11.33991 -6.31374,-15.89243 l -2.58114,-8.27731 -0.0143,-40.3125 c -0.0141,-39.31429 0.0391,-40.49707 2.14386,-47.76669 8.15853,-28.17837 27.70248,-51.169466 52.68547,-61.978169 3.35156,-1.450029 6.23652,-2.73559 6.41102,-2.856802 0.17451,-0.121213 -0.98565,-2.950429 -2.57813,-6.287147 -5.96791,-12.504648 -2.94422,-26.381247 7.83933,-35.976853 7.66915,-6.824299 14.57388,-9.196842 26.76528,-9.196842 8.29447,0 10.77657,0.368875 15.77072,2.34375 18.26532,7.222808 26.68717,26.37486 18.83389,42.829945 -1.59248,3.336718 -2.75264,6.165934 -2.57813,6.287147 0.1745,0.121212 3.05946,1.406773 6.41102,2.856802 24.98299,10.808703 44.52694,33.799799 52.68551,61.978169 2.1048,7.26961 2.15788,8.4524 2.14386,47.76669 l -0.0143,40.3125 -2.58113,8.27731 c -1.41963,4.55252 -4.26081,11.70411 -6.31374,15.89243 -3.42224,6.98193 -3.73261,8.24954 -3.73261,15.24483 0,6.64844 -0.37197,8.37408 -2.89222,13.41753 -1.59071,3.1833 -4.23943,6.8154 -5.88604,8.07133 -4.28876,3.2712 -10.91845,6.09395 -14.19049,6.04194 -2.44505,-0.0389 -2.24031,-0.22081 1.56703,-1.39258 7.69253,-2.36748 13.58945,-11.00055 15.16582,-22.20268 l 0.49602,-3.52489 -4.07919,4.77889 c -8.41909,9.86322 -20.95961,18.98516 -33.51001,24.37509 l -7.23532,3.1073 6.87238,3.39209 c 14.44242,7.12853 26.37469,17.83944 34.59226,31.05148 4.99219,8.02633 9.81762,19.57456 10.61739,25.40955 l 0.5582,4.07248 -11.58479,5.73171 c -19.652,9.72306 -40.57646,15.83757 -61.87476,18.08093 -10.26438,1.08115 -29.34916,1.0466 -38.93637,-0.0705 z"
       id="path4172"
       inkscape:connector-curvature="0" />
    <path
       style="fill:#eebcad"
       d="m 193.06939,387.80024 c -16.07264,-1.6428 -35.43721,-6.43389 -49.45313,-12.23543 -6.46416,-2.67569 -6.79687,-2.96239 -6.79687,-5.85721 0,-1.67408 0.82469,-6.2683 1.83264,-10.20937 4.03343,-15.77053 11.17494,-28.39051 22.23299,-39.28857 8.26662,-8.14701 12.98115,-11.54358 22.64198,-16.31235 l 7.86862,-3.88411 -3.61624,-1.14615 c -5.67937,-1.80005 -18.54358,-8.85198 -24.47795,-13.41837 -2.9731,-2.28775 -8.24121,-7.1654 -11.70692,-10.83924 l -6.30129,-6.67969 0.57095,4.45144 c 0.31401,2.44829 1.40831,6.44566 2.43177,8.88305 2.13765,5.09085 8.74641,11.63932 12.60866,12.49362 4.49726,0.99477 4.69238,1.39225 0.42576,0.86725 -5.20739,-0.64074 -9.05664,-2.59166 -13.57478,-6.88015 -5.77925,-5.48549 -7.41941,-9.60378 -8.07969,-20.28733 -0.47338,-7.65948 -1.04613,-10.27201 -3.12993,-14.277 -3.01656,-5.79773 -5.54408,-12.49881 -7.87524,-20.87925 -1.50999,-5.42834 -1.69508,-10.34213 -1.69508,-45 0,-41.76834 0.004,-41.81313 5.27138,-56.25 8.11489,-22.24217 25.78978,-41.469283 47.83212,-52.032794 3.76398,-1.80384 7.37961,-3.279709 8.03475,-3.279709 0.76395,0 0.10098,-2.079702 -1.84856,-5.798879 -2.73992,-5.227007 -3.03969,-6.590706 -3.03969,-13.828125 0,-7.043211 0.34162,-8.70348 2.78183,-13.519511 13.0423,-25.740405 55.45654,-25.740405 68.49884,0 2.4402,4.816031 2.78183,6.4763 2.78183,13.519511 0,7.237419 -0.29977,8.601118 -3.03969,13.828125 -2.26597,4.322829 -2.69113,5.798879 -1.67031,5.798879 0.75316,0 5.29445,2.010764 10.09174,4.468364 23.9128,12.250252 39.87651,31.711979 48.24199,58.812889 l 2.60446,8.4375 0,39.84375 0,39.84375 -2.60444,8.4375 c -1.43243,4.64062 -4.25295,12.02344 -6.26779,16.40625 -3.22176,7.00815 -3.70559,8.98585 -4.01361,16.40625 -0.40199,9.68384 -2.10891,13.87941 -7.87229,19.34983 -4.51814,4.28849 -8.36739,6.23941 -13.57478,6.88015 -4.26662,0.52499 -4.0715,0.12752 0.42576,-0.86725 3.86225,-0.85431 10.47101,-7.40277 12.60866,-12.49362 1.02346,-2.43739 2.11776,-6.43476 2.43177,-8.88305 l 0.57095,-4.45144 -6.30129,6.67969 c -3.46571,3.67384 -8.73382,8.55149 -11.70692,10.83924 -5.93437,4.56639 -18.79858,11.61832 -24.47795,13.41837 l -3.61624,1.14615 7.86226,3.88097 c 9.65376,4.76528 15.42798,8.94948 23.02017,16.68122 6.90467,7.03157 9.60333,10.56261 13.85786,18.13224 3.60374,6.41172 9.26252,22.54274 8.5549,24.38676 -0.76159,1.98467 -22.6143,12.18209 -34.81271,16.24511 -23.84192,7.94122 -50.26627,10.9409 -74.53125,8.46074 z"
       id="path4170"
       inkscape:connector-curvature="0" />
    <path
       style="fill:#cdc6b4"
       d="m 193.06939,387.80024 c -16.07264,-1.6428 -35.43721,-6.43389 -49.45313,-12.23543 -6.46416,-2.67569 -6.79687,-2.96239 -6.79687,-5.85721 0,-1.67408 0.82469,-6.2683 1.83264,-10.20937 4.03343,-15.77053 11.17494,-28.39051 22.23299,-39.28857 8.26662,-8.14701 12.98115,-11.54358 22.64198,-16.31235 l 7.86862,-3.88411 -3.61624,-1.14615 c -5.67937,-1.80005 -18.54358,-8.85198 -24.47795,-13.41837 -2.9731,-2.28775 -8.24121,-7.1654 -11.70692,-10.83924 l -6.30129,-6.67969 0.57095,4.45144 c 0.31401,2.44829 1.40831,6.44566 2.43177,8.88305 2.13765,5.09085 8.74641,11.63932 12.60866,12.49362 4.49726,0.99477 4.69238,1.39225 0.42576,0.86725 -5.20739,-0.64074 -9.05664,-2.59166 -13.57478,-6.88015 -5.77925,-5.48549 -7.41941,-9.60378 -8.07969,-20.28733 -0.47338,-7.65948 -1.04613,-10.27201 -3.12993,-14.277 -3.01656,-5.79773 -5.54408,-12.49881 -7.87524,-20.87925 -1.50999,-5.42834 -1.69508,-10.34213 -1.69508,-45 0,-41.76834 0.004,-41.81313 5.27138,-56.25 8.11489,-22.24217 25.78978,-41.469283 47.83212,-52.032794 3.76398,-1.80384 7.37961,-3.279709 8.03475,-3.279709 0.76395,0 0.10098,-2.079702 -1.84856,-5.798879 -2.73992,-5.227007 -3.03969,-6.590706 -3.03969,-13.828125 0,-7.043211 0.34162,-8.70348 2.78183,-13.519511 13.0423,-25.740405 55.45654,-25.740405 68.49884,0 2.4402,4.816031 2.78183,6.4763 2.78183,13.519511 0,7.237419 -0.29977,8.601118 -3.03969,13.828125 -2.26597,4.322829 -2.69113,5.798879 -1.67031,5.798879 0.75316,0 5.29445,2.010764 10.09174,4.468364 23.93558,12.261924 40.02592,31.895269 48.1996,58.812889 l 2.56209,8.4375 0.2465,34.21875 c 0.20995,29.14626 0.0724,33.45441 -0.92811,29.0625 -0.64605,-2.83594 -1.71704,-6.14279 -2.37997,-7.34857 -1.64685,-2.99534 -7.62641,-9.52643 -8.72196,-9.52643 -0.53917,0 -0.68106,3.79224 -0.35956,9.60937 0.67169,12.15252 0.67197,15.99103 0.002,26.71875 -0.29788,4.76954 -0.17255,8.67188 0.27852,8.67188 0.79463,0 5.16634,-4.40197 7.67239,-7.72549 0.67671,-0.89746 1.79635,-3.21777 2.48808,-5.15625 1.10948,-3.10922 1.26253,-3.23309 1.29883,-1.05126 0.066,3.96663 -4.41122,18.41585 -8.38415,27.058 -3.22175,7.00815 -3.70558,8.98585 -4.0136,16.40625 -0.402,9.68384 -2.10891,13.87941 -7.8723,19.34983 -4.51814,4.28849 -8.36738,6.23941 -13.57477,6.88015 -4.26663,0.52499 -4.07151,0.12752 0.42576,-0.86725 3.86224,-0.85431 10.47101,-7.40277 12.60866,-12.49362 1.02346,-2.43739 2.11775,-6.43476 2.43177,-8.88305 l 0.57095,-4.45144 -6.3013,6.67969 c -3.4657,3.67384 -8.73381,8.55149 -11.70692,10.83924 -5.93436,4.56639 -18.79858,11.61832 -24.47794,13.41837 l -3.61624,1.14615 7.86226,3.88097 c 9.65376,4.76528 15.42798,8.94948 23.02016,16.68122 6.90467,7.03157 9.60333,10.56261 13.85786,18.13224 3.60375,6.41172 9.26252,22.54274 8.55491,24.38676 -0.76159,1.98467 -22.6143,12.18209 -34.81271,16.24511 -23.84192,7.94122 -50.26627,10.9409 -74.53125,8.46074 z m 38.13528,-93.64049 c 15.15407,-2.4595 29.79934,-9.97712 41.06093,-21.07712 6.81349,-6.71572 13.86056,-17.12063 17.00651,-25.10988 1.1959,-3.03702 2.44329,-4.65783 3.8639,-5.02062 l 2.09787,-0.53574 -0.33125,-34.82313 c -0.26091,-27.42726 -0.64351,-36.15385 -1.80147,-41.08877 -5.6449,-24.05724 -22.8524,-44.0326 -45.82194,-53.1925 -16.84218,-6.7164 -37.20248,-6.7164 -54.04466,0 -18.61647,7.42396 -34.06152,22.43539 -41.63876,40.46977 -5.24268,12.47794 -5.63179,15.96466 -5.96786,53.4765 l -0.30897,34.48813 2.07834,0.81022 c 1.28029,0.49911 2.75645,2.55557 3.84436,5.35562 12.03439,30.97415 47.54073,51.50965 79.963,46.24752 z m -20.79153,-20.09396 c -11.72322,-4.88622 -20.15625,-17.27539 -20.15625,-29.61208 l 0,-5.58983 32.91497,0 32.91497,0 -0.36678,6.79687 c -0.65987,12.22831 -7.63178,22.65063 -18.58816,27.78751 -7.63688,3.58054 -18.9807,3.84271 -26.71875,0.61753 z m -46.87537,-36.4493 c -6.07759,-2.76088 -6.61845,-6.28265 -1.49512,-9.73526 9.02477,-6.0818 24.37367,2.07953 15.8622,8.43425 -3.14255,2.34626 -10.58298,3.02002 -14.36708,1.30101 z m 103.125,0 c -6.07759,-2.76088 -6.61846,-6.28265 -1.49512,-9.73526 9.02477,-6.0818 24.37367,2.07953 15.8622,8.43425 -3.14255,2.34626 -10.58298,3.02002 -14.36708,1.30101 z m -51.75964,-12.52301 c -0.8735,-2.27629 3.05083,-4.9796 7.22876,-4.9796 4.17793,0 8.10226,2.70331 7.22876,4.9796 -0.52722,1.37391 -0.90645,1.38687 -3.90634,0.13344 -2.93406,-1.22594 -3.71078,-1.22594 -6.64485,0 -2.99988,1.25343 -3.37911,1.24047 -3.90633,-0.13344 z m -47.70874,-11.9171 c -2.61309,-2.61309 -3.1875,-3.89706 -3.1875,-7.125 0,-3.22794 0.57441,-4.51191 3.1875,-7.125 2.61309,-2.61309 3.89706,-3.1875 7.125,-3.1875 3.22794,0 4.51191,0.57441 7.125,3.1875 2.61309,2.61309 3.1875,3.89706 3.1875,7.125 0,3.22794 -0.57441,4.51191 -3.1875,7.125 -2.61309,2.61309 -3.89706,3.1875 -7.125,3.1875 -3.22794,0 -4.51191,-0.57441 -7.125,-3.1875 z m 93.75,0 c -2.61309,-2.61309 -3.1875,-3.89706 -3.1875,-7.125 0,-3.22794 0.57441,-4.51191 3.1875,-7.125 2.61309,-2.61309 3.89706,-3.1875 7.125,-3.1875 3.22794,0 4.51191,0.57441 7.125,3.1875 2.61309,2.61309 3.1875,3.89706 3.1875,7.125 0,3.22794 -0.57441,4.51191 -3.1875,7.125 -2.61309,2.61309 -3.89706,3.1875 -7.125,3.1875 -3.22794,0 -4.51191,-0.57441 -7.125,-3.1875 z m -97.875,-39.98333 c 0,-5.05663 17.5494,-7.57238 26.01562,-3.72942 2.8026,1.27214 3.98438,2.3783 3.98438,3.72942 0,2.3023 0.16383,2.28532 -4.25129,0.44056 -2.18515,-0.91301 -6.30413,-1.48025 -10.74871,-1.48025 -4.44458,0 -8.56356,0.56724 -10.74871,1.48025 -4.41512,1.84476 -4.25129,1.86174 -4.25129,-0.44056 z m 88.125,-1.875 c 0,-5.05663 17.5494,-7.57238 26.01562,-3.72942 2.8026,1.27214 3.98438,2.3783 3.98438,3.72942 0,2.3023 0.16383,2.28532 -4.25129,0.44056 -2.18515,-0.91301 -6.30413,-1.48025 -10.74871,-1.48025 -4.44458,0 -8.56356,0.56724 -10.74871,1.48025 -4.41512,1.84476 -4.25129,1.86174 -4.25129,-0.44056 z m -113.39166,52.40373 c -2.42529,-3.97807 -2.4414,-8.83636 -0.0424,-12.77118 1.40967,-2.31202 1.87153,-4.72381 1.87153,-9.7728 l 0,-6.70326 -2.43296,2.2728 c -6.1654,5.7595 -9.27491,15.68915 -7.67304,24.50244 1.06339,5.8506 2.5681,8.93537 6.60791,13.5467 l 3.02934,3.45791 0.27671,-5.69673 c 0.21508,-4.42785 -0.14956,-6.39592 -1.63712,-8.83588 z m 175.44943,-4.07665 c 0.0191,-1.54688 0.22921,-2.06619 0.46691,-1.15403 0.23769,0.91215 0.22206,2.17778 -0.0348,2.8125 -0.25681,0.63471 -0.45129,-0.1116 -0.43218,-1.65847 z"
       id="path4168"
       inkscape:connector-curvature="0" />
    <path
       style="fill:#eaa7a7"
       d="m 184.2763,297.54171 c -10.83066,-4.55295 -20.51053,-11.1311 -29.82188,-20.26603 l -9.10446,-8.93195 0.50388,4.24445 c 1.12905,9.5106 8.10635,19.50521 14.78733,21.18202 1.38354,0.34725 2.31229,0.83462 2.06386,1.08304 -1.18261,1.18262 -10.6704,-3.179 -14.40644,-6.62276 -6.33261,-5.83719 -8.00785,-9.85275 -8.47067,-20.3041 -0.35458,-8.00697 -0.76132,-9.66353 -4.02837,-16.40625 -1.99869,-4.125 -4.7968,-11.29688 -6.21804,-15.9375 l -2.58406,-8.4375 0,-39.84375 0,-39.84375 2.61103,-8.4375 c 5.46866,-17.67187 13.93538,-31.61919 26.24636,-43.2359 7.89945,-7.45397 20.65312,-15.8081 28.65754,-18.771769 2.38605,-0.883442 4.47533,-1.703634 4.64286,-1.822649 0.16753,-0.119015 -0.73758,-1.837132 -2.01137,-3.818038 -3.45768,-5.377177 -4.62953,-10.102711 -4.22725,-17.046625 0.60728,-10.482267 6.27995,-19.418096 16.05404,-25.288957 24.24115,-14.560583 57.14003,-0.369418 58.6265,25.288957 0.40228,6.943914 -0.76957,11.669448 -4.22725,17.046625 -1.2738,1.980906 -2.1789,3.699023 -2.01137,3.818038 0.16753,0.119015 2.25681,0.939208 4.64286,1.822649 8.00442,2.963669 20.75809,11.317799 28.65754,18.771769 12.34892,11.65251 20.86831,25.70928 26.20398,43.2359 l 2.56865,8.4375 0.2465,34.21875 c 0.20995,29.14626 0.0724,33.45441 -0.92811,29.0625 -0.64605,-2.83594 -1.71704,-6.14279 -2.37997,-7.34857 -1.64685,-2.99534 -7.62641,-9.52643 -8.72196,-9.52643 -0.53917,0 -0.68106,3.79224 -0.35956,9.60937 0.67169,12.15252 0.67197,15.99103 0.002,26.71875 -0.29788,4.76954 -0.17255,8.67188 0.27852,8.67188 0.79463,0 5.16634,-4.40197 7.67239,-7.72549 0.67671,-0.89746 1.79635,-3.21777 2.48808,-5.15625 1.10948,-3.10922 1.26253,-3.23309 1.29883,-1.05126 0.07,4.20716 -4.49367,18.70769 -8.4132,26.73198 -3.34941,6.8571 -3.73315,8.37132 -3.73315,14.73046 0,9.65951 -2.44471,15.99303 -8.28011,21.45136 -4.05338,3.79147 -13.52345,8.27814 -14.79304,7.00856 -0.24842,-0.24842 0.68032,-0.73579 2.06386,-1.08304 6.74619,-1.69318 13.6535,-11.67234 14.81836,-21.40842 l 0.53491,-4.47085 -5.84387,6.27151 c -9.99791,10.72953 -28.71973,23.00147 -38.57613,25.28623 -2.42839,0.56291 -2.64753,0.43527 -1.97031,-1.14759 0.41909,-0.97953 1.18361,-3.6825 1.69895,-6.00662 0.87732,-3.95669 1.38604,-4.49377 7.99201,-8.4375 12.83527,-7.66261 25.41341,-22.34297 30.74559,-35.88421 1.19589,-3.03702 2.44328,-4.65783 3.8639,-5.02062 l 2.09787,-0.53574 -0.33126,-34.82313 c -0.2609,-27.42726 -0.64351,-36.15386 -1.80146,-41.08877 -5.6449,-24.05724 -22.85241,-44.0326 -45.82194,-53.1925 -16.84218,-6.7164 -37.20249,-6.7164 -54.04467,0 -18.61647,7.42396 -34.06152,22.43539 -41.63876,40.46977 -5.24268,12.47794 -5.63179,15.96466 -5.96785,53.4765 l -0.30897,34.48813 2.07833,0.81022 c 1.2803,0.49911 2.75646,2.55557 3.84436,5.35562 2.98628,7.68611 10.06891,18.30744 16.48917,24.7277 6.36585,6.36585 16.95877,13.45035 24.65501,16.48917 3.86409,1.52572 4.60601,2.2573 5.45225,5.37629 0.53875,1.98564 0.7617,3.82808 0.49547,4.09431 -0.26623,0.26623 -2.29786,0.65844 -4.51474,0.87157 -2.85574,0.27454 -5.63738,-0.28792 -9.54253,-1.92956 z m -46.47357,-73.81993 c -2.42529,-3.97807 -2.4414,-8.83636 -0.0424,-12.77118 1.40967,-2.31202 1.87153,-4.72381 1.87153,-9.7728 l 0,-6.70326 -2.43296,2.2728 c -6.1654,5.7595 -9.27491,15.68915 -7.67304,24.50244 1.06339,5.8506 2.5681,8.93537 6.60791,13.5467 l 3.02934,3.45791 0.27671,-5.69673 c 0.21508,-4.42785 -0.14956,-6.39592 -1.63712,-8.83588 z m 68.86041,73.39509 c -2.0625,-0.93822 -4.38281,-2.47868 -5.15625,-3.42325 -1.30795,-1.59735 -1.24241,-1.6737 0.9375,-1.09226 7.23415,1.92953 15.48687,2.69284 25.32274,2.34215 10.2648,-0.36597 11.49714,-0.61558 16.82345,-3.40756 4.3919,-2.30217 5.53697,-2.62243 4.8554,-1.35799 -1.45845,2.70568 -5.07742,5.68741 -8.78115,7.23492 -5.32492,2.2249 -28.91129,2.01956 -34.00169,-0.29601 z m 3.75,-23.05108 c -11.72322,-4.88622 -20.15625,-17.27539 -20.15625,-29.61208 l 0,-5.58983 32.91497,0 32.91497,0 -0.36678,6.79687 c -0.65987,12.22831 -7.63178,22.65063 -18.58816,27.78751 -7.63688,3.58054 -18.9807,3.84271 -26.71875,0.61753 z m -46.87537,-36.4493 c -6.07759,-2.76088 -6.61845,-6.28265 -1.49512,-9.73526 9.02477,-6.0818 24.37367,2.07953 15.8622,8.43425 -3.14255,2.34626 -10.58298,3.02002 -14.36708,1.30101 z m 103.125,0 c -6.07759,-2.76088 -6.61846,-6.28265 -1.49512,-9.73526 9.02477,-6.0818 24.37367,2.07953 15.8622,8.43425 -3.14255,2.34626 -10.58298,3.02002 -14.36708,1.30101 z m -51.75964,-12.52301 c -0.8735,-2.27629 3.05083,-4.9796 7.22876,-4.9796 4.17793,0 8.10226,2.70331 7.22876,4.9796 -0.52722,1.37391 -0.90645,1.38687 -3.90634,0.13344 -2.93406,-1.22594 -3.71078,-1.22594 -6.64485,0 -2.99988,1.25343 -3.37911,1.24047 -3.90633,-0.13344 z m 98.34903,-5.44835 c 0.0191,-1.54688 0.22921,-2.06619 0.46691,-1.15403 0.23769,0.91215 0.22206,2.17778 -0.0348,2.8125 -0.25681,0.63471 -0.45129,-0.1116 -0.43218,-1.65847 z m -146.05777,-6.46875 c -2.61309,-2.61309 -3.1875,-3.89706 -3.1875,-7.125 0,-3.22794 0.57441,-4.51191 3.1875,-7.125 2.61309,-2.61309 3.89706,-3.1875 7.125,-3.1875 3.22794,0 4.51191,0.57441 7.125,3.1875 2.61309,2.61309 3.1875,3.89706 3.1875,7.125 0,3.22794 -0.57441,4.51191 -3.1875,7.125 -2.61309,2.61309 -3.89706,3.1875 -7.125,3.1875 -3.22794,0 -4.51191,-0.57441 -7.125,-3.1875 z m 93.75,0 c -2.61309,-2.61309 -3.1875,-3.89706 -3.1875,-7.125 0,-3.22794 0.57441,-4.51191 3.1875,-7.125 2.61309,-2.61309 3.89706,-3.1875 7.125,-3.1875 3.22794,0 4.51191,0.57441 7.125,3.1875 2.61309,2.61309 3.1875,3.89706 3.1875,7.125 0,3.22794 -0.57441,4.51191 -3.1875,7.125 -2.61309,2.61309 -3.89706,3.1875 -7.125,3.1875 -3.22794,0 -4.51191,-0.57441 -7.125,-3.1875 z m -97.875,-39.98333 c 0,-5.05663 17.5494,-7.57238 26.01562,-3.72942 2.8026,1.27214 3.98438,2.3783 3.98438,3.72942 0,2.3023 0.16383,2.28532 -4.25129,0.44056 -2.18515,-0.91301 -6.30413,-1.48025 -10.74871,-1.48025 -4.44458,0 -8.56356,0.56724 -10.74871,1.48025 -4.41512,1.84476 -4.25129,1.86174 -4.25129,-0.44056 z m 88.125,-1.875 c 0,-5.05663 17.5494,-7.57238 26.01562,-3.72942 2.8026,1.27214 3.98438,2.3783 3.98438,3.72942 0,2.3023 0.16383,2.28532 -4.25129,0.44056 -2.18515,-0.91301 -6.30413,-1.48025 -10.74871,-1.48025 -4.44458,0 -8.56356,0.56724 -10.74871,1.48025 -4.41512,1.84476 -4.25129,1.86174 -4.25129,-0.44056 z"
       id="path4166"
       inkscape:connector-curvature="0" />
    <path
       style="fill:#ccb2ae"
       d="m 184.2763,297.54171 c -10.83066,-4.55295 -20.51053,-11.1311 -29.82188,-20.26603 l -9.10446,-8.93195 0.50388,4.24445 c 1.12905,9.5106 8.10635,19.50521 14.78733,21.18202 1.38354,0.34725 2.31229,0.83462 2.06386,1.08304 -1.18261,1.18262 -10.6704,-3.179 -14.40644,-6.62276 -6.33261,-5.83719 -8.00785,-9.85275 -8.47067,-20.3041 -0.35458,-8.00697 -0.76132,-9.66353 -4.02837,-16.40625 -1.99869,-4.125 -4.7968,-11.29688 -6.21804,-15.9375 l -2.58406,-8.4375 0,-39.84375 0,-39.84375 2.61103,-8.4375 c 5.46866,-17.67187 13.93538,-31.61919 26.24636,-43.2359 7.89945,-7.45397 20.65312,-15.8081 28.65754,-18.771769 2.38605,-0.883442 4.47533,-1.703634 4.64286,-1.822649 0.16753,-0.119015 -0.73758,-1.837132 -2.01137,-3.818038 -3.45768,-5.377177 -4.62953,-10.102711 -4.22725,-17.046625 0.60728,-10.482267 6.27995,-19.418096 16.05404,-25.288957 24.24115,-14.560583 57.14003,-0.369418 58.6265,25.288957 0.40228,6.943914 -0.76957,11.669448 -4.22725,17.046625 -1.2738,1.980906 -2.1789,3.699023 -2.01137,3.818038 0.16753,0.119015 2.25681,0.939208 4.64286,1.822649 8.00442,2.963669 20.75809,11.317799 28.65754,18.771769 12.34892,11.65251 20.86831,25.70928 26.20398,43.2359 l 2.56865,8.4375 0.21446,34.21875 c 0.12393,19.77496 -0.10792,32.40652 -0.54927,29.92542 -1.04453,-5.8719 -3.82142,-10.93539 -8.44242,-15.39417 l -3.88643,-3.75 0.50745,10.78125 c 0.63492,13.48969 0.63505,15.10981 0.002,27.1875 l -0.51578,9.84375 3.92211,-3.75 c 2.15715,-2.0625 4.92224,-5.85938 6.14462,-8.4375 1.44561,-3.0489 2.22574,-3.98679 2.23169,-2.683 0.0177,3.87108 -4.75035,18.69895 -8.44518,26.26323 -3.34941,6.8571 -3.73316,8.37132 -3.73316,14.73046 0,9.65951 -2.44471,15.99303 -8.2801,21.45136 -4.05338,3.79147 -13.52346,8.27814 -14.79304,7.00856 -0.24843,-0.24842 0.68032,-0.73579 2.06386,-1.08304 6.74619,-1.69318 13.6535,-11.67234 14.81836,-21.40842 l 0.53491,-4.47085 -5.84387,6.27151 c -9.99791,10.72953 -28.71973,23.00147 -38.57614,25.28623 -2.42838,0.56291 -2.64752,0.43527 -1.9703,-1.14759 0.41909,-0.97953 1.18458,-3.68723 1.70109,-6.01712 0.88189,-3.97798 1.34435,-4.46367 7.58781,-7.96875 12.67867,-7.11782 28.01455,-25.12794 31.65809,-37.17859 0.73716,-2.43807 1.71934,-3.61602 3.35798,-4.02729 l 2.31608,-0.5813 -0.43356,-35.3477 c -0.39898,-32.52847 -0.59559,-35.94588 -2.46507,-42.8477 -8.35826,-30.85729 -33.46812,-52.54961 -64.46545,-55.69149 -37.1823,-3.76878 -70.26315,19.22132 -80.13544,55.69149 -1.86463,6.88833 -2.06577,10.34687 -2.46624,42.40667 l -0.43604,34.90666 2.26947,0.86285 c 1.49293,0.56761 2.64232,2.09654 3.35915,4.46834 2.0797,6.88112 9.7367,18.48015 16.98337,25.72681 7.21175,7.21175 18.83912,14.90148 25.64112,16.95769 2.9854,0.90248 3.67084,1.62499 4.51474,4.75901 0.54723,2.03224 0.77713,3.91281 0.5109,4.17904 -0.26623,0.26623 -2.29786,0.65844 -4.51474,0.87157 -2.85575,0.27454 -5.63738,-0.28792 -9.54253,-1.92956 z m -46.47511,-74.75998 c -2.40899,-3.95132 -2.42037,-6.99077 -0.0408,-10.89363 1.44095,-2.36341 1.87148,-4.72412 1.87148,-10.26204 l 0,-7.19249 -3.21893,3.11991 c -9.64665,9.3499 -9.76756,27.52749 -0.24868,37.38453 l 2.99886,3.1054 0.27517,-6.06253 c 0.21727,-4.78712 -0.12715,-6.72241 -1.63712,-9.19915 z m 68.86195,74.33514 c -2.0625,-0.93822 -4.38281,-2.47868 -5.15625,-3.42325 -1.30795,-1.59735 -1.24241,-1.6737 0.9375,-1.09226 7.23415,1.92953 15.48687,2.69284 25.32274,2.34215 10.2648,-0.36597 11.49714,-0.61558 16.82345,-3.40756 4.3919,-2.30217 5.53697,-2.62243 4.8554,-1.35799 -1.45845,2.70568 -5.07742,5.68741 -8.78115,7.23492 -5.32492,2.2249 -28.91129,2.01956 -34.00169,-0.29601 z m 6.5625,-22.11111 c -6.30022,-2.07098 -9.37555,-4.05941 -14.25054,-9.21399 -5.71919,-6.0472 -8.71821,-13.38739 -8.71821,-21.33806 l 0,-5.58983 32.91497,0 32.91497,0 -0.35708,6.79687 c -0.71779,13.66311 -9.93261,25.34992 -23.15114,29.36172 -5.37632,1.6317 -14.3619,1.62394 -19.35297,-0.0167 z m 1.67749,-49.91228 c -0.8735,-2.27629 3.05083,-4.9796 7.22876,-4.9796 4.17793,0 8.10226,2.70331 7.22876,4.9796 -0.52722,1.37391 -0.90645,1.38687 -3.90634,0.13344 -2.93406,-1.22594 -3.71078,-1.22594 -6.64485,0 -2.99988,1.25343 -3.37911,1.24047 -3.90633,-0.13344 z m 98.34903,-5.44835 c 0.0191,-1.54688 0.22921,-2.06619 0.46691,-1.15403 0.23769,0.91215 0.22206,2.17778 -0.0348,2.8125 -0.25681,0.63471 -0.45129,-0.1116 -0.43218,-1.65847 z m -146.05777,-6.46875 c -2.61309,-2.61309 -3.1875,-3.89706 -3.1875,-7.125 0,-3.22794 0.57441,-4.51191 3.1875,-7.125 2.61309,-2.61309 3.89706,-3.1875 7.125,-3.1875 3.22794,0 4.51191,0.57441 7.125,3.1875 2.61309,2.61309 3.1875,3.89706 3.1875,7.125 0,3.22794 -0.57441,4.51191 -3.1875,7.125 -2.61309,2.61309 -3.89706,3.1875 -7.125,3.1875 -3.22794,0 -4.51191,-0.57441 -7.125,-3.1875 z m 93.75,0 c -2.61309,-2.61309 -3.1875,-3.89706 -3.1875,-7.125 0,-3.22794 0.57441,-4.51191 3.1875,-7.125 2.61309,-2.61309 3.89706,-3.1875 7.125,-3.1875 3.22794,0 4.51191,0.57441 7.125,3.1875 2.61309,2.61309 3.1875,3.89706 3.1875,7.125 0,3.22794 -0.57441,4.51191 -3.1875,7.125 -2.61309,2.61309 -3.89706,3.1875 -7.125,3.1875 -3.22794,0 -4.51191,-0.57441 -7.125,-3.1875 z m -97.875,-39.73537 c 0,-3.4421 5.36435,-5.35838 15,-5.35838 9.63565,0 15,1.91628 15,5.35838 0,2.03126 0.13432,2.02665 -4.33864,0.14917 -2.25969,-0.94848 -6.28451,-1.5237 -10.66136,-1.5237 -4.37685,0 -8.40167,0.57522 -10.66136,1.5237 -4.47297,1.87748 -4.33864,1.88209 -4.33864,-0.14917 z m 88.125,-1.875 c 0,-3.4421 5.36435,-5.35838 15,-5.35838 9.63565,0 15,1.91628 15,5.35838 0,2.03126 0.13432,2.02665 -4.33864,0.14917 -2.25969,-0.94848 -6.28451,-1.5237 -10.66136,-1.5237 -4.37685,0 -8.40167,0.57522 -10.66136,1.5237 -4.47297,1.87748 -4.33864,1.88209 -4.33864,-0.14917 z"
       id="path4164"
       inkscape:connector-curvature="0" />
    <path
       style="fill:#f4818a"
       d="m 182.63425,296.70617 c -10.6921,-4.74492 -20.02027,-11.2869 -29.17424,-20.46033 -8.97439,-8.99348 -9.66293,-8.88799 -6.71784,1.02921 2.65884,8.95329 7.68564,14.9357 13.84994,16.48284 1.41053,0.35402 2.36135,0.84693 2.11292,1.09535 -1.26958,1.26958 -10.73965,-3.21709 -14.79304,-7.00856 -5.88194,-5.50187 -8.2801,-11.77581 -8.2801,-21.66198 0,-6.29481 -0.37865,-7.99801 -2.75376,-12.38671 -3.84842,-7.1111 -8.16376,-20.5791 -9.44044,-29.46336 -0.71635,-4.98492 -0.95368,-18.97505 -0.70772,-41.71875 0.40777,-37.70678 0.67903,-39.78743 7.2425,-55.55361 8.59286,-20.64095 28.48576,-40.719063 48.63595,-49.088739 3.43322,-1.426038 6.37814,-2.682845 6.54427,-2.792901 0.16613,-0.110057 -0.74373,-1.856727 -2.0219,-3.88149 -13.36641,-21.173753 5.16482,-48.058263 33.1261,-48.058263 27.96127,0 46.49251,26.88451 33.1261,48.058263 -1.27817,2.024763 -2.18803,3.771433 -2.0219,3.88149 0.16613,0.110056 3.11105,1.366863 6.54427,2.792901 20.15019,8.369676 40.04309,28.447789 48.63595,49.088739 6.5684,15.77803 6.84443,17.90061 7.10241,54.61611 0.14346,20.41692 -0.0788,31.77513 -0.5751,29.38477 -1.16619,-5.61722 -3.96816,-10.56347 -8.41428,-14.85352 l -3.88643,-3.75 0.50745,10.78125 c 0.63492,13.48969 0.63505,15.10981 0.002,27.1875 l -0.51578,9.84375 3.92211,-3.75 c 2.15716,-2.0625 4.9519,-5.85938 6.21055,-8.4375 l 2.28845,-4.6875 -0.61116,4.21875 c -0.87683,6.0527 -5.71688,20.23364 -8.93611,26.18211 -2.37511,4.3887 -2.75376,6.0919 -2.75376,12.38671 0,9.88617 -2.39816,16.16011 -8.2801,21.66198 -4.05338,3.79147 -13.52346,8.27814 -14.79304,7.00856 -0.24843,-0.24842 0.7024,-0.74133 2.11292,-1.09535 6.35655,-1.59539 11.56192,-7.98875 13.94099,-17.12264 2.42347,-9.3043 1.94426,-9.58099 -4.46514,-2.57822 -9.82526,10.73484 -28.24499,22.83884 -38.59165,25.35938 -2.43336,0.5928 -2.64934,0.47078 -1.9742,-1.11533 0.41693,-0.97953 1.26532,-3.656 1.88531,-5.94772 1.01104,-3.73718 1.79198,-4.57163 7.57468,-8.09373 13.21452,-8.04865 23.00856,-18.93218 29.62138,-32.91647 2.36507,-5.00148 4.30958,-7.89259 5.5795,-8.29565 1.93837,-0.61521 1.94692,-0.81553 1.53276,-35.91677 -0.38403,-32.57904 -0.57335,-35.87584 -2.4573,-42.79811 -9.28164,-34.10402 -37.49806,-55.92753 -72.31075,-55.92753 -34.81284,0 -63.03462,21.82803 -72.30955,55.92753 -1.87959,6.91036 -2.07294,10.24515 -2.45929,42.41728 l -0.41932,34.91728 2.03568,0.75306 c 1.2994,0.48067 2.82866,2.70411 4.22808,6.14731 6.98289,17.18103 20.80613,31.44988 38.29628,39.53083 6.14138,2.83749 7.18244,3.68133 8.14682,6.60341 0.60812,1.84262 0.92482,3.53107 0.70377,3.75211 -0.22105,0.22104 -2.267,0.63255 -4.54656,0.91445 -3.37678,0.41759 -5.47006,-0.0757 -11.29855,-2.66219 z m -44.83306,-73.92444 c -2.40899,-3.95132 -2.42037,-6.99077 -0.0408,-10.89363 1.44095,-2.36341 1.87148,-4.72412 1.87148,-10.26204 l 0,-7.19249 -3.21893,3.11991 c -9.64665,9.3499 -9.76756,27.52749 -0.24868,37.38453 l 2.99886,3.1054 0.27517,-6.06253 c 0.21727,-4.78712 -0.12715,-6.72241 -1.63712,-9.19915 z m 68.52896,73.63047 c -2.70594,-1.34843 -4.71632,-2.65526 -4.46752,-2.90406 0.24881,-0.24881 2.61163,0.0107 5.25072,0.57668 7.46084,1.60006 28.83024,1.32014 34.01221,-0.44552 2.38022,-0.81104 4.82734,-2.07666 5.43805,-2.8125 1.86764,-2.25039 2.89592,-1.48584 1.29263,0.96109 -0.8285,1.26446 -3.66325,3.37384 -6.29943,4.6875 -4.43048,2.20781 -5.75811,2.38849 -17.54992,2.38849 -11.87786,0 -13.09585,-0.16893 -17.67674,-2.45168 z m 6.87585,-21.35498 c -13.32066,-4.17405 -22.91004,-17.24676 -22.93897,-31.27147 l -0.0101,-4.92187 32.8125,0 32.8125,0 -0.0101,4.92187 c -0.0234,11.37523 -6.11626,21.98408 -16.2273,28.25512 -6.62879,4.11128 -18.5894,5.47587 -26.43844,3.01635 z m 1.69597,-49.96675 c -0.86221,-2.24689 3.05379,-4.98046 7.0994,-4.95574 4.22174,0.0258 8.18493,2.80715 7.29701,5.12103 -0.44284,1.15404 -0.96602,1.3581 -1.78696,0.69696 -2.2228,-1.79012 -6.72177,-2.13588 -9.40623,-0.7229 -2.34947,1.23665 -2.68073,1.22224 -3.20322,-0.13935 z m -47.70758,-11.91409 c -2.61309,-2.61309 -3.1875,-3.89706 -3.1875,-7.125 0,-3.22794 0.57441,-4.51191 3.1875,-7.125 2.61309,-2.61309 3.89706,-3.1875 7.125,-3.1875 3.22794,0 4.51191,0.57441 7.125,3.1875 2.61309,2.61309 3.1875,3.89706 3.1875,7.125 0,3.22794 -0.57441,4.51191 -3.1875,7.125 -2.61309,2.61309 -3.89706,3.1875 -7.125,3.1875 -3.22794,0 -4.51191,-0.57441 -7.125,-3.1875 z m 93.75,0 c -2.61309,-2.61309 -3.1875,-3.89706 -3.1875,-7.125 0,-3.22794 0.57441,-4.51191 3.1875,-7.125 2.61309,-2.61309 3.89706,-3.1875 7.125,-3.1875 3.22794,0 4.51191,0.57441 7.125,3.1875 2.61309,2.61309 3.1875,3.89706 3.1875,7.125 0,3.22794 -0.57441,4.51191 -3.1875,7.125 -2.61309,2.61309 -3.89706,3.1875 -7.125,3.1875 -3.22794,0 -4.51191,-0.57441 -7.125,-3.1875 z m -97.47195,-39.1063 c -1.67449,-2.70939 6.78682,-6.44575 14.59695,-6.44575 7.81013,0 16.27144,3.73636 14.59695,6.44575 -0.45962,0.74368 -1.07653,0.82465 -1.78979,0.23491 -0.59862,-0.49497 -3.72513,-1.44361 -6.94779,-2.10809 -4.78134,-0.98588 -6.9374,-0.98588 -11.71875,0 -3.22265,0.66448 -6.34916,1.61312 -6.94778,2.10809 -0.71326,0.58974 -1.33017,0.50877 -1.78979,-0.23491 z m 88.125,-1.875 c -1.67449,-2.70939 6.78682,-6.44575 14.59695,-6.44575 7.81013,0 16.27144,3.73636 14.59695,6.44575 -0.45962,0.74368 -1.07653,0.82465 -1.78979,0.23491 -0.59862,-0.49497 -3.72513,-1.44361 -6.94778,-2.10809 -4.78135,-0.98588 -6.93741,-0.98588 -11.71875,0 -3.22266,0.66448 -6.34917,1.61312 -6.94779,2.10809 -0.71326,0.58974 -1.33017,0.50877 -1.78979,-0.23491 z"
       id="path4162"
       inkscape:connector-curvature="0" />
    <path
       style="fill:#d5877d"
       d="m 182.63425,296.70617 c -10.6921,-4.74492 -20.02027,-11.2869 -29.17424,-20.46033 -8.97439,-8.99348 -9.66293,-8.88799 -6.71784,1.02921 2.65884,8.95329 7.68564,14.9357 13.84994,16.48284 1.41053,0.35402 2.36135,0.84693 2.11292,1.09535 -1.26958,1.26958 -10.73965,-3.21709 -14.79304,-7.00856 -5.88194,-5.50187 -8.2801,-11.77581 -8.2801,-21.66198 0,-6.29481 -0.37865,-7.99801 -2.75376,-12.38671 -3.84842,-7.1111 -8.16376,-20.5791 -9.44044,-29.46336 -0.71635,-4.98492 -0.95368,-18.97505 -0.70772,-41.71875 0.40777,-37.70678 0.67903,-39.78743 7.2425,-55.55361 8.59286,-20.64095 28.48576,-40.719063 48.63595,-49.088739 3.43322,-1.426038 6.37814,-2.682845 6.54427,-2.792901 0.16613,-0.110057 -0.74373,-1.856727 -2.0219,-3.88149 -13.36641,-21.173753 5.16482,-48.058263 33.1261,-48.058263 27.96127,0 46.49251,26.88451 33.1261,48.058263 -1.27817,2.024763 -2.18803,3.771433 -2.0219,3.88149 0.16613,0.110056 3.11105,1.366863 6.54427,2.792901 20.15019,8.369676 40.04309,28.447789 48.63595,49.088739 6.5684,15.77803 6.84443,17.90061 7.10241,54.61611 0.14346,20.41692 -0.0788,31.77513 -0.5751,29.38477 -1.16106,-5.59256 -3.96202,-10.55595 -8.3573,-14.80941 l -3.82943,-3.70589 0,23.81803 0,23.81803 3.86206,-3.70589 c 2.12414,-2.03824 4.89186,-5.81526 6.15051,-8.39339 l 2.28845,-4.6875 -0.61115,4.21875 c -0.87684,6.0527 -5.71688,20.23364 -8.93611,26.18211 -2.37511,4.3887 -2.75376,6.0919 -2.75376,12.38671 0,9.88617 -2.39816,16.16011 -8.2801,21.66198 -4.05339,3.79147 -13.52346,8.27814 -14.79304,7.00856 -0.24843,-0.24842 0.70239,-0.74133 2.11292,-1.09535 6.35655,-1.59539 11.56191,-7.98875 13.94099,-17.12264 2.42346,-9.30429 1.94426,-9.58099 -4.46515,-2.57822 -9.82526,10.73484 -28.24499,22.83884 -38.59164,25.35938 -2.43336,0.5928 -2.64935,0.47078 -1.97421,-1.11533 0.41694,-0.97953 1.26533,-3.656 1.88532,-5.94772 1.01103,-3.73718 1.79197,-4.57163 7.57468,-8.09373 13.21452,-8.04865 23.00855,-18.93218 29.62138,-32.91647 2.36507,-5.00148 4.30957,-7.89259 5.57949,-8.29565 1.93838,-0.61521 1.94693,-0.81553 1.53277,-35.91677 -0.38439,-32.57904 -0.57371,-35.87584 -2.45766,-42.79811 -9.28164,-34.10402 -37.49806,-55.92753 -72.31075,-55.92753 -34.81284,0 -63.03462,21.82803 -72.30955,55.92753 -1.87959,6.91036 -2.07294,10.24515 -2.45929,42.41728 l -0.41932,34.91728 2.03568,0.75306 c 1.2994,0.48067 2.82866,2.70411 4.22808,6.14731 6.98289,17.18103 20.80613,31.44988 38.29628,39.53083 6.14138,2.83749 7.18244,3.68133 8.14682,6.60341 0.60812,1.84262 0.92482,3.53107 0.70377,3.75211 -0.22105,0.22104 -2.267,0.63255 -4.54656,0.91445 -3.37678,0.41759 -5.47006,-0.0757 -11.29855,-2.66219 z m -43.00236,-80.5262 0,-21.7464 -3.21893,3.11991 c -9.62135,9.32538 -9.76734,27.54154 -0.29914,37.32602 1.62161,1.67579 3.07656,3.04688 3.23323,3.04688 0.15666,0 0.28484,-9.78589 0.28484,-21.74641 z m 66.69826,80.23223 c -2.70594,-1.34843 -4.71632,-2.65526 -4.46752,-2.90406 0.24881,-0.24881 2.61163,0.0107 5.25072,0.57668 7.46084,1.60006 28.83024,1.32014 34.01221,-0.44552 2.38022,-0.81104 4.82734,-2.07666 5.43805,-2.8125 1.86764,-2.25039 2.89592,-1.48584 1.29263,0.96109 -0.8285,1.26446 -3.66325,3.37384 -6.29943,4.6875 -4.43048,2.20781 -5.75811,2.38849 -17.54992,2.38849 -11.87786,0 -13.09585,-0.16893 -17.67674,-2.45168 z m 10.87986,-20.66921 c 0.64454,-0.26007 1.69922,-0.26007 2.34375,0 0.64454,0.26007 0.11719,0.47287 -1.17187,0.47287 -1.28906,0 -1.81641,-0.2128 -1.17188,-0.47287 z m 7.96875,-0.0253 c 0.90235,-0.2358 2.37891,-0.2358 3.28125,0 0.90235,0.23581 0.16407,0.42875 -1.64062,0.42875 -1.80469,0 -2.54297,-0.19294 -1.64063,-0.42875 z m -16.69581,-2.68673 c -1.71592,-1.37472 -1.686,-1.39424 0.52394,-0.34175 2.86972,1.3667 3.40157,1.79973 2.21044,1.79973 -0.50302,0 -1.73349,-0.65608 -2.73438,-1.45797 z m 25.83644,0.78849 c 0.77344,-0.28678 2.25,-0.90956 3.28125,-1.38396 1.845,-0.84873 1.84588,-0.83921 0.0552,0.59543 -1.0009,0.80189 -2.47746,1.42466 -3.28125,1.38395 -1.26244,-0.0639 -1.26995,-0.14501 -0.0552,-0.59542 z m -32.9427,-5.65346 c -7.22902,-6.53099 -11.09033,-15.00465 -11.10966,-24.38023 l -0.0101,-4.92187 32.8125,0 32.8125,0 0,4.77758 c 0,5.06599 -2.33748,14.50568 -3.8186,15.42106 -0.48572,0.3002 -0.36928,-0.58197 0.25876,-1.96037 0.99416,-2.18191 0.9041,-2.68017 -0.69601,-3.85101 -5.64418,-4.12999 -20.27279,-5.53048 -29.55396,-2.82939 -10.20994,2.97137 -16.22599,9.42154 -16.10735,17.26963 0.0331,2.19175 -0.11136,3.985 -0.32109,3.985 -0.20974,0 -2.12987,-1.57969 -4.26695,-3.5104 z m 44.15352,-1.41148 c 2.29876,-2.44921 4.30267,-4.45312 4.45313,-4.45312 0.70395,0 -0.0403,0.84172 -4.17958,4.72668 l -4.45312,4.17957 4.17957,-4.45313 z m -30.62824,-41.66403 c -0.86221,-2.24689 3.05379,-4.98046 7.0994,-4.95574 4.22174,0.0258 8.18493,2.80715 7.29701,5.12103 -0.44284,1.15404 -0.96602,1.3581 -1.78696,0.69696 -2.2228,-1.79012 -6.72177,-2.13588 -9.40623,-0.7229 -2.34947,1.23665 -2.68073,1.22224 -3.20322,-0.13935 z m -47.70758,-11.9141 c -2.61309,-2.61309 -3.1875,-3.89706 -3.1875,-7.125 0,-3.22794 0.57441,-4.51191 3.1875,-7.125 2.61309,-2.61309 3.89706,-3.1875 7.125,-3.1875 3.22794,0 4.51191,0.57441 7.125,3.1875 2.61309,2.61309 3.1875,3.89706 3.1875,7.125 0,3.22794 -0.57441,4.51191 -3.1875,7.125 -2.61309,2.61309 -3.89706,3.1875 -7.125,3.1875 -3.22794,0 -4.51191,-0.57441 -7.125,-3.1875 z m 93.75,0 c -2.61309,-2.61309 -3.1875,-3.89706 -3.1875,-7.125 0,-3.22794 0.57441,-4.51191 3.1875,-7.125 2.61309,-2.61309 3.89706,-3.1875 7.125,-3.1875 3.22794,0 4.51191,0.57441 7.125,3.1875 2.61309,2.61309 3.1875,3.89706 3.1875,7.125 0,3.22794 -0.57441,4.51191 -3.1875,7.125 -2.61309,2.61309 -3.89706,3.1875 -7.125,3.1875 -3.22794,0 -4.51191,-0.57441 -7.125,-3.1875 z m -97.47195,-39.1063 c -1.67449,-2.70939 6.78682,-6.44575 14.59695,-6.44575 7.81013,0 16.27144,3.73636 14.59695,6.44575 -0.45962,0.74368 -1.07653,0.82465 -1.78979,0.23491 -0.59862,-0.49497 -3.72513,-1.44361 -6.94779,-2.10809 -4.78134,-0.98588 -6.9374,-0.98588 -11.71875,0 -3.22265,0.66448 -6.34916,1.61312 -6.94778,2.10809 -0.71326,0.58974 -1.33017,0.50877 -1.78979,-0.23491 z m 88.125,-1.875 c -1.67449,-2.70939 6.78682,-6.44575 14.59695,-6.44575 7.81013,0 16.27144,3.73636 14.59695,6.44575 -0.45962,0.74368 -1.07653,0.82465 -1.78979,0.23491 -0.59862,-0.49497 -3.72513,-1.44361 -6.94778,-2.10809 -4.78135,-0.98588 -6.93741,-0.98588 -11.71875,0 -3.22266,0.66448 -6.34917,1.61312 -6.94779,2.10809 -0.71326,0.58974 -1.33017,0.50877 -1.78979,-0.23491 z"
       id="path4160"
       inkscape:connector-curvature="0" />
    <path
       style="fill:#ac938e"
       d="m 182.63425,296.70617 c -10.6921,-4.74492 -20.02027,-11.2869 -29.17424,-20.46033 -8.97439,-8.99348 -9.66293,-8.88799 -6.71784,1.02921 2.65884,8.95329 7.68564,14.9357 13.84994,16.48284 1.41053,0.35402 2.36135,0.84693 2.11292,1.09535 -1.26958,1.26958 -10.73965,-3.21709 -14.79304,-7.00856 -5.88194,-5.50187 -8.2801,-11.77581 -8.2801,-21.66198 0,-6.29481 -0.37865,-7.99801 -2.75376,-12.38671 -3.84842,-7.1111 -8.16376,-20.5791 -9.44044,-29.46336 -0.71635,-4.98492 -0.95368,-18.97505 -0.70772,-41.71875 0.40777,-37.70678 0.67903,-39.78743 7.2425,-55.55361 8.59286,-20.64095 28.48576,-40.719063 48.63595,-49.088739 3.43322,-1.426038 6.37814,-2.682845 6.54427,-2.792901 0.16613,-0.110057 -0.74373,-1.856727 -2.0219,-3.88149 -13.36641,-21.173753 5.16482,-48.058263 33.1261,-48.058263 27.96127,0 46.49251,26.88451 33.1261,48.058263 -1.27817,2.024763 -2.18803,3.771433 -2.0219,3.88149 0.16613,0.110056 3.11105,1.366863 6.54427,2.792901 20.15019,8.369676 40.04309,28.447789 48.63595,49.088739 6.5684,15.77803 6.84443,17.90061 7.10241,54.61611 0.14346,20.41692 -0.0788,31.77513 -0.5751,29.38477 -1.16106,-5.59256 -3.96202,-10.55595 -8.3573,-14.80941 l -3.82943,-3.70589 0,23.81803 0,23.81803 3.86206,-3.70589 c 2.12414,-2.03824 4.89186,-5.81526 6.15051,-8.39339 l 2.28845,-4.6875 -0.61115,4.21875 c -0.87684,6.0527 -5.71688,20.23364 -8.93611,26.18211 -2.37511,4.3887 -2.75376,6.0919 -2.75376,12.38671 0,9.88617 -2.39816,16.16011 -8.2801,21.66198 -4.05339,3.79147 -13.52346,8.27814 -14.79304,7.00856 -0.24843,-0.24842 0.70239,-0.74133 2.11292,-1.09535 6.35655,-1.59539 11.56191,-7.98875 13.94099,-17.12264 2.42346,-9.30429 1.94426,-9.58099 -4.46515,-2.57822 -9.82526,10.73484 -28.24499,22.83884 -38.59164,25.35938 -2.43336,0.5928 -2.64935,0.47078 -1.97421,-1.11533 0.41694,-0.97953 1.26533,-3.656 1.88532,-5.94772 1.01103,-3.73718 1.79197,-4.57163 7.57468,-8.09373 13.21452,-8.04865 23.00855,-18.93218 29.62138,-32.91647 2.36507,-5.00148 4.30957,-7.89259 5.57949,-8.29565 1.93838,-0.61521 1.94693,-0.81553 1.53277,-35.91677 -0.38439,-32.57904 -0.57371,-35.87584 -2.45766,-42.79811 -9.28164,-34.10402 -37.49806,-55.92753 -72.31075,-55.92753 -34.81284,0 -63.03462,21.82803 -72.30955,55.92753 -1.87959,6.91036 -2.07294,10.24515 -2.45929,42.41728 l -0.41932,34.91728 2.03568,0.75306 c 1.2994,0.48067 2.82866,2.70411 4.22808,6.14731 6.98289,17.18103 20.80613,31.44988 38.29628,39.53083 6.14138,2.83749 7.18244,3.68133 8.14682,6.60341 0.60812,1.84262 0.92482,3.53107 0.70377,3.75211 -0.22105,0.22104 -2.267,0.63255 -4.54656,0.91445 -3.37678,0.41759 -5.47006,-0.0757 -11.29855,-2.66219 z m -43.00236,-80.5262 0,-21.7464 -3.21893,3.11991 c -9.62135,9.32538 -9.76734,27.54154 -0.29914,37.32602 1.62161,1.67579 3.07656,3.04688 3.23323,3.04688 0.15666,0 0.28484,-9.78589 0.28484,-21.74641 z m 66.69826,80.23223 c -2.70594,-1.34843 -4.71632,-2.65526 -4.46752,-2.90406 0.24881,-0.24881 2.61163,0.0107 5.25072,0.57668 7.46084,1.60006 28.83024,1.32014 34.01221,-0.44552 2.38022,-0.81104 4.82734,-2.07666 5.43805,-2.8125 1.86764,-2.25039 2.89592,-1.48584 1.29263,0.96109 -0.8285,1.26446 -3.66325,3.37384 -6.29943,4.6875 -4.43048,2.20781 -5.75811,2.38849 -17.54992,2.38849 -11.87786,0 -13.09585,-0.16893 -17.67674,-2.45168 z m -4.95346,-28.24622 c -7.22902,-6.53099 -11.09033,-15.00465 -11.10966,-24.38023 l -0.0101,-4.92187 32.9183,0 32.91828,0 -0.36984,6.5453 c -0.47002,8.3183 -1.28823,9.18969 -6.25134,6.6577 -8.54914,-4.36144 -23.90588,-4.20006 -32.87609,0.3455 -7.46253,3.78154 -11.82693,10.66549 -10.65354,16.80376 0.62105,3.24875 0.046,3.1165 -4.56597,-1.05016 z m 13.52528,-43.07551 c -0.86221,-2.24689 3.05379,-4.98046 7.0994,-4.95574 4.22174,0.0258 8.18493,2.80715 7.29701,5.12103 -0.44284,1.15404 -0.96602,1.3581 -1.78696,0.69696 -2.2228,-1.79012 -6.72177,-2.13588 -9.40623,-0.7229 -2.34947,1.23665 -2.68073,1.22224 -3.20322,-0.13935 z m -47.70758,-11.91409 c -2.61309,-2.61309 -3.1875,-3.89706 -3.1875,-7.125 0,-3.22794 0.57441,-4.51191 3.1875,-7.125 2.61309,-2.61309 3.89706,-3.1875 7.125,-3.1875 3.22794,0 4.51191,0.57441 7.125,3.1875 2.61309,2.61309 3.1875,3.89706 3.1875,7.125 0,3.22794 -0.57441,4.51191 -3.1875,7.125 -2.61309,2.61309 -3.89706,3.1875 -7.125,3.1875 -3.22794,0 -4.51191,-0.57441 -7.125,-3.1875 z m 93.75,0 c -2.61309,-2.61309 -3.1875,-3.89706 -3.1875,-7.125 0,-3.22794 0.57441,-4.51191 3.1875,-7.125 2.61309,-2.61309 3.89706,-3.1875 7.125,-3.1875 3.22794,0 4.51191,0.57441 7.125,3.1875 2.61309,2.61309 3.1875,3.89706 3.1875,7.125 0,3.22794 -0.57441,4.51191 -3.1875,7.125 -2.61309,2.61309 -3.89706,3.1875 -7.125,3.1875 -3.22794,0 -4.51191,-0.57441 -7.125,-3.1875 z m -97.47195,-39.1063 c -1.67449,-2.70939 6.78682,-6.44575 14.59695,-6.44575 7.81013,0 16.27144,3.73636 14.59695,6.44575 -0.45962,0.74368 -1.07653,0.82465 -1.78979,0.23491 -0.59862,-0.49497 -3.72513,-1.44361 -6.94779,-2.10809 -4.78134,-0.98588 -6.9374,-0.98588 -11.71875,0 -3.22265,0.66448 -6.34916,1.61312 -6.94778,2.10809 -0.71326,0.58974 -1.33017,0.50877 -1.78979,-0.23491 z m 88.125,-1.875 c -1.67449,-2.70939 6.78682,-6.44575 14.59695,-6.44575 7.81013,0 16.27144,3.73636 14.59695,6.44575 -0.45962,0.74368 -1.07653,0.82465 -1.78979,0.23491 -0.59862,-0.49497 -3.72513,-1.44361 -6.94778,-2.10809 -4.78135,-0.98588 -6.93741,-0.98588 -11.71875,0 -3.22266,0.66448 -6.34917,1.61312 -6.94779,2.10809 -0.71326,0.58974 -1.33017,0.50877 -1.78979,-0.23491 z"
       id="path4158"
       inkscape:connector-curvature="0" />
    <path
       style="fill:#9a938d"
       d="m 183.41321,296.9313 c -12.55103,-5.57144 -24.55691,-14.23147 -33.49995,-24.16404 l -4.78067,-5.30963 0.55323,5.15625 c 0.77033,7.17949 4.7584,14.68014 9.89331,18.60701 3.03694,2.32248 3.55635,3.01347 1.86526,2.48144 -3.20213,-1.00743 -8.48242,-4.46108 -10.92881,-7.14815 -4.61582,-5.06995 -6.37282,-10.21479 -6.87386,-20.12806 -0.26322,-5.20796 -0.96666,-10.05952 -1.5632,-10.78125 -2.47577,-2.99532 -7.84471,-18.00552 -9.70721,-27.13887 -1.87889,-9.2137 -1.97494,-11.89616 -1.60972,-44.95462 0.4282,-38.75918 0.67468,-40.65972 7.28887,-56.20283 9.50948,-22.34695 28.12094,-40.911032 49.89643,-49.769413 2.9748,-1.210167 5.27489,-2.435701 5.11129,-2.723408 -4.51925,-7.947782 -5.83254,-12.181865 -5.83254,-18.804352 0,-5.663768 0.48002,-8.03407 2.46812,-12.1875 10.7795,-22.519921 44.09463,-27.62577 62.25491,-9.541139 6.51845,6.491294 9.32717,13.034511 9.32717,21.728639 0,6.615809 -1.32643,10.901322 -5.82024,18.804352 -0.1636,0.287707 2.13649,1.513241 5.11129,2.723408 21.77549,8.858381 40.38695,27.422463 49.89643,49.769413 6.49743,15.26873 6.83243,17.75853 7.18351,53.39033 0.2892,29.3509 0.19258,31.94785 -1.04431,28.0653 -1.6404,-5.14919 -5.61882,-11.24001 -9.1425,-13.99684 l -2.57813,-2.01705 0,23.57359 0,23.57359 2.39942,-1.88738 c 3.03167,-2.38472 5.23751,-5.21048 7.78077,-9.96746 1.82665,-3.41662 1.95462,-3.49996 1.43947,-0.9375 -2.11749,10.53266 -7.23595,24.9995 -10.0834,28.49974 -0.58714,0.72173 -1.28287,5.57329 -1.54609,10.78125 -0.50104,9.91327 -2.25804,15.05811 -6.87386,20.12806 -2.44639,2.68707 -7.72668,6.14072 -10.92881,7.14815 -1.68953,0.53155 -1.16708,-0.16248 1.87171,-2.48635 5.09526,-3.89654 9.01755,-11.30303 9.85118,-18.6021 l 0.58891,-5.15625 -4.78067,5.30963 c -5.87192,6.52164 -15.50723,14.38357 -22.99988,18.76676 -6.21396,3.63515 -18.06792,8.79319 -18.71682,8.14428 -0.22752,-0.22752 0.26755,-2.50774 1.10016,-5.06716 0.83262,-2.55944 1.62192,-5.12519 1.75399,-5.7017 0.13209,-0.57651 3.1224,-2.6424 6.64516,-4.59087 4.15304,-2.29709 9.38783,-6.54324 14.88872,-12.07681 7.33234,-7.37592 9.16034,-9.89804 13.46949,-18.58404 3.02768,-6.10289 5.67895,-10.26989 6.75068,-10.61004 1.68297,-0.53416 1.76487,-2.0524 1.76487,-32.71793 0,-41.11347 -0.92112,-47.00414 -10.12449,-64.74712 -2.43205,-4.68868 -5.95635,-9.12218 -12.34289,-15.52703 -7.8664,-7.889 -10.1199,-9.54584 -18.78262,-13.8095 -12.79011,-6.29512 -20.09771,-8.03483 -33.75,-8.03483 -13.65229,0 -20.95989,1.73971 -33.75,8.03483 -8.63137,4.24824 -10.95477,5.95189 -18.86452,13.83255 -7.99961,7.97018 -9.56174,10.09931 -13.79958,18.80828 -7.75801,15.94308 -7.89156,16.86364 -8.33697,57.46828 -0.36978,33.71159 -0.30462,35.4831 1.32167,35.92696 1.06125,0.28965 3.6408,4.44506 6.79505,10.94617 4.58407,9.44806 5.96791,11.36146 14.0625,19.44382 7.89304,7.88112 10.18903,9.56383 18.99765,13.92317 8.4298,4.17188 10.17953,5.41759 11.02793,7.85128 1.23599,3.5456 0.44975,4.45024 -4.29334,4.93989 -2.60631,0.26906 -5.42584,-0.42291 -10.00407,-2.4552 z m -43.98594,-91.58305 -0.26413,-11.01562 -2.71016,2.8125 c -1.49059,1.54687 -3.80242,5.13281 -5.13739,7.96875 -4.61812,9.81042 -2.46517,22.57912 5.13739,30.46875 l 2.71016,2.8125 0.26413,-11.01563 c 0.14527,-6.05859 0.14527,-15.97265 0,-22.03125 z m 70.20774,92.17199 c -2.49048,-0.66941 -5.23267,-1.96645 -6.09375,-2.88233 -1.47255,-1.56623 -1.45416,-1.61937 0.30938,-0.89383 1.03125,0.42427 9.25781,0.94244 18.28125,1.15148 l 16.40625,0.3801 5.625,-2.9096 5.625,-2.90961 -3.82909,3.65523 c -2.78717,2.66062 -5.15939,3.94052 -8.71802,4.70371 -6.48778,1.39138 -21.94626,1.2261 -27.60602,-0.29515 z m -9.04645,-30.51268 c -6.12843,-5.96928 -9.5174,-13.24205 -10.12452,-21.72732 l -0.45908,-6.41636 33.06443,0 33.06443,0 -0.47434,6.62962 c -0.26089,3.6463 -0.90019,7.05548 -1.42068,7.57597 -0.63677,0.63677 -2.19596,0.30881 -4.76651,-1.00259 -8.54914,-4.36144 -23.90588,-4.20006 -32.87609,0.3455 -7.46253,3.78154 -11.82693,10.66549 -10.65354,16.80376 0.25868,1.35313 0.23831,2.46024 -0.0453,2.46024 -0.28356,0 -2.67254,-2.10098 -5.30886,-4.66882 z m 14.55619,-41.96055 c -0.67806,-1.76698 1.40561,-3.73486 4.87776,-4.60673 4.35931,-1.09462 10.15755,1.84177 9.09652,4.60673 -0.55246,1.4397 -0.81683,1.46099 -2.60337,0.20965 -1.09366,-0.76603 -3.06636,-1.39278 -4.38377,-1.39278 -1.31741,0 -3.29011,0.62675 -4.38377,1.39278 -1.78654,1.25134 -2.05091,1.23005 -2.60337,-0.20965 z m -45.149,-9.55397 c -3.40334,-1.45757 -5.98886,-5.6288 -5.98886,-9.66184 0,-3.00379 0.63469,-4.35201 3.30657,-7.02389 3.0473,-3.0473 3.64404,-3.26853 7.61035,-2.82147 6.24715,0.70414 9.23933,3.96389 9.23933,10.06554 0,3.751 -0.46862,5.11351 -2.43508,7.07996 -2.65493,2.65493 -8.36418,3.80419 -11.73231,2.3617 z m 93.85489,0.0325 c -3.29597,-1.43336 -5.36472,-4.59291 -5.85494,-8.94209 -0.43992,-3.90298 -0.211,-4.49743 2.94869,-7.65712 3.17497,-3.17498 3.74056,-3.39014 7.72942,-2.94054 6.24715,0.70414 9.23933,3.96389 9.23933,10.06554 0,3.751 -0.46862,5.11351 -2.43508,7.07996 -2.62842,2.62843 -8.3702,3.81073 -11.62742,2.39425 z M 163.2767,173.0045 c 0.59752,-1.92604 6.89857,-4.54792 12.25957,-5.10122 5.61021,-0.57902 14.63147,1.5627 16.60657,3.94254 1.91032,2.3018 0.42219,2.6544 -4.34589,1.02975 -5.56174,-1.89507 -13.89975,-1.94109 -19.10256,-0.10544 -4.85228,1.71199 -5.89003,1.75687 -5.41769,0.23437 z m 88.125,-1.875 c 0.59752,-1.92604 6.89857,-4.54792 12.25957,-5.10122 5.61021,-0.57902 14.63147,1.5627 16.60657,3.94254 1.91032,2.3018 0.42219,2.6544 -4.34589,1.02975 -5.56174,-1.89507 -13.89975,-1.94109 -19.10256,-0.10544 -4.85228,1.71199 -5.89003,1.75687 -5.41769,0.23437 z"
       id="path4156"
       inkscape:connector-curvature="0" />
    <path
       style="fill:#ba7c82"
       d="m 187.36332,298.47448 c -12.8151,-4.8835 -24.14714,-12.42474 -34.52218,-22.97381 l -7.8845,-8.01674 0.64121,5.14309 c 0.90562,7.26383 4.90286,14.7102 9.98128,18.59387 3.03694,2.32248 3.55635,3.01347 1.86526,2.48144 -3.20213,-1.00743 -8.48242,-4.46108 -10.92881,-7.14815 -4.46749,-4.90703 -6.25338,-10.07098 -6.89511,-19.93738 -0.51542,-7.9246 -1.07817,-10.39044 -3.44534,-15.09667 -8.73082,-17.35797 -9.92606,-26.09779 -9.41393,-68.83639 0.45173,-37.69844 0.55123,-38.4636 7.12616,-54.80137 8.5576,-21.26442 27.70414,-40.701847 49.11141,-49.857562 3.48459,-1.490333 6.20655,-2.930755 6.04879,-3.200939 -0.15775,-0.270182 -1.52945,-3.022492 -3.04822,-6.116242 -5.55702,-11.319698 -3.12326,-24.661956 6.21303,-34.060885 18.27927,-18.401908 51.29204,-13.535651 62.5292,9.217135 2.09375,4.239384 2.54657,6.421331 2.54657,12.270788 0,6.193801 -0.3954,7.881199 -3.05524,13.038518 -1.68037,3.258187 -2.946,6.010822 -2.8125,6.116965 0.13351,0.106143 2.98493,1.381443 6.33649,2.834 22.66833,9.824381 41.80657,30.078502 50.33492,53.269732 5.06359,13.76947 5.22085,15.16609 5.55629,49.345 0.28807,29.35205 0.19135,31.948 -1.04558,28.0653 -1.6404,-5.14919 -5.61882,-11.24001 -9.1425,-13.99684 l -2.57813,-2.01705 0,23.57359 0,23.57359 2.39942,-1.88738 c 3.03167,-2.38472 5.23751,-5.21048 7.78077,-9.96746 1.82875,-3.42055 1.95556,-3.50291 1.44334,-0.9375 -1.92405,9.63646 -4.44391,17.08996 -8.44417,24.97707 -2.05931,4.06024 -2.66606,6.83827 -3.16579,14.4946 -0.64392,9.86568 -2.43114,15.03186 -6.89726,19.93738 -2.44639,2.68707 -7.72668,6.14072 -10.92881,7.14815 -1.69109,0.53203 -1.17168,-0.15896 1.86526,-2.48144 5.07842,-3.88367 9.07566,-11.33004 9.98128,-18.59387 l 0.64121,-5.14309 -7.91797,8.08005 c -10.36775,10.57997 -25.54071,20.27442 -37.14791,23.73488 -2.33494,0.69612 -2.54918,0.32125 -1.19342,-2.08833 0.50377,-0.89535 1.35515,-3.38883 1.89197,-5.54107 0.88043,-3.52998 1.59403,-4.25496 7.28716,-7.40337 4.0526,-2.24116 9.34723,-6.5443 14.79488,-12.02433 7.33234,-7.37592 9.16034,-9.89804 13.46949,-18.58404 3.02768,-6.10289 5.67895,-10.26989 6.75068,-10.61004 1.68297,-0.53416 1.76487,-2.0524 1.76487,-32.71793 0,-41.11347 -0.92112,-47.00414 -10.12449,-64.74712 -2.43205,-4.68868 -5.95635,-9.12218 -12.34289,-15.52703 -7.8664,-7.889 -10.1199,-9.54584 -18.78262,-13.8095 -12.79011,-6.29512 -20.09771,-8.03483 -33.75,-8.03483 -13.65229,0 -20.95989,1.73971 -33.75,8.03483 -8.63137,4.24824 -10.95477,5.95189 -18.86452,13.83255 -7.99961,7.97018 -9.56174,10.09931 -13.79958,18.80828 -7.75801,15.94308 -7.89156,16.86364 -8.33697,57.46828 -0.36978,33.71159 -0.30462,35.4831 1.32167,35.92696 1.06125,0.28965 3.6408,4.44506 6.79505,10.94617 4.58407,9.44806 5.96791,11.36146 14.0625,19.44382 7.90718,7.89524 10.18097,9.55985 19.06238,13.95535 8.78999,4.35023 10.1871,5.36554 10.88535,7.91046 0.44058,1.60581 0.50687,3.25138 0.1473,3.65683 -1.24189,1.40033 -7.06565,1.55669 -10.41675,0.27968 z m -47.93605,-93.12623 -0.26413,-11.01562 -2.71016,2.8125 c -1.49059,1.54687 -3.80242,5.13281 -5.13739,7.96875 -4.61812,9.81042 -2.46517,22.57912 5.13739,30.46875 l 2.71016,2.8125 0.26413,-11.01563 c 0.14527,-6.05859 0.14527,-15.97265 0,-22.03125 z m 61.16129,61.65931 c -6.02687,-5.87036 -9.15378,-12.57297 -9.97183,-21.37488 l -0.62909,-6.7688 33.08175,0 33.08175,0 -0.6298,6.77643 c -0.34639,3.72703 -0.98959,7.13621 -1.42933,7.57595 -0.44104,0.44104 -2.51242,-0.0743 -4.61972,-1.14938 -8.54914,-4.36144 -23.90588,-4.20006 -32.87609,0.3455 -7.46253,3.78154 -11.82693,10.66549 -10.65354,16.80376 0.25868,1.35313 0.23831,2.46024 -0.0453,2.46024 -0.28356,0 -2.67254,-2.10097 -5.30886,-4.66882 z m 14.59797,-42.0672 c -0.31487,-0.50949 0.59154,-1.84198 2.01426,-2.96109 2.98336,-2.34671 7.7305,-2.07876 10.69453,0.60364 2.32044,2.09997 0.82602,3.7381 -2.02044,2.21472 -2.03667,-1.08999 -5.47548,-0.92796 -8.57004,0.40382 -0.85019,0.3659 -1.80342,0.2484 -2.11831,-0.26109 z M 169.4093,214.89633 c -2.81521,-1.52752 -5.40241,-5.76334 -5.40241,-8.84495 0,-4.96888 5.34362,-10.3125 10.3125,-10.3125 4.96888,0 10.3125,5.34362 10.3125,10.3125 0,3.17614 -2.63168,7.35834 -5.59432,8.89038 -3.4199,1.76851 -6.31033,1.75487 -9.62827,-0.0455 z m 93.75,0 c -2.81521,-1.52752 -5.40241,-5.76334 -5.40241,-8.84495 0,-4.96888 5.34362,-10.3125 10.3125,-10.3125 4.96888,0 10.3125,5.34362 10.3125,10.3125 0,3.17614 -2.63167,7.35834 -5.59432,8.89038 -3.4199,1.76851 -6.31033,1.75487 -9.62827,-0.0455 z M 163.06939,173.26049 c 0,-1.68142 4.4123,-3.83425 9.9696,-4.86434 6.45813,-1.19706 14.92504,0.16214 18.36049,2.94741 3.10513,2.51748 1.56292,3.18914 -3.43021,1.49393 -5.36287,-1.82075 -14.74842,-1.83991 -19.74363,-0.0403 -4.46443,1.60836 -5.15625,1.67053 -5.15625,0.46332 z m 88.125,-1.875 c 0,-1.68142 4.4123,-3.83425 9.9696,-4.86434 6.45813,-1.19706 14.92504,0.16214 18.36049,2.94741 3.10513,2.51748 1.56292,3.18914 -3.43021,1.49393 -5.36287,-1.82075 -14.74842,-1.83991 -19.74363,-0.0403 -4.46443,1.60836 -5.15625,1.67053 -5.15625,0.46332 z"
       id="path4154"
       inkscape:connector-curvature="0" />
    <path
       style="fill:#90726e"
       d="m 187.36332,298.47448 c -12.8151,-4.8835 -24.14714,-12.42474 -34.52218,-22.97381 l -7.8845,-8.01674 0.64121,5.14309 c 0.90562,7.26383 4.90286,14.7102 9.98128,18.59387 3.03694,2.32248 3.55635,3.01347 1.86526,2.48144 -3.20213,-1.00743 -8.48242,-4.46108 -10.92881,-7.14815 -4.46749,-4.90703 -6.25338,-10.07098 -6.89511,-19.93738 -0.51542,-7.9246 -1.07817,-10.39044 -3.44534,-15.09667 -8.73082,-17.35797 -9.92606,-26.09779 -9.41393,-68.83639 0.45173,-37.69844 0.55123,-38.4636 7.12616,-54.80137 8.5576,-21.26442 27.70414,-40.701847 49.11141,-49.857562 3.48459,-1.490333 6.20655,-2.930755 6.04879,-3.200939 -0.15775,-0.270182 -1.52945,-3.022492 -3.04822,-6.116242 -5.55702,-11.319698 -3.12326,-24.661956 6.21303,-34.060885 18.27927,-18.401908 51.29204,-13.535651 62.5292,9.217135 2.09375,4.239384 2.54657,6.421331 2.54657,12.270788 0,6.193801 -0.3954,7.881199 -3.05524,13.038518 -1.68037,3.258187 -2.946,6.010822 -2.8125,6.116965 0.13351,0.106143 2.98493,1.381443 6.33649,2.834 22.66833,9.824381 41.80657,30.078502 50.33492,53.269732 5.06981,13.7864 5.22222,15.14658 5.52904,49.345 0.23598,26.30486 0.0803,31.6226 -0.83377,28.48134 -1.4646,-5.03308 -5.86624,-11.88518 -9.23444,-14.37541 l -2.67075,-1.97456 0,23.49363 0,23.49363 2.67075,-1.97456 c 1.4689,-1.08601 3.8504,-3.84084 5.2922,-6.12182 1.44179,-2.28099 2.81816,-4.14725 3.05858,-4.14725 1.57666,0 -3.31373,15.45466 -7.56477,23.90625 -2.36717,4.70623 -2.92992,7.17207 -3.44534,15.09667 -0.64173,9.86641 -2.42762,15.03035 -6.89511,19.93738 -2.44639,2.68707 -7.72668,6.14073 -10.92881,7.14815 -1.69109,0.53203 -1.17168,-0.15896 1.86526,-2.48144 5.07842,-3.88367 9.07566,-11.33004 9.98128,-18.59387 l 0.64121,-5.14309 -7.91797,8.08005 c -10.36775,10.57997 -25.54071,20.27442 -37.1479,23.73488 -2.33495,0.69612 -2.54919,0.32125 -1.19343,-2.08833 0.50377,-0.89535 1.35873,-3.4021 1.89991,-5.57058 0.88651,-3.55219 1.56179,-4.24629 6.81842,-7.00837 3.79194,-1.99246 8.99246,-6.19968 14.85524,-12.01788 8.04655,-7.98537 9.54928,-10.03424 13.91451,-18.97149 3.1477,-6.44453 5.55629,-10.2296 6.75071,-10.6087 1.81724,-0.57676 1.84871,-1.35496 1.47054,-36.36388 -0.44243,-40.95636 -0.56635,-41.81531 -8.33618,-57.7827 -4.23067,-8.69423 -5.81616,-10.85804 -13.82264,-18.86451 -8.01833,-8.01834 -10.1717,-9.59472 -18.99067,-13.90218 -22.87662,-11.17365 -44.72689,-11.15964 -67.35079,0.0432 -8.62224,4.26952 -10.95946,5.9901 -18.83491,13.86555 -7.87545,7.87545 -9.59602,10.21266 -13.86555,18.83491 -7.80434,15.76072 -8.52236,20.85695 -8.53722,60.59378 -0.0114,30.58553 0.10483,32.96838 1.62831,33.3695 0.96631,0.25443 3.72498,4.63422 6.71196,10.65621 4.48577,9.04369 6.11219,11.26586 14.08555,19.24502 8.01489,8.02072 10.12896,9.56525 19.06941,13.93204 8.81729,4.30664 10.15456,5.27359 10.8623,7.85423 0.44389,1.61864 0.5129,3.27469 0.15333,3.68013 -1.24189,1.40034 -7.06565,1.55669 -10.41675,0.27969 z M 139.63189,216.3933 c 0,-24.18476 -0.10693,-24.46607 -5.94708,-15.6449 -4.4351,6.69895 -5.96587,13.98633 -4.40399,20.96559 0.65852,2.94257 2.21657,6.96472 3.46233,8.93815 2.25136,3.56638 5.52379,7.27424 6.41999,7.27424 0.25781,0 0.46875,-9.68989 0.46875,-21.53308 z m 60.95667,50.61426 c -6.02687,-5.87036 -9.15378,-12.57297 -9.97183,-21.37488 l -0.62909,-6.7688 33.08175,0 33.08175,0 -0.6298,6.77643 c -0.34639,3.72703 -0.99469,7.14131 -1.44066,7.58728 -0.45613,0.45613 -1.78305,0.17383 -3.03322,-0.64531 -6.74286,-4.41809 -21.26583,-5.34608 -30.97294,-1.97914 -8.98546,3.11666 -15.79265,11.745 -14.47272,18.34466 0.30015,1.50072 0.37344,2.72858 0.16289,2.72858 -0.21055,0 -2.53981,-2.10098 -5.17613,-4.66883 z m 14.59797,-42.0672 c -0.31487,-0.50949 0.59154,-1.84198 2.01426,-2.96109 2.98336,-2.34671 7.7305,-2.07876 10.69453,0.60364 2.32044,2.09997 0.82602,3.7381 -2.02044,2.21472 -2.03667,-1.08999 -5.47548,-0.92796 -8.57004,0.40382 -0.85019,0.3659 -1.80342,0.2484 -2.11831,-0.26109 z M 169.4093,214.89633 c -2.81521,-1.52752 -5.40241,-5.76334 -5.40241,-8.84495 0,-4.96888 5.34362,-10.3125 10.3125,-10.3125 4.96888,0 10.3125,5.34362 10.3125,10.3125 0,3.17614 -2.63168,7.35834 -5.59432,8.89038 -3.4199,1.76851 -6.31033,1.75487 -9.62827,-0.0455 z m 93.75,0 c -2.81521,-1.52752 -5.40241,-5.76334 -5.40241,-8.84495 0,-4.96888 5.34362,-10.3125 10.3125,-10.3125 4.96888,0 10.3125,5.34362 10.3125,10.3125 0,3.17614 -2.63167,7.35834 -5.59432,8.89038 -3.4199,1.76851 -6.31033,1.75487 -9.62827,-0.0455 z M 163.06939,173.26049 c 0,-1.68142 4.4123,-3.83425 9.9696,-4.86434 6.45813,-1.19706 14.92504,0.16214 18.36049,2.94741 3.10513,2.51748 1.56292,3.18914 -3.43021,1.49393 -5.36287,-1.82075 -14.74842,-1.83991 -19.74363,-0.0403 -4.46443,1.60836 -5.15625,1.67053 -5.15625,0.46332 z m 88.125,-1.875 c 0,-1.68142 4.4123,-3.83425 9.9696,-4.86434 6.45813,-1.19706 14.92504,0.16214 18.36049,2.94741 3.10513,2.51748 1.56292,3.18914 -3.43021,1.49393 -5.36287,-1.82075 -14.74842,-1.83991 -19.74363,-0.0403 -4.46443,1.60836 -5.15625,1.67053 -5.15625,0.46332 z"
       id="path4152"
       inkscape:connector-curvature="0" />
    <path
       style="fill:#696b70"
       d="m 187.21931,298.38137 c -12.72329,-4.67335 -29.697,-16.52801 -37.7466,-26.36272 l -4.50049,-5.49852 0.56374,5.58825 c 0.74976,7.43216 4.70762,15.03448 9.88167,18.98085 5.02599,3.83346 4.03268,3.95116 -2.36746,0.28053 -8.88976,-5.09848 -12.58641,-11.91603 -13.21716,-24.37576 -0.38622,-7.62945 -0.88624,-9.78797 -3.47587,-15.00512 -8.79678,-17.72221 -10.10571,-27.26142 -9.58368,-69.84375 0.32729,-26.69784 0.69541,-33.94808 1.97536,-38.90625 7.28471,-28.21876 24.6518,-50.291438 49.34191,-62.710994 4.91017,-2.469904 9.46566,-4.670094 10.12332,-4.889311 0.85713,-0.28571 0.32362,-2.089539 -1.88401,-6.370055 -2.68943,-5.214718 -3.07973,-6.876816 -3.07973,-13.115344 0,-8.462415 2.7265,-15.046953 8.81089,-21.27845 17.89129,-18.323836 51.66117,-13.542408 62.62508,8.866989 2.12493,4.343216 2.57718,6.521234 2.57718,12.411461 0,6.238528 -0.39029,7.900626 -3.07972,13.115344 -2.20763,4.280516 -2.74114,6.084345 -1.88401,6.370055 0.65766,0.219217 5.21315,2.419407 10.12332,4.889311 17.47,8.787717 31.94573,23.086684 40.70809,40.210994 9.31192,18.19834 10.88259,27.44554 10.82812,63.75 l -0.0401,26.71875 -1.69805,-4.34117 c -1.98704,-5.08001 -5.82131,-10.36781 -9.05353,-12.48564 l -2.28567,-1.49767 0,23.52295 0,23.52296 2.72532,-1.9406 c 1.49892,-1.06733 4.07817,-3.94371 5.73166,-6.39197 l 3.00634,-4.45136 -0.65992,3.75 c -0.952,5.40983 -4.04465,14.07482 -7.52865,21.09375 -2.58963,5.21715 -3.08965,7.37567 -3.47587,15.00512 -0.63075,12.45973 -4.3274,19.27728 -13.21716,24.37576 -6.40014,3.67063 -7.39345,3.55293 -2.36746,-0.28053 5.17405,-3.94637 9.13191,-11.54869 9.88166,-18.98085 l 0.56375,-5.58825 -4.50049,5.49852 c -6.45327,7.88437 -18.2256,16.86087 -29.06543,22.16264 -5.15625,2.52193 -10.2982,4.83832 -11.42657,5.14753 -2.00254,0.54878 -2.02076,0.47713 -0.76262,-2.99823 0.70893,-1.95825 1.51717,-4.61515 1.7961,-5.90421 0.35727,-1.65111 2.10645,-3.22418 5.91887,-5.32297 13.62852,-7.50264 28.49139,-24.67764 32.41295,-37.45525 0.64307,-2.09532 1.8595,-3.66363 3.25237,-4.1932 l 2.22508,-0.84597 -0.33051,-36.79443 -0.33052,-36.79443 -2.8941,-8.59425 c -8.25618,-24.51728 -24.96755,-41.21908 -49.3918,-49.3635 -8.00457,-2.66918 -9.52695,-2.86581 -22.188,-2.86581 -12.66105,0 -14.18343,0.19663 -22.188,2.86581 -24.42425,8.14442 -41.13563,24.84622 -49.3918,49.3635 l -2.8941,8.59425 -0.32981,36.67008 c -0.32745,36.40878 -0.31599,36.67369 1.60723,37.17662 1.06536,0.27859 2.18334,1.28487 2.48439,2.23617 0.30106,0.9513 2.20814,5.10463 4.23797,9.22963 7.48942,15.21997 22.82194,29.34779 38.1753,35.17582 3.46906,1.31683 4.50715,2.26265 5.43965,4.9561 1.13029,3.26477 1.09711,3.34797 -1.72785,4.33276 -3.52221,1.22785 -4.04541,1.2021 -8.45056,-0.41594 z m -47.58742,-82.01749 c 0,-12.43127 -0.36365,-21.5625 -0.85872,-21.5625 -1.54894,0 -6.80517,7.45724 -8.61676,12.22496 -2.25916,5.94563 -2.25916,12.72945 0,18.67508 1.81159,4.76772 7.06782,12.22496 8.61676,12.22496 0.49507,0 0.85872,-9.13123 0.85872,-21.5625 z m 61.797,51.38258 c -6.77033,-6.25051 -11.172,-16.23015 -11.172,-25.32955 l 0,-3.55303 32.94806,0 32.94807,0 -0.54824,5.87092 c -0.87781,9.40036 -0.85176,9.37649 -7.0569,6.46853 -4.72376,-2.21374 -6.42916,-2.49073 -15.16599,-2.46331 -7.30507,0.023 -10.81087,0.45703 -13.59375,1.68325 -9.18695,4.04805 -13.59834,9.03208 -14.50309,16.38569 l -0.49691,4.03885 -3.35925,-3.10135 z m 13.71815,-42.87001 c -0.29316,-0.47433 0.63103,-1.77807 2.05375,-2.89718 1.93497,-1.52205 3.38386,-1.90539 5.75021,-1.52139 3.86234,0.62677 7.15393,3.30796 5.76554,4.69635 -0.65453,0.65453 -1.31733,0.60197 -2.08465,-0.16535 -1.36019,-1.36019 -7.90697,-1.50098 -8.71875,-0.1875 -0.72495,1.17299 -2.06508,1.20936 -2.7661,0.0751 z m -45.73774,-9.98012 c -2.81521,-1.52752 -5.40241,-5.76334 -5.40241,-8.84495 0,-4.96888 5.34362,-10.3125 10.3125,-10.3125 4.96888,0 10.3125,5.34362 10.3125,10.3125 0,3.17614 -2.63168,7.35834 -5.59432,8.89038 -3.4199,1.76851 -6.31033,1.75487 -9.62827,-0.0455 z m 93.75,0 c -2.81521,-1.52752 -5.40241,-5.76334 -5.40241,-8.84495 0,-4.96888 5.34362,-10.3125 10.3125,-10.3125 4.96888,0 10.3125,5.34362 10.3125,10.3125 0,3.17614 -2.63167,7.35834 -5.59432,8.89038 -3.4199,1.76851 -6.31033,1.75487 -9.62827,-0.0455 z m -99.66587,-41.7298 c -0.30916,-0.50023 1.47286,-1.82082 3.96005,-2.93463 6.14523,-2.75198 15.08659,-2.75198 21.23182,0 5.48912,2.45815 5.13136,4.45573 -0.4456,2.48806 -2.11395,-0.74584 -6.69059,-1.35608 -10.17031,-1.35608 -3.47972,0 -8.05636,0.61024 -10.17031,1.35608 -2.38728,0.84228 -4.05652,1.01148 -4.40565,0.44657 z m 88.125,-1.875 c -0.30916,-0.50023 1.47286,-1.82082 3.96005,-2.93463 6.14523,-2.75198 15.08659,-2.75198 21.23182,0 5.48912,2.45815 5.13136,4.45573 -0.4456,2.48806 -2.11395,-0.74584 -6.69059,-1.35608 -10.17031,-1.35608 -3.47972,0 -8.05636,0.61024 -10.17031,1.35608 -2.38728,0.84228 -4.05652,1.01148 -4.40565,0.44657 z"
       id="path4150"
       inkscape:connector-curvature="0" />
    <path
       style="fill:#424a52"
       d="m 183.63266,296.68144 c -13.54844,-5.91574 -24.2624,-13.7485 -34.16396,-24.97658 l -4.52195,-5.12778 0.60981,5.83443 c 0.73592,7.04089 4.00537,13.84919 8.57899,17.86489 4.23209,3.71582 3.12547,3.80249 -2.55489,0.2001 -7.76118,-4.922 -11.94877,-13.81736 -11.94877,-25.38185 0,-5.39 -0.54252,-7.44144 -3.81451,-14.42367 -2.09797,-4.47698 -4.93427,-12.23459 -6.30287,-17.23915 l -2.48836,-9.0992 0,-37.03125 0,-37.03125 2.46769,-9.0177 c 7.78147,-28.43592 26.01884,-50.383822 51.74113,-62.268253 3.86322,-1.784915 7.47954,-3.2453 8.03628,-3.2453 0.55673,0 -0.0321,-1.582031 -1.30847,-3.515625 -1.2764,-1.933594 -3.00729,-6.203174 -3.84645,-9.487957 -4.54042,-17.773041 8.82761,-35.092164 29.81243,-38.623881 25.28413,-4.255284 48.11775,16.511149 42.46869,38.623881 -0.83916,3.284783 -2.57005,7.554363 -3.84645,9.487957 -1.27639,1.933594 -1.8652,3.515625 -1.30847,3.515625 2.02793,0 15.22114,6.597525 21.37737,10.690181 8.0905,5.378551 19.69326,16.981312 25.07181,25.071812 5.79285,8.71369 10.41715,19.07769 13.2748,29.75156 2.31867,8.66067 2.42661,10.22401 2.72625,39.48645 l 0.31199,30.46875 -1.97117,-5.00689 c -1.16263,-2.95317 -3.75785,-6.7986 -6.32704,-9.375 l -4.3559,-4.36811 -0.26239,11.95312 c -0.14431,6.57422 -0.14431,17.26573 0,23.7589 l 0.26239,11.80576 2.70543,-2.1302 c 1.48799,-1.1716 3.91377,-4.03554 5.39062,-6.36431 1.47687,-2.32876 2.6852,-3.82663 2.6852,-3.3286 0,2.78927 -4.38791,16.00793 -7.5666,22.79447 -3.13764,6.69896 -3.6834,8.79519 -3.6834,14.14788 0,11.49373 -4.06244,20.0656 -12.002,25.32453 -5.5424,3.67114 -6.76594,3.6013 -2.50166,-0.14278 4.58168,-4.02277 7.84299,-10.82281 8.58172,-17.89337 l 0.61253,-5.8629 -4.61092,5.23577 c -5.99762,6.8104 -13.48368,13.38514 -19.95086,17.52214 -4.97826,3.18455 -16.31597,8.7306 -20.34581,9.95252 l -1.93575,0.58696 1.93575,-5.95492 c 1.81297,-5.57722 2.26281,-6.13835 7.092,-8.84666 13.51596,-7.58003 28.28115,-24.73754 32.15748,-37.36778 0.62972,-2.05182 1.8623,-3.6647 3.1849,-4.16755 l 2.15762,-0.82032 -0.007,-33.07008 c -0.004,-18.34997 -0.44047,-35.74112 -0.98075,-39.07082 -5.81757,-35.8543 -37.63547,-62.89134 -74.01217,-62.89134 -36.3767,0 -68.1946,27.03704 -74.01218,62.89134 -0.53973,3.3264 -0.97682,20.67997 -0.98074,38.93827 -0.007,32.12435 0.0391,32.94961 1.86318,33.42662 1.02866,0.269 2.1166,1.26742 2.41765,2.21872 0.30106,0.9513 2.20814,5.10463 4.23797,9.22963 7.48942,15.21997 22.82194,29.34779 38.1753,35.17582 3.46906,1.31683 4.50715,2.26265 5.43965,4.9561 1.13029,3.26477 1.09711,3.34797 -1.72785,4.33276 -3.97023,1.38403 -4.05623,1.36891 -12.03722,-2.11587 z m -44.03922,-80.55194 -0.0384,-22.73437 -3.67308,4.06161 c -9.61106,10.62763 -9.77569,26.53 -0.38822,37.49716 1.84074,2.15049 3.52487,3.90998 3.7425,3.90998 0.21764,0 0.37839,-10.23047 0.35725,-22.73438 z m 60.83849,50.19806 c -2.39591,-2.47221 -5.22616,-6.23696 -6.28942,-8.36608 -1.72505,-3.45433 -3.85957,-13.0616 -3.87854,-17.45698 -0.007,-1.53149 2.18286,-1.64062 32.91344,-1.64062 l 32.92053,0 -0.64627,5.39062 c -1.1345,9.46313 -1.3322,9.89879 -3.76791,8.30285 -8.0585,-5.28013 -25.21092,-5.69999 -34.76996,-0.85112 -7.16913,3.63659 -10.72066,8.04666 -11.51404,14.29745 l -0.61162,4.81882 -4.35621,-4.49494 z m 15.13746,-41.84715 c 0,-3.17277 5.54767,-4.81571 9.99147,-2.95898 1.72344,0.72011 3.13353,1.97846 3.13353,2.79635 0,1.17971 -0.37479,1.28648 -1.81337,0.51658 -0.99735,-0.53376 -3.13446,-0.97048 -4.74913,-0.97048 -1.61468,0 -3.75178,0.43672 -4.74913,0.97048 -1.39508,0.74663 -1.81337,0.66497 -1.81337,-0.35395 z m -43.75604,-8.78027 c -2.83475,-0.53608 -6.63429,-4.57112 -7.34307,-7.79818 -0.85764,-3.90478 1.80037,-8.87654 5.74675,-10.74923 8.80097,-4.17633 17.06125,5.24757 12.43443,14.18608 -1.60101,3.09299 -6.69838,5.1442 -10.83811,4.36133 z m 93.75,0 c -2.83475,-0.53608 -6.63429,-4.57112 -7.34307,-7.79818 -0.85764,-3.90478 1.80037,-8.87654 5.74675,-10.74923 8.80097,-4.17633 17.06125,5.24757 12.43443,14.18608 -1.60101,3.09299 -6.69838,5.1442 -10.83811,4.36133 z"
       id="path4148"
       inkscape:connector-curvature="0" />
    <path
       style="fill:#443735"
       d="m 184.4394,297.04596 c -12.4802,-5.20808 -26.44885,-15.33035 -34.62668,-25.09194 l -4.08708,-4.87861 -0.29586,3.31993 c -0.51,5.72309 2.55837,13.39047 7.34671,18.3583 2.37777,2.46688 4.05121,4.48524 3.71878,4.48524 -1.74402,0 -9.43678,-6.10221 -11.53222,-9.14782 -3.61957,-5.26084 -4.48908,-8.30573 -5.01762,-17.57093 -0.38608,-6.76802 -1.00024,-9.45774 -3.10392,-13.59375 -3.47863,-6.83932 -7.11135,-17.68867 -8.6324,-25.78125 -0.87525,-4.65667 -1.23347,-16.36392 -1.23347,-40.3125 0,-29.11018 0.23452,-34.83826 1.70597,-41.66602 4.31846,-20.03852 15.5893,-39.18467 30.63778,-52.045433 6.82473,-5.832557 18.86321,-13.219925 25.49197,-15.643043 l 5.33573,-1.950453 -2.12297,-3.410027 c -12.43649,-19.976194 0.86589,-44.29527 26.19103,-47.88175 18.54372,-2.626116 36.51221,7.191571 41.61656,22.738615 2.52374,7.686867 1.15896,18.022269 -3.3201,25.143135 l -2.14492,3.410027 5.33572,1.950453 c 6.62877,2.423118 18.66725,9.810486 25.49198,15.643043 14.72587,12.585043 26.14284,31.722553 30.45832,51.055203 1.22721,5.49774 1.65862,13.57422 1.97804,37.03125 l 0.40849,30 -1.98841,-5.00689 c -1.16268,-2.92769 -3.79727,-6.82083 -6.34429,-9.375 l -4.3559,-4.36811 -0.26239,11.95312 c -0.14431,6.57422 -0.14431,17.26573 0,23.7589 l 0.26239,11.80576 2.70543,-2.1302 c 1.48799,-1.1716 3.95241,-4.05842 5.4765,-6.41513 l 2.77106,-4.28495 -0.65296,3.28125 c -1.07328,5.39341 -4.14772,14.11344 -7.43708,21.09375 -2.53877,5.38748 -3.18506,8.07324 -3.60953,15 -0.56869,9.28049 -1.44447,12.32565 -5.05333,17.57092 -2.09544,3.04562 -9.7882,9.14783 -11.53222,9.14783 -0.33243,0 1.33034,-2.00728 3.69504,-4.46062 4.70266,-4.87892 7.54334,-11.77631 7.54334,-18.31578 l 0,-3.8111 -3.49783,4.15312 c -8.95145,10.62843 -22.22185,20.40747 -35.01553,25.80316 -4.16493,1.75655 -7.76097,3.19372 -7.9912,3.19372 -0.23022,0 0.18889,-1.17473 0.93136,-2.61053 0.74248,-1.43578 1.62738,-4.0893 1.96645,-5.89672 0.50607,-2.69755 1.39612,-3.69934 4.96883,-5.5926 12.76424,-6.76405 24.6684,-19.58157 31.47434,-33.88924 2.34073,-4.92075 4.55735,-8.33871 5.5823,-8.60773 1.6131,-0.42338 1.68136,-2.33001 1.33584,-37.3153 -0.40594,-41.10427 -0.45844,-41.5066 -7.26703,-55.69198 -7.34605,-15.30518 -19.76006,-27.71995 -35.07093,-35.07309 -11.86363,-5.69758 -17.83562,-6.98426 -32.4166,-6.98426 -14.60599,0 -20.55017,1.28515 -32.50726,7.02815 -15.24239,7.32092 -28.41862,20.58893 -35.33216,35.57828 -6.46115,14.00852 -6.51294,14.42094 -6.91478,55.07064 -0.3209,32.46198 -0.19584,36.79688 1.06159,36.79688 0.87323,0 3.04486,3.37431 5.60627,8.71108 8.01038,16.68994 20.08481,28.86627 36.26439,36.57046 6.85235,3.26287 8.17673,4.27061 8.97837,6.83184 0.91452,2.9218 0.8454,3.03286 -2.51367,4.03926 -4.13556,1.23905 -2.86877,1.44743 -10.46024,-1.72056 z m -44.84596,-80.91646 -0.0384,-22.73437 -3.67308,4.06161 c -9.61106,10.62763 -9.77569,26.53 -0.38822,37.49716 1.84074,2.15049 3.52487,3.90998 3.7425,3.90998 0.21764,0 0.37839,-10.23047 0.35725,-22.73438 z"
       id="path4146"
       inkscape:connector-curvature="0" />
    <path
       style="fill:#322726"
       d="m 184.08957,296.69781 c -10.71473,-4.34618 -22.17464,-12.31353 -31.1332,-21.64499 l -7.69948,-8.01995 0,3.62034 c 0,6.10691 2.82786,13.02496 7.40522,18.11609 3.86482,4.29862 3.99814,4.59637 1.46947,3.28204 -4.20552,-2.1859 -9.85412,-8.18432 -11.81809,-12.54999 -1.07925,-2.39904 -1.97673,-7.25747 -2.33792,-12.65625 -0.48328,-7.22355 -1.13137,-9.91501 -3.69012,-15.32497 -8.2599,-17.46383 -10.23961,-32.49201 -9.50301,-72.13804 0.5481,-29.50007 1.1945,-34.43175 6.39784,-48.81188 7.99611,-22.09835 29.29426,-44.227525 50.61885,-52.59394 l 6.47491,-2.540343 -1.59727,-2.42665 c -4.47931,-6.805241 -6.1096,-13.986305 -4.90511,-21.605867 1.09039,-6.897742 3.44163,-11.157379 9.41367,-17.054318 10.7673,-10.631878 27.21771,-13.425458 43.31621,-7.355887 6.27571,2.366111 15.15305,10.427228 17.84812,16.20708 4.44064,9.523409 3.50082,20.672966 -2.51265,29.808992 l -1.59727,2.42665 6.47491,2.540343 c 21.32459,8.366415 42.62274,30.49559 50.61885,52.59394 5.31147,14.67897 5.86534,19.10026 6.34346,50.63742 l 0.44059,29.0625 -2.45424,-5.15625 c -2.29589,-4.82358 -8.35874,-12.1875 -10.03419,-12.1875 -0.41098,0 -0.74723,10.54687 -0.74723,23.4375 0,12.89062 0.36815,23.4375 0.8181,23.4375 1.29303,0 8.27376,-7.94349 9.00475,-10.24668 0.36347,-1.14516 0.83847,-1.90451 1.05554,-1.68742 0.76138,0.76137 -4.45961,17.15703 -7.53195,23.65285 -2.55875,5.40996 -3.20684,8.10142 -3.69012,15.32497 -0.36119,5.39878 -1.25867,10.25721 -2.33792,12.65625 -1.96398,4.36567 -7.61257,10.36409 -11.81809,12.54999 -2.52867,1.31433 -2.39535,1.01658 1.46947,-3.28204 4.54009,-5.04966 7.40522,-12.00289 7.40522,-17.97127 l 0,-3.47554 -9.61525,9.44256 c -10.31768,10.13239 -19.87143,16.51691 -30.87216,20.63105 l -6.26866,2.34441 1.79495,-3.95395 c 0.98721,-2.17466 1.80421,-4.87472 1.81553,-6.00013 0.0118,-1.17483 0.77922,-2.28698 1.80206,-2.61162 3.1955,-1.01421 13.22895,-7.93312 18.08248,-12.4694 6.19824,-5.7931 12.05917,-14.08665 16.37066,-23.16541 2.13316,-4.49184 4.15455,-7.49187 5.23901,-7.77546 1.6992,-0.44435 1.7535,-1.8793 1.44081,-38.07183 -0.31475,-36.42933 -0.39351,-37.81611 -2.50855,-44.17258 -8.63812,-25.96058 -26.00255,-43.17419 -51.68892,-51.23999 -5.99415,-1.88222 -8.94857,-2.19751 -20.59196,-2.19751 -11.64339,0 -14.59781,0.31529 -20.59196,2.19751 -25.68658,8.06586 -43.05396,25.28264 -51.6882,51.23999 -2.11197,6.34927 -2.19351,7.77067 -2.50934,43.74655 -0.31099,35.42373 -0.24489,37.20993 1.39638,37.73085 0.98762,0.31346 2.86378,3.1658 4.39649,6.68403 7.66149,17.58646 19.89819,30.14938 37.51582,38.51596 6.71957,3.19111 8.98081,5.39692 8.98081,8.76068 0,0.56773 -5.10972,2.97589 -5.99927,2.82741 -0.0519,-0.008 -3.50258,-1.39819 -7.66805,-3.0878 z m -44.45768,-80.51784 0,-22.6839 -3.13718,3.04068 c -5.58328,5.41151 -7.64407,10.7568 -7.64407,19.82713 0,6.52374 0.39734,8.73376 2.1912,12.1875 1.82629,3.51617 7.29973,10.3125 8.30521,10.3125 0.15666,0 0.28484,-10.20776 0.28484,-22.68391 z"
       id="path4144"
       inkscape:connector-curvature="0" />
    <path
       style="fill:#241a1a"
       d="m 190.25689,299.14446 c -14.26028,-5.16047 -27.11609,-13.4833 -37.44421,-24.24131 l -7.55579,-7.87028 0,4.18669 c 0,5.30881 2.93178,13.09394 6.2258,16.53214 3.23351,3.37507 2.52579,4.18708 -1.28794,1.47772 -6.58186,-4.67592 -10.56286,-14.5944 -10.56286,-26.3169 0,-3.4048 -0.89877,-6.563 -3.3184,-11.66062 -7.79967,-16.43212 -9.8142,-29.785 -9.78957,-64.88802 0.0173,-24.66409 0.98002,-36.54686 3.79399,-46.82919 7.46375,-27.27282 27.10797,-50.090074 52.52006,-61.003379 l 7.11235,-3.054417 -3.21069,-6.25783 c -2.78941,-5.436743 -3.21068,-7.153934 -3.21068,-13.0874 0,-5.741829 0.46256,-7.769177 2.9043,-12.729042 8.53466,-17.336355 32.16195,-24.507585 51.27603,-15.563028 7.78043,3.640906 12.89613,8.504038 16.37125,15.563028 2.44174,4.959865 2.9043,6.987213 2.9043,12.729042 0,5.933466 -0.42127,7.650657 -3.21068,13.0874 l -3.21069,6.25783 7.11235,3.03848 c 20.28727,8.666979 38.91925,27.179366 47.73192,47.425566 6.92532,15.9102 8.59296,27.93612 8.5089,61.36044 -0.0543,21.56934 -0.14322,22.7274 -1.46045,19.00742 -1.3606,-3.8425 -9.00518,-13.38242 -10.72367,-13.38242 -0.48648,0 -0.85062,10.03334 -0.85062,23.4375 0,13.40416 0.36414,23.4375 0.85062,23.4375 0.46784,0 2.78815,-2.155 5.15625,-4.78889 2.3681,-2.6339 4.30563,-4.36583 4.30563,-3.84876 0,2.22272 -4.15636,14.10971 -7.10746,20.32701 -2.31562,4.87849 -3.20504,8.04809 -3.20504,11.42178 0,13.86294 -4.42002,22.91451 -13.92925,28.52509 -3.13442,1.84935 -3.11292,1.79394 1.13924,-2.93548 4.60194,-5.11847 7.16501,-11.52574 7.16501,-17.91141 l 0,-3.55785 -7.55579,7.87028 c -8.42283,8.77342 -19.50015,16.63912 -29.63259,21.04129 -3.69581,1.60569 -7.13062,2.91944 -7.63293,2.91944 -0.50862,0 -0.19725,-2.31422 0.70273,-5.22296 1.38855,-4.48781 2.19901,-5.56627 5.75792,-7.66194 14.51852,-8.54923 26.80661,-22.15143 32.24008,-35.68786 1.24393,-3.09903 2.97449,-5.7212 4.13071,-6.25892 1.97536,-0.91869 1.98987,-1.17713 1.98987,-35.43015 0,-37.66232 -0.49233,-42.59257 -5.47618,-54.83932 -3.5975,-8.84008 -8.77604,-16.41284 -16.51794,-24.15473 -14.74747,-14.74748 -32.21189,-21.99412 -53.00588,-21.99412 -35.83838,0 -66.36844,24.69537 -73.55747,59.49971 -1.14437,5.54022 -1.44253,14.05177 -1.44253,41.17884 0,32.70993 0.077,34.21952 1.77211,34.75755 1.08596,0.34466 2.56472,2.68185 3.81917,6.03622 5.95233,15.91639 23.17203,33.43769 39.23148,39.91864 4.94501,1.9956 7.62524,4.67392 7.66342,7.65795 0.0102,0.79816 -5.36526,3.55042 -5.98545,3.06457 -0.0519,-0.0407 -0.72729,-0.30301 -1.50073,-0.5829 z m -50.66223,-83.01496 -0.0372,-22.73437 -4.08977,4.44248 c -9.42431,10.23707 -9.58727,26.28777 -0.3732,36.75552 2.0676,2.34891 3.93435,4.27075 4.14835,4.27075 0.21398,0 0.37232,-10.23047 0.35184,-22.73438 z"
       id="path4142"
       inkscape:connector-curvature="0" />
    <path
       style="fill:#160f0f"
       d="m 186.40253,297.59645 c -13.86161,-5.71151 -25.01459,-13.4128 -34.92305,-24.11485 l -6.22259,-6.72097 0.006,4.0985 c 0.007,5.84891 1.46502,10.33987 5.11725,15.76706 3.46802,5.15347 2.03543,5.10166 -2.96508,-0.10724 -4.71726,-4.91384 -6.89899,-10.94091 -7.51017,-20.74699 -0.45346,-7.27546 -1.02991,-9.61248 -3.67991,-14.91903 -4.45105,-8.91312 -7.66128,-20.79302 -8.76559,-32.43818 -1.22441,-12.91162 -1.22441,-49.31512 0,-62.22675 3.1701,-33.42945 21.80511,-60.780915 51.55974,-75.676601 4.9156,-2.460836 9.53911,-4.674799 10.27446,-4.919916 1.08208,-0.360691 0.96439,-0.970088 -0.61722,-3.196012 -3.55492,-5.003139 -5.11611,-10.031974 -5.13165,-16.52977 -0.0125,-5.211966 0.50442,-7.3345 3.04049,-12.486006 13.52821,-27.479689 58.61022,-25.177209 68.93563,3.520759 2.83163,7.870102 1.34822,18.436756 -3.55491,25.322582 -1.66859,2.343314 -1.81614,3.011136 -0.7442,3.368447 0.73536,0.245117 5.35886,2.45908 10.27447,4.919916 29.75463,14.895686 48.38964,42.247151 51.55974,75.676601 1.08961,11.49018 1.15375,55.27608 0.0757,51.73231 -1.55751,-5.12026 -4.39796,-9.20799 -9.7181,-13.98547 l -2.53132,-2.2728 0,24.60972 0,24.60973 2.65162,-2.18068 c 1.45839,-1.19937 3.7787,-3.61971 5.15625,-5.37852 1.37755,-1.75881 2.50463,-2.75247 2.50463,-2.20812 0,2.34948 -4.21327,14.33795 -7.0068,19.93721 -2.53868,5.08847 -3.12893,7.51691 -3.57792,14.72058 -0.61119,9.80608 -2.79292,15.83315 -7.51017,20.74699 -5.00052,5.2089 -6.43311,5.26071 -2.96508,0.10724 3.65223,-5.42719 5.10978,-9.91815 5.11724,-15.76706 l 0.006,-4.0985 -6.28994,6.79372 c -8.25314,8.91415 -16.4469,15.01789 -27.76943,20.68615 -11.41709,5.71559 -12.07184,5.78531 -10.40255,1.10775 0.69004,-1.93359 1.27315,-4.20583 1.29578,-5.0494 0.0236,-0.88184 2.86134,-3.20923 6.67605,-5.47551 12.94982,-7.69334 24.35171,-20.66112 30.79703,-35.02651 1.70054,-3.79019 3.3704,-6.24545 4.24761,-6.24545 2.17864,0 2.14449,-66.05276 -0.0397,-76.68015 -4.79557,-23.33387 -21.20763,-43.54535 -43.28937,-53.31094 -13.58066,-6.00601 -32.84124,-7.66623 -47.67579,-4.10957 -27.8625,6.68022 -49.02365,27.81092 -55.68774,55.60764 -1.66871,6.9604 -1.84949,11.12282 -1.85541,42.72141 -0.007,32.99227 0.0911,35.0352 1.68938,35.45315 0.97652,0.25537 2.38439,2.30603 3.31884,4.83411 6.23452,16.8669 22.1704,33.21858 40.30226,41.35379 3.57105,1.60222 6.24544,3.38827 6.24544,4.17093 0,0.75283 0.2348,1.98065 0.52178,2.7285 0.31078,0.80989 -0.16308,1.55607 -1.17188,1.8453 -0.93151,0.26709 -2.32646,0.736 -3.0999,1.04204 -0.77343,0.30603 -3.77352,-0.41898 -6.66686,-1.61114 z m -46.97616,-92.61134 -0.26323,-11.37876 -3.12961,3.17564 c -5.80923,5.89467 -7.17771,9.6281 -7.17771,19.58189 0,9.95379 1.36848,13.68722 7.17771,19.58189 l 3.12961,3.17564 0.26323,-11.37876 c 0.14478,-6.25832 0.14478,-16.49922 0,-22.75754 z"
       id="path4140"
       inkscape:connector-curvature="0" />
  </g>
</svg>
