<?xml version="1.0" encoding="UTF-8" standalone="no"?>
<!-- Created with Inkscape (http://www.inkscape.org/) -->

<svg
   xmlns:dc="http://purl.org/dc/elements/1.1/"
   xmlns:cc="http://creativecommons.org/ns#"
   xmlns:rdf="http://www.w3.org/1999/02/22-rdf-syntax-ns#"
   xmlns:svg="http://www.w3.org/2000/svg"
   xmlns="http://www.w3.org/2000/svg"
   xmlns:sodipodi="http://sodipodi.sourceforge.net/DTD/sodipodi-0.dtd"
   xmlns:inkscape="http://www.inkscape.org/namespaces/inkscape"
   id="svg4136"
   version="1.1"
   inkscape:version="0.91 r13725"
   width="607.5"
   height="575.625"
   viewBox="0 0 607.5 575.625"
   sodipodi:docname="joy-2.svg">
  <metadata
     id="metadata4142">
    <rdf:RDF>
      <cc:Work
         rdf:about="">
        <dc:format>image/svg+xml</dc:format>
        <dc:type
           rdf:resource="http://purl.org/dc/dcmitype/StillImage" />
        <dc:title></dc:title>
      </cc:Work>
    </rdf:RDF>
  </metadata>
  <defs
     id="defs4140" />
  <sodipodi:namedview
     pagecolor="#ffffff"
     bordercolor="#666666"
     borderopacity="1"
     objecttolerance="10"
     gridtolerance="10"
     guidetolerance="10"
     inkscape:pageopacity="0"
     inkscape:pageshadow="2"
     inkscape:window-width="1089"
     inkscape:window-height="571"
     id="namedview4138"
     showgrid="false"
     inkscape:zoom="0.25151811"
     inkscape:cx="303.75"
     inkscape:cy="287.8125"
     inkscape:window-x="225"
     inkscape:window-y="225"
     inkscape:window-maximized="0"
     inkscape:current-layer="svg4136" />
  <g
     id="g4146"
     transform="translate(-15.903426,3.9758568)"
     inkscape:export-xdpi="200"
     inkscape:export-ydpi="200">
    <path
       style="fill:#fdf6eb"
       d="M 270.76564,570.45878 C 214.91377,563.69518 163.64933,541.51999 121.15211,505.74123 110.0781,496.41792 91.764758,477.71144 83.102713,466.875 49.889188,425.32402 29.239334,375.4825 22.945238,321.67591 c -1.79263,-15.32473 -1.79263,-46.77709 0,-62.10182 C 29.236614,205.79075 49.701699,156.36391 83.064633,114.375 91.220667,104.11023 116.29773,79.033167 126.5625,70.877133 168.55141,37.514199 217.97825,17.049114 271.76159,10.757738 c 15.32473,-1.7926303 46.77709,-1.7926303 62.10182,0 53.78334,6.291376 103.21018,26.756461 145.19909,60.119395 10.26477,8.156034 35.34184,33.233097 43.49787,43.497867 28.11159,35.37983 47.94219,78.0177 56.35679,121.17301 3.75273,19.24631 5.14534,34.15317 5.14534,55.07699 0,57.64426 -15.86537,109.78443 -47.92312,157.49523 -9.94655,14.80323 -18.00862,24.68741 -31.26625,38.3328 -46.25575,47.60861 -104.57375,76.2678 -171.00972,84.03923 -14.49999,1.69616 -48.96593,1.67786 -63.09777,-0.0335 z"
       id="path4164"
       inkscape:connector-curvature="0" />
    <path
       style="fill:#fdcfc1"
       d="M 172.5419,539.92702 C 147.0909,526.66964 124.74287,510.21831 103.98103,489.45647 59.261929,444.73737 32.405827,389.79273 23.291735,324.375 c -1.661849,-11.92816 -1.661849,-55.57184 0,-67.5 6.312588,-45.30953 20.806727,-84.75835 44.222597,-120.36107 11.359928,-17.27223 21.70479,-29.9585 36.466698,-44.720402 44.7191,-44.719099 99.66374,-71.575201 165.08147,-80.689293 11.92816,-1.6618494 55.57184,-1.6618494 67.5,0 54.36615,7.574371 101.25569,27.360229 142.5,60.13035 12.61581,10.023721 33.11669,30.524605 43.14041,43.140415 28.27793,35.59045 48.3386,78.72642 56.60588,121.71825 4.14659,21.56328 4.76531,28.64353 4.76531,54.53175 0,25.88822 -0.61872,32.96847 -4.76531,54.53175 -8.26728,42.99183 -28.32795,86.1278 -56.60588,121.71825 -10.03273,12.62715 -30.53585,33.12736 -43.14041,43.13427 -13.89715,11.03313 -45.78297,31.65797 -43.6784,28.25269 0.87474,-1.41534 -3.42862,-18.70251 -6.59627,-26.49813 -5.91606,-14.55952 -15.11929,-29.08899 -25.34778,-40.01745 l -6.4088,-6.84738 -85.78125,0.02 -85.78125,0.02 -6.41352,6.82742 c -11.55037,12.29577 -22.60828,30.89314 -27.75047,46.67116 -1.71545,5.26358 -4.92201,19.50389 -5.85078,25.98329 -0.28194,1.96689 -0.96663,1.72861 -12.91208,-4.49377 z M 345.9375,436.51554 c 0,-0.19771 -1.05469,-0.56107 -2.34375,-0.80749 -1.28906,-0.24643 -2.34375,-0.0847 -2.34375,0.35945 0,0.44412 1.05469,0.8075 2.34375,0.8075 1.28906,0 2.34375,-0.16176 2.34375,-0.35946 z"
       id="path4162"
       inkscape:connector-curvature="0" />
    <path
       style="fill:#f4c6ba"
       d="M 172.5,539.85447 C 134.48025,519.60173 103.53212,493.31404 78.304505,459.84375 -6.1151642,347.84146 4.8519219,191.0482 104.04382,91.856314 c 109.8405,-109.840516 287.69685,-109.840516 397.53736,0 94.89807,94.898066 109.53818,242.955226 35.08934,354.862436 -23.53464,35.37592 -59.53352,68.9924 -94.27955,88.04016 l -6.20278,3.40036 -1.15421,-5.87651 c -4.53244,-23.07634 -17.08921,-45.9185 -35.18364,-64.00291 -16.09921,-16.09029 -32.14959,-25.28188 -57.26421,-32.79356 -0.69067,-0.20658 -0.55891,-2.24279 0.41892,-6.47353 l 1.42652,-6.17215 4.73733,-1.53058 c 6.77815,-2.18991 21.64915,-10.0662 28.20089,-14.93632 7.60338,-5.65183 18.13888,-16.11417 23.86697,-23.70123 2.602,-3.44643 7.14989,-11.16316 10.10644,-17.14829 l 5.37555,-10.88205 5.15625,-1.63795 c 2.83594,-0.90087 6.63281,-2.50196 8.4375,-3.55797 4.46422,-2.61224 11.87107,-9.75098 14.72339,-14.19045 7.82312,-12.17626 8.22632,-30.2174 0.95555,-42.75577 -3.97539,-6.85551 -13.54191,-15.39604 -19.99291,-17.84871 -2.11104,-0.80261 -2.47766,-0.5819 -3.63515,2.18836 -1.04632,2.50423 -6.81126,9.7302 -13.01961,16.31927 -0.79972,0.84875 -1.0809,-0.1947 -1.13683,-4.21875 -0.13859,-9.97147 -8.08933,-24.3619 -22.18577,-40.15514 -10.03233,-11.23992 -17.50589,-17.80411 -53.08674,-46.62722 l -32.22181,-26.10204 -7.35905,1.14479 c -4.04747,0.62963 -7.94333,1.62255 -8.65745,2.20649 -3.54447,2.89829 -56.88362,81.10342 -56.88362,83.402 0,0.18558 2.42578,-0.50001 5.39062,-1.52355 6.08048,-2.09915 19.43054,-2.4301 28.29079,-0.70133 5.68476,1.10918 13.44681,4.44299 16.82757,7.22746 1.93723,1.59554 2.07222,2.08379 1.03526,3.74424 l -1.19246,1.90943 -3.84777,-2.13095 c -6.87978,-3.81012 -15.0386,-5.40707 -27.75401,-5.43237 -8.3853,-0.0167 -12.84152,0.39467 -15.66583,1.4461 -2.78496,1.03678 -4.07507,1.16045 -4.38175,0.42004 -1.3266,-3.20265 -7.52486,15.26059 -6.99352,20.83215 l 0.36114,3.78692 -3.30064,-1.98904 c -8.46345,-5.10027 -11.34031,-7.59172 -13.78229,-11.93589 l -2.6067,-4.6372 -4.23708,2.42424 c -5.22864,2.99156 -12.55355,9.88 -15.67922,14.74493 -8.19033,12.7478 -8.19033,31.51374 0,44.26154 4.72388,7.35246 14.01492,14.8054 21.39411,17.16161 3.11248,0.99381 3.85811,2.01829 9.12367,12.53556 11.40105,22.77215 27.17402,38.97736 48.86707,50.20624 4.91276,2.54297 10.44147,5.10301 12.28603,5.68898 3.13345,0.99541 3.42059,1.4182 4.37159,6.43674 0.55983,2.95424 1.29315,6.06411 1.62963,6.91081 0.49279,1.2401 -0.63078,1.9375 -5.77785,3.58632 -18.08245,5.79254 -35.59078,16.57512 -49.5212,30.49782 -19.50885,19.49805 -32.25258,44.05274 -36.18077,69.71332 -0.64256,4.1975 -1.62265,7.62565 -2.17797,7.6181 -0.55532,-0.008 -5.86123,-2.59811 -11.79092,-5.7568 z M 299.43547,392.44193 c -2.63082,-1.22499 -6.37052,-3.81449 -8.31047,-5.75443 -3.74194,-3.74194 -7.97558,-11.74813 -7.99084,-15.11141 -0.007,-1.35628 -0.8584,-2.31371 -2.59989,-2.92081 -1.42491,-0.49672 -3.95256,-2.04902 -5.617,-3.44956 -2.63409,-2.21644 -2.88935,-2.80984 -1.96977,-4.57919 0.58106,-1.11803 1.17711,-2.1754 1.32454,-2.34971 0.14744,-0.17431 1.49891,0.59308 3.00328,1.7053 4.45081,3.29063 8.72438,3.72315 36.78718,3.72315 28.0628,0 32.33637,-0.43252 36.78718,-3.72315 1.50437,-1.11222 2.85584,-1.87961 3.00328,-1.7053 0.14743,0.17431 0.74348,1.23168 1.32454,2.34971 0.91958,1.76935 0.66432,2.36275 -1.96977,4.57919 -1.66444,1.40054 -4.19209,2.95284 -5.617,3.44956 -1.74149,0.6071 -2.59373,1.56453 -2.59989,2.92081 -0.0153,3.36328 -4.2489,11.36947 -7.99084,15.11141 -6.08985,6.08985 -11.52654,7.98168 -22.9375,7.98168 -8.39543,0 -10.54751,-0.32769 -14.62703,-2.22725 z m -72.32828,-38.89171 c -6.44683,-2.22713 -8.66969,-4.31898 -8.66969,-8.15873 0,-5.72566 8.72742,-9.76649 21.09375,-9.76649 12.44407,0 21.09375,4.03652 21.09375,9.84375 0,2.28195 -0.67865,3.67898 -2.47268,5.09018 -6.03458,4.74679 -21.6173,6.24824 -31.04513,2.99129 z m 146.25,0 c -6.44683,-2.22713 -8.66969,-4.31898 -8.66969,-8.15873 0,-5.72566 8.72742,-9.76649 21.09375,-9.76649 12.44407,0 21.09375,4.03652 21.09375,9.84375 0,2.28195 -0.67865,3.67898 -2.47268,5.09018 -6.03458,4.74679 -21.6173,6.24824 -31.04513,2.99129 z m -59.8762,-12.23006 c -5.09459,-0.8344 -8.52028,-3.18363 -10.40464,-7.13516 -1.42873,-2.99608 -1.41807,-4.66104 0.15127,-23.62598 0.92858,-11.22152 1.81865,-20.54934 1.97795,-20.72849 0.15929,-0.17914 1.49252,0.38486 2.96274,1.25333 l 2.67311,1.57905 -1.54907,17.96542 c -0.86224,9.9999 -1.21357,18.85873 -0.79238,19.98019 1.01939,2.71426 4.48635,5.01648 7.55442,5.01648 1.9749,0 2.73231,0.63144 3.54139,2.95239 0.56608,1.62383 1.02922,3.10039 1.02922,3.28125 0,0.42569 -2.32886,0.25016 -7.14401,-0.53848 z m -117.07474,-9.12327 c -4.17612,-2.19466 -8.95717,-6.95077 -10.42429,-10.3699 -1.54098,-3.59127 -1.68533,-10.35567 -0.29946,-14.03158 1.55895,-4.13498 9.52247,-11.54541 12.40711,-11.54541 0.20362,0 0.63676,7.48828 0.96254,16.64062 0.32578,9.15235 0.86214,17.58985 1.19192,18.75 0.70141,2.46751 -0.006,2.57004 -3.83782,0.55627 z m 225.98727,-1.59266 c 0.3154,-1.25666 0.8551,-9.38531 1.19935,-18.06367 l 0.62588,-15.77884 4.12769,3.72852 c 2.27023,2.05068 4.69601,5.08606 5.39063,6.74527 1.51336,3.61498 1.64265,10.38526 0.26793,14.03158 -1.21766,3.22974 -6.0591,8.41388 -9.57934,10.25743 -2.54429,1.33244 -2.59211,1.31078 -2.03214,-0.92029 z M 247.76651,313.97499 c -5.82769,-3.7326 -6.70721,-6.42407 -6.6367,-20.3092 0.0347,-6.82868 0.39297,-12.41579 0.7962,-12.41579 0.40323,0 1.34286,-0.23397 2.08806,-0.51993 0.99556,-0.38203 1.51787,0.49909 1.96928,3.32207 0.59837,3.74197 0.66817,3.80433 2.68036,2.39494 3.12683,-2.19012 12.38167,-1.9196 16.2565,0.47518 4.7643,2.94449 6.95479,7.21112 6.95479,13.54649 0,6.33537 -2.19049,10.602 -6.95479,13.54649 -4.29017,2.65148 -12.98298,2.63108 -17.1537,-0.0402 z m 112.5,0 c -5.82769,-3.7326 -6.70721,-6.42407 -6.6367,-20.3092 0.0347,-6.82868 0.39297,-12.41579 0.7962,-12.41579 0.40323,0 1.34286,-0.23397 2.08806,-0.51993 0.99556,-0.38203 1.51787,0.49909 1.96928,3.32207 0.59837,3.74197 0.66817,3.80433 2.68036,2.39494 3.12683,-2.19012 12.38167,-1.9196 16.2565,0.47518 4.7643,2.94449 6.95479,7.21112 6.95479,13.54649 0,6.33537 -2.19049,10.602 -6.95479,13.54649 -4.29017,2.65148 -12.98298,2.63108 -17.1537,-0.0402 z m -16.2158,-43.05952 c -0.743,-1.38832 -0.41915,-2.07575 1.65327,-3.50941 5.65864,-3.91452 10.73717,-5.18966 22.43428,-5.63289 9.74859,-0.36939 12.35494,-0.14517 17.8125,1.5324 3.51615,1.08081 7.77779,2.8204 9.47031,3.86576 2.68129,1.65604 2.9435,2.1507 2.03748,3.84362 -0.71199,1.33037 -1.53446,1.73244 -2.60857,1.27523 -12.68881,-5.40108 -33.01636,-6.05409 -45.13363,-1.44989 -4.5952,1.74604 -4.77018,1.74835 -5.66564,0.0752 z"
       id="path4160"
       inkscape:connector-curvature="0" />
    <path
       style="fill:#efb2b2"
       d="M 174.09607,540.50196 C 118.17529,511.69864 72.58881,463.77479 46.852853,406.73454 c -33.43489,-74.10389 -33.43489,-158.11519 0,-232.21908 13.539959,-30.00947 33.601036,-58.95532 57.247917,-82.602195 70.26701,-70.267013 172.10889,-98.1382664 268.55548,-73.496063 48.53663,12.401157 93.30594,37.934024 128.86798,73.496063 70.26701,70.267015 98.13827,172.108895 73.49607,268.555485 -17.15645,67.14827 -58.66751,125.5616 -116.5828,164.05243 -6.44531,4.2836 -14.14453,9.1371 -17.10938,10.78557 -4.99681,2.77827 -5.39062,2.86122 -5.39062,1.13537 0,-4.84291 -5.29064,-21.42039 -9.91374,-31.06335 -7.32468,-15.27794 -14.36668,-25.33855 -25.68173,-36.69044 -14.92191,-14.97049 -30.64854,-24.69471 -50.14414,-31.00554 l -8.55054,-2.76786 1.44195,-5.97221 c 1.34826,-5.58417 1.65791,-6.03698 4.76573,-6.96887 5.92918,-1.7779 21.8136,-10.07468 28.88756,-15.0886 14.81033,-10.49735 28.40244,-27.10257 36.24407,-44.27869 3.2565,-7.13295 4.0905,-8.25046 6.54459,-8.76929 5.97827,-1.26387 14.44285,-6.14019 19.58559,-11.28293 16.32565,-16.32563 16.34293,-42.51576 0.0388,-58.81988 -4.39124,-4.39124 -14.994,-11.07267 -15.67108,-9.87529 -0.11183,0.19777 -1.17209,2.25802 -2.35611,4.57833 -1.18404,2.32031 -4.45357,6.6642 -7.26563,9.65309 l -5.11284,5.43433 0,-3.22621 c 0,-8.52517 -6.79037,-22.28795 -17.64716,-35.76746 -9.66974,-12.00568 -21.34208,-22.56861 -55.97104,-50.65121 l -34.32792,-27.83847 -7.40468,1.15188 c -4.07257,0.63355 -8.00056,1.62966 -8.72885,2.2136 -3.64628,2.92352 -56.85422,80.76789 -56.85717,83.18326 -3.7e-4,0.30749 2.21416,-0.20608 4.92119,-1.14127 5.67036,-1.9589 18.32827,-2.31017 27.80988,-0.77175 6.0176,0.97638 13.67321,4.10867 17.68299,7.23498 1.8115,1.41237 1.95299,1.90827 0.9375,3.28587 -1.12868,1.53114 -1.40705,1.51865 -4.94599,-0.22185 -9.36115,-4.60392 -27.98995,-6.88704 -38.4375,-4.71085 -3.09375,0.64443 -6.67969,1.20686 -7.96875,1.24988 -1.28906,0.043 -2.65369,0.51419 -3.0325,1.04706 -1.46194,2.05651 -4.78514,13.33653 -5.31633,18.04532 l -0.55742,4.94139 -6.26454,-3.75716 c -4.75462,-2.85159 -7.03081,-4.98222 -9.44376,-8.83982 l -3.17921,-5.08264 -4.77719,2.72836 c -18.6665,10.66088 -26.42243,34.1898 -17.68764,53.65838 4.33148,9.65421 13.62063,18.46775 23.03081,21.8516 4.73353,1.70215 4.79893,1.7814 9.37397,11.35886 11.6688,24.42757 28.56738,41.43796 53.01006,53.3608 5.67187,2.76667 10.74332,5.03419 11.26987,5.03892 0.52656,0.005 1.4327,2.43439 2.01364,5.39923 0.58094,2.96485 1.32757,6.05635 1.65917,6.87 0.47902,1.17537 -0.93388,1.9857 -6.87549,3.94323 -18.50025,6.09518 -34.31486,15.99896 -48.87797,30.60948 -17.87447,17.93267 -29.39723,38.79419 -34.72822,62.87417 -0.97029,4.38281 -1.7733,9.33984 -1.78446,11.01562 -0.0112,1.67579 -0.3764,3.04688 -0.81164,3.04688 -0.43524,0 -5.26716,-2.30537 -10.73758,-5.12304 z M 299.53125,392.4585 c -2.57813,-1.21587 -6.32529,-3.84847 -8.32703,-5.85022 -3.83742,-3.83741 -8.05463,-11.66638 -8.07006,-14.98153 -0.007,-1.38139 -1.1173,-2.46669 -3.73137,-3.64547 -5.13359,-2.31493 -6.95564,-4.52296 -6.20391,-7.51813 l 0.60862,-2.42489 2.54937,1.81197 c 4.83621,3.43736 9.21783,3.88932 37.70563,3.88932 28.4878,0 32.86942,-0.45196 37.70563,-3.88932 l 2.54937,-1.81197 0.60862,2.42489 c 0.75173,2.99517 -1.07032,5.2032 -6.20391,7.51813 -2.61407,1.17878 -3.72494,2.26408 -3.73137,3.64547 -0.0155,3.31515 -4.23264,11.14412 -8.07006,14.98153 -6.23006,6.23007 -11.42175,8.0609 -22.85828,8.0609 -8.39175,0 -10.53518,-0.32608 -14.53125,-2.21068 z m -68.62824,-38.06906 c -7.08206,-1.50828 -12.46551,-5.39543 -12.46551,-9.00077 0,-2.56121 4.31407,-6.35329 9.11681,-8.0137 1.94669,-0.67302 7.33631,-1.22367 11.97694,-1.22367 9.31252,0 14.097,1.253 18.30506,4.79385 4.83779,4.07073 2.90554,8.70564 -5.00768,12.01199 -4.29061,1.79274 -16.49097,2.58973 -21.92562,1.4323 z m 146.25,0 c -7.08206,-1.50828 -12.46551,-5.39543 -12.46551,-9.00077 0,-2.56121 4.31407,-6.35329 9.11681,-8.0137 1.94669,-0.67302 7.33631,-1.22367 11.97694,-1.22367 9.31252,0 14.097,1.253 18.30506,4.79385 4.83779,4.07073 2.90554,8.70564 -5.00768,12.01199 -4.29061,1.79274 -16.49097,2.58973 -21.92562,1.4323 z m -63.55926,-13.07376 c -5.22405,-0.88758 -7.46483,-2.31025 -9.9357,-6.3082 l -2.13453,-3.45374 1.69045,-20.69875 c 0.92974,-11.3843 1.79544,-20.81738 1.92375,-20.96238 0.12833,-0.14502 1.45772,0.43906 2.95422,1.29793 l 2.72089,1.56157 -1.58007,17.82623 c -0.94642,10.67755 -1.25845,18.67212 -0.77809,19.93558 1.05789,2.78246 4.49046,5.11108 7.53414,5.11108 1.9793,0 2.63895,0.62672 3.45365,3.28125 1.12318,3.65967 1.23611,3.61315 -5.84871,2.40943 z M 195.9375,331.77307 c -13.87918,-8.33249 -15.22915,-23.08117 -2.96862,-32.43259 2.22853,-1.69976 4.38114,-3.09048 4.78356,-3.09048 0.40243,0 0.95784,7.69922 1.23425,17.10937 0.2764,9.41016 0.80324,17.84766 1.17073,18.75 0.877,2.15334 -0.21841,2.06604 -4.21992,-0.3363 z m 227.5566,-17.00745 c 0.27787,-9.41015 0.57809,-17.20318 0.66714,-17.31783 0.0891,-0.11465 1.73271,1.08631 3.65255,2.66881 9.56277,7.88244 9.54853,20.95861 -0.0314,28.85522 -1.93713,1.59675 -3.80813,2.90318 -4.15777,2.90318 -0.34964,0 -0.40836,-7.69922 -0.13048,-17.10938 z m -174.85206,-0.38726 c -1.69218,-0.83404 -4.0125,-2.82834 -5.15625,-4.43178 -1.87534,-2.62906 -2.09342,-4.1367 -2.22092,-15.354 -0.12719,-11.19065 0.0312,-12.53103 1.579,-13.35937 2.45882,-1.31591 2.48149,-1.29594 3.12968,2.75763 l 0.58819,3.67833 2.88994,-1.44169 c 4.0574,-2.0241 12.74977,-1.2978 16.50967,1.37948 4.25974,3.03321 6.1973,7.83715 5.73556,14.22059 -0.45285,6.26058 -2.94137,10.33973 -7.67951,12.58812 -4.08268,1.93736 -11.40502,1.91959 -15.37536,-0.0373 z m 112.5,0 c -1.69218,-0.83404 -4.0125,-2.82834 -5.15625,-4.43178 -1.87534,-2.62906 -2.09342,-4.1367 -2.22092,-15.354 -0.12719,-11.19065 0.0312,-12.53103 1.579,-13.35937 2.45882,-1.31591 2.48149,-1.29594 3.12968,2.75763 l 0.58819,3.67833 2.88994,-1.44169 c 4.0574,-2.0241 12.74977,-1.2978 16.50967,1.37948 4.25974,3.03321 6.1973,7.83715 5.73556,14.22059 -0.45285,6.26058 -2.94137,10.33973 -7.67951,12.58812 -4.08268,1.93736 -11.40502,1.91959 -15.37536,-0.0373 z M 344.08257,270.975 c -0.81642,-1.5255 -0.58825,-2.11127 1.30583,-3.35231 5.49715,-3.60188 12.2854,-5.38856 22.17881,-5.83751 11.21124,-0.50876 17.73473,0.55777 25.01091,4.08904 4.92881,2.39204 5.63241,3.42626 4.04147,5.9405 -0.65694,1.0382 -1.15155,1.0971 -2.16312,0.25757 -2.84982,-2.36515 -13.40383,-4.2812 -23.67522,-4.29818 -10.23011,-0.017 -18.27843,1.29051 -23.1672,3.76344 -2.30025,1.16356 -2.63634,1.11002 -3.53148,-0.56255 z"
       id="path4158"
       inkscape:connector-curvature="0" />
    <path
       style="fill:#da9191"
       d="M 172.48793,539.42758 C 159.35107,532.57406 138.56485,518.99587 126.5625,509.42771 116.31703,501.26012 92.20261,477.14962 84.002883,466.875 31.012805,400.47613 10.557351,314.25946 28.213144,231.72961 37.144283,189.98209 57.005277,148.20417 84.002883,114.375 92.190936,104.11501 116.30251,80.003436 126.5625,71.815383 192.96137,18.825305 279.17804,-1.6301496 361.70789,16.025644 c 41.74752,8.931139 83.52544,28.792133 117.35461,55.789739 10.25999,8.188053 34.37156,32.299627 42.55962,42.559617 52.99008,66.39887 73.44553,152.61554 55.78974,235.14539 -8.93114,41.74752 -28.79214,83.52544 -55.78974,117.35461 -8.23916,10.32402 -32.3625,34.43019 -42.55962,42.52934 -12.63438,10.03495 -39.54833,27.78316 -42.13128,27.78316 -0.42946,0 -1.07832,-2.00391 -1.44191,-4.45313 -1.91857,-12.92351 -11.48201,-34.40088 -21.70203,-48.73789 -14.9337,-20.94955 -37.77657,-37.88774 -61.71444,-45.76183 l -10.49801,-3.45321 1.55485,-5.68014 1.55485,-5.68014 8.52414,-3.47451 c 27.19283,-11.08404 51.15095,-34.53765 61.248,-59.95827 2.10596,-5.30204 2.24624,-5.43189 7.42199,-6.87088 10.65361,-2.96196 21.46082,-12.5336 26.14994,-23.16023 8.50864,-19.28259 0.70557,-42.66984 -17.77167,-53.26489 -2.80537,-1.60863 -5.54327,-2.92874 -6.08422,-2.93359 -0.54095,-0.005 -1.48394,1.37504 -2.09555,3.0664 -0.61159,1.69135 -3.79182,6.00283 -7.06715,9.58107 l -5.95515,6.50587 -0.57595,-5.58031 c -1.19688,-11.59671 -12.3564,-29.01688 -29.72766,-46.40529 -5.41475,-5.4201 -24.39969,-21.62016 -42.18875,-36.00016 -17.78906,-14.37999 -33.09708,-26.7939 -34.01781,-27.58646 -1.49082,-1.2833 -2.56202,-1.29354 -9.78668,-0.0936 l -8.11263,1.3474 -25.43019,36.3717 c -22.75646,32.54756 -35.14625,51.83815 -31.34418,48.80208 4.54604,-3.63017 19.29836,-5.07262 31.81649,-3.11093 6.56681,1.02907 17.59305,5.98803 19.15424,8.61447 1.84821,3.10931 -0.60273,3.62035 -5.57354,1.16212 -9.581,-4.73811 -29.20074,-6.56589 -40.0753,-3.73343 -2.92932,0.76299 -5.91664,1.16062 -6.6385,0.88362 -0.73175,-0.2808 -1.61597,0.24609 -1.99845,1.19087 -2.90296,7.17066 -4.5322,12.79316 -5.04718,17.41774 l -0.60252,5.41075 -6.49049,-4.04348 c -5.24251,-3.266 -7.04524,-5.04532 -9.37561,-9.25388 -1.78839,-3.22977 -3.24126,-4.90408 -3.82201,-4.40457 -0.51529,0.44321 -3.5992,2.54102 -6.85313,4.66181 -27.97612,18.23371 -23.34524,60.77504 8.00262,73.51576 5.00116,2.03262 5.32764,2.38129 7.9202,8.45854 10.91961,25.59679 32.40548,46.97541 58.79263,58.49915 l 7.86169,3.43335 1.64775,6.49967 c 0.90627,3.57481 1.58726,6.53905 1.51331,6.58719 -0.074,0.0482 -4.29871,1.50566 -9.38836,3.2389 -10.95177,3.72955 -24.42324,10.96893 -33.85557,18.19352 -24.64894,18.87956 -43.82053,50.11014 -48.36856,78.79255 -0.65409,4.125 -1.43829,8.00708 -1.74269,8.62687 -0.37806,0.76977 -4.26313,-0.80849 -12.2601,-4.98054 z M 300.94219,393.05255 c -2.65751,-0.9377 -6.18911,-3.46197 -9.56108,-6.83394 -4.39059,-4.39059 -5.6491,-6.39334 -7.03594,-11.19674 -1.28493,-4.45048 -2.22277,-6.0553 -3.92074,-6.70915 -3.9217,-1.51015 -7.61193,-4.63525 -7.61193,-6.44623 0,-2.78892 1.46456,-2.98318 5.31865,-0.70546 3.53928,2.09166 4.02321,2.12022 35.93135,2.12022 31.90814,0 32.39207,-0.0286 35.93135,-2.12022 3.85409,-2.27772 5.31865,-2.08346 5.31865,0.70546 0,1.81098 -3.69023,4.93608 -7.61193,6.44623 -1.69797,0.65385 -2.63581,2.25867 -3.92074,6.70915 -1.38715,4.80447 -2.64353,6.80334 -7.03125,11.18653 -6.81519,6.80814 -11.47925,8.50611 -23.08746,8.40508 -5.18578,-0.0451 -10.14944,-0.65429 -12.71893,-1.56093 z m 13.39283,-51.7226 c -3.63034,-0.44122 -5.63955,-1.30961 -7.82872,-3.38363 -4.82998,-4.57589 -4.94056,-5.56175 -3.11802,-27.79755 l 1.66553,-20.32 2.62935,1.3597 c 3.1341,1.6207 3.10921,1.16952 1.20567,21.85831 -0.77883,8.4648 -1.18822,16.10838 -0.90976,16.98574 0.7861,2.47677 3.83202,4.8148 7.15907,5.49526 2.25311,0.46081 3.34266,1.39167 4.25984,3.63945 0.67781,1.66115 0.91479,2.96087 0.52659,2.88827 -0.3882,-0.0726 -2.9035,-0.39909 -5.58955,-0.72555 z m -117.92877,-9.60392 c -1.03125,-0.5662 -3.67802,-2.76045 -5.8817,-4.8761 -7.32375,-7.03118 -7.67483,-16.381 -0.89145,-23.7401 2.12487,-2.30521 5.04543,-4.80254 6.49015,-5.54964 l 2.62675,-1.35834 0,13.95573 c 0,7.67565 0.26828,15.91304 0.59617,18.30532 0.61991,4.52263 0.20098,4.98762 -2.93992,3.26313 z m 227.19447,-16.57595 c 0.19247,-9.10598 0.52458,-16.74095 0.73802,-16.96661 0.21344,-0.22565 2.28771,1.45407 4.60949,3.73273 7.53894,7.39891 7.96617,16.59424 1.11627,24.02551 -7.03684,7.63407 -6.85951,7.93015 -6.46378,-10.79163 z m -175.23665,-1.34427 c -1.73976,-1.17242 -4.15334,-3.5982 -5.36351,-5.39062 -1.89785,-2.81097 -2.13023,-4.03214 -1.69051,-8.88394 0.7383,-8.14616 0.73801,-8.03156 0.0329,-12.87633 -0.59607,-4.09538 -0.47354,-4.50353 1.58363,-5.27515 1.74755,-0.65549 2.28826,-0.50654 2.50056,0.68883 1.06726,6.00914 0.95543,5.8851 3.92248,4.35078 6.8233,-3.52846 15.73705,-0.90283 20.39371,6.0072 4.53808,6.73405 2.15424,16.35927 -5.29489,21.37923 -2.2837,1.53897 -4.51983,2.13169 -8.0422,2.13169 -3.52237,0 -5.7585,-0.59272 -8.04218,-2.13169 z m 112.5,0 c -1.73976,-1.17242 -4.15334,-3.5982 -5.36351,-5.39062 -1.89785,-2.81097 -2.13023,-4.03214 -1.69051,-8.88394 0.7383,-8.14616 0.73801,-8.03156 0.0329,-12.87633 -0.59607,-4.09538 -0.47354,-4.50353 1.58363,-5.27515 1.74755,-0.65549 2.28826,-0.50654 2.50056,0.68883 1.06726,6.00914 0.95543,5.8851 3.92248,4.35078 6.8233,-3.52846 15.73705,-0.90283 20.39371,6.0072 4.53808,6.73405 2.15424,16.35927 -5.29489,21.37923 -2.2837,1.53897 -4.51983,2.13169 -8.0422,2.13169 -3.52237,0 -5.7585,-0.59272 -8.04218,-2.13169 z m -16.26104,-41.70278 c -1.58606,-1.58606 -0.21286,-4.10709 3.17996,-5.83797 12.02007,-6.13218 32.06157,-6.27012 44.79513,-0.3083 4.98212,2.33261 5.34942,2.77573 4.38467,5.28981 -0.46456,1.21063 -1.08064,1.15954 -4.55596,-0.37775 -2.21033,-0.97774 -8.01591,-2.28254 -12.90131,-2.89959 -10.50897,-1.3273 -23.56159,-0.10318 -30.19705,2.83199 -2.2907,1.01329 -4.40815,1.59911 -4.70544,1.30181 z"
       id="path4156"
       inkscape:connector-curvature="0" />
    <path
       style="fill:#e5887e"
       d="m 423.98946,500.42932 c -8.93512,-17.48549 -27.13456,-37.98053 -42.66352,-48.04492 -10.10633,-6.54996 -23.54102,-12.97824 -31.63844,-15.1385 -3.35156,-0.89414 -6.41781,-1.89947 -6.81386,-2.23405 -0.39607,-0.33458 -0.1677,-3.04072 0.50748,-6.01362 l 1.22761,-5.40529 8.61473,-3.55369 c 27.03413,-11.15195 48.01686,-31.18064 60.12714,-57.39331 3.49153,-7.55741 3.84648,-7.97692 7.73259,-9.13906 15.89422,-4.75319 27.29056,-17.71842 30.12637,-34.27377 2.09089,-12.20652 -2.6102,-26.38103 -11.79604,-35.56687 -4.44219,-4.44219 -13.03156,-9.91624 -15.55965,-9.91624 -0.49277,0 -1.36135,1.37109 -1.93017,3.04687 -0.56881,1.67579 -3.74898,6 -7.06703,9.60938 l -6.03283,6.5625 -0.0369,-3.94921 c -0.0705,-7.54219 -5.89018,-19.5895 -15.63103,-32.35782 -9.05573,-11.87029 -25.39525,-26.83389 -58.4617,-53.53876 C 297.94529,173.4441 300.94508,175.1511 289.6875,177.51228 l -5.15625,1.08147 -24.08121,34.21875 c -19.58805,27.83408 -33.57504,49.10846 -33.57504,51.06802 0,0.17288 2.21484,-0.5319 4.92187,-1.5662 9.54433,-3.64667 26.14446,-3.14996 37.47874,1.12145 6.48526,2.444 10.41134,5.59795 9.60009,7.71204 -0.5651,1.47261 -0.97881,1.42348 -4.98037,-0.59154 -9.83686,-4.95345 -31.62761,-6.96515 -41.91386,-3.86945 -3.47662,1.04631 -4.73067,1.10873 -5.25428,0.26152 -0.91662,-1.48312 -1.0647,-1.25353 -4.03487,6.25572 -1.41085,3.56691 -2.83988,9.13334 -3.17563,12.36982 l -0.61044,5.88452 -5.01264,-3.16604 c -6.82593,-4.31135 -8.36477,-5.81906 -11.49355,-11.26111 -1.48223,-2.57813 -2.69892,-4.22423 -2.70377,-3.658 -0.005,0.56621 -1.79198,1.83183 -3.97144,2.8125 -6.09172,2.74097 -14.33503,11.38716 -17.68813,18.55256 -5.82466,12.44702 -5.86053,24.34678 -0.10986,36.44793 4.79195,10.0837 11.65671,16.50917 22.22812,20.80571 5.18273,2.10642 5.3895,2.33267 8.34447,9.13011 11.96295,27.51893 33.63433,48.01822 63.60993,60.16962 2.68552,1.08864 3.51562,1.95466 3.51562,3.66773 0,1.23343 0.5755,4.15484 1.2789,6.49205 l 1.27889,4.24944 -5.73201,1.58536 c -15.18134,4.19882 -34.61722,15.87955 -48.0579,28.88218 -10.17128,9.83979 -16.81557,18.31039 -23.35064,29.76906 -2.49959,4.38281 -4.69321,8.16703 -4.87472,8.40937 -0.77644,1.03669 -9.56306,-4.55534 -14.55517,-9.26328 -6.15472,-5.80437 -10.13293,-12.21444 -12.3463,-19.89349 -1.48964,-5.16815 -1.65326,-5.34316 -7.81565,-8.35978 -8.42344,-4.12346 -18.52168,-14.18912 -22.52801,-22.45532 -4.54345,-9.37442 -6.104,-16.85801 -5.57164,-26.71875 0.43677,-8.09032 1.12088,-10.26985 16.62578,-52.96875 8.89364,-24.49219 16.51761,-44.96331 16.94216,-45.49137 0.42455,-0.52807 0.93853,-23.09838 1.14217,-50.15625 0.3478,-46.2117 0.49212,-49.72336 2.37892,-57.88715 13.74212,-59.45901 56.00792,-101.56556 115.25537,-114.821099 7.88826,-1.764862 11.98996,-2.046834 29.7736,-2.046834 17.78364,0 21.88534,0.281972 29.7736,2.046834 59.24623,13.255259 101.54542,55.396599 115.25123,114.821099 1.8673,8.09612 2.03031,11.81655 2.38145,54.35273 l 0.37692,45.6617 17.39517,47.61955 17.39516,47.61954 0.46885,9.94607 c 0.40264,8.54177 0.16347,10.97468 -1.69393,17.23135 -4.08021,13.74426 -13.63713,25.11514 -26.24152,31.22233 l -7.17244,3.47525 -1.15656,4.97864 c -3.48227,14.99014 -18.70879,30.53814 -31.93418,32.60842 -3.23151,0.50585 -3.32737,0.42339 -6.32304,-5.43899 z M 302.33651,393.00285 c -8.87816,-3.07007 -16.23731,-10.93223 -18.44706,-19.70798 -0.76371,-3.03293 -1.6451,-4.29951 -3.47212,-4.98946 -2.37164,-0.89563 -7.6196,-5.30076 -7.59048,-6.37143 0.007,-0.29025 0.34139,-1.04244 0.74111,-1.67153 0.54381,-0.85589 1.87809,-0.5609 5.30077,1.17188 l 4.57404,2.31567 30.61973,0 30.61973,0 4.57404,-2.31567 c 3.42268,-1.73278 4.75696,-2.02777 5.30077,-1.17188 0.39972,0.62909 0.73321,1.38128 0.74111,1.67153 0.0293,1.07961 -5.22829,5.47937 -7.63318,6.38765 -1.74759,0.66004 -2.68716,1.86728 -3.1474,4.04402 -1.93216,9.13824 -10.36317,18.20299 -19.43647,20.89747 -6.36139,1.88913 -16.87683,1.7688 -22.74459,-0.26027 z m 6.05594,-53.86541 c -1.72415,-1.16191 -3.93396,-3.48087 -4.91069,-5.15325 -1.73958,-2.97858 -1.74047,-3.44619 -0.0435,-22.88984 0.9528,-10.91703 2.151,-19.97441 2.66267,-20.12751 0.51167,-0.1531 1.70447,0.30744 2.65066,1.02342 1.66036,1.25639 1.66545,1.92191 0.14596,19.08344 -1.27858,14.44062 -1.35286,18.19744 -0.39534,19.9946 1.65258,3.10173 3.72752,4.49218 6.75536,4.52689 1.91522,0.0219 2.84248,0.66409 3.51562,2.43459 1.26599,3.32981 1.37374,3.22022 -3.16581,3.22022 -2.68061,0 -5.15537,-0.72462 -7.21494,-2.11256 z m -112.02901,-7.82579 c -6.44785,-3.32956 -11.63477,-10.81047 -11.63477,-16.7804 0,-4.39933 3.0775,-10.09475 7.50023,-13.88045 2.22535,-1.90481 4.56947,-3.4633 5.20914,-3.4633 0.8731,0 1.24211,4.38223 1.48018,17.57812 0.17444,9.66797 0.29415,17.66771 0.26603,17.77719 -0.0281,0.10948 -1.29748,-0.44454 -2.82081,-1.23116 z m 227.17742,-13.3667 c 0.14279,-7.54941 0.35373,-15.18099 0.46875,-16.95908 l 0.20914,-3.23288 3.66279,3.22484 c 4.01219,3.53246 7.06572,9.27529 7.09787,13.34916 0.0418,5.29647 -3.7466,11.63968 -9.35441,15.66274 l -2.34375,1.68142 0.25961,-13.7262 z m -173.74359,-3.27418 c -6.32815,-2.87136 -9.83647,-10.10225 -8.39433,-17.30128 0.38157,-1.90479 0.58996,-4.72887 0.46308,-6.27574 -0.6919,-8.43517 -0.53342,-9.36454 1.6496,-9.67458 1.58053,-0.22447 2.10938,0.16764 2.10938,1.56395 0,4.23752 0.77903,4.79991 4.49699,3.24646 4.34376,-1.81494 11.66423,-1.1911 14.96804,1.27556 4.89435,3.65416 6.31622,6.57245 6.31622,12.96361 0,6.40159 -1.42081,9.30866 -6.34718,12.98672 -3.14254,2.34625 -11.33208,2.99839 -15.2618,1.2153 z m 112.5,0 c -6.32814,-2.87136 -9.83647,-10.10225 -8.39433,-17.30128 0.38157,-1.90479 0.58996,-4.72887 0.46308,-6.27574 -0.6919,-8.43517 -0.53342,-9.36454 1.6496,-9.67458 1.58053,-0.22447 2.10938,0.16764 2.10938,1.56395 0,4.23752 0.77903,4.79991 4.49699,3.24646 4.34376,-1.81494 11.66423,-1.1911 14.96804,1.27556 4.89435,3.65416 6.31622,6.57245 6.31622,12.96361 0,6.40159 -1.42081,9.30866 -6.34718,12.98672 -3.14254,2.34625 -11.33208,2.99839 -15.2618,1.2153 z m -17.59024,-43.40124 c -1.58555,-1.58554 -0.2639,-3.05784 4.74609,-5.28709 12.97765,-5.77456 31.67228,-5.69475 43.19638,0.1844 4.29498,2.19114 5.01092,2.99419 4.05226,4.54533 -0.49456,0.80021 -2.29149,0.55547 -6.73501,-0.91731 -4.98004,-1.6506 -8.40042,-2.0203 -19.1855,-2.07366 -12.39658,-0.0613 -17.40338,0.70924 -24.43359,3.76054 -0.54786,0.23778 -1.28614,0.14228 -1.64063,-0.21221 z"
       id="path4154"
       inkscape:connector-curvature="0" />
    <path
       style="fill:#996f6e"
       d="m 423.98946,500.42932 c -8.93512,-17.48549 -27.13456,-37.98053 -42.66352,-48.04492 -10.10633,-6.54996 -23.54102,-12.97824 -31.63844,-15.1385 -3.35156,-0.89414 -6.41781,-1.89947 -6.81386,-2.23405 -0.39607,-0.33458 -0.1677,-3.04072 0.50748,-6.01362 l 1.22761,-5.40529 8.61473,-3.55369 c 27.03413,-11.15195 48.01686,-31.18064 60.12714,-57.39331 3.49153,-7.55741 3.84648,-7.97692 7.73259,-9.13906 15.89422,-4.75319 27.29056,-17.71842 30.12637,-34.27377 2.09089,-12.20652 -2.6102,-26.38103 -11.79604,-35.56687 -4.44219,-4.44219 -13.03156,-9.91624 -15.55965,-9.91624 -0.49277,0 -1.36135,1.37109 -1.93017,3.04687 -0.56881,1.67579 -3.74898,6 -7.06703,9.60938 l -6.03283,6.5625 -0.0369,-3.94921 c -0.0705,-7.54219 -5.89018,-19.5895 -15.63103,-32.35782 -9.05573,-11.87029 -25.39525,-26.83389 -58.4617,-53.53876 C 297.94529,173.4441 300.94508,175.1511 289.6875,177.51228 l -5.15625,1.08147 -24.08121,34.21875 c -19.58805,27.83408 -33.57504,49.10846 -33.57504,51.06802 0,0.17288 2.21484,-0.5319 4.92187,-1.5662 9.54433,-3.64667 26.14446,-3.14996 37.47874,1.12145 6.48526,2.444 10.41134,5.59795 9.60009,7.71204 -0.5651,1.47261 -0.97881,1.42348 -4.98037,-0.59154 -9.83686,-4.95345 -31.62761,-6.96515 -41.91386,-3.86945 -3.47662,1.04631 -4.73067,1.10873 -5.25428,0.26152 -0.91662,-1.48312 -1.0647,-1.25353 -4.03487,6.25572 -1.41085,3.56691 -2.83988,9.13334 -3.17563,12.36982 l -0.61044,5.88452 -5.01264,-3.16604 c -6.82593,-4.31135 -8.36477,-5.81906 -11.49355,-11.26111 -1.48223,-2.57813 -2.69892,-4.22423 -2.70377,-3.658 -0.005,0.56621 -1.79198,1.83183 -3.97144,2.8125 -6.09172,2.74097 -14.33503,11.38716 -17.68813,18.55256 -5.82466,12.44702 -5.86053,24.34678 -0.10986,36.44793 4.79195,10.0837 11.65671,16.50917 22.22812,20.80571 5.18273,2.10642 5.3895,2.33267 8.34447,9.13011 11.96295,27.51893 33.63433,48.01822 63.60993,60.16962 2.68552,1.08864 3.51562,1.95466 3.51562,3.66773 0,1.23343 0.5755,4.15484 1.2789,6.49205 l 1.27889,4.24944 -5.73201,1.58536 c -15.18134,4.19882 -34.61722,15.87955 -48.0579,28.88218 -10.17128,9.83979 -16.81557,18.31039 -23.35064,29.76906 -2.49959,4.38281 -4.69321,8.16703 -4.87472,8.40937 -0.77644,1.03669 -9.56306,-4.55534 -14.55517,-9.26328 -6.15472,-5.80437 -10.13293,-12.21444 -12.3463,-19.89349 -1.48964,-5.16815 -1.65326,-5.34316 -7.81565,-8.35978 -8.42344,-4.12346 -18.52168,-14.18912 -22.52801,-22.45532 -4.54345,-9.37442 -6.104,-16.85801 -5.57164,-26.71875 0.43677,-8.09032 1.12088,-10.26985 16.62578,-52.96875 8.89364,-24.49219 16.51761,-44.96331 16.94216,-45.49137 0.42455,-0.52807 0.93853,-23.09838 1.14217,-50.15625 0.3478,-46.2117 0.49212,-49.72336 2.37892,-57.88715 13.74212,-59.45901 56.00792,-101.56556 115.25537,-114.821099 7.88826,-1.764862 11.98996,-2.046834 29.7736,-2.046834 17.78364,0 21.88534,0.281972 29.7736,2.046834 59.24623,13.255259 101.54542,55.396599 115.25123,114.821099 1.8673,8.09612 2.03031,11.81655 2.38145,54.35273 l 0.37692,45.6617 17.39517,47.61955 17.39516,47.61954 0.46885,9.94607 c 0.40264,8.54177 0.16347,10.97468 -1.69393,17.23135 -4.08021,13.74426 -13.63713,25.11514 -26.24152,31.22233 l -7.17244,3.47525 -1.15656,4.97864 c -3.48227,14.99014 -18.70879,30.53814 -31.93418,32.60842 -3.23151,0.50585 -3.32737,0.42339 -6.32304,-5.43899 z M 335.10937,384.43805 c -0.48984,-0.48094 -4.26562,-2.0287 -8.39062,-3.43946 -6.33844,-2.16775 -9.09715,-2.57144 -17.8125,-2.60653 -7.28167,-0.0293 -11.92642,0.44679 -15.8039,1.61995 -3.02026,0.9138 -5.60332,1.53102 -5.74014,1.3716 -0.98972,-1.15326 -3.19062,-6.45673 -3.74239,-9.01796 -0.46751,-2.17013 -1.41751,-3.38598 -3.15979,-4.04402 -2.40489,-0.90828 -7.66254,-5.30804 -7.63318,-6.38765 0.007,-0.29025 0.34139,-1.04244 0.74111,-1.67153 0.54381,-0.85589 1.87809,-0.5609 5.30077,1.17188 l 4.57404,2.31567 30.61973,0 30.61973,0 4.57404,-2.31567 c 3.42268,-1.73278 4.75696,-2.02777 5.30077,-1.17188 0.39972,0.62909 0.73321,1.38128 0.74111,1.67153 0.0295,1.08717 -5.23633,5.4824 -7.6696,6.4015 -1.83782,0.69418 -2.69118,1.8263 -3.12676,4.14805 -0.76919,4.10018 -5.73746,12.82897 -7.30201,12.82897 -0.65987,0 -1.60056,-0.39351 -2.09041,-0.87445 z m -26.71692,-45.30061 c -1.72415,-1.16191 -3.93396,-3.48087 -4.91069,-5.15325 -1.73958,-2.97858 -1.74047,-3.44619 -0.0435,-22.88984 0.9528,-10.91703 2.151,-19.97441 2.66267,-20.12751 0.51167,-0.1531 1.70447,0.30744 2.65066,1.02342 1.66036,1.25639 1.66545,1.92191 0.14596,19.08344 -1.27858,14.44062 -1.35286,18.19744 -0.39534,19.9946 1.65258,3.10173 3.72752,4.49218 6.75536,4.52689 1.91522,0.0219 2.84248,0.66409 3.51562,2.43459 1.26599,3.32981 1.37374,3.22022 -3.16581,3.22022 -2.68061,0 -5.15537,-0.72462 -7.21494,-2.11256 z m -58.59518,-24.46667 c -6.32815,-2.87136 -9.83647,-10.10225 -8.39433,-17.30128 0.38157,-1.90479 0.58996,-4.72887 0.46308,-6.27574 -0.6919,-8.43517 -0.53342,-9.36454 1.6496,-9.67458 1.58053,-0.22447 2.10938,0.16764 2.10938,1.56395 0,4.23752 0.77903,4.79991 4.49699,3.24646 4.34376,-1.81494 11.66423,-1.1911 14.96804,1.27556 4.89435,3.65416 6.31622,6.57245 6.31622,12.96361 0,6.40159 -1.42081,9.30866 -6.34718,12.98672 -3.14254,2.34625 -11.33208,2.99839 -15.2618,1.2153 z m 112.5,0 c -6.32814,-2.87136 -9.83647,-10.10225 -8.39433,-17.30128 0.38157,-1.90479 0.58996,-4.72887 0.46308,-6.27574 -0.6919,-8.43517 -0.53342,-9.36454 1.6496,-9.67458 1.58053,-0.22447 2.10938,0.16764 2.10938,1.56395 0,4.23752 0.77903,4.79991 4.49699,3.24646 4.34376,-1.81494 11.66423,-1.1911 14.96804,1.27556 4.89435,3.65416 6.31622,6.57245 6.31622,12.96361 0,6.40159 -1.42081,9.30866 -6.34718,12.98672 -3.14254,2.34625 -11.33208,2.99839 -15.2618,1.2153 z m -17.59024,-43.40124 c -1.58555,-1.58554 -0.2639,-3.05784 4.74609,-5.28709 12.97765,-5.77456 31.67228,-5.69475 43.19638,0.1844 4.29498,2.19114 5.01092,2.99419 4.05226,4.54533 -0.49456,0.80021 -2.29149,0.55547 -6.73501,-0.91731 -4.98004,-1.6506 -8.40042,-2.0203 -19.1855,-2.07366 -12.39658,-0.0613 -17.40338,0.70924 -24.43359,3.76054 -0.54786,0.23778 -1.28614,0.14228 -1.64063,-0.21221 z"
       id="path4152"
       inkscape:connector-curvature="0" />
    <path
       style="fill:#4b4f57"
       d="m 424.64984,501.42193 c -3.31471,-7.16351 -11.84977,-19.90261 -18.43523,-27.51568 -5.81725,-6.725 -16.97617,-16.55272 -24.87287,-21.90567 -7.1585,-4.85255 -22.10251,-11.93843 -30.97669,-14.68796 -6.51388,-2.01824 -8.13497,-2.86677 -7.7789,-4.07171 0.2474,-0.83718 0.71999,-2.78778 1.05022,-4.33466 0.33022,-1.54688 0.78012,-3.4864 0.99979,-4.31005 0.21965,-0.82365 2.07412,-1.99933 4.12103,-2.61259 25.5442,-7.65324 53.70033,-33.51292 65.1446,-59.83134 l 3.10481,-7.14015 5.20198,-1.60952 c 2.86109,-0.88524 7.021,-2.67553 9.24422,-3.97843 5.01361,-2.93817 13.02949,-11.30713 15.52776,-16.2117 6.75633,-13.26402 6.37357,-29.28115 -1.00042,-41.86392 -3.29777,-5.6272 -11.89511,-13.49002 -17.68161,-16.17094 l -4.86771,-2.25524 -1.94979,4.06212 c -1.89636,3.95082 -13.53579,17.4607 -12.49609,14.5042 0.85804,-2.43995 -1.01624,-10.28257 -3.96162,-16.57672 -8.81192,-18.83063 -24.24435,-34.69705 -69.32684,-71.27643 -38.30533,-31.08048 -34.57389,-28.98849 -46.69414,-26.17866 l -4.90392,1.13687 -22.67696,32.34375 c -12.47232,17.78906 -24.78834,35.71875 -27.36894,39.84375 -9.08931,14.52898 -16.59405,33.18618 -15.31553,38.07525 0.6552,2.50552 -0.0744,2.26903 -6.83693,-2.21588 -4.73957,-3.14329 -6.66031,-5.17177 -9.09899,-9.60937 -1.70017,-3.09375 -3.09625,-5.13793 -3.1024,-4.54262 -0.007,0.59531 -2.22601,2.33586 -4.93305,3.86788 -5.70823,3.23053 -13.72984,11.37289 -16.43368,16.68102 -6.75633,13.26402 -6.37357,29.28115 1.00042,41.86392 3.47653,5.93224 12.07009,13.61017 18.24329,16.29948 2.9662,1.29221 5.94679,2.64047 6.62351,2.99614 0.67673,0.35568 2.64193,3.89763 4.36714,7.87102 10.51099,24.2083 35.30389,48.40544 58.97151,57.55443 l 7.03955,2.72123 1.46892,6.47678 c 0.8079,3.56222 1.36003,6.56358 1.22695,6.66969 -0.13309,0.1061 -3.19511,1.14531 -6.80448,2.30937 -7.64151,2.46444 -22.92083,9.86856 -29.31049,14.2034 -8.19963,5.56275 -18.8285,14.90027 -24.71205,21.70966 -6.51291,7.53779 -15.34409,20.58007 -18.09052,26.7169 -2.03071,4.53757 -2.04898,4.53742 -9.78674,-0.0845 -9.01929,-5.3873 -18.01044,-17.84915 -19.47182,-26.98817 -0.51119,-3.19682 -1.08255,-3.72438 -7.63617,-7.05082 -14.19537,-7.2052 -23.89064,-20.36603 -27.13511,-36.83446 -2.491,-12.64402 -1.63391,-16.10316 16.0519,-64.78417 8.52335,-23.46093 15.933,-43.3888 16.46588,-44.28415 0.62867,-1.05631 0.97529,-16.85696 0.98717,-45 0.0194,-45.96529 0.62592,-55.1869 4.67306,-71.04901 4.13288,-16.19812 11.93695,-33.21078 21.9126,-47.76886 6.38486,-9.31781 22.57422,-25.99951 32.35913,-33.34319 52.15026,-39.139417 125.23606,-39.139417 177.38632,0 9.78491,7.34368 25.97426,24.02538 32.35913,33.34319 9.97565,14.55808 17.77972,31.57074 21.9126,47.76886 3.98644,15.62424 4.65366,25.28932 4.67306,67.69229 l 0.0183,40.01538 16.86593,46.19393 c 9.27626,25.40667 17.35227,48.66594 17.94667,51.68726 0.62122,3.15755 0.842,8.58928 0.51926,12.7745 -1.42183,18.43786 -12.38989,34.44455 -29.22812,42.65523 -6.55522,3.19646 -6.80288,3.44058 -7.30754,7.20308 -0.83441,6.22101 -6.10425,15.80135 -11.8553,21.55239 -5.194,5.19399 -14.56934,10.61935 -20.25981,11.72401 -2.69705,0.52356 -2.97404,0.28557 -5.15625,-4.43048 z M 332.60391,382.92502 c -9.54056,-4.97733 -25.92448,-6.54869 -38.17473,-3.66126 -3.32176,0.78295 -6.54883,1.22812 -7.17126,0.98928 -1.07373,-0.41202 -2.3978,-3.78502 -3.54763,-9.03739 -0.3552,-1.62253 -1.52219,-2.74028 -3.67304,-3.51803 -4.10081,-1.48288 -7.40238,-4.95581 -6.34213,-6.67132 0.65582,-1.06115 1.52747,-0.93453 4.94034,0.71761 3.98047,1.92691 5.37871,2.00609 35.42704,2.00609 30.04833,0 31.44657,-0.0792 35.42704,-2.00609 3.41287,-1.65214 4.28452,-1.77876 4.94034,-0.71761 1.06025,1.71551 -2.24132,5.18844 -6.34213,6.67133 -2.15085,0.77775 -3.31784,1.89549 -3.67304,3.51802 -1.21659,5.55734 -2.39962,8.27373 -4.81698,11.06048 l -2.56648,2.95866 -4.42734,-2.30977 z M 309.36037,339.5452 c -2.07081,-1.08072 -4.02968,-3.22566 -5.35108,-5.85937 l -2.08445,-4.15458 1.70513,-18.99568 c 0.93783,-10.44762 1.92154,-19.21208 2.18603,-19.47656 0.26448,-0.26449 1.37247,0.26793 2.46219,1.18318 1.9676,1.65255 1.97196,1.75808 0.62941,15.25781 -1.9403,19.51041 -1.84932,22.84012 0.70177,25.68632 1.16016,1.29436 3.54346,2.70479 5.29623,3.13429 1.99287,0.48833 3.47434,1.55805 3.95417,2.85515 0.70555,1.90728 0.48558,2.07424 -2.73274,2.07424 -1.92501,0 -4.97001,-0.76716 -6.76665,-1.7048 z m -60.0211,-25.71708 c -5.65888,-2.8536 -8.79198,-8.7048 -7.90644,-14.76562 0.33902,-2.32031 0.68267,-7.13329 0.76366,-10.69551 0.16284,-7.16192 1.85962,-9.34672 3.21042,-4.1338 0.90467,3.49121 1.04183,3.52906 6.45578,1.78129 7.29251,-2.35423 15.11855,0.95202 18.17123,7.67676 2.36693,5.21413 2.29833,8.75473 -0.2683,13.84449 -2.35421,4.66855 -8.29028,8.40177 -13.35937,8.40177 -1.58617,0 -4.76632,-0.94922 -7.06698,-2.10938 z m 112.5,0 c -5.65888,-2.8536 -8.79198,-8.7048 -7.90644,-14.76562 0.33902,-2.32031 0.68267,-7.13329 0.76366,-10.69551 0.16284,-7.16192 1.85962,-9.34672 3.21042,-4.1338 0.90467,3.49121 1.04183,3.52906 6.45578,1.78129 7.29251,-2.35423 15.11855,0.95202 18.17123,7.67676 2.36693,5.21413 2.29833,8.75473 -0.2683,13.84449 -2.35421,4.66855 -8.29028,8.40177 -13.35937,8.40177 -1.58617,0 -4.76632,-0.94922 -7.06698,-2.10938 z m -88.29197,-43.8757 c -4.66718,-2.46453 -13.67928,-4.47414 -23.30183,-5.19611 -7.06974,-0.53043 -13.03732,0.041 -20.81548,1.99319 -1.95134,0.48976 -2.55499,0.30093 -2.55499,-0.79926 0,-2.09328 8.87843,-5.12501 17.0179,-5.81112 4.46446,-0.37632 9.6009,-0.0914 14.59707,0.80965 10.52826,1.8988 21.98116,7.45669 20.45483,9.92636 -0.81807,1.32365 -1.29921,1.24141 -5.3975,-0.92271 z m 71.09789,0.47521 c -0.56851,-1.48152 2.06394,-3.27373 8.32356,-5.66682 3.77821,-1.44443 7.14258,-1.79206 17.34375,-1.79206 13.30502,0 17.70138,0.82683 23.63628,4.44529 2.44528,1.49087 3.24885,2.4958 2.70253,3.37976 -0.64439,1.04265 -1.24222,1.0177 -3.492,-0.14571 -7.97783,-4.12549 -33.63105,-4.66627 -43.18006,-0.91024 -3.81268,1.49969 -4.96603,1.64883 -5.33406,0.68978 z"
       id="path4150"
       inkscape:connector-curvature="0" />
    <path
       style="fill:#2e2626"
       d="m 424.32164,500.40647 c -13.49349,-28.2694 -42.52816,-53.12314 -73.87803,-63.23978 -4.28305,-1.38213 -7.87555,-2.55842 -7.98334,-2.61394 -0.1078,-0.0555 0.52501,-2.52469 1.40625,-5.48702 l 1.60223,-5.38605 7.59927,-3.06301 c 20.6849,-8.33738 38.61191,-22.56909 51.08387,-40.55394 1.75219,-2.52669 5.5099,-9.18876 8.35048,-14.8046 4.87241,-9.63278 5.37661,-10.27407 8.90929,-11.33183 11.79478,-3.5316 21.22524,-11.65779 26.60734,-22.92744 3.28381,-6.87601 3.38725,-7.42186 3.38725,-17.87386 0,-10.452 -0.10344,-10.99785 -3.38725,-17.87386 -4.0943,-8.57311 -10.876,-15.70487 -18.68016,-19.64439 -3.04446,-1.53684 -5.72562,-2.79425 -5.95815,-2.79425 -0.23253,0 -0.87877,1.38168 -1.4361,3.0704 -0.55733,1.68872 -3.46798,5.78095 -6.46811,9.09384 l -5.45478,6.02345 -1.10734,-5.51382 C 406.43588,273.14512 395.60608,256.82227 378.73531,240 c -5.42967,-5.41406 -25.18418,-22.22514 -43.89892,-37.35797 -38.13604,-30.83698 -32.85142,-27.91407 -45.84272,-25.35547 l -4.91258,0.96751 -23.75383,33.91984 c -13.06461,18.65591 -25.98729,37.63591 -28.71709,42.17778 -7.51583,12.50494 -13.13235,26.89361 -13.16154,33.71793 l -0.0112,2.60086 -5.83182,-3.7079 c -4.4935,-2.85698 -6.64493,-5.05263 -9.375,-9.56768 -1.94873,-3.22288 -3.54315,-5.36854 -3.54315,-4.76814 0,0.60041 -2.08306,2.14721 -4.62901,3.43736 -6.95354,3.52362 -13.83299,10.95375 -17.76499,19.18702 -3.28381,6.87601 -3.38725,7.42186 -3.38725,17.87386 0,10.46592 0.0998,10.99017 3.41122,17.92433 4.53886,9.50435 11.49507,16.37583 20.8305,20.57678 l 6.94468,3.1251 3.41571,7.58409 c 11.61137,25.78135 31.98829,45.76751 58.34329,57.22449 l 7.27886,3.16424 1.71574,6.26325 c 0.94365,3.44478 1.59632,6.31492 1.45037,6.37809 -0.14595,0.0632 -3.2185,1.10268 -6.82787,2.31002 -29.83729,9.9806 -56.9629,33.16746 -71.72355,61.30898 -1.28466,2.44922 -2.75833,4.44917 -3.27484,4.44434 -2.12337,-0.0199 -10.72826,-5.74886 -14.72715,-9.80504 -4.90644,-4.97674 -9.46157,-12.98676 -11.10842,-19.53374 -1.0811,-4.29787 -1.42516,-4.65098 -7.52434,-7.72248 -8.72972,-4.39622 -17.59858,-12.88408 -21.75281,-20.81833 -5.29384,-10.11082 -6.55854,-15.78471 -6.08604,-27.30419 l 0.40868,-9.96368 16.28913,-44.0625 16.28913,-44.0625 0.59546,-47.34375 c 0.61563,-48.94735 0.92774,-53.13278 5.19493,-69.66364 3.87507,-15.01174 12.61112,-33.56692 22.25257,-47.26392 7.42577,-10.54932 24.09662,-27.22017 34.64594,-34.64594 34.11596,-24.01455 76.55657,-32.53974 117.65897,-23.634572 18.22354,3.948282 37.60966,12.531112 53.38365,23.634572 10.54932,7.42577 27.22017,24.09662 34.64594,34.64594 11.07883,15.739 19.68688,35.16286 23.61218,53.28028 3.12572,14.42702 3.87521,27.28228 3.87603,66.48258 l 7.9e-4,37.05406 16.91753,46.38344 c 19.22494,52.70977 20.06898,56.0401 17.45789,68.88345 -3.36834,16.56796 -13.4986,29.986 -27.78482,36.8024 -7.18415,3.42778 -7.37098,3.60317 -7.9662,7.47857 -0.94401,6.14633 -6.52808,16.3236 -11.90864,21.70416 -4.66204,4.66204 -15.11007,10.6196 -20.46576,11.66977 -2.09101,0.41 -2.63595,-0.1526 -5.05336,-5.21718 z"
       id="path4148"
       inkscape:connector-curvature="0" />
  </g>
</svg>
