<?xml version="1.0" encoding="UTF-8" standalone="no"?>
<!-- Created with Inkscape (http://www.inkscape.org/) -->

<svg
   xmlns:dc="http://purl.org/dc/elements/1.1/"
   xmlns:cc="http://creativecommons.org/ns#"
   xmlns:rdf="http://www.w3.org/1999/02/22-rdf-syntax-ns#"
   xmlns:svg="http://www.w3.org/2000/svg"
   xmlns="http://www.w3.org/2000/svg"
   xmlns:sodipodi="http://sodipodi.sourceforge.net/DTD/sodipodi-0.dtd"
   xmlns:inkscape="http://www.inkscape.org/namespaces/inkscape"
   id="svg4136"
   version="1.1"
   inkscape:version="0.91 r13725"
   width="576.5625"
   height="572.8125"
   viewBox="0 0 576.5625 572.8125"
   sodipodi:docname="Joy-2.svg">
  <metadata
     id="metadata4142">
    <rdf:RDF>
      <cc:Work
         rdf:about="">
        <dc:format>image/svg+xml</dc:format>
        <dc:type
           rdf:resource="http://purl.org/dc/dcmitype/StillImage" />
        <dc:title></dc:title>
      </cc:Work>
    </rdf:RDF>
  </metadata>
  <defs
     id="defs4140" />
  <sodipodi:namedview
     pagecolor="#ffffff"
     bordercolor="#666666"
     borderopacity="1"
     objecttolerance="10"
     gridtolerance="10"
     guidetolerance="10"
     inkscape:pageopacity="0"
     inkscape:pageshadow="2"
     inkscape:window-width="1127"
     inkscape:window-height="698"
     id="namedview4138"
     showgrid="false"
     inkscape:zoom="0.25275306"
     inkscape:cx="288.28125"
     inkscape:cy="286.40625"
     inkscape:window-x="75"
     inkscape:window-y="75"
     inkscape:window-maximized="0"
     inkscape:current-layer="svg4136" />
  <g
     id="g4146"
     transform="translate(11.869295,3.9564312)"
     inkscape:export-xdpi="200"
     inkscape:export-ydpi="200">
    <path
       style="fill:#fdf6eb"
       d="m 144.21651,572.10939 c 79.57688,-0.13218 209.51438,-0.13217 288.75,1e-5 79.2356,0.13219 14.12724,0.24034 -144.68526,0.24033 -158.8125,0 -223.641637,-0.10816 -144.06474,-0.24034 z m 108.73663,-7.27562 C 197.10127,558.07018 145.83683,535.89499 103.33961,500.11623 92.265598,490.79292 73.952258,472.08644 65.290213,461.25 32.076688,419.69902 11.426834,369.8575 5.1327382,316.05091 c -1.7926305,-15.32473 -1.7926305,-46.77709 0,-62.10182 C 11.424114,200.16575 31.889199,150.73891 65.252133,108.75 73.408167,98.485228 98.485228,73.408167 108.75,65.252133 150.73891,31.889199 200.16575,11.424114 253.94909,5.1327382 c 15.32473,-1.7926305 46.77709,-1.7926305 62.10182,0 53.78334,6.2913758 103.21018,26.7564608 145.19909,60.1193948 10.26477,8.156034 35.34184,33.233095 43.49787,43.497867 28.11159,35.37983 47.94219,78.0177 56.35679,121.17301 3.75273,19.24631 5.14534,34.15317 5.14534,55.07699 0,57.64426 -15.86537,109.78443 -47.92312,157.49523 -9.94655,14.80323 -18.00862,24.68741 -31.26625,38.3328 -46.25575,47.60861 -104.57375,76.2678 -171.00972,84.03923 -14.49999,1.69616 -48.96593,1.67786 -63.09777,-0.0335 z"
       id="path4166"
       inkscape:connector-curvature="0" />
    <path
       style="fill:#fdcfc1"
       d="M 154.7294,534.30202 C 129.2784,521.04464 106.93037,504.59331 86.168528,483.83147 41.449429,439.11237 14.593328,384.16773 5.4792348,318.75 c -1.6618491,-11.92816 -1.6618491,-55.57184 0,-67.5 C 11.791823,205.94047 26.285962,166.49165 49.701832,130.88893 61.06176,113.6167 71.406622,100.93043 86.168528,86.168528 130.88763,41.449429 185.83227,14.593328 251.25,5.4792348 c 11.92816,-1.6618491 55.57184,-1.6618491 67.5,0 54.36615,7.5743712 101.25569,27.3602292 142.5,60.1303502 12.61581,10.023721 33.11669,30.524609 43.14041,43.140415 28.27793,35.59045 48.3386,78.72642 56.60588,121.71825 4.14659,21.56328 4.76531,28.64353 4.76531,54.53175 0,25.88822 -0.61872,32.96847 -4.76531,54.53175 -8.26728,42.99183 -28.32795,86.1278 -56.60588,121.71825 -10.03273,12.62715 -30.53585,33.12736 -43.14041,43.13427 -13.89715,11.03313 -45.78297,31.65797 -43.6784,28.25269 0.87474,-1.41534 -3.42862,-18.70251 -6.59627,-26.49813 -5.91606,-14.55952 -15.11929,-29.08899 -25.34778,-40.01745 l -6.4088,-6.84738 -85.78125,0.02 -85.78125,0.02 -6.41352,6.82742 c -11.55037,12.29577 -22.60828,30.89314 -27.75047,46.67116 -1.71545,5.26358 -4.92201,19.50389 -5.85078,25.98329 -0.28194,1.96689 -0.96663,1.72861 -12.91208,-4.49377 z M 328.125,430.89054 c 0,-0.19771 -1.05469,-0.56107 -2.34375,-0.80749 -1.28906,-0.24643 -2.34375,-0.0847 -2.34375,0.35945 0,0.44412 1.05469,0.8075 2.34375,0.8075 1.28906,0 2.34375,-0.16176 2.34375,-0.35946 z"
       id="path4164"
       inkscape:connector-curvature="0" />
    <path
       style="fill:#f4c6ba"
       d="M 154.6875,534.22947 C 116.66775,513.97673 85.719622,487.68904 60.492005,454.21875 -23.927664,342.21646 -12.960578,185.4232 86.231314,86.231314 c 109.840506,-109.840516 287.696856,-109.840516 397.537366,0 94.89807,94.898066 109.53818,242.955226 35.08934,354.862436 -23.53464,35.37592 -59.53352,68.9924 -94.27955,88.04016 l -6.20278,3.40036 -1.15421,-5.87651 c -4.53244,-23.07634 -17.08921,-45.9185 -35.18364,-64.00291 -16.09921,-16.09029 -32.14959,-25.28188 -57.26421,-32.79356 -0.69067,-0.20658 -0.55891,-2.24279 0.41892,-6.47353 l 1.42652,-6.17215 4.73733,-1.53058 c 6.77815,-2.18991 21.64915,-10.0662 28.20089,-14.93632 7.60338,-5.65183 18.13888,-16.11417 23.86697,-23.70123 2.602,-3.44643 7.14989,-11.16316 10.10644,-17.14829 l 5.37555,-10.88205 5.15625,-1.63795 c 6.75232,-2.14497 10.72212,-4.53359 16.26712,-9.78796 9.10017,-8.6232 12.94168,-17.55527 12.94168,-30.09123 0,-8.6678 -1.89419,-15.63154 -6.01976,-22.13077 -3.30031,-5.19918 -11.64543,-12.75541 -16.86092,-15.26701 -3.62381,-1.74511 -4.46265,-2.60903 -4.50424,-4.63898 -0.042,-2.0475 -0.38383,-1.6744 -1.90784,2.0821 -3.36804,8.30184 -6.45325,12.49401 -13.46074,18.29041 -3.80781,3.14971 -7.06409,5.72763 -7.23617,5.72872 -0.17209,9.4e-4 -0.17076,-2.75575 0.003,-6.12628 0.39917,-7.74572 -2.62531,-18.72788 -5.20365,-18.89487 -0.92105,-0.0596 -3.57309,-0.81974 -5.8934,-1.68908 -9.66948,-3.62282 -30.28526,-3.43805 -40.28366,0.36105 -4.59519,1.74604 -4.77017,1.74835 -5.66564,0.0752 -0.74299,-1.38832 -0.41914,-2.07575 1.65328,-3.50941 5.65863,-3.91452 10.73716,-5.18966 22.43428,-5.63289 11.11305,-0.42109 16.53807,0.46654 25.441,4.16258 1.88444,0.78232 -3.61619,-9.49023 -10.93586,-20.42298 -7.84737,-11.72089 -11.32215,-15.79305 -52.48228,-61.5047 l -32.18264,-35.74141 -3.44236,0.52002 c -1.8933,0.28601 -3.71096,0.78148 -4.03922,1.10104 -1.76091,1.71422 -57.62654,99.7597 -60.31182,105.84863 -1.74824,3.96418 -3.09879,7.28745 -3.0012,7.38503 0.0976,0.0976 2.70473,-0.69429 5.79365,-1.75972 6.31243,-2.17729 19.49942,-2.53683 28.51638,-0.77749 5.68476,1.10918 13.44681,4.44299 16.82756,7.22746 1.93723,1.59554 2.07222,2.08379 1.03527,3.74423 l -1.19247,1.90944 -3.84776,-2.13095 c -6.87967,-3.81013 -15.03849,-5.40708 -27.7539,-5.43238 -8.42706,-0.0168 -12.83793,0.39304 -15.70313,1.45895 -2.1914,0.81524 -3.98437,1.10973 -3.98437,0.65441 0,-0.45531 -0.35271,-0.82784 -0.7838,-0.82784 -2.11714,0 -5.42591,18.04595 -3.99622,21.79538 l 0.98248,2.57665 -7.24185,-3.64436 c -8.17279,-4.11285 -9.05706,-4.93077 -13.73416,-12.70377 -2.81452,-4.6775 -3.35145,-5.17789 -3.35145,-3.12333 0,1.8297 -0.88635,2.97459 -3.51563,4.54111 -4.71607,2.80985 -12.07327,9.87552 -14.95776,14.36505 -8.19033,12.7478 -8.19033,31.51374 0,44.26154 4.72388,7.35246 14.01492,14.8054 21.39411,17.16161 3.11248,0.99381 3.85811,2.01829 9.12367,12.53556 11.40105,22.77215 27.17402,38.97736 48.86707,50.20624 4.91276,2.54297 10.44147,5.10301 12.28603,5.68898 3.13345,0.99541 3.42059,1.4182 4.37159,6.43674 0.55983,2.95424 1.29315,6.06411 1.62963,6.91081 0.49279,1.2401 -0.63078,1.9375 -5.77785,3.58632 -18.08245,5.79254 -35.59078,16.57512 -49.5212,30.49782 -19.50885,19.49805 -32.25258,44.05274 -36.18077,69.71332 -0.64256,4.1975 -1.62265,7.62565 -2.17797,7.6181 -0.55532,-0.008 -5.86123,-2.59811 -11.79092,-5.7568 z M 281.62297,386.81693 c -2.63082,-1.22499 -6.37052,-3.81449 -8.31047,-5.75443 -3.74194,-3.74194 -7.97558,-11.74813 -7.99084,-15.11141 -0.007,-1.35628 -0.8584,-2.31371 -2.59989,-2.92081 -1.42491,-0.49672 -3.95256,-2.04902 -5.617,-3.44956 -2.63409,-2.21644 -2.88935,-2.80984 -1.96977,-4.57919 0.58106,-1.11803 1.17711,-2.1754 1.32454,-2.34971 0.14744,-0.17431 1.49891,0.59308 3.00328,1.7053 4.45081,3.29063 8.72438,3.72315 36.78718,3.72315 28.0628,0 32.33637,-0.43252 36.78718,-3.72315 1.50437,-1.11222 2.85584,-1.87961 3.00328,-1.7053 0.14743,0.17431 0.74348,1.23168 1.32454,2.34971 0.91958,1.76935 0.66432,2.36275 -1.96977,4.57919 -1.66444,1.40054 -4.19209,2.95284 -5.617,3.44956 -1.74149,0.6071 -2.59373,1.56453 -2.59989,2.92081 -0.0153,3.36328 -4.2489,11.36947 -7.99084,15.11141 -6.08985,6.08985 -11.52654,7.98168 -22.9375,7.98168 -8.39543,0 -10.54751,-0.32769 -14.62703,-2.22725 z m -72.32828,-38.89171 c -6.44683,-2.22713 -8.66969,-4.31898 -8.66969,-8.15873 0,-5.72566 8.72742,-9.76649 21.09375,-9.76649 12.44407,0 21.09375,4.03652 21.09375,9.84375 0,2.28195 -0.67865,3.67898 -2.47268,5.09018 -6.03458,4.74679 -21.6173,6.24824 -31.04513,2.99129 z m 146.25,0 c -6.44683,-2.22713 -8.66969,-4.31898 -8.66969,-8.15873 0,-5.72566 8.72742,-9.76649 21.09375,-9.76649 12.44407,0 21.09375,4.03652 21.09375,9.84375 0,2.28195 -0.67865,3.67898 -2.47268,5.09018 -6.03458,4.74679 -21.6173,6.24824 -31.04513,2.99129 z m -59.8762,-12.23006 c -5.09459,-0.8344 -8.52028,-3.18363 -10.40464,-7.13516 -1.42873,-2.99608 -1.41807,-4.66104 0.15127,-23.62598 0.92858,-11.22152 1.81865,-20.54934 1.97795,-20.72849 0.15929,-0.17914 1.49252,0.38486 2.96274,1.25333 l 2.67311,1.57905 -1.54907,17.96542 c -0.86224,9.9999 -1.21357,18.85873 -0.79238,19.98019 1.01939,2.71426 4.48635,5.01648 7.55442,5.01648 1.9749,0 2.73231,0.63144 3.54139,2.95239 0.56608,1.62383 1.02922,3.10039 1.02922,3.28125 0,0.42569 -2.32886,0.25016 -7.14401,-0.53848 z m -117.07474,-9.12327 c -4.17612,-2.19466 -8.95717,-6.95077 -10.42429,-10.3699 -1.54098,-3.59127 -1.68533,-10.35567 -0.29946,-14.03158 1.55895,-4.13498 9.52247,-11.54541 12.40711,-11.54541 0.20362,0 0.63676,7.48828 0.96254,16.64062 0.32578,9.15235 0.86214,17.58985 1.19192,18.75 0.70141,2.46751 -0.006,2.57004 -3.83782,0.55627 z m 225.98727,-1.59266 c 0.3154,-1.25666 0.8551,-9.38531 1.19935,-18.06367 l 0.62588,-15.77884 4.12769,3.72852 c 2.27023,2.05068 4.69601,5.08606 5.39063,6.74527 1.51336,3.61498 1.64265,10.38526 0.26793,14.03158 -1.21766,3.22974 -6.0591,8.41388 -9.57934,10.25743 -2.54429,1.33244 -2.59211,1.31078 -2.03214,-0.92029 z M 229.95401,308.34999 c -5.82769,-3.7326 -6.70721,-6.42407 -6.6367,-20.3092 0.0347,-6.82868 0.39297,-12.41579 0.7962,-12.41579 0.40323,0 1.34286,-0.23397 2.08806,-0.51993 0.99555,-0.38203 1.51787,0.49909 1.96928,3.32207 0.59837,3.74197 0.66817,3.80433 2.68036,2.39494 3.12683,-2.19012 12.38166,-1.9196 16.2565,0.47518 4.7643,2.94449 6.95479,7.21112 6.95479,13.54649 0,6.33537 -2.19049,10.602 -6.95479,13.54649 -4.29017,2.65148 -12.98298,2.63108 -17.1537,-0.0402 z m 112.5,0 c -5.82769,-3.7326 -6.70721,-6.42407 -6.6367,-20.3092 0.0347,-6.82868 0.39297,-12.41579 0.7962,-12.41579 0.40323,0 1.34286,-0.23397 2.08806,-0.51993 0.99555,-0.38203 1.51787,0.49909 1.96928,3.32207 0.59837,3.74197 0.66817,3.80433 2.68036,2.39494 3.12683,-2.19012 12.38166,-1.9196 16.2565,0.47518 4.7643,2.94449 6.95479,7.21112 6.95479,13.54649 0,6.33537 -2.19049,10.602 -6.95479,13.54649 -4.29017,2.65148 -12.98298,2.63108 -17.1537,-0.0402 z"
       id="path4162"
       inkscape:connector-curvature="0" />
    <path
       style="fill:#efb2b2"
       d="M 156.28357,534.87696 C 100.36279,506.07364 54.77631,458.14979 29.040352,401.10954 -4.3945366,327.00565 -4.3945366,242.99435 29.040352,168.89046 42.580312,138.88099 62.641389,109.93514 86.288265,86.288265 156.55528,16.021252 258.39716,-11.850001 354.84375,12.792202 403.38038,25.193359 448.14969,50.726226 483.71173,86.288265 553.97874,156.55528 581.85,258.39716 557.2078,354.84375 c -17.15645,67.14827 -58.66751,125.5616 -116.5828,164.05243 -6.44531,4.2836 -14.14453,9.1371 -17.10938,10.78557 -4.99681,2.77827 -5.39062,2.86122 -5.39062,1.13537 0,-4.84291 -5.29064,-21.42039 -9.91374,-31.06335 -7.32468,-15.27794 -14.36668,-25.33855 -25.68173,-36.69044 -14.92191,-14.97049 -30.64854,-24.69471 -50.14414,-31.00554 l -8.55054,-2.76786 1.44195,-5.97221 c 1.34826,-5.58417 1.65791,-6.03698 4.76573,-6.96887 5.92918,-1.7779 21.8136,-10.07468 28.88756,-15.0886 14.81033,-10.49735 28.40244,-27.10257 36.24407,-44.27869 3.2565,-7.13295 4.0905,-8.25046 6.54459,-8.76929 5.97827,-1.26387 14.44285,-6.14019 19.58559,-11.28293 16.32565,-16.32563 16.34293,-42.51576 0.0388,-58.81988 -2.8722,-2.8722 -7.51347,-6.3432 -10.31392,-7.71334 -4.18933,-2.04965 -5.09174,-2.91651 -5.09174,-4.89122 0,-1.65837 -1.26167,0.19217 -4.08266,5.98822 -3.57855,7.35251 -4.88084,9.02973 -10.54688,13.58322 -3.55532,2.85722 -6.88609,5.44401 -7.40171,5.74842 -0.5936,0.35044 -0.9375,-2.24997 -0.9375,-7.08877 0,-8.02241 -2.87624,-19.65822 -4.29274,-17.36628 -0.5501,0.89009 -1.03091,0.90845 -2.03204,0.0776 -2.84982,-2.36514 -13.40383,-4.28119 -23.67522,-4.29817 -10.23011,-0.017 -18.27843,1.29051 -23.1672,3.76343 -2.30512,1.16602 -2.63582,1.11102 -3.54608,-0.58981 -0.86105,-1.6089 -0.56609,-2.14284 2.07345,-3.75316 6.75566,-4.12146 11.83448,-5.16382 25.10858,-5.15318 11.54435,0.009 13.17326,0.22709 18.54112,2.47945 l 5.88489,2.4693 -3.4497,-6.22944 c -10.2609,-18.5291 -15.62273,-25.21039 -58.28605,-72.62937 l -35.87877,-39.87815 -3.48387,0.52675 c -1.91613,0.28972 -3.76367,0.78823 -4.10565,1.10779 -1.78268,1.66585 -56.92772,98.31847 -59.9534,105.08022 -1.95328,4.36519 -3.46218,8.02594 -3.3531,8.13502 0.10906,0.10908 2.51412,-0.60101 5.34454,-1.57796 5.90214,-2.0372 18.37811,-2.41445 28.03424,-0.84771 6.0176,0.97638 13.67321,4.10867 17.68299,7.23498 1.8115,1.41237 1.95299,1.90827 0.9375,3.28587 -1.12868,1.53113 -1.40705,1.51865 -4.94599,-0.22185 -9.38575,-4.61602 -28.0247,-6.89291 -38.4375,-4.69545 -3.09375,0.65289 -6.74709,1.18645 -8.11853,1.18569 -2.24914,-9.3e-4 -2.65366,0.55934 -4.12711,5.71917 -0.89847,3.1463 -1.67481,8.35722 -1.72522,11.57981 -0.0504,3.22259 -0.20764,5.85931 -0.34941,5.85937 -0.14178,7e-5 -3.09491,-1.42991 -6.5625,-3.17771 -7.19767,-3.62791 -8.18642,-4.57329 -12.79703,-12.23577 -2.80269,-4.6579 -3.35145,-5.17138 -3.35145,-3.136 0,1.89068 -0.93469,2.98165 -4.18801,4.88822 -18.09505,10.60441 -25.60415,34.13316 -17.00808,53.29254 4.33148,9.65421 13.62063,18.46775 23.03081,21.8516 4.73353,1.70215 4.79893,1.7814 9.37397,11.35886 11.6688,24.42757 28.56738,41.43796 53.01006,53.3608 5.67187,2.76667 10.74332,5.03419 11.26988,5.03892 0.52655,0.005 1.43269,2.43439 2.01363,5.39923 0.58094,2.96485 1.32757,6.05635 1.65917,6.87 0.47902,1.17537 -0.93388,1.9857 -6.87549,3.94323 -18.50025,6.09518 -34.31486,15.99896 -48.87797,30.60948 -17.87447,17.93267 -29.39723,38.79419 -34.72822,62.87417 -0.97029,4.38281 -1.7733,9.33984 -1.78446,11.01562 -0.0112,1.67579 -0.3764,3.04688 -0.81164,3.04688 -0.43524,0 -5.26716,-2.30537 -10.73758,-5.12304 z M 281.71875,386.8335 c -2.57813,-1.21587 -6.32529,-3.84847 -8.32703,-5.85022 -3.83742,-3.83741 -8.05463,-11.66638 -8.07006,-14.98153 -0.007,-1.38139 -1.1173,-2.46669 -3.73137,-3.64547 -5.13359,-2.31493 -6.95564,-4.52296 -6.20391,-7.51813 l 0.60862,-2.42489 2.54937,1.81197 c 4.83621,3.43736 9.21783,3.88932 37.70563,3.88932 28.4878,0 32.86942,-0.45196 37.70563,-3.88932 l 2.54937,-1.81197 0.60862,2.42489 c 0.75173,2.99517 -1.07032,5.2032 -6.20391,7.51813 -2.61407,1.17878 -3.72494,2.26408 -3.73137,3.64547 -0.0155,3.31515 -4.23264,11.14412 -8.07006,14.98153 -6.23006,6.23007 -11.42175,8.0609 -22.85828,8.0609 -8.39175,0 -10.53518,-0.32608 -14.53125,-2.21068 z m -68.62824,-38.06906 c -7.08206,-1.50828 -12.46551,-5.39543 -12.46551,-9.00077 0,-2.56121 4.31407,-6.35329 9.11681,-8.0137 1.94669,-0.67302 7.33631,-1.22367 11.97694,-1.22367 9.31252,0 14.097,1.253 18.30506,4.79385 4.83779,4.07073 2.90554,8.70564 -5.00768,12.01199 -4.29061,1.79274 -16.49097,2.58973 -21.92562,1.4323 z m 146.25,0 c -7.08206,-1.50828 -12.46551,-5.39543 -12.46551,-9.00077 0,-2.56121 4.31407,-6.35329 9.11681,-8.0137 1.94669,-0.67302 7.33631,-1.22367 11.97694,-1.22367 9.31252,0 14.097,1.253 18.30506,4.79385 4.83779,4.07073 2.90554,8.70564 -5.00768,12.01199 -4.29061,1.79274 -16.49097,2.58973 -21.92562,1.4323 z m -63.55926,-13.07376 c -5.22405,-0.88758 -7.46483,-2.31025 -9.9357,-6.3082 l -2.13453,-3.45374 1.69045,-20.69875 c 0.92974,-11.3843 1.79544,-20.81738 1.92375,-20.96238 0.12833,-0.14502 1.45772,0.43906 2.95422,1.29793 l 2.72089,1.56157 -1.58007,17.82623 c -0.94642,10.67755 -1.25845,18.67212 -0.77809,19.93558 1.05789,2.78246 4.49046,5.11108 7.53414,5.11108 1.9793,0 2.63895,0.62672 3.45365,3.28125 1.12318,3.65967 1.23611,3.61315 -5.84871,2.40943 z M 178.125,326.14807 c -13.87918,-8.33249 -15.22915,-23.08117 -2.96862,-32.43259 2.22853,-1.69976 4.38114,-3.09048 4.78356,-3.09048 0.40243,0 0.95784,7.69922 1.23425,17.10937 0.2764,9.41016 0.80324,17.84766 1.17073,18.75 0.877,2.15334 -0.21841,2.06604 -4.21992,-0.3363 z m 227.5566,-17.00745 c 0.27787,-9.41015 0.57809,-17.20318 0.66714,-17.31783 0.0891,-0.11465 1.73271,1.08631 3.65255,2.66881 9.56277,7.88244 9.54853,20.95861 -0.0314,28.85522 -1.93713,1.59675 -3.80813,2.90318 -4.15777,2.90318 -0.34964,0 -0.40836,-7.69922 -0.13048,-17.10938 z m -174.85206,-0.38726 c -1.69218,-0.83404 -4.0125,-2.82834 -5.15625,-4.43178 -1.87534,-2.62906 -2.09342,-4.1367 -2.22092,-15.354 -0.12719,-11.19065 0.0312,-12.53103 1.579,-13.35937 2.45882,-1.31591 2.48149,-1.29594 3.12968,2.75763 l 0.58819,3.67833 2.88994,-1.44169 c 4.0574,-2.0241 12.74977,-1.2978 16.50967,1.37948 4.25974,3.03321 6.1973,7.83715 5.73556,14.22059 -0.45285,6.26058 -2.94137,10.33973 -7.67951,12.58812 -4.08268,1.93736 -11.40502,1.91959 -15.37536,-0.0373 z m 112.5,0 c -1.69218,-0.83404 -4.0125,-2.82834 -5.15625,-4.43178 -1.87534,-2.62906 -2.09342,-4.1367 -2.22092,-15.354 -0.12719,-11.19065 0.0312,-12.53103 1.579,-13.35937 2.45882,-1.31591 2.48149,-1.29594 3.12968,2.75763 l 0.58819,3.67833 2.88994,-1.44169 c 4.0574,-2.0241 12.74977,-1.2978 16.50967,1.37948 4.25974,3.03321 6.1973,7.83715 5.73556,14.22059 -0.45285,6.26058 -2.94137,10.33973 -7.67951,12.58812 -4.08268,1.93736 -11.40502,1.91959 -15.37536,-0.0373 z"
       id="path4160"
       inkscape:connector-curvature="0" />
    <path
       style="fill:#da9191"
       d="M 154.67543,533.80258 C 141.53857,526.94906 120.75235,513.37087 108.75,503.80271 98.504531,495.63512 74.39011,471.52462 66.190383,461.25 13.200305,394.85113 -7.2551496,308.63446 10.400644,226.10461 19.331783,184.35709 39.192777,142.57917 66.190383,108.75 74.378436,98.490009 98.490009,74.378436 108.75,66.190383 175.14887,13.200305 261.36554,-7.2551496 343.89539,10.400644 c 41.74752,8.931139 83.52544,28.792133 117.35461,55.789739 10.25999,8.188053 34.37156,32.299626 42.55962,42.559617 52.99008,66.39887 73.44553,152.61554 55.78974,235.14539 -8.93114,41.74752 -28.79214,83.52544 -55.78974,117.35461 -8.23916,10.32402 -32.3625,34.43019 -42.55962,42.52934 -12.63438,10.03495 -39.54833,27.78316 -42.13128,27.78316 -0.42946,0 -1.07832,-2.00391 -1.44191,-4.45313 -1.91857,-12.92351 -11.48201,-34.40088 -21.70203,-48.73789 -14.96659,-20.99567 -38.01103,-38.05974 -61.76997,-45.73975 l -10.46758,-3.38361 1.5674,-5.72598 1.5674,-5.72598 8.52414,-3.47451 c 27.19283,-11.08404 51.15095,-34.53765 61.248,-59.95827 2.10596,-5.30204 2.24624,-5.43189 7.42199,-6.87088 10.65361,-2.96196 21.46082,-12.5336 26.14994,-23.16023 8.69161,-19.69723 0.19568,-43.8892 -18.92167,-53.87905 -4.33357,-2.26454 -5.35352,-3.24313 -5.35795,-5.14072 -0.004,-1.58436 -1.34365,0.39007 -4.13552,6.09375 -3.58805,7.33023 -4.96532,9.11417 -10.49484,13.59375 -8.89022,7.20215 -8.73927,7.1416 -7.83759,3.14364 0.42163,-1.86946 0.38699,-5.73145 -0.077,-8.58222 -1.02192,-6.27892 -3.87171,-15.14122 -4.38029,-13.62185 -0.25917,0.77425 -1.5507,0.57212 -4.40125,-0.68881 -2.21895,-0.98156 -8.03159,-2.28948 -12.91699,-2.90653 -10.50897,-1.3273 -23.5616,-0.10318 -30.19705,2.83199 -4.40754,1.94967 -5.24597,1.79969 -5.24597,-0.93841 0,-3.81013 14.207,-8.26298 26.43823,-8.28645 8.11763,-0.0156 15.13658,1.26329 21.20126,3.86291 l 4.1002,1.75755 -3.45639,-6.33279 c -5.14581,-9.42813 -14.53363,-23.22519 -21.24759,-31.2271 -3.26808,-3.895 -21.06598,-23.83984 -39.55089,-44.32185 l -33.60893,-37.24003 -3.42232,0.60743 c -1.88228,0.33409 -3.71611,0.87268 -4.07519,1.19685 -0.35908,0.32418 -12.97193,21.89411 -28.02857,47.93317 -29.56127,51.12349 -39.37574,69.92551 -34.36544,65.83545 4.29235,-3.50397 19.30956,-4.92372 31.64063,-2.99135 6.56681,1.02907 17.59305,5.98803 19.15424,8.61447 1.84821,3.10931 -0.60273,3.62035 -5.57354,1.16212 -9.581,-4.73812 -29.20074,-6.56589 -40.0753,-3.73343 -2.92933,0.76299 -5.90946,1.16338 -6.62253,0.88974 -1.79865,-0.69021 -4.70206,9.64688 -4.78636,17.041 l -0.0652,5.72426 -4.2122,-1.80422 c -8.68921,-3.72187 -11.41812,-6.22732 -16.54302,-15.18837 -1.96935,-3.44345 -2.19209,-3.59027 -2.20223,-1.45163 -0.009,1.88832 -1.27412,3.20955 -6.13106,6.4028 -28.2243,18.5564 -23.77684,60.95671 7.73739,73.76504 5.00116,2.03262 5.32764,2.38129 7.92019,8.45854 10.92943,25.61979 32.4031,46.97483 58.8484,58.52331 l 7.91748,3.4575 1.06027,4.60051 c 0.58316,2.53028 1.3506,5.47932 1.70543,6.55342 0.5866,1.77573 -0.19713,2.22876 -8.63902,4.99364 -10.82473,3.5453 -24.69493,10.95034 -34.3211,18.3234 -24.64894,18.87956 -43.82053,50.11014 -48.36857,78.79255 -0.65408,4.125 -1.43828,8.00708 -1.74268,8.62687 -0.37806,0.76977 -4.26313,-0.8085 -12.26011,-4.98054 z M 283.12969,387.42755 c -2.65751,-0.9377 -6.18911,-3.46197 -9.56108,-6.83394 -4.39059,-4.39059 -5.6491,-6.39334 -7.03594,-11.19674 -1.28493,-4.45048 -2.22277,-6.0553 -3.92074,-6.70915 C 258.69023,361.17757 255,358.05247 255,356.24149 c 0,-2.78892 1.46456,-2.98318 5.31865,-0.70546 3.53928,2.09166 4.02321,2.12022 35.93135,2.12022 31.90814,0 32.39207,-0.0286 35.93135,-2.12022 3.85409,-2.27772 5.31865,-2.08346 5.31865,0.70546 0,1.81098 -3.69023,4.93608 -7.61193,6.44623 -1.69797,0.65385 -2.63581,2.25867 -3.92074,6.70915 -1.38715,4.80447 -2.64353,6.80334 -7.03125,11.18653 -6.81519,6.80814 -11.47925,8.50611 -23.08746,8.40508 -5.18578,-0.0451 -10.14944,-0.65429 -12.71893,-1.56093 z m 13.39283,-51.7226 c -3.63034,-0.44122 -5.63955,-1.30961 -7.82872,-3.38363 -4.82998,-4.57589 -4.94056,-5.56175 -3.11802,-27.79755 l 1.66553,-20.32 2.62935,1.3597 c 3.1341,1.6207 3.10921,1.16952 1.20567,21.85831 -0.77883,8.4648 -1.18822,16.10838 -0.90976,16.98574 0.7861,2.47677 3.83202,4.8148 7.15907,5.49526 2.25311,0.46081 3.34266,1.39167 4.25984,3.63945 0.67781,1.66115 0.91479,2.96087 0.52659,2.88827 -0.3882,-0.0726 -2.9035,-0.39909 -5.58955,-0.72555 z m -117.92877,-9.60392 c -1.03125,-0.5662 -3.67802,-2.76045 -5.8817,-4.8761 -7.32375,-7.03118 -7.67483,-16.381 -0.89145,-23.7401 2.12487,-2.30521 5.04543,-4.80254 6.49015,-5.54964 l 2.62675,-1.35834 0,13.95573 c 0,7.67565 0.26828,15.91304 0.59617,18.30532 0.61991,4.52263 0.20098,4.98762 -2.93992,3.26313 z m 227.19447,-16.57595 c 0.19247,-9.10598 0.52458,-16.74095 0.73802,-16.96661 0.21344,-0.22565 2.28771,1.45407 4.60949,3.73273 7.53894,7.39891 7.96617,16.59424 1.11627,24.02551 -7.03684,7.63407 -6.85951,7.93015 -6.46378,-10.79163 z m -175.23664,-1.34427 c -1.73977,-1.17242 -4.15335,-3.5982 -5.36352,-5.39062 -1.89785,-2.81097 -2.13023,-4.03214 -1.69051,-8.88394 0.7383,-8.14616 0.73801,-8.03156 0.0329,-12.87633 -0.59607,-4.09538 -0.47354,-4.50353 1.58363,-5.27515 1.74755,-0.65549 2.28826,-0.50654 2.50056,0.68883 1.06726,6.00914 0.95543,5.8851 3.92248,4.35078 6.8233,-3.52846 15.73705,-0.90283 20.39371,6.0072 4.53808,6.73405 2.15424,16.35927 -5.29489,21.37923 -2.2837,1.53897 -4.51983,2.13169 -8.0422,2.13169 -3.52237,0 -5.7585,-0.59272 -8.04217,-2.13169 z m 112.5,0 c -1.73977,-1.17242 -4.15335,-3.5982 -5.36352,-5.39062 -1.89785,-2.81097 -2.13023,-4.03214 -1.69051,-8.88394 0.7383,-8.14616 0.73801,-8.03156 0.0329,-12.87633 -0.59607,-4.09538 -0.47354,-4.50353 1.58363,-5.27515 1.74755,-0.65549 2.28826,-0.50654 2.50056,0.68883 1.06726,6.00914 0.95543,5.8851 3.92248,4.35078 6.8233,-3.52846 15.73705,-0.90283 20.39371,6.0072 4.53808,6.73405 2.15424,16.35927 -5.29489,21.37923 -2.2837,1.53897 -4.51983,2.13169 -8.0422,2.13169 -3.52237,0 -5.7585,-0.59272 -8.04218,-2.13169 z"
       id="path4158"
       inkscape:connector-curvature="0" />
    <path
       style="fill:#e5887e"
       d="m 405.15307,493.47122 c -10.26355,-20.29825 -29.56413,-40.39768 -49.49514,-51.54373 -8.02466,-4.48766 -20.28347,-9.61245 -25.84827,-10.80589 -2.46416,-0.52847 -4.69456,-1.30755 -4.95645,-1.73129 -0.26189,-0.42375 0.0763,-3.20316 0.75161,-6.17647 l 1.22777,-5.40602 8.48168,-3.40539 c 26.51685,-10.64651 48.15432,-31.25707 60.21075,-57.35316 l 3.64643,-7.89269 5.11899,-1.61362 c 6.5522,-2.0654 15.42996,-7.80226 19.31725,-12.48292 4.53497,-5.46051 8.51958,-14.2086 9.69057,-21.2753 2.80978,-16.95647 -6.5029,-35.32831 -21.9679,-43.33779 -4.37358,-2.26512 -5.38944,-3.23211 -5.39388,-5.13445 -0.004,-1.5912 -1.34162,0.36545 -4.16676,6.09375 -3.51592,7.12896 -5.06317,9.16447 -9.97672,13.125 -8.43266,6.79708 -8.00307,6.78728 -8.01028,0.18259 -0.007,-5.62973 -3.91143,-21.08576 -4.74371,-18.77427 -0.28025,0.77837 -1.54853,0.58535 -4.37818,-0.66633 -9.61686,-4.254 -29.82109,-4.71191 -40.62544,-0.92074 -7.46207,2.61839 -7.23502,2.60785 -7.58154,0.35166 -0.24945,-1.62415 0.65474,-2.4796 4.66524,-4.41375 6.68628,-3.22461 16.2268,-4.72141 26.04114,-4.08557 7.04449,0.45639 10.72729,1.4016 19.09118,4.89984 3.88214,1.62372 -9.62551,-20.57587 -21.37029,-35.12175 -3.51865,-4.35782 -21.60604,-24.81876 -40.19421,-45.46875 -18.58816,-20.64998 -33.91809,-37.71264 -34.06651,-37.91702 -0.1484,-0.20438 -2.05796,0.007 -4.24345,0.46875 l -3.97361,0.84034 -26.59507,45.9375 c -24.4286,42.19537 -36.71524,64.83131 -36.73716,67.68166 -0.006,0.74311 1.48768,0.4493 4.44451,-0.87444 8.92519,-3.99566 28.89299,-3.1035 39.76782,1.77684 6.09564,2.73556 8.76467,5.20447 7.94251,7.34701 -0.50056,1.30442 -0.96132,1.26726 -4.09809,-0.33041 -6.88171,-3.50515 -13.71619,-4.95609 -25.56536,-5.42746 -8.67751,-0.3452 -13.0551,-0.10382 -16.86808,0.9301 -3.78457,1.02622 -5.32401,1.11366 -5.8084,0.3299 -1.00934,-1.63316 -1.41063,-0.7754 -3.61411,7.7253 -1.25866,4.85569 -1.86894,9.41732 -1.59045,11.88807 l 0.45188,4.0091 -7.14479,-3.60495 c -6.48341,-3.27125 -7.55702,-4.23046 -11.59792,-10.36221 -3.53004,-5.35655 -4.45313,-6.27832 -4.45313,-4.44676 0,1.81084 -1.20549,3.05457 -5.57437,5.75119 -17.8814,11.03703 -24.52223,34.5272 -15.12513,53.50117 5.05015,10.19695 11.7828,16.43405 22.39593,20.74754 4.857,1.97404 5.12551,2.2774 8.12653,9.18076 11.03902,25.39356 32.4708,46.60378 58.36675,57.76336 l 8.09254,3.4874 1.17325,5.75171 c 0.64528,3.16345 1.42871,6.16509 1.74097,6.6703 0.31224,0.50523 -0.6097,1.16542 -2.04875,1.4671 -5.25924,1.1025 -19.74309,7.12399 -26.77562,11.13165 -20.30423,11.57087 -39.18999,31.00354 -49.06339,50.48419 -1.76401,3.48047 -3.72933,6.32417 -4.36737,6.31934 -2.59416,-0.0197 -10.85485,-5.73691 -15.80842,-10.94102 -5.84213,-6.13762 -8.33339,-10.42508 -10.61202,-18.26331 -1.4915,-5.13059 -1.67001,-5.32076 -7.8205,-8.33156 -8.95064,-4.38154 -18.56872,-14.18249 -22.95634,-23.39282 -4.24826,-8.91778 -5.7611,-16.71666 -5.14511,-26.52364 0.4421,-7.03849 1.86202,-11.49492 16.64058,-52.22636 8.88649,-24.49219 16.50461,-44.96331 16.92916,-45.49137 0.42455,-0.52807 0.93794,-23.09838 1.14085,-50.15625 0.34801,-46.40499 0.48498,-49.71201 2.41419,-58.28894 11.62837,-51.69767 47.37962,-92.01936 97.00589,-109.407078 16.54987,-5.79864 25.12001,-7.05933 47.98913,-7.05933 17.81825,0 21.92483,0.283394 30.17663,2.082468 51.72235,11.27662 92.42868,47.22556 109.88226,97.04019 6.67492,19.05104 6.93319,21.58497 7.34871,72.09827 l 0.3756,45.6617 17.46137,47.61955 17.46136,47.61954 0.0508,12.1875 c 0.0435,10.43095 -0.25348,12.99821 -2.06024,17.8125 -4.77149,12.71405 -15.04387,23.82572 -27.05153,29.26174 -5.64994,2.5578 -5.79594,2.71714 -6.87915,7.50762 -3.4757,15.37126 -18.39932,30.51674 -32.29099,32.77105 -3.24754,0.527 -3.2478,0.52676 -6.97798,-6.85044 z M 285.16249,387.72401 c -8.8759,-2.88546 -16.89988,-11.08022 -19.0451,-19.45044 -0.90404,-3.52737 -1.78421,-4.94231 -3.47404,-5.58478 -3.36125,-1.27796 -7.64538,-4.53471 -7.629,-5.7995 0.0405,-3.12318 1.49313,-3.38284 6.04188,-1.07996 l 4.57404,2.31567 30.61973,0 30.61973,0 4.57404,-2.31567 c 4.54875,-2.30288 6.00141,-2.04322 6.04188,1.07996 0.0162,1.25496 -4.24582,4.50774 -7.59758,5.79843 -1.69527,0.65281 -2.6348,2.2554 -3.90806,6.66611 -1.32098,4.57599 -2.66526,6.7957 -6.3426,10.47305 -6.53499,6.53498 -11.58174,8.58612 -21.98116,8.93374 -5.43495,0.18167 -9.88095,-0.1872 -12.49376,-1.03661 z m 11.23459,-52.22877 c -3.62067,-0.45118 -5.74568,-1.32983 -7.66625,-3.16986 -4.83925,-4.63628 -5.05846,-6.23674 -3.36903,-24.59592 0.84196,-9.14964 1.52687,-18.22858 1.52202,-20.17541 l -0.009,-3.5397 2.8125,1.4544 c 3.33398,1.72407 3.29492,1.12196 1.39897,21.5625 -0.76522,8.25 -1.39304,15.49497 -1.39515,16.09994 -0.008,2.45056 4.84566,6.86881 7.54653,6.86881 1.75964,0 3.05388,0.66836 3.72595,1.92413 1.85988,3.47524 0.87079,4.2487 -4.56672,3.57111 z m -117.84614,-9.80859 c -6.44785,-3.32956 -11.63477,-10.81047 -11.63477,-16.7804 0,-4.39933 3.0775,-10.09475 7.50023,-13.88045 2.22535,-1.90481 4.56947,-3.4633 5.20914,-3.4633 0.8731,0 1.24211,4.38223 1.48018,17.57812 0.17444,9.66797 0.29415,17.66771 0.26603,17.77719 -0.0281,0.10948 -1.29748,-0.44454 -2.82081,-1.23116 z m 227.17742,-13.3667 c 0.14279,-7.54941 0.35373,-15.18099 0.46875,-16.95908 l 0.20914,-3.23288 3.66279,3.22484 c 4.01219,3.53246 7.06572,9.27529 7.09787,13.34916 0.0418,5.29647 -3.7466,11.63968 -9.35441,15.66274 l -2.34375,1.68142 0.25961,-13.7262 z m -175.17678,-4.13914 c -1.73977,-1.17242 -4.15335,-3.5982 -5.36352,-5.39062 -1.89785,-2.81097 -2.13023,-4.03214 -1.69051,-8.88394 0.7383,-8.14616 0.73801,-8.03156 0.0329,-12.87633 -0.59607,-4.09538 -0.47354,-4.50353 1.58363,-5.27515 1.74755,-0.65549 2.28826,-0.50654 2.50056,0.68883 1.06726,6.00914 0.95543,5.8851 3.92248,4.35078 6.8233,-3.52846 15.73705,-0.90283 20.39371,6.0072 4.53808,6.73405 2.15424,16.35927 -5.29489,21.37923 -2.2837,1.53897 -4.51983,2.13169 -8.0422,2.13169 -3.52237,0 -5.7585,-0.59272 -8.04217,-2.13169 z m 112.5,0 c -1.73977,-1.17242 -4.15335,-3.5982 -5.36352,-5.39062 -1.89785,-2.81097 -2.13023,-4.03214 -1.69051,-8.88394 0.7383,-8.14616 0.73801,-8.03156 0.0329,-12.87633 -0.59607,-4.09538 -0.47354,-4.50353 1.58363,-5.27515 1.74755,-0.65549 2.28826,-0.50654 2.50056,0.68883 1.06726,6.00914 0.95543,5.8851 3.92248,4.35078 6.8233,-3.52846 15.73705,-0.90283 20.39371,6.0072 4.53808,6.73405 2.15424,16.35927 -5.29489,21.37923 -2.2837,1.53897 -4.51983,2.13169 -8.0422,2.13169 -3.52237,0 -5.7585,-0.59272 -8.04218,-2.13169 z"
       id="path4156"
       inkscape:connector-curvature="0" />
    <path
       style="fill:#a8938d"
       d="m 405.15307,493.47122 c -10.26355,-20.29825 -29.56413,-40.39768 -49.49514,-51.54373 -8.02466,-4.48766 -20.28347,-9.61245 -25.84827,-10.80589 -2.46416,-0.52847 -4.69456,-1.30755 -4.95645,-1.73129 -0.26189,-0.42375 0.0763,-3.20316 0.75161,-6.17647 l 1.22777,-5.40602 8.48168,-3.40539 c 26.51685,-10.64651 48.15432,-31.25707 60.21075,-57.35316 l 3.64643,-7.89269 5.11899,-1.61362 c 6.5522,-2.0654 15.42996,-7.80226 19.31725,-12.48292 4.53497,-5.46051 8.51958,-14.2086 9.69057,-21.2753 2.80978,-16.95647 -6.5029,-35.32831 -21.9679,-43.33779 -4.37358,-2.26512 -5.38944,-3.23211 -5.39388,-5.13445 -0.004,-1.5912 -1.34162,0.36545 -4.16676,6.09375 -3.51592,7.12896 -5.06317,9.16447 -9.97672,13.125 -8.43266,6.79708 -8.00307,6.78728 -8.01028,0.18259 -0.007,-5.62973 -3.91143,-21.08576 -4.74371,-18.77427 -0.28025,0.77837 -1.54853,0.58535 -4.37818,-0.66633 -9.61686,-4.254 -29.82109,-4.71191 -40.62544,-0.92074 -7.46207,2.61839 -7.23502,2.60785 -7.58154,0.35166 -0.24945,-1.62415 0.65474,-2.4796 4.66524,-4.41375 6.68628,-3.22461 16.2268,-4.72141 26.04114,-4.08557 7.04449,0.45639 10.72729,1.4016 19.09118,4.89984 3.88214,1.62372 -9.62551,-20.57587 -21.37029,-35.12175 -3.51865,-4.35782 -21.60604,-24.81876 -40.19421,-45.46875 -18.58816,-20.64998 -33.91809,-37.71264 -34.06651,-37.91702 -0.1484,-0.20438 -2.05796,0.007 -4.24345,0.46875 l -3.97361,0.84034 -26.59507,45.9375 c -24.4286,42.19537 -36.71524,64.83131 -36.73716,67.68166 -0.006,0.74311 1.48768,0.4493 4.44451,-0.87444 8.92519,-3.99566 28.89299,-3.1035 39.76782,1.77684 6.09564,2.73556 8.76467,5.20447 7.94251,7.34701 -0.50056,1.30442 -0.96132,1.26726 -4.09809,-0.33041 -6.88171,-3.50515 -13.71619,-4.95609 -25.56536,-5.42746 -8.67751,-0.3452 -13.0551,-0.10382 -16.86808,0.9301 -3.78457,1.02622 -5.32401,1.11366 -5.8084,0.3299 -1.00934,-1.63316 -1.41063,-0.7754 -3.61411,7.7253 -1.25866,4.85569 -1.86894,9.41732 -1.59045,11.88807 l 0.45188,4.0091 -7.14479,-3.60495 c -6.48341,-3.27125 -7.55702,-4.23046 -11.59792,-10.36221 -3.53004,-5.35655 -4.45313,-6.27832 -4.45313,-4.44676 0,1.81084 -1.20549,3.05457 -5.57437,5.75119 -17.8814,11.03703 -24.52223,34.5272 -15.12513,53.50117 5.05015,10.19695 11.7828,16.43405 22.39593,20.74754 4.857,1.97404 5.12551,2.2774 8.12653,9.18076 11.03902,25.39356 32.4708,46.60378 58.36675,57.76336 l 8.09254,3.4874 1.17325,5.75171 c 0.64528,3.16345 1.42871,6.16509 1.74097,6.6703 0.31224,0.50523 -0.6097,1.16542 -2.04875,1.4671 -5.25924,1.1025 -19.74309,7.12399 -26.77562,11.13165 -20.30423,11.57087 -39.18999,31.00354 -49.06339,50.48419 -1.76401,3.48047 -3.72933,6.32417 -4.36737,6.31934 -2.59416,-0.0197 -10.85485,-5.73691 -15.80842,-10.94102 -5.84213,-6.13762 -8.33339,-10.42508 -10.61202,-18.26331 -1.4915,-5.13059 -1.67001,-5.32076 -7.8205,-8.33156 -8.95064,-4.38154 -18.56872,-14.18249 -22.95634,-23.39282 -4.24826,-8.91778 -5.7611,-16.71666 -5.14511,-26.52364 0.4421,-7.03849 1.86202,-11.49492 16.64058,-52.22636 8.88649,-24.49219 16.50461,-44.96331 16.92916,-45.49137 0.42455,-0.52807 0.93794,-23.09838 1.14085,-50.15625 0.34801,-46.40499 0.48498,-49.71201 2.41419,-58.28894 11.62837,-51.69767 47.37962,-92.01936 97.00589,-109.407078 16.54987,-5.79864 25.12001,-7.05933 47.98913,-7.05933 17.81825,0 21.92483,0.283394 30.17663,2.082468 51.72235,11.27662 92.42868,47.22556 109.88226,97.04019 6.67492,19.05104 6.93319,21.58497 7.34871,72.09827 l 0.3756,45.6617 17.46137,47.61955 17.46136,47.61954 0.0508,12.1875 c 0.0435,10.43095 -0.25348,12.99821 -2.06024,17.8125 -4.77149,12.71405 -15.04387,23.82572 -27.05153,29.26174 -5.64994,2.5578 -5.79594,2.71714 -6.87915,7.50762 -3.4757,15.37126 -18.39932,30.51674 -32.29099,32.77105 -3.24754,0.527 -3.2478,0.52676 -6.97798,-6.85044 z m -87.8562,-114.65817 c -0.48984,-0.48094 -4.26562,-2.0287 -8.39062,-3.43946 -6.33844,-2.16775 -9.09715,-2.57144 -17.8125,-2.60653 -7.33771,-0.0295 -11.9217,0.44506 -15.89099,1.64527 -6.57563,1.98829 -7.09231,1.63776 -9.09304,-6.16866 -0.89676,-3.49899 -1.77946,-4.91352 -3.46637,-5.55488 -3.36125,-1.27796 -7.64538,-4.53471 -7.629,-5.7995 0.0405,-3.12318 1.49313,-3.38284 6.04188,-1.07996 l 4.57404,2.31567 30.61973,0 30.61973,0 4.57404,-2.31567 c 4.54875,-2.30288 6.00141,-2.04322 6.04188,1.07996 0.0164,1.26479 -4.26775,4.52154 -7.629,5.7995 -1.68182,0.63942 -2.56894,2.05327 -3.45324,5.50363 -1.32127,5.15533 -5.19898,11.49508 -7.03096,11.49508 -0.65172,0 -1.58573,-0.39351 -2.07558,-0.87445 z m -20.89979,-43.31781 c -3.62067,-0.45118 -5.74568,-1.32983 -7.66625,-3.16986 -4.83925,-4.63628 -5.05846,-6.23674 -3.36903,-24.59592 0.84196,-9.14964 1.52687,-18.22858 1.52202,-20.17541 l -0.009,-3.5397 2.8125,1.4544 c 3.33398,1.72407 3.29492,1.12196 1.39897,21.5625 -0.76522,8.25 -1.39304,15.49497 -1.39515,16.09994 -0.008,2.45056 4.84566,6.86881 7.54653,6.86881 1.75964,0 3.05388,0.66836 3.72595,1.92413 1.85988,3.47524 0.87079,4.2487 -4.56672,3.57111 z m -65.8455,-27.31443 c -1.73977,-1.17242 -4.15335,-3.5982 -5.36352,-5.39062 -1.89785,-2.81097 -2.13023,-4.03214 -1.69051,-8.88394 0.7383,-8.14616 0.73801,-8.03156 0.0329,-12.87633 -0.59607,-4.09538 -0.47354,-4.50353 1.58363,-5.27515 1.74755,-0.65549 2.28826,-0.50654 2.50056,0.68883 1.06726,6.00914 0.95543,5.8851 3.92248,4.35078 6.8233,-3.52846 15.73705,-0.90283 20.39371,6.0072 4.53808,6.73405 2.15424,16.35927 -5.29489,21.37923 -2.2837,1.53897 -4.51983,2.13169 -8.0422,2.13169 -3.52237,0 -5.7585,-0.59272 -8.04217,-2.13169 z m 112.5,0 c -1.73977,-1.17242 -4.15335,-3.5982 -5.36352,-5.39062 -1.89785,-2.81097 -2.13023,-4.03214 -1.69051,-8.88394 0.7383,-8.14616 0.73801,-8.03156 0.0329,-12.87633 -0.59607,-4.09538 -0.47354,-4.50353 1.58363,-5.27515 1.74755,-0.65549 2.28826,-0.50654 2.50056,0.68883 1.06726,6.00914 0.95543,5.8851 3.92248,4.35078 6.8233,-3.52846 15.73705,-0.90283 20.39371,6.0072 4.53808,6.73405 2.15424,16.35927 -5.29489,21.37923 -2.2837,1.53897 -4.51983,2.13169 -8.0422,2.13169 -3.52237,0 -5.7585,-0.59272 -8.04218,-2.13169 z"
       id="path4154"
       inkscape:connector-curvature="0" />
    <path
       style="fill:#996f6e"
       d="m 406.55216,495.31819 c -7.87486,-16.1669 -25.74911,-36.74659 -40.97082,-47.17213 -10.075,-6.90051 -23.22309,-13.39032 -33.47197,-16.52153 -4.2539,-1.29965 -7.71649,-2.65387 -7.69465,-3.00938 0.0219,-0.35552 0.56895,-2.91283 1.21578,-5.6829 1.17006,-5.01081 1.20457,-5.04722 6.7633,-7.13693 15.20561,-5.71625 28.52294,-14.35804 40.34572,-26.1808 9.71507,-9.71508 16.66625,-19.56746 22.51179,-31.90751 l 4.04935,-8.54826 5.24579,-1.61531 c 24.27313,-7.47435 36.22623,-35.43899 25.06509,-58.64051 -3.24543,-6.74652 -12.33763,-15.91966 -18.75217,-18.91911 -4.322,-2.02097 -4.92552,-2.64584 -4.9518,-5.12702 -0.0242,-2.28534 -0.59584,-1.48128 -2.98994,4.2057 -2.99491,7.11419 -9.1608,14.44567 -16.45727,19.56838 l -3.07091,2.15601 0.58938,-3.68577 c 1.07592,-6.72843 -2.94083,-21.25868 -5.95337,-21.53577 -0.89057,-0.0819 -4.78327,-1.04632 -8.65046,-2.14314 -9.50193,-2.69495 -28.60477,-2.27198 -36.52927,0.80883 -7.58355,2.94826 -9.26761,0.11947 -2.079,-3.49216 11.66901,-5.86262 35.47706,-5.62429 44.93639,0.44985 2.71993,1.74654 2.67495,1.44529 -0.8229,-5.51234 -8.37475,-16.65829 -15.60525,-25.72504 -58.60318,-73.48603 l -35.31016,-39.22161 -4.15775,0.15869 c -2.28677,0.0873 -4.26491,0.29822 -4.39587,0.46875 -2.48017,3.22958 -55.73386,97.03045 -59.25558,104.37256 -6.10612,12.73011 -10.02407,25.92277 -9.57592,32.24435 l 0.32449,4.57707 -6.09375,-3.08685 c -7.10833,-3.60079 -10.09971,-6.50293 -14.0031,-13.58534 -2.6522,-4.81223 -2.83904,-4.96416 -2.85491,-2.32138 -0.0145,2.4161 -0.75526,3.26943 -5.08752,5.86066 -18.1848,10.8768 -25.23087,35.06787 -15.81506,54.29745 4.69548,9.58942 14.30426,18.21214 23.48922,21.07876 3.49184,1.08979 3.98871,1.70965 7.34609,9.16421 8.11652,18.02155 23.42753,36.34886 39.18828,46.90845 7.08631,4.74777 23.51472,13.14387 25.71823,13.14387 0.57505,0 1.30546,1.16016 1.62314,2.57812 0.31769,1.41797 0.95618,4.05469 1.41888,5.85938 1.32563,5.17027 1.2029,5.33542 -5.47638,7.36968 -8.90802,2.71305 -22.45793,9.50838 -32.02314,16.05971 -14.71556,10.07889 -31.56177,29.0047 -39.52512,44.40438 -1.76955,3.42199 -3.67929,6.22336 -4.24389,6.22526 -1.99629,0.007 -12.15023,-7.24643 -15.94064,-11.38674 -5.00661,-5.46879 -8.30005,-11.23838 -10.20428,-17.87633 -1.50981,-5.26303 -1.65147,-5.41607 -7.80813,-8.43485 -8.49673,-4.1662 -18.57512,-14.14852 -22.51323,-22.29861 -4.54316,-9.40229 -6.09561,-16.86781 -5.55616,-26.71875 0.4422,-8.07508 1.13607,-10.28987 16.15396,-51.5625 8.63055,-23.71875 16.26448,-44.39063 16.96428,-45.9375 1.0049,-2.2213 1.3369,-12.96145 1.57942,-51.09375 0.29079,-45.7238 0.41645,-48.76992 2.37227,-57.50665 6.66425,-29.76959 19.78244,-53.953 40.51029,-74.68085 20.73551,-20.73551 44.99068,-33.888937 74.68085,-40.498964 7.95798,-1.771712 12.05894,-2.053881 29.8504,-2.053881 17.79146,0 21.89242,0.282169 29.8504,2.053881 29.69017,6.610027 53.94534,19.763454 74.68085,40.498964 20.73698,20.73698 33.89708,45.00576 40.4968,74.68085 1.90663,8.57302 2.09102,12.50703 2.60737,55.63165 l 0.55565,46.40625 16.44716,44.53125 c 9.04594,24.49219 16.94123,46.51103 17.54509,48.93077 0.60386,2.41973 1.09793,8.04066 1.09793,12.49095 0,19.184 -11.02512,36.92136 -28.1321,45.25928 l -7.1302,3.47525 -1.65278,6.28363 c -3.81157,14.49101 -18.68779,29.24163 -31.60059,31.33377 -3.1253,0.50637 -3.26783,0.38603 -5.86967,-4.95546 z M 317.29687,378.81305 c -0.48984,-0.48094 -4.26562,-2.0287 -8.39062,-3.43946 -6.33844,-2.16775 -9.09715,-2.57144 -17.8125,-2.60653 -7.30586,-0.0294 -11.9244,0.44605 -15.84118,1.63078 -6.41818,1.94136 -6.37231,1.9737 -8.6881,-6.12693 -1.17151,-4.09793 -2.01338,-5.44624 -3.65833,-5.8591 -2.19928,-0.55199 -7.91734,-4.90714 -7.89179,-6.01077 0.007,-0.34088 0.37983,-1.19669 0.82652,-1.90178 0.65607,-1.03562 1.3891,-0.85544 3.81418,0.9375 l 3.00204,2.21949 33.59291,0 33.59291,0 3.00204,-2.21949 c 2.42508,-1.79294 3.15811,-1.97312 3.81418,-0.9375 0.44669,0.70509 0.81862,1.5609 0.82652,1.90178 0.0258,1.1143 -5.70254,5.4613 -7.93517,6.02166 -1.65805,0.41613 -2.44118,1.59452 -3.2708,4.9216 -1.31291,5.26527 -5.27699,12.3432 -6.91295,12.3432 -0.64858,0 -1.58001,-0.39351 -2.06986,-0.87445 z m -26.76761,-45.3098 c -1.75203,-1.16695 -3.93863,-3.65654 -4.85911,-5.5324 -1.5893,-3.23889 -1.59872,-4.30067 -0.18707,-21.08139 1.98465,-23.59218 1.88976,-23.23046 5.3961,-20.56993 1.58458,1.20234 1.58811,2.09706 0.0772,19.58233 -1.8511,21.4222 -1.6335,22.33363 5.77767,24.19978 2.31191,0.58215 4.20346,1.39574 4.20346,1.80798 0,0.41224 0.25607,1.41685 0.56905,2.23245 0.93799,2.44436 -7.04587,1.97974 -10.97729,-0.63882 z m -58.79836,-24.7674 c -6.61255,-3.25853 -10.23544,-12.08751 -7.81231,-19.03853 0.74793,-2.14549 0.73113,-4.19678 -0.0625,-7.6351 -0.90397,-3.91622 -0.85992,-4.84399 0.26373,-5.55497 2.47186,-1.56404 3.69271,-0.94417 3.69271,1.87492 0,3.60838 1.00188,4.09719 4.6587,2.27293 6.86397,-3.4242 16.65411,0.31765 20.15972,7.70518 6.10428,12.86382 -8.08059,26.69275 -20.90002,20.37557 z m 112.5,0 c -6.61255,-3.25853 -10.23544,-12.08751 -7.81231,-19.03853 0.74793,-2.14549 0.73113,-4.19678 -0.0625,-7.6351 -0.90397,-3.91622 -0.85992,-4.84399 0.26373,-5.55497 2.47186,-1.56404 3.69271,-0.94417 3.69271,1.87492 0,3.60838 1.00188,4.09719 4.6587,2.27293 6.86397,-3.4242 16.65411,0.31765 20.15972,7.70518 6.10428,12.86382 -8.08059,26.69275 -20.90002,20.37557 z m -87.62164,-43.97824 c -8.97613,-4.85996 -33.07987,-7.0124 -43.09364,-3.84822 -4.27281,1.35013 -4.45312,1.33297 -4.45312,-0.42397 0,-4.36914 14.92653,-7.3191 28.84597,-5.70089 7.43216,0.86403 10.4258,1.72064 16.15403,4.62239 3.86719,1.959 7.03125,4.15949 7.03125,4.88996 0,1.91988 -1.50411,2.0744 -4.48449,0.46073 z"
       id="path4152"
       inkscape:connector-curvature="0" />
    <path
       style="fill:#4b4f57"
       d="m 406.83734,495.79693 c -3.31471,-7.16351 -11.84977,-19.90261 -18.43523,-27.51568 -5.81725,-6.725 -16.97617,-16.55272 -24.87287,-21.90567 -7.1585,-4.85255 -22.10251,-11.93843 -30.97669,-14.68796 -6.51388,-2.01824 -8.13497,-2.86677 -7.7789,-4.07171 0.2474,-0.83718 0.71999,-2.78778 1.05022,-4.33466 0.33022,-1.54688 0.78012,-3.4864 0.99979,-4.31005 0.21965,-0.82365 2.07412,-1.99933 4.12103,-2.61259 25.5442,-7.65324 53.70033,-33.51292 65.1446,-59.83134 l 3.10481,-7.14015 5.20198,-1.60952 c 2.86109,-0.88524 7.021,-2.67553 9.24422,-3.97843 5.01361,-2.93817 13.02949,-11.30713 15.52776,-16.2117 6.77424,-13.29916 6.37515,-29.27846 -1.04758,-41.94438 -3.26395,-5.56951 -12.61723,-14.05542 -17.876,-16.21831 -3.92334,-1.61363 -4.30604,-2.05592 -4.36952,-5.04978 l -0.0696,-3.28125 -1.21345,3.29127 c -0.66739,1.81019 -2.50129,5.84249 -4.07534,8.96066 -2.6548,5.25913 -4.10159,6.7794 -15.2041,15.97642 -1.22715,1.01654 -1.41039,0.30804 -1.43875,-5.56298 -0.0346,-7.16726 -3.76534,-20.64458 -5.11169,-18.46613 -0.53694,0.86878 -1.33529,0.80569 -3.41525,-0.2699 -7.97783,-4.12549 -33.63105,-4.66627 -43.18006,-0.91024 -3.81268,1.49969 -4.96603,1.64883 -5.33406,0.68978 -0.54306,-1.4152 1.88756,-3.13415 7.85481,-5.55497 2.87432,-1.16605 7.6178,-1.85587 14.88473,-2.16459 11.94222,-0.50735 18.97695,0.619 25.19339,4.03377 2.19141,1.20377 3.97845,1.90196 3.97119,1.55153 -0.0272,-1.31365 -7.83783,-14.97264 -12.69444,-22.19962 -7.95589,-11.83892 -13.10189,-17.90045 -50.28138,-59.22712 l -34.97975,-38.88152 -4.03069,0.42875 c -2.21688,0.23582 -4.19182,0.58991 -4.38877,0.78686 -1.52499,1.52498 -56.91607,98.62251 -59.75204,104.74205 -5.35067,11.5458 -8.39347,21.2742 -9.05502,28.95059 l -0.58598,6.79961 -5.625,-2.69197 c -6.45829,-3.09076 -8.41235,-4.99516 -13.05897,-12.7271 -3.11038,-5.17565 -3.34728,-5.3704 -3.34728,-2.75176 0,2.31054 -0.60553,3.10684 -3.3621,4.42136 -4.51299,2.15209 -13.13935,10.42897 -16.05554,15.40505 -7.72078,13.17452 -7.72078,30.37838 0,43.5529 3.47653,5.93224 12.07009,13.61017 18.24329,16.29948 2.9662,1.29221 5.94679,2.64047 6.62351,2.99614 0.67673,0.35568 2.64193,3.89763 4.36714,7.87102 10.51099,24.2083 35.30389,48.40544 58.97151,57.55443 l 7.03955,2.72123 1.46892,6.47678 c 0.8079,3.56222 1.36003,6.56358 1.22695,6.66969 -0.13309,0.1061 -3.19511,1.14531 -6.80448,2.30937 -7.64151,2.46444 -22.92083,9.86856 -29.31049,14.2034 -8.19963,5.56275 -18.8285,14.90027 -24.71205,21.70966 -6.51291,7.53779 -15.34409,20.58007 -18.09052,26.7169 -2.03071,4.53757 -2.04898,4.53742 -9.78674,-0.0845 -9.01929,-5.3873 -18.01044,-17.84915 -19.47182,-26.98817 -0.51119,-3.19682 -1.08255,-3.72438 -7.63617,-7.05082 -14.19537,-7.2052 -23.89064,-20.36603 -27.13511,-36.83446 -2.491,-12.64402 -1.63391,-16.10316 16.0519,-64.78417 8.52335,-23.46093 15.933,-43.3888 16.46588,-44.28415 0.62867,-1.05631 0.97529,-16.85696 0.98717,-45 0.0194,-45.96529 0.62592,-55.1869 4.67306,-71.04901 4.13288,-16.19812 11.93695,-33.21078 21.9126,-47.76886 6.38486,-9.31781 22.57422,-25.99951 32.35913,-33.34319 52.15026,-39.139417 125.23606,-39.139417 177.38632,0 9.78491,7.34368 25.97426,24.02538 32.35913,33.34319 9.97565,14.55808 17.77972,31.57074 21.9126,47.76886 3.98644,15.62424 4.65366,25.28932 4.67306,67.69229 l 0.0183,40.01538 16.86593,46.19393 c 9.27626,25.40667 17.35227,48.66594 17.94667,51.68726 0.62122,3.15755 0.842,8.58928 0.51926,12.7745 -1.42183,18.43786 -12.38989,34.44455 -29.22812,42.65523 -6.55522,3.19646 -6.80288,3.44058 -7.30754,7.20308 -0.83441,6.22101 -6.10425,15.80135 -11.8553,21.55239 -5.194,5.19399 -14.56934,10.61935 -20.25981,11.72401 -2.69705,0.52356 -2.97404,0.28557 -5.15625,-4.43048 z M 314.79141,377.30002 c -9.54056,-4.97733 -25.92448,-6.54869 -38.17473,-3.66126 -3.32176,0.78295 -6.54883,1.22812 -7.17126,0.98928 -1.07373,-0.41202 -2.3978,-3.78502 -3.54763,-9.03739 -0.3552,-1.62253 -1.52219,-2.74028 -3.67304,-3.51803 -4.10081,-1.48288 -7.40238,-4.95581 -6.34213,-6.67132 0.65582,-1.06115 1.52747,-0.93453 4.94034,0.71761 3.98047,1.92691 5.37871,2.00609 35.42704,2.00609 30.04833,0 31.44657,-0.0792 35.42704,-2.00609 3.41287,-1.65214 4.28452,-1.77876 4.94034,-0.71761 1.06025,1.71551 -2.24132,5.18844 -6.34213,6.67133 -2.15085,0.77775 -3.31784,1.89549 -3.67304,3.51802 -1.21659,5.55734 -2.39962,8.27373 -4.81698,11.06048 l -2.56648,2.95866 -4.42734,-2.30977 z M 291.54787,333.9202 c -2.07081,-1.08072 -4.02968,-3.22566 -5.35108,-5.85937 l -2.08445,-4.15458 1.70513,-18.99568 c 0.93783,-10.44762 1.92154,-19.21208 2.18603,-19.47656 0.26448,-0.26449 1.37247,0.26793 2.46219,1.18318 1.9676,1.65255 1.97196,1.75808 0.62941,15.25781 -1.9403,19.51041 -1.84932,22.84012 0.70177,25.68632 1.16016,1.29436 3.54346,2.70479 5.29623,3.13429 1.99287,0.48833 3.47434,1.55805 3.95417,2.85515 0.70555,1.90728 0.48558,2.07424 -2.73274,2.07424 -1.92501,0 -4.97001,-0.76716 -6.76665,-1.7048 z m -60.0211,-25.71708 c -5.65888,-2.8536 -8.79198,-8.7048 -7.90644,-14.76562 0.33902,-2.32031 0.68267,-7.13329 0.76366,-10.69551 0.16284,-7.16192 1.85962,-9.34672 3.21042,-4.1338 0.90467,3.49121 1.04183,3.52906 6.45578,1.78129 7.29251,-2.35423 15.11855,0.95202 18.17123,7.67676 2.36693,5.21413 2.29833,8.75473 -0.2683,13.84449 -2.35421,4.66855 -8.29028,8.40177 -13.35937,8.40177 -1.58618,0 -4.76632,-0.94922 -7.06698,-2.10938 z m 112.5,0 c -5.65888,-2.8536 -8.79198,-8.7048 -7.90644,-14.76562 0.33902,-2.32031 0.68267,-7.13329 0.76366,-10.69551 0.16284,-7.16192 1.85962,-9.34672 3.21042,-4.1338 0.90467,3.49121 1.04183,3.52906 6.45578,1.78129 7.29251,-2.35423 15.11855,0.95202 18.17123,7.67676 2.36693,5.21413 2.29833,8.75473 -0.2683,13.84449 -2.35421,4.66855 -8.29028,8.40177 -13.35937,8.40177 -1.58617,0 -4.76632,-0.94922 -7.06698,-2.10938 z m -88.29197,-43.8757 c -4.66718,-2.46453 -13.67927,-4.47414 -23.30183,-5.19611 -7.06974,-0.53043 -13.03732,0.041 -20.81548,1.99319 -1.95134,0.48976 -2.55499,0.30093 -2.55499,-0.79926 0,-2.09328 8.87843,-5.12501 17.0179,-5.81112 4.46446,-0.37632 9.6009,-0.0914 14.59708,0.80965 10.52825,1.8988 21.98115,7.45669 20.45482,9.92636 -0.81807,1.32365 -1.29921,1.24141 -5.3975,-0.92271 z"
       id="path4150"
       inkscape:connector-curvature="0" />
    <path
       style="fill:#2e2626"
       d="m 406.50914,494.78147 c -13.49349,-28.2694 -42.52816,-53.12314 -73.87803,-63.23978 -4.28305,-1.38213 -7.87555,-2.55842 -7.98334,-2.61394 -0.1078,-0.0555 0.52501,-2.52469 1.40625,-5.48702 l 1.60223,-5.38605 7.59927,-3.06301 c 20.6849,-8.33738 38.61191,-22.56909 51.08387,-40.55394 1.75219,-2.52669 5.5099,-9.18876 8.35048,-14.8046 4.87241,-9.63278 5.37661,-10.27407 8.90929,-11.33183 11.79478,-3.5316 21.22524,-11.65779 26.60734,-22.92744 3.28381,-6.87601 3.38725,-7.42186 3.38725,-17.87386 0,-10.452 -0.10344,-10.99785 -3.38725,-17.87386 -4.09867,-8.58227 -10.87735,-15.70554 -18.7069,-19.65789 -5.04643,-2.54742 -5.56521,-3.08897 -5.59571,-5.84112 -0.0302,-2.72465 -0.3038,-2.41318 -2.68831,3.06037 -4.18729,9.61176 -6.21714,12.4392 -12.60544,17.55847 l -5.97759,4.79014 -0.53408,-7.18993 c -0.65634,-8.83569 -3.19792,-16.39479 -9.26959,-27.56929 C 364.30876,235.41532 359.57379,229.51691 314.18634,179.23386 281.93537,143.50419 280.93435,142.5 277.56865,142.5 c -1.90315,0 -4.12702,0.52734 -4.94192,1.17187 -1.74991,1.38405 -52.14377,88.54286 -58.42326,101.04605 -6.08227,12.11052 -10.78879,26.64786 -10.88704,33.62753 l -0.0794,5.63968 -6.37583,-3.21082 c -6.55493,-3.30101 -8.50785,-5.35641 -13.23596,-13.93057 l -2.65379,-4.81249 -0.017,3.37325 c -0.0153,3.03377 -0.40209,3.54689 -3.84362,5.09881 -6.18198,2.78768 -13.73808,10.97315 -17.6059,19.07236 -3.31144,6.93416 -3.41121,7.45841 -3.41121,17.92433 0,10.46592 0.0998,10.99017 3.41122,17.92433 4.53886,9.50435 11.49507,16.37583 20.8305,20.57678 l 6.94468,3.1251 3.41571,7.58409 c 11.61137,25.78135 31.98829,45.76751 58.34329,57.22449 l 7.27886,3.16424 1.71574,6.26325 c 0.94365,3.44478 1.59632,6.31492 1.45037,6.37809 -0.14595,0.0632 -3.2185,1.10268 -6.82787,2.31002 -29.83729,9.9806 -56.9629,33.16746 -71.72355,61.30898 -1.28466,2.44922 -2.75833,4.44917 -3.27484,4.44434 -2.12337,-0.0199 -10.72826,-5.74886 -14.72715,-9.80504 -4.90644,-4.97674 -9.46157,-12.98676 -11.10842,-19.53374 -1.0811,-4.29787 -1.42516,-4.65098 -7.52434,-7.72248 -8.72972,-4.39622 -17.59857,-12.88408 -21.75281,-20.81833 -5.29384,-10.11082 -6.55854,-15.78471 -6.08604,-27.30419 l 0.40868,-9.96368 16.28913,-44.0625 16.28913,-44.0625 0.59546,-47.34375 c 0.61563,-48.94735 0.92774,-53.13278 5.19493,-69.66364 3.87507,-15.01174 12.61112,-33.56692 22.25257,-47.26392 7.42577,-10.54932 24.09662,-27.22017 34.64594,-34.64594 34.11596,-24.014547 76.55657,-32.53974 117.65897,-23.634568 18.22354,3.948277 37.60966,12.531108 53.38365,23.634568 10.54932,7.42577 27.22017,24.09662 34.64594,34.64594 11.07883,15.739 19.68688,35.16286 23.61218,53.28028 3.12572,14.42702 3.87521,27.28228 3.87603,66.48258 l 7.9e-4,37.05406 16.91753,46.38344 c 19.22494,52.70977 20.06898,56.0401 17.45789,68.88345 -3.36834,16.56796 -13.4986,29.986 -27.78482,36.8024 -7.18415,3.42778 -7.37098,3.60317 -7.9662,7.47857 -0.94401,6.14633 -6.52808,16.3236 -11.90864,21.70416 -4.66204,4.66204 -15.11007,10.6196 -20.46576,11.66977 -2.09101,0.41 -2.63595,-0.1526 -5.05336,-5.21718 z"
       id="path4148"
       inkscape:connector-curvature="0" />
  </g>
</svg>
