<?xml version="1.0" encoding="UTF-8" standalone="no"?>
<!-- Created with Inkscape (http://www.inkscape.org/) -->

<svg
   xmlns:dc="http://purl.org/dc/elements/1.1/"
   xmlns:cc="http://creativecommons.org/ns#"
   xmlns:rdf="http://www.w3.org/1999/02/22-rdf-syntax-ns#"
   xmlns:svg="http://www.w3.org/2000/svg"
   xmlns="http://www.w3.org/2000/svg"
   xmlns:sodipodi="http://sodipodi.sourceforge.net/DTD/sodipodi-0.dtd"
   xmlns:inkscape="http://www.inkscape.org/namespaces/inkscape"
   id="svg5797"
   version="1.1"
   inkscape:version="0.91 r13725"
   width="390"
   height="435.9375"
   viewBox="0 0 390 435.9375"
   sodipodi:docname="Joy.svg">
  <metadata
     id="metadata5803">
    <rdf:RDF>
      <cc:Work
         rdf:about="">
        <dc:format>image/svg+xml</dc:format>
        <dc:type
           rdf:resource="http://purl.org/dc/dcmitype/StillImage" />
        <dc:title></dc:title>
      </cc:Work>
    </rdf:RDF>
  </metadata>
  <defs
     id="defs5801" />
  <sodipodi:namedview
     pagecolor="#ffffff"
     bordercolor="#666666"
     borderopacity="1"
     objecttolerance="10"
     gridtolerance="10"
     guidetolerance="10"
     inkscape:pageopacity="0"
     inkscape:pageshadow="2"
     inkscape:window-width="1224"
     inkscape:window-height="731"
     id="namedview5799"
     showgrid="false"
     inkscape:zoom="0.54136201"
     inkscape:cx="-0.42458945"
     inkscape:cy="371.93524"
     inkscape:window-x="254"
     inkscape:window-y="280"
     inkscape:window-maximized="0"
     inkscape:current-layer="svg5797" />
  <g
     id="g6959"
     transform="translate(483.96451,199.49682)">
    <path
       style="fill:#fdd0c1"
       d="m -381.24208,184.92495 c -43.09635,-23.96599 -73.1758,-60.08247 -88.09469,-105.77553 -16.00354,-49.01513 -12.67063,-98.27328 9.7436,-144.00376 23.17334,-47.27926 63.26669,-81.41178 112.97902,-96.18202 18.1368,-5.3887 28.93928,-6.8685 50.17743,-6.87364 19.95889,-0.005 26.97845,0.74498 43.59375,4.65659 43.39042,10.21508 83.46841,38.3049 109.05638,76.43531 7.55978,11.26535 17.87518,32.25737 22.07967,44.93251 27.660273,83.38649 -4.31987,174.39275 -77.58512,220.78489 -3.03137,1.91948 -5.22606,3.02799 -4.8771,2.46335 0.34897,-0.56464 -0.27771,-4.09288 -1.39262,-7.84055 -3.54261,-11.9082 -10.76998,-24.60471 -18.89839,-33.19931 l -4.74855,-5.02088 -56.91552,0 -56.91552,0 -4.74854,5.02088 c -11.00191,11.63291 -19.69344,29.76624 -21.36995,44.58461 -0.35512,3.13886 -0.91729,5.70701 -1.24927,5.70701 -0.33199,0 -5.20754,-2.56026 -10.83458,-5.68946 z"
       id="path6381"
       inkscape:connector-curvature="0" />
    <path
       style="fill:#eeb2b1"
       d="m -380.62126,185.01421 c -34.00758,-18.05265 -61.68303,-46.81431 -78.95713,-82.05605 -25.84554,-52.72877 -25.85931,-115.48034 -0.0368,-167.8125 9.82562,-19.91271 20.92448,-35.24721 36.75925,-50.7876 16.02397,-15.72608 28.35296,-24.44655 48.13801,-34.04871 27.44675,-13.32057 48.71762,-18.21109 78.75,-18.10593 31.22398,0.10933 54.25915,5.39531 80.78569,18.53826 18.99869,9.41316 31.43107,18.29779 47.03982,33.61638 28.59736,28.06571 46.20237,61.9416 53.70446,103.33905 2.42619,13.388 2.90138,42.4206 0.91983,56.19855 -6.03351,41.95174 -23.07947,77.38282 -51.13188,106.28083 -10.86566,11.19317 -19.28512,18.30637 -30.51533,25.78093 l -7.92436,5.27426 -1.99721,-6.92025 c -5.04859,-17.49311 -17.78287,-35.40797 -32.78698,-46.12547 -5.60401,-4.00297 -15.85325,-8.99084 -23.01431,-11.20009 l -5.23277,-1.61436 0.93193,-4.07254 c 0.85773,-3.74833 1.27713,-4.18719 5.26819,-5.51281 10.16793,-3.37725 24.69858,-13.86435 32.02218,-23.11115 l 2.94395,-3.71704 -2.39207,0.60037 c -1.31563,0.3302 -3.23007,0.33439 -4.25431,0.009 -1.65486,-0.52522 -1.34826,-1.07182 2.75302,-4.90808 5.78538,-5.41156 9.90874,-13.68087 11.13271,-22.32642 0.51097,-3.60937 0.93741,-23.38573 0.94762,-43.94745 l 0.0186,-37.38501 -2.84618,-5.74005 c -1.56541,-3.15702 -4.41307,-7.84942 -6.32813,-10.42754 l -3.48194,-4.6875 -0.46875,15.9375 c -0.49805,16.93393 -1.07549,19.29181 -5.7703,23.56221 -3.84667,3.49894 -7.9823,5.03154 -13.57729,5.03154 l -5.3782,0 2.4184,-2.57813 c 3.68743,-3.93097 7.12545,-11.55136 8.20045,-18.17634 1.12216,-6.91565 1.31122,-21.43975 0.27882,-21.41868 -2.38032,0.0486 -2.87189,2.14227 -3.18826,13.5794 -0.3169,11.45683 -0.51611,12.55283 -3.32271,18.28125 -5.08617,10.38119 -4.96984,10.3125 -17.46589,10.3125 l -10.78567,0 -3.92388,-4.45313 c -7.43275,-8.43526 -9.33636,-14.42522 -9.35032,-29.42191 -0.01,-10.51371 -0.0861,-10.92662 -2.11952,-11.47156 -1.16016,-0.31092 -2.42578,-0.57106 -2.8125,-0.5781 -0.38672,-0.008 -0.69464,3.25673 -0.68427,7.25282 0.0421,16.23591 3.30174,26.36861 11.00793,34.21875 l 4.37148,4.45313 -14.63327,0 -14.63327,0 -3.04776,-3.47122 c -1.67628,-1.90917 -4.3567,-6.23339 -5.95649,-9.60937 -2.8596,-6.03449 -2.91394,-6.41749 -3.21754,-22.67649 l -0.30881,-16.53832 -2.85525,-0.57105 c -1.57039,-0.31408 -3.22439,-0.57105 -3.67556,-0.57105 -1.07168,0 -1.02516,20.3543 0.0637,27.88279 1.15176,7.96324 4.89962,15.76051 10.14275,21.10158 l 4.37148,4.45313 -7.27694,0 c -7.59704,0 -11.25018,-1.1877 -15.47603,-5.03154 -4.63785,-4.21856 -5.27296,-6.70876 -5.77033,-22.62471 l -0.46875,-15 -3.97999,6.29822 c -7.31828,11.58093 -6.98429,8.79878 -6.57789,54.79387 0.4055,45.89284 0.39392,45.80156 7.12864,56.22147 1.99504,3.0867 5.0396,6.50638 6.76569,7.59926 l 3.13836,1.98707 -2.46662,0.61907 c -1.35664,0.3405 -3.41825,0.31706 -4.58135,-0.0521 -1.93757,-0.61496 -1.86341,-0.35388 0.88531,3.11667 7.13527,9.009 22.3598,20.15731 31.16362,22.81985 3.04276,0.92022 3.43877,1.44297 4.30814,5.68693 0.81849,3.99562 0.74041,4.74874 -0.53828,5.19177 -16.01431,5.54861 -25.45383,11.12457 -35.3378,20.87417 -6.66476,6.57414 -14.53553,17.81439 -18.58028,26.53448 -2.93052,6.31795 -6.1713,18.30905 -6.1713,22.83425 0,1.88963 -0.46469,3.12415 -1.17187,3.1133 -0.64453,-0.01 -5.09398,-2.10002 -9.88767,-4.64471 z M -200.62361,53.11572 c 11.62805,-12.04936 9.66795,-31.59071 -4.17589,-41.63198 l -3.98097,-2.88749 -0.27441,7.70291 c -0.23235,6.52245 9.3e-4,8.00605 1.52347,9.68096 5.21309,5.73547 5.26914,12.07047 0.15848,17.91554 -0.99354,1.1363 -1.8365,4.09108 -2.13967,7.5 -0.27514,3.09375 -0.81052,6.40257 -1.18974,7.35294 -0.65128,1.63218 -0.48724,1.62359 2.95994,-0.15494 2.00719,-1.03558 5.21064,-3.50065 7.11879,-5.47794 z m -161.50355,3.208 c -0.47963,-1.67238 -0.87206,-4.61065 -0.87206,-6.52951 0,-2.55965 -0.51273,-3.76324 -1.92516,-4.51915 -2.84784,-1.52411 -5.56782,-6.54886 -5.56782,-10.28565 0,-3.73679 2.71998,-8.76154 5.56782,-10.28565 1.68239,-0.9004 1.92516,-1.92798 1.92516,-8.14873 l 0,-7.11842 -3.04687,2.32837 c -4.46981,3.41576 -8.93751,9.62167 -10.16746,14.12323 -2.62828,9.61927 -0.26095,20.19675 5.99673,26.79405 2.36417,2.4925 7.84971,6.65908 8.79278,6.67864 0.0929,0.002 -0.22349,-1.3648 -0.70312,-3.03718 z m 68.03419,30.81485 c -1.54687,-0.71843 -3.76135,-2.21512 -4.92107,-3.32597 -2.38085,-2.28054 -5.86018,-8.6654 -5.86018,-10.75391 0,-0.75924 -0.77702,-1.62704 -1.72671,-1.92847 -2.76661,-0.87809 -5.79437,-4.58979 -4.91057,-6.01981 0.62984,-1.0191 1.27762,-0.92786 3.43125,0.48324 2.38795,1.56465 4.7835,1.73951 23.83103,1.73951 19.04754,0 21.44308,-0.17486 23.83104,-1.73951 2.15362,-1.4111 2.80141,-1.50234 3.43125,-0.48324 0.8838,1.43002 -2.14396,5.14172 -4.91057,6.01981 -0.9497,0.30143 -1.72672,1.2008 -1.72672,1.99862 0,2.84623 -4.79106,10.18137 -8.15514,12.48557 -2.89424,1.98238 -4.66142,2.38127 -11.46147,2.58707 -5.36724,0.16244 -8.97452,-0.19088 -10.85214,-1.06291 z m -47.58701,-26.24413 c -7.2771,-2.7155 -8.20979,-6.14653 -2.56924,-9.45131 4.65057,-2.72475 15.98279,-2.72196 20.625,0.005 7.00006,4.11214 2.33049,9.67806 -8.71487,10.38773 -3.58658,0.23043 -7.16755,-0.1305 -9.34089,-0.9415 z m 97.5,0 c -7.2771,-2.7155 -8.20979,-6.14653 -2.56924,-9.45131 4.65057,-2.72475 15.98279,-2.72196 20.625,0.005 7.00006,4.11214 2.33049,9.67806 -8.71487,10.38773 -3.58658,0.23043 -7.16755,-0.1305 -9.34089,-0.9415 z m -45.89115,-11.11583 c -2.58374,-2.7659 -2.77774,-3.4244 -2.27855,-7.73437 0.3001,-2.59109 0.83118,-8.82436 1.18018,-13.85171 0.47594,-6.85597 0.95898,-9.14062 1.93261,-9.14062 2.25642,0 2.68359,3.3706 1.83171,14.45318 -0.45542,5.92477 -0.57037,11.44375 -0.25546,12.2644 0.31491,0.82065 2.05506,2.11151 3.86699,2.86858 4.42399,1.84846 4.37982,4.16384 -0.0794,4.16384 -2.59218,0 -4.0282,-0.70046 -6.19805,-3.0233 z M -329.7785,32.77262 c -3.14741,-3.14741 -3.15385,-3.17239 -2.95313,-11.47248 0.17127,-7.08186 0.44502,-8.36503 1.84179,-8.63322 1.12086,-0.2152 1.64062,0.27934 1.64062,1.56101 0,1.71195 0.44796,1.82977 5.12234,1.34733 4.91172,-0.50693 5.25866,-0.39236 8.4375,2.78649 2.74278,2.74278 3.31516,3.99499 3.31516,7.25266 0,3.22794 -0.5744,4.5119 -3.1875,7.125 -2.61309,2.61309 -3.89705,3.1875 -7.125,3.1875 -3.2198,0 -4.51243,-0.57493 -7.09178,-3.15429 z m 75,0 c -3.14741,-3.14741 -3.15385,-3.17239 -2.95313,-11.47248 0.17127,-7.08186 0.44502,-8.36503 1.84179,-8.63322 1.12086,-0.2152 1.64062,0.27934 1.64062,1.56101 0,1.71195 0.44796,1.82977 5.12234,1.34733 4.91172,-0.50693 5.25866,-0.39236 8.4375,2.78649 2.74278,2.74278 3.31516,3.99499 3.31516,7.25266 0,3.22794 -0.5744,4.5119 -3.1875,7.125 -2.61309,2.61309 -3.89705,3.1875 -7.125,3.1875 -3.2198,0 -4.51243,-0.57493 -7.09178,-3.15429 z M -313.78047,5.11225 c -4.60361,-1.88149 -7.32731,-2.31366 -15,-2.38007 -5.84018,-0.0505 -10.135,0.35321 -11.39066,1.07087 -1.67625,0.95804 -2.11037,0.90521 -2.57812,-0.31374 -0.30936,-0.80616 -0.56247,-1.60729 -0.56247,-1.78029 0,-0.173 1.89882,-1.03971 4.21962,-1.92602 8.26002,-3.15453 27.08764,-0.50297 31.11738,4.38236 2.34164,2.83884 -0.17302,3.24897 -5.80575,0.94689 z m 49.21875,0.29319 c 0,-0.83008 1.91952,-2.33561 4.45313,-3.49273 6.37547,-2.9117 20.34328,-2.9117 26.71875,0 2.53361,1.15712 4.45312,2.66265 4.45312,3.49273 0,1.7851 -0.25825,1.78692 -6.00837,0.0426 -5.90292,-1.79072 -16.47531,-1.78613 -23.37165,0.0101 -6.5923,1.71711 -6.24498,1.72004 -6.24498,-0.0527 z"
       id="path6379"
       inkscape:connector-curvature="0" />
    <g
       id="g6954">
      <g
         id="g6950">
        <path
           inkscape:connector-curvature="0"
           id="path6936"
           d="m -315.35907,209.25356 c -32.11074,-3.7163 -64.46069,-16.66555 -90.83893,-36.36161 -9.05257,-6.75936 -25.79658,-22.95113 -33.17112,-32.0771 -21.50641,-26.61408 -35.82784,-59.746471 -41.13116,-95.156251 -1.86082,-12.42454 -1.59531,-45.2976997 0.46158,-57.14723 6.01266,-34.638466 19.78108,-65.597096 40.66958,-91.446509 7.37454,-9.12596 24.11855,-25.31774 33.17112,-32.07709 27.42432,-20.47714 59.52662,-33.01185 93.46564,-36.4947 11.73403,-1.20417 34.43883,-0.51196 46.59204,1.42045 29.99578,4.76944 58.36428,16.77622 82.87019,35.07425 9.05256,6.75935 25.79657,22.95113 33.17112,32.07709 20.88849,25.849413 34.65692,56.808043 40.66958,91.446509 2.06015,11.8683303 2.32291,44.73396 0.4569,57.14723 -5.31686,35.3694 -19.69325,68.632731 -41.12648,95.156251 -7.37455,9.12597 -24.11856,25.31774 -33.17112,32.0771 -24.48479,18.28224 -52.65064,30.21094 -82.87019,35.09682 -10.16057,1.64277 -39.44959,2.39541 -49.21875,1.26479 z m 13.35938,-3.49189 c -1.67578,-0.20796 -4.41797,-0.20796 -6.09375,0 -1.67578,0.20796 -0.30469,0.37812 3.04687,0.37812 3.35157,0 4.72266,-0.17016 3.04688,-0.37812 z m 21.07284,-0.006 c -1.94509,-0.20294 -4.89822,-0.19954 -6.5625,0.007 -1.66428,0.2071 -0.0728,0.37315 3.53653,0.36899 3.60938,-0.004 4.97106,-0.1736 3.02597,-0.37655 z m -33.72909,-0.89993 c -0.90234,-0.2358 -2.37891,-0.2358 -3.28125,0 -0.90234,0.23581 -0.16406,0.42874 1.64062,0.42874 1.80469,0 2.54297,-0.19293 1.64063,-0.42874 z m 42.67409,0.0313 c -0.63472,-0.2568 -1.90034,-0.27243 -2.8125,-0.0348 -0.91216,0.23769 -0.39284,0.4478 1.15403,0.46691 1.54688,0.0191 2.29319,-0.17537 1.65847,-0.43218 z m -49.6875,-0.9375 c -0.63472,-0.2568 -1.90034,-0.27243 -2.8125,-0.0348 -0.91216,0.23769 -0.39284,0.4478 1.15403,0.46691 1.54688,0.0191 2.29319,-0.17537 1.65847,-0.43218 z m 56.23216,-0.006 c -0.64453,-0.26007 -1.69922,-0.26007 -2.34375,0 -0.64453,0.26008 -0.11719,0.47287 1.17187,0.47287 1.28907,0 1.81641,-0.21279 1.17188,-0.47287 z m -61.875,-0.9375 c -0.64453,-0.26007 -1.69922,-0.26007 -2.34375,0 -0.64453,0.26008 -0.11719,0.47287 1.17187,0.47287 1.28907,0 1.81641,-0.21279 1.17188,-0.47287 z m 67.5,0 c -0.64453,-0.26007 -1.69922,-0.26007 -2.34375,0 -0.64453,0.26008 -0.11719,0.47287 1.17187,0.47287 1.28907,0 1.81641,-0.21279 1.17188,-0.47287 z m -72.1875,-0.9375 c -0.64453,-0.26007 -1.69922,-0.26007 -2.34375,0 -0.64453,0.26008 -0.11719,0.47287 1.17187,0.47287 1.28907,0 1.81641,-0.21279 1.17188,-0.47287 z m 76.38672,0.0545 c -0.31153,-0.31152 -1.12012,-0.34482 -1.79688,-0.074 -0.74787,0.29927 -0.52573,0.52142 0.56641,0.5664 0.98828,0.0407 1.54199,-0.18087 1.23047,-0.49239 z m -81.77735,-1.30891 c -1.03125,-0.44314 -2.50781,-0.80571 -3.28125,-0.80571 -0.88638,0 -0.7131,0.29785 0.46875,0.80571 1.03125,0.44315 2.50782,0.80572 3.28125,0.80572 0.88639,0 0.7131,-0.29785 -0.46875,-0.80572 z m 85.52735,0.37109 c -0.31153,-0.31152 -1.12012,-0.34482 -1.79688,-0.074 -0.74787,0.29926 -0.52573,0.52141 0.56641,0.5664 0.98828,0.0407 1.54199,-0.18088 1.23047,-0.4924 z m -92.08985,-2.24609 c -1.03125,-0.44314 -2.50781,-0.80571 -3.28125,-0.80571 -0.88638,0 -0.7131,0.29785 0.46875,0.80571 1.03125,0.44315 2.50782,0.80572 3.28125,0.80572 0.88639,0 0.7131,-0.29785 -0.46875,-0.80572 z m 99.58985,0.37109 c -0.31152,-0.31152 -1.12012,-0.34482 -1.79688,-0.074 -0.74787,0.29926 -0.52573,0.52141 0.56641,0.5664 0.98828,0.0407 1.54199,-0.18088 1.23047,-0.4924 z m -106.15235,-2.24609 c -2.57727,-1.10748 -4.05747,-1.10748 -2.34375,0 0.77344,0.49984 2.03907,0.8856 2.8125,0.85725 0.92725,-0.0339 0.76757,-0.32598 -0.46875,-0.85725 z m -4.29687,-1.3236 c -0.75544,-0.74671 -10.59561,-4.25266 -10.9477,-3.90057 -0.19599,0.19599 1.88824,1.21868 4.63161,2.27265 4.78858,1.83972 7.14478,2.44702 6.31609,1.62792 z m 127.59805,-2.075 c 2.09432,-0.83799 3.64092,-1.69055 3.43687,-1.8946 -0.20404,-0.20404 -2.22545,0.45179 -4.49201,1.45739 -5.01904,2.22678 -4.23225,2.5528 1.05514,0.43721 z m -140.51433,-3.06262 c -2.85495,-1.80886 2.05598,-20.88406 8.4735,-32.91306 3.81784,-7.15616 7.82446,-12.67896 13.77254,-18.98437 l 3.3164,-3.51563 56.80696,0 56.80697,0 3.3164,3.51563 c 9.47516,10.04437 15.988,21.09045 19.97608,33.88036 1.34878,4.3256 2.30253,8.01455 2.11943,8.19765 -0.18311,0.1831 -4.72992,2.64664 -10.10402,5.47452 -11.38898,5.99294 -11.87835,6.96932 -0.66807,1.3329 63.13993,-31.74613 102.92821,-96.751681 102.92821,-168.162671 0,-45.628 -15.34483,-88.281235 -44.1898,-122.832129 -47.88381,-57.35589 -127.5208,-79.73677 -198.02583,-55.65245 -59.67433,20.38459 -104.81531,70.508588 -120.19667,133.464939 -3.40591,13.9405 -5.0877,28.82219 -5.0877,45.01964 0,64.15087 32.57499,124.329581 85.78125,158.471431 6.60638,4.23924 23.95806,13.49738 25.3125,13.5057 0.51563,0.003 0.36346,-0.35793 -0.33815,-0.80246 z"
           style="fill:#fdf6eb;fill-opacity:1" />
        <path
           style="fill:#da9090"
           d="m -380.86476,184.72686 c -47.30731,-26.13814 -79.6433,-68.41753 -92.65274,-121.1437 -6.66974,-27.03188 -6.7064,-62.38101 -0.0921,-88.80249 5.1655,-20.63412 14.55539,-42.74657 24.8745,-58.57748 29.3549,-45.03439 75.54199,-74.8825 127.45778,-82.36879 13.40998,-1.93373 38.20033,-1.94175 50.76538,-0.0164 34.90362,5.34821 62.91211,17.65486 89.92245,39.51098 30.91163,25.01298 52.902,60.31261 63.20068,101.45172 6.61975,26.44329 6.60693,59.98158 -0.0337,88.33373 -10.61793,45.33288 -38.83108,86.47372 -76.74563,111.91163 -9.20191,6.17381 -8.95823,6.16701 -10.2743,0.28617 -3.57059,-15.95505 -19.28262,-37.71399 -34.74308,-48.11425 -6.21441,-4.18044 -16.91039,-9.2023 -22.7105,-10.66278 l -4.29535,-1.08158 1.13932,-3.85861 c 0.62662,-2.12224 1.73159,-4.16496 2.45547,-4.53938 0.72389,-0.37442 4.22434,-1.98301 7.77878,-3.57466 3.55445,-1.59164 9.06853,-4.75343 12.25353,-7.0262 5.76184,-4.11155 15.49718,-13.88922 17.43582,-17.51161 0.98556,-1.84153 0.94446,-1.85215 -1.34995,-0.34879 -1.40505,0.92061 -3.14613,1.30309 -4.28558,0.94146 -1.74579,-0.5541 -1.51442,-1.00563 2.56178,-4.99962 5.48092,-5.37037 9.30071,-13.20365 10.50758,-21.54795 0.49957,-3.45405 0.91667,-23.4855 0.92688,-44.51435 l 0.0186,-38.23431 -2.46457,-4.89071 c -1.35552,-2.68988 -4.20318,-7.38246 -6.32813,-10.42792 l -3.86355,-5.5372 -0.46875,16.31846 c -0.36681,12.76971 -0.80616,16.93009 -2.0203,19.13096 -3.39138,6.14757 -9.83783,9.84375 -17.16833,9.84375 -4.72977,0 -5.04769,-0.41369 -2.47526,-3.22083 3.29771,-3.59857 6.78171,-11.60586 7.64373,-17.56765 1.03956,-7.18962 1.16721,-21.40457 0.19204,-21.38467 -2.37613,0.0485 -2.87362,2.15201 -3.21154,13.5794 -0.39619,13.39776 -1.67015,17.69086 -7.39437,24.91828 l -2.91102,3.67547 -10.12068,0 -10.12068,0 -3.95239,-3.83566 c -2.17381,-2.10962 -5.28255,-6.64478 -6.90831,-10.07813 -2.76931,-5.84833 -2.97656,-7.02295 -3.28244,-18.60419 l -0.32652,-12.36172 -2.72196,-0.94888 -2.72197,-0.94888 0.007,8.15435 c 0.0144,16.62284 3.17531,26.44194 11.10124,34.48553 l 4.07706,4.13758 -14.06831,0 -14.06831,0 -4.25524,-4.73285 c -7.0881,-7.88367 -8.43452,-12.67885 -8.84493,-31.50053 l -0.35057,-16.07712 -3.67401,-0.93257 -3.67401,-0.93256 0.007,11.85344 c 0.0123,20.51814 2.65695,29.61496 11.10124,38.18461 l 4.07706,4.13758 -6.6853,0 c -10.37007,0 -16.38478,-3.26628 -19.85316,-10.78125 -1.42929,-3.09687 -1.74019,-6.19924 -1.78504,-17.8125 l -0.0543,-14.0625 -2.3086,2.8125 c -1.26973,1.54687 -3.78582,5.61638 -5.59129,9.04334 l -3.28355,6.23085 0.0186,38.3004 c 0.0102,21.06523 0.42731,41.12644 0.92687,44.58048 1.20688,8.3443 5.02666,16.17757 10.50759,21.54795 4.0762,3.99399 4.30757,4.44552 2.56177,4.99962 -1.13944,0.36164 -2.88052,-0.0208 -4.28557,-0.94147 -2.29441,-1.50335 -2.33551,-1.49273 -1.34996,0.3488 1.94515,3.63452 11.68246,13.40609 17.48568,17.54719 3.21243,2.29234 8.98691,5.62149 12.83218,7.39811 7.27537,3.36143 7.54055,3.72308 8.20178,11.18546 0.0422,0.47616 -2.22708,1.57854 -5.04282,2.44975 -6.49577,2.00982 -18.5658,8.49242 -24.0436,12.9134 -17.17187,13.85892 -29.104,34.23322 -32.36016,55.25549 -0.33943,2.19141 -0.89652,3.98438 -1.23799,3.98438 -0.34146,0 -4.65241,-2.22752 -9.57989,-4.95005 z M -200.76349,53.54695 c 7.70368,-7.70368 9.99771,-20.79671 5.40244,-30.83409 -2.5101,-5.4828 -6.84795,-10.38096 -11.17515,-12.61865 l -2.71302,-1.40295 0,8.09186 c 0,7.26381 0.23987,8.37694 2.34402,10.87759 4.18989,4.97939 4.22945,9.62098 0.1238,14.52207 -1.59052,1.89867 -2.36394,4.24574 -2.72694,8.27538 -0.27869,3.09375 -0.81564,6.61308 -1.19321,7.82073 l -0.68652,2.19573 3.7736,-1.92514 c 2.07548,-1.05883 5.15842,-3.30997 6.85098,-5.00253 z m -161.272,2.6052 c -0.53005,-1.39414 -0.96373,-4.15265 -0.96373,-6.13002 0,-2.8471 -0.67129,-4.26652 -3.22599,-6.82122 -5.56496,-5.56496 -5.56496,-10.85805 0,-16.42301 3.09782,-3.09782 3.22599,-3.50295 3.22599,-10.19647 0,-6.57075 -0.10269,-6.91553 -1.79081,-6.01208 -3.4988,1.8725 -7.93015,7.13667 -10.22236,12.14351 -4.18619,9.14384 -2.72346,20.85721 3.61666,28.9617 2.01675,2.57799 9.35108,7.98528 9.97914,7.35721 0.18966,-0.18965 -0.0889,-1.48548 -0.6189,-2.87962 z m 67.90374,30.51258 c -4.64661,-2.11066 -8.45345,-6.48217 -9.92655,-11.39894 -0.76796,-2.56322 -2.07308,-4.27042 -4.24373,-5.55113 -2.86893,-1.69272 -3.90913,-3.63831 -2.62938,-4.91806 0.27791,-0.27791 2.05461,0.28459 3.94822,1.25001 3.03433,1.54699 5.73233,1.7553 22.73397,1.7553 17.00165,0 19.69964,-0.20831 22.73397,-1.7553 1.89361,-0.96542 3.67032,-1.52792 3.94823,-1.25001 1.27974,1.27975 0.23955,3.22534 -2.62939,4.91806 -2.17065,1.28071 -3.47576,2.98791 -4.24372,5.55113 -2.5262,8.43167 -9.60475,13.11994 -19.80909,13.11994 -3.91106,0 -7.45083,-0.61644 -9.88253,-1.721 z m 5.53913,-35.5243 c -3.74029,-3.02974 -3.98643,-4.63679 -2.79288,-18.23505 0.62006,-7.06451 1.43173,-13.14892 1.80371,-13.52089 0.37198,-0.37198 1.1624,-0.19025 1.7565,0.40384 0.79274,0.79274 0.85095,4.08534 0.21874,12.3734 -0.97604,12.79589 -0.4182,15.68247 3.20172,16.56769 2.38956,0.58433 3.8604,1.85791 3.89126,3.36936 0.0279,1.36678 -6.10703,0.63904 -8.07905,-0.95835 z m -41.18456,-18.36648 c -3.14227,-3.14227 -3.15228,-3.18094 -2.95312,-11.40656 0.13272,-5.48152 0.58181,-8.38082 1.33713,-8.63238 0.62551,-0.20835 1.4074,0.69736 1.73752,2.01268 0.49499,1.97219 0.90117,2.23041 2.31669,1.47285 6.3783,-3.41356 14.96474,1.97643 14.96474,9.39387 0,3.22794 -0.5744,4.5119 -3.1875,7.125 -2.61309,2.61309 -3.89705,3.1875 -7.125,3.1875 -3.21948,0 -4.51245,-0.57495 -7.09046,-3.15296 z m 75,0 c -3.14227,-3.14227 -3.15228,-3.18094 -2.95312,-11.40656 0.13272,-5.48152 0.58181,-8.38082 1.33713,-8.63238 0.62551,-0.20835 1.4074,0.69736 1.73752,2.01268 0.49499,1.97219 0.90117,2.23041 2.31669,1.47285 6.3783,-3.41356 14.96474,1.97643 14.96474,9.39387 0,3.22794 -0.5744,4.5119 -3.1875,7.125 -2.61309,2.61309 -3.89705,3.1875 -7.125,3.1875 -3.21948,0 -4.51245,-0.57495 -7.09046,-3.15296 z m -57.73858,-27.4219 c -5.57593,-2.94685 -18.68335,-4.05498 -25.51773,-2.15732 -5.04333,1.40036 -6.56306,-0.27505 -2.33907,-2.57867 2.46992,-1.347 5.18935,-1.7177 12.52959,-1.70796 8.18853,0.0109 10.05722,0.33058 14.76563,2.52625 3.17437,1.48031 5.39062,3.1133 5.39062,3.97195 0,1.74151 -1.46223,1.72508 -4.82904,-0.0543 z m 48.6082,0.91651 c -1.30608,-1.30607 -0.56636,-2.02353 4.20054,-4.0742 4.25286,-1.82953 6.08335,-2.04187 14.76562,-1.7129 10.324,0.39116 16.00468,2.16614 16.00468,5.00077 0,0.7602 -0.10547,1.37761 -0.23437,1.37203 -0.12891,-0.006 -2.34375,-0.65588 -4.92188,-1.44511 -7.49849,-2.29549 -20.94139,-1.85005 -27.70521,0.91802 -0.80037,0.32756 -1.74959,0.30118 -2.10938,-0.0586 z"
           id="path6377"
           inkscape:connector-curvature="0" />
      </g>
    </g>
    <path
       style="fill:#e2887e"
       d="m -210.57255,159.91128 c -5.166,-10.87132 -18.06266,-25.6161 -28.61302,-32.71334 -5.9824,-4.02437 -16.65023,-9.07564 -22.42214,-10.61701 -4.06202,-1.08474 -4.07483,-1.1017 -3.43173,-4.54329 0.72505,-3.88015 1.98776,-5.79823 3.81709,-5.79823 0.67913,0 5.16263,-1.99027 9.96334,-4.42281 7.22985,-3.66341 10.29799,-5.98175 17.86917,-13.50229 8.82672,-8.76767 11.73609,-12.88125 6.84277,-9.67501 -1.29616,0.84927 -3.09953,1.25116 -4.1369,0.92191 -1.63748,-0.51973 -1.35279,-1.06997 2.59731,-5.02007 5.17434,-5.17435 8.86915,-12.43705 10.3125,-20.27079 0.63689,-3.45667 1.02494,-20.45198 1.02494,-44.88874 l 0,-39.32595 -3.81071,-7.1425 c -2.09589,-3.92838 -5.03767,-8.61906 -6.53728,-10.42375 l -2.72657,-3.28125 -0.0458,15.46875 c -0.0383,12.9397 -0.32719,16.08819 -1.76682,19.25753 -3.1547,6.94506 -10.5527,11.24547 -18.20471,10.58231 l -3.56064,-0.30859 2.95716,-4.0096 c 5.33582,-7.23478 6.76992,-12.44624 7.24203,-26.31733 0.4183,-12.29002 0.39228,-12.4964 -1.45102,-11.5099 -1.6991,0.90933 -1.91478,2.18402 -2.27608,13.45193 -0.36423,11.3599 -0.62867,12.89789 -3.0267,17.60365 -1.44517,2.83594 -3.65655,6.52734 -4.91418,8.20312 l -2.28659,3.04688 -10.08159,0 c -10.07169,0 -10.08483,-0.003 -13.38393,-3.04688 -7.80436,-7.20063 -11.10203,-16.49002 -11.11642,-31.31453 l -0.0101,-10.45517 -2.8125,-0.98045 -2.8125,-0.98043 0.0139,9.5606 c 0.0231,15.89684 3.26333,25.49405 11.33161,33.56232 l 3.65451,3.65454 -13.98979,0 -13.98981,0 -4.20864,-4.81112 c -7.16173,-8.18692 -8.43914,-12.71951 -8.85568,-31.42226 l -0.35806,-16.07712 -3.67401,-0.93257 -3.67401,-0.93256 0.0139,13.25969 c 0.0208,19.894 2.66758,28.59738 11.33161,37.2614 l 3.65451,3.65454 -6.59261,0 c -10.27091,0 -16.30372,-3.29148 -19.76047,-10.78125 -1.44159,-3.12349 -1.73418,-6.1597 -1.75133,-18.17331 l -0.0206,-14.4233 -1.82579,2.32111 c -1.00418,1.27662 -3.5295,5.4468 -5.61181,9.26706 l -3.78603,6.94594 -0.0132,39.43719 c -0.008,24.57612 0.37303,41.53343 1.01175,45 1.45975,7.92273 5.18834,15.18705 10.40191,20.26583 4.09615,3.99021 4.3321,4.44604 2.58795,4.99962 -1.12882,0.35827 -2.86536,-0.0109 -4.21695,-0.8965 -4.88269,-3.19927 -1.99065,0.90163 6.84277,9.70298 8.04323,8.01403 10.33754,9.69979 19.11015,14.04123 10.53655,5.21438 10.47999,5.15 11.14814,12.69038 0.0422,0.47616 -2.22708,1.57854 -5.04282,2.44975 -6.49577,2.00982 -18.5658,8.49242 -24.04359,12.9134 -8.83963,7.1342 -19.8416,20.49275 -23.5026,28.53674 -0.64536,1.41797 -1.63863,2.57813 -2.20727,2.57813 -0.56865,0 -3.17834,-1.44415 -5.79931,-3.20921 -5.16487,-3.47822 -9.83289,-9.94964 -11.65426,-16.15666 -0.93648,-3.19139 -1.82874,-4.20609 -4.92716,-5.60328 -8.83421,-3.98369 -17.3039,-16.00344 -18.86963,-26.77885 -1.03027,-7.09033 0.76062,-13.65502 11.842,-43.40825 l 10.47496,-28.125 0.58467,-34.6875 c 0.63235,-37.51716 0.96965,-40.20838 6.8705,-54.8174 12.71667,-31.48332 41.92932,-54.62108 75.81628,-60.05 10.22564,-1.63821 31.01921,-0.73305 40.34888,1.75642 37.7301,10.06768 65.24029,39.41419 72.41798,77.25194 1.06978,5.63943 1.41749,14.45435 1.41749,35.9352 l 0,28.46278 11.22114,30.91279 c 6.17163,17.00203 11.61261,33.36202 12.09109,36.35553 2.28461,14.2931 -5.72739,29.8707 -18.42125,35.81619 -4.06469,1.90379 -4.6676,2.5902 -5.71151,6.50251 -2.4853,9.31431 -9.73534,17.08972 -18.97454,20.34949 -2.13299,0.75257 -3.95792,1.3683 -4.05541,1.3683 -0.0975,0 -0.92902,-1.58203 -1.84785,-3.51563 z m 9.80906,-106.36433 c 7.78148,-7.78148 10.07056,-20.69747 5.4499,-30.75075 -2.55636,-5.56194 -6.88132,-10.45702 -11.22261,-12.70199 l -2.71302,-1.40295 0,8.31627 c 0,7.11786 0.26944,8.56012 1.86974,10.00837 4.04697,3.66244 4.119,11.48243 0.14608,15.85801 -1.14015,1.25571 -1.97406,3.97909 -2.32231,7.58425 -0.29886,3.09375 -0.83339,6.61308 -1.18786,7.82073 l -0.6445,2.19573 3.7736,-1.92514 c 2.07548,-1.05883 5.15842,-3.30997 6.85098,-5.00253 z m -161.31426,2.01156 c -0.50681,-1.76714 -0.92147,-4.61409 -0.92147,-6.32656 0,-2.30183 -0.72611,-3.72458 -2.78507,-5.45708 -5.43767,-4.5755 -5.43767,-12.99543 0,-17.57092 2.63854,-2.22019 2.78507,-2.71835 2.78507,-9.46825 0,-6.7226 -0.10108,-7.07066 -1.79081,-6.16635 -3.51137,1.87923 -7.93388,7.14451 -10.26982,12.22685 -4.22191,9.18573 -2.76623,20.65852 3.66412,28.87836 1.94477,2.48597 9.34203,7.99433 9.93688,7.39948 0.16642,-0.16641 -0.1121,-1.7484 -0.6189,-3.51553 z m 68.92228,31.11934 c -4.63786,-2.11224 -10.37484,-8.32887 -11.21458,-12.15218 -0.41635,-1.89563 -1.7155,-3.50326 -3.84763,-4.76125 -2.94215,-1.73591 -4.00322,-3.67833 -2.71373,-4.96782 0.27791,-0.27791 2.05461,0.28459 3.94822,1.25001 3.03433,1.54699 5.73233,1.7553 22.73397,1.7553 17.00165,0 19.69964,-0.20831 22.73397,-1.7553 1.89361,-0.96542 3.67032,-1.52792 3.94823,-1.25001 1.2692,1.26921 0.25126,3.21849 -2.54157,4.86695 -2.16236,1.27631 -3.52277,3.13966 -4.68618,6.41859 -3.59333,10.12746 -17.76414,15.42175 -28.3607,10.59571 z m 4.56285,-35.53742 c -2.60631,-2.11119 -4.11949,-5.14762 -3.68628,-7.39709 0.19035,-0.98843 0.64953,-6.47895 1.02041,-12.20117 0.7227,-11.15064 1.45986,-13.72717 3.37853,-11.8085 0.86001,0.86 0.92622,3.86987 0.27341,12.42806 -0.97604,12.79589 -0.4182,15.68247 3.20172,16.56769 2.38956,0.58433 3.8604,1.85791 3.89126,3.36936 0.0279,1.36678 -6.10703,0.63904 -8.07905,-0.95835 z m -41.18456,-18.36648 c -3.14227,-3.14227 -3.15228,-3.18094 -2.95312,-11.40656 0.13272,-5.48152 0.58181,-8.38082 1.33713,-8.63238 0.62551,-0.20835 1.4074,0.69736 1.73752,2.01268 0.49499,1.97219 0.90117,2.23041 2.31669,1.47285 6.3783,-3.41356 14.96474,1.97643 14.96474,9.39387 0,3.22794 -0.5744,4.5119 -3.1875,7.125 -2.61309,2.61309 -3.89705,3.1875 -7.125,3.1875 -3.21948,0 -4.51245,-0.57495 -7.09046,-3.15296 z m 75,0 c -3.14227,-3.14227 -3.15228,-3.18094 -2.95312,-11.40656 0.13272,-5.48152 0.58181,-8.38082 1.33713,-8.63238 0.62551,-0.20835 1.4074,0.69736 1.73752,2.01268 0.49499,1.97219 0.90117,2.23041 2.31669,1.47285 6.3783,-3.41356 14.96474,1.97643 14.96474,9.39387 0,3.22794 -0.5744,4.5119 -3.1875,7.125 -2.61309,2.61309 -3.89705,3.1875 -7.125,3.1875 -3.21948,0 -4.51245,-0.57495 -7.09046,-3.15296 z M -313.70216,4.85213 c -5.99348,-2.36723 -17.78499,-3.27855 -23.57072,-1.82169 -5.72393,1.4413 -7.55476,0.0153 -3.09968,-2.41438 2.48226,-1.35374 5.15264,-1.712 12.52959,-1.68101 8.11425,0.0341 10.09993,0.37383 14.76563,2.52626 3.18592,1.46977 5.39062,3.08322 5.39062,3.94499 0,1.76228 -0.1963,1.7442 -6.01544,-0.55417 z m 49.65761,1.15313 c -0.76733,-1.24157 4.59922,-4.57567 8.5743,-5.32699 1.64875,-0.31163 6.71125,-0.40761 11.25,-0.2133 8.62725,0.36934 15.28353,2.59049 15.28353,5.10001 0,0.71468 -0.10547,1.29486 -0.23437,1.28928 -0.12891,-0.006 -2.34375,-0.65588 -4.92188,-1.44511 -7.54638,-2.31015 -20.91762,-1.85181 -27.79579,0.95278 -0.85019,0.34667 -1.82029,0.18617 -2.15579,-0.35667 z"
       id="path6375"
       inkscape:connector-curvature="0" />
    <path
       style="fill:#aa938d"
       d="m -210.57255,159.91128 c -5.166,-10.87132 -18.06266,-25.6161 -28.61302,-32.71334 -5.9824,-4.02437 -16.65023,-9.07564 -22.42214,-10.61701 -4.06202,-1.08474 -4.07483,-1.1017 -3.43173,-4.54329 0.72505,-3.88015 1.98776,-5.79823 3.81709,-5.79823 0.67913,0 5.16263,-1.99027 9.96334,-4.42281 7.22985,-3.66341 10.29799,-5.98175 17.86917,-13.50229 8.82672,-8.76767 11.73609,-12.88125 6.84277,-9.67501 -1.29616,0.84927 -3.09953,1.25116 -4.1369,0.92191 -1.63748,-0.51973 -1.35279,-1.06997 2.59731,-5.02007 5.17434,-5.17435 8.86915,-12.43705 10.3125,-20.27079 0.63689,-3.45667 1.02494,-20.45198 1.02494,-44.88874 l 0,-39.32595 -3.81071,-7.1425 c -2.09589,-3.92838 -5.03767,-8.61906 -6.53728,-10.42375 l -2.72657,-3.28125 -0.0458,15.46875 c -0.0383,12.9397 -0.32719,16.08819 -1.76682,19.25753 -3.1547,6.94506 -10.5527,11.24547 -18.20471,10.58231 l -3.56064,-0.30859 2.95716,-4.0096 c 5.33582,-7.23478 6.76992,-12.44624 7.24203,-26.31733 0.4183,-12.29002 0.39228,-12.4964 -1.45102,-11.5099 -1.6991,0.90933 -1.91478,2.18402 -2.27608,13.45193 -0.36423,11.3599 -0.62867,12.89789 -3.0267,17.60365 -1.44517,2.83594 -3.65655,6.52734 -4.91418,8.20312 l -2.28659,3.04688 -10.08159,0 c -10.07169,0 -10.08483,-0.003 -13.38393,-3.04688 -7.80436,-7.20063 -11.10203,-16.49002 -11.11642,-31.31453 l -0.0101,-10.45517 -2.8125,-0.98045 -2.8125,-0.98043 0.0139,9.5606 c 0.0231,15.89684 3.26333,25.49405 11.33161,33.56232 l 3.65451,3.65454 -13.98979,0 -13.98981,0 -4.20864,-4.81112 c -7.16173,-8.18692 -8.43914,-12.71951 -8.85568,-31.42226 l -0.35806,-16.07712 -3.67401,-0.93257 -3.67401,-0.93256 0.0139,13.25969 c 0.0208,19.894 2.66758,28.59738 11.33161,37.2614 l 3.65451,3.65454 -6.59261,0 c -10.27091,0 -16.30372,-3.29148 -19.76047,-10.78125 -1.44159,-3.12349 -1.73418,-6.1597 -1.75133,-18.17331 l -0.0206,-14.4233 -1.82579,2.32111 c -1.00418,1.27662 -3.5295,5.4468 -5.61181,9.26706 l -3.78603,6.94594 -0.0132,39.43719 c -0.008,24.57612 0.37303,41.53343 1.01175,45 1.45975,7.92273 5.18834,15.18705 10.40191,20.26583 4.09615,3.99021 4.3321,4.44604 2.58795,4.99962 -1.12882,0.35827 -2.86536,-0.0109 -4.21695,-0.8965 -4.88269,-3.19927 -1.99065,0.90163 6.84277,9.70298 8.04323,8.01403 10.33754,9.69979 19.11015,14.04123 10.53655,5.21438 10.47999,5.15 11.14814,12.69038 0.0422,0.47616 -2.22708,1.57854 -5.04282,2.44975 -6.49577,2.00982 -18.5658,8.49242 -24.04359,12.9134 -8.83963,7.1342 -19.8416,20.49275 -23.5026,28.53674 -0.64536,1.41797 -1.63863,2.57813 -2.20727,2.57813 -0.56865,0 -3.17834,-1.44415 -5.79931,-3.20921 -5.16487,-3.47822 -9.83289,-9.94964 -11.65426,-16.15666 -0.93648,-3.19139 -1.82874,-4.20609 -4.92716,-5.60328 -8.83421,-3.98369 -17.3039,-16.00344 -18.86963,-26.77885 -1.03027,-7.09033 0.76062,-13.65502 11.842,-43.40825 l 10.47496,-28.125 0.58467,-34.6875 c 0.63235,-37.51716 0.96965,-40.20838 6.8705,-54.8174 12.71667,-31.48332 41.92932,-54.62108 75.81628,-60.05 10.22564,-1.63821 31.01921,-0.73305 40.34888,1.75642 37.7301,10.06768 65.24029,39.41419 72.41798,77.25194 1.06978,5.63943 1.41749,14.45435 1.41749,35.9352 l 0,28.46278 11.22114,30.91279 c 6.17163,17.00203 11.61261,33.36202 12.09109,36.35553 2.28461,14.2931 -5.72739,29.8707 -18.42125,35.81619 -4.06469,1.90379 -4.6676,2.5902 -5.71151,6.50251 -2.4853,9.31431 -9.73534,17.08972 -18.97454,20.34949 -2.13299,0.75257 -3.95792,1.3683 -4.05541,1.3683 -0.0975,0 -0.92902,-1.58203 -1.84785,-3.51563 z m 9.80906,-106.36433 c 7.78148,-7.78148 10.07056,-20.69747 5.4499,-30.75075 -2.54454,-5.53623 -6.87869,-10.45566 -11.16416,-12.67176 l -2.65456,-1.37272 -0.36213,23.66571 c -0.19917,13.01615 -0.70671,24.65381 -1.12788,25.86146 l -0.76575,2.19573 3.7736,-1.92514 c 2.07548,-1.05883 5.15842,-3.30997 6.85098,-5.00253 z m -161.31426,2.01156 c -0.50681,-1.76714 -0.92147,-12.82826 -0.92147,-24.58027 0,-20.74197 -0.0524,-21.33925 -1.79081,-20.40889 -3.51137,1.87923 -7.93388,7.14451 -10.26982,12.22685 -4.22191,9.18573 -2.76623,20.65852 3.66412,28.87836 1.94477,2.48597 9.34203,7.99433 9.93688,7.39948 0.16642,-0.16641 -0.1121,-1.7484 -0.6189,-3.51553 z m 90.01603,25.38869 c -5.6606,-3.0494 -14.94801,-4.24741 -22.48525,-2.90043 -3.60127,0.64358 -6.8708,1.20597 -7.26563,1.24975 -0.39482,0.0438 -1.37502,-1.69938 -2.17821,-3.8737 -0.92964,-2.51667 -2.54792,-4.61471 -4.45313,-5.77333 -2.75248,-1.67389 -3.73996,-3.6004 -2.48747,-4.85289 0.27791,-0.27791 2.05461,0.28459 3.94822,1.25001 3.03433,1.54699 5.73233,1.7553 22.73397,1.7553 17.00165,0 19.69964,-0.20831 22.73397,-1.7553 1.89361,-0.96542 3.67032,-1.52792 3.94823,-1.25001 1.27974,1.27975 0.23955,3.22534 -2.62939,4.91806 -2.15698,1.27265 -3.47603,2.98881 -4.22909,5.50229 -0.60192,2.00903 -1.82803,4.51793 -2.72468,5.57533 -1.61199,1.90096 -1.66712,1.90271 -4.91154,0.15492 z m -16.5309,-29.80677 c -2.60631,-2.11119 -4.11949,-5.14762 -3.68628,-7.39709 0.19035,-0.98843 0.64953,-6.47895 1.02041,-12.20117 0.7227,-11.15064 1.45986,-13.72717 3.37853,-11.8085 0.86001,0.86 0.92622,3.86987 0.27341,12.42806 -0.97604,12.79589 -0.4182,15.68247 3.20172,16.56769 2.38956,0.58433 3.8604,1.85791 3.89126,3.36936 0.0279,1.36678 -6.10703,0.63904 -8.07905,-0.95835 z m -41.18456,-18.36648 c -3.14227,-3.14227 -3.15228,-3.18094 -2.95312,-11.40656 0.13272,-5.48152 0.58181,-8.38082 1.33713,-8.63238 0.62551,-0.20835 1.4074,0.69736 1.73752,2.01268 0.49499,1.97219 0.90117,2.23041 2.31669,1.47285 6.3783,-3.41356 14.96474,1.97643 14.96474,9.39387 0,3.22794 -0.5744,4.5119 -3.1875,7.125 -2.61309,2.61309 -3.89705,3.1875 -7.125,3.1875 -3.21948,0 -4.51245,-0.57495 -7.09046,-3.15296 z m 75,0 c -3.14227,-3.14227 -3.15228,-3.18094 -2.95312,-11.40656 0.13272,-5.48152 0.58181,-8.38082 1.33713,-8.63238 0.62551,-0.20835 1.4074,0.69736 1.73752,2.01268 0.49499,1.97219 0.90117,2.23041 2.31669,1.47285 6.3783,-3.41356 14.96474,1.97643 14.96474,9.39387 0,3.22794 -0.5744,4.5119 -3.1875,7.125 -2.61309,2.61309 -3.89705,3.1875 -7.125,3.1875 -3.21948,0 -4.51245,-0.57495 -7.09046,-3.15296 z M -313.70216,4.85213 c -5.99348,-2.36723 -17.78499,-3.27855 -23.57072,-1.82169 -5.72393,1.4413 -7.55476,0.0153 -3.09968,-2.41438 2.48226,-1.35374 5.15264,-1.712 12.52959,-1.68101 8.11425,0.0341 10.09993,0.37383 14.76563,2.52626 3.18592,1.46977 5.39062,3.08322 5.39062,3.94499 0,1.76228 -0.1963,1.7442 -6.01544,-0.55417 z m 49.65761,1.15313 c -0.76733,-1.24157 4.59922,-4.57567 8.5743,-5.32699 1.64875,-0.31163 6.71125,-0.40761 11.25,-0.2133 8.62725,0.36934 15.28353,2.59049 15.28353,5.10001 0,0.71468 -0.10547,1.29486 -0.23437,1.28928 -0.12891,-0.006 -2.34375,-0.65588 -4.92188,-1.44511 -7.54638,-2.31015 -20.91762,-1.85181 -27.79579,0.95278 -0.85019,0.34667 -1.82029,0.18617 -2.15579,-0.35667 z"
       id="path6373"
       inkscape:connector-curvature="0" />
    <path
       style="fill:#9c706e"
       d="m -210.24785,160.46682 c -4.37324,-10.55795 -18.24294,-26.42056 -29.47012,-33.70466 -6.99343,-4.53728 -17.70196,-9.54378 -22.76175,-10.64169 -2.94857,-0.6398 -3.04932,-0.80751 -2.46441,-4.10219 0.76711,-4.32101 0.60824,-4.17525 7.83405,-7.18835 11.30958,-4.71602 21.3606,-12.27946 29.04931,-21.85978 2.61197,-3.25459 4.74905,-6.11305 4.74905,-6.35215 0,-0.2391 -1.16015,0.41516 -2.57812,1.45392 -1.65936,1.21558 -3.33199,1.6872 -4.69349,1.3234 -2.00438,-0.53557 -1.90242,-0.75268 1.94331,-4.13782 5.03297,-4.4302 9.52964,-12.72292 10.87179,-20.04965 0.63197,-3.44994 1.0145,-20.71989 1.00713,-45.46875 l -0.0119,-39.90594 -2.76299,-5.44813 c -1.51965,-2.99647 -4.36196,-7.62912 -6.31626,-10.29477 l -3.55322,-4.84664 -0.46875,16.38852 c -0.43413,15.1785 -0.63302,16.65275 -2.69358,19.96726 -3.32075,5.34152 -8.2733,8.20713 -15.28267,8.84272 l -5.91371,0.53623 2.62808,-3.4456 c 1.44546,-1.89507 3.74695,-5.86524 5.11445,-8.8226 2.22496,-4.81171 2.52598,-6.74178 2.86328,-18.35888 0.36991,-12.73976 0.34202,-12.9632 -1.49526,-11.97991 -1.68712,0.90291 -1.91051,2.18633 -2.25957,12.98189 -0.33918,10.48941 -0.69577,12.6489 -2.86609,17.3569 -1.3633,2.95736 -3.60962,6.8597 -4.99184,8.67188 l -2.51313,3.29488 -10.10716,0 -10.10715,0 -4.71539,-5.15938 c -6.98252,-7.63999 -8.85092,-13.23481 -9.333,-27.94707 -0.38478,-11.74308 -0.44544,-12.03242 -2.70272,-12.89063 -1.27,-0.48286 -2.49257,-0.87792 -2.71682,-0.87792 -0.87295,0 -0.35015,19.86649 0.64639,24.56323 1.44067,6.78995 4.76336,13.06378 9.58225,18.09307 l 4.04224,4.2187 -13.79271,0 -13.79271,0 -3.34974,-3.70776 c -7.73017,-8.55638 -9.96734,-16.37812 -9.98231,-34.90094 -0.01,-12.30457 -0.18518,-13.81349 -1.65175,-14.22249 -0.90235,-0.25165 -2.58985,-0.73038 -3.75,-1.06385 l -2.10938,-0.60632 0,13.61079 c 0,20.19247 2.26043,27.93025 10.74646,36.78677 l 4.15234,4.33362 -7.84678,-0.41186 c -9.09571,-0.4774 -13.7094,-2.82482 -17.48343,-8.89547 -2.0622,-3.31713 -2.24801,-4.70083 -2.54182,-18.9283 l -0.31699,-15.34954 -3.22848,4.54092 c -1.77566,2.4975 -4.26974,6.74195 -5.54239,9.43212 l -2.31391,4.8912 0,39.72963 c 0,24.56838 0.38887,41.85244 1.01902,45.29242 1.34214,7.32673 5.83881,15.61945 10.87178,20.04965 3.84573,3.38514 3.94769,3.60225 1.94332,4.13782 -1.37291,0.36685 -3.04812,-0.11825 -4.77293,-1.38213 -2.37249,-1.73848 -2.55434,-1.76208 -1.69526,-0.21995 2.27263,4.07956 9.53474,11.85822 15.53387,16.63878 5.83873,4.65274 18.61634,11.80739 21.08703,11.80739 1.0492,0 1.89659,2.61409 2.21916,6.84588 0.17995,2.36064 -0.27523,2.79827 -4.48724,4.31429 -19.41347,6.98743 -36.23614,21.01843 -45.33082,37.80829 -1.88054,3.47172 -3.87226,6.31937 -4.42603,6.32813 -2.07907,0.0329 -10.07972,-6.51328 -13.02703,-10.65873 -1.68317,-2.36743 -3.5683,-6.11871 -4.18915,-8.33618 -0.93966,-3.35615 -1.83718,-4.40755 -5.35596,-6.27426 -5.14474,-2.72928 -12.05827,-9.55895 -14.50155,-14.32566 -3.04507,-5.94078 -4.79726,-14.41141 -4.0899,-19.7719 0.35099,-2.65986 5.5346,-18.12517 11.51914,-34.36736 l 10.88097,-29.53125 0.58241,-34.6875 c 0.5694,-33.91246 0.63831,-34.88245 3.08434,-43.41227 9.92959,-34.62659 35.15711,-59.70188 69.74406,-69.3232 8.37713,-2.33033 10.59388,-2.55146 25.57827,-2.55146 14.98439,0 17.20115,0.22113 25.57827,2.55146 34.5882,9.62167 59.83033,34.71284 69.74029,69.3232 2.42891,8.48288 2.51339,9.63444 3.04754,41.53727 l 0.54938,32.8125 11.05539,30 c 11.3293,30.7433 13.08315,37.48199 11.82565,45.43691 -1.6125,10.2006 -9.57087,20.89417 -18.93605,25.44412 -3.63459,1.76582 -4.26534,2.54323 -5.28205,6.51025 -2.19735,8.57358 -10.12788,17.03899 -18.843,20.11387 -2.18414,0.7706 -4.07787,1.4011 -4.2083,1.4011 -0.13043,0 -0.78889,-1.33204 -1.46325,-2.96009 z m 4.96796,-103.00701 c 12.93711,-8.56918 16.57426,-25.96715 8.10245,-38.75725 -2.53769,-3.83123 -9.46751,-9.96315 -11.25955,-9.96315 -0.38136,0 -0.87151,10.4414 -1.08919,23.20312 -0.2177,12.76172 -0.71549,24.36328 -1.10622,25.78125 -0.91137,3.30748 0.0308,3.26101 5.35251,-0.26397 z m -156.3666,-0.20478 c -0.40752,-1.16015 -0.90576,-12.33984 -1.1072,-24.84375 -0.20144,-12.5039 -0.72225,-22.73437 -1.15735,-22.73437 -1.73488,0 -9.63611,8.7338 -11.26354,12.4504 -5.40986,12.35467 -1.79205,26.6937 8.67757,34.39315 4.62166,3.3988 5.85182,3.5851 4.85052,0.73457 z m 88.48938,23.17573 c -1.3759,-0.74723 -5.45274,-1.86465 -9.05964,-2.48316 -5.45771,-0.93589 -7.67531,-0.88467 -13.2174,0.30526 l -6.6594,1.42983 -1.56015,-4.39271 c -1.14918,-3.2356 -2.2557,-4.65524 -4.2007,-5.38939 -2.51985,-0.95114 -4.37336,-3.49513 -3.31651,-4.55199 0.2736,-0.2736 1.78133,0.16647 3.35051,0.97793 2.34297,1.21159 6.55726,1.47538 23.57118,1.47538 17.01392,0 21.22822,-0.26379 23.57118,-1.47538 1.56919,-0.81146 3.07691,-1.25153 3.35051,-0.97793 1.07855,1.07854 -0.82072,3.60993 -3.45433,4.60401 -1.79668,0.67817 -2.96636,1.90467 -3.31043,3.47123 -0.75137,3.42098 -3.9682,8.44765 -5.37752,8.40303 -0.65212,-0.0206 -2.3114,-0.6489 -3.6873,-1.39611 z m -15.98118,-30.49869 -2.86984,-2.86984 0.65457,-10.95828 c 0.8331,-13.94716 1.50481,-17.26752 3.27128,-16.17012 1.12133,0.69661 1.15543,2.64547 0.22356,12.77435 -0.95845,10.41775 -0.91491,12.23424 0.33905,14.14803 0.83885,1.28025 2.36502,2.1957 3.66051,2.1957 1.83741,0 3.35994,1.52162 3.35994,3.35793 0,0.21563 -1.29808,0.39207 -2.88461,0.39207 -1.96793,0 -3.7966,-0.91198 -5.75446,-2.86984 z m -38.45852,-15.47271 c -4.00002,-2.17039 -5.27285,-5.6096 -4.95984,-13.40158 0.29503,-7.3441 1.68755,-10.47733 2.75908,-6.20802 0.47858,1.90684 1.00566,2.33522 2.22823,1.81105 7.20958,-3.09107 15.19512,1.61434 15.19512,8.9536 0,3.17614 -2.63167,7.35834 -5.59431,8.89038 -3.41991,1.76851 -6.31033,1.75487 -9.62828,-0.0455 z m 75,0 c -4.00002,-2.17039 -5.27285,-5.6096 -4.95984,-13.40158 0.29503,-7.3441 1.68755,-10.47733 2.75908,-6.20802 0.47858,1.90684 1.00566,2.33522 2.22823,1.81105 7.20958,-3.09107 15.19512,1.61434 15.19512,8.9536 0,3.17614 -2.63167,7.35834 -5.59431,8.89038 -3.41991,1.76851 -6.31033,1.75487 -9.62828,-0.0455 z M -313.31172,4.71821 c -3.47655,-1.63842 -6.03302,-1.99563 -14.53125,-2.03038 -5.67187,-0.0232 -11.26172,0.30266 -12.42187,0.72413 -1.58651,0.57635 -2.10938,0.42009 -2.10938,-0.63042 0,-3.7671 18.73072,-5.21711 27.14096,-2.10109 4.21981,1.56346 7.54654,3.94031 7.54654,5.39176 0,1.10937 -0.8135,0.91356 -5.625,-1.354 z m 49.17862,1.14377 c -0.62991,-1.01922 2.80571,-3.16361 7.41042,-4.62534 5.19837,-1.65018 19.77728,-0.78777 24.2878,1.43674 3.26806,1.61175 4.43616,4.20489 1.50598,3.3432 -10.53098,-3.09688 -21.2559,-3.31268 -29.16759,-0.58688 -1.95154,0.67235 -3.76801,0.86688 -4.03661,0.43228 z"
       id="path6371"
       inkscape:connector-curvature="0" />
    <path
       style="fill:#4d4f56"
       d="m -212.51936,156.22708 c -6.92532,-12.59907 -15.84353,-22.24696 -27.58621,-29.84325 -6.89754,-4.46201 -17.12731,-9.16417 -22.34677,-10.27181 -1.67578,-0.35563 -3.04688,-0.88053 -3.04688,-1.16646 0,-2.06795 2.37536,-7.76865 3.23702,-7.76865 2.45509,0 17.56427,-8.41633 23.29376,-12.97543 5.4488,-4.33574 15.65672,-15.71657 15.65672,-17.45572 0,-0.34871 -1.16015,0.15057 -2.57812,1.10952 -1.41797,0.95896 -3.51104,1.59329 -4.65127,1.40964 -1.95158,-0.31435 -1.87965,-0.50381 1.22689,-3.23139 4.78125,-4.19799 8.37141,-9.82944 10.60602,-16.63643 1.87061,-5.69818 1.95842,-7.87395 1.94659,-48.2344 l -0.0124,-42.26704 -3.66958,-6.5625 c -2.01827,-3.60938 -4.94867,-8.03906 -6.512,-9.84375 l -2.84243,-3.28125 -0.0587,15 c -0.049,12.54115 -0.34329,15.61471 -1.79488,18.75 -3.26858,7.0598 -10.39598,11.71875 -17.92773,11.71875 l -3.82782,0 2.35413,-3.08643 c 1.29478,-1.69754 3.52722,-5.59988 4.961,-8.67187 2.37936,-5.09805 2.63606,-6.71748 2.94158,-18.55817 0.33363,-12.93002 0.32826,-12.96926 -1.63203,-11.92014 -1.791,0.95851 -1.96676,1.86985 -1.96676,10.19762 0,13.41363 -3.08636,23.31205 -9.33216,29.92961 -1.81495,1.92298 -2.84696,2.10938 -11.67871,2.10938 l -9.68783,0 -3.81075,-4.13418 c -7.58067,-8.22403 -10.49057,-17.2733 -10.49057,-32.62371 0,-8.03456 -0.0737,-8.31653 -2.40478,-9.20281 -1.32262,-0.50287 -2.62871,-0.9143 -2.9024,-0.9143 -0.27369,0 -0.3517,5.80078 -0.17335,12.89062 0.30676,12.19415 0.48458,13.22897 3.29102,19.15276 1.63171,3.44417 4.74403,8.19027 6.91628,10.54688 l 3.94953,4.28474 -13.6401,0 -13.64009,0 -3.43615,-3.98438 c -7.52968,-8.73102 -9.801,-16.95722 -9.8211,-35.56967 -0.007,-7.05941 -0.33026,-13.02151 -0.71698,-13.24913 -0.38672,-0.22761 -2.10898,-0.71553 -3.82725,-1.08428 l -3.12413,-0.67046 0.31163,16.73209 c 0.3082,16.54813 0.34424,16.80092 3.27836,22.99421 1.63171,3.44417 4.74403,8.19027 6.91628,10.54688 l 3.94953,4.28474 -5.97877,-0.0206 c -9.54832,-0.0329 -16.1838,-3.94818 -19.65863,-11.5997 -1.44902,-3.19072 -1.7548,-6.25189 -1.78915,-17.91096 l -0.0414,-14.0625 -1.88313,2.34375 c -1.03571,1.28906 -3.55201,5.29688 -5.59175,8.90625 l -3.70864,6.5625 -0.0124,42.45145 c -0.0118,40.44725 0.0791,42.72301 1.92533,48.20351 2.23576,6.63674 5.91832,12.34839 10.62727,16.48292 3.10654,2.72757 3.17848,2.91704 1.22689,3.23138 -1.14022,0.18366 -3.23329,-0.45067 -4.65126,-1.40963 -3.70489,-2.50558 -3.21391,-1.2745 2.21036,5.54229 6.12216,7.69382 15.94942,15.37284 25.73501,20.10935 7.28556,3.5264 7.75378,3.93732 8.69018,7.6264 1.08026,4.2559 0.79023,5.41858 -1.35164,5.41858 -2.58048,0 -14.38637,5.50947 -21.06819,9.83192 -11.50815,7.44458 -20.50782,17.08659 -27.13743,29.07433 -1.71094,3.09375 -3.20675,5.7599 -3.32402,5.92478 -0.11726,0.16487 -1.85507,-0.53785 -3.86181,-1.56161 -6.78435,-3.46112 -12.25619,-10.98481 -14.83628,-20.39961 -0.15621,-0.57005 -2.53549,-2.32104 -5.28729,-3.89109 -6.36889,-3.63375 -11.20024,-8.69068 -14.54942,-15.22868 -2.37698,-4.64014 -2.64137,-6.09464 -2.64137,-14.53125 l 0,-9.375 10.70881,-28.59375 10.70881,-28.59375 0.61954,-34.21875 c 0.59722,-32.98631 0.70881,-34.5564 3.09826,-43.59375 2.78048,-10.51635 9.81488,-25.51225 15.61184,-33.28125 25.14947,-33.70498 67.69073,-47.83998 108.4407,-36.03111 32.03638,9.28378 57.87963,36.17798 66.60382,69.31236 2.35999,8.96322 2.49482,10.79562 3.06967,41.71875 l 0.60125,32.34375 11.17863,30 11.17865,30 0.0275,8.95583 c 0.0258,8.38896 -0.17814,9.36098 -3.22168,15.35664 -3.53327,6.96043 -9.25193,12.6189 -16.08257,15.91329 -3.40954,1.64441 -4.18242,2.53277 -4.7781,5.49192 -1.03043,5.11887 -3.81625,10.04206 -7.92008,13.99665 -3.59546,3.46471 -10.65841,7.25754 -13.58715,7.29633 -0.95925,0.0127 -2.8728,-2.3776 -4.9968,-6.24174 z m 7.18243,-98.63907 c 16.34933,-10.36844 17.17153,-34.73001 1.55398,-46.04331 -2.12993,-1.54291 -4.19339,-2.80529 -4.58548,-2.80529 -0.39209,0 -0.87968,10.4414 -1.08354,23.20312 -0.23638,14.79759 -0.76781,24.13708 -1.467,25.78125 -1.4646,3.44411 -0.007,3.40865 5.58204,-0.13577 z m -156.27872,-0.33298 c -0.39058,-1.16015 -0.89998,-12.33984 -1.13202,-24.84375 -0.2515,-13.55249 -0.78415,-22.73437 -1.31886,-22.73437 -0.49333,0 -2.92582,2.02884 -5.40552,4.50854 -12.24603,12.24604 -10.87491,32.40853 2.88157,42.37367 4.64858,3.36742 5.93476,3.54734 4.97483,0.69591 z m 87.81115,22.57536 c -5.15883,-2.36829 -15.98863,-3.22836 -22.65328,-1.79904 -4.53708,0.97303 -5.23808,0.91425 -6.29242,-0.52765 -0.65258,-0.89246 -1.18652,-2.58814 -1.18652,-3.76818 0,-1.55924 -1.02469,-2.66826 -3.75,-4.05861 -2.0625,-1.05221 -3.75,-2.2561 -3.75,-2.67531 0,-1.67655 1.30446,-1.87058 3.8223,-0.56855 3.90067,2.01711 42.88443,1.98883 46.79606,-0.0339 1.492,-0.77155 2.93766,-1.03887 3.21258,-0.59405 0.5608,0.90738 -1.66607,3.07694 -4.84656,4.72187 -1.22175,0.63188 -2.11085,1.9647 -2.11288,3.16734 -0.004,2.25571 -3.27323,8.21926 -4.43584,8.09115 -0.3943,-0.0434 -2.55584,-0.9232 -4.80344,-1.95502 z m -12.96819,-27.97498 c -4.4515,-1.79307 -5.28566,-4.7471 -4.57181,-16.19024 0.36093,-5.78574 0.95207,-11.94676 1.31365,-13.69118 0.55726,-2.68844 0.835,-2.95769 1.82298,-1.76724 0.91784,1.10594 0.94062,3.92982 0.10718,13.28749 -0.95869,10.76388 -0.90896,12.04819 0.52804,13.63607 0.87254,0.96413 2.56353,1.9982 3.75777,2.29794 2.99918,0.75275 3.93675,3.39308 1.17687,3.31423 -1.14398,-0.0327 -3.00459,-0.43186 -4.13468,-0.88707 z m -40.40224,-17.3044 c -3.82628,-1.70781 -6.24268,-6.83267 -5.25405,-11.14309 0.3721,-1.62237 0.5778,-4.48887 0.4571,-6.37001 -0.12069,-1.88114 0.23159,-3.699 0.78286,-4.0397 0.55126,-0.3407 1.00876,-0.0672 1.01666,0.60774 0.0332,2.84066 1.36816,3.5466 4.74613,2.50988 4.84538,-1.48709 9.84299,0.82057 11.77118,5.4354 3.67162,8.78741 -4.77064,16.9049 -13.51988,12.99978 z m 75,0 c -3.82628,-1.70781 -6.24268,-6.83267 -5.25405,-11.14309 0.3721,-1.62237 0.5778,-4.48887 0.4571,-6.37001 -0.12069,-1.88114 0.23159,-3.699 0.78286,-4.0397 0.55126,-0.3407 1.00876,-0.0672 1.01666,0.60774 0.0332,2.84066 1.36816,3.5466 4.74613,2.50988 4.84538,-1.48709 9.84299,0.82057 11.77118,5.4354 3.67162,8.78741 -4.77064,16.9049 -13.51988,12.99978 z M -311.74746,4.87157 c -3.57773,-2.0802 -16.43069,-3.64345 -22.67987,-2.75846 -3.30404,0.46791 -6.44374,1.12045 -6.97711,1.4501 -0.53338,0.32964 -0.96978,0.13105 -0.96978,-0.44131 0,-2.18239 6.91738,-4.11959 14.53125,-4.06946 7.79294,0.0513 16.87932,2.64938 19.24813,5.50362 1.40048,1.68747 -0.4709,1.87475 -3.15262,0.31551 z m 48.12324,0.19538 c 0,-2.13024 9.00507,-4.29616 17.8125,-4.28431 7.48407,0.01 9.557,0.35734 12.98148,2.17477 2.24137,1.18954 3.88344,2.35458 3.64903,2.58899 -0.23439,0.2344 -2.89517,-0.2169 -5.91281,-1.0029 -6.96809,-1.81496 -16.60121,-1.82907 -22.52183,-0.033 -5.41423,1.64248 -6.00837,1.6975 -6.00837,0.55645 z"
       id="path6369"
       inkscape:connector-curvature="0" />
    <path
       style="fill:#2e2626"
       d="m -210.55583,159.02117 c -4.84397,-10.1579 -16.46457,-23.7316 -26.36543,-30.7967 -6.79582,-4.8494 -17.55205,-10.13867 -23.95522,-11.77976 -4.93146,-1.2639 -4.88972,-1.15545 -2.70026,-7.01505 0.47514,-1.27164 2.70613,-2.70332 6.31661,-4.05355 10.61517,-3.96981 22.86038,-13.3662 30.70628,-23.56254 4.77791,-6.20924 5.24042,-7.48216 1.70945,-4.70471 -1.3586,1.06868 -3.52917,1.94305 -4.82349,1.94305 -2.21722,0 -2.08114,-0.28779 2.35303,-4.97626 2.58848,-2.73695 5.42506,-6.36611 6.3035,-8.06482 4.08879,-7.90685 4.24139,-9.8663 4.252,-54.59809 l 0.0101,-42.79543 -2.68634,-5.10682 c -1.47748,-2.80874 -4.32514,-7.30487 -6.32812,-9.99138 l -3.64179,-4.88457 -0.52308,15.75556 c -0.58581,17.64439 -1.36105,20.54275 -6.76336,25.28604 -3.15562,2.77067 -9.82987,5.00077 -14.96635,5.00077 -1.93536,0 -1.91949,-0.0886 0.46189,-2.57813 1.35638,-1.41797 3.64761,-5.10937 5.0916,-8.20312 2.42149,-5.188 2.65116,-6.6734 2.95628,-19.11952 0.3022,-12.32623 0.19459,-13.44223 -1.24287,-12.89062 -0.86554,0.33214 -1.75014,0.60389 -1.96579,0.60389 -0.21563,0 -0.39525,3.48047 -0.39915,7.73437 -0.0134,14.64008 -2.69316,24.09424 -8.93057,31.50698 -2.47762,2.94448 -2.48438,2.94615 -11.93139,2.94615 l -9.45236,0 -4.17181,-4.35394 c -7.37658,-7.69862 -10.4454,-17.70796 -10.48822,-34.2086 -0.0171,-6.6213 -0.17625,-7.19853 -2.12794,-7.72156 -1.16016,-0.31092 -2.46534,-0.57106 -2.9004,-0.5781 -0.43507,-0.008 -0.64601,5.99892 -0.46875,13.34657 0.30668,12.71317 0.46399,13.65414 3.25215,19.45313 1.61143,3.35156 4.73575,7.88672 6.94294,10.07812 l 4.01306,3.98438 -13.15166,0 -13.15167,0 -3.95339,-4.28892 c -7.72961,-8.38565 -10.29494,-17.82698 -10.32934,-38.01577 l -0.0186,-10.89844 -2.92968,-0.58593 c -1.61133,-0.32227 -3.33234,-0.58594 -3.82446,-0.58594 -0.54662,0 -0.77461,6.65712 -0.58594,17.10937 0.30599,16.95193 0.3358,17.16546 3.23871,23.20313 1.61143,3.35156 4.73575,7.88672 6.94294,10.07812 l 4.01306,3.98438 -3.84992,0 c -7.99634,0 -13.54847,-1.88179 -17.64819,-5.98151 -4.91352,-4.91351 -5.98152,-9.57452 -5.98152,-26.10465 l 0,-12.30638 -3.30728,4.61814 c -1.81901,2.53998 -4.36608,6.76413 -5.66016,9.387 l -2.35286,4.76887 0.26952,44.47161 0.26953,44.4716 3.19253,6.48294 c 1.75589,3.56562 5.06414,8.30193 7.35167,10.52516 3.89884,3.78924 4.01498,4.04222 1.85577,4.04222 -1.26685,0 -3.41494,-0.87437 -4.77354,-1.94305 -3.53097,-2.77745 -3.06845,-1.50453 1.70945,4.70471 7.5577,9.82179 19.01531,18.79966 29.36707,23.01121 4.98336,2.02745 5.37401,2.42033 6.3981,6.43474 l 1.09067,4.27545 -4.81461,1.57646 c -6.8399,2.23958 -15.15146,6.51408 -21.71326,11.16677 -9.43462,6.68967 -21.82752,20.99251 -25.86248,29.84825 -1.44145,3.16365 -2.36454,3.12326 -7.58062,-0.33174 -5.03726,-3.33655 -8.89965,-8.59801 -11.11452,-15.14058 -1.36902,-4.04396 -2.17302,-4.99602 -5.46296,-6.46897 -9.47389,-4.24159 -17.62384,-16.49718 -18.55741,-27.90595 -0.65687,-8.02742 -0.0147,-10.32093 12.23725,-43.70478 l 9.95814,-27.13371 0,-26.57511 c 0,-14.61631 0.45099,-30.61953 1.00218,-35.56272 2.55405,-22.90488 11.84901,-42.2996 28.02411,-58.4747 21.0457,-21.04571 48.92318,-30.91997 79.19646,-28.05156 23.28237,2.20602 43.10719,11.53278 59.62597,28.05156 16.1751,16.1751 25.47005,35.56982 28.0241,58.4747 0.5512,4.94319 1.00218,20.17878 1.00218,33.85687 l 0,24.86924 11.19351,30.76651 c 6.15643,16.92159 11.47044,32.85416 11.80892,35.40571 0.75605,5.69942 -0.74143,14.27797 -3.43326,19.66782 -2.75294,5.51223 -9.27488,11.91031 -15.40697,15.11433 -3.56879,1.86471 -5.09866,3.22401 -5.10663,4.53729 -0.0197,3.24153 -4.32101,11.2967 -7.99306,14.96875 -3.19836,3.19836 -11.60984,7.96807 -14.092,7.99084 -0.54903,0.005 -1.74248,-1.55154 -2.65212,-3.45908 z m 9.81358,-105.21576 c 8.00944,-8.00411 10.51728,-18.73681 6.8755,-29.42481 -1.63817,-4.8078 -7.89935,-12.33589 -12.46819,-14.99107 l -2.91428,-1.69362 -0.0188,19.03737 c -0.0172,17.31715 -0.70548,26.64133 -2.39073,32.38503 -0.59134,2.0154 -0.49182,2.05475 2.53768,1.0035 1.73424,-0.60178 5.50473,-3.44415 8.37887,-6.3164 z m -159.44447,6.08878 c 0,-0.22425 -0.48666,-1.59534 -1.08148,-3.04688 -0.65368,-1.5952 -1.30265,-11.72475 -1.64062,-25.6079 l -0.55915,-22.96875 -5.69447,5.625 c -6.51221,6.43276 -8.83678,11.73499 -8.83678,20.15625 0,6.65979 2.02465,12.67948 5.80854,17.27 4.03459,4.89466 12.00396,10.58576 12.00396,8.57228 z"
       id="path6367"
       inkscape:connector-curvature="0" />
  </g>
  <ellipse
     style="opacity:0;fill:#f0f0f0;fill-opacity:1;stroke:#ffd1c2;stroke-opacity:1"
     id="path6922"
     cx="219.81595"
     cy="222.58673"
     rx="201.34401"
     ry="187.49007" />
  <path
     style="opacity:0;fill:#f0f0f0;fill-opacity:1;stroke:#ffd1c2;stroke-opacity:1"
     id="path6926"
     sodipodi:type="arc"
     sodipodi:cx="178.2541"
     sodipodi:cy="215.19797"
     sodipodi:rx="180.1013"
     sodipodi:ry="196.72603"
     sodipodi:start="4.6775423"
     sodipodi:end="1.4697641"
     d="M 171.97944,18.591368 A 180.1013,196.72603 0 0 1 357.93991,201.84279 180.1013,196.72603 0 0 1 196.4192,410.92081"
     sodipodi:open="true" />
  <path
     style="opacity:0;fill:#fdf6eb;fill-opacity:1;stroke:#ffd1c2;stroke-width:1.84719276;stroke-opacity:1"
     d="m 130.16949,368.40654 c -21.6282,-4.62581 -57.636371,-18.79056 -54.850192,-21.57674 0.507978,-0.50798 4.409646,0.85486 8.670374,3.02852 4.260727,2.17366 7.940766,3.68631 8.177864,3.36145 0.237098,-0.32487 1.445312,-5.29117 2.684919,-11.03623 2.82293,-13.08309 9.352375,-26.32461 17.911545,-36.32407 l 6.61021,-7.72255 56.22148,0 56.22148,0 5.52884,6.00337 c 5.73025,6.22209 17.87267,29.12882 18.81723,35.49879 0.399,2.69086 -1.8594,4.97923 -8.69701,8.81241 -7.60173,4.26155 -8.25542,4.98886 -3.69438,4.11046 l 5.54158,-1.06723 -4.61799,2.84006 c -2.53989,1.56204 -12.19033,5.3095 -21.44542,8.3277 -29.74133,9.699 -64.54665,11.84686 -93.08053,5.74406 z m 28.16969,0.54754 c -1.26994,-0.51244 -3.34804,-0.51244 -4.61798,0 -1.26995,0.51243 -0.2309,0.93169 2.30899,0.93169 2.53989,0 3.57894,-0.41926 2.30899,-0.93169 z m 21.20424,0.10734 c -0.61381,-0.61381 -2.20701,-0.67943 -3.54046,-0.14584 -1.47356,0.58967 -1.03586,1.02738 1.11602,1.11601 1.94724,0.0802 3.03824,-0.35637 2.42444,-0.97018 z m -55.41579,-5.54158 c -0.61381,-0.61381 -2.20701,-0.67943 -3.54045,-0.14584 -1.47357,0.58967 -1.03586,1.02738 1.11601,1.11601 1.94725,0.0802 3.03825,-0.35637 2.42444,-0.97018 z m -22.29114,-7.41487 c -2.883692,-1.56276 -5.705894,-2.37857 -6.271555,-1.81292 -0.56566,0.56567 0.962493,1.82488 3.395894,2.79827 6.911181,2.76453 8.678021,2.15913 2.875661,-0.98535 z m 134.54659,-0.70508 c 1.44484,-2.3378 -1.00049,-2.3378 -4.61798,0 -2.38785,1.54315 -2.33909,1.79454 0.35278,1.81891 1.71796,0.0156 3.6373,-0.80295 4.2652,-1.81891 z"
     id="path6938"
     inkscape:connector-curvature="0" />
</svg>
