<?xml version="1.0" encoding="UTF-8" standalone="no"?>
<!-- Created with Inkscape (http://www.inkscape.org/) -->

<svg
   xmlns:dc="http://purl.org/dc/elements/1.1/"
   xmlns:cc="http://creativecommons.org/ns#"
   xmlns:rdf="http://www.w3.org/1999/02/22-rdf-syntax-ns#"
   xmlns:svg="http://www.w3.org/2000/svg"
   xmlns="http://www.w3.org/2000/svg"
   xmlns:sodipodi="http://sodipodi.sourceforge.net/DTD/sodipodi-0.dtd"
   xmlns:inkscape="http://www.inkscape.org/namespaces/inkscape"
   id="svg4136"
   version="1.1"
   inkscape:version="0.91 r13725"
   width="597.1875"
   height="591.5625"
   viewBox="0 0 597.1875 591.5625"
   sodipodi:docname="Mengru.svg">
  <metadata
     id="metadata4142">
    <rdf:RDF>
      <cc:Work
         rdf:about="">
        <dc:format>image/svg+xml</dc:format>
        <dc:type
           rdf:resource="http://purl.org/dc/dcmitype/StillImage" />
        <dc:title></dc:title>
      </cc:Work>
    </rdf:RDF>
  </metadata>
  <defs
     id="defs4140" />
  <sodipodi:namedview
     pagecolor="#ffffff"
     bordercolor="#666666"
     borderopacity="1"
     objecttolerance="10"
     gridtolerance="10"
     guidetolerance="10"
     inkscape:pageopacity="0"
     inkscape:pageshadow="2"
     inkscape:window-width="1296"
     inkscape:window-height="880"
     id="namedview4138"
     showgrid="false"
     inkscape:zoom="0.97896749"
     inkscape:cx="176.07618"
     inkscape:cy="295.78125"
     inkscape:window-x="14"
     inkscape:window-y="50"
     inkscape:window-maximized="0"
     inkscape:current-layer="svg4136" />
  <g
     id="g4257">
    <path
       inkscape:connector-curvature="0"
       id="path4238"
       d="M 286.40625,579.68786 C 224.95828,577.07594 166.55065,555.29007 118.125,516.91945 107.31837,508.3567 81.556657,482.48942 72.953155,471.5625 20.793739,405.31721 0.29209106,321.5392 16.057162,239.0625 20.489453,215.87449 30.210269,187.03541 40.547483,166.40625 54.695312,138.17254 70.310471,116.33783 92.749935,93.411446 127.83445,57.56562 167.87486,33.427734 216.70908,18.684142 260.34995,5.5084801 313.09702,3.5966677 358.01635,13.562473 c 45.48052,10.090311 88.29998,31.165052 123.47844,60.773219 11.1283,9.366209 31.16673,29.949368 39.89235,40.976808 34.06601,43.05262 54.50121,93.42831 60.8484,150 1.43583,12.79731 1.43125,42.55004 -0.008,56.25 -5.12246,48.73776 -21.35982,93.08465 -49.08623,134.0625 -9.24395,13.66197 -18.91634,25.0227 -34.76694,40.83561 -23.92638,23.86948 -45.733,39.51271 -75.09247,53.86844 -30.70223,15.01229 -60.82738,23.90069 -93.28125,27.52257 -13.36158,1.49116 -32.62398,2.30252 -43.59375,1.83624 z m 40.78125,-6.36792 c 83.10984,-8.84851 157.55269,-53.82782 204.14439,-123.34664 31.13012,-46.4488 47.08214,-99.63834 47.08707,-157.00455 0.006,-70.86712 -25.95588,-137.86758 -73.38078,-189.375 C 450.33313,44.17948 377.61554,12.207574 297.1875,12.207574 c -66.02254,0 -127.38509,21.729665 -178.125,63.077501 C 73.793918,112.17434 41.959615,161.17806 25.793969,218.85678 17.156582,249.67481 13.869562,287.47113 16.943524,320.625 c 9.085034,97.98561 70.973606,185.8453 160.398236,227.70829 27.22126,12.74328 58.75111,21.62127 88.43949,24.90228 15.29638,1.69047 45.92563,1.73256 61.40625,0.0844 z"
       style="fill:#ffffff" />
    <g
       transform="translate(637.49219,-10.171875)"
       id="g4240">
      <path
         inkscape:connector-curvature="0"
         id="path4212"
         d="m -368.34376,583.89611 c -34.9091,-3.81861 -73.32614,-15.18292 -99.96336,-29.57059 -59.34849,-32.05615 -102.87815,-78.18924 -128.61459,-136.3068 -39.37876,-88.92438 -30.55612,-190.56267 23.55846,-271.39762 36.49126,-54.509677 93.50807,-95.770405 156.73824,-113.425021 27.46468,-7.668466 46.35846,-10.191205 76.40625,-10.201931 23.93097,-0.0085 35.93182,1.099072 55.78125,5.148316 96.90434,19.768288 176.33379,88.723886 208.9162,181.367766 11.60032,32.984 16.04926,59.46107 15.97621,95.07962 -0.0611,29.81982 -2.75543,49.20859 -10.68353,76.88185 -17.21928,60.10431 -52.11687,110.07637 -104.52138,149.67071 -34.07141,25.74272 -78.464,43.98686 -124.21509,51.04901 -14.45499,2.23127 -55.37353,3.23667 -69.37866,1.70469 z m 46.48432,-182.66931 c 3.1367,-0.45395 7.8828,-1.76304 10.54688,-2.9091 4.3564,-1.87408 4.8438,-2.37871 4.8438,-5.01517 l 0,-2.93143 -32.34375,0 -32.34375,0 0,2.93143 c 0,2.64218 0.48564,3.14056 4.92187,5.05094 2.70704,1.16575 7.03125,2.43069 9.60938,2.81099 6.73288,0.99319 28.06913,1.03145 34.76557,0.0623 z m 15.11823,-16.24958 c 2.26519,-2.26632 2.62341,-3.43915 2.93499,-9.60937 l 0.3549,-7.028 -35.36119,0 -35.36119,0 0.35088,6.94833 c 0.36635,7.25479 1.80896,10.13455 5.94781,11.87307 1.03125,0.43317 14.62771,0.69979 30.21436,0.59247 l 28.33935,-0.19512 2.58009,-2.58138 z"
         style="fill:#e6e4d6" />
      <path
         inkscape:connector-curvature="0"
         id="path4210"
         d="m -364.12501,584.30745 c -29.29249,-3.07799 -53.99595,-8.90412 -78.76662,-18.57653 -10.02108,-3.91302 -33.25452,-15.06439 -34.20213,-16.41602 -0.25781,-0.36774 -2.57813,-1.87463 -5.15625,-3.34866 -18.66595,-10.67214 -38.7235,-26.31148 -56.34733,-43.93531 -21.23856,-21.23856 -37.36423,-43.14537 -50.86673,-69.10271 -20.79983,-39.98585 -31.22363,-82.96926 -31.2367,-128.80712 -0.016,-56.27926 15.24982,-107.91755 45.59176,-154.21875 41.05337,-62.646626 105.97386,-106.658153 179.09529,-121.414028 36.17078,-7.299245 75.41914,-7.299245 111.58992,0 42.99707,8.676792 84.6397,28.104212 119.51754,55.75819 12.62359,10.009002 34.08433,31.469748 44.09333,44.093338 33.08162,41.7233 53.00356,89.83196 59.59201,143.90625 1.96353,16.11559 1.95647,46.65641 -0.0146,63.20063 -6.29799,52.86172 -26.73793,102.10024 -59.57739,143.51812 -15.94672,20.11238 -47.60078,48.92192 -68.4666,62.31399 -31.54258,20.24463 -70.85389,34.92545 -109.46743,40.88064 -10.0762,1.55401 -18.18126,2.04659 -37.25305,2.26406 -13.40625,0.15287 -26.0625,0.10063 -28.125,-0.11609 z m 42.26557,-183.08065 c 3.1367,-0.45395 7.8828,-1.76304 10.54688,-2.9091 4.3564,-1.87408 4.8438,-2.37871 4.8438,-5.01517 l 0,-2.93143 -32.34375,0 -32.34375,0 0,2.93143 c 0,2.64218 0.48564,3.14056 4.92187,5.05094 2.70704,1.16575 7.03125,2.43069 9.60938,2.81099 6.73288,0.99319 28.06913,1.03145 34.76557,0.0623 z m 12.95017,-14.50485 c 3.79731,-1.58662 5.25301,-5.1606 5.25301,-12.89699 l 0,-5.48511 -35.15625,0 -35.15625,0 0,5.48511 c 0,7.55358 1.47117,11.30091 5.04783,12.85766 4.28553,1.86529 55.5611,1.89889 60.01166,0.0393 z"
         style="fill:#e1dece" />
      <path
         inkscape:connector-curvature="0"
         id="path4208"
         d="m -363.65626,584.25631 c -22.35379,-1.68743 -51.75767,-8.32353 -74.48345,-16.81002 -12.60767,-4.70808 -38.02387,-16.68142 -39.14068,-18.43882 -0.39719,-0.625 -0.72105,-69.48012 -0.7197,-153.01137 0.002,-124.6176 0.23525,-153.3893 1.29952,-160.3125 10.3207,-67.13715 60.43841,-117.25486 127.57556,-127.57556 17.44282,-2.6814 41.18787,-1.36875 59.26494,3.27624 53.22343,13.67603 94.48335,54.93595 108.15938,108.15938 4.65829,18.1288 4.57218,14.95674 4.59011,169.09654 l 0.0168,144.51911 -11.01563,7.18208 c -13.71022,8.93893 -40.94296,22.4341 -56.62938,28.06266 -21.6827,7.7801 -46.86151,13.39051 -69.69874,15.53042 -9.463,0.88671 -39.16304,1.08092 -49.21875,0.32184 z m 51.09375,-185.02651 c 5.2354,-2.13716 5.64418,-2.52347 5.90199,-5.57745 l 0.277,-3.28125 -32.38637,0 -32.38637,0 0,3.09959 c 0,2.77413 0.44492,3.2964 4.23722,4.97392 6.95294,3.07561 11.28166,3.54588 30.45028,3.30813 16.95585,-0.2103 18.68906,-0.39321 23.90625,-2.52294 z m 4.08278,-12.53839 c 3.52132,-1.82094 4.82347,-5.142 4.82347,-12.30192 l 0,-6.04964 -35.15625,0 -35.15625,0 0.0332,6.32812 c 0.0363,6.91215 1.31087,10.14079 4.75746,12.05109 3.38248,1.87477 57.06678,1.85031 60.69835,-0.0277 z"
         style="fill:#eebcad" />
      <path
         inkscape:connector-curvature="0"
         id="path4206"
         d="m -363.65626,584.25631 c -22.35379,-1.68743 -51.75767,-8.32353 -74.48345,-16.81002 -12.60767,-4.70808 -38.02387,-16.68142 -39.14068,-18.43882 -0.39719,-0.625 -0.72105,-69.48012 -0.7197,-153.01137 0.002,-124.6176 0.23525,-153.3893 1.29952,-160.3125 10.3207,-67.13715 60.43841,-117.25486 127.57556,-127.57556 17.44282,-2.6814 41.18787,-1.36875 59.26494,3.27624 53.22343,13.67603 94.48335,54.93595 108.15938,108.15938 4.65829,18.1288 4.57218,14.95674 4.59011,169.09654 l 0.0168,144.51911 -11.01563,7.18208 c -13.71022,8.93893 -40.94296,22.4341 -56.62938,28.06266 -21.6827,7.7801 -46.86151,13.39051 -69.69874,15.53042 -9.463,0.88671 -39.16304,1.08092 -49.21875,0.32184 z m 79.31139,-114.48656 c 2.62908,-1.19012 6.54971,-3.9669 8.71249,-6.17062 l 3.93235,-4.00677 -6.78661,-3.12815 c -3.73263,-1.72048 -10.39544,-4.28869 -14.80624,-5.70711 -4.4108,-1.41844 -7.96932,-2.83554 -7.90783,-3.14912 0.0615,-0.31359 0.6431,-3.07382 1.29248,-6.13386 l 1.1807,-5.5637 4.80126,-1.54592 c 5.59869,-1.80268 17.83896,-8.08925 25.6137,-13.15513 7.3129,-4.76495 24.31591,-21.89284 29.21743,-29.43202 8.87274,-13.64742 15.16305,-29.45471 18.03112,-45.31142 1.12312,-6.20938 2.37499,-71.26384 1.44283,-74.97784 -0.52183,-2.07914 -1.45193,-2.37841 -13.46968,-4.33394 -19.41018,-3.15843 -32.23511,-7.81642 -44.59374,-16.19638 -10.90649,-7.39531 -14.04576,-11.64448 -33.0029,-44.6712 -9.79688,-17.0679 -18.02344,-31.0319 -18.28125,-31.0311 -0.25781,8.1e-4 -8.48438,13.9425 -18.28125,30.98155 -18.94256,32.94555 -22.25972,37.43636 -33.06345,44.76187 -12.67849,8.5967 -23.21664,12.34068 -46.1553,16.39799 l -17.34375,3.06772 0.0459,34.17199 c 0.0292,21.72658 0.44993,36.58821 1.15515,40.80629 2.71927,16.26464 9.1005,32.51758 18.19182,46.33447 4.7227,7.17752 16.90435,20.15055 24.20081,25.77303 6.76785,5.21515 20.69118,13.17052 27.24709,15.56818 l 5.21584,1.90756 1.15758,5.60449 c 0.63667,3.08246 1.37646,6.17485 1.64398,6.87198 0.33953,0.88482 -1.44323,1.90131 -5.90468,3.36674 -8.33833,2.73885 -18.10981,7.1385 -18.10981,8.15403 0,1.35412 7.78237,8.39375 11.15903,10.09403 5.58534,2.81242 10.98805,3.13204 50.24722,2.97245 37.97785,-0.15437 38.49466,-0.18211 43.21765,-2.32009 z m -73.92077,-68.30079 c 0.64454,-0.26007 1.69922,-0.26007 2.34375,0 0.64454,0.26007 0.11719,0.47287 -1.17187,0.47287 -1.28906,0 -1.81641,-0.2128 -1.17188,-0.47287 z m 36.5625,0 c 0.64454,-0.26007 1.69922,-0.26007 2.34375,0 0.64454,0.26007 0.11719,0.47287 -1.17187,0.47287 -1.28906,0 -1.81641,-0.2128 -1.17188,-0.47287 z m -53.76744,-8.05086 c -7.28199,-6.59566 -12.56068,-16.99908 -12.56068,-24.75503 l 0,-3.13572 49.21875,0 49.21875,0 -0.0101,3.04687 c -0.0258,7.73897 -5.35992,18.33145 -12.4777,24.77808 l -3.9184,3.54893 -0.277,-3.26507 -0.27699,-3.26506 -32.25851,0 -32.25851,0 -0.277,3.26506 -0.27699,3.26507 -3.84557,-3.48313 z m 66.99085,-6.72669 c 3.52132,-1.82094 4.82347,-5.142 4.82347,-12.30192 l 0,-6.04964 -35.15625,0 -35.15625,0 0.0332,6.32812 c 0.0363,6.91215 1.31087,10.14079 4.75746,12.05109 3.38248,1.87477 57.06678,1.85031 60.69835,-0.0277 z M -426.71769,356.1295 c -9.36965,-2.36592 -13.48022,-6.62914 -11.20549,-11.62163 0.93639,-2.05515 8.18221,-6.16802 10.86648,-6.16802 1.0082,0 0.77667,-1.31417 -1.01151,-5.74125 -2.02416,-5.01131 -2.27848,-6.88859 -2.00039,-14.76563 0.27527,-7.79727 0.71629,-9.85297 3.24336,-15.11812 3.72487,-7.76076 10.40822,-14.44411 18.16898,-18.16898 5.68402,-2.72812 6.78713,-2.92477 16.40625,-2.92477 9.61571,0 10.72424,0.19743 16.40625,2.92193 7.41503,3.55548 14.84441,10.83919 17.87637,17.52588 1.2132,2.67558 2.32537,5.03788 2.47148,5.24957 0.14611,0.21168 1.01411,-0.29247 1.92888,-1.12033 4.09819,-3.70881 9.83719,-5.31713 18.97327,-5.31713 9.13608,0 14.87508,1.60832 18.97327,5.31713 0.91477,0.82786 1.78277,1.33201 1.92888,1.12033 0.14611,-0.21169 1.25828,-2.57399 2.47148,-5.24957 3.03196,-6.68669 10.46134,-13.9704 17.87637,-17.52588 5.68201,-2.7245 6.79054,-2.92193 16.40625,-2.92193 9.61912,0 10.72223,0.19665 16.40625,2.92477 7.76076,3.72487 14.44411,10.40822 18.16897,18.16898 2.51883,5.24796 2.96853,7.33149 3.24004,15.01145 0.25642,7.25326 -0.0433,9.86138 -1.60592,13.97381 -2.05967,5.42065 -1.91963,6.63974 0.76274,6.63974 2.68982,0 8.23253,2.60737 10.33107,4.85989 3.80476,4.08393 1.97906,8.02126 -5.21334,11.24317 -4.61267,2.06631 -6.87444,2.23247 -26.15231,1.92134 -3.09375,-0.05 -10.26563,-0.0126 -15.9375,0.0831 -9.79514,0.16509 -10.61821,0.0271 -16.40625,-2.75097 -7.7799,-3.73406 -14.45003,-10.4106 -18.15151,-18.16897 -2.3631,-4.95311 -2.9983,-7.66822 -3.39352,-14.50514 l -0.48622,-8.41142 -5.49324,-2.80513 c -4.86664,-2.48515 -6.43229,-2.80512 -13.72551,-2.80512 -7.29322,0 -8.85887,0.31997 -13.72551,2.80512 l -5.49324,2.80513 -0.48623,8.41139 c -0.39521,6.83692 -1.03041,9.55204 -3.39351,14.50514 -3.70149,7.75837 -10.37161,14.43491 -18.15151,18.16897 -5.68744,2.72976 -6.75011,2.91886 -15.9375,2.83586 -5.41406,-0.0489 -11.10938,-0.19399 -12.65625,-0.32243 -1.54688,-0.12843 -6.39844,0.002 -10.78125,0.28883 -4.38281,0.28729 -9.55733,0.1212 -11.49893,-0.36908 z m 41.92408,-6.08598 c 11.71773,-1.92915 21.8045,-12.66696 23.81039,-25.34721 2.87956,-18.20321 -8.19409,-34.04035 -25.76294,-36.84524 -18.06658,-2.88436 -34.01237,8.25835 -36.77064,25.69482 -1.04486,6.6051 0.0666,14.9973 2.65913,20.0792 1.72073,3.37291 1.99774,3.51629 7.84915,4.0627 10.41423,0.9725 17.62554,5.77377 16.29781,10.85104 -0.73609,2.8148 1.92133,3.15034 11.9171,1.50469 z m -10.88631,-25.31999 c -1.37083,-0.74456 -3.4225,-2.85866 -4.55929,-4.69801 -1.7305,-2.80001 -2.00265,-4.35274 -1.67227,-9.5411 l 0.39458,-6.19684 -3.89988,4.30754 c -3.5447,3.91526 -4.03398,4.17344 -5.37253,2.8349 -3.01464,-3.01465 1.49117,-9.43036 9.1643,-13.04884 5.92853,-2.79576 10.00077,-2.7922 16.02739,0.014 6.18656,2.88072 8.81636,6.96564 8.81636,13.6947 0,8.52725 -5.10945,14.10647 -12.84407,14.02496 -1.9592,-0.0206 -4.68377,-0.64671 -6.05459,-1.39128 z m 124.00303,25.81662 c 2.07279,-0.0109 2.38251,-0.35603 2.02016,-2.25149 -0.23536,-1.23129 0.0207,-3.07697 0.56901,-4.10153 1.34267,-2.5088 8.18573,-5.60915 14.11718,-6.39599 4.40407,-0.58422 5.00644,-0.96267 6.6452,-4.17489 2.60754,-5.1112 3.70398,-13.44662 2.64291,-20.09188 -2.16235,-13.54215 -12.1527,-23.50228 -25.75123,-25.6733 -18.06658,-2.88436 -34.01237,8.25835 -36.77064,25.69482 -2.26954,14.34696 4.3134,27.83166 16.66233,34.13161 4.06088,2.07172 12.50943,3.83384 15.54196,3.24162 1.03125,-0.20139 2.97666,-0.37193 4.32312,-0.37897 z m -11.50303,-25.81662 c -1.37083,-0.74456 -3.4225,-2.85866 -4.55929,-4.69801 -1.7305,-2.80001 -2.00265,-4.35274 -1.67227,-9.5411 l 0.39458,-6.19684 -3.89988,4.30754 c -3.5447,3.91526 -4.03398,4.17344 -5.37253,2.8349 -3.01464,-3.01465 1.49117,-9.43036 9.1643,-13.04884 5.92853,-2.79576 10.00077,-2.7922 16.02739,0.014 6.18656,2.88072 8.81636,6.96564 8.81636,13.6947 0,8.52725 -5.10945,14.10647 -12.84407,14.02496 -1.9592,-0.0206 -4.68377,-0.64671 -6.05459,-1.39128 z m -52.50502,21.1692 c -3.52207,-0.68595 -8.30698,-3.31054 -8.25436,-4.52761 0.0162,-0.37484 1.03577,-1.413 2.2657,-2.30704 2.01431,-1.4642 2.49985,-1.48803 4.89242,-0.24015 1.46089,0.76195 3.53461,1.38797 4.60825,1.39114 1.41195,0.004 2.23073,0.91368 2.95913,3.28703 1.127,3.67213 0.76545,3.80604 -6.47114,2.39663 z m -33.6414,-70.3321 c -1.82948,-0.96736 -6.04823,-2.50792 -9.375,-3.42346 -8.03547,-2.2114 -27.69639,-2.32342 -33.44497,-0.19056 -3.81642,1.41598 -3.98071,1.39978 -4.56802,-0.45067 -1.49451,-4.70881 8.92177,-7.67057 24.4392,-6.94902 12.27258,0.57066 19.72525,2.54746 26.00133,6.89679 2.92767,2.02887 3.3483,2.71819 2.55884,4.19332 -1.14778,2.14465 -1.4179,2.14097 -5.61138,-0.0764 z m 64.39312,0.43433 c -0.32892,-0.85715 -0.59804,-1.71711 -0.59804,-1.91101 0,-0.96491 8.98411,-5.433 13.11574,-6.5229 8.29808,-2.189 19.48679,-2.64253 26.85835,-1.08871 10.62154,2.23887 17.0646,6.3606 13.44234,8.59928 -0.52721,0.32583 -3.16393,-0.17661 -5.85937,-1.11655 -7.62462,-2.6588 -30.01253,-2.35903 -37.71331,0.50496 -8.66442,3.22239 -8.60214,3.21205 -9.24571,1.53493 z"
         style="fill:#e9a7a7" />
      <path
         inkscape:connector-curvature="0"
         id="path4204"
         d="m -363.65626,584.25631 c -22.35379,-1.68743 -51.75767,-8.32353 -74.48345,-16.81002 -12.60767,-4.70808 -38.02387,-16.68142 -39.14068,-18.43882 -0.39719,-0.625 -0.72105,-69.48012 -0.7197,-153.01137 0.002,-124.6176 0.23525,-153.3893 1.29952,-160.3125 10.3207,-67.13715 60.43841,-117.25486 127.57556,-127.57556 17.44282,-2.6814 41.18787,-1.36875 59.26494,3.27624 53.22343,13.67603 94.48335,54.93595 108.15938,108.15938 4.65829,18.1288 4.57218,14.95674 4.59011,169.09654 l 0.0168,144.51911 -11.01563,7.18208 c -13.71022,8.93893 -40.94296,22.4341 -56.62938,28.06266 -21.6827,7.7801 -46.86151,13.39051 -69.69874,15.53042 -9.463,0.88671 -39.16304,1.08092 -49.21875,0.32184 z m 79.31139,-114.48656 c 2.62908,-1.19012 6.54971,-3.9669 8.71249,-6.17062 l 3.93235,-4.00677 -6.78661,-3.12815 c -3.73263,-1.72048 -10.39544,-4.28869 -14.80624,-5.70711 -4.4108,-1.41844 -7.96932,-2.83554 -7.90783,-3.14912 0.0615,-0.31359 0.6431,-3.07382 1.29248,-6.13386 l 1.1807,-5.5637 4.80126,-1.5591 c 7.52737,-2.44433 20.83888,-9.60666 28.62746,-15.40315 18.29638,-13.61671 32.05636,-32.38473 39.50579,-53.88421 5.03282,-14.52499 5.76605,-21.29097 6.27052,-57.86144 0.25402,-18.41459 0.20542,-34.50278 -0.10801,-35.75154 -0.46987,-1.87213 -1.35273,-2.38372 -5.03217,-2.91594 -30.90161,-4.46985 -48.15385,-11.6189 -62.11858,-25.74097 -6.33995,-6.41138 -8.73529,-10.08308 -24.36303,-37.34485 -9.53247,-16.6289 -17.55349,-30.23437 -17.82447,-30.23437 -0.27098,0 -8.292,13.56964 -17.82447,30.15476 -21.54057,37.47745 -25.44078,42.0713 -43.60577,51.36097 -10.42467,5.33123 -16.40411,7.09557 -36.06976,10.64302 l -17.34375,3.12861 0.0632,34.62194 c 0.0514,28.18269 0.35664,36.23539 1.64108,43.29692 6.38503,35.10313 29.06921,65.20595 61.10825,81.09315 3.60937,1.78978 8.0612,3.73951 9.89295,4.33273 3.11019,1.00725 3.40768,1.45254 4.49841,6.73336 0.6424,3.11013 1.38686,6.22515 1.65437,6.92228 0.33954,0.88482 -1.44322,1.90131 -5.90467,3.36674 -8.33833,2.73885 -18.10981,7.1385 -18.10981,8.15403 0,1.35412 7.78236,8.39375 11.15902,10.09403 5.58535,2.81242 10.98806,3.13204 50.24723,2.97245 37.97785,-0.15437 38.49466,-0.18211 43.21764,-2.32009 z m -73.92077,-68.30079 c 0.64454,-0.26007 1.69922,-0.26007 2.34375,0 0.64454,0.26007 0.11719,0.47287 -1.17187,0.47287 -1.28906,0 -1.81641,-0.2128 -1.17188,-0.47287 z m 36.5625,0 c 0.64454,-0.26007 1.69922,-0.26007 2.34375,0 0.64454,0.26007 0.11719,0.47287 -1.17187,0.47287 -1.28906,0 -1.81641,-0.2128 -1.17188,-0.47287 z m -53.71728,-8.13108 c -7.12372,-6.1153 -12.61084,-16.8516 -12.61084,-24.67481 l 0,-3.13572 49.21875,0 49.21875,0 -0.0101,3.04687 c -0.026,7.8045 -5.5623,18.72213 -12.52455,24.69848 l -3.87155,3.32332 -0.277,-3.11246 -0.27699,-3.11246 -32.25851,0 -32.25851,0 -0.277,3.11246 -0.27699,3.11246 -3.79541,-3.25814 z m 66.94069,-6.64647 c 3.52132,-1.82094 4.82347,-5.142 4.82347,-12.30192 l 0,-6.04964 -35.15625,0 -35.15625,0 0.0332,6.32812 c 0.0363,6.91215 1.31087,10.14079 4.75746,12.05109 3.38248,1.87477 57.06678,1.85031 60.69835,-0.0277 z m -95.02028,-30.86427 c -10.46473,-3.4628 -18.6726,-10.60605 -23.32523,-20.29979 -2.72812,-5.68402 -2.92477,-6.78713 -2.92477,-16.40625 0,-9.61912 0.19665,-10.72223 2.92477,-16.40625 3.72487,-7.76076 10.40822,-14.44411 18.16898,-18.16898 5.68402,-2.72812 6.78713,-2.92477 16.40625,-2.92477 9.61571,0 10.72424,0.19743 16.40625,2.92193 7.41503,3.55548 14.84441,10.83919 17.87637,17.52588 1.2132,2.67558 2.27384,4.98637 2.35699,5.13508 0.0832,0.14872 2.38287,-1.11691 5.11051,-2.8125 4.86839,-3.02636 5.16008,-3.08289 15.90613,-3.08289 10.74605,0 11.03774,0.0565 15.90613,3.08289 2.72764,1.69559 5.02736,2.96122 5.11051,2.8125 0.0832,-0.14871 1.14379,-2.4595 2.35699,-5.13508 3.03196,-6.68669 10.46134,-13.9704 17.87637,-17.52588 5.68201,-2.7245 6.79054,-2.92193 16.40625,-2.92193 9.61912,0 10.72223,0.19665 16.40625,2.92477 7.76076,3.72487 14.44411,10.40822 18.16897,18.16898 2.72813,5.68402 2.92478,6.78713 2.92478,16.40625 0,9.61912 -0.19665,10.72222 -2.92478,16.40625 -3.72486,7.76076 -10.40821,14.44411 -18.16897,18.16897 -5.68402,2.72813 -6.78713,2.92478 -16.40625,2.92478 -9.61912,0 -10.72223,-0.19665 -16.40625,-2.92478 -7.79364,-3.74065 -14.45672,-10.4139 -18.12505,-18.15275 -2.35688,-4.97214 -2.95249,-7.57584 -3.27471,-14.31532 -0.36471,-7.62807 -0.57612,-8.36309 -2.85642,-9.93066 -4.77683,-3.28379 -8.95489,-4.35433 -16.99382,-4.35433 -8.03893,0 -12.21699,1.07054 -16.99382,4.35433 -2.2803,1.56757 -2.49171,2.30259 -2.85642,9.93066 -0.32222,6.73947 -0.91783,9.34318 -3.27471,14.31532 -3.68347,7.77079 -10.33563,14.42231 -18.12505,18.12335 -5.27423,2.50598 -7.2915,2.92936 -15,3.14823 -5.54581,0.15746 -10.32117,-0.21533 -12.65625,-0.98801 z m 25.44599,-8.20257 c 6.74325,-3.20902 11.81068,-8.44025 15.06791,-15.55499 1.90078,-4.15184 2.32985,-6.55961 2.32985,-13.07413 0,-7.04034 -0.34493,-8.68571 -2.91533,-13.90695 -3.41229,-6.93135 -8.62449,-11.97832 -15.72994,-15.2313 -7.25624,-3.32203 -18.64072,-3.32203 -25.89696,0 -7.13206,3.26516 -12.32029,8.30531 -15.77682,15.32652 -2.60395,5.28937 -2.9622,6.95891 -2.9622,13.80455 0,6.34527 0.44016,8.74891 2.37672,12.97891 7.7211,16.86513 26.65233,23.67817 43.50677,15.65739 z m -17.6259,-22.90104 c -1.37083,-0.74456 -3.4225,-2.85866 -4.55929,-4.69801 -1.7305,-2.80001 -2.00265,-4.35274 -1.67227,-9.5411 l 0.39458,-6.19684 -3.89988,4.30754 c -3.5447,3.91526 -4.03398,4.17344 -5.37253,2.8349 -4.49182,-4.49183 8.16288,-15.30348 17.87134,-15.26851 4.35039,0.0157 11.90842,4.15188 14.11722,7.7258 4.19441,6.78669 1.82681,17.56483 -4.58696,20.88152 -3.36653,1.7409 -9.0421,1.71999 -12.29221,-0.0453 z m 132.9384,22.90104 c 6.74325,-3.20902 11.81068,-8.44025 15.06791,-15.55499 1.90078,-4.15184 2.32985,-6.55961 2.32985,-13.07413 0,-7.04034 -0.34493,-8.68571 -2.91533,-13.90695 -3.41229,-6.93135 -8.62449,-11.97832 -15.72994,-15.2313 -7.25624,-3.32203 -18.64072,-3.32203 -25.89696,0 -7.13206,3.26516 -12.32029,8.30531 -15.77682,15.32652 -2.60395,5.28937 -2.9622,6.95891 -2.9622,13.80455 0,6.34527 0.44016,8.74891 2.37672,12.97891 7.7211,16.86513 26.65233,23.67817 43.50677,15.65739 z m -20.4384,-22.90104 c -1.37083,-0.74456 -3.4225,-2.85866 -4.55929,-4.69801 -1.7305,-2.80001 -2.00265,-4.35274 -1.67227,-9.5411 l 0.39458,-6.19684 -3.89988,4.30754 c -3.5447,3.91526 -4.03398,4.17344 -5.37253,2.8349 -4.49182,-4.49183 8.16288,-15.30348 17.87134,-15.26851 4.35039,0.0157 11.90842,4.15188 14.11722,7.7258 4.19441,6.78669 1.82681,17.56483 -4.58696,20.88152 -3.36653,1.7409 -9.0421,1.71999 -12.29221,-0.0453 z m -52.50502,21.1692 c -3.52207,-0.68595 -8.30698,-3.31054 -8.25436,-4.52761 0.0162,-0.37484 1.0738,-1.44169 2.35021,-2.37078 2.11848,-1.54204 2.50177,-1.56247 4.39788,-0.23438 1.14243,0.80019 3.02312,1.45489 4.17931,1.45489 2.12921,0 4.04314,2.41168 4.04314,5.09462 0,1.55828 -1.18263,1.66099 -6.71618,0.58326 z m -33.59632,-70.39622 c -6.60409,-3.56816 -14.83081,-5.06815 -27.65625,-5.04263 -9.14994,0.0182 -13.05316,0.40349 -15.66075,1.54583 -3.31355,1.45159 -3.49954,1.43874 -4.04489,-0.27951 -0.86766,-2.73374 0.0342,-3.4777 6.719,-5.54242 11.74056,-3.62628 28.25345,-2.24092 39.52595,3.31606 5.59507,2.7582 6.79874,3.73679 6.5625,5.33532 -0.38875,2.63042 -1.54905,2.77262 -5.44556,0.66735 z m 64.30231,0.37927 c -2.2283,-5.80683 21.59863,-11.83501 37.8561,-9.57754 5.99602,0.8326 15.98001,4.66939 15.95224,6.13037 -0.007,0.41524 -0.37172,1.31877 -0.8085,2.00784 -0.65173,1.02817 -1.61586,0.95166 -5.37627,-0.42665 -3.63889,-1.33378 -7.47692,-1.68162 -18.64463,-1.68981 -12.33959,-0.009 -14.75167,0.24958 -19.6875,2.11087 -8.67713,3.27211 -8.59518,3.25937 -9.29144,1.44492 z"
         style="fill:#cca69b" />
      <path
         inkscape:connector-curvature="0"
         id="path4202"
         d="m -360.84376,584.28068 c -31.76385,-3.11317 -55.52781,-8.38302 -79.6875,-17.67131 -14.06327,-5.40668 -35.32685,-15.96068 -36.47358,-18.10336 -0.73153,-1.36688 -1.02149,-45.09822 -1.00925,-152.2139 0.0146,-127.96808 0.22441,-151.75421 1.41216,-160.1116 4.6736,-32.88516 19.08488,-61.67173 42.69349,-85.28034 23.8552,-23.85519 53.08158,-38.37372 86.00332,-42.72311 61.67972,-8.14866 120.28198,20.87158 151.46508,75.00654 5.4234,9.41522 11.30843,23.72159 14.26894,34.6875 5.10959,18.92623 5.07734,17.83135 5.07734,172.37218 l 0,142.7449 -8.92783,5.84536 c -39.33796,25.75593 -82.90996,40.89147 -129.82217,45.09611 -9.94239,0.89111 -37.31124,1.10461 -45,0.35103 z m 77.27148,-114.61856 c 2.53837,-1.24931 6.29623,-3.95248 8.35078,-6.00703 l 3.73555,-3.73555 -6.00703,-3.00279 c -4.79566,-2.39724 -15.89069,-6.47266 -23.00379,-8.44971 -0.74849,-0.20804 -0.58951,-2.01048 0.54189,-6.1437 l 1.60116,-5.84929 9.50341,-4.05557 c 27.84449,-11.8826 47.80454,-31.46882 59.74475,-58.62579 8.16131,-18.56216 10.06521,-33.72131 9.6334,-76.70284 l -0.27785,-27.65625 -14.0625,-2.54341 c -7.73438,-1.39887 -16.80469,-3.45201 -20.15625,-4.56253 -13.54754,-4.48887 -27.27435,-12.91926 -34.96661,-21.4749 -2.42443,-2.69657 -11.89148,-17.93844 -21.8616,-35.19706 -9.67195,-16.74247 -17.84925,-30.44085 -18.17179,-30.44085 -0.32254,0 -8.49984,13.69838 -18.17179,30.44085 -9.97012,17.25862 -19.43717,32.50049 -21.8616,35.19706 -7.68784,8.55073 -21.39524,16.97136 -34.96661,21.48042 -3.35156,1.11355 -13.6875,3.38105 -22.96875,5.03888 l -16.875,3.01422 -0.27796,27.17991 c -0.32211,31.49719 0.7733,48.11451 3.95555,60.00554 7.09948,26.52847 23.78124,49.87877 46.32365,64.84157 5.33414,3.5406 11.91051,6.97684 20.79623,10.86631 5.1224,2.24218 5.18434,2.31773 6.39775,7.8028 0.67391,3.04628 1.41943,6.00419 1.65672,6.57313 0.24876,0.59644 -2.26163,1.92352 -5.929,3.13426 -3.49824,1.1549 -9.18874,3.37965 -12.64554,4.94389 l -6.28511,2.84407 2.37267,3.11073 c 2.98324,3.91123 10.08245,8.51479 14.92796,9.68021 2.10606,0.50654 21.11726,0.82105 44.01958,0.72825 l 40.3125,-0.16335 4.61523,-2.27148 z m -93.01278,-77.68384 c -5.73497,-5.5974 -10.28435,-14.43575 -11.13723,-21.63699 l -0.57014,-4.81394 49.47992,0 49.47992,0 -0.57014,4.81394 c -0.85288,7.20124 -5.40226,16.03959 -11.13723,21.63698 l -4.96005,4.84106 -0.27699,-3.22412 -0.277,-3.22411 -32.25851,0 -32.25851,0 -0.277,3.22411 -0.27699,3.22412 -4.96005,-4.84106 z m 70.31982,-6.54905 c 1.78036,-1.7814 2.18366,-3.35175 2.46783,-9.60938 l 0.33968,-7.48 -35.25551,0 -35.25552,0 0.0138,6.32812 c 0.007,3.48047 0.54326,7.3745 1.19035,8.6534 2.30846,4.56239 3.67733,4.73705 35.09915,4.47829 29.03502,-0.23911 29.28929,-0.2583 31.4002,-2.37043 z m -97.21127,-29.90079 c -15.44276,-4.73748 -26.74225,-20.09062 -26.74225,-36.33593 0,-33.55268 40.04653,-50.55228 64.50555,-27.38236 3.75601,3.55806 8.25518,10.43597 9.12165,13.94434 l 0.63493,2.57088 2.64459,-1.8831 c 5.90485,-4.20463 10.471,-5.56125 18.71828,-5.56125 8.24728,0 12.81343,1.35662 18.71828,5.56125 l 2.64459,1.8831 0.63493,-2.57088 c 0.86647,-3.50837 5.36564,-10.38628 9.12165,-13.94434 24.45902,-23.16992 64.50555,-6.17032 64.50555,27.38236 0,20.79374 -17.16805,37.89734 -38.04016,37.89734 -20.89939,0 -37.89734,-17.04563 -37.89734,-38.00366 0,-5.55121 -0.18452,-6.06255 -2.88039,-7.98219 -6.26836,-4.46346 -17.84864,-5.92889 -26.43397,-3.34508 -2.36492,0.71173 -5.59602,2.21702 -7.18025,3.34508 -2.69587,1.91964 -2.88039,2.43098 -2.88039,7.98219 0,25.39994 -24.94814,43.88072 -49.19525,36.44225 z m 18.44598,-5.1151 c 6.39245,-1.353 9.39612,-2.92619 14.40867,-7.54659 5.42584,-5.00137 8.41204,-10.32816 9.82978,-17.53438 3.49582,-17.76892 -7.80595,-34.4347 -25.57147,-37.70812 -22.47638,-4.14144 -41.51783,14.94445 -37.36974,37.45695 1.30308,7.07212 3.39506,11.03619 8.89318,16.85164 7.63764,8.07845 17.90655,10.99984 29.80958,8.4805 z m -10.65833,-25.86275 c -5.20558,-3.22959 -8.15217,-13.06922 -5.43442,-18.14737 0.53377,-0.99735 0.62764,-1.81337 0.2086,-1.81337 -1.62049,0 -5.00697,3.05622 -6.42503,5.79846 -1.33722,2.58591 -1.62908,2.72829 -2.92869,1.42868 -3.42346,-3.42345 1.83846,-10.81231 9.82895,-13.80194 5.9266,-2.21742 9.44412,-1.99176 15.75123,1.0105 12.79069,6.08854 8.97886,27.19784 -4.89394,27.10185 -1.98294,-0.0137 -4.73096,-0.72328 -6.1067,-1.57681 z m 132.25502,24.03695 c 12.94965,-5.7099 20.65695,-20.89613 17.97961,-35.42654 -2.45445,-13.32078 -12.23052,-23.07392 -25.59682,-25.53675 -17.63723,-3.2498 -33.89625,7.75906 -37.34438,25.28558 -3.2736,16.63934 6.91873,33.21398 22.93314,37.29363 6.20726,1.5813 16.4877,0.82717 22.02845,-1.61592 z m -19.75502,-24.03695 c -5.20558,-3.22959 -8.15217,-13.06922 -5.43442,-18.14737 0.53377,-0.99735 0.62764,-1.81337 0.2086,-1.81337 -1.62049,0 -5.00697,3.05622 -6.42503,5.79846 -1.33722,2.58591 -1.62908,2.72829 -2.92869,1.42868 -3.42346,-3.42345 1.83846,-10.81231 9.82895,-13.80194 5.9266,-2.21742 9.44412,-1.99176 15.75123,1.0105 12.79069,6.08854 8.97886,27.19784 -4.89394,27.10185 -1.98294,-0.0137 -4.73096,-0.72328 -6.1067,-1.57681 z m -51.17051,21.26323 c -3.36619,-0.33839 -5.58034,-1.15326 -7.0052,-2.57812 l -2.08335,-2.08335 1.99207,-1.99208 c 1.87267,-1.87266 2.12245,-1.90076 4.16694,-0.46875 1.19616,0.83783 3.12082,1.52333 4.27701,1.52333 1.16057,0 2.56342,0.86185 3.13194,1.92413 1.82456,3.40922 0.84799,4.21039 -4.47941,3.67484 z m -35.85939,-70.84308 c -9.21826,-4.69785 -28.80037,-6.49918 -39.72333,-3.65412 -2.98637,0.77785 -5.81719,1.17483 -6.29071,0.88217 -2.01655,-1.24629 -0.53863,-3.14871 4.06091,-5.22732 4.37817,-1.97855 6.2682,-2.22218 17.10938,-2.20545 10.22407,0.0157 13.19895,0.36516 18.46581,2.16867 7.67484,2.62809 12.47169,5.73701 12.47169,8.08313 0,2.44622 -1.21981,2.43679 -6.09375,-0.0471 z m 65.69263,1.10685 c -0.49383,-0.59503 -0.60561,-1.53839 -0.24838,-2.09637 1.00162,-1.5645 8.56226,-5.16217 13.7745,-6.55448 6.54635,-1.74868 22.98652,-1.62946 29.5578,0.21434 6.12644,1.71899 10.66921,4.93399 9.51243,6.73211 -0.6062,0.9423 -1.62851,0.85101 -4.91776,-0.43918 -3.33516,-1.30819 -7.10485,-1.62631 -19.15247,-1.61618 -13.84104,0.0116 -15.48786,0.19915 -21.31412,2.42711 -4.67177,1.78649 -6.54767,2.13312 -7.212,1.33265 z"
         style="fill:#a89792" />
      <path
         inkscape:connector-curvature="0"
         id="path4200"
         d="m -364.84568,583.97761 c -35.99041,-3.4881 -71.31271,-13.72266 -104.07856,-30.15652 -5.1062,-2.56104 -7.5708,-4.37524 -8.20313,-6.03838 -0.56647,-1.48994 -0.90389,-58.17671 -0.90389,-151.85381 0,-160.28764 -0.0859,-157.06867 4.68621,-175.67836 9.96196,-38.84875 33.76746,-70.9764 68.21277,-92.05926 32.91189,-20.1443 76.36147,-26.52277 114.33991,-16.78528 54.46677,13.96503 95.10493,54.60319 109.06996,109.06996 4.62819,18.05101 4.59366,16.78045 4.60368,169.42639 l 0.009,142.96875 -8.66408,5.69454 c -34.28184,22.53208 -73.334,37.36866 -114.60158,43.53913 -14.80127,2.21313 -50.31485,3.24479 -64.47066,1.87284 z m 82.58209,-114.80626 c 5.32251,-2.94843 11.13534,-8.75638 9.85162,-9.84335 -1.68515,-1.42684 -16.14583,-7.47385 -22.42701,-9.37826 l -6.65147,-2.01668 1.57186,-5.74228 1.57186,-5.74227 8.72799,-3.5576 c 38.24,-15.58695 64.88929,-50.79172 69.29464,-91.54095 0.57357,-5.30538 1.04284,-23.69429 1.04284,-40.86426 l 0,-31.21811 -14.65975,-2.59467 c -8.06287,-1.42708 -17.53409,-3.57231 -21.04718,-4.76718 -14.36239,-4.88497 -30.16945,-15.31492 -36.5413,-24.111 -1.55552,-2.14734 -10.45114,-17.10627 -19.76803,-33.24207 -9.31691,-16.1358 -17.27417,-29.33782 -17.68282,-29.33782 -0.40865,0 -8.36794,13.21199 -17.68729,29.35999 -9.31935,16.14798 -18.20976,31.10691 -19.75646,33.24206 -6.3624,8.78303 -22.17818,19.20908 -36.55893,24.10029 -3.5316,1.20118 -14.26845,3.56646 -23.85966,5.2562 l -17.43858,3.07223 0.0183,31.93774 c 0.0127,22.0733 0.42588,34.97813 1.3379,41.78149 5.15168,38.42995 30.38389,72.00939 65.83042,87.60824 l 9.01668,3.96794 1.64218,6.47754 c 0.9032,3.56264 1.58168,6.51138 1.50773,6.55275 -0.074,0.0414 -3.50946,1.2506 -7.63446,2.68717 -4.125,1.43658 -9.71658,3.73028 -12.42573,5.09712 l -4.92573,2.48518 2.82701,3.42965 c 3.11233,3.77579 7.79689,6.96533 13.00784,8.85654 2.6443,0.95969 12.58389,1.18417 45.11036,1.01877 l 41.71875,-0.21215 4.98642,-2.76225 z m -94.37163,-77.57469 c -2.75561,-2.73656 -5.76767,-6.45212 -6.69346,-8.25681 -2.0994,-4.0925 -4.70258,-12.74959 -4.70258,-15.63891 l 0,-2.17359 49.21875,0 49.21875,0 0,2.17359 c 0,2.88932 -2.60318,11.54641 -4.70258,15.63891 -0.9258,1.80469 -3.93785,5.52025 -6.69346,8.25681 l -5.01021,4.97555 -0.27699,-3.10055 -0.277,-3.10056 -32.25851,0 -32.25851,0 -0.277,3.10056 -0.27699,3.10055 -5.01021,-4.97555 z m 70.23857,-6.3097 c 2.54662,-2.5466 2.74039,-3.24266 2.74039,-9.84375 l 0,-7.10336 -35.15625,0 -35.15625,0 0,7.10336 c 0,6.60109 0.19377,7.29715 2.74039,9.84375 l 2.74038,2.74039 29.67548,0 29.67548,0 2.74038,-2.74039 z m -93.77964,-29.2212 c -14.34616,-2.81221 -26.69385,-15.61867 -29.16077,-30.24423 -4.44575,-26.35735 17.48335,-48.35713 43.65825,-43.79896 12.18644,2.12218 22.41842,9.78897 27.55252,20.64501 l 2.64652,5.59608 3.16546,-2.3354 c 9.06905,-6.69093 26.37205,-6.69093 35.4411,0 l 3.16546,2.3354 2.64652,-5.59608 c 7.10183,-15.0168 23.59007,-23.4522 40.411,-20.67428 21.01401,3.4704 34.39523,22.51193 30.79977,43.82823 -2.57685,15.27728 -15.10934,27.80977 -30.38662,30.38662 -20.96299,3.53587 -40.00989,-9.53138 -43.72062,-29.9948 -0.58988,-3.25304 -0.95381,-7.29255 -0.80871,-8.97668 0.31576,-3.66495 -1.0843,-5.53949 -6.17088,-8.26222 -3.22168,-1.72448 -5.33868,-2.04085 -13.65647,-2.04085 -8.31779,0 -10.43479,0.31637 -13.65647,2.04085 -5.08658,2.72273 -6.48664,4.59727 -6.17088,8.26222 0.1451,1.68413 -0.21883,5.72364 -0.80871,8.97668 -3.79446,20.92517 -23.55037,34.04658 -44.94647,29.85241 z m 21.52003,-7.52119 c 6.56349,-3.07134 12.74165,-9.24195 15.84907,-15.82972 2.0558,-4.35833 2.43218,-6.46195 2.43218,-13.59375 0,-7.1318 -0.37638,-9.23542 -2.43218,-13.59375 -3.10161,-6.57545 -9.27362,-12.74746 -15.84907,-15.84907 -4.35833,-2.0558 -6.46195,-2.43218 -13.59375,-2.43218 -7.1318,0 -9.23543,0.37638 -13.59375,2.43218 -22.82404,10.766 -25.29351,42.60064 -4.38137,56.48133 6.57226,4.36242 9.98246,5.26607 18.91262,5.01155 5.7845,-0.16487 8.6794,-0.76566 12.65625,-2.62659 z m -15.54521,-23.25041 c -5.54701,-2.38644 -8.98753,-10.55222 -7.22625,-17.15089 1.24053,-4.64767 0.0202,-4.60873 -4.36311,0.13925 -3.81616,4.13365 -6.39803,3.99156 -5.32269,-0.29292 0.953,-3.79708 6.31286,-8.47125 11.71435,-10.21574 16.35772,-5.28295 29.67299,12.18461 18.54467,24.32771 -2.41221,2.63217 -3.86766,3.37213 -7.20896,3.66509 -2.30261,0.20188 -5.06471,-0.0108 -6.13801,-0.4725 z m 131.24179,23.31131 c 6.37617,-3.18179 12.40452,-9.32785 15.38364,-15.68405 2.14294,-4.57213 2.51353,-6.60683 2.51353,-13.80032 0,-7.1318 -0.37638,-9.23542 -2.43218,-13.59375 -3.10161,-6.57545 -9.27362,-12.74746 -15.84907,-15.84907 -4.35833,-2.0558 -6.46195,-2.43218 -13.59375,-2.43218 -7.1318,0 -9.23542,0.37638 -13.59375,2.43218 -11.09492,5.23343 -17.97103,15.61303 -18.57324,28.03657 -0.68813,14.19619 6.82314,25.89673 20.26287,31.56417 7.28665,3.07272 18.98461,2.76829 25.88195,-0.67355 z m -18.74179,-23.31131 c -5.54701,-2.38644 -8.98753,-10.55222 -7.22625,-17.15089 1.24053,-4.64767 0.0202,-4.60873 -4.36311,0.13925 -3.81616,4.13365 -6.39803,3.99156 -5.32269,-0.29292 0.953,-3.79708 6.31286,-8.47125 11.71435,-10.21574 16.35772,-5.28295 29.67299,12.18461 18.54467,24.32771 -2.41221,2.63217 -3.86766,3.37213 -7.20896,3.66509 -2.30261,0.20188 -5.06471,-0.0108 -6.13801,-0.4725 z m -58.28292,18.68097 c -3.58578,-2.1863 -3.77232,-3.14583 -0.99035,-5.0944 1.81693,-1.27263 2.2351,-1.27882 3.58944,-0.0532 0.84311,0.76301 2.34346,1.39374 3.33411,1.40163 2.47812,0.0198 3.77554,1.01802 4.5505,3.50127 0.61284,1.96375 0.37884,2.10914 -3.38927,2.10587 -2.37946,-0.002 -5.30324,-0.76911 -7.09443,-1.86122 z m -28.65577,-68.58948 c -9.94888,-5.12157 -31.95916,-7.25411 -42.40963,-4.10898 -3.46572,1.04303 -4.73168,1.10711 -5.25162,0.26582 -2.84701,-4.60656 15.58068,-8.5318 30.28341,-6.4506 12.48385,1.76711 23.7228,7.25922 21.79753,10.65174 -0.75615,1.33241 -1.20697,1.2959 -4.41969,-0.35798 z m 64.29713,0.38037 c -0.75549,-1.96878 2.32162,-4.33843 8.92833,-6.87564 6.7648,-2.59791 23.16152,-3.55739 31.0076,-1.81445 7.32548,1.62728 12.31334,4.29896 12.31334,6.59547 0,2.22701 0.14561,2.21283 -4.1767,0.40685 -9.71372,-4.05865 -30.81589,-3.58674 -42.02235,0.93976 -4.81018,1.94291 -5.55629,2.03516 -6.05022,0.74801 z"
         style="fill:#95827a" />
      <path
         inkscape:connector-curvature="0"
         id="path4198"
         d="m -364.84568,583.97761 c -36.81685,-3.5682 -75.21081,-14.88548 -104.98776,-30.94697 -5.93058,-3.19891 -7.1254,-4.25057 -7.61597,-6.70341 -1.05755,-5.28775 -0.66332,-294.50463 0.41486,-304.35245 3.89874,-35.61003 18.50588,-66.46137 43.12261,-91.07811 40.15531,-40.15532 100.00521,-54.175877 154.29718,-36.14598 28.00172,9.29914 53.96616,27.8282 71.48864,51.01661 13.35497,17.67332 23.5157,39.75129 27.6466,60.07255 3.14865,15.48926 3.38421,27.15827 3.3782,167.34375 l -0.006,139.6875 -9.6026,6.19803 c -35.46734,22.89226 -72.35575,36.85887 -113.66547,43.03565 -14.80127,2.21312 -50.31485,3.24478 -64.47067,1.87283 z m 81.45486,-114.10857 c 4.70642,-2.51781 9.44214,-6.41858 10.74266,-8.84861 0.86341,-1.61329 0.23908,-2.13586 -5.88745,-4.92781 -3.76931,-1.71773 -10.01423,-4.10709 -13.8776,-5.30968 -3.86336,-1.20259 -7.34836,-2.44877 -7.74441,-2.76931 -0.39607,-0.32052 -0.16523,-3.02601 0.51297,-6.01221 l 1.23309,-5.42945 7.45578,-2.96415 c 39.21123,-15.589 65.66304,-50.02269 70.66376,-91.98672 1.15375,-9.68171 1.38767,-72.65625 0.2699,-72.65625 -0.40747,0 -6.84107,-1.08344 -14.29687,-2.40765 -19.9749,-3.54769 -30.17522,-7.30869 -42.61852,-15.71407 -11.55778,-7.80721 -14.63209,-11.93962 -33.75,-45.36587 -9.79688,-17.12911 -18.02344,-31.14248 -18.28125,-31.14081 -0.25781,0.002 -8.48438,14.01368 -18.28125,31.13782 -19.22196,33.59837 -22.16761,37.53822 -34.10448,45.61514 -12.78728,8.65232 -23.20793,12.23149 -48.24968,16.57221 l -14.85416,2.57481 0.43866,37.09858 c 0.35942,30.39703 0.72702,38.36872 2.03498,44.12984 2.42321,10.67338 5.88907,20.25066 10.50328,29.02385 13.3705,25.42189 32.8032,42.56786 61.49702,54.26039 1.78854,0.72881 2.57813,1.7289 2.57813,3.26541 0,1.21817 0.57239,4.11676 1.27198,6.44131 l 1.27197,4.22647 -6.54556,2.10814 c -3.60005,1.15948 -9.28522,3.33734 -12.6337,4.8397 l -6.08814,2.73156 2.30075,3.03597 c 2.73333,3.60676 10.0818,8.78211 14.20212,10.00221 1.65509,0.49011 21.16691,0.79685 44.65808,0.70207 41.04136,-0.16559 41.78141,-0.20185 45.57794,-2.23289 z m -91.26881,-76.25882 c -7.33392,-6.5785 -11.37938,-14.12367 -12.92075,-24.0985 l -0.61569,-3.98437 49.3586,0 49.3586,0 -0.6448,4.45312 c -1.36397,9.4199 -5.95542,17.7447 -13.23616,23.99859 l -3.10893,2.67046 0,-3.13921 0,-3.13921 -32.30113,0 -32.30113,0 -0.277,2.98058 -0.27699,2.98058 -3.03462,-2.72204 z m 68.26298,-8.32326 c 2.54662,-2.5466 2.74039,-3.24266 2.74039,-9.84375 l 0,-7.10336 -35.15625,0 -35.15625,0 0,7.10336 c 0,6.60109 0.19377,7.29715 2.74039,9.84375 l 2.74038,2.74039 29.67548,0 29.67548,0 2.74038,-2.74039 z m -93.77964,-29.16466 c -6.60052,-1.38323 -13.4482,-5.20605 -18.65854,-10.41638 -14.79364,-14.79363 -14.83341,-38.51481 -0.0892,-53.25893 11.33161,-11.33161 28.32836,-14.16477 43.44879,-7.24241 6.43761,2.94724 14.29141,10.89489 17.2478,17.4539 1.29224,2.86694 2.48004,5.37058 2.63955,5.56365 0.15952,0.19307 1.59348,-0.74575 3.18658,-2.08626 1.59311,-1.34051 5.06249,-3.0805 7.70975,-3.86665 9.54024,-2.83315 21.99405,-1.10753 27.90552,3.86665 1.5931,1.34051 3.02707,2.27933 3.18658,2.08626 0.15952,-0.19307 1.34731,-2.69671 2.63955,-5.56365 2.96777,-6.58427 10.81689,-14.50973 17.31726,-17.4857 15.05006,-6.89015 32.06883,-4.03629 43.37933,7.27421 14.41352,14.41352 14.83198,37.03189 0.95946,51.86165 -8.72625,9.32839 -20.16681,13.75447 -31.79677,12.3014 -19.39951,-2.42382 -32.41925,-16.6229 -33.41377,-36.44042 -0.39982,-7.9669 -0.62352,-8.3389 -6.95427,-11.56429 -4.68459,-2.3867 -21.56542,-2.3867 -26.25,0 -6.33075,3.22539 -6.55446,3.59739 -6.95427,11.56429 -1.02945,20.51367 -15.01126,35.04584 -35.02237,36.40094 -3.46754,0.23481 -8.18393,0.0331 -10.48089,-0.44826 z m 21.65874,-7.62334 c 6.44393,-3.00328 12.04568,-8.43093 15.53168,-15.04897 2.35,-4.4614 2.60942,-5.8859 2.60942,-14.32889 0,-8.44299 -0.25942,-9.86749 -2.60942,-14.32889 -3.32042,-6.3037 -8.63155,-11.61483 -14.93525,-14.93525 -4.4614,-2.35 -5.8859,-2.60942 -14.32889,-2.60942 -8.44299,0 -9.86749,0.25942 -14.32889,2.60942 -10.81762,5.69809 -17.10566,15.20652 -17.8028,26.92039 -0.23014,3.86719 0.0382,8.71875 0.59624,10.78125 2.55276,9.43429 11.3449,19.17125 20.28545,22.46536 6.11449,2.25286 18.49854,1.4969 24.98246,-1.525 z M -395.627,324.02429 c -5.52745,-3.69259 -7.85902,-10.96295 -5.50303,-17.15968 1.50409,-3.95606 0.45473,-3.74256 -4.12765,0.83982 -3.68517,3.68517 -4.38698,4.04746 -5.42281,2.79936 -2.02831,-2.44396 1.76407,-7.7916 7.73181,-10.90262 4.33008,-2.2573 5.93093,-2.59438 10.92295,-2.29997 8.89572,0.52464 14.25458,5.3778 14.95854,13.54694 0.68078,7.90003 -5.30399,15.30421 -12.37032,15.30421 -1.65218,0 -4.43745,-0.95763 -6.18949,-2.12806 z m 132.36752,24.81418 c 6.53887,-3.16541 11.44042,-7.88055 14.98149,-14.41174 3.05279,-5.63056 3.21544,-6.40498 3.21476,-15.30563 -6.5e-4,-8.44223 -0.26036,-9.86789 -2.61014,-14.32889 -3.32042,-6.3037 -8.63155,-11.61483 -14.93525,-14.93525 -4.4614,-2.35 -5.8859,-2.60942 -14.32889,-2.60942 -8.44299,0 -9.86749,0.25942 -14.32889,2.60942 -6.3037,3.32042 -11.61483,8.63155 -14.93525,14.93525 -2.34979,4.461 -2.60949,5.88666 -2.61014,14.32889 -6.2e-4,8.09078 0.30676,9.95289 2.24393,13.59375 4.74647,8.9209 9.5731,13.3392 18.49699,16.93216 6.32922,2.54829 18.71058,2.14481 24.81139,-0.80854 z M -283.127,324.02429 c -5.52745,-3.69259 -7.85902,-10.96295 -5.50303,-17.15968 1.50409,-3.95606 0.45473,-3.74256 -4.12765,0.83982 -3.68517,3.68517 -4.38698,4.04746 -5.42281,2.79936 -2.02831,-2.44396 1.76407,-7.7916 7.73181,-10.90262 4.33008,-2.2573 5.93093,-2.59438 10.92295,-2.29997 8.89572,0.52464 14.25458,5.3778 14.95854,13.54694 0.68078,7.90003 -5.30399,15.30421 -12.37032,15.30421 -1.65218,0 -4.43745,-0.95763 -6.18949,-2.12806 z m -56.92616,19.90901 c -3.25463,-1.98427 -3.47876,-3.37136 -0.81617,-5.05088 1.14411,-0.72168 2.09761,-0.67538 3.44711,0.16739 1.02603,0.64077 2.50406,1.16504 3.28449,1.16504 1.59165,0 5.16897,3.24411 5.16897,4.6875 0,1.69489 -7.83907,1.00956 -11.0844,-0.96905 z m -29.2281,-69.03103 c -7.01754,-3.65051 -16.78055,-5.21256 -30,-4.79991 -7.18714,0.22435 -12.58055,0.83763 -13.94735,1.58595 -1.83523,1.00475 -2.36358,1.00173 -2.99325,-0.0171 -1.11527,-1.80453 0.54172,-3.30978 5.5143,-5.00935 10.77934,-3.68425 27.82729,-2.60361 38.81369,2.46036 7.0898,3.2679 8.76377,4.73583 7.60854,6.67205 -0.63907,1.07112 -1.52689,0.9126 -4.99593,-0.89199 z m 65.02081,1.07894 c -0.72475,-1.88867 0.26953,-3.05752 4.38829,-5.15875 9.47776,-4.83519 27.71796,-6.17212 38.55237,-2.82571 7.09178,2.19043 9.73427,3.91642 8.98508,5.86876 -0.47613,1.24078 -1.2415,1.17944 -6.0117,-0.48179 -4.29246,-1.49486 -7.88161,-1.90947 -16.7161,-1.93101 -11.56702,-0.0282 -18.88991,1.1775 -25.13048,4.13765 -2.94617,1.39747 -3.65505,1.46559 -4.06746,0.39085 z"
         style="fill:#917782" />
      <path
         inkscape:connector-curvature="0"
         id="path4196"
         d="m -364.84568,583.97761 c -36.81685,-3.5682 -75.21081,-14.88548 -104.98776,-30.94697 -5.93058,-3.19891 -7.1254,-4.25057 -7.61597,-6.70341 -1.05755,-5.28775 -0.66332,-294.50463 0.41486,-304.35245 3.89874,-35.61003 18.50588,-66.46137 43.12261,-91.07811 40.15531,-40.15532 100.00521,-54.175877 154.29718,-36.14598 28.00172,9.29914 53.96616,27.8282 71.48864,51.01661 13.35497,17.67332 23.5157,39.75129 27.6466,60.07255 3.14865,15.48926 3.38421,27.15827 3.3782,167.34375 l -0.006,139.6875 -9.6026,6.19803 c -35.46734,22.89226 -72.35575,36.85887 -113.66547,43.03565 -14.80127,2.21312 -50.31485,3.24478 -64.47067,1.87283 z m 81.45486,-114.10857 c 4.70642,-2.51781 9.44214,-6.41858 10.74266,-8.84861 0.86341,-1.61329 0.23908,-2.13586 -5.88745,-4.92781 -3.76931,-1.71773 -10.01423,-4.10709 -13.8776,-5.30968 -3.86336,-1.20259 -7.34836,-2.44877 -7.74441,-2.76931 -0.39607,-0.32052 -0.16523,-3.02601 0.51297,-6.01221 l 1.23309,-5.42945 7.45578,-2.96415 c 39.21123,-15.589 65.66304,-50.02269 70.66376,-91.98672 1.15375,-9.68171 1.38767,-72.65625 0.2699,-72.65625 -0.40747,0 -6.84107,-1.08344 -14.29687,-2.40765 -19.9749,-3.54769 -30.17522,-7.30869 -42.61852,-15.71407 -11.55778,-7.80721 -14.63209,-11.93962 -33.75,-45.36587 -9.79688,-17.12911 -18.02344,-31.14248 -18.28125,-31.14081 -0.25781,0.002 -8.48438,14.01368 -18.28125,31.13782 -19.22196,33.59837 -22.16761,37.53822 -34.10448,45.61514 -12.78728,8.65232 -23.20793,12.23149 -48.24968,16.57221 l -14.85416,2.57481 0.43866,37.09858 c 0.35942,30.39703 0.72702,38.36872 2.03498,44.12984 2.42321,10.67338 5.88907,20.25066 10.50328,29.02385 13.3705,25.42189 32.8032,42.56786 61.49702,54.26039 1.78854,0.72881 2.57813,1.7289 2.57813,3.26541 0,1.21817 0.57239,4.11676 1.27198,6.44131 l 1.27197,4.22647 -6.54556,2.10814 c -3.60005,1.15948 -9.28522,3.33734 -12.6337,4.8397 l -6.08814,2.73156 2.30075,3.03597 c 2.73333,3.60676 10.0818,8.78211 14.20212,10.00221 1.65509,0.49011 21.16691,0.79685 44.65808,0.70207 41.04136,-0.16559 41.78141,-0.20185 45.57794,-2.23289 z m -91.6679,-76.59963 c -6.76859,-5.96187 -11.01745,-14.02334 -12.52166,-23.75769 l -0.61569,-3.98437 49.38356,0 49.38356,0 -0.61569,3.98437 c -1.50421,9.73435 -5.75307,17.79582 -12.52166,23.75769 -3.367,2.96569 -3.90246,2.82075 -3.90246,-1.05629 0,-2.98618 -0.17949,-3.21818 -1.81337,-2.34375 -1.13678,0.60839 -12.52784,0.97048 -30.53038,0.97048 -18.00254,0 -29.3936,-0.36209 -30.53038,-0.97048 -1.63388,-0.87443 -1.81337,-0.64243 -1.81337,2.34375 0,3.87704 -0.53546,4.02198 -3.90246,1.05629 z m 68.66207,-7.98245 c 2.54662,-2.5466 2.74039,-3.24266 2.74039,-9.84375 l 0,-7.10336 -35.15625,0 -35.15625,0 0,7.10336 c 0,6.60109 0.19377,7.29715 2.74039,9.84375 l 2.74038,2.74039 29.67548,0 29.67548,0 2.74038,-2.74039 z m -90.54086,-28.81109 c -1.54688,-0.2029 -3.83137,-0.59515 -5.07666,-0.87168 l -2.26415,-0.50276 2.7805,-1.69092 c 1.89163,-1.15037 5.32511,-1.82448 10.74041,-2.10871 9.60216,-0.50399 15.2603,-2.91592 21.51625,-9.17185 6.96079,-6.96081 8.86615,-11.90546 8.86615,-23.00885 0,-8.14095 -0.30851,-9.98415 -2.34375,-14.00269 -2.99549,-5.91453 -9.61403,-12.53307 -15.52856,-15.52856 -4.01854,-2.03524 -5.86174,-2.34375 -14.00269,-2.34375 -8.14095,0 -9.98415,0.30851 -14.00269,2.34375 -5.94707,3.01197 -12.80464,9.86288 -15.64272,15.62755 -1.89724,3.85362 -2.22959,5.92619 -2.22959,13.9037 0,7.81042 0.34753,10.07053 2.0824,13.54259 1.14533,2.29218 1.98908,4.25484 1.875,4.36146 -0.11407,0.10663 -1.26209,0.34058 -2.55115,0.51991 -1.91621,0.26656 -2.65555,-0.312 -4.05306,-3.17174 -4.10711,-8.40441 -3.74465,-22.81142 0.81096,-32.23438 2.96066,-6.12391 10.5763,-13.74862 16.72869,-16.74861 9.17129,-4.47205 23.62386,-4.69654 33.07958,-0.51383 5.86153,2.59284 14.4978,11.19474 17.66748,17.59718 1.46966,2.96858 2.75532,5.5227 2.85701,5.67582 0.10168,0.15311 2.04948,-0.98001 4.32842,-2.51804 8.76087,-5.91264 24.65097,-5.91264 33.41184,0 2.27894,1.53803 4.2281,2.67115 4.33145,2.51804 0.10335,-0.15312 1.32149,-2.64693 2.70697,-5.54181 3.12567,-6.53082 10.59764,-14.12973 16.92975,-17.21736 9.17129,-4.47205 23.62386,-4.69654 33.07958,-0.51383 5.62384,2.4877 14.47143,11.15903 17.47658,17.12843 4.46434,8.8679 5.02005,22.91106 1.26252,31.90413 -1.24482,2.97926 -1.89198,3.49329 -4.39806,3.49329 -1.61615,0 -2.77559,-0.31641 -2.57652,-0.70312 3.66145,-7.11302 3.98405,-8.5313 3.99829,-17.57813 0.0129,-8.15839 -0.28938,-9.97554 -2.32898,-14.00269 -2.99549,-5.91453 -9.61403,-12.53307 -15.52856,-15.52856 -4.01854,-2.03524 -5.86174,-2.34375 -14.00269,-2.34375 -8.14095,0 -9.98415,0.30851 -14.00269,2.34375 -5.94707,3.01197 -12.80463,9.86288 -15.64272,15.62755 -1.89724,3.85363 -2.22959,5.92619 -2.22959,13.9037 0,11.10339 1.90536,16.04804 8.86615,23.00885 6.81266,6.81264 11.93427,8.84208 22.699,8.99449 6.60423,0.0935 9.64291,0.53304 11.19344,1.61907 1.17056,0.8199 1.88218,1.73682 1.58138,2.03762 -1.28134,1.28134 -12.8424,2.18025 -18.23353,1.41772 -10.2752,-1.45334 -18.18788,-6.26442 -24.82019,-15.0912 -4.40632,-5.86425 -6.45908,-12.05493 -6.87901,-20.74552 -0.18247,-3.77631 -0.36984,-7.16465 -0.41638,-7.52964 -0.0465,-0.36498 -2.08852,-1.84154 -4.53773,-3.28125 -4.17694,-2.45528 -5.1218,-2.61764 -15.23438,-2.61764 -10.11258,0 -11.05744,0.16236 -15.23438,2.61764 -2.44921,1.43971 -4.50332,2.91627 -4.56468,3.28125 -0.0613,0.36499 -0.24564,3.74398 -0.40948,7.50889 -0.54149,12.44164 -5.47361,21.86397 -15.31574,29.2592 -6.97586,5.24157 -17.90834,8.04416 -26.81947,6.87529 z m 56.88435,-12.54257 c -3.25463,-1.98427 -3.47876,-3.37136 -0.81617,-5.05088 1.14411,-0.72168 2.09761,-0.67538 3.44711,0.16739 1.02603,0.64077 2.50406,1.16504 3.28449,1.16504 1.59165,0 5.16897,3.24411 5.16897,4.6875 0,1.69489 -7.83907,1.00956 -11.0844,-0.96905 z M -395.627,324.02429 c -5.52745,-3.69259 -7.85902,-10.96295 -5.50303,-17.15968 1.55173,-4.08136 0.24963,-3.8356 -4.18175,0.78925 -3.41057,3.55946 -4.3362,4.09404 -5.2281,3.01935 -3.68455,-4.43961 7.64043,-13.51787 16.91935,-13.56277 5.05669,-0.0245 11.69815,3.08218 14.33717,6.70645 2.59072,3.55794 3.03292,10.73114 0.91339,14.81678 -2.12986,4.10552 -7.15403,7.51868 -11.06754,7.51868 -1.65218,0 -4.43745,-0.95763 -6.18949,-2.12806 z m 112.5,0 c -5.52745,-3.69259 -7.85902,-10.96295 -5.50303,-17.15968 1.55173,-4.08136 0.24963,-3.8356 -4.18175,0.78925 -3.41057,3.55946 -4.3362,4.09404 -5.2281,3.01935 -3.68455,-4.43961 7.64043,-13.51787 16.91935,-13.56277 5.0567,-0.0245 11.69815,3.08218 14.33717,6.70645 2.59072,3.55794 3.03292,10.73114 0.91339,14.81678 -2.12986,4.10552 -7.15403,7.51868 -11.06754,7.51868 -1.65218,0 -4.43745,-0.95763 -6.18949,-2.12806 z m -84.83634,-48.65481 c -10.19373,-6.04117 -35.29695,-7.7262 -46.55229,-3.12475 -1.24479,0.50889 -1.64063,0.21039 -1.64063,-1.23722 0,-1.4519 1.28848,-2.4147 5.39063,-4.02807 7.39575,-2.90873 24.07413,-2.97721 32.77893,-0.13457 5.97223,1.95029 14.34174,6.36426 14.31609,7.55012 -0.0482,2.22512 -1.59133,2.57544 -4.29273,0.97449 z m 63.62933,0.42004 c -1.40445,-3.65993 11.02838,-8.54434 23.81938,-9.35776 13.3212,-0.84713 29.06072,3.04018 28.20352,6.96566 -0.40312,1.84602 -0.44089,1.84458 -6.26533,-0.23766 -10.02066,-3.5824 -32.17313,-2.37837 -41.54408,2.25801 -3.20837,1.58737 -3.72937,1.63335 -4.21349,0.37175 z"
         style="fill:#5b939b" />
      <path
         inkscape:connector-curvature="0"
         id="path4194"
         d="m -352.17189,584.23087 c 1.41797,-0.21481 3.73829,-0.21481 5.15625,0 1.41797,0.2148 0.25782,0.39055 -2.57812,0.39055 -2.83594,0 -3.99609,-0.17575 -2.57813,-0.39055 z m 18.75,0 c 1.41797,-0.21481 3.73829,-0.21481 5.15625,0 1.41797,0.2148 0.25782,0.39055 -2.57812,0.39055 -2.83594,0 -3.99609,-0.17575 -2.57813,-0.39055 z m -33.28125,-0.88691 c 0.64454,-0.26007 1.69922,-0.26007 2.34375,0 0.64454,0.26007 0.11719,0.47287 -1.17187,0.47287 -1.28906,0 -1.81641,-0.2128 -1.17188,-0.47287 z m 50.625,0 c 0.64454,-0.26007 1.69922,-0.26007 2.34375,0 0.64454,0.26007 0.11719,0.47287 -1.17187,0.47287 -1.28906,0 -1.81641,-0.2128 -1.17188,-0.47287 z m -150.73727,-28.79478 c -7.2393,-3.73073 -9.94329,-5.61887 -10.40505,-7.26562 -1.09423,-3.90229 -0.91684,-295.23659 0.18591,-305.30878 3.89874,-35.61003 18.50588,-66.46137 43.12261,-91.07811 40.15531,-40.15532 100.00521,-54.175877 154.29718,-36.14598 28.00172,9.29914 53.96616,27.8282 71.48864,51.01661 13.35497,17.67332 23.5157,39.75129 27.6466,60.07255 3.14865,15.48926 3.38421,27.15827 3.3782,167.34375 l -0.006,139.6875 -9.6026,6.20829 c -5.28143,3.41456 -12.01249,7.55914 -14.95791,9.21018 l -5.3553,3.0019 -0.60431,-2.64768 c -5.29598,-23.20384 -10.33285,-35.08612 -21.72605,-51.25314 -14.91203,-21.16024 -40.67643,-39.98369 -64.45903,-47.09372 -3.09375,-0.92491 -5.94906,-1.94814 -6.34512,-2.27386 -0.39606,-0.32571 -0.16522,-3.03545 0.51297,-6.02165 l 1.2331,-5.42945 7.45578,-2.96415 c 39.21123,-15.589 65.66303,-50.02269 70.66376,-91.98672 1.15374,-9.68171 1.38767,-72.65625 0.2699,-72.65625 -0.40748,0 -6.84107,-1.08344 -14.29688,-2.40765 -19.97489,-3.54769 -30.17522,-7.30869 -42.61851,-15.71407 -11.55779,-7.80721 -14.63209,-11.93962 -33.75,-45.36587 -9.79688,-17.12911 -18.02344,-31.14248 -18.28125,-31.14081 -0.25782,0.002 -8.48438,14.01368 -18.28125,31.13782 -19.22196,33.59837 -22.16761,37.53822 -34.10448,45.61514 -12.78729,8.65232 -23.20794,12.23149 -48.24969,16.57221 l -14.85415,2.57481 0.43866,37.09858 c 0.35942,30.39703 0.72702,38.36872 2.03498,44.12984 2.4232,10.67338 5.88907,20.25066 10.50327,29.02385 13.37051,25.42189 32.8032,42.56786 61.49703,54.26039 1.78854,0.72881 2.57813,1.7289 2.57813,3.26541 0,1.21817 0.57392,4.12186 1.27538,6.45265 l 1.27539,4.23779 -5.25976,1.63682 c -23.61962,7.35035 -47.25538,24.45251 -62.83641,45.46666 -7.07193,9.5379 -11.77883,17.87836 -15.79858,27.99452 -3.54912,8.93177 -7.56302,24.77999 -7.93477,31.32915 -0.13888,2.44668 -0.27427,4.45059 -0.30089,4.45313 -0.0266,0.003 -4.44989,-2.26367 -9.82952,-5.03604 z m 91.75669,-161.27977 c -6.76859,-5.96187 -11.01745,-14.02334 -12.52166,-23.75769 l -0.61569,-3.98437 49.38356,0 49.38356,0 -0.61569,3.98437 c -1.50421,9.73435 -5.75307,17.79582 -12.52166,23.75769 -3.367,2.96569 -3.90246,2.82075 -3.90246,-1.05629 0,-2.98618 -0.17949,-3.21818 -1.81337,-2.34375 -1.13678,0.60839 -12.52784,0.97048 -30.53038,0.97048 -18.00254,0 -29.3936,-0.36209 -30.53038,-0.97048 -1.63388,-0.87443 -1.81337,-0.64243 -1.81337,2.34375 0,3.87704 -0.53546,4.02198 -3.90246,1.05629 z m 68.66207,-7.98245 c 2.54662,-2.5466 2.74039,-3.24266 2.74039,-9.84375 l 0,-7.10336 -35.15625,0 -35.15625,0 0,7.10336 c 0,6.60109 0.19377,7.29715 2.74039,9.84375 l 2.74038,2.74039 29.67548,0 29.67548,0 2.74038,-2.74039 z m -90.54086,-28.81109 c -1.54688,-0.2029 -3.83137,-0.59515 -5.07666,-0.87168 l -2.26415,-0.50276 2.7805,-1.69092 c 1.89163,-1.15037 5.32511,-1.82448 10.74041,-2.10871 9.60216,-0.50399 15.2603,-2.91592 21.51625,-9.17185 6.96079,-6.96081 8.86615,-11.90546 8.86615,-23.00885 0,-8.14095 -0.30851,-9.98415 -2.34375,-14.00269 -2.99549,-5.91453 -9.61403,-12.53307 -15.52856,-15.52856 -4.01854,-2.03524 -5.86174,-2.34375 -14.00269,-2.34375 -8.14095,0 -9.98415,0.30851 -14.00269,2.34375 -5.94707,3.01197 -12.80464,9.86288 -15.64272,15.62755 -1.89724,3.85362 -2.22959,5.92619 -2.22959,13.9037 0,7.81042 0.34753,10.07053 2.0824,13.54259 1.14533,2.29218 1.98908,4.25484 1.875,4.36146 -0.11407,0.10663 -1.26209,0.34058 -2.55115,0.51991 -1.91621,0.26656 -2.65555,-0.312 -4.05306,-3.17174 -4.10711,-8.40441 -3.74465,-22.81142 0.81096,-32.23438 2.96066,-6.12391 10.5763,-13.74862 16.72869,-16.74861 9.17129,-4.47205 23.62386,-4.69654 33.07958,-0.51383 5.86153,2.59284 14.4978,11.19474 17.66748,17.59718 1.46966,2.96858 2.75532,5.5227 2.85701,5.67582 0.10168,0.15311 2.04948,-0.98001 4.32842,-2.51804 8.76087,-5.91264 24.65097,-5.91264 33.41184,0 2.27894,1.53803 4.2281,2.67115 4.33145,2.51804 0.10335,-0.15312 1.32149,-2.64693 2.70697,-5.54181 3.12567,-6.53082 10.59764,-14.12973 16.92975,-17.21736 9.17129,-4.47205 23.62386,-4.69654 33.07958,-0.51383 5.62384,2.4877 14.47143,11.15903 17.47658,17.12843 4.46434,8.8679 5.02005,22.91106 1.26252,31.90413 -1.24482,2.97926 -1.89198,3.49329 -4.39806,3.49329 -1.61615,0 -2.77559,-0.31641 -2.57652,-0.70312 3.66145,-7.11302 3.98405,-8.5313 3.99829,-17.57813 0.0129,-8.15839 -0.28938,-9.97554 -2.32898,-14.00269 -2.99549,-5.91453 -9.61403,-12.53307 -15.52856,-15.52856 -4.01854,-2.03524 -5.86174,-2.34375 -14.00269,-2.34375 -8.14095,0 -9.98415,0.30851 -14.00269,2.34375 -5.94707,3.01197 -12.80463,9.86288 -15.64272,15.62755 -1.89724,3.85363 -2.22959,5.92619 -2.22959,13.9037 0,11.10339 1.90536,16.04804 8.86615,23.00885 6.81266,6.81264 11.93427,8.84208 22.699,8.99449 6.60423,0.0935 9.64291,0.53304 11.19344,1.61907 1.17056,0.8199 1.88218,1.73682 1.58138,2.03762 -1.28134,1.28134 -12.8424,2.18025 -18.23353,1.41772 -10.2752,-1.45334 -18.18788,-6.26442 -24.82019,-15.0912 -4.40632,-5.86425 -6.45908,-12.05493 -6.87901,-20.74552 -0.18247,-3.77631 -0.36984,-7.16465 -0.41638,-7.52964 -0.0465,-0.36498 -2.08852,-1.84154 -4.53773,-3.28125 -4.17694,-2.45528 -5.1218,-2.61764 -15.23438,-2.61764 -10.11258,0 -11.05744,0.16236 -15.23438,2.61764 -2.44921,1.43971 -4.50332,2.91627 -4.56468,3.28125 -0.0613,0.36499 -0.24564,3.74398 -0.40948,7.50889 -0.54149,12.44164 -5.47361,21.86397 -15.31574,29.2592 -6.97586,5.24157 -17.90834,8.04416 -26.81947,6.87529 z m 56.88435,-12.54257 c -3.25463,-1.98427 -3.47876,-3.37136 -0.81617,-5.05088 1.14411,-0.72168 2.09761,-0.67538 3.44711,0.16739 1.02603,0.64077 2.50406,1.16504 3.28449,1.16504 1.59165,0 5.16897,3.24411 5.16897,4.6875 0,1.69489 -7.83907,1.00956 -11.0844,-0.96905 z M -395.627,324.02429 c -5.52745,-3.69259 -7.85902,-10.96295 -5.50303,-17.15968 1.55173,-4.08136 0.24963,-3.8356 -4.18175,0.78925 -3.41057,3.55946 -4.3362,4.09404 -5.2281,3.01935 -3.68455,-4.43961 7.64043,-13.51787 16.91935,-13.56277 5.05669,-0.0245 11.69815,3.08218 14.33717,6.70645 2.59072,3.55794 3.03292,10.73114 0.91339,14.81678 -2.12986,4.10552 -7.15403,7.51868 -11.06754,7.51868 -1.65218,0 -4.43745,-0.95763 -6.18949,-2.12806 z m 112.5,0 c -5.52745,-3.69259 -7.85902,-10.96295 -5.50303,-17.15968 1.55173,-4.08136 0.24963,-3.8356 -4.18175,0.78925 -3.41057,3.55946 -4.3362,4.09404 -5.2281,3.01935 -3.68455,-4.43961 7.64043,-13.51787 16.91935,-13.56277 5.0567,-0.0245 11.69815,3.08218 14.33717,6.70645 2.59072,3.55794 3.03292,10.73114 0.91339,14.81678 -2.12986,4.10552 -7.15403,7.51868 -11.06754,7.51868 -1.65218,0 -4.43745,-0.95763 -6.18949,-2.12806 z m -84.83634,-48.65481 c -10.19373,-6.04117 -35.29695,-7.7262 -46.55229,-3.12475 -1.24479,0.50889 -1.64063,0.21039 -1.64063,-1.23722 0,-1.4519 1.28848,-2.4147 5.39063,-4.02807 7.39575,-2.90873 24.07413,-2.97721 32.77893,-0.13457 5.97223,1.95029 14.34174,6.36426 14.31609,7.55012 -0.0482,2.22512 -1.59133,2.57544 -4.29273,0.97449 z m 63.62933,0.42004 c -1.40445,-3.65993 11.02838,-8.54434 23.81938,-9.35776 13.3212,-0.84713 29.06072,3.04018 28.20352,6.96566 -0.40312,1.84602 -0.44089,1.84458 -6.26533,-0.23766 -10.02066,-3.5824 -32.17313,-2.37837 -41.54408,2.25801 -3.20837,1.58737 -3.72937,1.63335 -4.21349,0.37175 z"
         style="fill:#89726d" />
      <path
         inkscape:connector-curvature="0"
         id="path4192"
         d="m -352.17189,584.23087 c 1.41797,-0.21481 3.73829,-0.21481 5.15625,0 1.41797,0.2148 0.25782,0.39055 -2.57812,0.39055 -2.83594,0 -3.99609,-0.17575 -2.57813,-0.39055 z m 18.75,0 c 1.41797,-0.21481 3.73829,-0.21481 5.15625,0 1.41797,0.2148 0.25782,0.39055 -2.57812,0.39055 -2.83594,0 -3.99609,-0.17575 -2.57813,-0.39055 z m -33.28125,-0.88691 c 0.64454,-0.26007 1.69922,-0.26007 2.34375,0 0.64454,0.26007 0.11719,0.47287 -1.17187,0.47287 -1.28906,0 -1.81641,-0.2128 -1.17188,-0.47287 z m 50.625,0 c 0.64454,-0.26007 1.69922,-0.26007 2.34375,0 0.64454,0.26007 0.11719,0.47287 -1.17187,0.47287 -1.28906,0 -1.81641,-0.2128 -1.17188,-0.47287 z m -150.73727,-28.79478 c -7.2393,-3.73073 -9.94329,-5.61887 -10.40505,-7.26562 -1.09423,-3.90229 -0.91684,-295.23659 0.18591,-305.30878 2.19861,-20.08152 7.02339,-36.25556 15.9995,-53.63493 14.65941,-28.38325 36.18304,-49.90688 64.56629,-64.56629 36.2458,-18.72027 78.604,-21.92259 117.1875,-8.85948 44.28577,14.99371 79.05706,49.76499 94.05077,94.05077 4.05645,11.98123 5.87321,20.66658 7.15772,34.21875 0.6277,6.62254 0.97773,60.29529 0.97822,150.00178 l 7.9e-4,139.68927 -10.54688,6.68551 c -5.80078,3.67703 -12.535,7.82035 -14.96493,9.20738 l -4.41807,2.52188 -0.60404,-2.64666 c -3.93755,-17.25267 -7.04184,-26.2446 -12.6999,-36.78675 -15.16594,-28.25736 -41.77621,-51.00814 -71.43158,-61.07134 -8.8535,-3.00432 -9.17513,-3.21019 -8.61993,-5.51717 2.1752,-9.03854 2.20444,-9.0879 6.06952,-10.24591 2.0515,-0.61464 7.96817,-3.23923 13.14813,-5.83241 26.51701,-13.27488 46.6027,-36.57667 56.18685,-65.18345 4.97394,-14.84622 5.68538,-22.42233 5.68956,-60.58776 0.002,-18.94921 -0.13339,-34.45312 -0.30102,-34.45312 -1.02687,0 -22.78708,-4.01726 -27.95118,-5.16021 -8.46076,-1.87258 -19.63988,-6.71494 -28.02547,-12.13955 -12.42182,-8.03563 -15.52077,-12.12153 -35.12481,-46.31131 -9.79688,-17.08592 -18.02344,-31.06545 -18.28125,-31.06563 -0.25781,-1.8e-4 -7.19054,11.70435 -15.40606,26.01007 -24.30765,42.32697 -25.80993,44.2644 -41.54135,53.57461 -11.82855,7.0004 -19.94142,9.39764 -49.69322,14.6836 l -8.67187,1.54071 0.004,33.88698 c 0.004,37.55311 0.73108,45.22154 5.68956,60.02161 7.5194,22.4439 21.97828,42.21426 41.17527,56.30102 5.76931,4.23353 25.46256,14.5956 27.73912,14.5956 0.58482,0 1.86156,3.04761 2.83718,6.77247 l 1.77385,6.77246 -8.90625,3.09041 c -26.65865,9.25036 -53.70141,32.33768 -68.18146,58.20882 -7.02918,12.55885 -13.88694,33.97259 -14.53478,45.38558 -0.13888,2.44668 -0.27428,4.45059 -0.30089,4.45313 -0.0266,0.003 -4.44989,-2.26367 -9.82952,-5.03604 z m 89.85691,-163.47496 c -5.22814,-5.38237 -8.83167,-12.11055 -10.11742,-18.8903 -0.52544,-2.77062 -0.95534,-5.40178 -0.95534,-5.84703 0,-0.44525 22.14844,-0.80954 49.21875,-0.80954 27.07031,0 49.21875,0.36429 49.21875,0.80954 0,3.31793 -2.32605,11.69178 -4.32896,15.58436 -2.29648,4.46313 -10.23095,13.6061 -11.80767,13.6061 -0.4061,0 -0.73837,-1.4914 -0.73837,-3.31423 0,-2.98618 -0.17949,-3.21818 -1.81337,-2.34375 -1.13678,0.60839 -12.52784,0.97048 -30.53038,0.97048 -18.00254,0 -29.3936,-0.36209 -30.53038,-0.97048 -1.63388,-0.87443 -1.81337,-0.64243 -1.81337,2.34375 0,1.82283 -0.33227,3.31423 -0.73837,3.31423 -0.4061,0 -2.68485,-2.00391 -5.06387,-4.45313 z m 70.56185,-5.78726 c 2.54662,-2.5466 2.74039,-3.24266 2.74039,-9.84375 l 0,-7.10336 -35.15625,0 -35.15625,0 0,7.10336 c 0,6.60109 0.19377,7.29715 2.74039,9.84375 l 2.74038,2.74039 29.67548,0 29.67548,0 2.74038,-2.74039 z m -89.60336,-28.85524 c -1.54688,-0.17862 -3.82238,-0.54874 -5.05667,-0.82251 l -2.24418,-0.49775 2.24418,-1.58231 c 1.46945,-1.03608 5.04344,-1.78269 10.35297,-2.16277 9.75627,-0.69838 15.31797,-3.09185 21.46255,-9.23643 6.96079,-6.96081 8.86615,-11.90546 8.86615,-23.00885 0,-11.10339 -1.90536,-16.04804 -8.86615,-23.00885 -6.96081,-6.96079 -11.90546,-8.86615 -23.00885,-8.86615 -11.10339,0 -16.04804,1.90536 -23.00885,8.86615 -6.96079,6.96081 -8.86615,11.90546 -8.86615,23.00885 0,9.09226 0.28298,10.33179 4.01306,17.57812 0.19907,0.38672 -0.96037,0.70313 -2.57652,0.70313 -2.44925,0 -3.15776,-0.52485 -4.25568,-3.15252 -3.89501,-9.32209 -3.47987,-22.87916 0.98329,-32.11089 2.96066,-6.12391 10.5763,-13.74862 16.72869,-16.74861 9.16051,-4.4668 23.62359,-4.69666 33.05357,-0.52533 7.65552,3.3864 17.7985,14.74196 19.60818,21.95232 0.63763,2.54056 0.66786,2.54987 2.63897,0.81309 3.89674,-3.43348 7.02501,-4.83887 13.14198,-5.9041 9.97222,-1.73659 19.29024,0.40803 25.49482,5.86785 1.93296,1.70094 1.96807,1.67831 3.06256,-1.97481 2.22686,-7.43259 11.33125,-17.1682 19.49066,-20.84198 8.61245,-3.87776 23.01206,-3.83301 31.90134,0.0991 5.62384,2.4877 14.47143,11.15903 17.47658,17.12843 4.39156,8.72334 4.91932,23.15216 1.17464,32.11444 -1.15415,2.76227 -1.83778,3.28298 -4.31018,3.28298 -1.61615,0 -2.77559,-0.31641 -2.57652,-0.70312 3.66145,-7.11302 3.98405,-8.5313 3.99829,-17.57813 0.0175,-11.10327 -1.88108,-16.03853 -8.85138,-23.00885 -6.96081,-6.96079 -11.90546,-8.86615 -23.00885,-8.86615 -11.10339,0 -16.04804,1.90536 -23.00885,8.86615 -6.96079,6.96081 -8.86615,11.90546 -8.86615,23.00885 0,11.10339 1.90536,16.04804 8.86615,23.00885 6.7087,6.70868 11.96237,8.83163 22.38849,9.04694 6.50313,0.13429 9.39409,0.59976 11.24105,1.80994 l 2.48641,1.62915 -2.80354,0.80235 c -4.73541,1.35524 -16.6837,1.05635 -22.23025,-0.55607 -10.1708,-2.95674 -20.84621,-13.60403 -23.78879,-23.72613 -0.82108,-2.82445 -1.62429,-7.9489 -1.7849,-11.38769 -0.16061,-3.43879 -0.3317,-6.55096 -0.3802,-6.91595 -0.0485,-0.36498 -2.09208,-1.84154 -4.5413,-3.28125 -4.17693,-2.45528 -5.12179,-2.61764 -15.23437,-2.61764 -10.10721,0 -11.05908,0.16331 -15.22507,2.61218 -4.18366,2.45926 -6.3547,5.86576 -5.06665,7.94987 0.95817,1.55037 -1.32571,13.80315 -3.36081,18.03039 -2.51915,5.23266 -9.99233,13.27488 -15.13542,16.28788 -5.82128,3.41032 -15.66699,5.42044 -22.6183,4.6178 z m 56.01562,-12.45659 c -3.45955,-2.10933 -3.80129,-3.29056 -1.33401,-4.61101 3.15768,-1.68993 12.34964,2.56559 12.34964,5.71741 0,1.53038 -8.01059,0.7258 -11.01563,-1.1064 z m -55.11825,-19.51663 c -5.51746,-3.46667 -7.96805,-10.08718 -6.15899,-16.63909 0.54563,-1.97609 0.79002,-3.79491 0.5431,-4.04183 -0.24693,-0.24693 -2.29995,1.48285 -4.56229,3.84396 -3.00607,3.1373 -4.39257,4.01368 -5.15063,3.25562 -1.60863,-1.60863 -1.27204,-2.76284 1.94325,-6.66353 8.20904,-9.959 24.28103,-9.26502 29.59756,1.27799 2.55705,5.0708 2.61759,7.73197 0.29235,12.85327 -3.09276,6.81175 -10.83104,9.67819 -16.50435,6.11361 z m 112.5,0 c -5.51746,-3.46667 -7.96805,-10.08718 -6.15899,-16.63909 0.54563,-1.97609 0.79002,-3.79491 0.5431,-4.04183 -0.24693,-0.24693 -2.29995,1.48285 -4.56229,3.84396 -3.00607,3.1373 -4.39257,4.01368 -5.15063,3.25562 -1.60863,-1.60863 -1.27204,-2.76284 1.94325,-6.66353 8.20904,-9.959 24.28103,-9.26502 29.59756,1.27799 2.55705,5.0708 2.61759,7.73197 0.29235,12.85327 -3.09276,6.81175 -10.83104,9.67819 -16.50435,6.11361 z m -21.73137,-48.66898 c -1.40445,-3.65993 11.02838,-8.54434 23.81937,-9.35776 13.32121,-0.84713 29.06073,3.04018 28.20353,6.96566 -0.40312,1.84602 -0.44089,1.84458 -6.26533,-0.23766 -10.02066,-3.5824 -32.17313,-2.37837 -41.54408,2.25801 -3.20837,1.58737 -3.72937,1.63335 -4.21349,0.37175 z m -64.27549,-0.81706 c -10.61866,-5.74928 -34.97521,-7.19655 -45.90614,-2.72773 -1.24478,0.50889 -1.64062,0.21039 -1.64062,-1.23722 0,-1.4519 1.28848,-2.4147 5.39062,-4.02807 7.39575,-2.90873 24.07414,-2.97721 32.77894,-0.13457 7.05879,2.30512 14.56789,6.56388 14.09181,7.99212 -0.54288,1.62865 -1.88552,1.66723 -4.71461,0.13547 z"
         style="fill:#527f85" />
      <path
         inkscape:connector-curvature="0"
         id="path4190"
         d="m -467.84906,554.04431 c -6.26577,-3.29428 -8.93999,-5.23207 -9.37993,-6.79687 -1.08847,-3.87163 -0.90288,-295.24999 0.19444,-305.27266 2.19861,-20.08152 7.02339,-36.25556 15.9995,-53.63493 14.65941,-28.38325 36.18304,-49.90688 64.56629,-64.56629 36.2458,-18.72027 78.604,-21.92259 117.1875,-8.85948 44.28577,14.99371 79.05706,49.76499 94.05077,94.05077 4.05645,11.98123 5.87321,20.66658 7.15772,34.21875 0.6277,6.62254 0.97773,60.29529 0.97822,150.00178 l 7.9e-4,139.68927 -10.54688,6.68551 c -5.80078,3.67703 -12.4747,7.78501 -14.83094,9.12885 l -4.28406,2.44335 -1.68402,-7.25563 c -5.73135,-24.69357 -16.69628,-44.5909 -34.24193,-62.13655 -14.4098,-14.40981 -31.06523,-24.92448 -49.07757,-30.98297 -8.85786,-2.97936 -9.1754,-3.18159 -8.61993,-5.48971 2.1752,-9.03854 2.20444,-9.0879 6.06952,-10.24591 2.0515,-0.61464 7.96817,-3.23923 13.14814,-5.83241 26.517,-13.27488 46.60269,-36.57667 56.18685,-65.18345 4.97393,-14.84622 5.68537,-22.42233 5.68955,-60.58776 0.002,-18.94921 -0.13339,-34.45312 -0.30102,-34.45312 -1.02687,0 -22.78708,-4.01726 -27.95118,-5.16021 -8.46076,-1.87258 -19.63988,-6.71494 -28.02547,-12.13955 -12.42182,-8.03563 -15.52077,-12.12153 -35.12481,-46.31131 -9.79688,-17.08592 -18.02344,-31.06545 -18.28125,-31.06563 -0.25781,-1.8e-4 -7.19054,11.70435 -15.40606,26.01007 -24.30765,42.32697 -25.80993,44.2644 -41.54135,53.57461 -11.82855,7.0004 -19.94142,9.39764 -49.69322,14.6836 l -8.67187,1.54071 0.004,33.88698 c 0.004,37.55311 0.73108,45.22154 5.68956,60.02161 7.5194,22.4439 21.97828,42.21426 41.17527,56.30102 5.76931,4.23353 25.46256,14.5956 27.73912,14.5956 0.58482,0 1.86156,3.04761 2.83718,6.77247 l 1.77385,6.77246 -8.90625,3.09346 c -17.46992,6.06792 -37.17443,19.20718 -50.63643,33.76509 -17.0282,18.41447 -29.19552,44.15845 -32.33936,68.42464 -0.35071,2.70704 -0.97567,4.92188 -1.38881,4.92188 -0.41313,0 -4.6952,-2.07362 -9.5157,-4.60804 z m 90.89056,-162.97009 c -5.22814,-5.38237 -8.83167,-12.11055 -10.11742,-18.8903 -0.52544,-2.77062 -0.95534,-5.40178 -0.95534,-5.84703 0,-0.44525 22.14844,-0.80954 49.21875,-0.80954 27.07031,0 49.21875,0.36429 49.21875,0.80954 0,3.31793 -2.32605,11.69178 -4.32896,15.58436 -2.29648,4.46313 -10.23095,13.6061 -11.80767,13.6061 -0.4061,0 -0.73837,-1.4914 -0.73837,-3.31423 0,-2.98618 -0.17949,-3.21818 -1.81337,-2.34375 -1.13678,0.60839 -12.52784,0.97048 -30.53038,0.97048 -18.00254,0 -29.3936,-0.36209 -30.53038,-0.97048 -1.63388,-0.87443 -1.81337,-0.64243 -1.81337,2.34375 0,1.82283 -0.33227,3.31423 -0.73837,3.31423 -0.4061,0 -2.68485,-2.00391 -5.06387,-4.45313 z m 70.56185,-5.78726 c 2.54662,-2.5466 2.74039,-3.24266 2.74039,-9.84375 l 0,-7.10336 -35.15625,0 -35.15625,0 0,7.10336 c 0,6.60109 0.19377,7.29715 2.74039,9.84375 l 2.74038,2.74039 29.67548,0 29.67548,0 2.74038,-2.74039 z m -89.60336,-28.85524 c -1.54688,-0.17862 -3.82238,-0.54874 -5.05667,-0.82251 l -2.24418,-0.49775 2.24418,-1.58231 c 1.46945,-1.03608 5.04344,-1.78269 10.35297,-2.16277 9.75627,-0.69838 15.31797,-3.09185 21.46255,-9.23643 6.96079,-6.96081 8.86615,-11.90546 8.86615,-23.00885 0,-11.10339 -1.90536,-16.04804 -8.86615,-23.00885 -6.96081,-6.96079 -11.90546,-8.86615 -23.00885,-8.86615 -11.10339,0 -16.04804,1.90536 -23.00885,8.86615 -6.96079,6.96081 -8.86615,11.90546 -8.86615,23.00885 0,9.09226 0.28298,10.33179 4.01306,17.57812 0.19907,0.38672 -0.96037,0.70313 -2.57652,0.70313 -2.44925,0 -3.15776,-0.52485 -4.25568,-3.15252 -3.89501,-9.32209 -3.47987,-22.87916 0.98329,-32.11089 2.96066,-6.12391 10.5763,-13.74862 16.72869,-16.74861 9.16051,-4.4668 23.62359,-4.69666 33.05357,-0.52533 7.65552,3.3864 17.7985,14.74196 19.60818,21.95232 0.63763,2.54056 0.66786,2.54987 2.63897,0.81309 3.89674,-3.43348 7.02501,-4.83887 13.14198,-5.9041 9.97222,-1.73659 19.29024,0.40803 25.49482,5.86785 1.93296,1.70094 1.96807,1.67831 3.06256,-1.97481 2.22686,-7.43259 11.33125,-17.1682 19.49066,-20.84198 8.61245,-3.87776 23.01206,-3.83301 31.90134,0.0991 5.62384,2.4877 14.47143,11.15903 17.47658,17.12843 4.39156,8.72334 4.91932,23.15216 1.17464,32.11444 -1.15415,2.76227 -1.83778,3.28298 -4.31018,3.28298 -1.61615,0 -2.77559,-0.31641 -2.57652,-0.70312 3.66145,-7.11302 3.98405,-8.5313 3.99829,-17.57813 0.0175,-11.10327 -1.88108,-16.03853 -8.85138,-23.00885 -6.96081,-6.96079 -11.90546,-8.86615 -23.00885,-8.86615 -11.10339,0 -16.04804,1.90536 -23.00885,8.86615 -6.96079,6.96081 -8.86615,11.90546 -8.86615,23.00885 0,11.10339 1.90536,16.04804 8.86615,23.00885 6.7087,6.70868 11.96237,8.83163 22.38849,9.04694 6.50313,0.13429 9.39409,0.59976 11.24105,1.80994 l 2.48641,1.62915 -2.80354,0.80235 c -4.73541,1.35524 -16.6837,1.05635 -22.23025,-0.55607 -10.1708,-2.95674 -20.84621,-13.60403 -23.78879,-23.72613 -0.82108,-2.82445 -1.62429,-7.9489 -1.7849,-11.38769 -0.16061,-3.43879 -0.3317,-6.55096 -0.3802,-6.91595 -0.0485,-0.36498 -2.09208,-1.84154 -4.5413,-3.28125 -4.17693,-2.45528 -5.12179,-2.61764 -15.23437,-2.61764 -10.10721,0 -11.05908,0.16331 -15.22507,2.61218 -4.18366,2.45926 -6.3547,5.86576 -5.06665,7.94987 0.95817,1.55037 -1.32571,13.80315 -3.36081,18.03039 -2.51915,5.23266 -9.99233,13.27488 -15.13542,16.28788 -5.82128,3.41032 -15.66699,5.42044 -22.6183,4.6178 z m 56.01562,-12.45659 c -3.45955,-2.10933 -3.80129,-3.29056 -1.33401,-4.61101 3.15768,-1.68993 12.34964,2.56559 12.34964,5.71741 0,1.53038 -8.01059,0.7258 -11.01563,-1.1064 z m -55.11825,-19.51663 c -5.51746,-3.46667 -7.96805,-10.08718 -6.15899,-16.63909 0.54563,-1.97609 0.79002,-3.79491 0.5431,-4.04183 -0.24693,-0.24693 -2.29995,1.48285 -4.56229,3.84396 -3.00607,3.1373 -4.39257,4.01368 -5.15063,3.25562 -1.60863,-1.60863 -1.27204,-2.76284 1.94325,-6.66353 8.20904,-9.959 24.28103,-9.26502 29.59756,1.27799 2.55705,5.0708 2.61759,7.73197 0.29235,12.85327 -3.09276,6.81175 -10.83104,9.67819 -16.50435,6.11361 z m 112.5,0 c -5.51746,-3.46667 -7.96805,-10.08718 -6.15899,-16.63909 0.54563,-1.97609 0.79002,-3.79491 0.5431,-4.04183 -0.24693,-0.24693 -2.29995,1.48285 -4.56229,3.84396 -3.00607,3.1373 -4.39257,4.01368 -5.15063,3.25562 -1.60863,-1.60863 -1.27204,-2.76284 1.94325,-6.66353 8.20904,-9.959 24.28103,-9.26502 29.59756,1.27799 2.55705,5.0708 2.61759,7.73197 0.29235,12.85327 -3.09276,6.81175 -10.83104,9.67819 -16.50435,6.11361 z m -21.73137,-48.66898 c -1.40445,-3.65993 11.02838,-8.54434 23.81937,-9.35776 13.32121,-0.84713 29.06073,3.04018 28.20353,6.96566 -0.40312,1.84602 -0.44089,1.84458 -6.26533,-0.23766 -10.02066,-3.5824 -32.17313,-2.37837 -41.54408,2.25801 -3.20837,1.58737 -3.72937,1.63335 -4.21349,0.37175 z m -64.27549,-0.81706 c -10.61866,-5.74928 -34.97521,-7.19655 -45.90614,-2.72773 -1.24478,0.50889 -1.64062,0.21039 -1.64062,-1.23722 0,-1.4519 1.28848,-2.4147 5.39062,-4.02807 7.39575,-2.90873 24.07414,-2.97721 32.77894,-0.13457 7.05879,2.30512 14.56789,6.56388 14.09181,7.99212 -0.54288,1.62865 -1.88552,1.66723 -4.71461,0.13547 z"
         style="fill:#646a72" />
      <path
         inkscape:connector-curvature="0"
         id="path4188"
         d="m -467.82489,553.97219 c -8.01221,-4.07556 -9.07864,-4.91559 -9.60938,-7.56927 -1.06774,-5.33867 -0.68813,-293.5545 0.39972,-303.49064 1.42499,-13.01557 3.30468,-21.63302 7.42961,-34.06112 12.49955,-37.66031 39.2238,-68.11071 76.05389,-86.65804 8.07753,-4.06778 25.79736,-10.05895 35.6981,-12.06973 37.87783,-7.69272 77.31289,-0.51504 110.60076,20.13076 18.3749,11.39647 36.04785,29.24909 47.50911,47.9921 8.86179,14.49198 16.02019,32.54244 19.28829,48.63686 3.19824,15.75038 3.42783,27.94046 3.15862,167.70674 l -0.26634,138.28125 -9.375,6.15969 c -5.15625,3.38784 -11.75074,7.47648 -14.65442,9.08589 l -5.27943,2.92618 -1.11931,-5.80463 c -2.75689,-14.29691 -10.75674,-32.95114 -19.89036,-46.38079 -13.99704,-20.58059 -39.646,-39.95724 -63.58773,-48.03768 -4.89844,-1.65324 -9.00028,-3.08706 -9.11522,-3.18624 -0.11493,-0.0992 0.16054,-1.63319 0.61214,-3.40889 0.45161,-1.77569 1.06356,-4.31909 1.35988,-5.65198 0.41438,-1.86386 1.45997,-2.69944 4.52824,-3.61872 12.95684,-3.88197 29.17544,-14.2982 41.5844,-26.70714 13.57016,-13.57017 22.48563,-28.03909 27.95673,-45.37105 4.59334,-14.55124 5.25346,-22.01659 5.25756,-59.45777 0.002,-18.94921 -0.12348,-34.45312 -0.27899,-34.45312 -1.89536,0 -27.5822,-5.02302 -31.50561,-6.16087 -16.67678,-4.83653 -32.20475,-14.61065 -40.15998,-25.27881 -1.93622,-2.59651 -11.10904,-17.88948 -20.38405,-33.98438 -9.27501,-16.09489 -17.091,-29.26344 -17.36887,-29.26344 -0.27787,0 -8.08766,13.16815 -17.3551,29.26256 -9.26744,16.09441 -18.43406,31.38738 -20.37028,33.98438 -7.94123,10.65137 -23.48487,20.44373 -40.09874,25.26188 -3.78126,1.0966 -35.25406,7.11014 -37.24023,7.11554 -0.12891,3.5e-4 -0.23268,15.29361 -0.23061,33.98501 0.004,36.9373 0.67589,44.47475 5.25756,58.98902 2.9592,9.3745 8.18276,20.18469 14.1374,29.2575 5.62959,8.57754 21.35534,24.30329 29.93288,29.93288 7.17531,4.70929 20.24973,11.4442 24.08531,12.40687 2.03171,0.50993 2.55834,1.49745 3.85093,7.22118 0.82354,3.64676 1.38846,6.70119 1.25538,6.7876 -0.13309,0.0864 -3.61698,1.34985 -7.74198,2.80764 -27.04074,9.5563 -51.76463,29.71924 -66.69842,54.39419 -7.50633,12.40262 -14.13263,30.76105 -16.36394,45.33692 -0.64256,4.1975 -1.41171,7.61027 -1.70922,7.58391 -0.29751,-0.0263 -4.5965,-2.11086 -9.5533,-4.63224 z m 91.17359,-162.99453 c -5.70435,-5.71441 -9.36055,-12.88181 -10.37152,-20.33175 l -0.6946,-5.11856 48.90491,0 48.90491,0 -0.6946,5.11856 c -1.01097,7.44994 -4.66717,14.61734 -10.37152,20.33175 l -5.0096,5.01844 -0.29453,-3.43533 c -0.29014,-3.38415 -0.33904,-3.42255 -3.2834,-2.57812 -1.64388,0.47146 -14.80695,0.8572 -29.25126,0.8572 -14.44431,0 -27.60738,-0.38574 -29.25126,-0.8572 -2.94436,-0.84443 -2.99327,-0.80603 -3.2834,2.57812 l -0.29453,3.43533 -5.0096,-5.01844 z m 70.52345,-5.4219 c 2.25138,-2.25138 2.47159,-3.12843 2.47159,-9.84375 l 0,-7.37216 -35.15625,0 -35.15625,0 0,7.37216 c 0,6.71532 0.22021,7.59237 2.47159,9.84375 l 2.47159,2.47159 30.21307,0 30.21307,0 2.47159,-2.47159 z m -32.68466,-41.18651 c -4.14934,-2.15257 -4.45013,-2.7169 -2.42498,-4.54964 1.16162,-1.05125 2.2911,-1.37087 3.06903,-0.86847 0.67702,0.43723 2.65919,1.21683 4.40483,1.73246 1.903,0.56211 3.48633,1.78213 3.95417,3.04687 0.72121,1.94968 0.5164,2.10894 -2.70513,2.1036 -1.91698,-0.003 -4.75104,-0.66234 -6.29792,-1.46482 z m -54.5504,-19.24092 c -6.20011,-1.81366 -9.86254,-10.27604 -7.52298,-17.38254 1.73652,-5.27477 0.52238,-5.25624 -4.58099,0.0699 -3.24865,3.39048 -4.18696,3.9251 -5.05444,2.87985 -0.80457,-0.96944 -0.72851,-1.9309 0.31083,-3.929 4.51868,-8.68704 15.96379,-12.15057 25.00601,-7.56735 5.16971,2.62037 7.85175,7.01021 7.83085,12.81719 -0.0349,9.68476 -7.31006,15.65077 -15.98928,13.11192 z m 112.5,0 c -6.20011,-1.81366 -9.86254,-10.27604 -7.52298,-17.38254 1.73652,-5.27477 0.52238,-5.25624 -4.58099,0.0699 -3.24865,3.39048 -4.18696,3.9251 -5.05444,2.87985 -0.80457,-0.96944 -0.72851,-1.9309 0.31084,-3.929 4.51867,-8.68704 15.96378,-12.15057 25.006,-7.56735 5.16971,2.62037 7.85175,7.01021 7.83085,12.81719 -0.0349,9.68476 -7.31006,15.65077 -15.98928,13.11192 z"
         style="fill:#424a52" />
      <path
         inkscape:connector-curvature="0"
         id="path4186"
         d="m -467.8661,553.95151 -9.05359,-4.60502 -0.62078,-7.76894 c -0.34144,-4.27293 -0.46146,-73.37051 -0.26671,-153.5502 0.38737,-159.48396 0.136,-152.15483 5.90068,-172.04754 7.3381,-25.32225 19.57273,-45.9883 38.33107,-64.74663 18.75848,-18.75849 39.42435,-30.99296 64.74717,-38.33123 24.90621,-7.21754 57.58488,-7.21878 82.53905,-0.003 56.19611,16.24943 96.89239,62.02233 107.06187,120.4172 1.39313,7.99962 1.58933,24.04128 1.88307,153.95801 l 0.32791,145.02792 -8.24183,5.53358 c -4.53299,3.04346 -11.21721,7.21624 -14.85379,9.27286 l -6.61197,3.73929 -1.16628,-6.17579 c -3.57559,-18.93375 -15.41866,-42.55096 -28.95341,-57.73828 -14.71647,-16.51332 -36.24832,-30.48616 -57.20743,-37.12406 -5.14815,-1.63046 -6.69642,-2.50751 -6.37051,-3.6087 0.2368,-0.8001 0.90747,-3.40265 1.49039,-5.78343 0.96181,-3.92829 1.4076,-4.43288 4.81934,-5.45505 19.4066,-5.81437 42.52952,-23.77709 55.59087,-43.18501 6.65898,-9.89461 10.46535,-17.78665 14.04706,-29.12474 4.65026,-14.721 5.19266,-20.84593 5.19266,-58.63678 l 0,-35.01559 -2.10938,-0.45962 c -1.16015,-0.25279 -8.03286,-1.51883 -15.27268,-2.8134 -7.23982,-1.29458 -15.5641,-3.17977 -18.4984,-4.18931 -12.36724,-4.25496 -28.03629,-14.15951 -34.32094,-21.6946 -1.74358,-2.09049 -11.14366,-17.59264 -20.88906,-34.44922 -9.7454,-16.85658 -18.11407,-30.64832 -18.59704,-30.64832 -0.48297,0 -8.85164,13.79174 -18.59704,30.64832 -9.7454,16.85658 -19.14548,32.35873 -20.88906,34.44922 -6.28465,7.53509 -21.9537,17.43964 -34.32094,21.6946 -2.9343,1.00954 -11.25858,2.90004 -18.4984,4.2011 -7.23982,1.30107 -15.40743,2.80599 -18.15026,3.34426 l -4.98693,0.9787 0.37158,38.12315 c 0.4104,42.10514 0.66803,44.25677 7.37101,61.56065 8.16839,21.08686 24.03338,40.67254 43.18265,53.30994 7.15328,4.72076 21.54737,11.84631 23.93031,11.84631 0.74857,0 4.45821,13.17991 3.81037,13.53779 -0.14,0.0773 -3.20767,1.13836 -6.81704,2.35783 -19.74604,6.67144 -39.62273,20.06017 -54.29538,36.57278 -16.00054,18.00702 -27.71703,43.43574 -30.14382,65.42222 -0.35571,3.22266 -0.90865,5.83782 -1.22877,5.81146 -0.32011,-0.0263 -4.65614,-2.12017 -9.63562,-4.65292 z"
         style="fill:#443a38" />
      <path
         inkscape:connector-curvature="0"
         id="path4184"
         d="m -467.88048,553.83886 -9.05305,-4.6586 -0.61387,-7.68583 c -0.33762,-4.22721 -0.4549,-73.28739 -0.26062,-153.46708 0.37811,-156.04557 0.17538,-149.09813 4.89796,-167.84632 13.22065,-52.48475 55.79885,-95.06191 108.28605,-108.28341 23.19535,-5.8429 50.92765,-5.8429 74.123,0 52.52121,13.23006 95.05683,55.76465 108.28605,108.28341 4.71475,18.71707 4.51554,11.88445 4.87128,167.08025 l 0.3324,145.01519 -5.90061,4.00949 c -6.77698,4.60499 -22.37596,13.92889 -23.30318,13.92889 -0.34311,0 -0.8768,-1.84558 -1.18597,-4.10129 -0.90899,-6.63175 -6.16947,-21.96718 -10.64279,-31.02597 -11.29346,-22.87011 -28.80834,-41.5127 -51.39368,-54.70272 -6.67327,-3.89724 -22.89575,-10.68914 -28.27107,-11.83631 l -2.95858,-0.6314 1.55233,-5.71743 c 1.52936,-5.6329 1.62164,-5.741 6.23982,-7.31049 30.51007,-10.3688 58.30688,-39.28093 68.33482,-71.07663 4.73428,-15.01109 5.25893,-20.92982 5.25893,-59.3277 l 0,-35.48434 -2.10938,-0.49162 c -1.16015,-0.27039 -7.92134,-1.5485 -15.02484,-2.84025 -18.79145,-3.41716 -27.3886,-6.64842 -40.19839,-15.10868 -11.01777,-7.27672 -14.75642,-12.32958 -34.07364,-46.05129 -9.79688,-17.10221 -18.02344,-31.09493 -18.28125,-31.09493 -0.25781,0 -8.48438,13.99272 -18.28125,31.09493 -19.31722,33.72171 -23.05587,38.77457 -34.07364,46.05129 -13.28418,8.77357 -21.32416,11.68943 -43.0234,15.60326 -8.6435,1.55901 -16.66468,3.04612 -17.82483,3.30468 l -2.10938,0.47011 0,35.01559 c 0,37.89198 0.53511,43.88102 5.25893,58.85895 9.72398,30.83193 34.43725,57.39182 64.935,69.78704 l 5.24641,2.13229 1.60381,6.35498 c 0.88209,3.49524 1.52129,6.37077 1.42045,6.39007 -0.10084,0.0193 -3.13648,1.03859 -6.74585,2.26509 -36.84541,12.5204 -66.32404,42.01918 -79.26237,79.31652 -2.64961,7.63801 -5.56977,20.21533 -5.59573,24.1011 -0.0303,4.5318 -1.09307,4.4992 -10.45987,-0.32084 z"
         style="fill:#2e2626" />
    </g>
  </g>
</svg>
