<?xml version="1.0" encoding="UTF-8" standalone="no"?>
<!-- Created with Inkscape (http://www.inkscape.org/) -->

<svg
   xmlns:dc="http://purl.org/dc/elements/1.1/"
   xmlns:cc="http://creativecommons.org/ns#"
   xmlns:rdf="http://www.w3.org/1999/02/22-rdf-syntax-ns#"
   xmlns:svg="http://www.w3.org/2000/svg"
   xmlns="http://www.w3.org/2000/svg"
   xmlns:sodipodi="http://sodipodi.sourceforge.net/DTD/sodipodi-0.dtd"
   xmlns:inkscape="http://www.inkscape.org/namespaces/inkscape"
   id="svg3390"
   version="1.1"
   inkscape:version="0.91 r13725"
   width="564"
   height="553"
   viewBox="0 0 564 553"
   sodipodi:docname="Pmc.svg">
  <metadata
     id="metadata3396">
    <rdf:RDF>
      <cc:Work
         rdf:about="">
        <dc:format>image/svg+xml</dc:format>
        <dc:type
           rdf:resource="http://purl.org/dc/dcmitype/StillImage" />
        <dc:title></dc:title>
      </cc:Work>
    </rdf:RDF>
  </metadata>
  <defs
     id="defs3394" />
  <sodipodi:namedview
     pagecolor="#ffffff"
     bordercolor="#666666"
     borderopacity="1"
     objecttolerance="10"
     gridtolerance="10"
     guidetolerance="10"
     inkscape:pageopacity="0"
     inkscape:pageshadow="2"
     inkscape:window-width="882"
     inkscape:window-height="627"
     id="namedview3392"
     showgrid="false"
     inkscape:zoom="0.31007847"
     inkscape:cx="-157.11797"
     inkscape:cy="421.81112"
     inkscape:window-x="0"
     inkscape:window-y="0"
     inkscape:window-maximized="0"
     inkscape:current-layer="svg3390" />
  <g
     id="g3459"
     transform="translate(593.39818,0)">
    <path
       inkscape:connector-curvature="0"
       id="path3457"
       d="m -335.78557,546.4127 c -31.59629,-4.02218 -59.02566,-12.2806 -86.94482,-26.17729 -79.23764,-39.44032 -132.80699,-113.66951 -145.70198,-201.89417 -2.22329,-15.21129 -2.51477,-55.33887 -0.50483,-69.5 6.14439,-43.29055 20.222,-80.89731 43.11186,-115.16852 37.14395,-55.612771 93.29262,-94.945017 158.21239,-110.828067 23.68441,-5.794547 30.65673,-6.504103 63.82738,-6.495569 32.97102,0.0085 42.17712,1.005953 65.69198,7.117644 105.39447,27.392828 183.344553,115.184262 197.890453,222.874512 6.41804,47.51585 -0.45827,97.10037 -19.5537,141 -36.80932,84.6232 -113.234313,143.52583 -205.028733,158.02071 -14.29477,2.25723 -56.60383,2.88337 -71,1.05075 z m 73,-6.50323 c 57.03161,-9.67913 105.51443,-34.98515 145.0435,-75.70667 40.504013,-41.72588 64.233933,-90.40197 72.571013,-148.86156 2.07943,-14.58095 2.36727,-49.44336 0.52428,-63.5 -4.25186,-32.42946 -11.51795,-56.6968 -25.60027,-85.5 C -104.47406,96.335225 -168.68557,45.051604 -244.28557,27.342394 c -22.44536,-5.257799 -30.10298,-6.004581 -61,-5.948808 -26.87073,0.04851 -30.06464,0.245939 -43.5,2.688969 -27.19639,4.945278 -51.77081,13.312385 -76,25.876507 -24.55095,12.73097 -44.42261,27.285413 -64,46.875007 -40.43169,40.456901 -65.33122,89.890671 -74.1333,147.179081 -2.92101,19.01144 -3.16654,54.18911 -0.50482,72.32809 4.71777,32.15043 13.05585,58.17008 27.65747,86.30731 12.25348,23.61238 24.93125,41.03528 44.43391,61.06498 42.11486,43.25295 96.80439,70.71934 153.54674,77.11485 5.775,0.65091 11.175,1.34663 12,1.54606 0.825,0.19942 12.525,0.20371 26,0.01 19.1107,-0.27539 27.24964,-0.81971 37,-2.4745 z"
       style="fill:#ffffff" />
    <g
       transform="translate(4,2)"
       id="g3444">
      <path
         inkscape:connector-curvature="0"
         id="path3422"
         d="m -342.73715,538.59036 c -42.91799,-5.86878 -79.73733,-20.32162 -115.60924,-45.38056 -31.58522,-22.0644 -60.46724,-53.90546 -78.143,-86.14898 -16.3631,-29.84901 -27.02868,-62.30507 -31.38284,-95.5 -2.15983,-16.46599 -2.17289,-46.31169 -0.0278,-63.5 5.88224,-47.13333 24.23433,-91.67102 53.33553,-129.4371 9.94576,-12.9071 34.99343,-37.451528 48.2181,-47.249334 39.68647,-29.40264 80.87874,-45.711512 130,-51.469687 16.39474,-1.921852 48.9188,-1.341363 65,1.16012 56.4505,8.781059 106.00868,33.52878 145.09561,72.455964 34.05146,33.912287 55.93723,70.779707 68.49857,115.388467 10.90117,38.71302 12.51556,83.73762 4.41421,123.11079 -11.89485,57.80993 -44.63983,111.9626 -90.00839,148.85319 -5.225,4.24861 -11.20667,9.1079 -13.29261,10.79841 -9.31585,7.54987 -47.83753,29.09238 -49.33837,27.59153 -0.28586,-0.28585 0.43831,-0.82381 1.60926,-1.19545 l 2.12899,-0.67572 -0.20226,-44.41559 -0.20227,-44.41559 -97.19438,0 -97.19438,0 -0.22213,45.5 -0.22213,45.5 95.31514,0.04 c 106.16209,0.0446 99.8471,-0.5066 78.50573,6.85222 -13.97949,4.82033 -32.28004,9.38807 -46.69059,11.65378 -16.66457,2.62009 -54.8985,2.87546 -72.39076,0.4835 z m -4.28108,-45.30758 c -1.33161,-2.1546 1.22129,-5.68058 7.76301,-10.72196 13.35163,-10.28946 17.47808,-19.04727 11.27397,-23.92742 -5.47684,-4.30808 -11.20737,-1.7068 -13.77144,6.25133 -0.77404,2.40241 -4.00701,1.7582 -4.3857,-0.87391 -0.75026,-5.21463 9.21065,-13.45493 16.25389,-13.44626 1.67096,0.002 4.51183,0.90226 6.31304,2.00046 9.08578,5.5396 6.05676,16.66612 -7.88768,28.97386 -4.37565,3.86207 -7.29788,7.02194 -6.49385,7.02194 0.80403,0 4.88341,-0.47589 9.06528,-1.05754 4.18187,-0.58164 8.48943,-0.77632 9.57236,-0.43261 2.23297,0.70872 2.71945,4.88859 0.71896,6.17746 -1.66373,1.07191 -27.76112,1.10372 -28.42184,0.0346 z m 41.05014,-0.15888 c -4.32959,-1.88434 -6.3783,-5.22586 -6.3783,-10.40323 0,-3.74731 0.55274,-4.94639 3.75,-8.13498 l 3.75,-3.73983 -2.25,-1.68921 c -1.78234,-1.3381 -2.25,-2.67984 -2.25,-6.45542 0,-3.89686 0.5016,-5.24475 2.75,-7.3897 5.26748,-5.02513 11.60034,-6.05391 17,-2.76167 2.81814,1.71826 3.25,2.52774 3.25,6.09189 0,2.54427 -0.78308,5.21006 -2.05528,6.99671 l -2.05529,2.88638 3.55529,3.12158 c 3.15015,2.76588 3.55528,3.67079 3.55528,7.94127 0,3.78103 -0.58371,5.51338 -2.70863,8.0387 -5.06574,6.02029 -13.41543,8.32543 -19.91307,5.49751 z m 14.69862,-6.48616 c 1.6077,-1.60769 2.92308,-3.87814 2.92308,-5.04545 0,-3.051 -4.17287,-6.78567 -8.48593,-7.59481 -3.11814,-0.58497 -4.08048,-0.31659 -6.03756,1.68373 -4.03332,4.12243 -3.70565,9.15959 0.77349,11.89057 4.49259,2.73919 7.40495,2.48794 10.82692,-0.93404 z m -2.20805,-22.16938 c 2.8588,-2.66338 2.42555,-5.89626 -1.0508,-7.8411 -4.06224,-2.27262 -8.22187,-0.51801 -8.62675,3.63893 -0.25365,2.60423 0.19206,3.44072 2.5,4.69191 3.73782,2.02635 4.53524,1.97194 7.17755,-0.48974 z m 17.38113,29.11428 c -2.65726,-1.13066 -3.04285,-5.11892 -0.68417,-7.07646 1.23809,-1.02752 2.24718,-1.05315 4.821,-0.12244 6.47656,2.34195 10.95678,1.17369 13.44983,-3.50718 1.89014,-3.54888 1.35387,-6.27905 -1.86575,-9.49867 -2.63173,-2.63174 -3.51719,-2.94787 -6.75,-2.40997 -8.41896,1.40083 -7.68857,2.20557 -8.00914,-8.82446 -0.21123,-7.26795 0.0559,-10.13028 1,-10.71439 1.43306,-0.88665 17.16348,-1.04522 19.37823,-0.19534 1.69299,0.64966 1.87085,3.92423 0.267,4.91547 -0.62866,0.38853 -4.22866,0.61632 -8,0.5062 l -6.857,-0.20022 0,5.088 c 0,4.72049 0.13972,5.01323 1.93426,4.05282 7.38055,-3.94995 17.23844,3.90025 15.63444,12.45029 -1.91785,10.22304 -15.86502,19.13339 -24.3187,15.53635 z"
         style="fill:#d6d5d5" />
      <path
         inkscape:connector-curvature="0"
         id="path3420"
         d="m -333.84639,539.57074 c -28.72436,-3.07527 -53.98498,-9.6454 -79,-20.54742 -15.56384,-6.78302 -23.18656,-11.16363 -23.87122,-13.71826 -0.33081,-1.23433 -0.60762,-23.10541 -0.61513,-48.6024 l -0.0136,-46.35815 -4.97342,-7.43589 c -5.56563,-8.32129 -9.44646,-19.16626 -8.56609,-23.93787 0.83744,-4.53886 4.62763,-7.64239 9.489,-7.76986 l 4.05051,-0.10621 0,-70.30634 c 0,-42.97808 0.4139,-74.08088 1.06483,-80.01693 1.95241,-17.80489 8.30653,-38.16311 16.50329,-52.87561 l 3.43471,-6.16502 -2.44482,-4.86752 c -5.3426,-10.63689 -7.02799,-19.46251 -7.02799,-36.80244 0,-13.64542 0.33366,-17.15947 2.26731,-23.878939 5.99256,-20.824333 16.07125,-31.074255 27.25916,-27.722276 10.73105,3.215099 19.95423,21.234731 21.6174,42.234635 l 0.60456,7.63341 11.11078,-5.79137 c 12.28263,-6.4022 24.69149,-10.91027 37.61077,-13.663814 12.05651,-2.569655 43.9687,-2.57304 55.87475,-0.0059 12.74626,2.748274 23.62485,6.440484 34.29688,11.640404 l 9.67162,4.71247 0.69468,-6.07929 c 1.72833,-15.124957 6.49445,-27.404499 13.64946,-35.166772 12.48512,-13.54475 28.24538,-3.679314 35.28524,22.087473 2.19724,8.042169 3.09319,29.967959 1.61191,39.446739 -0.64005,4.09571 -2.3074,10.76025 -3.70521,14.81009 l -2.54149,7.36335 3.49577,5.86837 c 5.1997,8.72877 11.36604,22.94477 14.21118,32.76275 5.33139,18.39752 5.44685,20.61094 5.45119,104.4987 l 0.004,77.74997 3.27749,0 c 4.10447,0 7.08085,2.03668 8.70439,5.95626 2.16847,5.23514 -1.16534,14.89061 -8.42534,24.40172 l -3.55654,4.65933 0,39.4282 0,39.42821 -8.7346,5.75218 c -8.93562,5.88456 -35.06707,19.90577 -35.77646,19.19637 -0.2165,-0.2165 -0.47443,-20.29008 -0.57317,-44.60796 l -0.17953,-44.21431 -97.2274,0 -97.2274,0 -0.19989,45.5 -0.19988,45.5 95.30917,0.0706 95.30916,0.0706 -4.5,1.99833 c -14.14355,6.28075 -39.86144,13.29994 -60,16.3758 -12.22301,1.86689 -50.4777,2.78164 -62.5,1.49452 z m 179.47968,-143.97008 c 2.30554,-4.51923 2.54631,-7.11385 0.82032,-8.83984 -2.81623,-2.81623 -3.8,-1.31468 -3.8,5.8 0,3.85 0.21585,7 0.47968,7 0.26382,0 1.38882,-1.78207 2.5,-3.96016 z m -282.97968,-8.53984 c 0,-8.29866 -0.0567,-8.5 -2.39301,-8.5 -2.38267,0 -3.61582,1.65636 -3.59722,4.83179 0.0111,1.89245 4.6086,12.16821 5.44423,12.16821 0.3003,0 0.546,-3.825 0.546,-8.5 z m 90,104.54978 c 0,-1.21641 3.10428,-4.55614 8.25,-8.87575 13.59862,-11.41544 15.73421,-14.66183 13.69993,-20.82575 -1.25224,-3.79431 -3.48749,-5.34828 -7.69306,-5.34828 -3.65295,0 -6.14016,1.82487 -8.16027,5.98723 -1.91588,3.94757 -3.47288,4.3881 -3.93571,1.11353 -0.50116,-3.5458 1.75054,-6.97049 6.30244,-9.58558 7.46183,-4.28687 12.90334,-4.14851 17.49674,0.44489 2.5507,2.5507 2.75251,9.73602 0.41198,14.66832 -0.89537,1.88685 -5.50787,7.07952 -10.25,11.53926 l -8.62205,8.10862 8,-0.7854 c 4.4,-0.43197 9.06798,-0.83163 10.37329,-0.88813 2.7356,-0.11842 4.7335,2.37361 3.81724,4.76134 -0.54134,1.41071 -2.62825,1.63592 -15.15915,1.63592 -13.74109,0 -14.53138,-0.10606 -14.53138,-1.95022 z m 40.11007,0.55471 c -6.8223,-3.78131 -6.59278,-14.43729 0.40979,-19.02555 l 2.62208,-1.71805 -2.57097,-2.3827 c -1.89796,-1.75897 -2.57097,-3.38403 -2.57097,-6.20793 0,-7.83559 6.21841,-12.07205 16.75,-11.4114 6.25381,0.3923 8.27607,8.57985 3.5163,14.23651 -2.15904,2.56587 -2.42383,3.35212 -1.25962,3.74019 3.20422,1.06807 6.99332,6.00925 6.99332,9.11964 0,8.74487 -6.73374,15.06876 -15.98213,15.00936 -3.03483,-0.0195 -6.59334,-0.63152 -7.9078,-1.36007 z m 14.20567,-3.76783 c 3.08653,-1.6439 4.61557,-3.92201 4.65246,-6.93167 0.0374,-3.04901 -2.11358,-5.23213 -7.28318,-7.39213 -3.46429,-1.44747 -3.92001,-1.43176 -6.14503,0.21186 -2.54281,1.87838 -4.53999,5.35332 -4.53999,7.89926 0,0.84142 1.31538,2.84525 2.92308,4.45294 3.12596,3.12597 6.69333,3.73001 10.39266,1.75974 z m -0.14448,-23.49165 c 2.24432,-2.03108 2.36465,-5.66625 0.25731,-7.77358 -3.35706,-3.35707 -11.42857,-0.87741 -11.42857,3.51098 0,2.2092 4.57853,5.91759 7.30612,5.91759 1.12002,0 2.85933,-0.74474 3.86514,-1.65499 z m 15.86857,27.20298 c -1.56392,-1.8844 -0.46317,-5.27885 1.96134,-6.04836 1.04438,-0.33148 3.31983,0.13213 5.05656,1.03022 8.93027,4.61803 17.33131,-6.86809 10.22268,-13.97672 -2.26403,-2.26402 -3.39474,-2.65161 -6.75,-2.3138 -2.21673,0.22318 -4.69945,0.59813 -5.51715,0.83323 -1.20898,0.34758 -1.61597,-1.34746 -2.17838,-9.07256 -0.38039,-5.225 -0.32523,-9.87612 0.12258,-10.33583 0.44781,-0.45971 4.95399,-0.90971 10.01374,-1 9.46809,-0.16896 11.87332,0.69267 10.67206,3.8231 -0.44706,1.16502 -2.31162,1.51273 -8.11188,1.51273 l -7.53138,0 0,4.94798 0,4.94798 3.01765,-1.05196 c 3.99564,-1.39289 7.60391,-0.37629 11.11048,3.13029 5.70564,5.70564 3.1021,15.87441 -5.57529,21.77571 -3.89653,2.64994 -5.75087,3.25 -10.04341,3.25 -3.38231,0 -5.69539,-0.51914 -6.4696,-1.45201 z"
         style="fill:#e6c3b8" />
      <path
         inkscape:connector-curvature="0"
         id="path3418"
         d="m -327.34639,539.94575 c -31.99008,-2.86211 -57.33573,-8.95814 -82.96856,-19.95524 -20.28044,-8.7008 -25.67071,-11.87604 -26.40655,-15.55526 -0.34369,-1.71844 -0.62489,-23.59185 -0.62489,-48.60759 l 0,-45.48315 -4.97342,-7.43589 c -5.56563,-8.32129 -9.44646,-19.16626 -8.56609,-23.93787 0.83744,-4.53886 4.62763,-7.64239 9.489,-7.76986 l 4.05051,-0.10621 0,-70.30634 c 0,-74.09251 0.40462,-82.93293 4.54154,-99.22752 3.00836,-11.84936 5.26917,-17.82711 11.54375,-30.52259 l 4.95355,-10.0226 -2.55406,-5.29431 c -8.58469,-17.79519 -9.17967,-48.47596 -1.32887,-68.524322 6.43092,-16.422474 18.43519,-23.061385 28.50678,-15.765561 8.11827,5.880844 14.3316,20.112936 16.23892,37.196433 0.5646,5.05694 1.22519,9.39308 1.46798,9.63588 0.2428,0.24279 2.19545,-0.6658 4.33922,-2.01911 11.49311,-7.25528 28.85432,-14.06201 44.29119,-17.36506 12.06752,-2.582101 43.91871,-2.583793 56,-0.003 11.65735,2.49026 23.89691,6.68755 34.54826,11.84757 4.92346,2.38516 9.28924,4.48665 9.70174,4.66998 0.4125,0.18334 0.75,-1.52313 0.75,-3.79215 0,-10.61565 5.52119,-27.613664 11.5268,-35.48743 5.37778,-7.050628 13.71478,-9.548664 20.37442,-6.104833 7.00341,3.621603 13.4255,14.783901 16.7142,29.051083 3.67728,15.95296 1.97945,41.2522 -3.6056,53.7268 l -1.8156,4.05528 3.73636,6.10895 c 7.19628,11.76596 13.95863,28.82128 17.68721,44.60896 1.6031,6.78792 1.80393,15.26162 2.1153,89.25 l 0.34402,81.75 3.23894,0 c 4.06787,0 7.04676,2.04747 8.66583,5.95626 2.16847,5.23514 -1.16534,14.89061 -8.42534,24.40172 l -3.55654,4.65936 0,39.38069 0,39.3807 -10.03079,6.54696 c -9.72519,6.3475 -33.76267,19.21421 -34.5064,18.47049 -0.20213,-0.20214 -0.4483,-20.26396 -0.54704,-44.58184 l -0.17953,-44.21431 -97.2274,0 -97.2274,0 -0.19989,45.5 -0.19988,45.5 95.30917,0.0706 95.30916,0.0706 -4.5,2.00106 c -14.14275,6.289 -40.3421,13.32112 -61.19645,16.42564 -9.89689,1.47331 -45.46441,2.65253 -54.80355,1.81696 z m 172.97968,-144.34509 c 2.30554,-4.51923 2.54631,-7.11385 0.82032,-8.83984 -2.81623,-2.81623 -3.8,-1.31468 -3.8,5.8 0,3.85 0.21585,7 0.47968,7 0.26382,0 1.38882,-1.78207 2.5,-3.96016 z m -282.97968,-8.53984 c 0,-8.29866 -0.0567,-8.5 -2.39301,-8.5 -2.38267,0 -3.61582,1.65636 -3.59722,4.83179 0.0111,1.89245 4.6086,12.16821 5.44423,12.16821 0.3003,0 0.546,-3.825 0.546,-8.5 z m 90,104.54978 c 0,-1.21641 3.10428,-4.55614 8.25,-8.87575 13.59862,-11.41544 15.73421,-14.66183 13.69993,-20.82575 -1.25224,-3.79431 -3.48749,-5.34828 -7.69306,-5.34828 -3.65295,0 -6.14016,1.82487 -8.16027,5.98723 -1.91588,3.94757 -3.47288,4.3881 -3.93571,1.11353 -0.50116,-3.5458 1.75054,-6.97049 6.30244,-9.58558 7.46183,-4.28687 12.90334,-4.14851 17.49674,0.44489 2.5507,2.5507 2.75251,9.73602 0.41198,14.66832 -0.89537,1.88685 -5.50787,7.07952 -10.25,11.53926 l -8.62205,8.10862 8,-0.7854 c 4.4,-0.43197 9.06798,-0.83163 10.37329,-0.88813 2.7356,-0.11842 4.7335,2.37361 3.81724,4.76134 -0.54134,1.41071 -2.62825,1.63592 -15.15915,1.63592 -13.74109,0 -14.53138,-0.10606 -14.53138,-1.95022 z m 40.11007,0.55471 c -6.8223,-3.78131 -6.59278,-14.43729 0.40979,-19.02555 l 2.62208,-1.71805 -2.57097,-2.3827 c -1.89796,-1.75897 -2.57097,-3.38403 -2.57097,-6.20793 0,-7.83559 6.21841,-12.07205 16.75,-11.4114 6.25381,0.3923 8.27607,8.57985 3.5163,14.23651 -2.15904,2.56587 -2.42383,3.35212 -1.25962,3.74019 3.20422,1.06807 6.99332,6.00925 6.99332,9.11964 0,8.74487 -6.73374,15.06876 -15.98213,15.00936 -3.03483,-0.0195 -6.59334,-0.63152 -7.9078,-1.36007 z m 14.20567,-3.76783 c 3.08653,-1.6439 4.61557,-3.92201 4.65246,-6.93167 0.0374,-3.04901 -2.11358,-5.23213 -7.28318,-7.39213 -3.46429,-1.44747 -3.92001,-1.43176 -6.14503,0.21186 -2.54281,1.87838 -4.53999,5.35332 -4.53999,7.89926 0,0.84142 1.31538,2.84525 2.92308,4.45294 3.12596,3.12597 6.69333,3.73001 10.39266,1.75974 z m -0.14448,-23.49165 c 2.24432,-2.03108 2.36465,-5.66625 0.25731,-7.77358 -3.35706,-3.35707 -11.42857,-0.87741 -11.42857,3.51098 0,2.2092 4.57853,5.91759 7.30612,5.91759 1.12002,0 2.85933,-0.74474 3.86514,-1.65499 z m 15.86857,27.20298 c -1.56392,-1.8844 -0.46317,-5.27885 1.96134,-6.04836 1.04438,-0.33148 3.31983,0.13213 5.05656,1.03022 8.93027,4.61803 17.33131,-6.86809 10.22268,-13.97672 -2.26403,-2.26402 -3.39474,-2.65161 -6.75,-2.3138 -2.21673,0.22318 -4.69945,0.59813 -5.51715,0.83323 -1.20898,0.34758 -1.61597,-1.34746 -2.17838,-9.07256 -0.38039,-5.225 -0.30516,-9.8962 0.16718,-10.38043 1.22724,-1.25815 18.91945,-1.09806 20.20029,0.18278 0.58477,0.58477 0.79259,1.76846 0.46182,2.63043 -0.47238,1.231 -2.21715,1.56722 -8.13279,1.56722 l -7.53138,0 0,4.94798 0,4.94798 3.01765,-1.05196 c 3.99564,-1.39289 7.60391,-0.37629 11.11048,3.13029 5.70564,5.70564 3.1021,15.87441 -5.57529,21.77571 -3.89653,2.64994 -5.75087,3.25 -10.04341,3.25 -3.38231,0 -5.69539,-0.51914 -6.4696,-1.45201 z"
         style="fill:#eebcad" />
      <path
         inkscape:connector-curvature="0"
         id="path3416"
         d="m -327.34639,539.94575 c -31.99008,-2.86211 -57.33573,-8.95814 -82.96856,-19.95524 -20.28044,-8.7008 -25.67071,-11.87604 -26.40655,-15.55526 -0.34369,-1.71844 -0.62489,-23.59185 -0.62489,-48.60759 l 0,-45.48315 -4.97342,-7.43589 c -5.56563,-8.32129 -9.44646,-19.16626 -8.56609,-23.93787 0.83744,-4.53886 4.62763,-7.64239 9.489,-7.76986 l 4.05051,-0.10621 0,-70.30634 c 0,-74.04018 0.40434,-82.89796 4.52958,-99.22752 6.66353,-26.37731 19.03664,-47.70666 38.59159,-66.52603 18.64971,-17.94817 42.66311,-30.55373 68.87883,-36.15715 12.0707,-2.580027 43.92451,-2.580616 56,-0.001 50.33368,10.75234 88.57986,44.39183 104.8082,92.18421 6.84005,20.14394 6.54572,15.64917 6.92489,105.75001 l 0.34402,81.75 3.23894,0 c 4.06787,0 7.04676,2.04746 8.66583,5.95625 2.16847,5.23515 -1.16534,14.89061 -8.42534,24.40173 l -3.55654,4.65929 0,39.38069 0,39.3807 -10.03079,6.54696 c -9.72519,6.3475 -33.76267,19.21421 -34.5064,18.47049 -0.20213,-0.20214 -0.4483,-20.26396 -0.54704,-44.58184 l -0.17953,-44.21431 -97.2274,0 -97.2274,0 -0.19989,45.5 -0.19988,45.5 95.30917,0.0706 95.30916,0.0706 -4.5,2.00106 c -14.14275,6.289 -40.3421,13.32112 -61.19645,16.42564 -9.89689,1.47331 -45.46441,2.65253 -54.80355,1.81696 z m 38.89711,-141.91389 c 34.05604,-2.85968 68.45632,-28.41969 82.54285,-61.33077 7.50429,-17.53265 7.81107,-19.69663 8.31313,-58.64027 0.31338,-24.30816 0.0829,-37.52022 -0.75451,-43.25 -0.66315,-4.5375 -1.35908,-8.25 -1.5465,-8.25 -0.18743,0 -2.05332,1.61867 -4.14643,3.59704 -8.26062,7.80781 -22.37468,11.82159 -33.49368,9.525 -7.30223,-1.50826 -12.72549,-4.07687 -18.50976,-8.76678 l -4.19778,-3.40359 -5.30222,4.05776 c -23.47107,17.96231 -55.78578,18.65858 -79.16675,1.70577 l -4.86454,-3.52713 -4.33467,3.30873 c -6.47446,4.94207 -13.43774,7.00614 -23.43625,6.94703 -9.07427,-0.0536 -16.06897,-2.26736 -22.62846,-7.16157 l -3.12845,-2.33423 -0.69379,2.77599 c -1.36896,5.47746 -1.82857,61.68958 -0.5914,72.33129 5.21352,44.84516 35.36655,79.36287 79.0421,90.48355 7.01865,1.78709 21.64586,3.36826 26.5,2.86459 1.65,-0.1712 6.3287,-0.59079 10.39711,-0.93241 z m -35.89711,-43.29673 c 0,-2.1785 4.84263,-5.17431 8.36411,-5.17431 4.6318,0 8.83632,-2.0921 10.37952,-5.16469 0.68375,-1.36137 1.29457,-8.28354 1.46464,-16.59799 0.25794,-12.61062 0.098,-14.32406 -1.38048,-14.7927 -2.88117,-0.91321 -8.82779,-8.28772 -8.82779,-10.9475 0,-2.10791 0.46759,-2.49712 3,-2.49712 2.23785,0 3,0.46381 3,1.82569 0,2.5605 4.1509,6.17431 7.09194,6.17431 3.32713,0 6.54271,-2.40818 7.31285,-5.47667 0.45902,-1.82887 1.29987,-2.52333 3.05525,-2.52333 3.16085,0 3.79587,1.19453 2.4805,4.66608 -1.34644,3.55357 -4.75212,7.28019 -7.69054,8.41527 -2.1768,0.84087 -2.24995,1.301 -2.24845,14.1439 0.002,18.109 2.44842,22.72032 12.07414,22.76001 3.26559,0.0135 7.92431,3.1465 7.92431,5.32919 0,1.04179 -10.01958,0.80784 -14.11425,-0.32955 -1.98784,-0.55217 -4.7692,-2.07431 -6.1808,-3.38254 l -2.56654,-2.37859 -2.24495,2.38964 c -1.23472,1.3143 -3.85336,2.83644 -5.8192,3.38253 -4.3285,1.20243 -15.07426,1.32958 -15.07426,0.17837 z m -68.72096,-27.44669 c -7.05748,-2.68984 -9.56562,-8.34832 -5.3796,-12.13662 6.2422,-5.64911 27.62722,-5.89757 34.61351,-0.40215 2.07891,1.63527 2.53382,2.75279 2.29058,5.62693 -0.48408,5.71969 -4.73762,7.60773 -17.80353,7.90254 -6.45725,0.1457 -11.74015,-0.23575 -13.72096,-0.9907 z m 156.46148,-0.15693 c -5.3647,-1.91434 -6.74052,-3.36773 -6.74052,-7.12055 0,-4.20063 3.26706,-6.91276 10.0898,-8.37598 6.79056,-1.45631 13.35143,-1.33223 19.76076,0.37372 6.49976,1.73003 9.14944,3.95072 9.14944,7.66815 0,3.44822 -2.82391,6.21503 -7.89352,7.73392 -5.16682,1.54802 -19.7124,1.38131 -24.36596,-0.27926 z m -131.28812,-24.93006 c -4.51446,-2.03515 -6.4524,-5.67094 -6.4524,-12.10545 l 0,-5.53518 -3.96482,0 c -3.84012,0 -6.03518,-1.79465 -6.03518,-4.93426 0,-0.72203 7.09527,-1.06574 22,-1.06574 14.90473,0 22,0.34371 22,1.06574 0,3.13961 -2.19506,4.93426 -6.03518,4.93426 l -3.96482,0 0,4.95295 c 0,5.8333 -1.44048,9.45042 -4.58373,11.50995 -3.37456,2.2111 -9.44773,2.76283 -12.96387,1.17773 z m 122.5476,0.7073 c -6.63295,-2.18522 -9,-5.68274 -9,-13.29827 l 0,-5.04966 -3.96482,0 c -3.84012,0 -6.03518,-1.79465 -6.03518,-4.93426 0,-0.72203 7.09527,-1.06574 22,-1.06574 14.90473,0 22,0.34371 22,1.06574 0,3.13961 -2.19506,4.93426 -6.03518,4.93426 l -3.96482,0 0,5.53518 c 0,6.55377 -1.97704,10.13946 -6.67228,12.10125 -3.33115,1.39184 -5.65896,1.59072 -8.32772,0.7115 z m 90.97968,92.69191 c 2.30554,-4.51923 2.54631,-7.11385 0.82032,-8.83984 -2.81623,-2.81623 -3.8,-1.31468 -3.8,5.8 0,3.85 0.21585,7 0.47968,7 0.26382,0 1.38882,-1.78207 2.5,-3.96016 z m -282.97968,-8.53984 c 0,-8.29866 -0.0567,-8.5 -2.39301,-8.5 -2.38267,0 -3.61582,1.65636 -3.59722,4.83179 0.0111,1.89245 4.6086,12.16821 5.44423,12.16821 0.3003,0 0.546,-3.825 0.546,-8.5 z m 90,104.54978 c 0,-1.21641 3.10428,-4.55614 8.25,-8.87575 13.59862,-11.41544 15.73421,-14.66183 13.69993,-20.82575 -1.25224,-3.79431 -3.48749,-5.34828 -7.69306,-5.34828 -3.65295,0 -6.14016,1.82487 -8.16027,5.98723 -1.91588,3.94757 -3.47288,4.3881 -3.93571,1.11353 -0.50116,-3.5458 1.75054,-6.97049 6.30244,-9.58558 7.46183,-4.28687 12.90334,-4.14851 17.49674,0.44489 2.5507,2.5507 2.75251,9.73602 0.41198,14.66832 -0.89537,1.88685 -5.50787,7.07952 -10.25,11.53926 l -8.62205,8.10862 8,-0.7854 c 4.4,-0.43197 9.06798,-0.83163 10.37329,-0.88813 2.7356,-0.11842 4.7335,2.37361 3.81724,4.76134 -0.54134,1.41071 -2.62825,1.63592 -15.15915,1.63592 -13.74109,0 -14.53138,-0.10606 -14.53138,-1.95022 z m 40.11007,0.55471 c -6.8223,-3.78131 -6.59278,-14.43729 0.40979,-19.02555 l 2.62208,-1.71805 -2.57097,-2.3827 c -1.89796,-1.75897 -2.57097,-3.38403 -2.57097,-6.20793 0,-7.83559 6.21841,-12.07205 16.75,-11.4114 6.25381,0.3923 8.27607,8.57985 3.5163,14.23651 -2.15904,2.56587 -2.42383,3.35212 -1.25962,3.74019 3.20422,1.06807 6.99332,6.00925 6.99332,9.11964 0,8.74487 -6.73374,15.06876 -15.98213,15.00936 -3.03483,-0.0195 -6.59334,-0.63152 -7.9078,-1.36007 z m 14.20567,-3.76783 c 3.08653,-1.6439 4.61557,-3.92201 4.65246,-6.93167 0.0374,-3.04901 -2.11358,-5.23213 -7.28318,-7.39213 -3.46429,-1.44747 -3.92001,-1.43176 -6.14503,0.21186 -2.54281,1.87838 -4.53999,5.35332 -4.53999,7.89926 0,0.84142 1.31538,2.84525 2.92308,4.45294 3.12596,3.12597 6.69333,3.73001 10.39266,1.75974 z m -0.14448,-23.49165 c 2.24432,-2.03108 2.36465,-5.66625 0.25731,-7.77358 -3.35706,-3.35707 -11.42857,-0.87741 -11.42857,3.51098 0,2.2092 4.57853,5.91759 7.30612,5.91759 1.12002,0 2.85933,-0.74474 3.86514,-1.65499 z m 15.86857,27.20298 c -1.56392,-1.8844 -0.46317,-5.27885 1.96134,-6.04836 1.04438,-0.33148 3.31983,0.13213 5.05656,1.03022 8.93027,4.61803 17.33131,-6.86809 10.22268,-13.97672 -2.26403,-2.26402 -3.39474,-2.65161 -6.75,-2.3138 -2.21673,0.22318 -4.69945,0.59813 -5.51715,0.83323 -1.20898,0.34758 -1.61597,-1.34746 -2.17838,-9.07256 -0.38039,-5.225 -0.30516,-9.8962 0.16718,-10.38043 1.22724,-1.25815 18.91945,-1.09806 20.20029,0.18278 0.58477,0.58477 0.79259,1.76846 0.46182,2.63043 -0.47238,1.231 -2.21715,1.56722 -8.13279,1.56722 l -7.53138,0 0,4.94798 0,4.94798 3.01765,-1.05196 c 3.99564,-1.39289 7.60391,-0.37629 11.11048,3.13029 5.70564,5.70564 3.1021,15.87441 -5.57529,21.77571 -3.89653,2.64994 -5.75087,3.25 -10.04341,3.25 -3.38231,0 -5.69539,-0.51914 -6.4696,-1.45201 z"
         style="fill:#eaa7a7" />
      <path
         inkscape:connector-curvature="0"
         id="path3414"
         d="m -327.34639,539.94575 c -31.99008,-2.86211 -57.33573,-8.95814 -82.96856,-19.95524 -20.28044,-8.7008 -25.67071,-11.87604 -26.40655,-15.55526 -0.34369,-1.71844 -0.62489,-23.59185 -0.62489,-48.60759 l 0,-45.48315 -4.97342,-7.43589 c -5.56563,-8.32129 -9.44646,-19.16626 -8.56609,-23.93787 0.83744,-4.53886 4.62763,-7.64239 9.489,-7.76986 l 4.05051,-0.10621 0,-70.30634 c 0,-42.97808 0.4139,-74.08088 1.06483,-80.01693 2.75465,-25.12079 11.9091,-48.43229 26.79398,-68.22993 21.0734,-28.02869 49.71624,-46.29596 84.14119,-53.6619 12.06752,-2.582101 43.91871,-2.583793 56,-0.003 27.30437,5.83279 51.17619,18.50449 70.34322,37.33976 16.55102,16.26453 27.61711,34.07267 35.0128,56.34446 6.23118,18.76493 6.00152,15.01052 6.37707,104.25 l 0.34402,81.75 3.23894,0 c 4.06787,0 7.04676,2.04747 8.66583,5.95626 2.16847,5.23514 -1.16534,14.89061 -8.42534,24.40172 l -3.55654,4.65935 0,39.38069 0,39.3807 -10.03079,6.54696 c -9.72519,6.3475 -33.76267,19.21421 -34.5064,18.47049 -0.20213,-0.20214 -0.4483,-20.26396 -0.54704,-44.58184 l -0.17953,-44.21431 -97.2274,0 -97.2274,0 -0.19989,45.5 -0.19988,45.5 95.30917,0.0706 95.30916,0.0706 -4.5,2.00106 c -14.14275,6.289 -40.3421,13.32112 -61.19645,16.42564 -9.89689,1.47331 -45.46441,2.65253 -54.80355,1.81696 z m 47.57171,-142.93149 c 40.84774,-8.43734 72.32179,-40.44041 80.97572,-82.3368 3.02107,-14.62593 1.80091,-88.11664 -1.46299,-88.11664 -0.39064,0 -2.03195,1.39252 -3.64735,3.09449 -4.04624,4.26309 -13.50859,8.86711 -20.55686,10.0022 -11.12391,1.79146 -23.98292,-1.96892 -32.07301,-9.37915 l -3.68701,-3.37717 -5.45881,4.33047 c -19.1746,15.21122 -45.75928,18.49122 -67.48209,8.32589 -3.57985,-1.67522 -8.70064,-4.62052 -11.37954,-6.54512 l -4.87073,-3.49927 -3.26589,2.49102 c -4.77519,3.64221 -13.40207,7.16996 -19.4436,7.95098 -9.2542,1.19633 -20.96974,-1.9589 -28.1765,-7.5885 -2.44597,-1.91068 -2.46139,-1.90895 -3.45058,0.38745 -0.56525,1.31224 -1.1571,16.79078 -1.37281,35.90291 -0.30914,27.3901 -0.0873,35.28776 1.20107,42.7533 8.0054,46.38884 43.64509,80.84586 90.07927,87.09009 8.80347,1.18384 24.44938,0.50139 34.07171,-1.48615 z m -41.57171,-44.95344 c 1.65383,-1.76043 3.40642,-2.50111 5.92431,-2.50374 4.47089,-0.005 9.87107,-3.2033 10.49307,-6.21524 0.25908,-1.25456 0.66539,-8.50086 0.90291,-16.10289 0.4176,-13.36591 0.36171,-13.84917 -1.69422,-14.64936 -6.23409,-2.42638 -10.68355,-12.16242 -5.8716,-12.84789 1.47245,-0.20975 2.47805,0.31021 2.89901,1.49898 2.88671,8.15185 12.38334,8.48007 14.81408,0.512 0.543,-1.77997 1.31376,-2.23763 3.36828,-2 2.17459,0.25152 2.61336,0.76128 2.38769,2.77406 -0.40053,3.57245 -2.86832,6.89195 -6.88582,9.26234 l -3.51508,2.07394 0.33868,14.82783 c 0.33161,14.51786 0.39432,14.88341 2.99965,17.48713 1.95818,1.95696 3.98913,2.78693 7.68978,3.14252 3.5856,0.34453 5.6701,1.16582 7.26335,2.86176 l 2.23454,2.37856 -8.13952,0 c -7.54736,0 -8.37876,-0.21005 -11.42799,-2.88732 l -3.28848,-2.88732 -3.45855,2.88732 c -3.17637,2.65175 -4.10814,2.88732 -11.42063,2.88732 l -7.96209,0 2.34863,-2.5 z m -44,-49.12017 c -6.74091,-2.36413 -9,-5.71014 -9,-13.33017 l 0,-5.04966 -3.96482,0 c -3.84012,0 -6.03518,-1.79465 -6.03518,-4.93426 0,-0.72203 7.09527,-1.06574 22,-1.06574 14.90473,0 22,0.34371 22,1.06574 0,3.13961 -2.19506,4.93426 -6.03518,4.93426 l -3.96482,0 0,4.59887 c 0,5.18795 -2.07999,10.34548 -4.8766,12.09199 -2.30192,1.43758 -8.0878,2.40288 -10.1234,1.68897 z m 119.5,-0.19877 c -5.879,-2.00198 -8.5,-5.98083 -8.5,-12.90357 l 0,-5.27749 -3.96482,0 c -3.84012,0 -6.03518,-1.79465 -6.03518,-4.93426 0,-0.72203 7.09527,-1.06574 22,-1.06574 14.90473,0 22,0.34371 22,1.06574 0,3.13961 -2.19506,4.93426 -6.03518,4.93426 l -3.96482,0 0,4.95295 c 0,5.79199 -1.43855,9.44916 -4.50793,11.46029 -2.71495,1.7789 -8.3148,2.67951 -10.99207,1.76782 z m 91.47968,92.85878 c 2.30554,-4.51923 2.54631,-7.11385 0.82032,-8.83984 -2.81623,-2.81623 -3.8,-1.31468 -3.8,5.8 0,3.85 0.21585,7 0.47968,7 0.26382,0 1.38882,-1.78207 2.5,-3.96016 z m -282.97968,-8.53984 c 0,-8.29866 -0.0567,-8.5 -2.39301,-8.5 -2.38267,0 -3.61582,1.65636 -3.59722,4.83179 0.0111,1.89245 4.6086,12.16821 5.44423,12.16821 0.3003,0 0.546,-3.825 0.546,-8.5 z m 90,104.54978 c 0,-1.21641 3.10428,-4.55614 8.25,-8.87575 13.59862,-11.41544 15.73421,-14.66183 13.69993,-20.82575 -1.25224,-3.79431 -3.48749,-5.34828 -7.69306,-5.34828 -3.65295,0 -6.14016,1.82487 -8.16027,5.98723 -1.91588,3.94757 -3.47288,4.3881 -3.93571,1.11353 -0.50116,-3.5458 1.75054,-6.97049 6.30244,-9.58558 7.46183,-4.28687 12.90334,-4.14851 17.49674,0.44489 2.5507,2.5507 2.75251,9.73602 0.41198,14.66832 -0.89537,1.88685 -5.50787,7.07952 -10.25,11.53926 l -8.62205,8.10862 8,-0.7854 c 4.4,-0.43197 9.06798,-0.83163 10.37329,-0.88813 2.7356,-0.11842 4.7335,2.37361 3.81724,4.76134 -0.54134,1.41071 -2.62825,1.63592 -15.15915,1.63592 -13.74109,0 -14.53138,-0.10606 -14.53138,-1.95022 z m 40.11007,0.55471 c -6.8223,-3.78131 -6.59278,-14.43729 0.40979,-19.02555 l 2.62208,-1.71805 -2.57097,-2.3827 c -1.89796,-1.75897 -2.57097,-3.38403 -2.57097,-6.20793 0,-7.83559 6.21841,-12.07205 16.75,-11.4114 6.25381,0.3923 8.27607,8.57985 3.5163,14.23651 -2.15904,2.56587 -2.42383,3.35212 -1.25962,3.74019 3.20422,1.06807 6.99332,6.00925 6.99332,9.11964 0,8.74487 -6.73374,15.06876 -15.98213,15.00936 -3.03483,-0.0195 -6.59334,-0.63152 -7.9078,-1.36007 z m 14.20567,-3.76783 c 3.08653,-1.6439 4.61557,-3.92201 4.65246,-6.93167 0.0374,-3.04901 -2.11358,-5.23213 -7.28318,-7.39213 -3.46429,-1.44747 -3.92001,-1.43176 -6.14503,0.21186 -2.54281,1.87838 -4.53999,5.35332 -4.53999,7.89926 0,0.84142 1.31538,2.84525 2.92308,4.45294 3.12596,3.12597 6.69333,3.73001 10.39266,1.75974 z m -0.14448,-23.49165 c 2.24432,-2.03108 2.36465,-5.66625 0.25731,-7.77358 -3.35706,-3.35707 -11.42857,-0.87741 -11.42857,3.51098 0,2.2092 4.57853,5.91759 7.30612,5.91759 1.12002,0 2.85933,-0.74474 3.86514,-1.65499 z m 15.86857,27.20298 c -1.56392,-1.8844 -0.46317,-5.27885 1.96134,-6.04836 1.04438,-0.33148 3.31983,0.13213 5.05656,1.03022 8.93027,4.61803 17.33131,-6.86809 10.22268,-13.97672 -2.26403,-2.26402 -3.39474,-2.65161 -6.75,-2.3138 -2.21673,0.22318 -4.69945,0.59813 -5.51715,0.83323 -1.20898,0.34758 -1.61597,-1.34746 -2.17838,-9.07256 -0.38039,-5.225 -0.30516,-9.8962 0.16718,-10.38043 1.22724,-1.25815 18.91945,-1.09806 20.20029,0.18278 0.58477,0.58477 0.79259,1.76846 0.46182,2.63043 -0.47238,1.231 -2.21715,1.56722 -8.13279,1.56722 l -7.53138,0 0,4.94798 0,4.94798 3.01765,-1.05196 c 3.99564,-1.39289 7.60391,-0.37629 11.11048,3.13029 5.70564,5.70564 3.1021,15.87441 -5.57529,21.77571 -3.89653,2.64994 -5.75087,3.25 -10.04341,3.25 -3.38231,0 -5.69539,-0.51914 -6.4696,-1.45201 z"
         style="fill:#a39792" />
      <path
         inkscape:connector-curvature="0"
         id="path3412"
         d="m -323.84639,539.96482 c -36.08215,-2.20095 -73.46128,-12.3991 -104.62009,-28.54348 -7.5377,-3.90553 -7.62689,-3.99789 -8.25,-8.54394 -0.34645,-2.52765 -0.62991,-24.55687 -0.62991,-48.95384 l 0,-44.35811 -3.44356,-4.79319 c -12.53092,-17.44213 -12.81671,-33.21144 -0.60189,-33.21144 l 4.04545,0 0.0158,-67.25 c 0.0166,-70.52745 0.61732,-85.14796 4.11391,-100.12456 14.8253,-63.49989 70.28663,-107.503382 135.62684,-107.607498 38.32724,-0.06107 74.32257,14.844478 100.44631,41.594508 16.66015,17.05956 27.56101,35.79485 34.29537,58.94341 5.21401,17.92252 5.4636,22.70473 5.48342,105.0633 l 0.0183,76.11916 3.6434,0.59124 c 2.00386,0.32518 4.70386,1.5875 6,2.80515 4.72795,4.44169 2.19042,15.51236 -6.16441,26.89391 l -3.47894,4.73933 0,39.41569 0,39.41568 -7.80563,5.14951 c -9.18487,6.05941 -33.1254,19.25117 -34.93721,19.25117 -0.98614,0 -1.25716,-7.71794 -1.25716,-35.8 0,-21.30033 -0.38512,-36.18512 -0.95088,-36.75088 -0.59471,-0.59471 -0.60364,-2.44881 -0.0239,-4.95 0.50986,-2.19951 0.93775,-5.46162 0.95087,-7.24912 l 0.0239,-3.25 -97.87788,0 -97.87788,0 -0.1728,45.5 -0.1728,45.5 95.30068,0.0423 95.30068,0.0423 -5.97768,2.48125 c -15.78051,6.55026 -39.34993,12.73818 -60.52232,15.88953 -10.41395,1.55003 -38.97047,2.65197 -50.5,1.94868 z m 170.92234,-149.7711 c 0.0668,-3.55286 -0.23812,-4.17775 -2.17234,-4.45245 -2.16993,-0.30818 -2.2494,-0.0413 -2.23315,7.5 l 0.0168,7.81955 2.1555,-3.3671 c 1.25649,-1.96276 2.18789,-5.09083 2.23315,-7.5 z m -136.39611,8.3311 c 23.85656,-2.9167 45.114,-13.22544 61.91316,-30.02461 17.44064,-17.44063 27.64426,-39.43075 30.04544,-64.75179 1.91607,-20.20545 1.04861,-60.59721 -1.60982,-74.95872 l -0.60552,-3.27113 -4.29453,3.95857 c -14.90937,13.74297 -38.24055,14.07448 -52.62733,0.74777 l -3.65238,-3.38325 -5.49633,4.36024 c -10.85164,8.60861 -22.93335,13.16131 -37.19892,14.01752 -14.83939,0.89065 -29.39318,-3.36525 -41.67025,-12.18545 l -4.84075,-3.47773 -4.09968,2.96979 c -13.88581,10.05884 -33.85233,9.99091 -46.84627,-0.15937 -2.44597,-1.91068 -2.46139,-1.90895 -3.45058,0.38745 -0.56525,1.31224 -1.1571,16.79078 -1.37281,35.90291 -0.3117,27.61641 -0.093,35.25461 1.22873,42.91361 7.02298,40.69598 35.24163,72.40342 74.31872,83.50704 14.55549,4.13589 26.35912,5.14656 40.25912,3.44715 z m -32.02623,-46.464 c 1.76512,-1.87888 3.36805,-2.5 6.45181,-2.5 9.19257,0 11.55662,-4.7619 11.52655,-23.21788 l -0.0216,-13.28212 -3.16732,-1.5 c -3.3465,-1.58486 -6.1944,-5.01046 -7.27438,-8.75 -0.57342,-1.98555 -0.28927,-2.25 2.41759,-2.25 2.0599,0 3.06739,0.49268 3.06739,1.5 0,2.63855 3.81129,5.5 7.32569,5.5 3.33724,0 7.67431,-3.28598 7.67431,-5.81445 0,-0.65205 1.125,-1.18555 2.5,-1.18555 1.71571,0 2.49883,0.549 2.49626,1.75 -0.006,2.97432 -3.66216,7.93448 -6.9064,9.37052 l -3.08986,1.3677 0,14.32163 c 0,8.57787 0.44799,15.19764 1.11704,16.50589 1.96639,3.84508 5.12078,5.63851 9.95865,5.66202 3.57028,0.0174 5.09174,0.57156 6.92431,2.52224 l 2.34863,2.5 -7.22398,0 c -7.22234,0 -11.49888,-1.33614 -14.0272,-4.38259 -1.10187,-1.32766 -1.75893,-1.15078 -5.32721,1.43407 -3.6483,2.64281 -4.85045,2.94852 -11.59459,2.94852 l -7.52428,0 2.34863,-2.5 z m -49.15966,-52.35135 c -2.79024,-2.49307 -3.2471,-3.62393 -3.63597,-9 l -0.44475,-6.14865 -3.84463,0 c -3.48517,0 -5.91499,-1.82155 -5.91499,-4.43426 0,-0.31116 9.89035,-0.56574 21.97856,-0.56574 l 21.97856,0 -1.13907,2.5 c -0.92712,2.0348 -1.85353,2.5 -4.97857,2.5 -3.81782,0 -3.83948,0.0227 -3.83948,4.03212 0,5.11846 -2.12476,10.24143 -5.11687,12.33719 -1.36107,0.95333 -4.30608,1.63069 -7.08986,1.63069 -3.82283,0 -5.39094,-0.56221 -7.95293,-2.85135 z m 120.10238,0.0915 c -2.64728,-2.36534 -3.16971,-3.6519 -3.65466,-9 l -0.56584,-6.24015 -3.70059,0 c -2.97689,0 -3.92337,-0.48892 -4.83968,-2.5 l -1.13907,-2.5 21.95712,0 21.95712,0 -1.13907,2.5 c -0.91782,2.01438 -1.86155,2.5 -4.85837,2.5 l -3.7193,0 -0.44475,6.14865 c -0.38887,5.37607 -0.84573,6.50693 -3.63597,9 -4.50802,4.02792 -11.76548,4.06886 -16.21694,0.0915 z m -186.94272,87.69343 0,-9.06642 -2.75,0.31642 c -3.942,0.45358 -4.23289,5.28719 -0.74695,12.41218 1.45423,2.97233 2.83595,5.40424 3.0705,5.40424 0.23455,0 0.42645,-4.07989 0.42645,-9.06642 z m 90.30167,104.41018 c -0.43228,-1.1265 0.45734,-2.59481 2.78139,-4.59069 17.28995,-14.84851 19.90629,-17.87678 19.9132,-23.04852 0.005,-3.96366 -4.03246,-7.70455 -8.31595,-7.70455 -4.04586,0 -8.20431,2.96734 -9.08698,6.48418 -0.8192,3.26393 -3.59333,3.33538 -3.59333,0.0926 0,-2.89703 4.13371,-8.07739 8.06946,-10.11265 4.6292,-2.39385 11.26973,-1.891 14.85381,1.12481 2.60973,2.19594 3.07673,3.28304 3.07673,7.16215 0,6.28461 -3.29137,11.5109 -12.73868,20.22744 l -7.76132,7.16096 10.62253,-0.68048 c 11.21241,-0.71827 12.59261,-0.28752 11.37463,3.54999 -0.59124,1.86284 -1.53111,1.99105 -14.59593,1.99105 -12.07541,0 -14.04996,-0.224 -14.59956,-1.65624 z m 38.46411,-1.26226 c -2.84011,-2.5381 -3.25312,-3.52236 -3.16868,-7.55126 0.0822,-3.91996 0.66176,-5.21101 3.76708,-8.39114 l 3.66997,-3.75839 -2.51708,-2.36467 c -2.80619,-2.63628 -3.2774,-7.01816 -1.16421,-10.82628 3.5587,-6.41306 14.47126,-8.45655 19.31152,-3.61629 2.12381,2.12381 2.47224,3.19722 1.99414,6.14339 -0.31862,1.96346 -1.60681,4.66364 -2.86262,6.0004 -2.0034,2.13252 -2.08916,2.53912 -0.6996,3.31676 5.18762,2.90313 6.40424,4.75348 6.3358,9.63611 -0.12291,8.76949 -6.47743,14.32987 -16.37649,14.32987 -4.13845,0 -5.59973,-0.51445 -8.28983,-2.9185 z m 17.77967,-3.53605 c 4.69491,-4.6949 2.47521,-10.43949 -5.20356,-13.46687 -2.69774,-1.06359 -3.54187,-0.99365 -5.79061,0.47978 -3.1318,2.05203 -4.56286,4.46672 -4.51948,7.6259 0.095,6.91759 10.39708,10.47777 15.51365,5.36119 z m -2.29545,-22.35254 c 0.9625,-0.82659 1.75,-2.80486 1.75,-4.39617 0,-2.2968 -0.64772,-3.16563 -3.1418,-4.21431 -3.64758,-1.5337 -6.06378,-1.11773 -8.38109,1.44286 -2.30698,2.54919 -1.53317,5.02031 2.40263,7.67265 3.39387,2.28713 4.18186,2.23313 7.37026,-0.50503 z m 15.87699,27.46011 c -1.5218,-1.83366 -0.69693,-5.22033 1.47442,-6.05356 0.83891,-0.32192 2.82443,0.0865 4.41228,0.90762 4.41794,2.2846 7.78355,1.84953 11.06323,-1.43016 4.76167,-4.76167 3.77388,-11.55135 -2.12427,-14.60141 -2.48468,-1.28487 -3.66002,-1.34386 -6.9768,-0.35013 -2.19381,0.65728 -4.16523,1.01046 -4.38094,0.78484 -0.2157,-0.22562 -0.5503,-4.68522 -0.74355,-9.91022 l -0.35136,-9.5 10.25,-0.28498 10.25,-0.28499 0,2.53499 c 0,2.48798 -0.13907,2.53498 -7.5,2.53498 l -7.5,0 0,4.83227 0,4.83228 5.45668,-0.45252 c 5.03209,-0.41729 5.6935,-0.2157 8.5,2.59081 8.39266,8.39266 -0.85676,23.98364 -14.82793,24.99423 -4.32249,0.31266 -6.02345,0.0347 -7.00176,-1.14405 z"
         style="fill:#a28376" />
      <path
         inkscape:connector-curvature="0"
         id="path3410"
         d="m -324.34639,539.94202 c -34.37561,-2.01535 -68.77869,-11.25607 -100.75,-27.06162 l -11.25,-5.56162 0,-48.13218 0,-48.13217 -3.61109,-4.99681 c -13.51205,-18.69717 -13.95826,-34.4968 -0.97423,-34.4968 l 4.50558,0 0.34678,-78.75 c 0.31296,-71.07061 0.51931,-79.48137 2.11608,-86.25 13.09328,-55.50196 53.66333,-95.46442 108.72964,-107.101266 13.69609,-2.894319 39.67512,-3.166164 53.84814,-0.563467 27.94765,5.132233 52.70873,18.207033 73.10277,38.601063 19.85749,19.8575 31.55412,41.55291 38.04295,70.56367 2.19326,9.80582 2.24431,11.55593 2.62877,90.1295 l 0.39208,80.1295 3.57966,0.5809 c 1.96881,0.31949 4.64013,1.57716 5.93627,2.79481 4.72795,4.44169 2.19042,15.51236 -6.16441,26.89391 l -3.47899,4.73933 -0.009,39.36603 -0.009,39.36602 -7.97228,5.26696 c -8.57331,5.66404 -30.07182,17.56192 -33.75957,18.68351 l -2.25,0.68431 0,-35.86739 c 0,-21.34294 -0.38506,-36.25245 -0.95088,-36.81827 -0.59471,-0.59471 -0.60364,-2.44881 -0.0239,-4.95 0.50986,-2.19951 0.93775,-5.46162 0.95087,-7.24912 l 0.0238,-3.25 -98.61663,0 -98.61663,0 0.7209,2.25 c 1.41529,4.41728 1.68695,8.52406 0.60798,9.19091 -0.76419,0.47229 -1.09562,12.60807 -1.09562,40.11811 l 0,39.44098 95.25,0.0304 c 53.2657,0.017 94.58883,0.40735 93.75,0.88557 -8.91911,5.08488 -41.52632,14.06973 -62.13488,17.12114 -13.04547,1.93158 -39.7238,3.11451 -52.86512,2.34408 z m 171.42234,-149.7483 c 0.0668,-3.55286 -0.23812,-4.17775 -2.17234,-4.45245 -2.16993,-0.30818 -2.2494,-0.0413 -2.23315,7.5 l 0.0168,7.81955 2.1555,-3.3671 c 1.25649,-1.96276 2.18789,-5.09083 2.23315,-7.5 z m -123.78712,6.47258 c 10.77176,-2.67518 24.33048,-8.60672 33.46006,-14.63779 8.94484,-5.90903 22.99747,-19.74699 28.40154,-27.96769 9.2418,-14.05865 15.46217,-30.69499 17.47296,-46.73134 2.11036,-16.83048 1.13928,-66.15994 -1.55578,-79.03127 l -0.57845,-2.76261 -4.66777,4.15254 c -2.56728,2.28389 -7.14278,5.32707 -10.16778,6.76261 -4.84346,2.2985 -6.7534,2.61007 -16,2.61007 -9.40793,0 -11.12404,-0.29145 -16.5,-2.80226 -3.3,-1.54125 -7.65203,-4.41044 -9.67118,-6.37599 l -3.67119,-3.57372 -4.82881,4.01785 c -11.87083,9.87721 -25.29622,14.62951 -41.32882,14.62951 -14.82875,0 -24.73997,-3.0693 -37.27942,-11.54469 l -5.77942,-3.9063 -4.55272,3.13236 c -13.75168,9.4614 -33.60059,9.41164 -45.70976,-0.1146 -2.16481,-1.70305 -3.09559,-1.94551 -4,-1.04195 -0.84845,0.84765 -1.27025,11.22563 -1.50552,37.04153 -0.27396,30.06045 -0.0606,37.28502 1.31869,44.64562 3.98897,21.28777 13.17058,39.1448 27.8707,54.20484 16.3494,16.74969 34.23335,26.25444 57.8723,30.7573 10.04354,1.91314 30.75049,1.18089 41.40037,-1.46402 z m -44.63522,-44.60548 c 1.80062,-1.91667 3.35427,-2.5 6.65854,-2.5 3.34816,0 5.03866,-0.6508 7.57568,-2.91645 l 3.26578,-2.91645 0.33975,-15.58355 c 0.2977,-13.65479 0.14494,-15.58355 -1.23422,-15.58355 -2.48693,0 -7.55439,-5.18323 -8.55457,-8.75 -0.8501,-3.03158 -0.74636,-3.25 1.5436,-3.25 1.63878,0 2.74454,0.76169 3.32602,2.2911 2.40091,6.31487 11.55588,6.77211 14.23873,0.71113 1.59048,-3.59316 5.84069,-4.32457 5.84069,-1.00511 0,2.34093 -6.59991,10.00288 -8.61636,10.00288 -1.11838,0 -1.38364,2.95681 -1.38364,15.42308 l 0,15.42307 3.07692,3.07693 c 2.49652,2.49651 3.90074,3.07692 7.44424,3.07692 3.21911,0 5.10497,0.64896 7.17308,2.4684 l 2.80576,2.4684 -7.31574,0.0316 c -7.54348,0.0326 -10.06037,-0.7391 -13.94155,-4.27452 -2.00446,-1.82589 -2.39648,-1.88429 -3.5,-0.52135 -3.00347,3.70955 -6.16204,4.82747 -13.63953,4.82747 l -7.45181,0 2.34863,-2.5 z m -49.05728,-52.25987 c -2.64728,-2.36534 -3.16971,-3.6519 -3.65466,-9 l -0.56584,-6.24013 -3.70059,0 c -2.97689,0 -3.92337,-0.48892 -4.83968,-2.5 l -1.13907,-2.5 21.95712,0 21.95712,0 -1.13907,2.5 c -0.92712,2.0348 -1.85353,2.5 -4.97857,2.5 -3.66391,0 -3.83974,0.14861 -3.84506,3.25 -0.0166,9.68343 -4.17755,14.75 -12.1135,14.75 -3.88163,0 -5.46577,-0.55076 -7.9382,-2.75987 z m 120.72658,0.71438 c -2.75796,-2.16941 -4.65451,-7.33582 -4.66372,-12.70451 -0.005,-3.10139 -0.18115,-3.25 -3.84506,-3.25 -3.12504,0 -4.05145,-0.4652 -4.97857,-2.5 l -1.13907,-2.5 21.95712,0 21.95712,0 -1.13907,2.5 c -0.91631,2.01108 -1.86279,2.5 -4.83968,2.5 l -3.70059,0 -0.56584,6.24013 c -0.48495,5.3481 -1.00738,6.63466 -3.65466,9 -3.96116,3.5393 -11.36001,3.88279 -15.38798,0.71438 z m -187.12048,79.31211 c -0.32746,-0.85334 -1.61414,-1.27672 -3.29313,-1.08359 -2.56873,0.29547 -2.75217,0.62729 -2.70388,4.89093 0.0365,3.21749 0.92614,6.03485 3,9.5 l 2.94819,4.92604 0.29313,-8.41641 c 0.16122,-4.62903 0.0513,-9.04666 -0.24431,-9.81697 z m 89.75285,112.07714 c -0.43228,-1.1265 0.45734,-2.59481 2.78139,-4.59069 17.28995,-14.84851 19.90629,-17.87678 19.9132,-23.04852 0.005,-3.96366 -4.03246,-7.70455 -8.31595,-7.70455 -4.04586,0 -8.20431,2.96734 -9.08698,6.48418 -0.8192,3.26393 -3.59333,3.33538 -3.59333,0.0926 0,-2.89703 4.13371,-8.07739 8.06946,-10.11265 4.6292,-2.39385 11.26973,-1.891 14.85381,1.12481 2.60973,2.19594 3.07673,3.28304 3.07673,7.16215 0,6.28461 -3.29137,11.5109 -12.73868,20.22744 l -7.76132,7.16096 10.62253,-0.68048 c 11.21241,-0.71827 12.59261,-0.28752 11.37463,3.54999 -0.59124,1.86284 -1.53111,1.99105 -14.59593,1.99105 -12.07541,0 -14.04996,-0.224 -14.59956,-1.65624 z m 38.46411,-1.26226 c -2.84011,-2.5381 -3.25312,-3.52236 -3.16868,-7.55126 0.0822,-3.91996 0.66176,-5.21101 3.76708,-8.39114 l 3.66997,-3.75839 -2.51708,-2.36467 c -2.80619,-2.63628 -3.2774,-7.01816 -1.16421,-10.82628 3.5587,-6.41306 14.47126,-8.45655 19.31152,-3.61629 2.12381,2.12381 2.47224,3.19722 1.99414,6.14339 -0.31862,1.96346 -1.60681,4.66364 -2.86262,6.0004 -2.0034,2.13252 -2.08916,2.53912 -0.6996,3.31676 5.18762,2.90313 6.40424,4.75348 6.3358,9.63611 -0.12291,8.76949 -6.47743,14.32987 -16.37649,14.32987 -4.13845,0 -5.59973,-0.51445 -8.28983,-2.9185 z m 17.77967,-3.53605 c 4.69491,-4.6949 2.47521,-10.43949 -5.20356,-13.46687 -2.69774,-1.06359 -3.54187,-0.99365 -5.79061,0.47978 -3.1318,2.05203 -4.56286,4.46672 -4.51948,7.6259 0.095,6.91759 10.39708,10.47777 15.51365,5.36119 z m -2.29545,-22.35254 c 0.9625,-0.82659 1.75,-2.80486 1.75,-4.39617 0,-2.2968 -0.64772,-3.16563 -3.1418,-4.21431 -3.64758,-1.5337 -6.06378,-1.11773 -8.38109,1.44286 -2.30698,2.54919 -1.53317,5.02031 2.40263,7.67265 3.39387,2.28713 4.18186,2.23313 7.37026,-0.50503 z m 15.87699,27.46011 c -1.5218,-1.83366 -0.69693,-5.22033 1.47442,-6.05356 0.83891,-0.32192 2.82443,0.0865 4.41228,0.90762 4.41794,2.2846 7.78355,1.84953 11.06323,-1.43016 4.76167,-4.76167 3.77388,-11.55135 -2.12427,-14.60141 -2.48468,-1.28487 -3.66002,-1.34386 -6.9768,-0.35013 -2.19381,0.65728 -4.16523,1.01046 -4.38094,0.78484 -0.2157,-0.22562 -0.5503,-4.68522 -0.74355,-9.91022 l -0.35136,-9.5 10.25,-0.28498 10.25,-0.28499 0,2.53499 c 0,2.48798 -0.13907,2.53498 -7.5,2.53498 l -7.5,0 0,4.83227 0,4.83228 5.45668,-0.45252 c 5.03209,-0.41729 5.6935,-0.2157 8.5,2.59081 8.39266,8.39266 -0.85676,23.98364 -14.82793,24.99423 -4.32249,0.31266 -6.02345,0.0347 -7.00176,-1.14405 z"
         style="fill:#767d83" />
      <path
         inkscape:connector-curvature="0"
         id="path3408"
         d="m -324.34639,539.94202 c -34.37561,-2.01535 -68.77869,-11.25607 -100.75,-27.06162 l -11.25,-5.56162 -0.0131,-48.12898 -0.0131,-48.12898 -4.99198,-7.45555 c -12.49621,-18.66317 -11.90636,-32.04445 1.41253,-32.04445 l 3.52587,0 0.34678,-78.75 c 0.31296,-71.07061 0.51931,-79.48137 2.11608,-86.25 13.09328,-55.50196 53.66333,-95.46442 108.72964,-107.101266 13.69609,-2.894319 39.67512,-3.166164 53.84814,-0.563467 27.94765,5.132233 52.70873,18.207033 73.10277,38.601063 19.85749,19.8575 31.55412,41.55291 38.04295,70.56367 2.19333,9.8061 2.2443,11.55455 2.62888,90.17289 l 0.39218,80.17289 3.93219,0.66434 c 10.37123,1.7522 10.40208,13.45985 0.0743,28.18315 l -4.13417,5.89362 -0.009,39.45655 -0.009,39.45656 -7.97228,5.26696 c -8.57331,5.66404 -30.07182,17.56192 -33.75957,18.68351 l -2.25,0.68431 -0.22986,-36.81739 c -0.12642,-20.24957 -0.0962,-40.07989 0.0671,-44.06739 l 0.29692,-7.25 -98.39119,0 -98.3912,0 -0.2498,45.5 -0.24979,45.5 95.32392,0.0304 c 53.30664,0.017 94.66275,0.40735 93.82393,0.88557 -8.91911,5.08488 -41.52632,14.06973 -62.13488,17.12114 -13.04547,1.93158 -39.7238,3.11451 -52.86512,2.34408 z m 170.61105,-144.84281 c 2.75097,-6.0089 2.14181,-9.53839 -1.64623,-9.53839 -1.77844,0 -1.96482,0.71143 -1.96482,7.5 0,4.125 0.2499,7.5 0.55532,7.5 0.30543,0 1.68051,-2.45772 3.05573,-5.46161 z m -122.97583,1.56709 c 10.77176,-2.67518 24.33048,-8.60672 33.46006,-14.63779 8.94484,-5.90903 22.99747,-19.74699 28.40154,-27.96769 9.2418,-14.05865 15.46217,-30.69499 17.47296,-46.73134 2.11036,-16.83048 1.13928,-66.15994 -1.55578,-79.03127 l -0.57845,-2.76261 -4.66777,4.15254 c -2.56728,2.28389 -7.14278,5.32707 -10.16778,6.76261 -4.84346,2.2985 -6.7534,2.61007 -16,2.61007 -9.40793,0 -11.12404,-0.29145 -16.5,-2.80226 -3.3,-1.54125 -7.65203,-4.41044 -9.67118,-6.37599 l -3.67119,-3.57372 -4.82881,4.01785 c -11.87083,9.87721 -25.29622,14.62951 -41.32882,14.62951 -14.82875,0 -24.73997,-3.0693 -37.27942,-11.54469 l -5.77942,-3.9063 -4.55272,3.13236 c -13.75168,9.4614 -33.60059,9.41164 -45.70976,-0.1146 -2.16481,-1.70305 -3.09559,-1.94551 -4,-1.04195 -0.84845,0.84765 -1.27025,11.22563 -1.50552,37.04153 -0.27396,30.06045 -0.0606,37.28502 1.31869,44.64562 3.98897,21.28777 13.17058,39.1448 27.8707,54.20484 16.3494,16.74969 34.23335,26.25444 57.8723,30.7573 10.04354,1.91314 30.75049,1.18089 41.40037,-1.46402 z m -45.01044,-44.1151 c 1.4724,-1.51371 3.58382,-2.27622 6.87688,-2.4835 3.76077,-0.23671 5.40362,-0.95005 7.87523,-3.41946 l 3.12311,-3.12035 0.32039,-15.48354 c 0.27885,-13.47563 0.11879,-15.48353 -1.23422,-15.48353 -2.47043,0 -7.53851,-5.19562 -8.53521,-8.75 -0.83556,-2.97974 -0.72261,-3.25 1.35833,-3.25 1.43749,0 2.67849,0.89725 3.38466,2.44711 0.61324,1.34591 2.24336,3.18646 3.62249,4.0901 3.5172,2.30455 8.96281,0.48646 10.76971,-3.59563 1.55672,-3.51687 5.81385,-4.23181 5.81385,-0.97638 0,2.35964 -5.34243,8.69132 -8.06159,9.55435 -1.80827,0.57392 -1.93841,1.65797 -1.93841,16.14663 l 0,15.5314 3.08029,2.87742 c 2.14861,2.00711 4.55511,3.07306 7.95636,3.52425 2.8289,0.37527 5.58923,1.43486 6.5747,2.52379 1.6455,1.81826 1.48843,1.87696 -5.0221,1.87696 -6.97343,0 -9.52183,-0.82215 -13.34598,-4.3056 l -2.25674,-2.05568 -3.05407,2.92599 c -2.78284,2.66613 -3.78135,2.95636 -11.24327,3.26801 l -8.18919,0.34203 2.12478,-2.18437 z m -47.50791,-51.62107 c -2.99211,-2.09576 -5.11687,-7.21873 -5.11687,-12.33719 0,-4.00938 -0.0217,-4.03212 -3.83948,-4.03212 -3.12504,0 -4.05145,-0.4652 -4.97857,-2.5 l -1.13907,-2.5 21.95712,0 21.95712,0 -1.13907,2.5 c -0.92712,2.0348 -1.85353,2.5 -4.97857,2.5 -3.66391,0 -3.83974,0.14861 -3.84506,3.25 -0.0105,6.10323 -1.93362,10.74213 -5.30579,12.79828 -3.89171,2.37294 -10.42172,2.5274 -13.57176,0.32103 z m 119.55243,-0.4148 c -2.75796,-2.16941 -4.65451,-7.33582 -4.66372,-12.70451 -0.005,-3.10139 -0.18115,-3.25 -3.84506,-3.25 -3.12504,0 -4.05145,-0.4652 -4.97857,-2.5 l -1.13907,-2.5 21.95712,0 21.95712,0 -1.13907,2.5 c -0.92712,2.0348 -1.85353,2.5 -4.97857,2.5 -3.66391,0 -3.83974,0.14861 -3.84506,3.25 -0.0165,9.62301 -4.18568,14.75 -11.99442,14.75 -3.25115,0 -5.54342,-0.63961 -7.3307,-2.04549 z m -186.6693,87.65248 c 0,-7.78527 -0.28086,-9.50079 -1.64088,-10.02268 -2.5821,-0.99084 -5.30014,0.33251 -5.9429,2.89347 -0.73563,2.93099 5.11047,16.52222 7.10683,16.52222 0.26232,0 0.47695,-4.22686 0.47695,-9.39301 z m 89.55577,104.48325 c -1.04465,-1.69029 0.63031,-4.05649 5.29768,-7.48396 2.5556,-1.87671 7.45905,-6.34191 10.89655,-9.92268 5.25729,-5.47641 6.25,-7.0713 6.25,-10.04128 0,-8.61139 -9.40248,-12.23306 -15.1267,-5.82654 -1.58032,1.76867 -2.8733,3.88367 -2.8733,4.7 0,0.81632 -0.675,1.48422 -1.5,1.48422 -2.36502,0 -1.79569,-4.49514 0.98838,-7.80382 3.26163,-3.87622 8.31239,-6.19618 13.48967,-6.19618 5.67966,0 10.02195,4.16266 10.02195,9.60735 0,7.28994 -3.68306,12.42385 -17.36409,24.2043 -2.11527,1.82141 -3.68618,3.43593 -3.49092,3.58782 0.19525,0.15188 5.02073,-0.15381 10.72327,-0.67933 11.07743,-1.02084 13.09331,-0.38537 11.02678,3.47598 -0.85672,1.60079 -2.47469,1.80388 -14.37121,1.80388 -7.37319,0 -13.65881,-0.40939 -13.96806,-0.90976 z m 39.34211,-1.37396 c -3.03204,-2.03784 -3.4302,-2.83904 -3.69811,-7.44152 -0.2722,-4.67629 0.0221,-5.51456 3.15224,-8.97927 l 3.45247,-3.82148 -2.40224,-2.79277 c -5.94942,-6.91661 0.83706,-16.68124 11.59355,-16.68124 5.68402,0 9.44029,3.66701 8.47938,8.27788 -0.78223,3.75349 -3.094,7.72212 -4.49822,7.72212 -2.02482,0 -0.85506,1.61084 2.4702,3.4016 7.88503,4.24637 6.152,16.19358 -2.99103,20.61964 -5.50981,2.66726 -11.30497,2.55366 -15.55824,-0.30496 z m 17.61775,-5.04206 c 1.70634,-2.43614 1.91836,-5.99479 0.51354,-8.61971 -1.22763,-2.29385 -8.63526,-5.31431 -11.10829,-4.5294 -2.75421,0.87415 -5.92088,5.35991 -5.92088,8.38724 0,8.04728 11.82615,11.45705 16.51563,4.76187 z m -3.03364,-21.65542 c 2.5235,-2.63397 2.72144,-3.27691 1.69938,-5.52008 -1.70807,-3.7488 -5.86555,-5.01975 -9.9887,-3.05356 -2.88254,1.37459 -3.27642,2.00617 -3.00502,4.81839 0.24656,2.55472 1.04959,3.60474 3.81235,4.9849 4.45017,2.22311 4.12243,2.27697 7.48199,-1.22965 z m 16.68052,28.1028 c -0.73562,-0.46628 -1.18562,-1.92189 -1,-3.23469 0.36107,-2.55365 1.87866,-2.7569 9.96524,-1.33467 3.07139,0.54018 4.11586,0.20169 6.81046,-2.20711 7.40468,-6.61929 0.73489,-18.71823 -8.50921,-15.43564 -5.39023,1.91407 -5.429,1.85044 -5.429,-8.90949 l 0,-10 10.06955,0 c 9.87051,0 10.06324,0.0445 9.75,2.25 -0.29489,2.07635 -0.83409,2.25002 -6.98653,2.25032 -3.66685,1.7e-4 -6.98787,0.32119 -7.38005,0.71337 -0.39218,0.39218 -0.76704,2.70203 -0.83301,5.13299 l -0.11996,4.41992 5.5,-0.49254 c 4.8656,-0.43572 5.81253,-0.2014 8.20956,2.03147 5.09438,4.74552 4.89049,12.23306 -0.50031,18.37283 -5.13616,5.84976 -15.2325,9.17784 -19.54674,6.44324 z"
         style="fill:#8d7163" />
      <path
         inkscape:connector-curvature="0"
         id="path3406"
         d="m -324.84639,539.54255 c -36.82846,-2.34257 -77.24132,-13.57794 -105,-29.19154 l -6,-3.37486 -0.5,-48.45767 -0.5,-48.45766 -4.39665,-6.33615 c -5.65631,-8.15149 -9.05799,-16.48438 -9.04781,-22.16385 0.012,-6.7068 3.42995,-10 10.37872,-10 l 3.56574,0 0,-73.50658 c 0,-59.50293 0.27951,-75.36753 1.46717,-83.27485 6.43561,-42.84757 30.98209,-78.45491 69.03103,-100.13702 33.36279,-19.011717 78.06015,-22.920132 115.18275,-10.07178 47.10159,16.30214 81.97254,57.40318 90.98265,107.23775 1.44539,7.99435 1.72805,19.95043 2.07877,87.92711 l 0.4059,78.67462 3.9219,0.66261 c 10.36041,1.75038 10.387,13.46491 0.064,28.18141 l -4.13417,5.89362 -0.005,39.45655 -0.005,39.45656 -9.24522,5.97341 c -9.43363,6.09514 -33.57633,19.02883 -34.25443,18.35072 -0.20604,-0.20604 -0.51326,-20.16326 -0.68271,-44.34937 l -0.30764,-43.97476 -98,0 -98,0 -0.31605,45.75 -0.31604,45.75 95.31604,0.0812 c 82.02287,0.0699 94.89766,0.27435 92.31605,1.46602 -6.32111,2.91781 -30.50001,10.39478 -41.5,12.83326 -22.47333,4.98188 -49.45947,7.06679 -72.5,5.60123 z m 171.11105,-144.44334 c 2.75097,-6.0089 2.14181,-9.53839 -1.64623,-9.53839 -1.77844,0 -1.96482,0.71143 -1.96482,7.5 0,4.125 0.2499,7.5 0.55532,7.5 0.30543,0 1.68051,-2.45772 3.05573,-5.46161 z m -121.11956,1.04783 c 40.43238,-10.49523 70.81955,-44.15385 77.02409,-85.31641 2.89508,-19.20674 1.46694,-81.62062 -1.94571,-85.03328 -0.33873,-0.33872 -1.27093,0.31936 -2.07156,1.46242 -2.19426,3.13275 -11.31585,8.79471 -17.3654,10.77907 -11.84867,3.88657 -27.61114,0.50536 -36.94189,-7.92441 l -4.06895,-3.67605 -5.50355,4.4827 c -18.85565,15.35814 -46.9853,18.45184 -68.90197,7.57785 -3.19969,-1.58753 -7.79634,-4.30743 -10.21478,-6.04422 l -4.39716,-3.1578 -5.3023,3.48189 c -13.75828,9.0347 -30.60413,9.16374 -43.72371,0.33491 l -5.07504,-3.41525 -0.75178,2.68118 c -0.41348,1.47465 -0.75178,20.00618 -0.75178,41.18118 l 0,38.5 2.66913,9.5 c 8.39483,29.87906 27.76615,53.67701 54.44091,66.88148 17.07558,8.4527 29.96071,11.24011 49.38996,10.68441 10.35304,-0.29612 15.8291,-0.9907 23.49149,-2.97967 z m -47.11407,-43.45077 c 1.00334,-1.10868 3.67023,-2.09938 6.57863,-2.44384 10.45345,-1.23806 12.04395,-4.35366 12.04395,-23.59274 0,-12.2573 -0.20899,-14.09887 -1.6,-14.09887 -2.60714,0 -8.4,-6.48248 -8.4,-9.4 0,-3.63278 3.04032,-3.39519 5.20368,0.40666 2.54884,4.47927 6.03098,5.72873 10.29655,3.69462 2.12425,-1.01298 3.69083,-2.61436 4.08192,-4.17258 0.46718,-1.86137 1.29442,-2.5287 3.13467,-2.5287 2.22539,0 2.42533,0.30207 1.82026,2.75 -0.77255,3.12554 -4.99134,7.94201 -7.71315,8.80588 -1.66196,0.52749 -1.82393,1.95621 -1.82393,16.08843 l 0,15.50954 2.8716,2.8716 c 2.09005,2.09005 4.2555,3.05518 7.95637,3.54612 3.01173,0.39952 5.77728,1.43974 6.78338,2.55147 1.64384,1.81642 1.50221,1.87696 -4.39126,1.87696 -6.86094,0 -10.68071,-1.15957 -13.97009,-4.24093 l -2.25,-2.1077 -2.25,2.04935 c -3.81724,3.47683 -6.36904,4.29928 -13.33925,4.29928 -6.49464,0 -6.66396,-0.0627 -5.03333,-1.86455 z m -46.02042,-51.12703 c -3.68086,-1.48541 -5.357,-4.99943 -5.357,-11.23093 l 0,-5.77749 -4.33948,0 c -3.65837,0 -4.51828,-0.3924 -5.47857,-2.5 l -1.13907,-2.5 21.47856,0 c 11.81321,0 21.47856,0.25458 21.47856,0.56574 0,0.31116 -0.46583,1.43616 -1.03518,2.5 -0.75624,1.41305 -2.10356,1.93426 -5,1.93426 l -3.96482,0 0,5.56574 c 0,3.06116 -0.46334,6.4315 -1.02964,7.48965 -2.19948,4.10976 -10.20341,6.13621 -15.61336,3.95303 z m 119.41814,-0.56722 c -3.74532,-2.03251 -4.77514,-4.37794 -4.77514,-10.87546 l 0,-5.56574 -3.96482,0 c -2.89644,0 -4.24376,-0.52121 -5,-1.93426 -0.56935,-1.06384 -1.03518,-2.18884 -1.03518,-2.5 0,-0.31116 9.66535,-0.56574 21.47856,-0.56574 l 21.47856,0 -1.13907,2.5 c -0.96029,2.1076 -1.8202,2.5 -5.47857,2.5 l -4.33948,0 0,5.56574 c 0,3.06116 -0.46334,6.4315 -1.02964,7.48965 -2.41132,4.50558 -10.8723,6.27445 -16.19522,3.38581 z m -187.77514,87.16579 c 0,-7.78527 -0.28086,-9.50079 -1.64088,-10.02268 -2.5821,-0.99084 -5.30014,0.33251 -5.9429,2.89347 -0.73563,2.93099 5.11047,16.52222 7.10683,16.52222 0.26232,0 0.47695,-4.22686 0.47695,-9.39301 z m 89.55577,104.48325 c -1.04465,-1.69029 0.63031,-4.05649 5.29768,-7.48396 2.5556,-1.87671 7.45905,-6.34191 10.89655,-9.92268 5.25729,-5.47641 6.25,-7.0713 6.25,-10.04128 0,-8.61139 -9.40248,-12.23306 -15.1267,-5.82654 -1.58032,1.76867 -2.8733,3.88367 -2.8733,4.7 0,0.81632 -0.675,1.48422 -1.5,1.48422 -2.36502,0 -1.79569,-4.49514 0.98838,-7.80382 3.26163,-3.87622 8.31239,-6.19618 13.48967,-6.19618 5.67966,0 10.02195,4.16266 10.02195,9.60735 0,7.28994 -3.68306,12.42385 -17.36409,24.2043 -2.11527,1.82141 -3.68618,3.43593 -3.49092,3.58782 0.19525,0.15188 5.02073,-0.15381 10.72327,-0.67933 11.07743,-1.02084 13.09331,-0.38537 11.02678,3.47598 -0.85672,1.60079 -2.47469,1.80388 -14.37121,1.80388 -7.37319,0 -13.65881,-0.40939 -13.96806,-0.90976 z m 39.34211,-1.37396 c -3.03204,-2.03784 -3.4302,-2.83904 -3.69811,-7.44152 -0.2722,-4.67629 0.0221,-5.51456 3.15224,-8.97927 l 3.45247,-3.82148 -2.40224,-2.79277 c -5.94942,-6.91661 0.83706,-16.68124 11.59355,-16.68124 5.68402,0 9.44029,3.66701 8.47938,8.27788 -0.78223,3.75349 -3.094,7.72212 -4.49822,7.72212 -2.02482,0 -0.85506,1.61084 2.4702,3.4016 7.88503,4.24637 6.152,16.19358 -2.99103,20.61964 -5.50981,2.66726 -11.30497,2.55366 -15.55824,-0.30496 z m 17.61775,-5.04206 c 1.70634,-2.43614 1.91836,-5.99479 0.51354,-8.61971 -1.22763,-2.29385 -8.63526,-5.31431 -11.10829,-4.5294 -2.75421,0.87415 -5.92088,5.35991 -5.92088,8.38724 0,8.04728 11.82615,11.45705 16.51563,4.76187 z m -3.03364,-21.65542 c 2.5235,-2.63397 2.72144,-3.27691 1.69938,-5.52008 -1.70807,-3.7488 -5.86555,-5.01975 -9.9887,-3.05356 -2.88254,1.37459 -3.27642,2.00617 -3.00502,4.81839 0.24656,2.55472 1.04959,3.60474 3.81235,4.9849 4.45017,2.22311 4.12243,2.27697 7.48199,-1.22965 z m 16.68052,28.1028 c -0.73562,-0.46628 -1.18562,-1.92189 -1,-3.23469 0.36107,-2.55365 1.87866,-2.7569 9.96524,-1.33467 3.07139,0.54018 4.11586,0.20169 6.81046,-2.20711 7.40468,-6.61929 0.73489,-18.71823 -8.50921,-15.43564 -5.39023,1.91407 -5.429,1.85044 -5.429,-8.90949 l 0,-10 10.06955,0 c 9.87051,0 10.06324,0.0445 9.75,2.25 -0.29489,2.07635 -0.83409,2.25002 -6.98653,2.25032 -3.66685,1.7e-4 -6.98787,0.32119 -7.38005,0.71337 -0.39218,0.39218 -0.76704,2.70203 -0.83301,5.13299 l -0.11996,4.41992 5.5,-0.49254 c 4.8656,-0.43572 5.81253,-0.2014 8.20956,2.03147 5.09438,4.74552 4.89049,12.23306 -0.50031,18.37283 -5.13616,5.84976 -15.2325,9.17784 -19.54674,6.44324 z"
         style="fill:#755747" />
      <path
         inkscape:connector-curvature="0"
         id="path3404"
         d="m -324.84639,539.51549 c -36.39914,-2.38796 -69.32373,-11.29478 -101.51428,-27.46184 -4.80161,-2.41152 -9.01269,-5.12073 -9.35796,-6.02049 -0.34527,-0.89975 -0.62776,-22.77611 -0.62776,-48.61412 l 0,-46.9782 -3.52289,-4.61379 c -8.08617,-10.59014 -12.44392,-24.22269 -9.50083,-29.72191 1.54099,-2.87937 5.04753,-4.54432 9.57077,-4.54432 l 3.45295,0 0,-73.55845 c 0,-47.56072 0.38167,-76.10015 1.07989,-80.75 4.55422,-30.32876 17.03107,-56.39567 36.89041,-77.07226 24.44339,-25.44928 54.38941,-39.71354 89.35689,-42.563604 27.13883,-2.211982 54.49324,3.268974 77.63158,15.554914 36.17559,19.20843 62.38698,54.0926 70.54691,93.8894 2.91357,14.20977 3.44653,29.74443 3.47064,101.1621 l 0.0237,70.1621 3.99603,0.67513 c 10.43826,1.76353 10.4954,13.4286 0.13811,28.19394 l -4.13416,5.89362 0,39.08786 0,39.08787 -3.25,2.43866 c -8.65234,6.49234 -39.25141,23.63064 -40.30662,22.57544 -0.19144,-0.19145 -0.42887,-20.24453 -0.52761,-44.56241 l -0.17953,-44.21431 -98.24146,0 -98.24145,0 0.12333,46.25 0.12334,46.25 93.5,0.5 93.5,0.5 -8.92031,3.29271 c -32.07754,11.84063 -70.71882,17.41619 -105.07969,15.16196 z m 171.11105,-144.41628 c 2.75097,-6.0089 2.14181,-9.53839 -1.64623,-9.53839 -1.77844,0 -1.96482,0.71143 -1.96482,7.5 0,4.125 0.2499,7.5 0.55532,7.5 0.30543,0 1.68051,-2.45772 3.05573,-5.46161 z m -122.11105,1.63787 c 25.31492,-7.10695 44.61455,-20.12899 59.5442,-40.17626 6.12526,-8.22489 13.65613,-24.22678 16.70717,-35.5 l 2.70644,-10 0.0211,-37.5 c 0.0156,-27.6826 -0.32681,-39.01547 -1.30783,-43.28871 l -1.32894,-5.78872 -4.17106,4.19417 c -9.22596,9.27705 -25.69016,13.35027 -37.7977,9.3511 -6.05712,-2.00069 -8.55793,-3.40411 -14.55547,-8.16835 l -4.1821,-3.32211 -6.3179,4.77098 c -11.95163,9.02528 -24.65078,13.25164 -39.81791,13.25164 -14.52009,0 -26.86532,-3.96137 -38.42029,-12.32839 l -4.92029,-3.56282 -3.07971,2.60305 c -11.99895,10.1418 -32.2397,10.8707 -45.65294,1.64401 -2.80754,-1.93124 -5.26999,-3.34596 -5.47213,-3.14382 -1.38532,1.38532 -2.63883,31.70306 -2.18255,52.78797 0.69838,32.27248 2.81657,42.62562 12.5371,61.27781 14.42801,27.68509 42.3144,48.42 72.88907,54.1966 10.99769,2.07784 35.28296,1.37416 44.80174,-1.29815 z m -46.12258,-44.04081 c 1.00649,-1.11216 3.67384,-2.09981 6.61016,-2.44757 5.73602,-0.67935 9.2392,-2.69543 10.85829,-6.24896 0.7021,-1.54092 1.15413,-8.19379 1.15413,-16.98597 0,-12.58187 -0.20714,-14.45295 -1.6,-14.45295 -2.60714,0 -8.4,-6.48248 -8.4,-9.4 0,-3.42314 3.2566,-3.527 4.79395,-0.15289 2.99129,6.56518 11.29945,7.03923 14.20605,0.81057 1.06014,-2.2718 2.19158,-3.22074 3.85841,-3.23604 2.07374,-0.019 2.27636,0.31029 1.67867,2.72836 -0.77255,3.12554 -4.99134,7.94201 -7.71315,8.80588 -1.65992,0.52684 -1.82393,1.94657 -1.82393,15.789 0,12.44342 0.29662,15.63359 1.63069,17.53825 1.91702,2.73693 7.11805,5.11687 11.1822,5.11687 1.60714,0 3.67607,0.88282 4.68711,2 1.79164,1.97974 1.74663,2 -4.44388,2 -6.68264,0 -12.22003,-1.96822 -14.43525,-5.1309 -1.26997,-1.81313 -1.36797,-1.80603 -3.21304,0.23274 -3.24365,3.58419 -7.00278,4.89816 -14.01316,4.89816 -6.47895,0 -6.64784,-0.0628 -5.01725,-1.86455 z m -46.60228,-51.69425 c -3.74532,-2.03251 -4.77514,-4.37794 -4.77514,-10.87546 l 0,-5.56574 -4.33948,0 c -3.65837,0 -4.51828,-0.3924 -5.47857,-2.5 l -1.13907,-2.5 21.47856,0 c 11.81321,0 21.47856,0.25458 21.47856,0.56574 0,0.31116 -0.46583,1.43616 -1.03518,2.5 -0.75624,1.41305 -2.10356,1.93426 -5,1.93426 l -3.96482,0 0,5.56574 c 0,3.06116 -0.46334,6.4315 -1.02964,7.48965 -2.41132,4.50558 -10.8723,6.27445 -16.19522,3.38581 z m 120.72486,0.39812 c -4.01899,-2.21018 -5.45467,-5.11659 -5.47776,-11.08932 l -0.0222,-5.75 -3.96482,0 c -2.89644,0 -4.24376,-0.52121 -5,-1.93426 -0.56935,-1.06384 -1.03518,-2.18884 -1.03518,-2.5 0,-0.31116 9.66535,-0.56574 21.47856,-0.56574 l 21.47856,0 -1.13907,2.5 c -0.96029,2.1076 -1.8202,2.5 -5.47857,2.5 l -4.33948,0 0,5.56574 c 0,3.06116 -0.46334,6.4315 -1.02964,7.48965 -2.24845,4.20126 -10.87477,6.31119 -15.47036,3.78393 z m -188.5,86.76767 c 0,-7.78527 -0.28086,-9.50079 -1.64088,-10.02268 -2.5821,-0.99084 -5.30014,0.33251 -5.9429,2.89347 -0.73563,2.93099 5.11047,16.52222 7.10683,16.52222 0.26232,0 0.47695,-4.22686 0.47695,-9.39301 z m 89.55577,104.48325 c -1.04465,-1.69029 0.63031,-4.05649 5.29768,-7.48396 2.5556,-1.87671 7.45905,-6.34191 10.89655,-9.92268 5.25729,-5.47641 6.25,-7.0713 6.25,-10.04128 0,-8.61139 -9.40248,-12.23306 -15.1267,-5.82654 -1.58032,1.76867 -2.8733,3.88367 -2.8733,4.7 0,0.81632 -0.675,1.48422 -1.5,1.48422 -2.36502,0 -1.79569,-4.49514 0.98838,-7.80382 3.26163,-3.87622 8.31239,-6.19618 13.48967,-6.19618 5.67966,0 10.02195,4.16266 10.02195,9.60735 0,7.28994 -3.68306,12.42385 -17.36409,24.2043 -2.11527,1.82141 -3.68618,3.43593 -3.49092,3.58782 0.19525,0.15188 5.02073,-0.15381 10.72327,-0.67933 11.07743,-1.02084 13.09331,-0.38537 11.02678,3.47598 -0.85672,1.60079 -2.47469,1.80388 -14.37121,1.80388 -7.37319,0 -13.65881,-0.40939 -13.96806,-0.90976 z m 39.34211,-1.37396 c -3.03204,-2.03784 -3.4302,-2.83904 -3.69811,-7.44152 -0.2722,-4.67629 0.0221,-5.51456 3.15224,-8.97927 l 3.45247,-3.82148 -2.40224,-2.79277 c -5.94942,-6.91661 0.83706,-16.68124 11.59355,-16.68124 5.68402,0 9.44029,3.66701 8.47938,8.27788 -0.78223,3.75349 -3.094,7.72212 -4.49822,7.72212 -2.02482,0 -0.85506,1.61084 2.4702,3.4016 7.88503,4.24637 6.152,16.19358 -2.99103,20.61964 -5.50981,2.66726 -11.30497,2.55366 -15.55824,-0.30496 z m 17.61775,-5.04206 c 1.70634,-2.43614 1.91836,-5.99479 0.51354,-8.61971 -1.22763,-2.29385 -8.63526,-5.31431 -11.10829,-4.5294 -2.75421,0.87415 -5.92088,5.35991 -5.92088,8.38724 0,8.04728 11.82615,11.45705 16.51563,4.76187 z m -3.03364,-21.65542 c 2.5235,-2.63397 2.72144,-3.27691 1.69938,-5.52008 -1.70807,-3.7488 -5.86555,-5.01975 -9.9887,-3.05356 -2.88254,1.37459 -3.27642,2.00617 -3.00502,4.81839 0.24656,2.55472 1.04959,3.60474 3.81235,4.9849 4.45017,2.22311 4.12243,2.27697 7.48199,-1.22965 z m 16.68052,28.1028 c -0.73562,-0.46628 -1.18562,-1.92189 -1,-3.23469 0.36107,-2.55365 1.87866,-2.7569 9.96524,-1.33467 3.07139,0.54018 4.11586,0.20169 6.81046,-2.20711 7.40468,-6.61929 0.73489,-18.71823 -8.50921,-15.43564 -5.39023,1.91407 -5.429,1.85044 -5.429,-8.90949 l 0,-10 10.06955,0 c 9.87051,0 10.06324,0.0445 9.75,2.25 -0.29489,2.07635 -0.83409,2.25002 -6.98653,2.25032 -3.66685,1.7e-4 -6.98787,0.32119 -7.38005,0.71337 -0.39218,0.39218 -0.76704,2.70203 -0.83301,5.13299 l -0.11996,4.41992 5.5,-0.49254 c 4.8656,-0.43572 5.81253,-0.2014 8.20956,2.03147 5.09438,4.74552 4.89049,12.23306 -0.50031,18.37283 -5.13616,5.84976 -15.2325,9.17784 -19.54674,6.44324 z"
         style="fill:#414a52" />
      <path
         inkscape:connector-curvature="0"
         id="path3402"
         d="m -324.84639,539.51549 c -36.39914,-2.38796 -69.32373,-11.29478 -101.51428,-27.46184 -4.80161,-2.41152 -9.01269,-5.12073 -9.35796,-6.02049 -0.34527,-0.89975 -0.62776,-22.57161 -0.62776,-48.15969 l 0,-46.52377 10.36191,9.89311 c 7.89341,7.53629 12.36019,10.91756 18.75,14.1934 l 8.38809,4.30029 0.5,40.16216 0.5,40.16216 93.5,0.5 93.5,0.5 -8.92031,3.29271 c -32.07754,11.84063 -70.71882,17.41619 -105.07969,15.16196 z m 123.5,-59.45467 c 0,-30.59854 0.22609,-36.5 1.39835,-36.5 0.76909,0 5.39978,-2.00312 10.29042,-4.45139 8.50842,-4.25932 19.88258,-12.9829 28.48451,-21.8466 l 3.82672,-3.94317 0,39.00189 0,39.00189 -3.25,2.43866 c -7.86269,5.89981 -37.68205,22.79872 -40.23002,22.79872 -0.28599,0 -0.51998,-16.425 -0.51998,-36.5 z m 0,-47.89301 0,-4.60699 -98.43358,0 -98.43358,0 -0.31642,2.5155 -0.31642,2.51551 -6.5,-4.17321 c -3.575,-2.29526 -11.97719,-9.67272 -18.67153,-16.39435 l -12.17153,-12.22113 -0.10695,-87.49606 c -0.0727,-59.46101 0.24819,-89.85914 1.00143,-94.87116 4.58874,-30.53342 17.01163,-56.52934 36.91888,-77.25581 24.44339,-25.44928 54.38941,-39.71354 89.35689,-42.563604 27.13883,-2.211982 54.49324,3.268974 77.63158,15.554914 36.17559,19.20843 62.38698,54.0926 70.54691,93.8894 2.91348,14.20929 3.44653,29.74388 3.47064,101.14301 0.0207,61.44154 -0.1624,70.21442 -1.47632,70.71862 -0.87686,0.33648 -1.5,1.83491 -1.5,3.60699 0,2.02789 0.49655,3.03138 1.5,3.03138 1.20651,0 1.5,1.54279 1.5,7.88512 l 0,7.88512 -4.71604,5.72852 c -8.28316,10.06148 -28.24598,25.51134 -37.53396,29.04872 -1.50988,0.57504 -1.75,0.0344 -1.75,-3.94049 z m -74.5,-35.43073 c 25.31492,-7.10695 44.61455,-20.12899 59.5442,-40.17626 6.12526,-8.22489 13.65613,-24.22678 16.70717,-35.5 l 2.70644,-10 0.0211,-37.5 c 0.0156,-27.6826 -0.32681,-39.01547 -1.30783,-43.28871 l -1.32894,-5.78872 -4.17106,4.19417 c -9.22596,9.27705 -25.69016,13.35027 -37.7977,9.3511 -6.05712,-2.00069 -8.55793,-3.40411 -14.55547,-8.16835 l -4.1821,-3.32211 -6.3179,4.77098 c -11.95163,9.02528 -24.65078,13.25164 -39.81791,13.25164 -14.52009,0 -26.86532,-3.96137 -38.42029,-12.32839 l -4.92029,-3.56282 -3.07971,2.60305 c -11.99895,10.1418 -32.2397,10.8707 -45.65294,1.64401 -2.80754,-1.93124 -5.26999,-3.34596 -5.47213,-3.14382 -1.38532,1.38532 -2.63883,31.70306 -2.18255,52.78797 0.69838,32.27248 2.81657,42.62562 12.5371,61.27781 14.42801,27.68509 42.3144,48.42 72.88907,54.1966 10.99769,2.07784 35.28296,1.37416 44.80174,-1.29815 z"
         style="fill:#644331" />
    </g>
  </g>
</svg>
