<?xml version="1.0" encoding="UTF-8" standalone="no"?>
<!-- Created with Inkscape (http://www.inkscape.org/) -->

<svg
   xmlns:dc="http://purl.org/dc/elements/1.1/"
   xmlns:cc="http://creativecommons.org/ns#"
   xmlns:rdf="http://www.w3.org/1999/02/22-rdf-syntax-ns#"
   xmlns:svg="http://www.w3.org/2000/svg"
   xmlns="http://www.w3.org/2000/svg"
   xmlns:sodipodi="http://sodipodi.sourceforge.net/DTD/sodipodi-0.dtd"
   xmlns:inkscape="http://www.inkscape.org/namespaces/inkscape"
   id="svg4136"
   version="1.1"
   inkscape:version="0.91 r13725"
   width="346.875"
   height="350.625"
   viewBox="0 0 346.875 350.625"
   sodipodi:docname="Su3.svg">
  <metadata
     id="metadata4142">
    <rdf:RDF>
      <cc:Work
         rdf:about="">
        <dc:format>image/svg+xml</dc:format>
        <dc:type
           rdf:resource="http://purl.org/dc/dcmitype/StillImage" />
        <dc:title></dc:title>
      </cc:Work>
    </rdf:RDF>
  </metadata>
  <defs
     id="defs4140" />
  <sodipodi:namedview
     pagecolor="#ffffff"
     bordercolor="#666666"
     borderopacity="1"
     objecttolerance="10"
     gridtolerance="10"
     guidetolerance="10"
     inkscape:pageopacity="0"
     inkscape:pageshadow="2"
     inkscape:window-width="1052"
     inkscape:window-height="650"
     id="namedview4138"
     showgrid="false"
     inkscape:zoom="0.82584022"
     inkscape:cx="55.988778"
     inkscape:cy="151.09474"
     inkscape:window-x="75"
     inkscape:window-y="75"
     inkscape:window-maximized="0"
     inkscape:current-layer="svg4136" />
  <g
     id="g4179"
     transform="translate(381.42972,0)">
    <path
       inkscape:connector-curvature="0"
       id="path4177"
       d="m -221.23455,342.69901 c -40.88041,-3.54816 -77.51266,-20.92697 -105.99666,-50.28616 -21.96675,-22.6417 -34.95924,-46.20049 -42.58052,-77.20963 -3.43503,-13.9763 -4.46669,-22.81047 -4.44087,-38.02741 0.0348,-20.50685 2.58527,-35.73121 9.23598,-55.13158 12.20309,-35.596923 37.1293,-66.659175 69.75623,-86.928019 36.32031,-22.563283 83.4592,-30.3088386 124.18209,-20.404794 33.34603,8.10995 59.01139,22.619034 82.090409,46.407179 22.16176,22.842695 35.15457,46.634414 42.93265,78.615874 2.89294,11.89504 4.04656,22.3687 4.07667,37.01196 0.041,19.92105 -2.66367,35.87262 -9.40277,55.45628 -16.23787,47.18689 -55.993609,86.39905 -103.290709,101.87843 -22.74982,7.44556 -45.75398,10.42392 -66.5625,8.61787 z m 36.76735,-3.30781 c 53.25325,-7.99851 98.535909,-40.39971 122.509279,-87.65929 11.88911,-23.43745 16.83507,-42.82995 17.63882,-69.15963 0.56983,-18.66695 -0.27612,-28.00604 -3.96525,-43.77531 -10.81438,-46.226252 -41.95212,-86.209242 -83.887699,-107.717524 -24.87589,-12.758562 -47.97986,-18.376222 -75.57664,-18.376222 -28.12474,0 -51.39868,5.605457 -76.29836,18.376222 -47.58338,24.404978 -80.06447,71.208774 -87.24182,125.711584 -1.66643,12.65433 -0.65035,40.32108 1.92048,52.29298 10.6846,49.75628 41.70635,90.97814 85.32134,113.37542 17.24727,8.85686 33.05794,13.99087 52.03125,16.89549 11.67636,1.78753 35.76659,1.80592 47.5486,0.0363 z m -58.21702,-159.20828 c -0.81697,-0.98439 -0.76441,-1.54991 0.21997,-2.36687 0.98439,-0.81697 1.54991,-0.76441 2.36687,0.21997 0.81697,0.98439 0.76441,1.54991 -0.21997,2.36687 -0.98439,0.81697 -1.54991,0.76441 -2.36687,-0.21997 z m 70.3125,0 c -0.81697,-0.98439 -0.76441,-1.54991 0.21997,-2.36687 0.98439,-0.81697 1.54991,-0.76441 2.36687,0.21997 0.81697,0.98439 0.76441,1.54991 -0.21997,2.36687 -0.98439,0.81697 -1.54991,0.76441 -2.36687,-0.21997 z"
       style="fill:#e6e6e6" />
    <g
       id="g4169">
      <path
         inkscape:connector-curvature="0"
         id="path4158"
         d="m -221.00018,339.36763 c 1.41797,-0.21481 3.73829,-0.21481 5.15625,0 1.41797,0.2148 0.25782,0.39055 -2.57812,0.39055 -2.83594,0 -3.99609,-0.17575 -2.57813,-0.39055 z m 18.75,-0.0114 c 1.9336,-0.20226 5.09766,-0.20226 7.03125,0 1.9336,0.20226 0.35157,0.36774 -3.51562,0.36774 -3.86719,0 -5.44922,-0.16548 -3.51563,-0.36774 z m -27.65625,-0.87545 c 0.64454,-0.26007 1.69922,-0.26007 2.34375,0 0.64454,0.26007 0.11719,0.47287 -1.17187,0.47287 -1.28906,0 -1.81641,-0.2128 -1.17188,-0.47287 z m 40.7991,-0.0288 c 0.91215,-0.23769 2.17778,-0.22207 2.8125,0.0348 0.63471,0.25681 -0.1116,0.45129 -1.65847,0.43218 -1.54688,-0.0191 -2.06619,-0.22922 -1.15403,-0.46691 z m -47.3616,-0.90874 c 0.64454,-0.26007 1.69922,-0.26007 2.34375,0 0.64454,0.26007 0.11719,0.47287 -1.17187,0.47287 -1.28906,0 -1.81641,-0.2128 -1.17188,-0.47287 z m 53.4375,0 c 0.64454,-0.26007 1.69922,-0.26007 2.34375,0 0.64454,0.26007 0.11719,0.47287 -1.17187,0.47287 -1.28906,0 -1.81641,-0.2128 -1.17188,-0.47287 z m -58.0664,-0.95703 c 0.67675,-0.27081 1.48535,-0.23751 1.79688,0.074 0.31152,0.31152 -0.2422,0.5331 -1.23047,0.4924 -1.09214,-0.045 -1.31428,-0.26713 -0.56641,-0.5664 z m 64.6875,0 c 0.67675,-0.27081 1.48535,-0.23751 1.79688,0.074 0.31152,0.31152 -0.2422,0.5331 -1.23047,0.4924 -1.09214,-0.045 -1.31428,-0.26713 -0.56641,-0.5664 z m -111.44338,-17.41847 c -31.60235,-18.44243 -52.53257,-40.62682 -67.43178,-71.47238 -22.21431,-45.9899 -22.21431,-97.4476 0,-143.4375 22.88821,-47.385038 66.00913,-79.94727 118.7231,-89.652285 13.07535,-2.407265 39.0458,-2.86085 51.42159,-0.8981 55.91088,8.867243 100.42849,41.321781 124.20719,90.550385 29.92579,61.95483 18.85735,134.19749 -28.29663,184.68952 -6.93284,7.42362 -22.24609,20.22839 -30.27512,25.31571 -5.45065,3.45363 -14.79504,8.60716 -12.55148,6.92229 1.36211,-1.02293 1.38767,-1.71609 0.244,-6.61856 -1.81324,-7.77266 -5.51912,-16.18442 -10.329,-23.44517 -4.59586,-6.93767 -15.81621,-17.90376 -21.64204,-21.15159 l -3.76742,-2.1003 4.09114,14.24565 c 2.25013,7.83511 3.77687,14.53746 3.39276,14.89411 -0.38412,0.35665 -7.02653,2.4231 -14.7609,4.59209 -7.73438,2.16899 -14.39627,4.25492 -14.8042,4.63539 -0.40794,0.38047 0.30657,3.57972 1.58779,7.10944 1.28122,3.52974 2.16838,6.67837 1.97148,6.99697 -0.61078,0.98826 -14.48839,5.05613 -15.11419,4.43033 -1.4006,-1.40061 0.72419,-3.18833 5.6259,-4.73346 2.89546,-0.91272 5.26425,-1.95434 5.264,-2.3147 -2.6e-4,-0.36038 -0.87571,-2.95801 -1.94544,-5.77254 -1.65274,-4.34844 -1.74595,-5.26403 -0.62037,-6.09375 0.72853,-0.53703 1.17223,-1.42793 0.986,-1.97975 -0.19585,-0.58033 5.73161,-2.70551 14.05974,-5.04086 l 14.39833,-4.03752 -4.33891,-15.1154 c -3.0404,-10.59177 -4.74761,-15.11945 -5.70452,-15.12893 -0.84639,-0.008 -5.09687,7.47697 -11.17933,19.6875 -5.39755,10.83556 -10.09078,19.91197 -10.42943,20.16978 -0.33863,0.25781 -2.62484,4.47656 -5.08045,9.375 l -4.46475,8.90625 -1.73482,-3.75 c -0.95415,-2.0625 -2.84193,-6.28125 -4.19508,-9.375 l -2.46027,-5.625 -2.63581,5.625 c -1.44969,3.09375 -2.66812,6.26579 -2.70762,7.04898 -0.0471,0.93339 2.35055,2.34882 6.95945,4.10849 3.86719,1.47649 7.03125,3.05054 7.03125,3.4979 0,1.24357 -1.66122,0.9674 -2.15648,-0.3585 -0.30497,-0.81646 -0.63282,-0.70189 -1.08102,0.37778 -0.57416,1.38314 -1.41699,1.2398 -7.84352,-1.33396 -3.96013,-1.58599 -7.35783,-3.00343 -7.55047,-3.14989 -0.19263,-0.14645 0.77945,-3.08816 2.16016,-6.53713 1.38072,-3.44897 2.17114,-6.59438 1.75649,-6.9898 -0.41465,-0.39542 -6.76563,-2.2942 -14.11329,-4.21953 -7.34765,-1.92532 -13.35631,-3.96605 -13.35258,-4.53496 0.004,-0.56891 1.656,-7.15157 3.67171,-14.62813 2.01571,-7.47656 3.48933,-13.76942 3.27471,-13.98413 -0.82068,-0.82101 -10.71799,6.80902 -16.09252,12.40604 -10.22155,10.64468 -16.88728,23.66834 -19.23852,37.58863 l -1.20704,7.14618 -11.72179,-6.84059 z m 74.32038,-18.73801 c -2.9155,-4.86296 -12.74453,-22.15393 -16.56078,-29.13328 -1.92438,-3.5194 -3.75919,-6.1386 -4.07735,-5.82044 -0.76887,0.76888 -8.61339,29.88779 -8.17086,30.33032 0.47856,0.47857 27.85035,7.58873 29.38736,7.63373 0.91516,0.0268 0.76079,-0.77667 -0.57836,-3.01032 z m -25.68958,-121.8886 c 0.37312,-1.93742 -2.33326,-3.2429 -3.76164,-1.81452 -1.42838,1.42838 -0.1229,4.13476 1.81452,3.76164 0.89799,-0.17293 1.77419,-1.04913 1.94712,-1.94712 z m 70.3125,0 c 0.37312,-1.93742 -2.33326,-3.2429 -3.76164,-1.81452 -1.42838,1.42838 -0.1229,4.13476 1.81452,3.76164 0.89799,-0.17293 1.77419,-1.04913 1.94712,-1.94712 z m 28.30086,146.49798 c 0.77344,-0.49984 1.82812,-0.90878 2.34375,-0.90878 0.51562,0 0.30469,0.40894 -0.46875,0.90878 -0.77344,0.49984 -1.82813,0.90878 -2.34375,0.90878 -0.51563,0 -0.30469,-0.40894 0.46875,-0.90878 z"
         style="fill:#ffd1c2;fill-opacity:1" />
      <path
         inkscape:connector-curvature="0"
         id="path4156"
         d="m -221.45799,339.37605 c 1.16616,-0.22424 2.85366,-0.21572 3.75,0.0189 0.89633,0.23465 -0.0579,0.41813 -2.12031,0.40772 -2.0625,-0.0104 -2.79586,-0.2024 -1.62969,-0.42664 z m 22.02031,-0.008 c 1.41797,-0.21481 3.73829,-0.21481 5.15625,0 1.41797,0.2148 0.25782,0.39055 -2.57812,0.39055 -2.83594,0 -3.99609,-0.17575 -2.57813,-0.39055 z m -30.41015,-0.90644 c 0.67675,-0.27081 1.48535,-0.23751 1.79688,0.074 0.31152,0.31153 -0.2422,0.5331 -1.23047,0.4924 -1.09214,-0.045 -1.31428,-0.26713 -0.56641,-0.5664 z m 41.1914,0.0195 c 0.64454,-0.26007 1.69922,-0.26007 2.34375,0 0.64454,0.26008 0.11719,0.47287 -1.17187,0.47287 -1.28906,0 -1.81641,-0.21279 -1.17188,-0.47287 z m -47.8125,-0.9375 c 0.64454,-0.26007 1.69922,-0.26007 2.34375,0 0.64454,0.26008 0.11719,0.47287 -1.17187,0.47287 -1.28906,0 -1.81641,-0.21279 -1.17188,-0.47287 z m 54.4336,-0.0195 c 0.67675,-0.27081 1.48535,-0.23751 1.79688,0.074 0.31152,0.31153 -0.2422,0.5331 -1.23047,0.4924 -1.09214,-0.045 -1.31428,-0.26713 -0.56641,-0.5664 z m -105.81838,-18.35637 c -31.60235,-18.44243 -52.53257,-40.62682 -67.43178,-71.47238 -22.21431,-45.9899 -22.21431,-97.4476 0,-143.4375 22.88821,-47.385038 66.00913,-79.94727 118.7231,-89.652285 13.07535,-2.407265 39.0458,-2.86085 51.42159,-0.8981 55.91088,8.867243 100.42849,41.321781 124.20719,90.550385 29.92579,61.95483 18.85735,134.19749 -28.29663,184.68952 -6.93284,7.42362 -22.24609,20.22839 -30.27512,25.31571 -5.45065,3.45363 -14.79504,8.60716 -12.55148,6.92229 1.36095,-1.02206 1.38729,-1.71769 0.24972,-6.59404 -1.88499,-8.08025 -5.34591,-15.98759 -10.18044,-23.25976 -4.76545,-7.16825 -15.92679,-18.08911 -21.87991,-21.40851 l -3.85104,-2.14728 1.45034,4.95978 c 0.79769,2.72788 2.68522,9.15069 4.19451,14.2729 1.50928,5.12221 2.42098,9.61379 2.026,9.98131 -0.39497,0.36751 -7.04627,2.44284 -14.78064,4.61183 -7.73438,2.16899 -14.38157,4.24022 -14.77154,4.60272 -0.38996,0.36251 0.3292,3.71165 1.59816,7.44254 l 2.3072,6.78344 -2.06691,0.78101 c -5.92968,2.24059 -12.89628,4.09217 -13.42136,3.5671 -1.40519,-1.4052 0.71364,-3.19117 5.62123,-4.73814 2.89546,-0.91272 5.26425,-1.95434 5.264,-2.3147 -2.6e-4,-0.36038 -0.87571,-2.95801 -1.94544,-5.77254 -1.8074,-4.75534 -1.83388,-5.19855 -0.3744,-6.26575 0.86381,-0.63163 1.33466,-1.53014 1.04632,-1.99667 -0.28833,-0.46653 5.92786,-2.65752 13.81377,-4.86885 l 14.33801,-4.02061 -4.31392,-15.02833 c -2.89451,-10.08354 -4.77147,-15.11187 -5.70452,-15.28226 -1.98918,-0.36324 -11.14633,-3.73844 -11.73223,-4.32433 -0.27065,-0.27065 -0.10583,-1.508 0.36625,-2.74966 0.58999,-1.55182 2.57648,-2.95527 6.35435,-4.48939 15.5972,-6.33368 28.28812,-18.87916 34.84467,-34.44535 4.3206,-10.2577 5.02094,-14.93955 5.55175,-37.1146 l 0.51053,-21.32813 -22.15858,0 -22.15859,0 0,-5.91457 c 0,-3.74912 -0.50394,-6.58083 -1.37644,-7.73437 -1.24666,-1.64824 -1.37924,-1.09061 -1.40625,5.91456 l -0.0298,7.73438 -29.0625,0 -29.0625,0 0,-11.25 c 0,-9.45616 -0.22793,-11.25 -1.42945,-11.25 -2.27114,0 -3.25805,4.13621 -3.25805,13.65478 l 0,8.84522 -10.90859,0 -10.90858,0 0.51053,21.32812 c 0.53081,22.17506 1.23115,26.8569 5.55175,37.11461 6.52402,15.48896 19.25939,28.11964 34.64911,34.36429 4.45828,1.80903 5.3903,2.59996 5.86589,4.97787 0.31097,1.5549 0.45701,2.90877 0.32452,3.0086 -0.13249,0.0998 -3.27559,1.32583 -6.98466,2.72444 -4.07896,1.53808 -6.57729,2.98162 -6.32243,3.65312 0.23175,0.61061 -1.25021,7.21072 -3.29326,14.6669 -2.04305,7.45618 -3.5537,13.71763 -3.357,13.91433 0.61653,0.61653 28.89579,7.75186 29.63467,7.47731 0.3861,-0.14346 -2.62582,-5.95615 -6.69316,-12.91709 -4.06735,-6.96094 -7.40611,-12.97266 -7.41948,-13.35937 -0.0134,-0.38672 10.31163,-0.70313 22.94444,-0.70313 12.63281,0 22.96875,0.25245 22.96875,0.561 0,0.79997 -13.47388,26.98722 -14.17943,27.55852 -0.32211,0.26083 -2.59481,4.48204 -5.05042,9.38048 l -4.46475,8.90625 -1.73482,-3.75 c -0.95415,-2.0625 -2.84193,-6.28125 -4.19508,-9.375 l -2.46027,-5.625 -2.63581,5.625 c -1.44969,3.09375 -2.66812,6.25996 -2.70762,7.03602 -0.045,0.88488 2.02567,2.22433 5.5532,3.59216 5.54092,2.14855 6.85319,3.49062 4.35172,4.45052 -0.99184,0.38061 -12.94685,-3.621 -14.53337,-4.86464 -0.18585,-0.14568 0.83104,-3.24435 2.25977,-6.88593 1.42874,-3.64159 2.42454,-6.7613 2.21291,-6.9327 -0.21163,-0.1714 -6.60744,-1.92153 -14.21291,-3.88919 -7.60546,-1.96765 -13.82093,-4.03963 -13.81214,-4.6044 0.008,-0.56476 1.67707,-7.12811 3.70726,-14.58521 2.03021,-7.4571 3.49968,-13.74995 3.26552,-13.98412 -0.90034,-0.90035 -10.97468,6.93959 -16.65513,12.96115 -10.18517,10.79683 -16.3521,23.02973 -18.74157,37.17639 l -1.17693,6.96792 -11.72179,-6.84059 z m 81.61916,4.93387 c 0,-0.51563 0.42187,-0.9375 0.9375,-0.9375 0.51562,0 0.9375,0.42187 0.9375,0.9375 0,0.51562 -0.42188,0.9375 -0.9375,0.9375 -0.51563,0 -0.9375,-0.42188 -0.9375,-0.9375 z m -24.54863,-98.47016 c -3.98539,-2.10501 -5.10207,-3.50414 -3.81999,-4.78622 0.58234,-0.58234 2.20937,-0.13495 4.55893,1.25357 3.52225,2.08153 4.41093,2.15906 24.74719,2.15906 20.33626,0 21.22494,-0.0775 24.74719,-2.15906 2.34956,-1.38852 3.97659,-1.83591 4.55893,-1.25357 1.30581,1.30581 0.1359,2.71216 -4.01988,4.83228 -3.33909,1.70347 -5.50364,1.85808 -25.48327,1.82016 -19.77795,-0.0375 -22.15959,-0.21328 -25.2891,-1.86622 z m -26.92396,-13.32261 c -10.15483,-3.74196 -2.97975,-10.78478 9.98798,-9.80388 9.46355,0.71585 13.6246,5.16197 8.17363,8.73359 -3.05854,2.00402 -13.89469,2.64262 -18.16161,1.07029 z m 93.75,1.1e-4 c -9.96617,-3.67277 -2.95312,-10.85361 9.55298,-9.78154 9.04255,0.77516 12.98741,5.22778 7.70063,8.69181 -3.02846,1.98432 -13.10002,2.62044 -17.25361,1.08973 z m -48.19947,-5.96391 c -2.12166,-1.15008 -2.42483,-1.69174 -1.54218,-2.75527 0.84403,-1.017 1.54288,-1.08601 3.01567,-0.29779 1.05438,0.56429 3.89998,1.02598 6.32357,1.02598 2.42359,0 5.26919,-0.46169 6.32357,-1.02598 1.47376,-0.78873 2.17193,-0.71885 3.01933,0.3022 2.88461,3.47574 -11.53375,5.78981 -17.13996,2.75086 z m -32.85635,-17.84002 c -1.89088,-1.89089 -2.47159,-3.40273 -2.47159,-6.43466 0,-5.51828 3.38797,-8.90625 8.90625,-8.90625 5.51827,0 8.90625,3.38797 8.90625,8.90625 0,3.03193 -0.58071,4.54377 -2.47159,6.43466 -1.89089,1.89088 -3.40273,2.47159 -6.43466,2.47159 -3.03193,0 -4.54377,-0.58071 -6.43466,-2.47159 z m 5.79005,-9.96389 c 0.37312,-1.93742 -2.33326,-3.2429 -3.76164,-1.81452 -1.42838,1.42838 -0.1229,4.13476 1.81452,3.76164 0.89799,-0.17293 1.77419,-1.04913 1.94712,-1.94712 z m 64.52245,9.96389 c -1.89088,-1.89089 -2.47159,-3.40273 -2.47159,-6.43466 0,-5.71566 3.35852,-8.90625 9.375,-8.90625 6.01648,0 9.375,3.19059 9.375,8.90625 0,5.71566 -3.35852,8.90625 -9.375,8.90625 -3.5384,0 -4.93007,-0.49825 -6.90341,-2.47159 z m 5.79005,-9.96389 c 0.37312,-1.93742 -2.33326,-3.2429 -3.76164,-1.81452 -1.42838,1.42838 -0.1229,4.13476 1.81452,3.76164 0.89799,-0.17293 1.77419,-1.04913 1.94712,-1.94712 z"
         style="fill:#eeb2b0" />
      <path
         inkscape:connector-curvature="0"
         id="path4154"
         d="m -219.53533,339.39869 c 0.67675,-0.27081 1.48535,-0.23751 1.79688,0.074 0.31152,0.31152 -0.2422,0.5331 -1.23047,0.4924 -1.09214,-0.045 -1.31428,-0.26713 -0.56641,-0.5664 z m 20.09765,-0.006 c 0.90235,-0.2358 2.37891,-0.2358 3.28125,0 0.90235,0.23581 0.16407,0.42875 -1.64062,0.42875 -1.80469,0 -2.54297,-0.19294 -1.64063,-0.42875 z m -30.41015,-0.93167 c 0.67675,-0.27081 1.48535,-0.23752 1.79688,0.074 0.31152,0.31152 -0.2422,0.5331 -1.23047,0.49239 -1.09214,-0.045 -1.31428,-0.26713 -0.56641,-0.5664 z m -58.03305,-19.30914 c -31.57328,-18.42546 -52.51028,-40.62106 -67.40461,-71.45652 -22.21431,-45.9899 -22.21431,-97.4476 0,-143.4375 22.88821,-47.385038 66.00913,-79.94727 118.7231,-89.652285 13.07535,-2.407265 39.0458,-2.86085 51.42159,-0.8981 55.91088,8.867243 100.42849,41.321781 124.20719,90.550385 29.92579,61.95483 18.85735,134.19749 -28.29663,184.68952 -6.97155,7.46506 -22.33165,20.29783 -30.27512,25.29367 -9.22787,5.80363 -12.0527,7.39248 -11.47162,6.45226 1.05132,-1.70108 -2.11756,-12.80596 -5.87006,-20.5708 -4.62242,-9.56488 -12.22996,-19.3245 -19.33867,-24.80931 -6.42343,-4.95608 -10.70056,-7.74737 -11.16291,-7.28501 -0.17953,0.17951 1.4907,6.64682 3.71161,14.37178 2.79821,9.73296 3.71498,14.23035 2.98587,14.64778 -0.57868,0.33132 -7.48575,2.41224 -15.34903,4.62428 -8.83608,2.4857 -14.29688,4.47736 -14.29688,5.21433 0,0.65586 0.99675,3.93849 2.21501,7.29474 l 2.21501,6.10228 -7.14008,2.37786 c -8.29181,2.76143 -8.53994,2.79331 -8.53994,1.09724 0,-0.71234 2.49618,-2.19079 5.625,-3.33162 3.09375,-1.12803 5.625,-2.38414 5.625,-2.79135 0,-0.4072 -0.80996,-3.09455 -1.79991,-5.9719 -1.51357,-4.39927 -1.58814,-5.31278 -0.46875,-5.74234 0.73214,-0.28095 1.33116,-1.09699 1.33116,-1.81345 0,-0.87503 4.58273,-2.61141 13.96083,-5.28968 l 13.96083,-3.98703 -1.78864,-6.22413 c -0.98375,-3.42326 -2.95527,-10.20572 -4.38115,-15.07213 l -2.59253,-8.84801 -6.66069,-2.26258 c -6.24319,-2.12074 -6.62206,-2.40706 -6.04424,-4.56759 0.4545,-1.69945 2.00468,-2.86924 5.90057,-4.45264 9.06498,-3.68429 14.10406,-7.13719 21.96688,-15.05224 5.87591,-5.91497 8.49152,-9.45 11.51391,-15.56129 6.36344,-12.86686 6.84387,-15.51406 7.34759,-40.48576 l 0.44914,-22.26563 -22.08932,0 -22.08931,0 -0.27381,-7.19039 c -0.17947,-4.71307 -0.67755,-7.32398 -1.44568,-7.57812 -0.87284,-0.28879 -1.17188,1.54609 -1.17188,7.19039 l 0,7.57812 -29.0625,0 -29.0625,0 0,-11.71875 c 0,-6.44531 -0.35649,-11.71875 -0.7922,-11.71875 -0.43571,0 -1.4904,0.7715 -2.34375,1.71444 -1.2397,1.36985 -1.55155,3.72526 -1.55155,11.71875 l 0,10.00431 -10.87875,0 -10.87875,0 0.44914,22.26562 c 0.50408,24.98972 0.98097,27.61102 7.37664,40.54688 3.13027,6.33126 5.60196,9.63125 12.02832,16.05916 6.81232,6.81397 9.52338,8.78847 17.18342,12.51487 5.00224,2.43344 9.09498,4.9809 9.09498,5.66103 0,0.68012 0.25607,1.90391 0.56905,2.71951 0.35622,0.9283 0.0652,1.48293 -0.77824,1.48293 -0.74101,0 -3.83505,1.01213 -6.87565,2.24917 -4.82445,1.9628 -5.54944,2.58948 -5.69397,4.92188 -0.0911,1.46998 -1.67615,8.12859 -3.52233,14.79691 -1.84618,6.66831 -3.21102,12.26988 -3.03299,12.44792 0.53441,0.5344 23.98134,6.83793 27.53617,7.40287 l 3.2968,0.52395 -1.87465,-3.12448 c -5.47797,-9.13009 -13.37419,-23.06488 -13.37419,-23.60201 0,-0.33892 10.37156,-0.61621 23.04791,-0.61621 l 23.04791,0 -11.43351,22.26562 c -6.28843,12.2461 -11.75745,22.61543 -12.15338,23.04298 -0.39592,0.42753 -2.31431,-3.06939 -4.26307,-7.77094 -1.94877,-4.70155 -3.84618,-8.73552 -4.21647,-8.96438 -0.72677,-0.44916 -5.59189,10.12647 -5.59189,12.15546 0,0.67658 2.50241,2.16599 5.56091,3.30979 3.90422,1.46008 5.41047,2.47168 5.05595,3.39556 -0.27774,0.72375 -0.80897,1.31591 -1.18053,1.31591 -1.01577,0 -12.62249,-4.75846 -13.34923,-5.47284 -0.34741,-0.3415 0.39087,-3.11835 1.64062,-6.17079 1.24976,-3.05243 2.27228,-6.04916 2.27228,-6.65938 0,-0.63866 -5.66937,-2.59506 -13.35938,-4.61008 -7.34765,-1.92533 -13.65954,-3.78502 -14.02642,-4.13267 -0.36687,-0.34764 0.99702,-6.74441 3.03089,-14.21504 2.03386,-7.47062 3.70512,-14.12002 3.71393,-14.77643 0.0193,-1.44353 -2.67471,0.15182 -10.65786,6.31132 -13.13723,10.13619 -25.01764,31.64674 -26.04001,47.14778 -0.12753,1.9336 -0.27541,3.51563 -0.32861,3.51563 -0.0532,0 -5.35932,-3.07113 -11.79137,-6.82473 z m 60.0028,-92.50876 c -1.33362,-0.40415 -3.55584,-1.47594 -4.93826,-2.38174 -1.93768,-1.2696 -2.27537,-1.93382 -1.47402,-2.89938 0.85124,-1.02568 1.54747,-0.87689 3.84493,0.82169 2.71064,2.00406 3.56067,2.07417 25.14838,2.07417 21.98777,0 22.39032,-0.0351 25.32562,-2.20522 2.25585,-1.66782 3.24595,-1.94105 4.06291,-1.12125 1.37756,1.38233 -2.18169,4.30445 -6.88853,5.65545 -3.81749,1.09573 -41.49585,1.14277 -45.08103,0.0563 z m 17.1904,-20.1892 c -1.67578,-0.72836 -3.04687,-1.81928 -3.04687,-2.42424 0,-0.76971 0.91477,-0.87493 3.04687,-0.35044 1.67579,0.41222 4.52344,0.74949 6.32813,0.74949 1.80469,0 4.65234,-0.33727 6.32812,-0.74949 4.20288,-1.03387 4.05268,1.0353 -0.20426,2.81396 -4.05611,1.69475 -8.49464,1.68075 -12.45199,-0.0393 z m -34.05648,-18.2177 c -2.02886,-2.02884 -2.74039,-3.6298 -2.74039,-6.16586 0,-2.53606 0.71153,-4.13702 2.74039,-6.16586 2.02884,-2.02886 3.6298,-2.74039 6.16586,-2.74039 2.53606,0 4.13702,0.71153 6.16586,2.74039 2.02886,2.02884 2.74039,3.6298 2.74039,6.16586 0,2.53606 -0.71153,4.13702 -2.74039,6.16586 -2.02884,2.02886 -3.6298,2.74039 -6.16586,2.74039 -2.53606,0 -4.13702,-0.71153 -6.16586,-2.74039 z m 5.52125,-9.69509 c 0.37312,-1.93742 -2.33326,-3.2429 -3.76164,-1.81452 -1.42838,1.42838 -0.1229,4.13476 1.81452,3.76164 0.89799,-0.17293 1.77419,-1.04913 1.94712,-1.94712 z m 64.79125,9.69509 c -5.83483,-5.83482 -1.76865,-15.07211 6.63461,-15.07211 3.05415,0 4.4854,0.59117 6.63461,2.74039 5.83483,5.83482 1.76865,15.07211 -6.63461,15.07211 -3.05415,0 -4.4854,-0.59117 -6.63461,-2.74039 z m 5.52125,-9.69509 c 0.37312,-1.93742 -2.33326,-3.2429 -3.76164,-1.81452 -1.42838,1.42838 -0.1229,4.13476 1.81452,3.76164 0.89799,-0.17293 1.77419,-1.04913 1.94712,-1.94712 z"
         style="fill:#8fbee3" />
      <path
         inkscape:connector-curvature="0"
         id="path4152"
         d="m -279.98864,323.38506 c -1.63507,-0.78567 -3.30494,-2.31696 -3.71082,-3.40285 -1.24059,-3.319 -1.55272,-176.13628 -0.33375,-184.78685 5.07754,-36.033458 34.11726,-65.93352 70.13693,-72.214823 30.85306,-5.380325 62.54368,6.334727 81.76249,30.225091 8.66616,10.772662 12.61792,18.514002 17.12757,33.552232 1.92793,6.42902 1.97424,8.35013 2.27675,94.44994 l 0.30879,87.88743 -4.27504,3.01332 c -2.35126,1.65733 -6.32615,4.19753 -8.83309,5.64491 l -4.55807,2.63158 -1.62427,-6.62796 c -3.73177,-15.22781 -13.91461,-30.5248 -26.76581,-40.20847 -6.93523,-5.22586 -9.32009,-6.5518 -9.32009,-5.18185 0,0.28333 1.76078,6.64673 3.91286,14.14089 2.89665,10.08702 3.62098,13.80614 2.78899,14.32033 -0.61812,0.38202 -7.54688,2.50177 -15.39723,4.71055 -7.85035,2.20876 -14.38433,4.11642 -14.51995,4.23921 -0.13562,0.1228 0.8136,3.03992 2.10937,6.48248 1.29578,3.44255 2.35596,6.61526 2.35596,7.05046 0,0.99401 -13.23668,5.77006 -14.25217,5.14246 -1.77106,-1.09457 -0.40908,-2.2375 4.51664,-3.7902 2.89545,-0.91271 5.46433,-2.18033 5.70861,-2.81693 0.24429,-0.63661 -0.41727,-3.45985 -1.47014,-6.27389 -1.62279,-4.33733 -1.70691,-5.196 -0.55237,-5.63904 0.74906,-0.28744 1.36303,-1.0632 1.36437,-1.72393 0.002,-0.74186 5.05473,-2.63545 13.21303,-4.95129 7.26582,-2.0625 13.56671,-3.96968 14.00196,-4.23817 0.71564,-0.44145 -5.78419,-25.73446 -7.45253,-29.00029 -0.38308,-0.7499 -3.67336,-2.37466 -7.31173,-3.61059 -6.1977,-2.10529 -6.57631,-2.3926 -5.99876,-4.55214 0.4545,-1.69945 2.00468,-2.86924 5.90056,-4.45264 9.06499,-3.68429 14.10407,-7.13719 21.96689,-15.05225 5.87591,-5.91496 8.49151,-9.45 11.51391,-15.56128 6.36344,-12.86687 6.84387,-15.51407 7.34759,-40.48577 l 0.44914,-22.26562 -22.08932,0 -22.08931,0 -0.27381,-7.19039 c -0.17947,-4.71307 -0.67755,-7.32398 -1.44568,-7.57812 -0.87284,-0.28879 -1.17188,1.54609 -1.17188,7.19039 l 0,7.57812 -29.0625,0 -29.0625,0 0,-11.71875 c 0,-6.44531 -0.35649,-11.71875 -0.7922,-11.71875 -0.43571,0 -1.4904,0.7715 -2.34375,1.71444 -1.2397,1.36985 -1.55155,3.72526 -1.55155,11.71875 l 0,10.00431 -10.87875,0 -10.87875,0 0.44914,22.26562 c 0.50408,24.98972 0.98097,27.61102 7.37664,40.54688 3.13027,6.33126 5.60196,9.63125 12.02832,16.05916 6.81232,6.81397 9.52338,8.78847 17.18342,12.51487 5.00224,2.43344 9.09498,4.9809 9.09498,5.66103 0,0.68012 0.25607,1.90391 0.56905,2.71951 0.35622,0.9283 0.0652,1.48293 -0.77824,1.48293 -0.74101,0 -3.84078,1.01446 -6.88837,2.25435 -4.39852,1.78951 -5.57769,2.70773 -5.71867,4.45312 -0.0977,1.20933 -1.71156,7.84512 -3.58639,14.7462 -1.87484,6.90108 -3.0645,12.84848 -2.64371,13.21644 0.42079,0.36796 6.88227,2.26946 14.35883,4.22555 7.47656,1.95609 13.70281,3.64118 13.83609,3.74465 0.1333,0.10347 -1.0176,3.24356 -2.55754,6.97796 l -2.7999,6.78984 5.60442,2.41819 c 3.1418,1.35561 5.60443,3.01273 5.60443,3.77124 0,0.74419 -0.52734,1.14411 -1.17188,0.88871 -0.64453,-0.25539 -3.98311,-1.59643 -7.41907,-2.98009 l -6.2472,-2.51576 2.73954,-6.64348 c 1.50676,-3.6539 2.6305,-6.74464 2.4972,-6.86827 -0.13328,-0.12364 -5.30484,-1.55855 -11.49234,-3.18868 -6.1875,-1.63014 -12.5858,-3.38176 -14.21843,-3.8925 l -2.96844,-0.92861 2.34523,-8.62505 c 1.28987,-4.74378 3.12613,-11.47272 4.08058,-14.95319 0.95444,-3.48046 1.36633,-6.32812 0.91529,-6.32812 -0.45105,0 -4.2223,2.56365 -8.38057,5.697 -8.51275,6.41455 -16.45148,15.91315 -21.22929,25.40062 -3.36099,6.67402 -6.95062,18.29415 -6.95062,22.50008 0,3.31782 -0.78278,3.66385 -4.37909,1.93575 z m 71.64292,-9.65209 c -1.9326,-4.58753 -3.51383,-8.92821 -3.51383,-9.64595 0,-0.71775 -2.75074,-6.03777 -6.11274,-11.82225 -3.36202,-5.78448 -6.74786,-11.74539 -7.52408,-13.24646 l -1.41133,-2.7292 23.05024,0 23.05023,0 -6.78742,12.89062 c -3.73309,7.08985 -9.01018,17.26298 -11.72687,22.60696 -2.7167,5.34398 -5.0679,9.84479 -5.22489,10.00179 -0.15701,0.15699 -1.86669,-3.46798 -3.79931,-8.05551 z m -19.53236,-87.08985 c -1.33362,-0.40415 -3.55584,-1.47594 -4.93826,-2.38174 -1.93768,-1.2696 -2.27537,-1.93382 -1.47402,-2.89938 0.85124,-1.02568 1.54747,-0.87689 3.84493,0.82169 2.71064,2.00406 3.56067,2.07417 25.14838,2.07417 21.98777,0 22.39032,-0.0351 25.32562,-2.20522 2.25585,-1.66782 3.24595,-1.94105 4.06291,-1.12125 1.37756,1.38233 -2.18169,4.30445 -6.88853,5.65545 -3.81749,1.09573 -41.49585,1.14277 -45.08103,0.0563 z m 17.1904,-20.1892 c -1.67578,-0.72836 -3.04687,-1.81928 -3.04687,-2.42424 0,-0.76971 0.91477,-0.87493 3.04687,-0.35044 1.67579,0.41222 4.52344,0.74949 6.32813,0.74949 1.80469,0 4.65234,-0.33727 6.32812,-0.74949 4.20288,-1.03387 4.05268,1.0353 -0.20426,2.81396 -4.05611,1.69475 -8.49464,1.68075 -12.45199,-0.0393 z m -34.05648,-18.2177 c -2.02886,-2.02884 -2.74039,-3.6298 -2.74039,-6.16586 0,-2.53606 0.71153,-4.13702 2.74039,-6.16586 2.02884,-2.02886 3.6298,-2.74039 6.16586,-2.74039 2.53606,0 4.13702,0.71153 6.16586,2.74039 2.02886,2.02884 2.74039,3.6298 2.74039,6.16586 0,2.53606 -0.71153,4.13702 -2.74039,6.16586 -2.02884,2.02886 -3.6298,2.74039 -6.16586,2.74039 -2.53606,0 -4.13702,-0.71153 -6.16586,-2.74039 z m 5.52125,-9.69509 c 0.37312,-1.93742 -2.33326,-3.2429 -3.76164,-1.81452 -1.42838,1.42838 -0.1229,4.13476 1.81452,3.76164 0.89799,-0.17293 1.77419,-1.04913 1.94712,-1.94712 z m 64.79125,9.69509 c -5.83483,-5.83482 -1.76865,-15.07211 6.63461,-15.07211 3.05415,0 4.4854,0.59117 6.63461,2.74039 5.83483,5.83482 1.76865,15.07211 -6.63461,15.07211 -3.05415,0 -4.4854,-0.59117 -6.63461,-2.74039 z m 5.52125,-9.69509 c 0.37312,-1.93742 -2.33326,-3.2429 -3.76164,-1.81452 -1.42838,1.42838 -0.1229,4.13476 1.81452,3.76164 0.89799,-0.17293 1.77419,-1.04913 1.94712,-1.94712 z"
         style="fill:#424b54;fill-opacity:1" />
      <path
         inkscape:connector-curvature="0"
         id="path4150"
         d="m -281.13233,322.46098 c -1.60877,-1.33267 -2.15312,-3.31233 -2.90012,-10.54687 -1.2612,-12.21455 -1.23589,-160.16091 0.0295,-172.49192 2.03732,-19.85317 9.66484,-36.52043 23.31815,-50.953555 33.50579,-35.41949 91.56293,-34.945563 124.86,1.019247 10.04684,10.851778 16.07721,21.953728 20.28454,37.343988 l 2.54268,9.30099 0.0221,86.44361 c 0.0218,85.35534 -0.002,86.46161 -1.85287,87.87307 -3.28099,2.50136 -14.58088,9.23065 -14.87123,8.85609 -0.1536,-0.19815 -1.0255,-3.18928 -1.93754,-6.64696 -4.49946,-17.05804 -15.48478,-32.11615 -31.18666,-42.74907 -3.19437,-2.16315 -6.16859,-3.93299 -6.60938,-3.93299 -0.44079,0 -1.30342,-0.50198 -1.91695,-1.11551 -0.61353,-0.61353 -1.73412,-1.2063 -2.4902,-1.31727 -0.75607,-0.11097 -3.50254,-0.90852 -6.10324,-1.77234 -7.40692,-2.46018 -6.57043,-4.19597 4.64645,-9.64168 14.604,-7.09015 23.95745,-16.38138 31.01107,-30.80478 5.53603,-11.32023 6.45358,-17.14988 6.47354,-41.12967 l 0.0171,-20.625 -21.99159,0.29634 -21.99159,0.29636 -0.27493,-7.25236 c -0.18051,-4.76191 -0.67734,-7.38552 -1.44679,-7.6401 -0.87284,-0.28879 -1.17188,1.54609 -1.17188,7.19039 l 0,7.57812 -29.0625,0 -29.0625,0 0,-11.71875 c 0,-8.99038 -0.28375,-11.71875 -1.21875,-11.71875 -2.84528,0 -3.46875,2.30851 -3.46875,12.84375 l 0,10.59375 -10.78125,0 -10.78125,0 0.0163,20.39062 c 0.0189,23.72583 0.9486,29.59957 6.47266,40.8953 6.99157,14.29652 16.37523,23.67565 30.69135,30.67654 10.69211,5.22865 11.60987,8.04591 3.45818,10.6155 -15.54281,4.89944 -32.662,20.24421 -40.9042,36.66443 -2.47291,4.92657 -5.75481,15.29782 -6.74164,21.30448 -0.63868,3.88755 -2.02881,4.40084 -5.07791,1.875 z m 72.96409,-8.89443 c -1.77241,-4.26041 -3.16779,-8.25057 -3.10085,-8.86704 0.0669,-0.61646 -3.3674,-7.15552 -7.63184,-14.53125 l -7.75355,-13.4104 22.06767,-0.25167 c 12.13721,-0.13842 22.26319,-0.0562 22.50217,0.18283 0.41101,0.411 -20.82168,42.39191 -22.20775,43.90878 -0.3593,0.39321 -2.10344,-2.77085 -3.87585,-7.03125 z"
         style="fill:#0e2747" />
      <path
         inkscape:connector-curvature="0"
         id="path4148"
         d="m -281.13233,322.46098 c -1.60877,-1.33267 -2.15312,-3.31233 -2.90012,-10.54687 -1.2612,-12.21455 -1.23589,-160.16091 0.0295,-172.49192 2.03732,-19.85317 9.66484,-36.52043 23.31815,-50.953555 33.50579,-35.41949 91.56293,-34.945563 124.86,1.019247 10.04684,10.851778 16.07721,21.953728 20.28454,37.343988 l 2.54268,9.30099 0.0221,86.44361 c 0.0218,85.35534 -0.002,86.46161 -1.85287,87.87307 -3.28099,2.50136 -14.58088,9.23065 -14.87123,8.85609 -0.1536,-0.19815 -1.0255,-3.18928 -1.93754,-6.64696 -4.49946,-17.05804 -15.48478,-32.11615 -31.18666,-42.74907 -3.19437,-2.16315 -6.16859,-3.93299 -6.60938,-3.93299 -0.44079,0 -1.30342,-0.50198 -1.91695,-1.11551 -0.61353,-0.61353 -1.73412,-1.2063 -2.4902,-1.31727 -0.75607,-0.11097 -3.50254,-0.90852 -6.10324,-1.77234 -7.40692,-2.46018 -6.57043,-4.19597 4.64645,-9.64168 14.604,-7.09015 23.95745,-16.38138 31.01107,-30.80478 5.53603,-11.32023 6.45358,-17.14988 6.47354,-41.12967 l 0.0171,-20.625 -21.99159,0.29634 -21.99159,0.29636 -0.27493,-7.25236 c -0.18051,-4.76191 -0.67734,-7.38552 -1.44679,-7.6401 -0.87284,-0.28879 -1.17188,1.54609 -1.17188,7.19039 l 0,7.57812 -29.0625,0 -29.0625,0 0,-11.71875 c 0,-8.99038 -0.28375,-11.71875 -1.21875,-11.71875 -2.84528,0 -3.46875,2.30851 -3.46875,12.84375 l 0,10.59375 -10.78125,0 -10.78125,0 0.0163,20.39062 c 0.0189,23.72583 0.9486,29.59957 6.47266,40.8953 6.99157,14.29652 16.37523,23.67565 30.69135,30.67654 10.69211,5.22865 11.60987,8.04591 3.45818,10.6155 -15.54281,4.89944 -32.662,20.24421 -40.9042,36.66443 -2.47291,4.92657 -5.75481,15.29782 -6.74164,21.30448 -0.63868,3.88755 -2.02881,4.40084 -5.07791,1.875 z"
         style="fill:#2e2626" />
    </g>
  </g>
</svg>
