<?xml version="1.0" encoding="UTF-8" standalone="no"?>
<!-- Created with Inkscape (http://www.inkscape.org/) -->

<svg
   xmlns:dc="http://purl.org/dc/elements/1.1/"
   xmlns:cc="http://creativecommons.org/ns#"
   xmlns:rdf="http://www.w3.org/1999/02/22-rdf-syntax-ns#"
   xmlns:svg="http://www.w3.org/2000/svg"
   xmlns="http://www.w3.org/2000/svg"
   xmlns:sodipodi="http://sodipodi.sourceforge.net/DTD/sodipodi-0.dtd"
   xmlns:inkscape="http://www.inkscape.org/namespaces/inkscape"
   id="svg6972"
   version="1.1"
   inkscape:version="0.91 r13725"
   width="557.8125"
   height="499.6875"
   viewBox="0 0 557.8125 499.6875"
   sodipodi:docname="Tsing.svg">
  <metadata
     id="metadata6978">
    <rdf:RDF>
      <cc:Work
         rdf:about="">
        <dc:format>image/svg+xml</dc:format>
        <dc:type
           rdf:resource="http://purl.org/dc/dcmitype/StillImage" />
        <dc:title></dc:title>
      </cc:Work>
    </rdf:RDF>
  </metadata>
  <defs
     id="defs6976" />
  <sodipodi:namedview
     pagecolor="#ffffff"
     bordercolor="#666666"
     borderopacity="1"
     objecttolerance="10"
     gridtolerance="10"
     guidetolerance="10"
     inkscape:pageopacity="0"
     inkscape:pageshadow="2"
     inkscape:window-width="978"
     inkscape:window-height="686"
     id="namedview6974"
     showgrid="false"
     inkscape:zoom="0.16698156"
     inkscape:cx="-337.75182"
     inkscape:cy="390.85104"
     inkscape:window-x="396"
     inkscape:window-y="228"
     inkscape:window-maximized="0"
     inkscape:current-layer="svg6972" />
  <g
     id="g7610"
     transform="translate(604.85719,-107.79633)">
    <path
       inkscape:connector-curvature="0"
       id="path7588"
       d="m -348.26276,604.45696 c -82.01467,-5.24448 -156.76592,-56.08414 -193.58499,-131.66061 -14.64284,-30.05654 -22.37379,-59.30448 -24.31025,-91.97117 -6.41922,-108.28728 59.84683,-207.47811 161.19772,-241.28999 23.91038,-7.97679 45.6593,-11.41635 72.1875,-11.41635 26.52981,0 48.28202,3.4403 72.1875,11.41708 91.57941,30.55821 155.31323,114.7252 161.16169,212.83037 4.900235,82.19934 -32.70407,161.62981 -99.09165,209.30834 -35.07118,25.18759 -76.96827,40.02692 -120.92919,42.83135 -8.10403,0.51698 -15.36741,0.87962 -16.14085,0.80585 -0.77344,-0.0738 -6.47831,-0.45846 -12.67748,-0.85487 z m 39.39623,-4.64335 c 96.79147,-10.73859 175.55971,-80.50067 199.20258,-176.42626 5.13589,-20.83776 6.09727,-29.83169 6.09258,-56.99725 -0.005,-26.38373 -0.83521,-34.49692 -5.61497,-54.84375 -9.87877,-42.05258 -30.6279,-80.04022 -60.34096,-110.47254 -35.09561,-35.94517 -78.84479,-58.62602 -129.02672,-66.89123 -14.698,-2.42083 -53.7395,-2.42083 -68.4375,0 -56.89009,9.37008 -106.05348,37.605 -142.32568,81.73877 -27.25937,33.1675 -44.73819,73.32353 -51.41658,118.125 -1.95217,13.09597 -1.67069,54.38021 0.46211,67.7785 9.36747,58.8466 38.33035,110.315 82.65515,146.88209 35.49773,29.28494 77.26045,46.70457 123.28125,51.42176 7.45263,0.7639 37.62814,0.55479 45.46875,-0.31509 z"
       style="fill:#fcfcfc;fill-opacity:1" />
    <path
       style="fill:#fce9c8"
       d="m -360.42902,598.97796 c -42.7137,-5.57812 -81.74659,-22.4943 -115.78125,-50.17762 -10.22338,-8.31556 -27.28098,-25.50599 -34.83469,-35.10596 -43.83499,-55.70969 -60.44975,-126.33466 -46.16287,-196.22624 7.28814,-35.65369 23.2999,-70.02324 46.16137,-99.08626 7.46337,-9.48793 25.5205,-27.67542 35.30494,-35.55982 32.87009,-26.48703 69.52546,-42.50718 112.03125,-48.96304 14.9012,-2.26322 46.9569,-2.26469 61.875,-0.003 52.21338,7.91647 95.88848,30.37695 132.72273,68.25435 52.06593,53.54043 75.5067,131.09115 62.15944,205.64635 -2.40974,13.46036 -3.85996,19.1559 -8.43031,33.10894 -11.22048,34.25553 -29.03184,63.69866 -54.19611,89.58909 -37.52604,38.60889 -84.32086,62.06262 -136.90762,68.61857 -13.12591,1.6364 -41.05867,1.58694 -53.94188,-0.0955 z"
       id="path7558"
       inkscape:connector-curvature="0" />
    <path
       style="fill:#e9cfb5"
       d="m -357.14777,599.38567 c -10.11499,-1.12813 -17.75026,-2.54817 -30,-5.5795 -17.08433,-4.2277 -39.375,-12.3979 -39.375,-14.43213 0,-0.66841 0.64938,-4.93909 1.44306,-9.49039 6.48685,-37.19839 33.60587,-68.92584 69.33819,-81.12105 3.60937,-1.23186 6.71002,-2.32054 6.89031,-2.41929 0.1803,-0.0987 -0.13573,-1.58407 -0.70226,-3.3007 -0.92772,-2.811 -1.64554,-3.29742 -7.22379,-4.89495 -8.61714,-2.46785 -26.82696,-11.64845 -34.12051,-17.20207 -13.96125,-10.63073 -24.96893,-22.85924 -31.99175,-35.53987 -2.90193,-5.23982 -4.57351,-7.16837 -7.56442,-8.72732 -9.09969,-4.74302 -15.16948,-11.9999 -17.99436,-21.51355 -3.42191,-11.52436 -1.12435,-22.27561 7.03249,-32.90788 l 2.54121,-3.31242 0.36636,-29.50008 c 0.20151,-16.22505 0.70549,-30.23837 1.11998,-31.14072 0.6336,-1.37939 0.27151,-1.64062 -2.274,-1.64062 -2.29018,0 -2.8024,-0.28543 -2.10303,-1.17188 0.50851,-0.64453 1.18893,-4.75781 1.51204,-9.14062 2.77918,-37.69831 30.68306,-70.49255 69.55754,-81.74801 7.2595,-2.10187 8.49486,-2.15824 47.29794,-2.15824 38.80308,0 40.03844,0.0564 47.29794,2.15824 16.16686,4.68084 30.61588,12.87811 41.59074,23.59537 4.35191,4.24978 7.62247,6.47384 12.34784,8.39684 13.91612,5.66321 22.68088,12.77582 27.29623,22.15093 2.71756,5.52014 2.92802,6.60037 2.52115,12.94022 -0.38927,6.06558 -1.02153,8.00026 -5.13511,15.71284 -3.50647,6.57435 -5.21942,8.87359 -6.78291,9.10453 -1.5761,0.23281 -1.91399,0.69502 -1.37071,1.875 0.39656,0.86132 0.88719,14.0121 1.09029,29.22397 l 0.36928,27.65793 3.57172,2.5674 c 7.28744,5.23831 13.14104,17.4005 13.14104,27.30351 0,15.09717 -10.66953,29.54825 -24.84375,33.64898 -4.27184,1.23587 -4.98143,1.86373 -8.00215,7.08045 -11.09539,19.16143 -27.41558,34.19309 -49.04286,45.17078 l -12.15349,6.16894 -1.35019,4.65329 c -0.74261,2.5593 -1.80091,5.20198 -2.3518,5.8726 -0.76173,0.92731 -0.4595,1.36047 1.26194,1.80868 4.77147,1.24234 18.92012,8.99775 25.90465,14.19935 13.0551,9.72252 24.72261,23.64852 31.9086,38.08515 3.3769,6.78419 7.41609,18.32207 8.25852,23.59031 l 0.61408,3.84026 -13.9299,6.96486 c -25.3549,12.67731 -50.97221,20.25821 -78.6174,23.26519 -9.92798,1.07987 -37.30488,1.02532 -47.34375,-0.0943 z"
       id="path7556"
       inkscape:connector-curvature="0" />
    <path
       style="fill:#eebcad"
       d="m -354.80402,599.44934 c -13.28401,-1.4934 -25.97346,-3.87984 -37.75083,-7.09964 -12.22622,-3.3425 -30.8165,-10.16434 -32.83923,-12.05058 -2.32093,-2.16433 2.48781,-23.11739 8.1933,-35.70059 11.66765,-25.73245 36.62343,-47.99017 63.09988,-56.27793 2.96485,-0.92806 5.39063,-2.21569 5.39063,-2.8614 0,-3.20386 -1.92135,-5.84477 -4.69557,-6.45409 -5.5675,-1.22283 -19.15837,-7.01835 -26.67291,-11.37406 -18.22506,-10.56394 -33.07259,-25.42816 -43.16277,-43.21133 -2.98166,-5.25494 -4.42162,-6.85223 -7.0279,-7.79581 -5.34483,-1.93503 -14.34557,-11.6876 -16.83576,-18.24203 -4.37387,-11.51249 -2.23026,-26.32243 5.03919,-34.81515 l 3.19177,-3.72887 0.41236,-29.47799 c 0.2268,-16.2129 0.73477,-30.42721 1.12882,-31.58737 0.62332,-1.83517 0.39525,-2.10937 -1.7545,-2.10937 -2.06591,0 -2.3999,-0.34577 -2.03746,-2.10938 0.23843,-1.16015 0.7,-5.23003 1.02572,-9.04416 0.69915,-8.18689 4.14359,-20.7316 7.93603,-28.90315 11.60788,-25.01144 32.60872,-42.90299 60.48423,-51.52922 l 8.4375,-2.61104 39.84375,0 39.84375,0 8.4375,2.61104 c 16.2681,5.03425 29.19321,12.46227 40.3125,23.16745 3.60937,3.47496 7.61719,6.63966 8.90625,7.03268 5.40529,1.64799 15.83729,7.25961 20.85322,11.21742 11.02383,8.69835 15.44694,21.14221 11.4956,32.34148 -2.56404,7.26727 -9.12848,17.82688 -11.08219,17.82688 -1.44974,0 -1.66037,0.40839 -1.08792,2.10937 0.39045,1.16016 0.89997,14.23767 1.13227,29.06113 l 0.42237,26.95173 5.85599,5.86077 c 7.54823,7.55436 10.13014,13.82702 10.13014,24.61075 0,10.71491 -2.59319,17.06904 -9.98119,24.45704 -4.13958,4.13958 -7.19725,6.26386 -11.13283,7.73438 -2.98419,1.11503 -5.93804,2.02733 -6.56411,2.02733 -0.62608,0 -2.19228,1.99749 -3.48046,4.43887 -3.56333,6.7533 -12.07936,17.85044 -19.04095,24.81202 -10.72319,10.72319 -22.66967,18.91762 -36.07609,24.74562 l -6.96088,3.02602 -2.1039,6.25174 -2.1039,6.25175 1.97179,0.7597 c 12.23654,4.7145 25.38714,12.95129 35.04593,21.95079 6.96696,6.49141 15.40603,17.43108 20.57387,26.67015 3.65911,6.54178 10.55495,25.40976 10.56494,28.90714 0.005,1.69056 -2.39968,3.21539 -14.29108,9.06268 -7.86328,3.86657 -18.50613,8.58462 -23.65078,10.48454 -11.37452,4.20063 -31.24481,9.21848 -44.55234,11.25082 -11.59474,1.77076 -44.03996,2.57644 -54.84375,1.36187 z"
       id="path7554"
       inkscape:connector-curvature="0" />
    <path
       style="fill:#eaa7a7"
       d="m -354.80402,599.44934 c -13.28401,-1.4934 -25.97346,-3.87984 -37.75083,-7.09964 -12.22622,-3.3425 -30.8165,-10.16434 -32.83923,-12.05058 -2.32093,-2.16433 2.48781,-23.11739 8.1933,-35.70059 7.64413,-16.85878 22.62926,-34.15181 38.45829,-44.38137 9.38988,-6.06825 22.72325,-12.19967 23.22914,-10.68203 1.12809,3.38429 6.56782,8.80355 11.44742,11.40436 7.45991,3.97608 16.08959,5.69108 28.63691,5.69108 16.96543,0 29.1478,-3.74261 35.79133,-10.99565 l 2.99073,-3.26511 6.07731,3.39862 c 18.36671,10.27125 32.87883,24.98145 43.11867,43.7072 3.45899,6.32551 9.99071,24.58723 9.99071,27.93253 0,1.53577 -2.82419,3.30254 -14.29688,8.94395 -7.86328,3.86657 -18.50613,8.58462 -23.65078,10.48454 -11.37452,4.20063 -31.24481,9.21848 -44.55234,11.25082 -11.59474,1.77076 -44.03996,2.57644 -54.84375,1.36187 z m -4.6875,-122.34833 c -27.80411,-9.76382 -49.49505,-27.93608 -64.67966,-54.18738 l -2.62074,-4.53075 4.5877,0.6665 c 2.52323,0.36657 4.62254,0.71791 4.66511,0.78075 0.0426,0.0628 1.86728,3.48925 4.0549,7.61425 11.97352,22.57734 32.72808,40.49302 57.03957,49.23746 3.22265,1.15914 5.85937,2.26194 5.85937,2.45066 0,0.7665 -2.67797,0.15566 -8.90625,-2.03149 z m 77.34375,-0.87617 c 0,-0.22601 3.83577,-2.39203 8.52394,-4.81338 19.67512,-10.16181 34.79979,-24.91163 45.08441,-43.96708 3.88412,-7.19655 4.19015,-7.50835 7.56352,-7.70634 1.9336,-0.11349 3.51454,0.0975 3.51322,0.46875 -9.4e-4,0.3713 -1.50817,3.17227 -3.34855,6.22439 -12.90013,21.3938 -34.02151,39.43802 -56.5645,48.32362 -2.62462,1.03453 -4.77204,1.69605 -4.77204,1.47004 z m -47.34375,-32.04336 c -6.01107,-0.96646 -14.27543,-3.41403 -18.88393,-5.59267 -5.43468,-2.56922 -12.52232,-9.66105 -12.52232,-12.52974 0,-2.88689 2.16277,-2.22365 3.82252,1.17223 1.05342,2.15533 3.21066,3.90793 7.5,6.09318 8.13453,4.14427 17.70643,5.96711 31.33373,5.96711 13.6273,0 23.1992,-1.82284 31.33373,-5.96711 4.28934,-2.18525 6.44658,-3.93785 7.5,-6.09318 1.62122,-3.31706 3.82252,-4.08018 3.82252,-1.32516 0,2.83612 -6.9244,9.85859 -12.32657,12.50113 -2.75945,1.34982 -7.54843,3.14607 -10.64218,3.99167 -5.58332,1.52606 -25.42292,2.66916 -30.9375,1.78254 z m -77.5787,-32.59309 c -4.95021,-1.33178 -8.20255,-3.77508 -8.20255,-6.16214 0,-0.86421 -1.08201,-2.15036 -2.40445,-2.8581 -1.32246,-0.70776 -3.45868,-2.99389 -4.74717,-5.0803 l -2.3427,-3.79347 0.61485,4.91079 0.61486,4.91079 -4.00644,-1.41356 c -9.01464,-3.18055 -13.59068,-9.39344 -12.82072,-17.4067 0.53976,-5.61732 3.84749,-10.18931 9.34526,-12.91716 l 4.02776,-1.99848 1.03136,11.48841 1.03137,11.48841 0.14051,-15.27173 c 0.16503,-17.93632 1.14232,-21.00744 7.95567,-25.00033 l 4.06833,-2.38419 35.88373,0 c 35.4247,0 35.93152,0.0269 39.61894,2.0993 4.48159,2.5188 8.23884,8.50594 8.23884,13.12854 l 0,3.34435 5.53736,-0.5021 c 3.04556,-0.27616 6.84243,-0.0472 8.4375,0.50888 l 2.90014,1.01099 0,-4.20733 c 0,-5.89688 2.88941,-11.04925 7.81516,-13.93594 l 4.06833,-2.38419 35.46026,0 35.46026,0 3.84245,2.25182 c 2.14693,1.25819 4.76877,3.90001 5.94174,5.98702 1.92402,3.42334 2.11103,5.05521 2.23981,19.54505 l 0.14051,15.80986 1.03137,-11.48841 1.03136,-11.48841 4.02776,1.99848 c 5.49777,2.72785 8.8055,7.29984 9.34526,12.91716 0.76123,7.92234 -3.95706,14.27942 -12.95446,17.45389 l -3.83008,1.35133 0.60344,-5.37202 0.60343,-5.37202 -2.335,3.75 c -1.28424,2.0625 -3.63585,4.51213 -5.22579,5.44363 -1.5958,0.93492 -2.89081,2.47935 -2.89081,3.44758 0,8.79199 -30.40727,9.84707 -34.20668,1.18691 -0.91505,-2.08571 -1.13447,-2.10937 -19.55985,-2.10937 -17.56106,0 -18.84959,-0.12092 -22.36963,-2.0993 -2.08701,-1.17297 -4.72883,-3.79481 -5.98702,-5.94174 -1.90735,-3.25466 -2.25182,-5.08194 -2.25182,-11.94534 0,-8.04519 -0.0184,-8.10787 -2.57813,-8.8014 -3.115,-0.84396 -10.51594,-0.84694 -12.70968,-0.005 -1.33199,0.51112 -1.58719,1.99487 -1.58719,9.22799 0,7.40821 -0.31631,9.15868 -2.25182,12.46137 -1.25819,2.14693 -3.90001,4.76877 -5.98702,5.94174 -3.52283,1.9795 -4.80323,2.09886 -22.51981,2.09886 l -18.78462,0 -2.69392,2.69392 c -4.46218,4.46219 -16.25302,6.05255 -25.81026,3.48134 z m 11.73851,-14.12781 c 4.24336,0.37496 17.67154,0.73565 29.84041,0.80153 23.87911,0.12927 25.68265,-0.179 28.16221,-4.81363 0.9033,-1.68839 1.27507,-6.26393 1.27507,-15.69303 0,-9.42981 -0.3717,-14.00411 -1.27507,-15.69161 -2.58152,-4.82229 -3.46,-4.93196 -39.50618,-4.93196 -35.49654,0 -36.5442,0.11996 -39.38618,4.5098 -1.50181,2.31977 -2.4698,20.52516 -1.45215,27.31137 1.03018,6.86968 6.15566,10.56149 12.02939,8.66458 1.42851,-0.46133 6.06914,-0.532 10.3125,-0.15705 z m 17.48683,-21.97534 c -2.13263,-2.13261 -2.74039,-3.58805 -2.74039,-6.5625 0,-3.63063 -0.14239,-3.82211 -2.84208,-3.82211 -1.56314,0 -5.40925,0.86482 -8.54692,1.92183 -3.13767,1.057 -5.95709,1.66957 -6.26539,1.36128 -1.14174,-1.14174 1.48934,-3.81947 5.98941,-6.09561 4.45861,-2.25518 5.30689,-2.34375 22.44623,-2.34375 17.13934,0 17.98762,0.0886 22.44623,2.34375 4.50007,2.27614 7.13115,4.95387 5.98941,6.09561 -0.3083,0.30829 -3.03556,-0.25219 -6.06059,-1.24553 -3.02503,-0.99334 -7.60989,-2.03678 -10.18859,-2.31876 l -4.68855,-0.51271 0.32818,4.1263 c 0.28374,3.56768 -0.0554,4.50985 -2.50496,6.95945 -3.95449,3.95447 -9.46204,3.99271 -13.36199,0.0927 z m 148.8834,20.49221 c 3.83581,-2.3955 4.46996,-5.11345 4.46996,-19.15807 0,-9.42959 -0.37173,-14.00448 -1.27507,-15.69238 -2.57777,-4.81661 -3.49585,-4.93262 -39.03743,-4.93262 -34.99616,0 -36.07903,0.12548 -38.91743,4.5098 -1.50181,2.31977 -2.4698,20.52516 -1.45215,27.31137 0.6653,4.43653 3.92625,8.53523 7.39479,9.29456 1.12051,0.24531 16.6099,0.32864 34.42087,0.1852 25.08854,-0.20205 32.83702,-0.54398 34.39646,-1.51786 z m -45.7584,-20.49221 c -2.13263,-2.13261 -2.74039,-3.58805 -2.74039,-6.5625 0,-3.63063 -0.14239,-3.82211 -2.84208,-3.82211 -1.56314,0 -5.40925,0.86482 -8.54692,1.92183 -3.13767,1.057 -5.95709,1.66957 -6.26539,1.36128 -1.14173,-1.14174 1.48934,-3.81947 5.98941,-6.09561 4.45861,-2.25518 5.30689,-2.34375 22.44623,-2.34375 17.13934,0 17.98762,0.0886 22.44623,2.34375 4.50007,2.27614 7.13115,4.95387 5.98941,6.09561 -0.3083,0.30829 -3.03556,-0.25219 -6.06059,-1.24553 -3.02503,-0.99334 -7.60989,-2.03678 -10.18859,-2.31876 l -4.68855,-0.51271 0.32818,4.1263 c 0.28374,3.56768 -0.0554,4.50985 -2.50496,6.95945 -3.95449,3.95447 -9.46204,3.99271 -13.36199,0.0927 z m -163.74187,-45.13778 c 0.22674,-16.20607 0.73465,-30.4148 1.1287,-31.57496 0.62333,-1.83517 0.39526,-2.10937 -1.75449,-2.10937 -2.06591,0 -2.3999,-0.34577 -2.03746,-2.10938 0.23843,-1.16015 0.7,-5.23003 1.02572,-9.04416 0.69915,-8.18689 4.14359,-20.7316 7.93603,-28.90315 11.60788,-25.01144 32.60872,-42.90299 60.48423,-51.52922 l 8.4375,-2.61104 39.84375,0 39.84375,0 8.4375,2.61104 c 16.2681,5.03425 29.19321,12.46227 40.3125,23.16745 3.60937,3.47496 7.61719,6.63966 8.90625,7.03268 5.40529,1.64799 15.83729,7.25961 20.85322,11.21742 11.02383,8.69835 15.44694,21.14221 11.4956,32.34148 -2.56404,7.26727 -9.12848,17.82688 -11.08219,17.82688 -1.45015,0 -1.66026,0.40792 -1.08653,2.10938 0.39121,1.16015 0.90053,14.4773 1.13184,29.59366 l 0.42055,27.48429 -3.60062,-1.80438 c -1.98034,-0.99242 -4.76078,-2.08323 -6.17875,-2.42403 -2.3768,-0.57125 -2.57812,-0.97785 -2.57812,-5.20681 0,-11.0474 -4.94609,-28.24278 -11.95118,-41.54898 l -4.31857,-8.20313 -88.35416,0 -88.35417,0 -5.21358,10.54688 c -6.10352,12.34718 -9.77796,25.06323 -10.58141,36.61888 l -0.57427,8.25949 -4.31071,2.2883 c -2.37088,1.25856 -5.29676,2.99661 -6.50194,3.86232 l -2.19124,1.57404 0.41225,-29.46558 z m 146.00148,10.01839 c 0,-1.48684 1.26942,-3.59531 3.42497,-5.68875 10.88924,-10.5755 38.57492,-14.41334 47.26209,-6.55155 2.25842,2.04383 2.612,5.05532 0.37563,3.19931 -2.15549,-1.7889 -18.86691,-0.49278 -29.55539,2.29229 -9.94636,2.59169 -15.14432,4.59066 -18.92918,7.27956 l -2.57812,1.8316 0,-2.36246 z m -59.0625,0.47156 c 0,-2.13408 -19.95291,-9.76782 -28.32488,-10.83676 -11.47932,-1.46568 -18.31001,-1.657 -20.34159,-0.56973 -1.84713,0.98856 -2.08425,0.92543 -1.80787,-0.48127 0.52963,-2.69575 4.69793,-5.06842 10.94525,-6.23024 13.14241,-2.44409 34.82323,4.81126 39.86078,13.33915 1.73222,2.9324 2.02105,5.60457 0.60581,5.60457 -0.51563,0 -0.9375,-0.37158 -0.9375,-0.82572 z"
       id="path7552"
       inkscape:connector-curvature="0" />
    <path
       style="fill:#d4b1a4"
       d="m -354.80402,599.44934 c -13.28401,-1.4934 -25.97346,-3.87984 -37.75083,-7.09964 -12.22622,-3.3425 -30.8165,-10.16434 -32.83923,-12.05058 -2.32093,-2.16433 2.48781,-23.11739 8.1933,-35.70059 7.64413,-16.85878 22.62926,-34.15181 38.45829,-44.38137 9.38988,-6.06825 22.72325,-12.19967 23.22914,-10.68203 1.12809,3.38429 6.56782,8.80355 11.44742,11.40436 7.45991,3.97608 16.08959,5.69108 28.63691,5.69108 16.96543,0 29.1478,-3.74261 35.79133,-10.99565 l 2.99073,-3.26511 6.07731,3.39862 c 18.36671,10.27125 32.87883,24.98145 43.11867,43.7072 3.45899,6.32551 9.99071,24.58723 9.99071,27.93253 0,1.53577 -2.82419,3.30254 -14.29688,8.94395 -7.86328,3.86657 -18.50613,8.58462 -23.65078,10.48454 -11.37452,4.20063 -31.24481,9.21848 -44.55234,11.25082 -11.59474,1.77076 -44.03996,2.57644 -54.84375,1.36187 z m -4.6875,-122.34833 c -27.80411,-9.76382 -49.49505,-27.93608 -64.67966,-54.18738 l -2.62074,-4.53075 4.5877,0.6665 c 2.52323,0.36657 4.62254,0.71791 4.66511,0.78075 0.0426,0.0628 1.86728,3.48925 4.0549,7.61425 11.97352,22.57734 32.72808,40.49302 57.03957,49.23746 3.22265,1.15914 5.85937,2.26194 5.85937,2.45066 0,0.7665 -2.67797,0.15566 -8.90625,-2.03149 z m 77.34375,-0.87617 c 0,-0.22601 3.83577,-2.39203 8.52394,-4.81338 19.67512,-10.16181 34.79979,-24.91163 45.08441,-43.96708 3.88412,-7.19655 4.19015,-7.50835 7.56352,-7.70634 1.9336,-0.11349 3.51454,0.0975 3.51322,0.46875 -9.4e-4,0.3713 -1.50817,3.17227 -3.34855,6.22439 -12.90013,21.3938 -34.02151,39.43802 -56.5645,48.32362 -2.62462,1.03453 -4.77204,1.69605 -4.77204,1.47004 z m -47.34375,-32.04336 c -6.01107,-0.96646 -14.27543,-3.41403 -18.88393,-5.59267 -5.43468,-2.56922 -12.52232,-9.66105 -12.52232,-12.52974 0,-2.88689 2.16277,-2.22365 3.82252,1.17223 1.05342,2.15533 3.21066,3.90793 7.5,6.09318 8.13453,4.14427 17.70643,5.96711 31.33373,5.96711 13.6273,0 23.1992,-1.82284 31.33373,-5.96711 4.28934,-2.18525 6.44658,-3.93785 7.5,-6.09318 1.62122,-3.31706 3.82252,-4.08018 3.82252,-1.32516 0,2.83612 -6.9244,9.85859 -12.32657,12.50113 -2.75945,1.34982 -7.54843,3.14607 -10.64218,3.99167 -5.58332,1.52606 -25.42292,2.66916 -30.9375,1.78254 z m -86.50958,-40.75453 c -2.61588,-1.29484 -4.81548,-3.35988 -6.32812,-5.941 -2.21593,-3.7812 -2.31855,-4.6493 -2.31855,-19.61441 0,-18.37216 0.91444,-21.34262 7.81516,-25.38672 l 4.06833,-2.38419 35.88373,0 c 35.4247,0 35.93152,0.0269 39.61894,2.0993 4.48159,2.5188 8.23884,8.50594 8.23884,13.12854 l 0,3.34435 5.53736,-0.5021 c 3.04556,-0.27616 6.84243,-0.0472 8.4375,0.50888 l 2.90014,1.01099 0,-4.20733 c 0,-5.89688 2.88941,-11.04925 7.81516,-13.93594 l 4.06833,-2.38419 35.46026,0 35.46026,0 3.84245,2.25182 c 2.14693,1.25819 4.76877,3.90001 5.94174,5.98702 1.9422,3.45569 2.0993,4.9121 2.0993,19.46269 0,15.06066 -0.0988,15.89609 -2.3305,19.70418 -1.55395,2.65161 -3.68309,4.63148 -6.38974,5.94174 -3.8991,1.88753 -5.44052,1.96505 -39.07151,1.96505 l -35.01226,0 -3.84245,-2.25182 c -5.97476,-3.50145 -8.04104,-8.07027 -8.04104,-17.77984 0,-7.99579 -0.0198,-8.06297 -2.57813,-8.75612 -3.115,-0.84396 -10.51594,-0.84694 -12.70968,-0.005 -1.33199,0.51112 -1.58719,1.99487 -1.58719,9.22799 0,7.40821 -0.31631,9.15868 -2.25182,12.46137 -1.25819,2.14693 -3.90001,4.76877 -5.98702,5.94174 -3.68552,2.07138 -4.20733,2.09929 -39.23255,2.09856 -34.26295,-7.1e-4 -35.63679,-0.0697 -39.50694,-1.98544 z m 75.43728,-6.40707 c 3.89607,-2.58509 4.5098,-5.20673 4.5098,-19.26443 0,-9.42981 -0.3717,-14.00411 -1.27507,-15.69161 -2.58152,-4.82229 -3.46,-4.93196 -39.50618,-4.93196 -35.49654,0 -36.5442,0.11996 -39.38618,4.5098 -1.50181,2.31977 -2.4698,20.52516 -1.45215,27.31137 0.66723,4.44941 3.94587,8.55832 7.39479,9.26744 1.12051,0.23038 16.80291,0.36095 34.84979,0.29014 26.96757,-0.10582 33.17815,-0.37137 34.8652,-1.49075 z m -37.28106,-21.53464 c -2.13263,-2.13261 -2.74039,-3.58805 -2.74039,-6.5625 0,-3.63063 -0.14239,-3.82211 -2.84208,-3.82211 -1.56314,0 -5.40925,0.86482 -8.54692,1.92183 -3.13767,1.057 -5.95709,1.66957 -6.26539,1.36128 -1.14174,-1.14174 1.48934,-3.81947 5.98941,-6.09561 4.45861,-2.25518 5.30689,-2.34375 22.44623,-2.34375 17.13934,0 17.98762,0.0886 22.44623,2.34375 4.50007,2.27614 7.13115,4.95387 5.98941,6.09561 -0.3083,0.30829 -3.03556,-0.25219 -6.06059,-1.24553 -3.02503,-0.99334 -7.60989,-2.03678 -10.18859,-2.31876 l -4.68855,-0.51271 0.32818,4.1263 c 0.28374,3.56768 -0.0554,4.50985 -2.50496,6.95945 -3.95449,3.95447 -9.46204,3.99271 -13.36199,0.0927 z m 148.84356,20.59714 c 3.8964,-2.58531 4.5098,-5.20535 4.5098,-19.263 0,-9.42959 -0.37173,-14.00448 -1.27507,-15.69238 -2.57777,-4.81661 -3.49585,-4.93262 -39.03743,-4.93262 -34.99616,0 -36.07903,0.12548 -38.91743,4.5098 -1.50181,2.31977 -2.4698,20.52516 -1.45215,27.31137 0.66721,4.44929 3.94569,8.55811 7.39479,9.26769 1.12051,0.23053 16.59198,0.36109 34.38104,0.29014 26.55721,-0.10592 32.711,-0.37267 34.39645,-1.491 z m -45.71856,-20.59714 c -2.13263,-2.13261 -2.74039,-3.58805 -2.74039,-6.5625 0,-3.63063 -0.14239,-3.82211 -2.84208,-3.82211 -1.56314,0 -5.40925,0.86482 -8.54692,1.92183 -3.13767,1.057 -5.95709,1.66957 -6.26539,1.36128 -1.14173,-1.14174 1.48934,-3.81947 5.98941,-6.09561 4.45861,-2.25518 5.30689,-2.34375 22.44623,-2.34375 17.13934,0 17.98762,0.0886 22.44623,2.34375 4.50007,2.27614 7.13115,4.95387 5.98941,6.09561 -0.3083,0.30829 -3.03556,-0.25219 -6.06059,-1.24553 -3.02503,-0.99334 -7.60989,-2.03678 -10.18859,-2.31876 l -4.68855,-0.51271 0.32818,4.1263 c 0.28374,3.56768 -0.0554,4.50985 -2.50496,6.95945 -3.95449,3.95447 -9.46204,3.99271 -13.36199,0.0927 z m -155.09218,25.36697 c -7.35765,-3.34251 -11.94438,-11.19028 -10.34415,-17.69855 0.94865,-3.8582 2.95526,-6.52637 7.24541,-9.63414 6.00103,-4.34712 6.38803,-4.01565 6.38803,5.47143 0,7.21394 0.76179,14.0769 2.38655,21.5003 0.56465,2.57989 -0.62493,2.65554 -5.67584,0.36096 z m 211.84024,-0.36096 c 1.62476,-7.4234 2.38655,-14.28636 2.38655,-21.5003 0,-9.48708 0.387,-9.81855 6.38803,-5.47143 4.29015,3.10777 6.29676,5.77594 7.24541,9.63414 1.60023,6.50827 -2.9865,14.35604 -10.34415,17.69855 -5.05091,2.29458 -6.24049,2.21893 -5.67584,-0.36096 z m -220.49038,-70.0927 c 0.22698,-16.23417 0.73511,-30.46589 1.12915,-31.62605 0.62333,-1.83517 0.39526,-2.10937 -1.75449,-2.10937 -2.06591,0 -2.3999,-0.34577 -2.03746,-2.10938 0.23843,-1.16015 0.7,-5.23003 1.02572,-9.04416 0.69915,-8.18689 4.14359,-20.7316 7.93603,-28.90315 11.60788,-25.01144 32.60872,-42.90299 60.48423,-51.52922 l 8.4375,-2.61104 39.84375,0 39.84375,0 8.4375,2.61104 c 16.2681,5.03425 29.19321,12.46227 40.3125,23.16745 3.60937,3.47496 7.61719,6.63966 8.90625,7.03268 5.40529,1.64799 15.83729,7.25961 20.85322,11.21742 11.02383,8.69835 15.44694,21.14221 11.4956,32.34148 -2.56404,7.26727 -9.12848,17.82688 -11.08219,17.82688 -1.45015,0 -1.66026,0.40792 -1.08653,2.10938 0.39121,1.16015 0.90099,14.52309 1.13285,29.69542 l 0.42155,27.58604 -2.26315,-1.48287 c -1.24474,-0.81558 -3.96593,-1.99304 -6.04708,-2.61657 l -3.78393,-1.13369 -0.57802,-8.14323 c -0.7797,-10.98453 -4.27493,-22.77992 -10.50982,-35.46761 l -5.18287,-10.54687 -88.52588,0 -88.52588,0 -5.18287,10.54687 c -6.35347,12.92898 -9.78191,24.66962 -10.53257,36.06857 l -0.56942,8.64669 -4.78213,2.47384 c -2.63017,1.36061 -5.55745,3.15835 -6.50507,3.99497 -1.66895,1.47349 -1.71001,0.59642 -1.31024,-27.99552 z m 146.00193,9.9673 c 0,-1.48684 1.26942,-3.59531 3.42497,-5.68875 10.88924,-10.5755 38.57492,-14.41334 47.26209,-6.55155 2.25842,2.04383 2.612,5.05532 0.37563,3.19931 -2.15549,-1.7889 -18.86691,-0.49278 -29.55539,2.29229 -9.94636,2.59169 -15.14432,4.59066 -18.92918,7.27956 l -2.57812,1.8316 0,-2.36246 z m -59.0625,0.47156 c 0,-2.13408 -19.95291,-9.76782 -28.32488,-10.83676 -11.47932,-1.46568 -18.31001,-1.657 -20.34159,-0.56973 -1.84713,0.98856 -2.08425,0.92543 -1.80787,-0.48127 0.52963,-2.69575 4.69793,-5.06842 10.94525,-6.23024 13.14241,-2.44409 34.82323,4.81126 39.86078,13.33915 1.73222,2.9324 2.02105,5.60457 0.60581,5.60457 -0.51563,0 -0.9375,-0.37158 -0.9375,-0.82572 z"
       id="path7550"
       inkscape:connector-curvature="0" />
    <path
       style="fill:#c8a89b"
       d="m -351.05402,599.83493 c -25.94265,-2.70834 -57.44703,-10.77555 -72.51943,-18.5698 -3.36942,-1.7424 -3.33981,-0.72514 -0.4525,-15.5395 1.96837,-10.09936 8.5951,-25.79507 14.9244,-35.34912 6.91794,-10.44257 19.18216,-22.74242 29.47376,-29.55939 8.71003,-5.76935 23.65706,-12.65411 24.16489,-11.13061 1.79231,5.37691 10.31499,11.87141 19.40888,14.79005 7.10058,2.2789 29.14557,2.7791 37.40341,0.84867 7.66724,-1.79236 16.6573,-6.36709 19.7611,-10.05575 l 2.22441,-2.64357 5.39917,2.84013 c 24.18901,12.72416 43.78053,36.81223 51.44127,63.24781 1.30041,4.48747 2.36439,8.67967 2.36439,9.31601 0,1.57219 -26.37404,14.523 -37.96875,18.64433 -26.4564,9.40388 -45.012,12.76262 -73.125,13.2363 -10.3125,0.17376 -20.4375,0.13975 -22.5,-0.0756 z M -361.60419,476.2318 c -25.88484,-9.39959 -48.15089,-28.37914 -62.58651,-53.34871 l -2.63701,-4.56129 4.13684,0.68506 c 2.27527,0.37678 4.4627,0.87806 4.86096,1.11396 0.39826,0.23589 2.03002,3.03488 3.62615,6.21998 11.29968,22.54859 34.87614,42.92704 58.69661,50.73476 4.75926,1.55996 6.17796,2.45024 3.75,2.35326 -0.64453,-0.0258 -5.07569,-1.4644 -9.84704,-3.19702 z m 79.45642,-0.0406 c 0,-0.24453 3.48047,-2.18887 7.73437,-4.32075 20.02913,-10.03774 37.08904,-26.73113 46.48941,-45.49059 2.65647,-5.30127 3.16106,-5.78677 6.43867,-6.19507 1.95596,-0.24366 3.71302,-0.31101 3.90457,-0.14967 0.54225,0.45673 -3.90215,7.68306 -9.16966,14.9093 -9.73582,13.35614 -24.85845,26.5898 -39.45986,34.53095 -6.32765,3.44136 -15.9375,7.49082 -15.9375,6.71583 z m -48.87232,-32.34119 c -6.93227,-1.10502 -16.03709,-4.21158 -20.38175,-6.95425 -4.53226,-2.86109 -9.49593,-8.55357 -9.49593,-10.89022 0,-2.84065 2.17609,-2.14283 3.82252,1.2258 1.05342,2.15533 3.21066,3.90793 7.5,6.09318 8.19075,4.1729 17.73712,6.00131 31.33373,6.00131 13.59661,0 23.14298,-1.82841 31.33373,-6.00131 4.28934,-2.18525 6.44658,-3.93785 7.5,-6.09318 1.62122,-3.31706 3.82252,-4.08018 3.82252,-1.32516 0,2.83612 -6.9244,9.85859 -12.32657,12.50113 -2.75945,1.34982 -7.54843,3.13418 -10.64218,3.96526 -6.74774,1.81264 -25.11859,2.64864 -32.46607,1.47744 z m -83.78393,-39.76561 c -3.49379,-1.55949 -7.52912,-5.79211 -8.84661,-9.27914 -1.55349,-4.11165 -1.29487,-32.04031 0.32541,-35.14177 1.77578,-3.39909 6.05227,-7.34413 9.28536,-8.56568 4.24985,-1.6057 71.14236,-1.3437 74.96908,0.29365 5.71926,2.44707 10.04801,8.74495 10.04801,14.6188 l 0,2.66256 5.53736,-0.5021 c 3.04556,-0.27616 6.84243,-0.0472 8.4375,0.50888 l 2.90014,1.01099 0,-3.73134 c 0,-6.8433 4.45127,-13.47284 10.60791,-15.79898 1.68826,-0.63787 14.92429,-0.99714 36.73584,-0.99714 21.81155,0 35.04758,0.35927 36.73584,0.99714 3.23309,1.22155 7.50958,5.16658 9.28536,8.56568 1.88477,3.60775 1.88477,32.57911 0,36.18686 -1.77578,3.39909 -6.05227,7.34413 -9.28536,8.56568 -1.68826,0.63787 -14.92429,0.99714 -36.73584,0.99714 -21.81155,0 -35.04758,-0.35927 -36.73584,-0.99714 -3.59147,-1.35695 -7.75614,-5.40261 -9.31712,-9.05087 -0.73767,-1.72406 -1.29079,-6.23584 -1.29079,-10.52902 0,-7.40085 -0.0383,-7.5226 -2.57813,-8.21075 -3.115,-0.84396 -10.51594,-0.84694 -12.70968,-0.005 -1.31832,0.50587 -1.58719,1.95365 -1.58719,8.5462 0,8.93232 -0.87555,12.01893 -4.51277,15.90904 -4.86145,5.19946 -5.5166,5.27835 -43.50399,5.23847 -27.11226,-0.0285 -35.58283,-0.31828 -37.76449,-1.29208 z m 73.18885,-6.60624 c 4.9274,-2.0588 5.98101,-5.5498 5.96297,-19.75751 -0.0104,-8.16304 -0.43626,-12.94703 -1.34662,-15.1258 -2.37987,-5.69581 -3.96389,-5.93168 -39.83645,-5.93168 -35.98955,0 -37.45033,0.22088 -39.87749,6.0299 -1.90553,4.56059 -1.90648,25.56485 -9.4e-4,30.12446 2.41065,5.76951 3.63996,5.9553 39.67458,5.99645 26.15878,0.0299 32.75076,-0.21871 35.42437,-1.33582 z m -36.22971,-21.99288 c -2.13263,-2.13261 -2.74039,-3.58805 -2.74039,-6.5625 0,-3.6934 -0.1026,-3.82108 -3.04688,-3.7915 -1.67578,0.0168 -5.36718,0.84681 -8.20312,1.84439 -6.21666,2.1868 -6.5625,2.21917 -6.5625,0.61405 0,-2.17215 3.37578,-4.4442 9.37938,-6.31273 4.57374,-1.4235 8.60385,-1.80132 19.21437,-1.80132 10.61052,0 14.64063,0.37782 19.21437,1.80132 6.0036,1.86853 9.37938,4.14058 9.37938,6.31273 0,1.5973 0.0372,1.60021 -6.3577,-0.4983 -2.94858,-0.96758 -7.47089,-1.98995 -10.04959,-2.27193 l -4.68855,-0.51271 0.32818,4.1263 c 0.28374,3.56768 -0.0554,4.50985 -2.50496,6.95945 -3.95449,3.95447 -9.46204,3.99271 -13.36199,0.0927 z m 147.79221,21.05538 c 4.93067,-2.06017 6.0299,-5.65527 6.0299,-19.72124 0,-14.06597 -1.09923,-17.66108 -6.0299,-19.72124 -2.6626,-1.1125 -9.24578,-1.37251 -34.75135,-1.37251 -35.47604,0 -36.98581,0.23101 -39.40874,6.0299 -1.90554,4.56059 -1.90648,25.56485 -9.4e-4,30.12446 2.40664,5.75991 3.68409,5.95529 39.20583,5.99645 25.74731,0.0298 32.28511,-0.22002 34.95562,-1.33582 z m -44.66721,-21.05538 c -2.13263,-2.13261 -2.74039,-3.58805 -2.74039,-6.5625 0,-3.6934 -0.1026,-3.82108 -3.04688,-3.7915 -1.67578,0.0168 -5.36718,0.84681 -8.20312,1.84439 -6.21666,2.1868 -6.5625,2.21917 -6.5625,0.61405 0,-2.17215 3.37578,-4.4442 9.37938,-6.31273 4.57374,-1.4235 8.60385,-1.80132 19.21437,-1.80132 10.61052,0 14.64063,0.37782 19.21437,1.80132 6.0036,1.86853 9.37938,4.14058 9.37938,6.31273 0,1.5973 0.0372,1.60021 -6.3577,-0.4983 -2.94858,-0.96758 -7.47089,-1.98995 -10.04959,-2.27193 l -4.68855,-0.51271 0.32818,4.1263 c 0.28374,3.56768 -0.0554,4.50985 -2.50496,6.95945 -3.95449,3.95447 -9.46204,3.99271 -13.36199,0.0927 z m -155.09218,25.36697 c -7.35765,-3.34251 -11.94438,-11.19028 -10.34415,-17.69855 0.94865,-3.8582 2.95526,-6.52637 7.24541,-9.63414 6.00103,-4.34712 6.38803,-4.01565 6.38803,5.47143 0,7.21394 0.76179,14.0769 2.38655,21.50031 0.56465,2.57988 -0.62493,2.65553 -5.67584,0.36095 z m 211.84024,-0.36096 c 1.62476,-7.4234 2.38655,-14.28636 2.38655,-21.5003 0,-9.48708 0.387,-9.81855 6.38803,-5.47143 4.29015,3.10777 6.29676,5.77594 7.24541,9.63414 1.60023,6.50827 -2.9865,14.35604 -10.34415,17.69855 -5.05091,2.29458 -6.24049,2.21893 -5.67584,-0.36096 z m -220.49038,-70.0927 c 0.22698,-16.23417 0.73511,-30.46589 1.12915,-31.62605 0.6195,-1.82387 0.39242,-2.10937 -1.67769,-2.10937 -2.1542,0 -2.35598,-0.30536 -2.01335,-3.04688 1.93868,-15.51235 2.81474,-20.09209 5.24553,-27.42187 10.07426,-30.37784 33.87373,-52.52447 66.27882,-61.67583 6.85624,-1.93623 9.03121,-2.0321 46.10197,-2.0321 37.07076,0 39.24573,0.0959 46.10197,2.0321 16.70904,4.71872 30.32201,12.32392 42.43167,23.7054 3.64244,3.42341 8.09917,6.78815 9.90386,7.47719 23.9759,9.15421 36.03864,24.65487 31.91993,41.01717 -1.64648,6.54092 -9.46255,19.93094 -11.63865,19.93863 -1.3998,0.005 -1.60764,0.42826 -1.03868,2.11556 0.39121,1.16016 0.90099,14.5231 1.13285,29.69543 l 0.42155,27.58604 -2.26315,-1.48287 c -1.24474,-0.81558 -3.96593,-1.99304 -6.04708,-2.61657 l -3.78393,-1.13369 -0.57802,-8.14323 c -0.7797,-10.98453 -4.27493,-22.77992 -10.50982,-35.46761 l -5.18287,-10.54687 -88.52588,0 -88.52588,0 -5.18287,10.54687 c -6.35347,12.92898 -9.78191,24.66962 -10.53257,36.06857 l -0.56942,8.64669 -4.78213,2.47384 c -2.63017,1.36061 -5.55745,3.15835 -6.50507,3.99497 -1.66895,1.47349 -1.71001,0.59642 -1.31024,-27.99552 z m 146.00193,10.505 c 0,-2.80178 4.69232,-7.81221 10.01358,-10.69244 6.36872,-3.44719 22.52871,-6.76058 29.16725,-5.98034 5.30027,0.62294 12.37991,3.85401 12.38387,5.65187 0.002,0.6498 -2.62558,0.89218 -7.51192,0.6931 -13.64183,-0.55579 -35.87645,5.14649 -42.41215,10.877 -1.49895,1.31427 -1.64063,1.26684 -1.64063,-0.54919 z m -60.9375,-1.95846 c -2.74209,-2.01366 -16.02897,-6.89397 -23.4375,-8.60866 -2.83594,-0.65637 -9.68866,-1.22403 -15.22827,-1.26148 -5.53961,-0.0374 -10.07476,-0.3191 -10.07813,-0.62589 -0.0159,-1.45899 4.17133,-4.04647 8.26812,-5.10916 10.9907,-2.85095 31.55047,1.97819 39.39298,9.25274 1.9904,1.84626 4.8328,6.32658 4.8328,7.61768 0,0.94128 -1.37876,0.47609 -3.75,-1.26523 z"
       id="path7548"
       inkscape:connector-curvature="0" />
    <path
       style="fill:#ec897f"
       d="m -355.27277,599.3673 c -19.29166,-1.92871 -49.4352,-9.74072 -65.84732,-17.06501 -6.02832,-2.69029 -5.68927,-1.29802 -3.35185,-13.76416 5.62879,-30.01995 25.27787,-57.21367 51.92284,-71.85958 3.4575,-1.90048 8.63891,-4.41157 11.51424,-5.58019 l 5.22789,-2.12477 1.91309,3.41054 c 2.57693,4.59398 8.47793,8.92426 15.65878,11.49073 8.16688,2.9189 31.1599,3.75035 40.21959,1.4544 8.22538,-2.08453 15.19487,-5.62099 18.5031,-9.38886 l 2.7636,-3.14756 6.66481,3.6164 c 17.67193,9.58902 32.32975,24.46558 41.98036,42.60684 4.1719,7.84235 9.00052,20.59012 10.17938,26.87398 l 0.60176,3.20764 -13.42826,6.67223 c -39.82537,19.78844 -82.23449,27.82512 -124.52201,23.59737 z m -3.87286,-122.20598 c -27.03277,-9.45685 -50.54219,-29.0565 -65.00949,-54.19801 l -2.57857,-4.48106 4.08984,0.62467 c 4.30609,0.65771 6.43358,1.80713 6.43358,3.47585 0,0.5514 1.75751,3.98021 3.90559,7.61958 12.66842,21.46346 29.8072,36.19138 52.91094,45.46813 10.08839,4.05075 10.24434,4.98781 0.24811,1.49084 z m 84.49786,-4.99269 c 20.64093,-10.30262 36.37913,-25.67388 46.99147,-45.89586 2.48681,-4.73864 3.24641,-5.46401 6.27819,-5.99517 1.897,-0.33235 3.57375,-0.48894 3.72612,-0.34797 0.15236,0.14097 -1.05299,2.52227 -2.67857,5.29178 -11.53314,19.6491 -30.32089,36.79387 -51.28848,46.80334 -9.85306,4.70363 -12.40711,4.82496 -3.02873,0.14388 z m -53.4375,-27.99043 c -15.54967,-2.08201 -27.56474,-8.00194 -31.48995,-15.51539 -2.66517,-5.10155 -0.74783,-6.38637 2.16802,-1.45281 2.29274,3.87929 9.30706,7.69845 18.70519,10.18463 5.74831,1.52065 10.17535,1.94053 20.46049,1.94053 10.28514,0 14.71218,-0.41988 20.46049,-1.94053 9.39813,-2.48618 16.41245,-6.30534 18.70519,-10.18463 2.91585,-4.93356 4.83319,-3.64874 2.16802,1.45281 -3.06493,5.86674 -11.84043,11.28675 -22.33136,13.7925 -6.1288,1.46386 -23.17625,2.48205 -28.84609,1.72289 z m -86.71875,-40.09384 c -3.49379,-1.55949 -7.52912,-5.79211 -8.84661,-9.27914 -0.54842,-1.45153 -0.99714,-9.12329 -0.99714,-17.04834 0,-15.38221 0.55845,-18.15183 4.51277,-22.38109 4.85309,-5.19051 5.54786,-5.27516 43.29973,-5.27516 37.75187,0 38.44664,0.0847 43.29973,5.27516 3.04046,3.25186 4.51277,6.88741 4.51277,11.14335 0,3.13275 0.0352,3.15921 2.87799,2.16818 2.84867,-0.99305 9.18724,-0.67049 12.35638,0.62879 1.40659,0.57667 1.64063,0.11908 1.64063,-3.20779 0,-6.99157 4.39642,-13.60118 10.60791,-15.94805 1.68826,-0.63787 14.92429,-0.99714 36.73584,-0.99714 21.81155,0 35.04758,0.35927 36.73584,0.99714 3.614,1.36546 7.68044,5.39555 9.27845,9.19547 1.8662,4.43769 1.8662,30.48959 0,34.92728 -1.59801,3.79992 -5.66445,7.83001 -9.27845,9.19547 -1.68826,0.63787 -14.92429,0.99714 -36.73584,0.99714 -21.81155,0 -35.04758,-0.35927 -36.73584,-0.99714 -2.92172,-1.1039 -7.37824,-5.01229 -9.01833,-7.90911 -0.58387,-1.03125 -1.28584,-5.88246 -1.55995,-10.78046 l -0.49838,-8.90546 -3.91025,-0.82148 c -2.15063,-0.45181 -5.84204,-0.53179 -8.20312,-0.17772 l -4.29288,0.64376 0,8.31902 c 0,9.31095 -0.84767,12.37101 -4.51277,16.29093 -4.86145,5.19946 -5.5166,5.27835 -43.50399,5.23847 -27.11226,-0.0285 -35.58283,-0.31829 -37.76449,-1.29209 z m 73.62443,-6.65585 c 4.7335,-2.44779 5.59432,-5.47473 5.59432,-19.67163 0,-14.1969 -0.86082,-17.22384 -5.59432,-19.67163 -4.09047,-2.11527 -67.22089,-2.11527 -71.31136,0 -4.7335,2.44779 -5.59432,5.47473 -5.59432,19.67163 0,14.0568 0.85368,17.15808 5.40241,19.6262 3.85826,2.09347 67.46466,2.13389 71.50327,0.0455 z m -36.60319,-22.16963 c -2.57222,-2.57222 -2.92404,-3.50386 -2.64553,-7.00561 l 0.32122,-4.03885 -3.75471,0.566 c -2.0651,0.31129 -5.44222,1.17087 -7.50472,1.91016 -5.18487,1.85848 -6.5625,1.91832 -6.5625,0.28505 0,-0.78125 2.5,-2.65625 5.625,-4.21875 5.625,-2.8125 5.625,-2.8125 22.5,-2.8125 16.875,0 16.875,0 22.5,2.8125 3.125,1.5625 5.625,3.4375 5.625,4.21875 0,1.64181 -1.40954,1.5738 -6.5625,-0.31661 -2.0625,-0.75666 -6.07623,-1.66394 -8.9194,-2.01619 l -5.1694,-0.64046 0.32966,4.14488 c 0.28823,3.62407 -0.0431,4.51766 -2.6371,7.11163 -2.30219,2.30219 -3.77444,2.96675 -6.57251,2.96675 -2.79807,0 -4.27032,-0.66456 -6.57251,-2.96675 z m 148.16569,21.23213 c 4.7335,-2.44779 5.59432,-5.47473 5.59432,-19.67163 0,-14.1969 -0.86082,-17.22384 -5.59432,-19.67163 -2.30268,-1.19077 -8.02691,-1.42212 -35.18693,-1.42212 -35.60397,0 -36.5346,0.13227 -39.35913,5.59432 -2.0231,3.91224 -2.02616,27.08071 -0.004,30.99097 2.80886,5.43174 3.45545,5.52358 39.1754,5.56467 27.38026,0.0315 33.06676,-0.19107 35.37475,-1.38458 z m -45.04069,-21.23213 c -2.57222,-2.57222 -2.92404,-3.50386 -2.64553,-7.00561 l 0.32122,-4.03885 -3.75471,0.566 c -2.0651,0.31129 -5.44222,1.17087 -7.50472,1.91016 -5.18487,1.85848 -6.5625,1.91832 -6.5625,0.28505 0,-0.78125 2.5,-2.65625 5.625,-4.21875 5.625,-2.8125 5.625,-2.8125 22.5,-2.8125 16.875,0 16.875,0 22.5,2.8125 3.125,1.5625 5.625,3.4375 5.625,4.21875 0,1.64181 -1.40954,1.5738 -6.5625,-0.31661 -2.0625,-0.75666 -6.07623,-1.66394 -8.9194,-2.01619 l -5.1694,-0.64046 0.32966,4.14488 c 0.28823,3.62407 -0.0431,4.51766 -2.6371,7.11163 -2.30219,2.30219 -3.77444,2.96675 -6.57251,2.96675 -2.79807,0 -4.27032,-0.66456 -6.57251,-2.96675 z m -155.15428,25.59333 c -7.35765,-3.34251 -11.94438,-11.19028 -10.34415,-17.69855 0.94865,-3.8582 2.95526,-6.52637 7.24541,-9.63414 6.00103,-4.34712 6.38803,-4.01565 6.38803,5.47143 0,7.21394 0.76179,14.0769 2.38655,21.5003 0.56465,2.57989 -0.62493,2.65554 -5.67584,0.36096 z m 211.84024,-0.36096 c 1.62476,-7.4234 2.38655,-14.28636 2.38655,-21.5003 0,-9.48708 0.387,-9.81855 6.38803,-5.47143 4.29015,3.10777 6.29676,5.77594 7.24541,9.63414 1.60023,6.50827 -2.9865,14.35604 -10.34415,17.69855 -5.05091,2.29458 -6.24049,2.21893 -5.67584,-0.36096 z m -220.45593,-69.68281 c 0.25682,-15.94398 0.76937,-30.14922 1.13901,-31.56719 0.59592,-2.28608 0.41571,-2.57812 -1.59099,-2.57812 -2.25496,0 -2.2606,-0.0257 -1.57771,-7.17481 4.1699,-43.655 33.62994,-77.04201 75.51136,-85.5769 8.50428,-1.73306 12.85553,-1.93579 41.54831,-1.93579 28.66853,0 33.04888,0.20372 41.5261,1.93127 18.816,3.83445 32.91079,11.32843 48.4739,25.77282 2.83594,2.63208 6.63281,5.34555 8.4375,6.02992 13.86564,5.25813 25.85754,14.42758 29.9649,22.91223 2.59142,5.35316 3.36858,12.47096 1.9727,18.06729 -1.45925,5.85034 -9.24553,19.16178 -11.56278,19.76776 -1.41794,0.3708 -1.65936,0.98093 -1.15366,2.91569 0.67819,2.59468 1.85208,55.41552 1.23156,55.41552 -0.20044,0 -2.8804,-0.9736 -5.95545,-2.16357 l -5.59102,-2.16356 -0.71168,-7.91457 c -1.23774,-13.76465 -6.37386,-29.80446 -13.11631,-40.96143 l -2.97442,-4.92187 -88.19759,0 -88.19759,0 -3.05417,5.03937 c -6.39498,10.55166 -11.87077,27.62939 -12.85361,40.08745 -0.80868,10.25046 -0.9416,10.594 -4.61261,11.92145 -1.82266,0.65908 -4.62089,2.29808 -6.21831,3.64221 l -2.90438,2.44387 0.46695,-28.98904 z m 145.96748,10.59154 c 0,-3.01183 4.49789,-7.83314 10.06208,-10.78557 13.47961,-7.15246 34.54206,-8.21129 40.14672,-2.01822 1.66282,1.8374 1.62417,1.85737 -2.8699,1.48299 -12.73678,-1.06103 -40.26849,5.58496 -45.72009,11.03657 -1.26719,1.26719 -1.61881,1.32893 -1.61881,0.28423 z m -60.46875,-2.55307 c -9.50149,-6.30515 -36.74963,-12.33194 -46.24218,-10.22794 -3.08767,0.68438 -3.10098,0.67273 -1.40625,-1.2306 2.76694,-3.10751 7.27782,-4.47524 14.75967,-4.47524 8.72042,0 15.29155,1.35438 22.64589,4.66755 6.04362,2.72269 11.97207,7.88117 12.8306,11.16421 0.28489,1.0894 0.45201,1.97796 0.37138,1.97456 -0.0806,-0.004 -1.41223,-0.84604 -2.95911,-1.87254 z"
       id="path7546"
       inkscape:connector-curvature="0" />
    <path
       style="fill:#ae958d"
       d="m -355.27277,599.3673 c -19.29166,-1.92871 -49.4352,-9.74072 -65.84732,-17.06501 -6.02832,-2.69029 -5.68927,-1.29802 -3.35185,-13.76416 5.62879,-30.01995 25.27787,-57.21367 51.92284,-71.85958 3.4575,-1.90048 8.63891,-4.41157 11.51424,-5.58019 l 5.22789,-2.12477 1.91309,3.41054 c 2.57693,4.59398 8.47793,8.92426 15.65878,11.49073 8.16688,2.9189 31.1599,3.75035 40.21959,1.4544 8.22538,-2.08453 15.19487,-5.62099 18.5031,-9.38886 l 2.7636,-3.14756 6.66481,3.6164 c 17.67193,9.58902 32.32975,24.46558 41.98036,42.60684 4.1719,7.84235 9.00052,20.59012 10.17938,26.87398 l 0.60176,3.20764 -13.42826,6.67223 c -39.82537,19.78844 -82.23449,27.82512 -124.52201,23.59737 z m -3.87286,-122.20598 c -27.03277,-9.45685 -50.54219,-29.0565 -65.00949,-54.19801 l -2.57857,-4.48106 4.08984,0.62467 c 4.30609,0.65771 6.43358,1.80713 6.43358,3.47585 0,0.5514 1.75751,3.98021 3.90559,7.61958 12.66842,21.46346 29.8072,36.19138 52.91094,45.46813 10.08839,4.05075 10.24434,4.98781 0.24811,1.49084 z m 84.49786,-4.99269 c 20.64093,-10.30262 36.37913,-25.67388 46.99147,-45.89586 2.48681,-4.73864 3.24641,-5.46401 6.27819,-5.99517 1.897,-0.33235 3.57375,-0.48894 3.72612,-0.34797 0.15236,0.14097 -1.05299,2.52227 -2.67857,5.29178 -11.53314,19.6491 -30.32089,36.79387 -51.28848,46.80334 -9.85306,4.70363 -12.40711,4.82496 -3.02873,0.14388 z m -53.4375,-27.99043 c -15.54967,-2.08201 -27.56474,-8.00194 -31.48995,-15.51539 -2.66517,-5.10155 -0.74783,-6.38637 2.16802,-1.45281 2.29274,3.87929 9.30706,7.69845 18.70519,10.18463 5.74831,1.52065 10.17535,1.94053 20.46049,1.94053 10.28514,0 14.71218,-0.41988 20.46049,-1.94053 9.39813,-2.48618 16.41245,-6.30534 18.70519,-10.18463 2.91585,-4.93356 4.83319,-3.64874 2.16802,1.45281 -3.06493,5.86674 -11.84043,11.28675 -22.33136,13.7925 -6.1288,1.46386 -23.17625,2.48205 -28.84609,1.72289 z m -86.71875,-40.09384 c -3.49379,-1.55949 -7.52912,-5.79211 -8.84661,-9.27914 -0.54842,-1.45153 -0.99714,-9.12329 -0.99714,-17.04834 0,-15.38221 0.55845,-18.15183 4.51277,-22.38109 4.85309,-5.19051 5.54786,-5.27516 43.29973,-5.27516 37.75187,0 38.44664,0.0847 43.29973,5.27516 3.04046,3.25186 4.51277,6.88741 4.51277,11.14335 0,3.13275 0.0352,3.15921 2.87799,2.16818 2.84867,-0.99305 9.18724,-0.67049 12.35638,0.62879 1.40659,0.57667 1.64063,0.11908 1.64063,-3.20779 0,-6.99157 4.39642,-13.60118 10.60791,-15.94805 1.68826,-0.63787 14.92429,-0.99714 36.73584,-0.99714 21.81155,0 35.04758,0.35927 36.73584,0.99714 3.614,1.36546 7.68044,5.39555 9.27845,9.19547 1.8662,4.43769 1.8662,30.48959 0,34.92728 -1.59801,3.79992 -5.66445,7.83001 -9.27845,9.19547 -1.68826,0.63787 -14.92429,0.99714 -36.73584,0.99714 -21.81155,0 -35.04758,-0.35927 -36.73584,-0.99714 -2.92172,-1.1039 -7.37824,-5.01229 -9.01833,-7.90911 -0.58387,-1.03125 -1.28584,-5.88246 -1.55995,-10.78046 l -0.49838,-8.90546 -3.91025,-0.82148 c -2.15063,-0.45181 -5.84204,-0.53179 -8.20312,-0.17772 l -4.29288,0.64376 0,8.31902 c 0,9.31095 -0.84767,12.37101 -4.51277,16.29093 -4.86145,5.19946 -5.5166,5.27835 -43.50399,5.23847 -27.11226,-0.0285 -35.58283,-0.31829 -37.76449,-1.29209 z m 73.62443,-6.65585 c 4.7335,-2.44779 5.59432,-5.47473 5.59432,-19.67163 0,-14.1969 -0.86082,-17.22384 -5.59432,-19.67163 -4.09047,-2.11527 -67.22089,-2.11527 -71.31136,0 -4.7335,2.44779 -5.59432,5.47473 -5.59432,19.67163 0,14.0568 0.85368,17.15808 5.40241,19.6262 3.85826,2.09347 67.46466,2.13389 71.50327,0.0455 z m -36.60319,-22.16963 c -2.57222,-2.57222 -2.92404,-3.50386 -2.64553,-7.00561 l 0.32122,-4.03885 -3.75471,0.566 c -2.0651,0.31129 -5.44222,1.17087 -7.50472,1.91016 -5.18487,1.85848 -6.5625,1.91832 -6.5625,0.28505 0,-0.78125 2.5,-2.65625 5.625,-4.21875 5.625,-2.8125 5.625,-2.8125 22.5,-2.8125 16.875,0 16.875,0 22.5,2.8125 3.125,1.5625 5.625,3.4375 5.625,4.21875 0,1.64181 -1.40954,1.5738 -6.5625,-0.31661 -2.0625,-0.75666 -6.07623,-1.66394 -8.9194,-2.01619 l -5.1694,-0.64046 0.32966,4.14488 c 0.28823,3.62407 -0.0431,4.51766 -2.6371,7.11163 -2.30219,2.30219 -3.77444,2.96675 -6.57251,2.96675 -2.79807,0 -4.27032,-0.66456 -6.57251,-2.96675 z m 148.16569,21.23213 c 4.7335,-2.44779 5.59432,-5.47473 5.59432,-19.67163 0,-14.1969 -0.86082,-17.22384 -5.59432,-19.67163 -2.30268,-1.19077 -8.02691,-1.42212 -35.18693,-1.42212 -35.60397,0 -36.5346,0.13227 -39.35913,5.59432 -2.0231,3.91224 -2.02616,27.08071 -0.004,30.99097 2.80886,5.43174 3.45545,5.52358 39.1754,5.56467 27.38026,0.0315 33.06676,-0.19107 35.37475,-1.38458 z m -45.04069,-21.23213 c -2.57222,-2.57222 -2.92404,-3.50386 -2.64553,-7.00561 l 0.32122,-4.03885 -3.75471,0.566 c -2.0651,0.31129 -5.44222,1.17087 -7.50472,1.91016 -5.18487,1.85848 -6.5625,1.91832 -6.5625,0.28505 0,-0.78125 2.5,-2.65625 5.625,-4.21875 5.625,-2.8125 5.625,-2.8125 22.5,-2.8125 16.875,0 16.875,0 22.5,2.8125 3.125,1.5625 5.625,3.4375 5.625,4.21875 0,1.64181 -1.40954,1.5738 -6.5625,-0.31661 -2.0625,-0.75666 -6.07623,-1.66394 -8.9194,-2.01619 l -5.1694,-0.64046 0.32966,4.14488 c 0.28823,3.62407 -0.0431,4.51766 -2.6371,7.11163 -2.30219,2.30219 -3.77444,2.96675 -6.57251,2.96675 -2.79807,0 -4.27032,-0.66456 -6.57251,-2.96675 z m -163.76997,-44.45044 c 0.25682,-15.94398 0.76937,-30.14922 1.13901,-31.56719 0.59592,-2.28608 0.41571,-2.57812 -1.59099,-2.57812 -2.25496,0 -2.2606,-0.0257 -1.57771,-7.17481 4.1699,-43.655 33.62994,-77.04201 75.51136,-85.5769 8.50428,-1.73306 12.85553,-1.93579 41.54831,-1.93579 28.66853,0 33.04888,0.20372 41.5261,1.93127 18.816,3.83445 32.91079,11.32843 48.4739,25.77282 2.83594,2.63208 6.63281,5.34555 8.4375,6.02992 13.86564,5.25813 25.85754,14.42758 29.9649,22.91223 2.59142,5.35316 3.36858,12.47096 1.9727,18.06729 -1.45925,5.85034 -9.24553,19.16178 -11.56278,19.76776 -1.41794,0.3708 -1.65936,0.98093 -1.15366,2.91569 0.67819,2.59468 1.85208,55.41552 1.23156,55.41552 -0.20044,0 -2.8804,-0.9736 -5.95545,-2.16357 l -5.59102,-2.16356 -0.71168,-7.91457 c -1.23774,-13.76465 -6.37386,-29.80446 -13.11631,-40.96143 l -2.97442,-4.92187 -88.19759,0 -88.19759,0 -3.05417,5.03937 c -6.39498,10.55166 -11.87077,27.62939 -12.85361,40.08745 -0.80868,10.25046 -0.9416,10.594 -4.61261,11.92145 -1.82266,0.65908 -4.62089,2.29808 -6.21831,3.64221 l -2.90438,2.44387 0.46695,-28.98904 z m 145.96748,10.59154 c 0,-3.01183 4.49789,-7.83314 10.06208,-10.78557 13.47961,-7.15246 34.54206,-8.21129 40.14672,-2.01822 1.66282,1.8374 1.62417,1.85737 -2.8699,1.48299 -12.73678,-1.06103 -40.26849,5.58496 -45.72009,11.03657 -1.26719,1.26719 -1.61881,1.32893 -1.61881,0.28423 z m -60.46875,-2.55307 c -9.50149,-6.30515 -36.74963,-12.33194 -46.24218,-10.22794 -3.08767,0.68438 -3.10098,0.67273 -1.40625,-1.2306 2.76694,-3.10751 7.27782,-4.47524 14.75967,-4.47524 8.72042,0 15.29155,1.35438 22.64589,4.66755 6.04362,2.72269 11.97207,7.88117 12.8306,11.16421 0.28489,1.0894 0.45201,1.97796 0.37138,1.97456 -0.0806,-0.004 -1.41223,-0.84604 -2.95911,-1.87254 z"
       id="path7544"
       inkscape:connector-curvature="0" />
    <path
       style="fill:#979797"
       d="m -353.08964,599.45812 c -22.19516,-2.15989 -40.92482,-6.68164 -63.00978,-15.21194 l -9.73291,-3.75933 0.58757,-6.32197 c 1.86319,-20.04718 13.74787,-44.09013 29.65949,-60.00175 9.72492,-9.72492 25.45142,-19.98603 36.73008,-23.96538 3.08763,-1.08937 3.58242,-1.07584 3.58242,0.098 0,2.22456 6.12337,8.33036 11.0356,11.00393 7.57495,4.12281 14.2386,5.36343 28.80815,5.36343 18.34324,0 26.80333,-2.40892 35.24526,-10.03569 l 3.75451,-3.39198 3.46887,1.64173 c 7.2551,3.43366 19.56599,12.41432 26.43761,19.28594 8.00168,8.00168 16.06005,19.5212 21.00239,30.02314 3.54326,7.52903 8.36881,23.09391 7.56367,24.39667 -0.26972,0.43641 -3.32696,2.30641 -6.79385,4.15557 -24.1714,12.89239 -49.59983,21.34148 -76.14721,25.30139 -11.98022,1.78701 -40.45185,2.56068 -52.19187,1.41822 z m -9.21438,-123.62837 c -9.35625,-3.70508 -17.55779,-7.92289 -25.22198,-12.97093 -8.5866,-5.65558 -25.23463,-22.31732 -30.70168,-30.72694 -5.68809,-8.74966 -7.81519,-12.52259 -7.30831,-12.9631 0.23071,-0.20051 2.01981,-0.16519 3.97577,0.0785 3.23602,0.40311 3.79782,0.92144 6.23788,5.75519 11.27833,22.34223 31.63052,41.05019 54.84201,50.41136 4.15322,1.67499 6.9185,3.03852 6.14506,3.03006 -0.77344,-0.008 -4.35937,-1.1848 -7.96875,-2.61411 z m 88.59375,-4.00898 c 10.71664,-5.47463 17.71878,-10.59196 26.92132,-19.67475 7.67679,-7.5769 16.0089,-18.89975 20.012,-27.19519 1.88104,-3.89797 2.48615,-4.4046 5.61739,-4.70322 l 3.50927,-0.33465 -2.20769,4.35665 c -5.96501,11.77138 -22.96905,30.11035 -35.87203,38.68825 -6.64096,4.4149 -19.41126,11.04584 -23.60526,12.25696 -1.28906,0.37225 1.24219,-1.15507 5.625,-3.39405 z m -56.10349,-27.98037 c -12.85226,-1.79989 -24.59886,-7.46287 -28.94968,-13.95653 -2.1844,-3.26025 -2.82921,-6.12342 -1.25316,-5.56449 0.48465,0.17187 1.86735,1.78135 3.07267,3.57661 4.9004,7.29887 19.07887,11.5187 38.70241,11.5187 19.62354,0 33.80201,-4.21983 38.70241,-11.5187 2.67445,-3.98346 4.41646,-4.84904 3.49057,-1.7344 -1.94896,6.55612 -11.62089,13.29755 -23.31951,16.25392 -6.9989,1.76869 -22.73269,2.50505 -30.44571,1.42489 z m -82.17776,-39.29794 c -4.37679,-1.05625 -6.73647,-2.61796 -9.57127,-6.33457 l -2.61623,-3.43006 0,-17.02095 0,-17.02095 2.70367,-3.5447 c 5.28337,-6.92685 6.05954,-7.04943 44.64008,-7.04943 31.41923,0 34.53445,0.14338 38.07758,1.75238 5.32536,2.41834 8.97069,7.45772 9.51846,13.15855 l 0.43822,4.56056 2.76711,-0.96463 c 2.71312,-0.94579 9.11855,-0.61763 12.12493,0.62118 1.26725,0.52219 1.59099,-0.22893 1.94652,-4.5163 0.52358,-6.31363 3.9399,-11.2494 9.5496,-13.79686 3.54,-1.60758 6.64741,-1.75238 37.60883,-1.75238 30.85253,0 34.07827,0.1491 37.57369,1.73664 8.26096,3.75194 10.06779,9.05041 9.60291,28.16011 -0.37364,15.35948 -1.13977,17.78991 -7.023,22.27925 l -3.44212,2.62658 -35.6995,0.27101 c -40.12636,0.30461 -39.19811,0.44437 -45.051,-6.78275 -2.63511,-3.25385 -2.85913,-4.13081 -3.16284,-12.38156 -0.31071,-8.44091 -0.44112,-8.92312 -2.63916,-9.75882 -2.57599,-0.97939 -9.07379,-1.14464 -12.18554,-0.30989 -1.88329,0.5052 -2.04899,1.22738 -2.34375,10.21552 -0.29995,9.14603 -0.47138,9.86223 -3.15317,13.173 -5.73328,7.0779 -5.19235,6.99148 -43.08689,6.88378 -18.57055,-0.0528 -35.03025,-0.4014 -36.57713,-0.77471 z m 72.87583,-8.42743 3.06167,-2.73559 0,-15.52435 0,-15.52435 -2.59943,-2.59943 -2.59943,-2.59943 -35.58239,0 -35.58239,0 -2.59943,2.59943 -2.59943,2.59943 0,15.52435 0,15.52435 3.06167,2.73559 3.06166,2.7356 34.65792,0 34.65792,0 3.06166,-2.7356 z m -36.88703,-19.29531 c -3.04493,-1.6549 -4.99294,-6.1515 -4.25765,-9.82797 l 0.55702,-2.78513 -4.42533,0.57516 c -2.43394,0.31633 -6.42937,1.32075 -8.87874,2.23203 -4.50233,1.6751 -6.52618,1.05377 -4.50404,-1.38275 0.57625,-0.69433 3.24928,-2.25789 5.94009,-3.47456 4.55894,-2.06137 6.04236,-2.21212 21.76735,-2.21212 15.72499,0 17.20841,0.15075 21.76735,2.21212 2.69081,1.21667 5.36384,2.78023 5.94009,3.47456 2.02618,2.44139 -0.007,3.05602 -4.50404,1.36147 -2.44937,-0.92299 -7.0878,-1.97835 -10.30763,-2.34524 l -5.85423,-0.66707 0.57967,2.89834 c 1.59245,7.96224 -6.60772,13.86091 -13.81991,9.94116 z m 148.44953,18.35781 3.06167,-2.73559 0,-15.52435 0,-15.52435 -2.59943,-2.59943 -2.59943,-2.59943 -35.11364,0 -35.11364,0 -2.59943,2.59943 -2.59943,2.59943 0,15.52435 0,15.52435 3.06167,2.73559 3.06166,2.7356 34.18917,0 34.18917,0 3.06166,-2.7356 z m -45.32453,-18.35781 c -3.04493,-1.6549 -4.99294,-6.1515 -4.25765,-9.82797 l 0.55703,-2.78513 -4.42534,0.57516 c -2.43394,0.31633 -6.42937,1.32075 -8.87874,2.23203 -4.50233,1.6751 -6.52618,1.05377 -4.50404,-1.38275 0.57625,-0.69433 3.24928,-2.25789 5.94009,-3.47456 4.55894,-2.06137 6.04236,-2.21212 21.76735,-2.21212 15.72499,0 17.20841,0.15075 21.76735,2.21212 2.69081,1.21667 5.36384,2.78023 5.94009,3.47456 2.02618,2.44139 -0.007,3.05602 -4.50404,1.36147 -2.44937,-0.92299 -7.0878,-1.97835 -10.30763,-2.34524 l -5.85423,-0.66707 0.57967,2.89834 c 1.59245,7.96224 -6.60772,13.86091 -13.81991,9.94116 z m -165.55002,-46.01128 c 0.25681,-15.94398 0.76936,-30.14922 1.139,-31.56719 0.59662,-2.28872 0.41675,-2.57812 -1.60242,-2.57812 l -2.27447,0 0.74829,-7.26563 c 2.931,-28.45937 15.62192,-51.96833 36.57916,-67.76009 13.27011,-9.99932 27.15292,-15.92834 42.8296,-18.29147 12.54959,-1.89176 62.67203,-1.89176 75.22162,0 19.46716,2.93452 36.93878,11.71814 52.38919,26.33794 3.31764,3.13929 7.2552,5.71996 11.04262,7.23733 19.35939,7.75601 31.0811,21.54009 29.97272,35.24624 -0.50277,6.21727 -8.56037,22.56195 -11.84481,24.02693 -1.66406,0.74224 -1.9738,1.42566 -1.48709,3.28125 0.33811,1.28906 0.83068,14.32372 1.0946,28.96592 0.46241,25.65369 0.41663,26.5965 -1.25847,25.91645 -0.95607,-0.38813 -3.51032,-1.3264 -5.67608,-2.08503 -3.71863,-1.30257 -3.96887,-1.62313 -4.49659,-5.76021 -2.29193,-17.96757 -5.94742,-30.5574 -12.22489,-42.10356 l -3.95656,-7.27732 -88.8078,0 -88.80779,0 -3.68888,6.70961 c -6.3992,11.63935 -10.95095,27.1604 -12.48588,42.57567 -0.59436,5.96912 -0.71346,6.19646 -3.83832,7.32642 -1.77371,0.64139 -4.53191,2.2659 -6.12932,3.61003 l -2.90438,2.44387 0.46695,-28.98904 z m 145.96747,9.98373 c 0,-2.11887 6.96476,-8.56294 11.8247,-10.94069 10.36788,-5.07254 27.22697,-6.65901 34.70027,-3.26538 5.84324,2.65343 5.88867,3.77512 0.13004,3.21076 -10.43067,-1.02222 -36.89515,5.04431 -43.96443,10.07808 -1.47982,1.05372 -2.69058,1.46648 -2.69058,0.91723 z m -62.34375,-3.2369 c -8.5243,-4.89567 -25.71152,-9.08845 -38.23871,-9.3282 -7.97539,-0.15265 -8.17482,-0.20974 -6.23938,-1.78608 7.01791,-5.71584 28.55865,-3.81014 40.33706,3.56861 3.46782,2.17246 8.35978,7.38813 8.35978,8.91296 0,1.10223 0.18626,1.1626 -4.21875,-1.36729 z"
       id="path7542"
       inkscape:connector-curvature="0" />
    <path
       style="fill:#9b8679"
       d="m -347.77277,599.79862 c -27.27645,-2.6139 -45.06016,-6.63032 -66.91474,-15.11256 l -11.13349,-4.32115 0.5819,-6.261 c 1.85738,-19.98454 13.76296,-44.04991 29.65383,-59.94078 9.72492,-9.72492 25.45142,-19.98603 36.73008,-23.96538 3.08763,-1.08937 3.58242,-1.07584 3.58242,0.098 0,2.22456 6.12337,8.33036 11.0356,11.00393 7.57495,4.12281 14.2386,5.36343 28.80815,5.36343 18.34324,0 26.80333,-2.40892 35.24526,-10.03569 l 3.75451,-3.39198 3.46887,1.64173 c 7.2551,3.43366 19.56599,12.41432 26.43761,19.28594 12.28605,12.28605 21.89312,28.63252 26.71547,45.45649 2.30384,8.03751 2.33792,8.48471 0.74038,9.71773 -3.11586,2.40489 -27.86604,14.04251 -37.07381,17.43222 -27.42989,10.09794 -65.59325,15.52434 -91.63204,13.02905 z m -14.53125,-123.96887 c -9.35625,-3.70508 -17.55779,-7.92289 -25.22198,-12.97093 -8.5866,-5.65558 -25.23463,-22.31732 -30.70168,-30.72694 -5.68809,-8.74966 -7.81519,-12.52259 -7.30831,-12.9631 0.23071,-0.20051 2.01981,-0.16519 3.97577,0.0785 3.23602,0.40311 3.79782,0.92144 6.23788,5.75519 11.27833,22.34223 31.63052,41.05019 54.84201,50.41136 4.15322,1.67499 6.9185,3.03852 6.14506,3.03006 -0.77344,-0.008 -4.35937,-1.1848 -7.96875,-2.61411 z m 88.59375,-4.00898 c 10.71664,-5.47463 17.71878,-10.59196 26.92132,-19.67475 7.67679,-7.5769 16.0089,-18.89975 20.012,-27.19519 1.88104,-3.89797 2.48615,-4.4046 5.61739,-4.70322 l 3.50927,-0.33465 -2.20769,4.35665 c -5.96501,11.77138 -22.96905,30.11035 -35.87203,38.68825 -6.64096,4.4149 -19.41126,11.04584 -23.60526,12.25696 -1.28906,0.37225 1.24219,-1.15507 5.625,-3.39405 z m -56.10349,-27.98037 c -12.85226,-1.79989 -24.59886,-7.46287 -28.94968,-13.95653 -2.1844,-3.26025 -2.82921,-6.12342 -1.25316,-5.56449 0.48465,0.17187 1.86735,1.78135 3.07267,3.57661 4.9004,7.29887 19.07887,11.5187 38.70241,11.5187 19.62354,0 33.80201,-4.21983 38.70241,-11.5187 2.67445,-3.98346 4.41646,-4.84904 3.49057,-1.7344 -1.94896,6.55612 -11.62089,13.29755 -23.31951,16.25392 -6.9989,1.76869 -22.73269,2.50505 -30.44571,1.42489 z m -82.53139,-39.36672 c -4.57239,-1.07953 -7.78725,-3.74608 -10.19325,-8.4547 -1.91445,-3.74668 -2.10747,-5.43088 -2.08878,-18.22637 0.0268,-18.35883 1.71478,-22.56654 10.53048,-26.24997 2.88929,-1.20722 8.95615,-1.44201 37.26143,-1.44201 35.64809,0 37.70991,0.21767 42.51997,4.48888 2.50967,2.22852 5.24729,8.51336 5.27194,12.10298 0.0202,2.93733 0.0789,2.97777 2.89858,1.99483 2.84867,-0.99305 9.18724,-0.67049 12.35638,0.62879 1.38517,0.56789 1.64063,0.1414 1.64063,-2.73904 0,-3.82032 2.06198,-9.38834 4.48888,-12.12141 0.88268,-0.99404 3.29237,-2.58224 5.35487,-3.52935 3.41827,-1.56967 6.73557,-1.72201 37.5,-1.72201 30.85252,0 34.07827,0.1491 37.57369,1.73664 8.25287,3.74826 10.06182,9.04449 9.61821,28.16011 -0.34409,14.82754 -1.26755,17.936 -6.4832,21.82319 -4.17451,3.11123 -8.92065,3.50661 -42.11495,3.50843 -29.40211,0.002 -32.68481,-0.15483 -36.09375,-1.72022 -7.10711,-3.2636 -9.84375,-8.63572 -9.84375,-19.32366 0,-6.74219 -0.11621,-7.12875 -2.40478,-7.99886 -2.68263,-1.01994 -9.1321,-1.18868 -12.36085,-0.3234 -1.9788,0.53029 -2.11065,1.06629 -2.12996,8.65907 -0.03,11.77981 -2.74028,16.99057 -10.53049,20.24552 -2.90063,1.21197 -8.72795,1.4267 -36.52818,1.34605 -18.19235,-0.0528 -34.50175,-0.43235 -36.24312,-0.84349 z m 73.57238,-8.81055 3.1875,-3.1875 0,-14.71875 0,-14.71875 -3.1875,-3.1875 -3.1875,-3.1875 -34.875,0 -34.875,0 -3.1875,3.1875 -3.1875,3.1875 0,14.71875 0,14.71875 3.1875,3.1875 3.1875,3.1875 34.875,0 34.875,0 3.1875,-3.1875 z m -37.22995,-18.84341 c -3.04493,-1.6549 -4.99294,-6.1515 -4.25765,-9.82797 l 0.55702,-2.78513 -4.42533,0.57516 c -2.43394,0.31633 -6.42937,1.32075 -8.87874,2.23203 -4.50233,1.6751 -6.52618,1.05377 -4.50404,-1.38275 0.57625,-0.69433 3.24928,-2.25789 5.94009,-3.47456 4.55894,-2.06137 6.04236,-2.21212 21.76735,-2.21212 15.72499,0 17.20841,0.15075 21.76735,2.21212 2.69081,1.21667 5.36384,2.78023 5.94009,3.47456 2.02618,2.44139 -0.007,3.05602 -4.50404,1.36147 -2.44937,-0.92299 -7.0878,-1.97835 -10.30763,-2.34524 l -5.85423,-0.66707 0.57967,2.89834 c 1.59245,7.96224 -6.60772,13.86091 -13.81991,9.94116 z m 148.79245,17.90591 3.1875,-3.1875 0,-14.71875 0,-14.71875 -3.1875,-3.1875 -3.1875,-3.1875 -34.40625,0 -34.40625,0 -3.1875,3.1875 -3.1875,3.1875 0,14.71875 0,14.71875 3.1875,3.1875 3.1875,3.1875 34.40625,0 34.40625,0 3.1875,-3.1875 z m -45.66745,-17.90591 c -3.04493,-1.6549 -4.99294,-6.1515 -4.25765,-9.82797 l 0.55703,-2.78513 -4.42534,0.57516 c -2.43394,0.31633 -6.42937,1.32075 -8.87874,2.23203 -4.50233,1.6751 -6.52618,1.05377 -4.50404,-1.38275 0.57625,-0.69433 3.24928,-2.25789 5.94009,-3.47456 4.55894,-2.06137 6.04236,-2.21212 21.76735,-2.21212 15.72499,0 17.20841,0.15075 21.76735,2.21212 2.69081,1.21667 5.36384,2.78023 5.94009,3.47456 2.02618,2.44139 -0.007,3.05602 -4.50404,1.36147 -2.44937,-0.92299 -7.0878,-1.97835 -10.30763,-2.34524 l -5.85423,-0.66707 0.57967,2.89834 c 1.59245,7.96224 -6.60772,13.86091 -13.81991,9.94116 z m -165.55002,-46.01128 c 0.25681,-15.94398 0.76936,-30.14922 1.139,-31.56719 l 0.67205,-2.57812 13.48927,0 13.48928,0 -4.13056,7.73437 c -6.59437,12.3478 -10.70199,26.43307 -12.25397,42.01966 -0.59436,5.96912 -0.71346,6.19646 -3.83832,7.32642 -1.77371,0.64139 -4.5319,2.2659 -6.12932,3.61003 l -2.90438,2.44387 0.46695,-28.98904 z m 227.80645,21.89759 c -4.74411,-1.82045 -4.89533,-1.99347 -5.43911,-6.22332 -2.38592,-18.55904 -5.63877,-29.72087 -12.26471,-42.08521 l -4.14479,-7.73437 13.02053,0 13.02052,0 0.66463,2.57812 c 0.98634,3.82604 1.75333,55.56422 0.8219,55.44208 -0.43956,-0.0577 -2.9951,-0.94743 -5.67897,-1.9773 z m -81.17708,-12.90276 c 1.06013,-4.05393 11.50556,-11.31412 18.36235,-12.76293 13.67046,-2.88849 21.84287,-3.02348 27.50072,-0.45424 2.12779,0.96624 4.09018,2.11712 4.36086,2.55753 0.27068,0.44041 -3.57962,0.83837 -8.55621,0.88435 -13.1001,0.12103 -32.79269,5.02589 -39.66416,9.8792 -2.45393,1.73322 -2.48358,1.73168 -2.00356,-0.10391 z m -63.00565,-2.24822 c -8.81654,-5.06405 -25.98911,-9.28799 -38.24109,-9.40617 -7.95189,-0.0767 -8.17134,-0.13626 -6.25311,-1.69677 8.85326,-7.20231 36.09685,-2.49809 45.44276,7.84671 1.79861,1.99084 3.27019,4.04038 3.27019,4.55451 0,1.18061 0.20899,1.24492 -4.21875,-1.29828 z m -85.35561,-49.79817 c 2.98037,-32.36968 22.43704,-61.11291 51.03416,-75.39247 17.83516,-8.90573 27.15811,-10.37773 65.7277,-10.37773 30.70674,0 41.5603,0.98343 52.61081,4.767 13.42166,4.59543 26.46924,12.5973 37.38919,22.9302 3.31764,3.13929 7.2552,5.71996 11.04262,7.23733 18.39654,7.37026 30.35827,20.76859 30.14148,33.76146 -0.10465,6.27255 -1.35066,7.80923 -1.43275,1.76699 -0.39663,-29.19253 -56.37318,-46.29746 -124.68482,-38.10035 -30.24393,3.62916 -58.22121,11.4668 -80.11298,22.44309 -18.61153,9.33162 -29.62192,18.24022 -37.6905,30.49573 l -4.62913,7.03125 0.60422,-6.5625 z"
       id="path7540"
       inkscape:connector-curvature="0" />
    <path
       style="fill:#937682"
       d="m -348.24152,599.84816 c -26.59616,-2.74578 -44.80976,-6.90787 -66.32813,-15.15698 -12.6741,-4.85865 -12.17852,-3.98082 -9.53846,-16.8957 5.58019,-27.29758 21.28743,-50.99819 43.85151,-66.1674 11.34235,-7.62515 24.98383,-13.63499 24.98383,-11.00678 0,2.01606 6.97278,8.71815 11.40913,10.96622 7.75377,3.92913 14.17659,5.07561 28.43462,5.07561 18.37223,0 27.56893,-2.63124 35.37919,-10.12224 l 3.50418,-3.36094 3.52707,1.67003 c 7.31192,3.46214 19.0171,12.14452 26.39598,19.57933 12.23314,12.3259 19.89594,24.64214 25.20725,40.51507 4.86377,14.53542 5.57472,13.01048 -9.63867,20.67412 -31.5971,15.91678 -61.9744,23.51337 -97.03125,24.26504 -9.02344,0.19347 -18.09375,0.17755 -20.15625,-0.0353 z m -8.90625,-122.24753 c -1.71372,-1.10749 -0.23352,-1.10749 2.34375,0 1.23632,0.53126 1.39599,0.82327 0.46875,0.85725 -0.77344,0.0283 -2.03906,-0.35741 -2.8125,-0.85725 z m -16.56416,-6.95896 c -16.31894,-8.17018 -29.65753,-19.13524 -40.57332,-33.35354 -4.77185,-6.21555 -11.30002,-16.61253 -11.30002,-17.99679 0,-0.53069 7.38283,0.63352 7.84497,1.23707 0.14886,0.19441 1.86417,3.3066 3.81182,6.91597 10.47942,19.42043 24.38182,33.12123 44.64959,44.00212 11.04051,5.92716 7.85994,5.34973 -4.43304,-0.80483 z m 101.87666,0.29264 c 19.83954,-10.79961 36.09404,-27.40301 45.09997,-46.06806 1.91994,-3.9791 2.47804,-4.45312 5.2431,-4.45312 1.70193,0 3.09443,0.27934 3.09443,0.62076 0,1.32527 -5.2505,9.54533 -10.38227,16.25424 -10.51521,13.74682 -23.73844,24.77061 -39.30274,32.76545 -11.03214,5.66682 -13.69143,6.29098 -3.75249,0.88073 z m -57.1875,-27.0828 c -16.19133,-2.10958 -28.99528,-9.27954 -31.39217,-17.57901 -0.87523,-3.03058 0.61059,-2.53329 2.79842,0.9366 2.62583,4.16458 9.02746,7.82558 17.8125,10.18674 6.10103,1.63977 10.12305,2.01576 21.5625,2.01576 11.43945,0 15.46147,-0.37599 21.5625,-2.01576 8.78504,-2.36116 15.18667,-6.02216 17.8125,-10.18674 2.20651,-3.49951 3.31181,-3.89835 2.59567,-0.9366 -0.85666,3.543 -4.7754,8.02798 -9.36401,10.71707 -9.73108,5.7028 -28.95253,8.74273 -43.38791,6.86194 z m -83.32238,-39.37783 c -4.57239,-1.07953 -7.78725,-3.74608 -10.19325,-8.4547 -1.91445,-3.74668 -2.10747,-5.43088 -2.08878,-18.22637 0.0268,-18.35883 1.71478,-22.56654 10.53048,-26.24997 2.88929,-1.20722 8.95615,-1.44201 37.26143,-1.44201 35.64809,0 37.70991,0.21767 42.51997,4.48888 2.50967,2.22852 5.24729,8.51336 5.27194,12.10298 0.0202,2.93915 0.0774,2.97832 2.90664,1.99202 2.75735,-0.96121 8.99114,-0.61362 12.39071,0.69092 1.32555,0.50866 1.59824,0.0312 1.59824,-2.79836 0,-3.82032 2.06198,-9.38834 4.48888,-12.12141 0.88268,-0.99404 3.29237,-2.58224 5.35487,-3.52935 3.41827,-1.56967 6.73557,-1.72201 37.5,-1.72201 30.85253,0 34.07827,0.1491 37.57369,1.73664 8.25287,3.74826 10.06182,9.04449 9.61821,28.16011 -0.34409,14.82754 -1.26755,17.936 -6.4832,21.82319 -4.17451,3.11123 -8.92065,3.50661 -42.11495,3.50843 -29.40211,0.002 -32.68481,-0.15483 -36.09375,-1.72022 -7.10711,-3.2636 -9.84375,-8.63572 -9.84375,-19.32366 0,-6.74219 -0.11621,-7.12875 -2.40478,-7.99886 -2.68263,-1.01994 -9.1321,-1.18868 -12.36085,-0.3234 -1.9788,0.53029 -2.11064,1.06629 -2.12996,8.65907 -0.03,11.77981 -2.74028,16.99057 -10.53049,20.24552 -2.90063,1.21197 -8.72795,1.4267 -36.52818,1.34605 -18.19235,-0.0528 -34.50175,-0.43235 -36.24312,-0.84349 z m 73.57238,-8.81055 3.1875,-3.1875 0,-14.71875 0,-14.71875 -3.1875,-3.1875 -3.1875,-3.1875 -34.875,0 -34.875,0 -3.1875,3.1875 -3.1875,3.1875 0,14.71875 0,14.71875 3.1875,3.1875 3.1875,3.1875 34.875,0 34.875,0 3.1875,-3.1875 z m -35.71875,-18.28829 c -3.72766,-1.59624 -5.62983,-4.75106 -5.53309,-9.17687 l 0.0919,-4.20501 -4.31066,0.64298 c -2.37086,0.35363 -5.99816,1.24683 -8.06066,1.98487 -5.25041,1.87881 -5.34329,1.8894 -5.79652,0.66056 -0.58651,-1.59019 6.84333,-5.5728 12.63954,-6.77517 2.73244,-0.56682 9.77808,-1.03057 15.65701,-1.03057 5.87893,0 12.92457,0.46375 15.65698,1.03057 5.79621,1.20237 13.22605,5.18498 12.63954,6.77517 -0.45674,1.23837 -0.50734,1.23198 -6.11001,-0.77234 -2.23492,-0.79953 -6.49539,-1.70787 -9.46771,-2.01853 l -5.40421,-0.56486 0.0927,4.31575 c 0.0737,3.42837 -0.38919,4.79744 -2.25104,6.65853 -2.60369,2.60263 -6.97749,3.70229 -9.84375,2.47492 z m 147.28125,17.35079 3.1875,-3.1875 0,-14.71875 0,-14.71875 -3.1875,-3.1875 -3.1875,-3.1875 -34.40625,0 -34.40625,0 -3.1875,3.1875 -3.1875,3.1875 0,14.71875 0,14.71875 3.1875,3.1875 3.1875,3.1875 34.40625,0 34.40625,0 3.1875,-3.1875 z m -44.15625,-17.35079 c -3.72766,-1.59624 -5.62983,-4.75106 -5.53309,-9.17687 l 0.0919,-4.20501 -4.31066,0.64298 c -2.37086,0.35363 -5.99816,1.24683 -8.06066,1.98487 -5.25041,1.87881 -5.34329,1.8894 -5.79652,0.66056 -0.58651,-1.59019 6.84333,-5.5728 12.63954,-6.77517 2.73244,-0.56682 9.77808,-1.03057 15.65701,-1.03057 5.87893,0 12.92457,0.46375 15.65698,1.03057 5.79621,1.20237 13.22605,5.18498 12.63954,6.77517 -0.45674,1.23837 -0.50734,1.23198 -6.11001,-0.77234 -2.23492,-0.79953 -6.49539,-1.70787 -9.46771,-2.01853 l -5.40421,-0.56486 0.0927,4.31575 c 0.0737,3.42837 -0.38919,4.79744 -2.25104,6.65853 -2.60369,2.60263 -6.97749,3.70229 -9.84375,2.47492 z m -167.34375,-42.0725 c 0,-13.47506 0.47316,-27.68142 1.05146,-31.56966 l 1.05146,-7.06955 13.40883,0 13.40883,0 -4.53113,8.67187 c -6.63943,12.70681 -10.03473,24.48171 -11.76789,40.81092 -0.61081,5.75489 -0.71363,5.93348 -4.51393,7.84017 -2.13889,1.07313 -4.8381,2.82081 -5.99826,3.88376 l -2.10937,1.93262 0,-24.50013 z m 228.09118,17.26175 -4.87757,-1.99471 -0.58291,-5.15625 c -1.81437,-16.04958 -5.18948,-27.60338 -11.70765,-40.07813 l -4.53113,-8.67187 12.94008,0 12.94008,0 1.05146,7.06955 c 1.16528,7.83484 1.46129,51.12228 0.34833,50.94078 -0.38671,-0.0631 -2.89802,-1.01228 -5.58069,-2.10937 z m -81.22822,-12.48257 c 0.92773,-2.63063 5.09329,-6.79462 9.24944,-9.24593 5.02985,-2.96665 18.18547,-6.03277 25.91925,-6.04089 5.89175,-0.007 13.83965,2.29091 15.11649,4.36897 0.26383,0.42939 -3.80298,0.82813 -9.03735,0.88608 -13.39051,0.14825 -32.21962,4.87594 -39.19149,9.84035 -2.43727,1.73548 -2.60643,1.75123 -2.05634,0.19142 z m -61.42614,-1.81183 c -6.82742,-4.78211 -26.74062,-9.88511 -39.30058,-10.07126 -8.41887,-0.12478 -8.64124,-0.18303 -6.70813,-1.75744 9.42346,-7.67488 38.81912,-1.55634 47.16038,9.81617 2.26749,3.0915 1.72993,4.03087 -1.15167,2.01253 z m -86.78832,-50.51281 c 2.44441,-25.08852 15.41013,-49.45754 34.3969,-64.64884 9.64394,-7.7161 23.74317,-14.8284 35.86085,-18.08988 l 9.375,-2.52327 37.03125,0 37.03125,0 9.36702,2.5563 c 16.21708,4.42571 30.1535,12.17016 41.72673,23.18749 4.31126,4.10418 8.00528,6.60547 12.62865,8.5511 3.5942,1.51252 8.44576,3.86622 10.78125,5.23043 6.7448,3.93979 14.5989,11.99561 16.89182,17.32565 2.31949,5.39178 3.3796,13.32993 2.19387,16.42763 -0.59213,1.54693 -0.81471,0.69063 -0.86954,-3.34536 -0.39631,-29.17002 -56.39778,-46.27295 -124.68452,-38.07882 -30.24393,3.62916 -58.22121,11.4668 -80.11298,22.44309 -18.63995,9.34587 -29.66954,18.27744 -37.65916,30.49573 l -4.59778,7.03125 0.63939,-6.5625 z"
       id="path7538"
       inkscape:connector-curvature="0" />
    <path
       style="fill:#877772"
       d="m -348.24152,599.84816 c -26.59616,-2.74578 -44.80976,-6.90787 -66.32813,-15.15698 -12.6741,-4.85865 -12.17852,-3.98082 -9.53846,-16.8957 5.58019,-27.29758 21.28743,-50.99819 43.85151,-66.1674 11.34235,-7.62515 24.98383,-13.63499 24.98383,-11.00678 0,2.01606 6.97278,8.71815 11.40913,10.96622 7.75377,3.92913 14.17659,5.07561 28.43462,5.07561 18.37223,0 27.56893,-2.63124 35.37919,-10.12224 l 3.50418,-3.36094 3.52707,1.67003 c 7.31192,3.46214 19.0171,12.14452 26.39598,19.57933 12.23314,12.3259 19.89594,24.64214 25.20725,40.51507 4.86377,14.53542 5.57472,13.01048 -9.63867,20.67412 -31.5971,15.91678 -61.9744,23.51337 -97.03125,24.26504 -9.02344,0.19347 -18.09375,0.17755 -20.15625,-0.0353 z m -8.90625,-122.24753 c -1.71372,-1.10749 -0.23352,-1.10749 2.34375,0 1.23632,0.53126 1.39599,0.82327 0.46875,0.85725 -0.77344,0.0283 -2.03906,-0.35741 -2.8125,-0.85725 z m -16.56416,-6.95896 c -16.31894,-8.17018 -29.65753,-19.13524 -40.57332,-33.35354 -4.77185,-6.21555 -11.30002,-16.61253 -11.30002,-17.99679 0,-0.53069 7.38283,0.63352 7.84497,1.23707 0.14886,0.19441 1.86417,3.3066 3.81182,6.91597 10.47942,19.42043 24.38182,33.12123 44.64959,44.00212 11.04051,5.92716 7.85994,5.34973 -4.43304,-0.80483 z m 101.87666,0.29264 c 19.83954,-10.79961 36.09404,-27.40301 45.09997,-46.06806 1.91994,-3.9791 2.47804,-4.45312 5.2431,-4.45312 1.70193,0 3.09443,0.27934 3.09443,0.62076 0,1.32527 -5.2505,9.54533 -10.38227,16.25424 -10.51521,13.74682 -23.73844,24.77061 -39.30274,32.76545 -11.03214,5.66682 -13.69143,6.29098 -3.75249,0.88073 z m -57.1875,-27.0828 c -16.19133,-2.10958 -28.99528,-9.27954 -31.39217,-17.57901 -0.87549,-3.03151 0.61105,-2.5329 2.79842,0.93864 4.00261,6.35248 13.91623,10.35673 30.15789,12.18119 21.14558,2.37533 45.14629,-3.91952 49.24534,-12.91596 1.31813,-2.89297 2.62584,-3.03022 1.94244,-0.20387 -0.85666,3.543 -4.7754,8.02798 -9.36401,10.71707 -9.73108,5.7028 -28.95253,8.74273 -43.38791,6.86194 z m -51.4044,-40.80952 c -0.5942,-1.30413 -2.03301,-2.75395 -3.19735,-3.22183 -1.36291,-0.54766 5.68057,-0.87185 19.77363,-0.9101 l 21.89062,-0.0594 3.1875,-3.1875 3.1875,-3.1875 0,-14.71875 0,-14.71875 -3.1875,-3.1875 -3.1875,-3.1875 -34.875,0 -34.875,0 -3.1875,3.1875 -3.1875,3.1875 0.0332,14.39063 c 0.0369,16.0088 0.54507,17.84338 5.70331,20.59185 1.88878,1.0064 2.52819,1.70481 1.58224,1.72822 -0.8731,0.0217 -2.23891,0.96937 -3.03512,2.10612 l -1.44765,2.06682 -2.58988,-1.88732 c -1.42443,-1.03804 -3.5391,-3.745 -4.69925,-6.01547 -1.91164,-3.74125 -2.10934,-5.45281 -2.10934,-18.2621 0,-12.80929 0.1977,-14.52085 2.10937,-18.2621 2.48465,-4.86255 5.55996,-7.32308 10.61943,-8.49652 4.78964,-1.11085 65.37776,-1.11085 70.1674,0 2.02259,0.46909 4.76477,1.64389 6.09375,2.61065 3.17313,2.3083 6.63505,9.19394 6.63505,13.19692 0,2.37379 0.34056,3.05222 1.33968,2.66882 3.802,-1.45897 7.96129,-1.57779 11.58058,-0.33085 l 3.95474,1.36252 0,-3.91045 c 0,-4.65637 3.23915,-11.45411 6.63505,-13.92446 4.19808,-3.05389 9.01295,-3.46355 40.7087,-3.46355 31.80561,0 36.55222,0.40888 40.7087,3.50666 5.21565,3.88719 6.13911,6.99565 6.4832,21.82319 0.34937,15.05497 -0.47221,19.8699 -4.13273,24.22018 -2.95565,3.51259 -5.66982,4.44003 -7.73573,2.64332 -0.86539,-0.75262 -2.83907,-1.81204 -4.38594,-2.35423 l -2.8125,-0.98583 3.14062,-0.074 c 2.2618,-0.0533 4.03258,-0.96596 6.32813,-3.26151 l 3.1875,-3.1875 0,-14.71875 0,-14.71875 -3.1875,-3.1875 -3.1875,-3.1875 -34.40625,0 -34.40625,0 -3.1875,3.1875 -3.1875,3.1875 0,14.11214 c 0,8.9445 0.41013,15.01228 1.12002,16.5703 2.14766,4.71359 4.38213,5.12188 28.59905,5.22577 17.25719,0.0741 21.60313,0.32252 19.1825,1.09686 -1.72133,0.55064 -3.77376,1.98414 -4.56095,3.18554 -1.41534,2.1601 -1.6285,2.18439 -19.16605,2.18439 -13.83886,0 -18.49294,-0.31677 -21.18599,-1.44201 -7.68068,-3.20919 -10.50005,-8.50411 -10.53049,-19.77678 -0.0234,-8.69873 -0.071,-8.74459 -9.08454,-8.76842 -7.76929,-0.0205 -7.81105,0.0277 -7.81105,9.02387 0,11.56395 -2.55491,16.7906 -9.84375,20.13765 -3.22755,1.4821 -6.30862,1.72488 -22.11514,1.7426 l -18.36514,0.0206 -1.08037,-2.37114 z m 5.93565,-25.66715 c -3.72766,-1.59624 -5.62983,-4.75106 -5.53309,-9.17687 l 0.0919,-4.20501 -4.31066,0.64298 c -2.37086,0.35363 -5.99816,1.24683 -8.06066,1.98487 -5.30194,1.89725 -5.625,1.92082 -5.625,0.41046 0,-1.85314 7.36657,-5.46328 13.48734,-6.60976 2.77743,-0.52024 9.36438,-0.94588 14.63769,-0.94588 5.27331,0 11.86026,0.42564 14.63767,0.94588 6.12076,1.14648 13.48733,4.75662 13.48733,6.60976 0,1.52389 -0.2903,1.49836 -5.93849,-0.52224 -2.23492,-0.79953 -6.49538,-1.70787 -9.46771,-2.01853 l -5.40421,-0.56486 0.0927,4.31575 c 0.0737,3.42837 -0.38919,4.79744 -2.25104,6.65853 -2.60369,2.60263 -6.97749,3.70229 -9.84375,2.47492 z m 103.125,0 c -3.72766,-1.59624 -5.62983,-4.75106 -5.53309,-9.17687 l 0.0919,-4.20501 -4.31066,0.64298 c -2.37086,0.35363 -5.99816,1.24683 -8.06066,1.98487 -5.30194,1.89725 -5.625,1.92082 -5.625,0.41046 0,-1.85314 7.36657,-5.46328 13.48734,-6.60976 2.77743,-0.52024 9.36438,-0.94588 14.63769,-0.94588 5.27331,0 11.86026,0.42564 14.63767,0.94588 6.12076,1.14648 13.48733,4.75662 13.48733,6.60976 0,1.52389 -0.2903,1.49836 -5.93849,-0.52224 -2.23492,-0.79953 -6.49538,-1.70787 -9.46771,-2.01853 l -5.40421,-0.56486 0.0927,4.31575 c 0.0737,3.42837 -0.38919,4.79744 -2.25104,6.65853 -2.60369,2.60263 -6.97749,3.70229 -9.84375,2.47492 z m -167.34375,-42.0725 c 0,-13.47506 0.47316,-27.68142 1.05146,-31.56966 l 1.05146,-7.06955 13.40883,0 13.40883,0 -4.53113,8.67187 c -6.63943,12.70681 -10.03473,24.48171 -11.76789,40.81092 -0.61081,5.75489 -0.71363,5.93348 -4.51393,7.84017 -2.13889,1.07313 -4.8381,2.82081 -5.99826,3.88376 l -2.10937,1.93262 0,-24.50013 z m 228.09118,17.26175 -4.87757,-1.99471 -0.58291,-5.15625 c -1.81437,-16.04958 -5.18948,-27.60338 -11.70765,-40.07813 l -4.53113,-8.67187 12.94008,0 12.94008,0 1.05146,7.06955 c 1.16528,7.83484 1.46129,51.12228 0.34833,50.94078 -0.38671,-0.0631 -2.89802,-1.01228 -5.58069,-2.10937 z m -80.90368,-12.73565 c 0,-0.45867 1.08073,-2.11834 2.40163,-3.68813 5.32329,-6.32637 22.96351,-11.99885 34.5903,-11.12303 5.09666,0.38393 12.07902,2.7023 13.09639,4.34844 0.20381,0.32977 -3.07253,0.50913 -7.28075,0.39856 -11.45408,-0.30097 -31.65815,4.3198 -39.7414,9.08903 -1.6864,0.995 -3.06617,1.4338 -3.06617,0.97513 z m -65.89775,-3.6253 c -9.44947,-4.62528 -23.63937,-7.9258 -34.56411,-8.03951 -10.31554,-0.10737 -10.92042,-1.34786 -1.93144,-3.96102 10.785,-3.13529 28.03338,0.65677 37.9561,8.34464 3.11202,2.41112 6.0871,6.18569 5.21628,6.61805 -0.17068,0.0847 -3.17526,-1.24822 -6.67683,-2.96216 z m -82.64125,-48.44626 c 2.44441,-25.08852 15.41013,-49.45754 34.3969,-64.64884 9.64394,-7.7161 23.74317,-14.8284 35.86085,-18.08988 l 9.375,-2.52327 37.03125,0 37.03125,0 9.36702,2.5563 c 16.21708,4.42571 30.1535,12.17016 41.72673,23.18749 4.31126,4.10418 8.00528,6.60547 12.62865,8.5511 3.5942,1.51252 8.44576,3.86622 10.78125,5.23043 6.7448,3.93979 14.5989,11.99561 16.89182,17.32565 2.31949,5.39178 3.3796,13.32993 2.19387,16.42763 -0.59876,1.56426 -0.82549,0.75171 -0.91555,-3.28125 -0.16192,-7.24962 -2.29061,-11.68968 -8.65622,-18.05529 -14.21565,-14.21565 -43.23644,-21.89748 -82.61132,-21.86729 -27.47078,0.0211 -44.71246,2.15988 -70.84234,8.78794 -39.71849,10.07491 -67.09336,25.73282 -80.30077,45.93053 l -4.59778,7.03125 0.63939,-6.5625 z"
       id="path7536"
       inkscape:connector-curvature="0" />
    <path
       style="fill:#646a71"
       d="m -347.77277,599.45481 c -24.41882,-1.60853 -48.12214,-7.29123 -74.85817,-17.94673 l -3.13941,-1.2512 0.62232,-5.625 c 1.8759,-16.95576 9.51545,-35.46057 20.70655,-50.15625 5.26942,-6.91957 17.4047,-18.36532 24.32496,-22.94279 6.13099,-4.0554 18.50454,-10.35733 22.11164,-11.26159 1.89353,-0.47468 2.55956,-0.017 4.0761,2.80147 5.24219,9.74226 23.56573,15.61921 44.18887,14.17278 14.59594,-1.02371 23.65233,-4.20507 29.97805,-10.53078 l 3.37321,-3.3732 4.6565,2.41587 c 9.27021,4.80956 15.53978,9.56932 24.79278,18.82234 13.18108,13.18108 20.71647,25.42413 25.99778,42.23965 4.01931,12.79737 4.8944,11.19123 -10.26063,18.83253 -35.83084,18.06621 -76.76605,26.42491 -116.57055,23.8029 z m -23.48709,-127.55413 c -16.21094,-7.82988 -32.17666,-20.40932 -41.84758,-32.9718 -4.22473,-5.48793 -12.47783,-18.39519 -12.47783,-19.51445 0,-0.3389 1.83871,-0.19542 4.08602,0.31883 3.7278,0.85305 4.31204,1.39643 6.66404,6.19807 4.21927,8.61368 10.81233,17.75778 18.30081,25.38193 8.65717,8.81402 15.6106,13.99324 26.669,19.86425 10.37686,5.50917 9.47875,5.97493 -1.39446,0.72317 z m 100.3992,-1.41998 c 16.91422,-9.0078 33.78497,-25.86771 42.34927,-42.32209 3.77655,-7.25578 4.20429,-7.72394 7.06674,-7.73437 1.67579,-0.007 3.04688,0.38312 3.04688,0.86496 0,0.48182 -2.52541,4.65159 -5.61202,9.26613 -11.16241,16.68798 -26.07634,30.04048 -44.05456,39.44225 -5.03833,2.63481 -9.52995,4.78069 -9.98138,4.76863 -0.45143,-0.0121 2.78184,-1.94054 7.18507,-4.28551 z m -56.42647,-26.64919 c -17.11121,-1.61797 -30.30732,-8.62208 -33.08207,-17.55901 -0.94498,-3.0436 0.56876,-2.52743 2.75268,0.93864 3.97933,6.31553 14.03527,10.42097 29.84735,12.18548 15.66457,1.74806 35.49122,-1.44382 43.82802,-7.05583 1.7598,-1.18463 4.04338,-3.49297 5.07463,-5.12965 2.56584,-4.07222 3.62512,-3.81078 1.84283,0.45482 -2.03807,4.87782 -4.60754,7.3427 -10.96678,10.52045 -9.56277,4.77858 -25.00309,6.99663 -39.29666,5.64509 z m -52.36064,-39.67466 c 0,-0.78108 -1.11158,-2.2945 -2.47018,-3.36318 l -2.47018,-1.94304 21.61682,0 21.61681,0 2.88462,-2.88461 2.88461,-2.88462 0,-15.32452 0,-15.32452 -2.88461,-2.88462 -2.88462,-2.88461 -35.48077,0 -35.48077,0 -2.88462,2.88461 -2.88461,2.88462 0,15.32452 0,15.32452 2.88461,2.88462 c 1.58654,1.58653 3.29756,2.88461 3.80229,2.88461 0.50471,0 -0.25094,1.00519 -1.67923,2.23375 -2.38337,2.05009 -2.77173,2.11919 -4.72327,0.8405 -1.16951,-0.76629 -3.08302,-2.93164 -4.25227,-4.81188 -1.99208,-3.20345 -2.12588,-4.42173 -2.12588,-19.35612 0,-15.00111 0.12671,-16.14128 2.15663,-19.40587 1.18615,-1.9076 3.7174,-4.43885 5.625,-5.625 3.4627,-2.15311 3.52738,-2.15663 39.56212,-2.15663 36.03474,0 36.09942,0.004 39.56212,2.15663 4.37755,2.72196 6.96383,6.90673 7.80999,12.63705 0.59653,4.03984 0.85854,4.41674 2.66042,3.82694 2.9712,-0.97259 10.34469,-0.70519 12.51002,0.45365 1.77138,0.94802 1.93528,0.66945 2.51668,-4.27736 0.7525,-6.40259 3.24364,-10.69573 7.87865,-13.57778 3.46095,-2.15201 3.5448,-2.15663 39.16184,-2.15663 l 35.69346,0 3.76939,2.49446 c 6.45884,4.27426 7.34368,7.31435 7.34368,25.23099 0,15.16211 -0.059,15.62698 -2.43639,19.21885 -1.34002,2.0245 -3.55077,4.2773 -4.91277,5.00622 -2.17581,1.16446 -2.67894,1.142 -4.14539,-0.18512 -0.91795,-0.83073 -2.71502,-1.92778 -3.99347,-2.43786 -2.27831,-0.90902 -2.2654,-0.92862 0.65028,-0.98686 2.02006,-0.0404 3.90053,-0.9852 5.85938,-2.94404 l 2.88461,-2.88462 0,-15.32452 0,-15.32452 -2.88461,-2.88462 -2.88462,-2.88461 -35.01202,0 -35.01202,0 -2.88462,2.88461 -2.88461,2.88462 0,15.32452 0,15.32452 2.88461,2.88462 2.88462,2.88461 22.66226,0.0367 c 19.92757,0.0323 22.3091,0.19039 19.73567,1.31042 -1.60963,0.70054 -3.57491,2.19931 -4.36728,3.33059 -1.41449,2.01946 -1.77895,2.05105 -20.04216,1.73646 -17.4855,-0.3012 -18.80955,-0.4498 -22.06984,-2.47705 -5.70866,-3.54964 -7.5149,-7.49181 -8.04099,-17.54964 -0.41358,-7.90673 -0.64479,-8.78395 -2.44248,-9.26643 -2.85,-0.76493 -12.10924,-0.65461 -13.34099,0.15893 -0.58672,0.38753 -1.24496,4.64472 -1.50498,9.73363 -0.53116,10.39538 -2.27881,14.27477 -8.04632,17.86101 -3.27713,2.03772 -4.54101,2.17407 -22.9215,2.47294 -16.89038,0.27463 -19.45312,0.1292 -19.45312,-1.10384 z m 5.15625,-26.78201 c -3.73331,-1.59866 -5.62985,-4.75015 -5.53269,-9.19372 l 0.0923,-4.22186 -4.77981,0.63242 c -2.62889,0.34783 -6.54197,1.41104 -8.69572,2.36269 -3.14156,1.38811 -4.01097,1.48259 -4.39656,0.47777 -0.61508,-1.60289 2.51072,-3.63747 8.8917,-5.78757 3.98306,-1.3421 8.00758,-1.70019 19.10828,-1.70019 11.10069,0 15.12522,0.35809 19.10827,1.70019 6.38098,2.1501 9.50679,4.18468 8.8917,5.78757 -0.38347,0.99931 -1.31463,0.88358 -4.60629,-0.57248 -2.26912,-1.00373 -6.81522,-2.07613 -10.10246,-2.3831 l -5.97681,-0.55812 0.0928,4.31935 c 0.0737,3.43226 -0.38854,4.80048 -2.25095,6.66213 -2.60369,2.60264 -6.97749,3.70229 -9.84375,2.47492 z m 103.125,0 c -3.73331,-1.59866 -5.62985,-4.75015 -5.53269,-9.19372 l 0.0923,-4.22186 -4.77981,0.63242 c -2.62889,0.34783 -6.54196,1.41104 -8.69572,2.36269 -3.14156,1.38811 -4.01097,1.48259 -4.39656,0.47777 -0.61508,-1.60289 2.51072,-3.63747 8.8917,-5.78757 3.98306,-1.3421 8.00758,-1.70019 19.10828,-1.70019 11.10069,0 15.12522,0.35809 19.10827,1.70019 6.38098,2.1501 9.50679,4.18468 8.8917,5.78757 -0.38347,0.99931 -1.31463,0.88358 -4.60629,-0.57248 -2.26912,-1.00373 -6.81522,-2.07613 -10.10246,-2.3831 l -5.97681,-0.55812 0.0928,4.31935 c 0.0737,3.43226 -0.38854,4.80048 -2.25095,6.66213 -2.60369,2.60264 -6.97749,3.70229 -9.84375,2.47492 z m -167.01583,-46.25859 c 0.29316,-15.08203 0.80733,-29.0039 1.14261,-30.9375 l 0.6096,-3.51562 13.35984,0 13.35982,0 -5.02872,10.07812 c -5.88843,11.80108 -9.36012,23.32163 -10.90881,36.20008 -0.94101,7.8251 -1.40272,9.36032 -3.00275,9.98428 -1.03992,0.40553 -3.49152,1.83425 -5.44802,3.17493 -1.95649,1.34068 -3.79561,2.43759 -4.08692,2.43759 -0.29132,0 -0.28981,-12.33984 0.004,-27.42188 z m 231.78281,22.86298 c -0.27496,-0.44489 -2.30579,-1.31451 -4.51295,-1.93247 l -4.01302,-1.12359 -1.55753,-10.95814 c -1.82124,-12.81343 -5.50318,-24.20034 -11.42397,-35.33028 l -4.24067,-7.97162 12.96614,0 12.96614,0 0.60269,3.51562 c 1.14445,6.67577 1.76117,54.60938 0.70261,54.60938 -0.54423,0 -1.21448,-0.364 -1.48944,-0.8089 z m -145.39011,-15.12557 c -2.22397,-3.59847 -24.94188,-10.11746 -38.90812,-11.16484 l -8.90625,-0.66791 3.75,-1.75864 c 5.51558,-2.58663 18.06612,-2.30301 26.46525,0.59806 8.37201,2.89171 15.74807,7.53938 17.57635,11.07488 1.35235,2.61514 1.36994,4.09822 0.0228,1.91845 z m 60.46688,0.48277 c 0,-0.24843 1.45443,-1.94936 3.23207,-3.77984 9.4284,-9.70866 36.36087,-13.92923 44.78552,-7.01829 l 2.13866,1.75439 -3.28125,-0.69512 c -7.59208,-1.60836 -31.55647,2.96993 -41.5614,7.9401 -4.72388,2.34669 -5.3136,2.54633 -5.3136,1.79876 z m -148.4545,-52.28268 c 4.2505,-42.99559 36.87891,-77.22223 79.78118,-83.68905 12.72839,-1.9186 60.87938,-1.91692 73.61377,0.002 20.31449,3.06205 38.20249,11.95659 52.24705,25.97903 3.69501,3.68918 6.75033,5.73676 10.78125,7.22525 12.97365,4.7907 24.78787,14.23302 28.59832,22.85668 0.96083,2.17451 1.99261,6.27396 2.29287,9.1099 l 0.54591,5.15625 -1.44291,-5.07997 c -1.94097,-6.83335 -4.30252,-10.42052 -10.49179,-15.93693 -27.53815,-24.54433 -104.45814,-27.60352 -168.09615,-6.68535 -31.66531,10.40857 -52.51463,23.75455 -63.85005,40.87145 -2.20346,3.32729 -4.13058,6.04962 -4.28249,6.04962 -0.15192,0 -0.0156,-2.63672 0.30304,-5.85937 z"
       id="path7534"
       inkscape:connector-curvature="0" />
    <path
       style="fill:#5a5a5a"
       d="m -347.77277,599.44586 c -24.48753,-1.65694 -52.33738,-8.28825 -72.78313,-17.33032 l -5.24632,-2.32017 0.64454,-5.15874 c 1.0614,-8.49513 4.99657,-21.79988 8.93114,-30.19603 10.34901,-22.08422 27.20455,-39.25189 49.0701,-49.97879 5.23972,-2.57052 9.95159,-4.67043 10.47084,-4.66646 0.51924,0.004 1.87668,1.64071 3.01653,3.63719 2.65731,4.6544 9.27644,9.01762 17.60229,11.60314 5.53306,1.71825 8.80421,2.03975 20.63776,2.02838 18.7325,-0.018 28.02683,-2.70901 35.63545,-10.31764 l 3.34151,-3.34149 6.29277,3.4312 c 17.59327,9.59294 32.74244,25.14944 42.20739,43.34227 4.09303,7.86732 9.55413,23.24716 9.55413,26.90685 0,3.53029 -27.076,16.36267 -48.31237,22.89713 -25.4891,7.84303 -54.66795,11.24945 -81.06263,9.46348 z m -23.48709,-127.54518 c -16.21094,-7.82988 -32.17666,-20.40932 -41.84758,-32.9718 -4.22473,-5.48793 -12.47783,-18.39519 -12.47783,-19.51445 0,-0.3389 1.83871,-0.19542 4.08602,0.31883 3.7278,0.85305 4.31204,1.39643 6.66404,6.19807 4.21927,8.61368 10.81233,17.75778 18.30081,25.38193 8.65717,8.81402 15.6106,13.99324 26.669,19.86425 10.37686,5.50917 9.47875,5.97493 -1.39446,0.72317 z m 100.3992,-1.41998 c 16.91422,-9.0078 33.78497,-25.86771 42.34927,-42.32209 3.77655,-7.25578 4.20429,-7.72394 7.06674,-7.73437 1.67579,-0.007 3.04688,0.38312 3.04688,0.86496 0,0.48182 -2.52541,4.65159 -5.61202,9.26613 -11.16241,16.68798 -26.07634,30.04048 -44.05456,39.44225 -5.03833,2.63481 -9.52995,4.78069 -9.98138,4.76863 -0.45143,-0.0121 2.78184,-1.94054 7.18507,-4.28551 z m -67.21183,-28.4441 c -7.76476,-2.09011 -12.67977,-4.46509 -16.95708,-8.19382 -3.11898,-2.71896 -6.67373,-9.67965 -4.94328,-9.67965 0.52254,0 0.95008,0.55005 0.95008,1.22234 0,1.61731 5.33428,6.62286 9.05328,8.49536 8.00009,4.02802 17.24693,5.68481 31.72797,5.68481 14.7916,0 23.8608,-1.67912 32.178,-5.95761 3.58001,-1.84161 7.99412,-6.07001 8.88102,-8.5074 0.36476,-1.00243 0.53195,-0.86783 0.58221,0.46875 0.19969,5.31028 -7.95175,12.15333 -18.63271,15.64197 -9.00385,2.94086 -33.2452,3.40784 -42.83949,0.82525 z m -35.5994,-64.48129 c -3.68758,-0.67919 -6.2797,-4.50216 -6.20931,-9.15778 0.0605,-4.00176 -0.0765,-4.2344 -2.49362,-4.2344 -3.0706,0 -12.26968,2.61848 -13.91357,3.96045 -0.86289,0.7044 -1.17188,0.48125 -1.17188,-0.84635 0,-4.03503 13.28387,-7.76446 27.65625,-7.76446 14.37238,0 27.65625,3.72944 27.65625,7.76446 0,1.3276 -0.30899,1.55075 -1.17188,0.84635 -1.95356,-1.59476 -11.10454,-3.96045 -15.31982,-3.96045 l -3.96388,0 0.0648,4.28237 c 0.0506,3.35219 -0.42591,4.75328 -2.19409,6.45034 -2.39212,2.2959 -5.6503,3.26522 -8.93919,2.65947 z m 103.125,0 c -3.68758,-0.67919 -6.2797,-4.50216 -6.20931,-9.15778 0.0605,-4.00176 -0.0765,-4.2344 -2.49362,-4.2344 -3.0706,0 -12.26968,2.61848 -13.91358,3.96045 -0.86288,0.7044 -1.17187,0.48125 -1.17187,-0.84635 0,-4.03503 13.28387,-7.76446 27.65625,-7.76446 14.37238,0 27.65625,3.72944 27.65625,7.76446 0,1.3276 -0.30899,1.55075 -1.17188,0.84635 -1.95356,-1.59476 -11.10454,-3.96045 -15.31982,-3.96045 l -3.96388,0 0.0648,4.28237 c 0.0506,3.35219 -0.42591,4.75328 -2.19409,6.45034 -2.39212,2.2959 -5.6503,3.26522 -8.93919,2.65947 z m -167.83546,-46.43906 c 0.29316,-15.08203 0.80733,-29.0039 1.14261,-30.9375 l 0.6096,-3.51562 13.35984,0 13.35982,0 -5.02872,10.07812 c -5.88843,11.80108 -9.36012,23.32163 -10.90881,36.20008 -0.94101,7.8251 -1.40272,9.36032 -3.00275,9.98428 -1.03992,0.40553 -3.49152,1.83425 -5.44802,3.17493 -1.95649,1.34068 -3.79561,2.43759 -4.08692,2.43759 -0.29132,0 -0.28981,-12.33984 0.004,-27.42188 z m 231.78281,22.86298 c -0.27496,-0.44489 -2.30579,-1.31451 -4.51295,-1.93247 l -4.01302,-1.12359 -1.55753,-10.95814 c -1.82124,-12.81343 -5.50318,-24.20034 -11.42397,-35.33028 l -4.24067,-7.97162 12.96614,0 12.96614,0 0.60269,3.51562 c 1.14445,6.67577 1.76117,54.60938 0.70261,54.60938 -0.54423,0 -1.21448,-0.364 -1.48944,-0.8089 z m -233.01069,-66.0275 c -0.0542,-6.48418 2.4853,-17.78048 5.97066,-26.55918 11.53152,-29.04479 37.1408,-50.56873 68.10703,-57.2422 6.83909,-1.47388 12.57132,-1.70597 42.13477,-1.70597 29.1711,0 35.34822,0.2439 41.87557,1.65345 18.29882,3.95153 35.12407,13.024 47.69461,25.71782 3.24905,3.28091 6.34206,5.31719 10.27357,6.76358 12.95015,4.76434 24.78577,14.22056 28.59832,22.849 0.96083,2.17451 1.9842,6.27396 2.27415,9.1099 l 0.5272,5.15625 -1.23486,-4.6875 c -2.53744,-9.63214 -7.58434,-15.6752 -18.39193,-22.02212 -48.28356,-28.35531 -165.35708,-14.31085 -211.59381,25.38336 -5.28871,4.54036 -12.37623,12.85917 -14.70851,17.26376 l -1.48924,2.8125 -0.0375,-4.49265 z"
       id="path7532"
       inkscape:connector-curvature="0" />
    <path
       style="fill:#404952"
       d="m -366.52277,473.85063 c -0.77344,-0.49984 -0.98438,-0.90878 -0.46875,-0.90878 0.51562,0 1.57031,0.40894 2.34375,0.90878 0.77344,0.49984 0.98437,0.90878 0.46875,0.90878 -0.51563,0 -1.57031,-0.40894 -2.34375,-0.90878 z m -11.46143,-5.53019 c -13.41417,-7.52424 -24.90307,-17.14503 -34.06492,-28.52588 -5.33997,-6.6333 -13.53615,-19.00736 -13.53615,-20.43599 0,-0.2622 1.89728,-0.0366 4.21619,0.50147 3.53363,0.81984 4.37435,1.45739 5.19306,3.93811 1.44378,4.3747 11.20014,18.73921 17.23694,25.37833 6.31057,6.94021 14.65026,13.70332 24.02527,19.4834 9.15591,5.645 7.21634,5.43057 -3.07039,-0.33944 z m 107.46599,2.53327 c 0.98219,-0.672 4.78194,-3.18764 8.44389,-5.59029 13.84229,-9.08211 27.57345,-24.37938 34.40975,-38.33434 2.94887,-6.01953 3.38832,-6.47852 6.21992,-6.49655 1.67579,-0.0107 3.04688,0.31679 3.04688,0.72768 0,0.4109 -1.88497,3.617 -4.18881,7.12468 -11.85847,18.05484 -26.14725,31.27814 -44.09244,40.80455 -3.09375,1.64235 -4.82138,2.43627 -3.83919,1.76427 z m -62.25456,-27.59334 c -10.21504,-1.92532 -22.28631,-7.95956 -25.12507,-12.55962 -2.03675,-3.30043 -3.0465,-6.53762 -2.03923,-6.53762 0.50287,0 0.9143,0.58373 0.9143,1.29716 0,2.27324 7.06769,7.78137 12.67797,9.88045 9.21605,3.44817 14.5022,4.24702 28.10328,4.24702 13.58424,0 18.88998,-0.79988 28.05746,-4.22988 5.6941,-2.13043 11.4647,-6.53323 12.76231,-9.73725 0.76462,-1.88794 0.78119,-1.88897 0.83337,-0.0513 0.14216,5.00543 -7.66382,11.60786 -18.01152,15.2345 -5.92496,2.07656 -8.57406,2.4043 -21.29787,2.63489 -7.99219,0.14484 -15.58594,0.0646 -16.875,-0.1784 z m -41.98822,-66.44719 c -3.93409,-1.70928 -6.26012,-6.69414 -4.85191,-10.39802 l 0.96006,-2.52514 -5.86793,0.61332 c -3.22737,0.33733 -7.48197,1.41188 -9.45466,2.3879 -3.2153,1.59079 -3.55718,1.61423 -3.30141,0.22636 0.72873,-3.95429 13.91546,-7.60427 27.47282,-7.60427 13.55736,0 26.74409,3.64998 27.47282,7.60427 0.25312,1.37349 -0.13669,1.33941 -3.45436,-0.30205 -2.21183,-1.09431 -6.64925,-2.0703 -10.86128,-2.38885 l -7.12159,-0.5386 0.96043,2.52611 c 1.45187,3.81871 -0.91734,8.70918 -5.05717,10.43891 -3.85965,1.61266 -3.08183,1.61717 -6.89582,-0.0399 z m 103.125,0 c -3.93409,-1.70928 -6.26012,-6.69414 -4.85191,-10.39802 l 0.96006,-2.52514 -5.86793,0.61332 c -3.22737,0.33733 -7.48197,1.41188 -9.45466,2.3879 -3.2153,1.59079 -3.55718,1.61423 -3.30141,0.22636 0.72873,-3.95429 13.91546,-7.60427 27.47282,-7.60427 13.55736,0 26.74409,3.64998 27.47282,7.60427 0.25312,1.37349 -0.13669,1.33941 -3.45436,-0.30205 -2.21183,-1.09431 -6.64925,-2.0703 -10.86128,-2.38885 l -7.12159,-0.5386 0.96043,2.52611 c 1.45187,3.81871 -0.91734,8.70918 -5.05717,10.43891 -3.85965,1.61266 -3.08183,1.61717 -6.89582,-0.0399 z m -166.74862,-45.51299 c 0.29439,-15.18319 0.80959,-29.18784 1.14487,-31.12144 l 0.6096,-3.51562 13.41935,0 13.41935,0 -3.70195,6.39417 c -6.50522,11.23609 -13.01614,33.83618 -13.02639,45.21589 -0.003,2.96863 -0.43411,3.55056 -3.98736,5.3782 -2.19141,1.12716 -4.98076,2.77056 -6.19856,3.652 l -2.21418,1.60261 0.53527,-27.60581 z m 229.83059,21.48239 c -2.0625,-0.9324 -4.48828,-1.70634 -5.39063,-1.71987 -1.22028,-0.0183 -1.64139,-0.8052 -1.64361,-3.07145 -0.011,-11.12239 -6.30223,-33.10062 -12.67735,-44.28751 l -4.01228,-7.04062 12.93125,0 12.93124,0 0.59492,3.51563 c 0.68567,4.05179 1.85837,49.41365 1.35324,52.34487 -0.33325,1.93372 -0.37616,1.93644 -4.08678,0.25895 z m -230.73118,-67.8382 c 1.6095,-19.06068 11.17413,-39.17828 25.7818,-54.22771 15.62117,-16.09358 35.58088,-25.53342 58.75157,-27.78624 12.03056,-1.16969 50.67756,-1.16969 62.70812,0 22.3977,2.17767 40.60762,10.48079 56.94595,25.96546 3.96344,3.75635 7.70756,6.82974 8.32027,6.82974 2.06096,0 12.5541,5.02595 17.78849,8.52024 10.04457,6.70539 15.36844,14.71078 16.31339,24.5301 0.45527,4.73087 0.44093,4.76922 -0.37581,1.00566 -3.27273,-15.08071 -17.2977,-25.63385 -42.80873,-32.21159 -60.91638,-15.70662 -155.08632,2.95602 -190.97072,37.84669 -3.26821,3.1777 -7.53212,8.09796 -9.47534,10.9339 l -3.53313,5.15625 0.55414,-6.5625 z"
       id="path7530"
       inkscape:connector-curvature="0" />
    <path
       style="fill:#493838"
       d="m -366.52277,473.85063 c -0.77344,-0.49984 -0.98438,-0.90878 -0.46875,-0.90878 0.51562,0 1.57031,0.40894 2.34375,0.90878 0.77344,0.49984 0.98437,0.90878 0.46875,0.90878 -0.51563,0 -1.57031,-0.40894 -2.34375,-0.90878 z m -11.46143,-5.53019 c -13.41417,-7.52424 -24.90307,-17.14503 -34.06492,-28.52588 -5.33997,-6.6333 -13.53615,-19.00736 -13.53615,-20.43599 0,-0.2622 1.89728,-0.0366 4.21619,0.50147 3.53363,0.81984 4.37435,1.45739 5.19306,3.93811 1.44378,4.3747 11.20014,18.73921 17.23694,25.37833 6.31057,6.94021 14.65026,13.70332 24.02527,19.4834 9.15591,5.645 7.21634,5.43057 -3.07039,-0.33944 z m 107.46599,2.53327 c 0.98219,-0.672 4.78194,-3.18764 8.44389,-5.59029 13.84229,-9.08211 27.57345,-24.37938 34.40975,-38.33434 2.94887,-6.01953 3.38832,-6.47852 6.21992,-6.49655 1.67579,-0.0107 3.04688,0.31679 3.04688,0.72768 0,0.4109 -1.88497,3.617 -4.18881,7.12468 -11.85847,18.05484 -26.14725,31.27814 -44.09244,40.80455 -3.09375,1.64235 -4.82138,2.43627 -3.83919,1.76427 z m -167.8664,-139.55352 c 0.29439,-15.18319 0.80959,-29.18784 1.14487,-31.12144 l 0.6096,-3.51562 13.41935,0 13.41935,0 -3.70195,6.39417 c -6.50522,11.23609 -13.01614,33.83618 -13.02639,45.21589 -0.003,2.96863 -0.43411,3.55056 -3.98736,5.3782 -2.19141,1.12716 -4.98076,2.77056 -6.19856,3.652 l -2.21418,1.60261 0.53527,-27.60581 z m 229.83059,21.48239 c -2.0625,-0.9324 -4.48828,-1.70634 -5.39063,-1.71987 -1.22028,-0.0183 -1.64139,-0.8052 -1.64361,-3.07145 -0.011,-11.12239 -6.30223,-33.10062 -12.67735,-44.28751 l -4.01228,-7.04062 12.93125,0 12.93124,0 0.59492,3.51563 c 0.68567,4.05179 1.85837,49.41365 1.35324,52.34487 -0.33325,1.93372 -0.37616,1.93644 -4.08678,0.25895 z m -230.73039,-67.8382 c 1.60688,-19.05683 11.17277,-39.17769 25.78101,-54.22771 15.62117,-16.09358 35.58088,-25.53342 58.75157,-27.78624 12.03056,-1.16969 50.67756,-1.16969 62.70812,0 22.3977,2.17767 40.60762,10.48079 56.94595,25.96546 3.96344,3.75635 7.70757,6.82974 8.32027,6.82974 2.06096,0 12.5541,5.02595 17.78849,8.52024 10.04457,6.70539 15.36844,14.71078 16.31339,24.5301 0.46805,4.86369 0.46368,4.87379 -0.39244,0.90827 -5.06779,-23.47398 -39.85438,-37.71709 -92.08965,-37.7054 -65.01298,0.0145 -129.59457,22.91335 -150.44232,53.34264 l -4.23774,6.1854 0.55335,-6.5625 z"
       id="path7528"
       inkscape:connector-curvature="0" />
    <path
       style="fill:#342a29"
       d="m -382.08284,465.80029 c -10.37715,-6.51242 -14.92095,-10.18157 -23.68461,-19.12552 -6.19249,-6.31987 -20.39628,-25.99568 -19.44951,-26.94244 0.20767,-0.20769 1.88348,-0.0951 3.72402,0.25019 2.97229,0.5576 3.76033,1.38197 7.04883,7.37378 8.5286,15.53956 20.37897,28.61692 34.42794,37.99264 8.4454,5.63613 8.51285,5.68919 7.23021,5.68919 -0.52289,0 -4.70648,-2.35703 -9.29688,-5.23784 z m 112.12257,5.0292 c 0.25781,-0.29828 3.79859,-2.76453 7.8684,-5.48055 14.08156,-9.39747 25.89809,-22.45081 34.48205,-38.09123 3.33258,-6.07213 4.06437,-6.84458 6.48429,-6.84458 1.50026,0 2.72776,0.27629 2.72776,0.61398 0,0.33769 -2.74239,4.73338 -6.0942,9.76819 -9.88823,14.85329 -24.93593,28.68741 -41.24955,37.92284 -2.57813,1.45952 -4.47656,2.40963 -4.21875,2.11135 z M -438.39933,331.78494 c 0.3128,-14.93418 0.9048,-28.84056 1.31556,-30.90306 l 0.74682,-3.75 13.34025,-0.26009 13.34025,-0.26009 -2.77592,4.37718 c -6.44527,10.16312 -12.71761,29.83045 -13.7545,43.12812 l -0.59341,7.61012 -3.85562,1.98682 c -2.12059,1.09276 -4.86284,2.71521 -6.09389,3.60545 l -2.23827,1.61861 0.56873,-27.15306 z m 228.45803,20.50396 -5.13728,-2.04878 -1.15512,-9.21037 c -1.75551,-13.99741 -8.37673,-33.16323 -14.35965,-41.56546 l -1.9946,-2.80116 12.66476,0 c 6.96562,0 12.89277,0.36892 13.17144,0.81982 1.22338,1.97947 2.47631,24.50176 2.22358,39.97058 l -0.27585,16.88415 -5.13728,-2.04878 z m -209.55022,-84.21036 c 19.12792,-16.81597 58.14816,-31.93718 99.375,-38.51004 12.66074,-2.01853 48.79193,-2.84599 61.48903,-1.40821 35.54958,4.02552 62.4505,19.22904 65.09114,36.78736 0.41629,2.76802 0.29583,2.657 -1.06316,-0.97983 -3.49856,-9.36267 -17.7488,-19.49938 -35.02925,-24.91758 -24.8934,-7.8052 -65.01854,-9.27886 -100.33151,-3.68483 -34.29433,5.43266 -64.79022,16.40486 -86.25,31.03211 -3.35156,2.28447 -4.82813,3.04092 -3.28125,1.68102 z"
       id="path7526"
       inkscape:connector-curvature="0" />
    <path
       style="fill:#170f0f"
       d="m -380.80235,466.43019 c -13.12315,-7.66874 -24.74241,-18.06252 -33.78727,-30.22376 -5.33907,-7.17861 -10.53786,-15.64996 -9.93767,-16.19328 0.19155,-0.1734 1.70762,-0.10819 3.36904,0.14492 2.64865,0.40351 3.49656,1.34258 6.88329,7.62326 7.71196,14.30181 20.7369,28.85484 33.23237,37.13119 9.69129,6.41901 9.79971,7.10389 0.24024,1.51767 z m 123.02958,-3.50092 c 12.74096,-10.29595 23.10921,-22.48084 29.99502,-35.25052 3.51628,-6.52091 4.19974,-7.26562 6.66797,-7.26562 l 2.75012,0 -1.82237,3.57214 c -2.8195,5.52668 -12.60081,18.31298 -18.59172,24.30342 -5.56563,5.56519 -14.51255,12.75771 -19.46777,15.65034 -2.49469,1.45629 -2.44172,1.34218 0.46875,-1.00976 z m -180.62348,-131.3369 c 0.3111,-14.82827 0.90169,-28.64799 1.31241,-30.71049 l 0.74676,-3.75 12.8759,-0.26083 c 7.08176,-0.14346 12.87591,-0.0856 12.87591,0.12855 0,0.21415 -1.85534,3.91746 -4.12297,8.22957 -6.8697,13.06336 -11.81453,30.91425 -11.81453,42.65051 0,2.25278 -0.34122,4.09595 -0.75828,4.09595 -0.41705,0 -3.21586,1.47988 -6.21957,3.28862 l -5.46129,3.28862 0.56566,-26.9605 z m 228.45495,20.69656 -5.13728,-2.04881 -1.10106,-8.74162 c -1.83824,-14.59434 -5.43628,-25.93911 -12.03287,-37.94014 -1.82065,-3.31226 -3.31026,-6.21869 -3.31026,-6.45875 0,-0.76865 24.24606,-0.46607 24.7248,0.30856 1.20292,1.94636 2.55094,25.81773 2.28783,40.51415 l -0.29388,16.41543 -5.13728,-2.04882 z m 15.05487,-89.07517 c -3.28721,-9.13986 -19.21431,-20.00792 -36.63634,-24.99927 -17.50912,-5.0163 -24.60703,-5.76448 -54.375,-5.73153 -23.90518,0.0264 -29.46477,0.31439 -40.99031,2.12293 -25.70245,4.03313 -50.12293,11.18743 -69.63469,20.40038 -5.92969,2.79985 -9.9375,4.42206 -8.90625,3.60491 1.03125,-0.81715 6.9375,-3.9517 13.125,-6.96566 63.66084,-31.00952 155.54136,-32.3806 189.12155,-2.82213 4.32606,3.80795 10.69462,14.64121 9.93929,16.90724 -0.19526,0.58576 -0.93472,-0.54684 -1.64325,-2.51687 z"
       id="path7524"
       inkscape:connector-curvature="0" />
  </g>
</svg>
