<?xml version="1.0" encoding="UTF-8" standalone="no"?>
<!-- Created with Inkscape (http://www.inkscape.org/) -->

<svg
   xmlns:dc="http://purl.org/dc/elements/1.1/"
   xmlns:cc="http://creativecommons.org/ns#"
   xmlns:rdf="http://www.w3.org/1999/02/22-rdf-syntax-ns#"
   xmlns:svg="http://www.w3.org/2000/svg"
   xmlns="http://www.w3.org/2000/svg"
   xmlns:sodipodi="http://sodipodi.sourceforge.net/DTD/sodipodi-0.dtd"
   xmlns:inkscape="http://www.inkscape.org/namespaces/inkscape"
   id="svg2"
   version="1.1"
   inkscape:version="0.91 r13725"
   width="403.125"
   height="395.625"
   viewBox="0 0 403.125 395.625"
   sodipodi:docname="Xuefei.svg"
   inkscape:export-filename="C:\Users\xshi\Desktop\Christina.png"
   inkscape:export-xdpi="200"
   inkscape:export-ydpi="200">
  <metadata
     id="metadata8">
    <rdf:RDF>
      <cc:Work
         rdf:about="">
        <dc:format>image/svg+xml</dc:format>
        <dc:type
           rdf:resource="http://purl.org/dc/dcmitype/StillImage" />
        <dc:title></dc:title>
      </cc:Work>
    </rdf:RDF>
  </metadata>
  <defs
     id="defs6" />
  <sodipodi:namedview
     pagecolor="#ffffff"
     bordercolor="#666666"
     borderopacity="1"
     objecttolerance="10"
     gridtolerance="10"
     guidetolerance="10"
     inkscape:pageopacity="0"
     inkscape:pageshadow="2"
     inkscape:window-width="1083"
     inkscape:window-height="741"
     id="namedview4"
     showgrid="false"
     inkscape:zoom="0.42180651"
     inkscape:cx="-245.74272"
     inkscape:cy="233.56819"
     inkscape:window-x="213"
     inkscape:window-y="177"
     inkscape:window-maximized="0"
     inkscape:current-layer="svg2" />
  <g
     id="g4312"
     transform="translate(495.48785,11.853776)">
    <path
       inkscape:connector-curvature="0"
       id="path4310"
       d="m -300.24369,379.52483 c -23.92583,-0.82831 -50.63476,-7.7011 -73.59375,-18.93725 -20.01159,-9.7937 -35.48726,-21.09634 -51.62968,-37.70766 -28.86077,-29.69912 -45.95501,-64.78952 -52.45494,-107.67749 -1.95283,-12.88522 -1.98971,-39.33921 -0.0734,-52.67635 4.62419,-32.18395 17.47702,-63.62653 36.33412,-88.886149 7.37633,-9.880801 23.29242,-26.458795 32.65337,-34.011337 44.70211,-36.0662815 103.22989,-49.412565 158.96415,-36.2491266 24.35464,5.7521316 49.69559,17.8568126 70.26888,33.5655226 7.95315,6.07262 24.02484,21.831847 30.7299,30.132441 21.99896,27.233869 36.55659,60.673119 41.55314,95.448649 1.91629,13.33714 1.8794,39.79113 -0.0734,52.67635 -5.52215,36.43639 -19.27031,68.13062 -41.47971,95.625 -6.70506,8.3006 -22.77675,24.05982 -30.7299,30.13244 -34.57438,26.39923 -77.25135,40.06117 -120.46875,38.56496 z m 32.69218,-4.53712 c 54.23122,-7.97203 100.96065,-38.60525 130.21419,-85.3612 13.75209,-21.97997 23.18615,-48.48919 26.98639,-75.83033 1.93205,-13.90032 1.44096,-44.10011 -0.92995,-57.1875 -6.8654,-37.89687 -23.47983,-70.971357 -49.48267,-98.50555 -28.20613,-29.867242 -65.5379,-49.129985 -106.9304,-55.1747842 -13.14276,-1.9193181 -36.95672,-1.9193181 -50.09949,0 -74.7952,10.9228022 -133.75094,64.4061762 -153.08701,138.8772242 -10.96984,42.2493 -6.20031,89.47565 13.15865,130.2929 26.06406,54.95454 78.09692,93.51374 138.72811,102.80515 12.272,1.88062 38.92456,1.92419 51.44218,0.0841 z"
       style="fill:#ffffff" />
    <path
       style="fill:#cfdee9"
       d="m -313.76915,374.61831 c -60.40096,-6.8242 -116.48532,-47.33244 -143.48277,-103.63379 -8.16248,-17.0223 -14.79202,-39.46812 -17.3869,-58.86735 -2.00526,-14.9912 -1.59365,-39.9209 0.89273,-54.06919 14.46566,-82.314307 73.34756,-141.473428 154.35768,-155.0844102 12.79676,-2.1500563 40.62926,-2.1500563 53.42601,0 42.04738,7.0646242 77.43764,25.6977272 105.35541,55.4700092 14.53106,15.496329 23.41058,28.555144 32.78434,48.214841 21.86219,45.85183 24.51897,95.94654 7.67319,144.68147 -8.61656,24.92777 -21.99354,46.96786 -40.45753,66.65838 -29.91819,31.90558 -70.00233,52.10576 -112.57834,56.7332 -10.62758,1.15508 -29.88035,1.10614 -40.58382,-0.10316 z"
       id="path4289"
       inkscape:connector-curvature="0" />
    <path
       style="fill:#fdcfc1"
       d="m -313.3004,374.67191 c -14.94437,-1.69134 -33.66795,-6.52267 -47.64131,-12.29313 l -6.86005,-2.83294 0.60131,-3.87058 c 2.50638,-16.13306 7.70174,-28.0659 19.03358,-43.71675 1.15062,-1.58916 0.74071,-1.72427 -6.5625,-2.16287 -4.28439,-0.25729 -9.68822,-0.51784 -12.00853,-0.57899 -18.40301,-0.48499 -33.15082,-15.96714 -33.10718,-34.75573 0.0155,-6.64941 0.61985,-8.66043 11.12971,-37.03125 l 11.11338,-30 0.58241,-34.6875 c 0.5694,-33.91246 0.63832,-34.88244 3.08435,-43.41227 9.92959,-34.626585 35.1571,-59.701866 69.74406,-69.323195 8.37712,-2.330331 10.59388,-2.551454 25.57827,-2.551454 14.98439,0 17.20114,0.221123 25.57827,2.551454 34.58819,9.621671 59.83032,34.712839 69.74029,69.323195 2.4289,8.48289 2.51339,9.63445 3.04754,41.53727 l 0.54937,32.8125 11.0554,30 c 6.1081,16.575 11.38877,32.43531 11.80037,35.44202 2.0541,15.00493 -6.12357,29.52233 -20.3168,36.06741 -5.41466,2.49691 -7.56316,2.79749 -33.76893,4.72435 l -8.72075,0.64122 4.23659,5.69376 c 6.68375,8.98261 12.82855,22.4411 14.22056,31.14622 l 0.56898,3.55824 -11.57357,5.72875 c -26.42638,13.08067 -53.00355,19.20264 -82.0835,18.90765 -6.59453,-0.0669 -15.15413,-0.47972 -19.02132,-0.91738 z"
       id="path4287"
       inkscape:connector-curvature="0" />
    <path
       style="fill:#f4c6b9"
       d="m -308.14415,375.15964 c -1.54688,-0.21916 -6.1875,-0.84243 -10.3125,-1.38504 -10.53175,-1.38538 -24.48023,-4.9546 -36.5625,-9.35583 -5.67188,-2.06611 -10.86968,-4.10533 -11.55067,-4.53162 -0.99628,-0.62366 -1.03414,-1.94674 -0.19379,-6.77253 2.29025,-13.15207 7.98919,-26.66629 15.51706,-36.79649 2.29862,-3.09323 4.01386,-5.7895 3.81165,-5.99171 -0.20221,-0.20221 -5.57733,-0.55813 -11.94471,-0.79094 -13.44876,-0.49173 -19.31083,-1.92996 -25.30949,-6.20958 -10.02737,-7.15382 -15.1836,-16.97398 -15.15598,-28.86498 0.0155,-6.64941 0.61985,-8.66043 11.12971,-37.03125 l 11.11338,-30 0.58241,-34.6875 c 0.5694,-33.91246 0.63832,-34.88244 3.08435,-43.41227 9.92959,-34.626585 35.1571,-59.701866 69.74406,-69.323195 8.37712,-2.330331 10.59388,-2.551454 25.57827,-2.551454 14.98439,0 17.20114,0.221123 25.57827,2.551454 34.58819,9.621671 59.83032,34.712839 69.74029,69.323195 2.4289,8.48289 2.51339,9.63445 3.04754,41.53727 l 0.54937,32.8125 11.0554,30 c 6.1081,16.575 11.38877,32.43531 11.80037,35.44202 2.0541,15.00493 -6.12357,29.52233 -20.3168,36.06741 -5.41466,2.49691 -7.56316,2.79749 -33.76893,4.72435 l -8.72075,0.64122 4.23659,5.69376 c 7.05529,9.48193 13.66596,24.36622 13.9983,31.51796 0.14008,3.01432 -0.11729,3.2367 -9.2309,7.97575 -15.78492,8.20812 -34.89725,14.54217 -53.4375,17.70982 -8.06331,1.37764 -38.15937,2.54404 -44.0625,1.70768 z m 49.40698,-71.75836 c 3.84874,-0.8209 5.88316,-1.97227 9.02995,-5.11045 2.46092,-2.45418 3.93441,-4.71305 3.73838,-5.73096 -0.36866,-1.91424 -10.93807,-6.66329 -15.0838,-6.77746 -2.34695,-0.0646 -2.53666,-0.31881 -1.97749,-2.64961 0.34018,-1.41797 0.66462,-2.59409 0.72099,-2.6136 17.67212,-6.11744 32.14509,-17.02475 41.22324,-31.0672 4.75559,-7.35612 9.55674,-18.46769 10.48586,-24.26794 l 0.59138,-3.69189 -5.03638,0.30936 c -4.69818,0.28858 -5.03429,0.46941 -5.00525,2.69282 0.0202,1.5426 -0.90266,3.08716 -2.61573,4.37814 -2.23603,1.68506 -3.93523,1.99468 -10.94688,1.99468 -7.01166,0 -8.71086,-0.30962 -10.94688,-1.99468 -1.75367,-1.32157 -2.6344,-2.8243 -2.60992,-4.45313 l 0.0369,-2.45844 -9.8807,-0.004 c -14.18098,-0.005 -17.73174,-2.48859 -18.75801,-13.12125 -0.49336,-5.11146 -0.53229,-5.1672 -4.48206,-6.41708 -3.33743,-1.05613 -4.63131,-1.05613 -7.96875,0 -3.94977,1.24988 -3.98869,1.30562 -4.48205,6.41708 -0.98195,10.17338 -4.76838,13.1162 -16.88303,13.12149 l -8.0057,0.004 0.0369,2.45845 c 0.0245,1.62882 -0.85624,3.13156 -2.60991,4.45312 -2.23601,1.68482 -3.93521,1.99444 -10.94686,1.99444 -7.01166,0 -8.71086,-0.30962 -10.94688,-1.99468 -1.75367,-1.32157 -2.6344,-2.8243 -2.60992,-4.45313 0.0362,-2.40571 -0.0945,-2.45851 -6.09375,-2.46195 -6.54042,-0.004 -11.19572,-1.94756 -13.07531,-5.4596 -2.42863,-4.53793 -3.97797,-10.93576 -3.42261,-14.13334 0.32212,-1.85477 0.90617,-5.69261 1.29788,-8.52855 0.88511,-6.40811 2.26348,-8.96816 6.08229,-11.29666 2.77789,-1.6938 4.9104,-1.82158 30.45548,-1.82483 30.37133,-0.004 31.42078,0.17351 34.91327,5.90138 1.06089,1.73992 1.83151,4.68983 1.83354,7.01872 0.003,3.68091 0.15537,3.93608 1.81688,3.04687 0.99735,-0.53376 3.9782,-0.97048 6.62413,-0.97048 2.64592,0 5.62678,0.43672 6.62413,0.97048 1.6615,0.88921 1.81366,0.63404 1.81687,-3.04687 0.002,-2.32889 0.77265,-5.2788 1.83355,-7.01872 3.4895,-5.72299 4.55972,-5.90489 34.74052,-5.90489 17.02279,0 27.97816,0.36525 29.10906,0.97048 1.71295,0.91675 1.81337,0.60526 1.81337,-5.625 l 0,-6.59548 -27.50629,0 c -24.44331,0 -28.33205,-0.2094 -34.92187,-1.88047 -18.98132,-4.81336 -35.02635,-17.77729 -43.62839,-35.2505 l -2.95568,-6.00384 -2.9899,7.27052 c -5.55412,13.50593 -11.38617,22.95853 -19.71071,31.94724 -6.48602,7.0035 -11.69247,10.77037 -17.14392,12.40368 -14.83372,4.44428 -21.99725,24.78852 -13.73703,39.01278 2.65739,4.5761 8.90786,10.18765 12.9976,11.66902 2.33739,0.84665 3.29205,2.12218 5.08654,6.79629 6.96553,18.14304 22.80009,34.53994 40.44715,41.88356 6.11544,2.54487 6.16769,2.58741 6.86439,5.58922 0.50218,2.16372 0.13289,2.47272 -4.80758,4.02274 -7.92333,2.48585 -8.06725,2.62816 -6.46048,6.38801 1.97762,4.62769 6.48571,8.43399 11.62602,9.81616 5.76308,1.54964 39.49144,1.75021 46.40338,0.27595 z m -32.21076,-54.17672 c -3.88799,-1.25636 -8.28997,-4.11271 -8.28997,-5.37919 0,-1.96114 1.53207,-2.22431 4.45632,-0.76551 4.8918,2.44035 12.81556,3.45102 18.62974,2.37622 2.90045,-0.53618 6.53763,-1.60548 8.08262,-2.37622 5.72828,-2.85764 6.16132,1.0127 0.47194,4.21809 -3.24635,1.82897 -5.54724,2.28987 -12.42187,2.48821 -4.64063,0.13388 -9.55857,-0.11884 -10.92878,-0.5616 z m -48.60247,-74.13864 c 0,-1.78571 0.625,-1.875 13.125,-1.875 12.49999,0 13.125,0.0893 13.125,1.875 0,1.78571 -0.62501,1.875 -13.125,1.875 -12.5,0 -13.125,-0.0892 -13.125,-1.875 z m 86.25,0 c 0,-1.78571 0.625,-1.875 13.125,-1.875 12.49999,0 13.125,0.0893 13.125,1.875 0,1.78571 -0.62501,1.875 -13.125,1.875 -12.5,0 -13.125,-0.0892 -13.125,-1.875 z m -50.66405,40.18564 c 2.06963,-0.72148 3.47379,-2.07087 4.35864,-4.18865 1.69438,-4.0552 1.67791,-15.47817 -0.0282,-19.56145 -2.05818,-4.92593 -4.90574,-5.37059 -32.15025,-5.02054 -28.77027,0.36967 -26.98288,-0.48245 -26.6567,12.70824 0.32122,12.99019 0.78634,14.98228 3.75183,16.06901 3.60305,1.32038 46.93425,1.31473 50.72466,-0.007 z m -26.91408,-8.30036 c -2.62603,-1.60112 -3.04687,-2.37949 -3.04687,-5.63528 0,-3.25579 0.42084,-4.03416 3.04687,-5.63527 1.84571,-1.12535 4.71004,-1.85772 7.26563,-1.85772 2.55559,0 5.41992,0.73237 7.26562,1.85772 2.62603,1.60111 3.04688,2.37948 3.04688,5.63527 0,3.25579 -0.42085,4.03416 -3.04688,5.63528 -1.8457,1.12534 -4.71003,1.85771 -7.26562,1.85771 -2.55559,0 -5.41992,-0.73237 -7.26563,-1.85771 z m 116.91408,8.30036 c 2.06963,-0.72148 3.47379,-2.07087 4.35864,-4.18865 1.69438,-4.0552 1.67791,-15.47817 -0.0282,-19.56145 -2.05827,-4.92611 -4.90522,-5.37059 -32.1577,-5.02054 -28.70641,0.36873 -27.53748,-0.14256 -28.1922,12.33147 -0.52531,10.00834 0.78511,14.38765 4.83213,16.14863 3.82919,1.6662 46.54557,1.90865 51.18731,0.29054 z m -36.28908,-8.30036 c -2.62603,-1.60112 -3.04687,-2.37949 -3.04687,-5.63528 0,-3.25579 0.42084,-4.03416 3.04687,-5.63527 1.84571,-1.12535 4.71004,-1.85772 7.26563,-1.85772 2.55559,0 5.41992,0.73237 7.26562,1.85772 2.62603,1.60111 3.04688,2.37948 3.04688,5.63527 0,3.25579 -0.42085,4.03416 -3.04688,5.63528 -1.8457,1.12534 -4.71003,1.85771 -7.26562,1.85771 -2.55559,0 -5.41992,-0.73237 -7.26563,-1.85771 z"
       id="path4285"
       inkscape:connector-curvature="0" />
    <path
       style="fill:#f1b1b1"
       d="m -311.32498,374.6393 c -15.60964,-1.63167 -32.27553,-5.77911 -49.05889,-12.20869 l -7.23973,-2.7735 0.57273,-4.39497 c 1.69252,-12.98796 9.09077,-30.59255 16.87709,-40.16004 l 3.92883,-4.82757 -8.1371,-0.46823 c -4.47541,-0.25752 -10.03554,-0.52055 -12.35585,-0.58452 -18.42109,-0.50785 -33.15082,-15.97332 -33.10718,-34.76086 0.0155,-6.64941 0.61985,-8.66043 11.12971,-37.03125 l 11.11338,-30 0.58241,-34.6875 c 0.5694,-33.91246 0.63832,-34.88244 3.08435,-43.41227 9.92959,-34.626585 35.1571,-59.701866 69.74406,-69.323195 8.37712,-2.330331 10.59388,-2.551454 25.57827,-2.551454 14.98439,0 17.20114,0.221123 25.57827,2.551454 34.58819,9.621671 59.83032,34.712839 69.74029,69.323195 2.4289,8.48289 2.51339,9.63445 3.04754,41.53727 l 0.54937,32.8125 11.0554,30 c 6.1081,16.575 11.38877,32.43531 11.80037,35.44202 2.05379,15.00264 -6.1138,29.50522 -20.3168,36.07505 -5.50625,2.547 -10.65655,3.23798 -33.72008,4.52402 l -9.60938,0.53583 3.04688,3.55971 c 6.96195,8.13371 15.54517,26.18724 15.97258,33.59592 l 0.19931,3.45495 -11.62944,5.85703 c -29.71251,14.96439 -65.07647,21.40116 -98.42639,17.9151 z m 55.00782,-71.63436 c 4.0263,-1.68189 8.24475,-5.43272 10.09751,-8.97822 1.27996,-2.44936 1.25115,-2.48213 -4.41889,-5.02669 -3.13898,-1.4087 -7.34235,-2.78058 -9.3408,-3.04862 -1.99846,-0.26805 -3.63356,-0.61529 -3.63356,-0.77165 0,-0.15635 0.39517,-1.32365 0.87815,-2.594 0.61794,-1.62529 2.22584,-2.75735 5.42606,-3.8203 19.29442,-6.40858 38.30071,-26.24691 44.81298,-46.77481 3.34429,-10.54181 3.33869,-10.5617 -2.86965,-10.17531 -4.56021,0.28382 -5.12535,0.53484 -4.64083,2.06142 1.50179,4.73174 -9.67774,8.63679 -18.84958,6.58423 -5.98859,-1.34019 -9.20979,-3.91889 -8.33566,-6.67302 0.54995,-1.73276 0.0662,-1.82705 -9.3736,-1.82705 -7.15262,0 -10.74348,-0.40852 -12.76088,-1.45176 -4.14849,-2.14527 -6.46685,-6.57295 -6.47099,-12.3585 -0.003,-4.56018 -0.18426,-4.95129 -2.58163,-5.5782 -3.29716,-0.8622 -8.42159,-0.8622 -11.71875,0 -2.39688,0.62679 -2.57855,1.01895 -2.5843,5.5782 -0.007,5.49883 -1.91755,9.19441 -6.22004,12.03099 -2.11304,1.39311 -4.42887,1.76823 -10.94634,1.77309 -7.766,0.006 -8.2312,0.11676 -7.68642,1.83323 1.53009,4.82087 -9.54761,8.7484 -18.82139,6.67302 -5.98859,-1.34019 -9.20979,-3.91889 -8.33566,-6.67302 0.53492,-1.68541 0.099,-1.82705 -5.6236,-1.82705 -9.56184,0 -12.84611,-2.42205 -16.0398,-11.82885 -0.92611,-2.7278 -1.27004,-5.67469 -0.90654,-7.7676 0.32212,-1.85477 0.90617,-5.69261 1.29788,-8.52855 0.88511,-6.40811 2.26348,-8.96816 6.08229,-11.29666 2.77979,-1.69495 4.90604,-1.82115 30.6433,-1.81865 25.51671,0.003 27.86358,0.13935 30.33628,1.76958 3.99617,2.63462 6.21302,6.58649 6.22004,11.08815 0.006,3.86392 0.0652,3.93872 2.41096,3.04688 3.08421,-1.17262 8.98122,-1.17262 12.06544,0 2.34594,0.89193 2.40486,0.81737 2.40828,-3.04688 0.002,-2.27313 0.78337,-5.24019 1.83355,-6.96253 3.4895,-5.72299 4.55972,-5.90489 34.74052,-5.90489 17.02279,0 27.97816,0.36525 29.10906,0.97048 1.71295,0.91675 1.81337,0.60526 1.81337,-5.625 l 0,-6.59548 -27.42188,-0.0139 c -21.00046,-0.0106 -28.81203,-0.34158 -33.35834,-1.41336 -11.99864,-2.82863 -22.10941,-8.36728 -31.37695,-17.18824 -6.36312,-6.05648 -9.86624,-10.84686 -13.94748,-19.07265 l -2.87023,-5.78498 -3.1313,7.76203 c -8.65226,21.44772 -23.42058,39.20044 -36.71999,44.14041 -22.18347,8.2399 -23.39453,39.2496 -1.96124,50.21848 3.72063,1.9041 4.59137,2.9058 5.86864,6.7513 5.78743,17.42434 23.36768,35.54493 41.72253,43.0049 4.05086,1.64639 5.33952,2.67554 5.87981,4.69573 0.38056,1.42298 0.60041,2.63027 0.48855,2.68287 -0.11185,0.0526 -2.52368,0.81239 -5.35962,1.68843 -6.94948,2.14674 -7.83455,2.81046 -7.04885,5.28599 1.06267,3.34817 6.28992,8.66276 10.32205,10.49452 3.28559,1.49262 6.50209,1.70983 25.58504,1.72783 17.64662,0.0166 22.49454,-0.25826 25.3125,-1.43539 z m -35.88949,-54.42123 c -4.29385,-1.5688 -7.53957,-4.41685 -6.65841,-5.8426 0.38826,-0.62822 2.16745,-0.27659 5.03565,0.99522 3.3718,1.4951 6.34596,1.96667 12.40401,1.96667 6.05805,0 9.03221,-0.47157 12.404,-1.96667 4.79939,-2.12813 6.71171,-1.33183 3.99931,1.66533 -3.93501,4.34815 -19.12603,6.1263 -27.18456,3.18205 z m -47.34375,-73.49779 c 0,-1.78571 0.625,-1.875 13.125,-1.875 12.49999,0 13.125,0.0893 13.125,1.875 0,1.78571 -0.62501,1.875 -13.125,1.875 -12.5,0 -13.125,-0.0892 -13.125,-1.875 z m 86.25,0 c 0,-1.78571 0.625,-1.875 13.125,-1.875 12.49999,0 13.125,0.0893 13.125,1.875 0,1.78571 -0.62501,1.875 -13.125,1.875 -12.5,0 -13.125,-0.0892 -13.125,-1.875 z m -47.60265,38.64583 c 1.96014,-1.96153 2.1339,-2.97091 2.1339,-12.39583 0,-15.4872 2.00441,-14.53125 -30.46875,-14.53125 -32.29107,0 -29.76611,-1.34124 -29.07514,15.44446 0.4655,11.30853 0.55873,11.73424 2.82514,12.90001 1.77514,0.91309 8.4219,1.14642 27.39735,0.9618 24.66618,-0.24 25.0866,-0.27679 27.1875,-2.37919 z m -30.13792,-7.32291 c -6.07388,-5.11084 -1.66529,-12.57292 7.42807,-12.57292 3.52038,0 5.19323,0.5466 7.42806,2.42709 6.07389,5.11083 1.66529,12.57291 -7.42806,12.57291 -3.52038,0 -5.19324,-0.5466 -7.42807,-2.42708 z m 120.13792,7.32291 c 1.96014,-1.96153 2.1339,-2.97091 2.1339,-12.39583 0,-15.4872 2.00441,-14.53125 -30.46875,-14.53125 -32.11121,0 -30.32193,-0.77916 -30.734,13.38354 -0.29086,9.9972 0.59812,12.95227 4.50248,14.96675 1.75573,0.90588 8.46179,1.14003 27.37887,0.95598 24.66618,-0.24 25.0866,-0.27679 27.1875,-2.37919 z m -39.51292,-7.32291 c -6.07388,-5.11084 -1.66529,-12.57292 7.42807,-12.57292 3.52038,0 5.19323,0.5466 7.42806,2.42709 6.07389,5.11083 1.66529,12.57291 -7.42806,12.57291 -3.52038,0 -5.19324,-0.5466 -7.42807,-2.42708 z"
       id="path4283"
       inkscape:connector-curvature="0" />
    <path
       style="fill:#f48d96"
       d="m -306.7379,374.72434 c -16.96033,-1.23228 -34.16807,-5.11199 -50.2858,-11.3376 l -9.9312,-3.83601 0.63308,-5.59566 c 1.33591,-11.80783 7.28061,-26.17032 15.49991,-37.44801 l 4.54422,-6.23513 -8.12072,-0.46692 c -4.46641,-0.25681 -10.01918,-0.51926 -12.33949,-0.58323 -18.42109,-0.50785 -33.15082,-15.97332 -33.10718,-34.76086 0.0155,-6.64941 0.61985,-8.66043 11.12971,-37.03125 l 11.11338,-30 0.58241,-34.6875 c 0.5694,-33.91246 0.63832,-34.88244 3.08435,-43.41227 9.92959,-34.626585 35.1571,-59.701866 69.74406,-69.323195 8.37712,-2.330331 10.59388,-2.551454 25.57827,-2.551454 14.98439,0 17.20114,0.221123 25.57827,2.551454 34.58819,9.621671 59.83032,34.712839 69.74029,69.323195 2.4289,8.48289 2.51339,9.63445 3.04754,41.53727 l 0.54937,32.8125 11.0554,30 c 6.1081,16.575 11.38877,32.43531 11.80037,35.44202 2.05379,15.00264 -6.1138,29.50522 -20.3168,36.07505 -5.50098,2.54456 -10.62656,3.23343 -33.64485,4.52186 l -9.53416,0.53367 4.55139,6.24495 c 2.50328,3.43472 6.00746,9.19808 7.78708,12.80745 3.51453,7.12806 7.58741,19.70619 6.79574,20.98712 -0.90757,1.4685 -21.52593,11.10936 -31.00339,14.49677 -16.47641,5.88895 -29.76684,8.6375 -48.28125,9.98486 -6.96094,0.50657 -13.5,0.86368 -14.53125,0.79359 -1.03125,-0.0701 -6.30469,-0.4493 -11.71875,-0.84267 z m 51.34544,-71.71442 c 5.79427,-2.421 11.91475,-9.72631 9.86561,-11.77545 -1.51164,-1.51164 -12.78024,-5.52355 -15.51449,-5.52355 -2.36167,0 -2.61848,-0.26289 -2.06062,-2.10937 0.87446,-2.89434 1.16771,-3.12227 6.70234,-5.2094 9.74936,-3.67651 17.53142,-8.81869 25.68409,-16.97136 10.32086,-10.32086 16.78194,-21.66828 20.06584,-35.24112 l 1.13413,-4.6875 -29.3763,0 -29.37631,0 -3.46847,-3.46798 c -3.07046,-3.07002 -3.51512,-4.11276 -3.87491,-9.08684 -0.38109,-5.26856 -0.58371,-5.68065 -3.25003,-6.61014 -3.61171,-1.25905 -7.14093,-1.25905 -10.75264,0 -2.66633,0.92949 -2.86895,1.34158 -3.25003,6.61014 -0.35978,4.97379 -0.80457,6.017 -3.87442,9.08684 l -3.46798,3.46798 -28.9948,0 -28.99481,0 -3.20205,-3.10355 c -3.62896,-3.51733 -6.94807,-12.69588 -5.8872,-16.2803 0.35464,-1.19826 1.01206,-4.88105 1.46092,-8.18399 0.69259,-5.09631 1.32619,-6.51541 4.18578,-9.375 l 3.36965,-3.36966 29.03126,0 29.03125,0 3.42587,3.42587 c 2.82333,2.82333 3.50702,4.27041 3.88726,8.2277 0.42481,4.42103 0.61902,4.74411 2.44913,4.07413 1.09326,-0.40024 3.88618,-0.7277 6.20649,-0.7277 2.32031,0 5.11323,0.32746 6.20648,0.7277 1.83011,0.66998 2.02433,0.3469 2.44914,-4.07413 0.38016,-3.95648 1.06427,-5.40494 3.88588,-8.2277 l 3.42449,-3.42587 27.31802,-0.27561 c 16.41125,-0.16559 28.38312,0.0957 29.98576,0.65435 l 2.66773,0.92997 0,-6.51373 0,-6.51373 -26.28953,0 c -20.32777,0 -27.91847,-0.33647 -33.4727,-1.48372 -20.46744,-4.22767 -38.00902,-18.29779 -46.82787,-37.56069 l -2.3967,-5.23509 -2.50619,6.44146 c -3.96609,10.1937 -10.31161,21.39278 -16.6966,29.46751 -6.04091,7.63958 -15.44842,15.45312 -19.82071,16.46236 -10.36626,2.39281 -18.22001,13.43183 -18.25459,25.65817 -0.0299,10.59434 5.18577,19.39361 14.40951,24.30982 3.08296,1.6432 5.60384,3.49023 5.60196,4.10453 -0.002,0.6143 2.18673,5.54659 4.86359,10.96065 4.27257,8.64147 5.9619,10.93523 13.83154,18.78032 7.41661,7.39347 10.47172,9.70027 17.69308,13.35937 4.80071,2.43255 9.2946,4.42281 9.98642,4.42281 0.69182,0 1.72101,1.32858 2.28707,2.95239 1.30472,3.7427 1.32719,3.60997 -0.61141,3.61087 -1.79485,8.4e-4 -10.08299,2.97286 -11.08512,3.97498 -1.07567,1.07568 0.4322,5.12936 3.07732,8.27291 5.02355,5.97016 7.49773,6.4578 32.88167,6.48076 18.46087,0.0167 23.421,-0.25372 26.2372,-1.43041 z m -35.6338,-54.258 c -5.15404,-1.83949 -8.22715,-4.09725 -7.6443,-5.61612 0.41698,-1.08663 1.28607,-0.96732 4.89174,0.67152 3.37063,1.53202 6.2276,1.99291 12.35342,1.99291 6.12582,0 8.98279,-0.46089 12.35342,-1.99291 3.60567,-1.63884 4.47476,-1.75815 4.89174,-0.67152 0.58284,1.51887 -2.49026,3.77663 -7.6443,5.61612 -4.50764,1.60879 -14.69408,1.60879 -19.20172,0 z m -48.08937,-72.78347 c -1.38558,-2.24193 1.54338,-2.80678 13.23505,-2.55235 10.02357,0.21814 12.11143,0.50599 12.11143,1.66982 0,1.16562 -2.11327,1.45092 -12.35004,1.66734 -8.33762,0.17625 -12.56005,-0.0787 -12.99644,-0.78481 z m 86.25,0 c -1.38558,-2.24193 1.54338,-2.80678 13.23505,-2.55235 10.02357,0.21814 12.11143,0.50599 12.11143,1.66982 0,1.16562 -2.11327,1.45092 -12.35004,1.66734 -8.33762,0.17625 -12.56005,-0.0787 -12.99644,-0.78481 z m -49.80101,39.32659 c 3.3854,-1.54249 4.36624,-4.67829 4.36624,-13.95912 0,-9.28083 -0.98084,-12.41662 -4.36624,-13.95912 -3.13377,-1.42784 -50.00875,-1.42784 -53.14252,0 -1.25646,0.57248 -2.75608,2.07592 -3.33248,3.34098 -0.63373,1.39088 -0.6746,2.06932 -0.10338,1.71629 0.61358,-0.37921 0.94462,3.19526 0.94462,10.19961 0,10.08052 0.13581,10.87855 2.0836,12.24283 1.75726,1.23083 5.93514,1.45941 26.67463,1.45941 16.02555,0 25.38677,-0.36256 26.87553,-1.04088 z m -27.6045,-8.60583 c -2.58303,-1.74072 -3.18551,-2.75319 -3.18551,-5.35329 0,-2.6001 0.60248,-3.61257 3.18551,-5.35328 1.89587,-1.27763 4.59143,-2.14672 6.65824,-2.14672 2.0668,0 4.76237,0.86909 6.65824,2.14672 2.58302,1.74071 3.18551,2.75318 3.18551,5.35328 0,2.6001 -0.60249,3.61257 -3.18551,5.35329 -1.89587,1.27762 -4.59144,2.14671 -6.65824,2.14671 -2.06681,0 -4.76237,-0.86909 -6.65824,-2.14671 z m 117.6045,8.60583 c 3.3854,-1.54249 4.36624,-4.67829 4.36624,-13.95912 0,-9.28083 -0.98084,-12.41662 -4.36624,-13.95912 -3.13377,-1.42784 -50.00875,-1.42784 -53.14252,0 -3.3854,1.5425 -4.36624,4.67829 -4.36624,13.95912 0,9.05566 0.98377,12.3988 4.09132,13.90351 2.82966,1.37015 50.4236,1.41969 53.41744,0.0556 z m -36.9795,-8.60583 c -2.58303,-1.74072 -3.18551,-2.75319 -3.18551,-5.35329 0,-2.6001 0.60248,-3.61257 3.18551,-5.35328 1.89587,-1.27763 4.59143,-2.14672 6.65824,-2.14672 2.0668,0 4.76237,0.86909 6.65824,2.14672 2.58302,1.74071 3.18551,2.75318 3.18551,5.35328 0,2.6001 -0.60249,3.61257 -3.18551,5.35329 -1.89587,1.27762 -4.59144,2.14671 -6.65824,2.14671 -2.06681,0 -4.76237,-0.86909 -6.65824,-2.14671 z"
       id="path4281"
       inkscape:connector-curvature="0" />
    <path
       style="fill:#de887e"
       d="m -370.4879,308.89768 c -10.01174,-1.39703 -20.93851,-9.04597 -25.42429,-17.79749 -3.04507,-5.94079 -4.79726,-14.41142 -4.0899,-19.77191 0.35098,-2.65986 5.5346,-18.12517 11.51913,-34.36736 l 10.88097,-29.53125 0.58241,-34.6875 c 0.5694,-33.91246 0.63832,-34.88244 3.08435,-43.41227 9.92959,-34.626585 35.1571,-59.701866 69.74406,-69.323195 8.37712,-2.330331 10.59388,-2.551454 25.57827,-2.551454 14.98439,0 17.20114,0.221123 25.57827,2.551454 34.58819,9.621671 59.83032,34.712839 69.74029,69.323195 2.4289,8.48289 2.51339,9.63445 3.04754,41.53727 l 0.54937,32.8125 11.0554,30 c 6.1081,16.575 11.38877,32.43531 11.80037,35.44202 2.05379,15.00264 -6.1138,29.50522 -20.3168,36.07505 -5.50786,2.54774 -10.66557,3.23935 -33.74305,4.52468 l -9.63235,0.53649 -5.97771,-5.59185 c -9.29353,-8.69364 -24.52304,-17.24661 -34.48951,-19.36949 -4.37188,-0.93121 -2.05543,-4.21482 4.9854,-7.06688 10.57879,-4.28519 17.04557,-8.58552 25.30015,-16.82431 10.31902,-10.29927 16.77862,-21.63914 20.06584,-35.22571 l 1.13413,-4.6875 -29.3763,0 -29.37631,0 -3.46847,-3.46798 c -3.07046,-3.07002 -3.51512,-4.11276 -3.87491,-9.08684 -0.38109,-5.26856 -0.58371,-5.68065 -3.25003,-6.61014 -3.61171,-1.25905 -7.14093,-1.25905 -10.75264,0 -2.66633,0.92949 -2.86895,1.34158 -3.25003,6.61014 -0.35978,4.97379 -0.80457,6.017 -3.87442,9.08684 l -3.46798,3.46798 -28.9948,0 -28.99481,0 -3.24196,-3.14224 c -2.36351,-2.2908 -3.63196,-4.69042 -4.68122,-8.85581 -0.7916,-3.14246 -1.23507,-6.04396 -0.98551,-6.44776 0.24957,-0.40381 0.81612,-3.96541 1.25901,-7.91467 0.72959,-6.50577 1.12342,-7.49864 4.19102,-10.56626 l 3.38576,-3.38576 29.03126,0 29.03125,0 3.42587,3.42587 c 2.82333,2.82333 3.50702,4.27041 3.88726,8.2277 0.42481,4.42103 0.61902,4.74411 2.44913,4.07413 1.09326,-0.40024 3.88618,-0.7277 6.20649,-0.7277 2.32031,0 5.11323,0.32746 6.20648,0.7277 1.83011,0.66998 2.02433,0.3469 2.44914,-4.07413 0.38016,-3.95648 1.06427,-5.40494 3.88588,-8.2277 l 3.42449,-3.42587 27.31802,-0.27561 c 16.41125,-0.16559 28.38312,0.0957 29.98576,0.65435 l 2.66773,0.92997 0,-6.51373 0,-6.51373 -26.28953,0 c -20.32777,0 -27.91847,-0.33647 -33.4727,-1.48372 -20.46744,-4.22767 -38.00902,-18.29779 -46.82787,-37.56069 l -2.3967,-5.23509 -2.50619,6.44146 c -3.96609,10.1937 -10.31161,21.39278 -16.6966,29.46751 -6.04091,7.63958 -15.44842,15.45312 -19.82071,16.46236 -10.36626,2.39281 -18.22001,13.43183 -18.25459,25.65817 -0.0299,10.59434 5.18577,19.39361 14.40951,24.30982 3.08296,1.6432 5.60384,3.49023 5.60196,4.10453 -0.002,0.6143 2.18673,5.54659 4.86359,10.96065 4.27257,8.64147 5.9619,10.93523 13.83154,18.78032 7.41661,7.39347 10.47172,9.70027 17.69308,13.35937 4.80071,2.43255 9.2946,4.42281 9.98642,4.42281 0.69182,0 1.72101,1.32858 2.28707,2.95239 1.32116,3.78987 1.37672,3.60149 -1.08016,3.66249 -5.67489,0.14092 -24.05036,10.52691 -32.55361,18.39962 l -6.34741,5.87673 -9.72917,-0.21124 c -5.35105,-0.11619 -12.04949,-0.53501 -14.88543,-0.93073 z m 67.82126,-93.60264 c 3.3854,-1.54249 4.36624,-4.67829 4.36624,-13.95912 0,-9.28083 -0.98084,-12.41662 -4.36624,-13.95912 -3.13377,-1.42784 -50.00875,-1.42784 -53.14252,0 -2.3544,1.07273 -5.10081,5.52162 -3.40864,5.52162 0.54231,0 0.9174,4.19463 0.9174,10.25934 0,9.53895 0.1463,10.36182 2.0836,11.71875 1.75726,1.23083 5.93514,1.45941 26.67463,1.45941 16.02555,0 25.38677,-0.36256 26.87553,-1.04088 z m -27.6045,-8.60583 c -2.58303,-1.74072 -3.18551,-2.75319 -3.18551,-5.35329 0,-2.6001 0.60248,-3.61257 3.18551,-5.35328 1.89587,-1.27763 4.59143,-2.14672 6.65824,-2.14672 2.0668,0 4.76237,0.86909 6.65824,2.14672 2.58302,1.74071 3.18551,2.75318 3.18551,5.35328 0,2.6001 -0.60249,3.61257 -3.18551,5.35329 -1.89587,1.27762 -4.59144,2.14671 -6.65824,2.14671 -2.06681,0 -4.76237,-0.86909 -6.65824,-2.14671 z m 117.6045,8.60583 c 3.3854,-1.54249 4.36624,-4.67829 4.36624,-13.95912 0,-9.28083 -0.98084,-12.41662 -4.36624,-13.95912 -3.13377,-1.42784 -50.00875,-1.42784 -53.14252,0 -3.3854,1.5425 -4.36624,4.67829 -4.36624,13.95912 0,9.05566 0.98377,12.3988 4.09132,13.90351 2.82966,1.37015 50.4236,1.41969 53.41744,0.0556 z m -36.9795,-8.60583 c -2.58303,-1.74072 -3.18551,-2.75319 -3.18551,-5.35329 0,-2.6001 0.60248,-3.61257 3.18551,-5.35328 1.89587,-1.27763 4.59143,-2.14672 6.65824,-2.14672 2.0668,0 4.76237,0.86909 6.65824,2.14672 2.58302,1.74071 3.18551,2.75318 3.18551,5.35328 0,2.6001 -0.60249,3.61257 -3.18551,5.35329 -1.89587,1.27762 -4.59144,2.14671 -6.65824,2.14671 -2.06681,0 -4.76237,-0.86909 -6.65824,-2.14671 z m -41.38012,42.06271 c -5.15404,-1.83949 -8.22715,-4.09725 -7.6443,-5.61612 0.41698,-1.08663 1.28607,-0.96732 4.89174,0.67152 3.37063,1.53202 6.2276,1.99291 12.35342,1.99291 6.12582,0 8.98279,-0.46089 12.35342,-1.99291 3.60567,-1.63884 4.47476,-1.75815 4.89174,-0.67152 0.58284,1.51887 -2.49026,3.77663 -7.6443,5.61612 -4.50764,1.60879 -14.69408,1.60879 -19.20172,0 z m -48.08937,-72.78347 c -1.38558,-2.24193 1.54338,-2.80678 13.23505,-2.55235 10.02357,0.21814 12.11143,0.50599 12.11143,1.66982 0,1.16562 -2.11327,1.45092 -12.35004,1.66734 -8.33762,0.17625 -12.56005,-0.0787 -12.99644,-0.78481 z m 86.25,0 c -1.38558,-2.24193 1.54338,-2.80678 13.23505,-2.55235 10.02357,0.21814 12.11143,0.50599 12.11143,1.66982 0,1.16562 -2.11327,1.45092 -12.35004,1.66734 -8.33762,0.17625 -12.56005,-0.0787 -12.99644,-0.78481 z"
       id="path4279"
       inkscape:connector-curvature="0" />
    <path
       style="fill:#a09596"
       d="m -370.4879,308.89768 c -10.01174,-1.39703 -20.93851,-9.04597 -25.42429,-17.79749 -3.04507,-5.94079 -4.79726,-14.41142 -4.0899,-19.77191 0.35098,-2.65986 5.5346,-18.12517 11.51913,-34.36736 l 10.88097,-29.53125 0.58241,-34.6875 c 0.5694,-33.91246 0.63832,-34.88244 3.08435,-43.41227 9.92959,-34.626585 35.1571,-59.701866 69.74406,-69.323195 8.37712,-2.330331 10.59388,-2.551454 25.57827,-2.551454 14.98439,0 17.20114,0.221123 25.57827,2.551454 34.58819,9.621671 59.83032,34.712839 69.74029,69.323195 2.4289,8.48289 2.51339,9.63445 3.04754,41.53727 l 0.54937,32.8125 11.0554,30 c 6.1081,16.575 11.38877,32.43531 11.80037,35.44202 2.05379,15.00264 -6.1138,29.50522 -20.3168,36.07505 -5.50868,2.54812 -10.67013,3.24004 -33.75472,4.52502 l -9.64402,0.53683 -4.97009,-4.83062 c -8.99008,-8.7378 -21.35828,-16.22736 -31.75749,-19.23074 -6.18163,-1.78531 -7.37556,-4.43062 -2.8125,-6.2315 1.41797,-0.55962 6.58594,-2.96407 11.48438,-5.34323 7.50109,-3.64327 10.25269,-5.66125 17.44038,-12.79054 10.79721,-10.70948 17.16405,-21.76996 20.52283,-35.65229 l 1.13413,-4.6875 -29.3763,0 -29.37631,0 -3.46847,-3.46798 c -3.07046,-3.07002 -3.51512,-4.11276 -3.87491,-9.08684 -0.38109,-5.26856 -0.58371,-5.68065 -3.25003,-6.61014 -3.61171,-1.25905 -7.14093,-1.25905 -10.75264,0 -2.66633,0.92949 -2.86895,1.34158 -3.25003,6.61014 -0.35978,4.97379 -0.80457,6.017 -3.87442,9.08684 l -3.46798,3.46798 -29.03125,0 -29.03126,0 -3.53124,-3.53125 -3.53125,-3.53125 0,-13.09375 0,-13.09375 3.53125,-3.53125 3.53124,-3.53125 29.03126,0 29.03125,0 3.42587,3.42587 c 2.82333,2.82333 3.50702,4.27041 3.88726,8.2277 0.42481,4.42103 0.61902,4.74411 2.44913,4.07413 1.09326,-0.40024 3.88618,-0.7277 6.20649,-0.7277 2.32031,0 5.11323,0.32746 6.20648,0.7277 1.83011,0.66998 2.02433,0.3469 2.44914,-4.07413 0.38016,-3.95648 1.06427,-5.40494 3.88588,-8.2277 l 3.42449,-3.42587 27.31802,-0.27561 c 16.41125,-0.16559 28.38312,0.0957 29.98576,0.65435 l 2.66773,0.92997 0,-6.51373 0,-6.51373 -26.28953,0 c -20.32777,0 -27.91847,-0.33647 -33.4727,-1.48372 -20.46744,-4.22767 -38.00902,-18.29779 -46.82787,-37.56069 l -2.3967,-5.23509 -2.50619,6.44146 c -3.96609,10.1937 -10.31161,21.39278 -16.6966,29.46751 -6.04091,7.63958 -15.44842,15.45312 -19.82071,16.46236 -10.36626,2.39281 -18.22001,13.43183 -18.25459,25.65817 -0.0299,10.59434 5.18577,19.39361 14.40951,24.30982 3.08296,1.6432 5.60384,3.49023 5.60196,4.10453 -0.002,0.6143 2.18673,5.54659 4.86359,10.96065 4.2639,8.62394 5.97786,10.95461 13.83154,18.80829 7.9216,7.9216 10.14789,9.5502 19.13595,13.99863 6.46957,3.20197 10.4386,5.73975 10.90555,6.97297 0.98043,2.58934 0.60517,3.02606 -3.21623,3.74296 -4.12072,0.77305 -16.44645,6.92317 -22.46537,11.20946 -2.53254,1.80352 -6.79094,5.40408 -9.46309,8.00124 l -4.85848,4.72214 -9.75565,-0.21223 c -5.3656,-0.11672 -12.07595,-0.53598 -14.91189,-0.9317 z m 67.82126,-93.60264 c 3.3854,-1.54249 4.36624,-4.67829 4.36624,-13.95912 0,-9.28083 -0.98084,-12.41662 -4.36624,-13.95912 -3.13377,-1.42784 -50.00875,-1.42784 -53.14252,0 -3.42632,1.56114 -4.36624,4.69204 -4.36624,14.5441 0,8.6247 0.0949,9.0292 2.74039,11.67463 l 2.74037,2.74039 24.87176,0 c 16.23128,0 25.66538,-0.3616 27.15624,-1.04088 z m -27.6045,-8.60583 c -2.58303,-1.74072 -3.18551,-2.75319 -3.18551,-5.35329 0,-2.6001 0.60248,-3.61257 3.18551,-5.35328 1.89587,-1.27763 4.59143,-2.14672 6.65824,-2.14672 2.0668,0 4.76237,0.86909 6.65824,2.14672 2.58302,1.74071 3.18551,2.75318 3.18551,5.35328 0,2.6001 -0.60249,3.61257 -3.18551,5.35329 -1.89587,1.27762 -4.59144,2.14671 -6.65824,2.14671 -2.06681,0 -4.76237,-0.86909 -6.65824,-2.14671 z m 117.6045,8.60583 c 3.3854,-1.54249 4.36624,-4.67829 4.36624,-13.95912 0,-9.28083 -0.98084,-12.41662 -4.36624,-13.95912 -3.13377,-1.42784 -50.00875,-1.42784 -53.14252,0 -3.3854,1.5425 -4.36624,4.67829 -4.36624,13.95912 0,9.05566 0.98377,12.3988 4.09132,13.90351 2.82966,1.37015 50.4236,1.41969 53.41744,0.0556 z m -36.9795,-8.60583 c -2.58303,-1.74072 -3.18551,-2.75319 -3.18551,-5.35329 0,-2.6001 0.60248,-3.61257 3.18551,-5.35328 1.89587,-1.27763 4.59143,-2.14672 6.65824,-2.14672 2.0668,0 4.76237,0.86909 6.65824,2.14672 2.58302,1.74071 3.18551,2.75318 3.18551,5.35328 0,2.6001 -0.60249,3.61257 -3.18551,5.35329 -1.89587,1.27762 -4.59144,2.14671 -6.65824,2.14671 -2.06681,0 -4.76237,-0.86909 -6.65824,-2.14671 z m -41.38012,42.06271 c -5.15404,-1.83949 -8.22715,-4.09725 -7.6443,-5.61612 0.41698,-1.08663 1.28607,-0.96732 4.89174,0.67152 3.37063,1.53202 6.2276,1.99291 12.35342,1.99291 6.12582,0 8.98279,-0.46089 12.35342,-1.99291 3.60567,-1.63884 4.47476,-1.75815 4.89174,-0.67152 0.58284,1.51887 -2.49026,3.77663 -7.6443,5.61612 -4.50764,1.60879 -14.69408,1.60879 -19.20172,0 z m -48.08937,-72.78347 c -1.38558,-2.24193 1.54338,-2.80678 13.23505,-2.55235 10.02357,0.21814 12.11143,0.50599 12.11143,1.66982 0,1.16562 -2.11327,1.45092 -12.35004,1.66734 -8.33762,0.17625 -12.56005,-0.0787 -12.99644,-0.78481 z m 86.25,0 c -1.38558,-2.24193 1.54338,-2.80678 13.23505,-2.55235 10.02357,0.21814 12.11143,0.50599 12.11143,1.66982 0,1.16562 -2.11327,1.45092 -12.35004,1.66734 -8.33762,0.17625 -12.56005,-0.0787 -12.99644,-0.78481 z"
       id="path4277"
       inkscape:connector-curvature="0" />
    <path
       style="fill:#947582"
       d="m -353.89101,309.49531 c -0.32484,-0.32483 -4.9303,-0.64124 -10.23437,-0.70312 -8.36105,-0.0976 -10.3568,-0.44672 -15.00446,-2.62508 -14.04859,-6.58456 -22.36153,-21.11915 -20.38003,-35.63302 0.37389,-2.73868 5.44433,-17.84661 11.26763,-33.57317 l 10.58783,-28.59375 0.61917,-34.6875 c 0.60167,-33.70726 0.68886,-34.93142 3.08554,-43.31883 5.55243,-19.43122 13.0301,-32.298176 26.46169,-45.533073 28.96015,-28.536066 74.83575,-35.998957 111.53136,-18.143553 11.32272,5.509427 18.26259,10.412352 26.94206,19.034188 12.16207,12.081312 20.78093,26.973298 25.67805,44.367518 2.43013,8.63164 2.52594,9.91797 3.10734,41.71875 l 0.59991,32.8125 11.17692,30 11.17693,30 0.0344,8.90625 c 0.0296,7.67818 -0.30185,9.62314 -2.40414,14.10528 -6.2286,13.27951 -18.63117,20.87614 -33.45599,20.49195 -3.46113,-0.0897 -7.48059,0.3158 -8.93213,0.9011 -1.45153,0.58529 -6.30309,1.05499 -10.78125,1.04378 l -8.14209,-0.0204 -4.6875,-4.72936 c -7.99239,-8.06376 -21.32243,-16.10871 -31.68067,-19.11993 -7.93545,-2.30691 -7.30446,-4.31201 2.61817,-8.31976 20.96009,-8.46581 37.37096,-27.12437 43.58747,-49.55741 2.35546,-8.49997 2.3648,-8.37017 -0.5235,-7.27204 -1.3488,0.51281 -13.59619,0.91366 -27.89063,0.91284 -22.41105,-9.4e-4 -25.87368,-0.19922 -28.70046,-1.64062 -4.7147,-2.4041 -6.86988,-5.90625 -7.37376,-11.98233 -0.49093,-5.91976 -1.82335,-7.00056 -8.63039,-7.00056 -6.80705,0 -8.13946,1.0808 -8.63037,7.00059 -0.50388,6.07608 -2.65906,9.57824 -7.37377,11.98233 -2.82968,1.44289 -6.30172,1.63917 -28.99586,1.63917 -28.35815,0 -30.01669,-0.28775 -34.15211,-5.92521 -1.72587,-2.35272 -1.94164,-3.98602 -1.94164,-14.69688 0,-10.71086 0.21577,-12.34416 1.94164,-14.69688 4.13542,-5.63746 5.79396,-5.9252 34.15211,-5.9252 22.69414,0 26.16618,0.19627 28.99586,1.63916 4.47953,2.28417 6.81553,5.87078 7.33329,11.25933 l 0.44235,4.60357 4.11425,-1.47948 c 3.74761,-1.34762 4.48089,-1.34762 8.22849,0 l 4.11425,1.47948 0.44235,-4.60357 c 0.51698,-5.38034 2.84536,-8.9622 7.3333,-11.2812 2.89322,-1.49498 5.88582,-1.63549 29.93336,-1.40541 14.69531,0.1406 27.45703,0.6168 28.35937,1.05822 1.48305,0.7255 1.64063,0.16942 1.64063,-5.78958 l 0,-6.59218 -29.29688,-0.34363 c -28.64545,-0.33598 -29.45901,-0.39806 -36.58879,-2.7919 -18.12518,-6.08559 -33.00842,-19.23984 -40.64728,-35.92531 l -2.47562,-5.40749 -2.9983,7.39791 c -6.0234,14.862 -11.10467,23.02391 -20.49769,32.92486 -7.44309,7.84559 -11.4877,10.75259 -17.44287,12.53681 -5.04592,1.5118 -11.72651,7.91021 -14.36852,13.76164 -2.75716,6.10647 -2.77081,16.77555 -0.0292,22.8457 2.42619,5.37177 8.56902,11.65193 13.60056,13.90462 3.3585,1.50365 4.08142,2.44884 6.5254,8.53183 7.04199,17.5273 22.44535,33.34604 39.21918,40.27679 5.49699,2.2713 7.5,4.03308 7.5,6.59676 0,1.05297 -1.03096,1.78538 -3.04687,2.16451 -7.88328,1.48263 -24.19856,11.25903 -32.10938,19.24049 -4.092,4.12854 -5.17382,4.73196 -8.51562,4.74976 -2.10547,0.0113 -4.0939,-0.24538 -4.41873,-0.57022 z m 53.28947,-95.46053 c 2.16654,-2.16653 2.30114,-2.9093 2.30114,-12.69886 0,-9.78956 -0.1346,-10.53232 -2.30114,-12.69886 l -2.30113,-2.30114 -26.33523,0 -26.33523,0 -2.30113,2.30114 c -2.13926,2.13925 -2.30114,2.96693 -2.30114,11.76531 0,9.49396 1.21938,14.20154 3.96465,15.30609 0.65538,0.26369 12.9178,0.51274 27.24983,0.55345 l 26.05825,0.074 2.30113,-2.30114 z m -28.62631,-6.7904 c -6.64749,-3.43371 -5.62617,-10.33732 1.86116,-12.58059 7.30313,-2.18807 15.10489,2.40639 13.686,8.05969 -1.2622,5.02903 -9.77258,7.50373 -15.54716,4.5209 z m 118.62631,6.7904 c 2.16654,-2.16653 2.30114,-2.9093 2.30114,-12.69886 0,-9.78956 -0.1346,-10.53232 -2.30114,-12.69886 l -2.30113,-2.30114 -26.33523,0 -26.33523,0 -2.30113,2.30114 c -2.16655,2.16654 -2.30114,2.9093 -2.30114,12.69886 0,9.78956 0.13459,10.53233 2.30114,12.69886 l 2.30113,2.30114 26.33523,0 26.33523,0 2.30113,-2.30114 z m -38.00131,-6.7904 c -6.64749,-3.43371 -5.62617,-10.33732 1.86116,-12.58059 7.30313,-2.18807 15.10489,2.40639 13.686,8.05969 -1.2622,5.02903 -9.77258,7.50373 -15.54716,4.5209 z m -40.70759,41.79322 c -4.529,-1.06235 -10.33681,-4.54637 -9.29296,-5.57472 0.42446,-0.41817 3.09206,0.0434 5.928,1.02577 3.01507,1.04438 7.68673,1.78606 11.25,1.78606 3.56327,0 8.23492,-0.74168 11.25,-1.78606 6.02822,-2.0881 8.08171,-1.11958 3.55626,1.6773 -5.78702,3.57658 -14.81513,4.71911 -22.6913,2.87165 z m -49.80519,-73.06915 c -1.38558,-2.24193 1.54338,-2.80678 13.23505,-2.55235 10.02357,0.21814 12.11143,0.50599 12.11143,1.66982 0,1.16562 -2.11327,1.45092 -12.35004,1.66734 -8.33762,0.17625 -12.56005,-0.0787 -12.99644,-0.78481 z m 86.25,0 c -1.38558,-2.24193 1.54338,-2.80678 13.23505,-2.55235 10.02357,0.21814 12.11143,0.50599 12.11143,1.66982 0,1.16562 -2.11327,1.45092 -12.35004,1.66734 -8.33762,0.17625 -12.56005,-0.0787 -12.99644,-0.78481 z"
       id="path4275"
       inkscape:connector-curvature="0" />
    <path
       style="fill:#7f7c80"
       d="m -353.89101,309.49531 c -0.32484,-0.32483 -4.9303,-0.64124 -10.23437,-0.70312 -8.36105,-0.0976 -10.3568,-0.44672 -15.00446,-2.62508 -14.04859,-6.58456 -22.36153,-21.11915 -20.38003,-35.63302 0.37389,-2.73868 5.44433,-17.84661 11.26763,-33.57317 l 10.58783,-28.59375 0.61917,-34.6875 c 0.60167,-33.70726 0.68886,-34.93142 3.08554,-43.31883 5.55243,-19.43122 13.0301,-32.298176 26.46169,-45.533073 28.96015,-28.536066 74.83575,-35.998957 111.53136,-18.143553 11.32272,5.509427 18.26259,10.412352 26.94206,19.034188 12.16207,12.081312 20.78093,26.973298 25.67805,44.367518 2.43013,8.63164 2.52594,9.91797 3.10734,41.71875 l 0.59991,32.8125 11.17692,30 11.17693,30 0.0344,8.90625 c 0.0296,7.67818 -0.30185,9.62314 -2.40414,14.10528 -6.2286,13.27951 -18.63117,20.87614 -33.45599,20.49195 -3.46113,-0.0897 -7.48059,0.3158 -8.93213,0.9011 -1.45153,0.58529 -6.30309,1.05499 -10.78125,1.04378 l -8.14209,-0.0204 -4.6875,-4.72936 c -7.99239,-8.06376 -21.32243,-16.10871 -31.68067,-19.11993 -7.70215,-2.23908 -7.25418,-4.34329 1.68067,-7.89433 21.64992,-8.60446 38.1957,-27.14287 44.48652,-49.84408 1.05585,-3.81017 1.91973,-7.23051 1.91973,-7.60077 0,-0.37026 -1.27248,-0.22961 -2.82773,0.31255 -3.2694,1.13972 -7.45274,0.68834 -15.6879,-1.6927 -5.67685,-1.64136 -6.0419,-1.63955 -11.71875,0.0583 -8.56559,2.56184 -24.52555,3.01356 -28.76149,0.81404 -4.72679,-2.45441 -6.87078,-5.94711 -7.37376,-12.01235 -0.49093,-5.91975 -1.82335,-7.00055 -8.63039,-7.00055 -6.80705,0 -8.13946,1.0808 -8.63037,7.00059 -0.50288,6.06399 -2.64556,9.55559 -7.37377,12.01584 -4.0944,2.13045 -16.43765,1.72205 -25.01149,-0.82756 -5.72506,-1.70247 -5.99369,-1.70169 -11.71875,0.0341 -8.3966,2.54578 -19.42893,2.54175 -22.90227,-0.008 -5.00664,-3.67584 -6.03466,-7.14197 -5.73054,-19.32141 0.23304,-9.33291 0.56026,-11.34099 2.21508,-13.59375 4.13856,-5.63393 5.79733,-5.92154 34.15211,-5.92154 22.69414,0 26.16618,0.19628 28.99586,1.63916 4.47953,2.28417 6.81553,5.87079 7.33329,11.25933 l 0.44235,4.60358 4.11425,-1.47948 c 3.74761,-1.34763 4.48089,-1.34763 8.22849,0 l 4.11425,1.47948 0.44235,-4.60358 c 0.51698,-5.38034 2.84536,-8.9622 7.3333,-11.2812 2.89322,-1.49497 5.88582,-1.63549 29.93336,-1.40541 14.69531,0.1406 27.45703,0.6168 28.35937,1.05823 1.48293,0.72543 1.64063,0.16988 1.64063,-5.77983 l 0,-6.58242 -29.29688,-0.34678 c -29.22628,-0.34595 -29.31495,-0.35309 -36.79687,-2.96186 -18.4248,-6.42429 -31.35732,-17.74556 -39.79209,-34.83441 l -3.48937,-7.06948 -1.18827,4.01025 c -3.56861,12.04352 -12.90246,27.68688 -22.44855,37.62336 -7.01136,7.29808 -11.14692,10.21639 -16.9354,11.95065 -5.04592,1.5118 -11.72651,7.91021 -14.36852,13.76165 -2.75716,6.10646 -2.77081,16.77555 -0.0292,22.84569 2.42619,5.37177 8.56902,11.65194 13.60056,13.90463 3.3585,1.50364 4.08142,2.44883 6.5254,8.53183 7.04199,17.52729 22.44535,33.34603 39.21918,40.27679 5.49699,2.27129 7.5,4.03308 7.5,6.59675 0,1.05298 -1.03096,1.78538 -3.04687,2.16451 -7.88328,1.48263 -24.19856,11.25903 -32.10938,19.24049 -4.092,4.12855 -5.17382,4.73196 -8.51562,4.74976 -2.10547,0.0113 -4.0939,-0.24538 -4.41873,-0.57021 z m 53.28947,-95.46053 c 2.16654,-2.16653 2.30114,-2.9093 2.30114,-12.69886 0,-9.78956 -0.1346,-10.53232 -2.30114,-12.69886 l -2.30113,-2.30114 -26.33523,0 -26.33523,0 -2.30113,2.30114 c -2.16655,2.16654 -2.30114,2.9093 -2.30114,12.69886 0,9.78956 0.13459,10.53233 2.30114,12.69886 l 2.30113,2.30114 26.33523,0 26.33523,0 2.30113,-2.30114 z m -28.62631,-6.7904 c -6.64749,-3.43371 -5.62617,-10.33732 1.86116,-12.58059 7.30313,-2.18807 15.10489,2.40639 13.686,8.05969 -1.2622,5.02903 -9.77258,7.50373 -15.54716,4.5209 z m 118.62631,6.7904 c 2.16654,-2.16653 2.30114,-2.9093 2.30114,-12.69886 0,-9.78956 -0.1346,-10.53232 -2.30114,-12.69886 l -2.30113,-2.30114 -26.33523,0 -26.33523,0 -2.30113,2.30114 c -2.16655,2.16654 -2.30114,2.9093 -2.30114,12.69886 0,9.78956 0.13459,10.53233 2.30114,12.69886 l 2.30113,2.30114 26.33523,0 26.33523,0 2.30113,-2.30114 z m -38.00131,-6.7904 c -6.64749,-3.43371 -5.62617,-10.33732 1.86116,-12.58059 7.30313,-2.18807 15.10489,2.40639 13.686,8.05969 -1.2622,5.02903 -9.77258,7.50373 -15.54716,4.5209 z m -40.70759,41.79322 c -4.529,-1.06235 -10.33681,-4.54637 -9.29296,-5.57472 0.42446,-0.41817 3.09206,0.0434 5.928,1.02577 3.01507,1.04438 7.68673,1.78606 11.25,1.78606 3.56327,0 8.23492,-0.74168 11.25,-1.78606 6.02822,-2.0881 8.08171,-1.11958 3.55626,1.6773 -5.78702,3.57658 -14.81513,4.71911 -22.6913,2.87165 z m -49.80519,-73.06915 c -1.38558,-2.24193 1.54338,-2.80678 13.23505,-2.55235 10.02357,0.21814 12.11143,0.50599 12.11143,1.66982 0,1.16562 -2.11327,1.45092 -12.35004,1.66734 -8.33762,0.17625 -12.56005,-0.0787 -12.99644,-0.78481 z m 86.25,0 c -1.38558,-2.24193 1.54338,-2.80678 13.23505,-2.55235 10.02357,0.21814 12.11143,0.50599 12.11143,1.66982 0,1.16562 -2.11327,1.45092 -12.35004,1.66734 -8.33762,0.17625 -12.56005,-0.0787 -12.99644,-0.78481 z"
       id="path4273"
       inkscape:connector-curvature="0" />
    <path
       style="fill:#92706e"
       d="m -351.99432,309.517 c -0.31291,-0.3129 -5.34025,-0.63524 -11.17188,-0.71631 -9.29351,-0.12918 -11.25363,-0.45086 -15.87171,-2.60467 -13.79192,-6.43238 -21.22536,-18.70494 -20.28559,-33.49138 0.39479,-6.21176 1.84908,-10.902 11.08291,-35.74372 l 10.62849,-28.59375 0.59357,-34.21875 c 0.57498,-33.14724 0.67184,-34.51162 3.09322,-43.57174 7.52538,-28.15787 26.071,-50.873655 51.71866,-63.348086 17.12155,-8.32753 35.34544,-11.560715 53.67439,-9.522629 13.30799,1.479779 22.13186,3.987049 33.51311,9.522629 14.26697,6.939129 26.39518,17.02241 36.13804,30.04483 5.69922,7.617646 12.73989,22.671606 15.57581,33.303256 2.40084,9.00061 2.51616,10.57155 3.06084,41.69674 l 0.56602,32.34375 11.19115,30 11.19116,30 0.0275,8.90625 c 0.0255,8.27882 -0.1971,9.35623 -3.16003,15.29368 -4.93366,9.88661 -13.20382,16.13542 -24.58537,18.57633 -2.63937,0.56603 -6.37224,0.81812 -8.2953,0.56018 -1.92305,-0.25793 -5.7528,0.11632 -8.51055,0.83167 -2.75775,0.71535 -8.19168,1.29146 -12.07541,1.28025 l -7.06131,-0.0204 -4.6875,-4.72936 c -7.99239,-8.06376 -21.32243,-16.10871 -31.68067,-19.11993 -7.93545,-2.30691 -7.30446,-4.31201 2.61817,-8.31976 21.53694,-8.69879 37.99025,-27.79408 44.02921,-51.0992 0.84954,-3.27848 1.41551,-6.07926 1.2577,-6.22394 -0.1578,-0.14469 -2.44989,0.18561 -5.09351,0.73399 -4.14817,0.86046 -5.30398,0.75017 -8.4375,-0.80511 -4.97344,-2.46849 -16.29617,-2.4966 -21.21334,-0.0527 -2.91958,1.4511 -5.0782,1.68198 -12.65625,1.35368 -13.83537,-0.59941 -17.58838,-3.4837 -18.71314,-14.38152 -0.57521,-5.57334 -1.24746,-6.03979 -8.70442,-6.03979 -7.45696,0 -8.12922,0.46645 -8.70443,6.03979 -1.06533,10.32205 -4.97918,13.666 -16.81684,14.36812 -5.81019,0.34463 -7.93936,0.0819 -10.78125,-1.33017 -4.90115,-2.43532 -16.25162,-2.4313 -21.16074,0.007 -2.73242,1.35743 -4.81615,1.6529 -8.98861,1.27456 -12.09936,-1.09714 -15.55987,-6.12392 -14.93005,-21.68757 0.43798,-10.82312 1.8986,-14.61061 6.63216,-17.19758 2.69708,-1.47395 5.97441,-1.65644 29.74974,-1.65644 23.77533,0 27.05266,0.18249 29.74975,1.6565 3.59557,1.96503 5.69324,5.66021 6.48265,11.41954 0.52935,3.86206 0.72911,4.12014 2.46852,3.18923 2.44182,-1.30682 10.15634,-1.30682 12.59816,0 1.73941,0.93091 1.93916,0.67283 2.46851,-3.18923 0.78941,-5.75933 2.88709,-9.45451 6.48265,-11.41954 2.63945,-1.44251 6.24845,-1.69385 27.93691,-1.9456 19.8338,-0.23022 25.70467,-0.0139 28.82813,1.06223 l 3.92222,1.35131 0,-6.84121 0,-6.84121 -29.29688,-0.34678 c -29.22628,-0.34595 -29.31495,-0.35308 -36.79687,-2.96185 -18.4248,-6.4243 -31.35732,-17.74556 -39.79209,-34.83442 l -3.48937,-7.06947 -1.18827,4.01025 c -3.56861,12.04352 -12.90246,27.68688 -22.44855,37.62336 -7.01136,7.29808 -11.14692,10.21638 -16.9354,11.95065 -5.04592,1.5118 -11.72651,7.91021 -14.36852,13.76164 -2.75716,6.10647 -2.77081,16.77555 -0.0292,22.8457 2.42619,5.37177 8.56902,11.65193 13.60056,13.90462 3.3585,1.50365 4.08142,2.44884 6.5254,8.53183 7.04199,17.5273 22.44535,33.34604 39.21918,40.27679 5.49699,2.2713 7.5,4.03308 7.5,6.59676 0,1.05297 -1.03096,1.78538 -3.04687,2.16451 -7.88328,1.48263 -24.19856,11.25903 -32.10938,19.24049 -3.5895,3.62156 -5.3646,4.73414 -7.57812,4.74976 -1.58985,0.0113 -3.14664,-0.23562 -3.45954,-0.54853 z m 51.52412,-95.21949 c 2.02434,-1.90178 2.1698,-2.76184 2.1698,-12.83021 0,-16.23401 2.24486,-15.13138 -30.80612,-15.13138 -33.28047,0 -31.06888,-1.0584 -31.06888,14.86862 0,16.23401 -2.24486,15.13138 30.80612,15.13138 26.15329,0 26.77604,-0.044 28.89908,-2.03841 z m -27.81921,-6.65618 c -7.25745,-2.55025 -6.82956,-10.33581 0.69921,-12.72249 7.93534,-2.51558 15.73383,2.49693 13.40686,8.61731 -1.57426,4.14063 -8.37386,6.11946 -14.10607,4.10518 z m 117.81921,6.65618 c 2.02434,-1.90178 2.1698,-2.76184 2.1698,-12.83021 0,-16.23401 2.24486,-15.13138 -30.80612,-15.13138 -33.28047,0 -31.06888,-1.0584 -31.06888,14.86862 0,16.23401 -2.24486,15.13138 30.80612,15.13138 26.15329,0 26.77604,-0.044 28.89908,-2.03841 z m -37.19421,-6.65618 c -7.25745,-2.55025 -6.82956,-10.33581 0.69921,-12.72249 7.93534,-2.51558 15.73383,2.49693 13.40686,8.61731 -1.57426,4.14063 -8.37386,6.11946 -14.10607,4.10518 z m -42.19849,41.00683 c -2.32031,-0.72178 -5.16797,-1.81954 -6.32813,-2.43945 -2.541,-1.35776 -2.96489,-4.18615 -0.46875,-3.12772 6.01159,2.54908 9.00578,3.17263 15.23438,3.17263 6.2286,0 9.22279,-0.62355 15.23437,-3.17263 3.10324,-1.31586 1.76274,2.04673 -1.40625,3.52751 -7.7604,3.62621 -15.02577,4.29177 -22.26562,2.03966 z M -338.17716,175.97 c -1.36925,-2.21548 1.50283,-2.81235 12.29849,-2.55581 9.18769,0.21832 11.17202,0.51525 11.17202,1.67173 0,1.1586 -2.00968,1.45251 -11.41158,1.6689 -7.65926,0.17628 -11.62444,-0.0817 -12.05893,-0.78482 z m 86.25,0 c -1.36925,-2.21548 1.50283,-2.81235 12.29849,-2.55581 9.18769,0.21832 11.17202,0.51525 11.17202,1.67173 0,1.1586 -2.00968,1.45251 -11.41158,1.6689 -7.65926,0.17628 -11.62444,-0.0817 -12.05893,-0.78482 z"
       id="path4271"
       inkscape:connector-curvature="0" />
    <path
       style="fill:#646a71"
       d="m -351.99432,309.517 c -0.31291,-0.3129 -5.34025,-0.63524 -11.17188,-0.71631 -9.29351,-0.12918 -11.25363,-0.45086 -15.87171,-2.60467 -13.79192,-6.43238 -21.22536,-18.70494 -20.28559,-33.49138 0.39479,-6.21176 1.84908,-10.902 11.08291,-35.74372 l 10.62849,-28.59375 0.59357,-34.21875 c 0.57498,-33.14724 0.67184,-34.51162 3.09322,-43.57174 7.52538,-28.15787 26.071,-50.873655 51.71866,-63.348086 17.12155,-8.32753 35.34544,-11.560715 53.67439,-9.522629 13.30799,1.479779 22.13186,3.987049 33.51311,9.522629 14.26697,6.939129 26.39518,17.02241 36.13804,30.04483 5.69922,7.617646 12.73989,22.671606 15.57581,33.303256 2.40084,9.00061 2.51616,10.57155 3.06084,41.69674 l 0.56602,32.34375 11.19115,30 11.19116,30 0.0275,8.90625 c 0.0255,8.27882 -0.1971,9.35623 -3.16003,15.29368 -4.93366,9.88661 -13.20382,16.13542 -24.58537,18.57633 -2.63937,0.56603 -6.37224,0.81812 -8.2953,0.56018 -1.92305,-0.25793 -5.7528,0.11632 -8.51055,0.83167 -2.75776,0.71535 -7.92437,1.30064 -11.48137,1.30064 l -6.46727,0 -5.35686,-4.95951 c -9.35145,-8.65779 -23.69516,-17.08689 -33.11131,-19.45791 -2.44127,-0.61472 -4.43868,-1.30626 -4.43868,-1.53676 0,-1.39047 2.15003,-4.04582 3.27591,-4.04582 2.56882,0 17.27647,-8.21826 23.33428,-13.03862 11.60287,-9.23268 21.9684,-25.26992 25.38275,-39.27139 0.91756,-3.76269 1.51248,-6.98634 1.32205,-7.16365 -0.19044,-0.17731 -2.50921,0.12628 -5.15284,0.67466 -4.14817,0.86047 -5.30397,0.75018 -8.4375,-0.8051 -4.97344,-2.4685 -16.29617,-2.4966 -21.21334,-0.0527 -2.91958,1.4511 -5.0782,1.68198 -12.65625,1.35368 -13.83537,-0.59941 -17.58838,-3.4837 -18.71314,-14.38153 -0.57521,-5.57333 -1.24746,-6.03978 -8.70442,-6.03978 -7.45696,0 -8.12921,0.46645 -8.70443,6.03978 -1.06533,10.32206 -4.97918,13.66601 -16.81683,14.36813 -5.8102,0.34462 -7.93937,0.0819 -10.78125,-1.33017 -4.90116,-2.43532 -16.25163,-2.43131 -21.16075,0.008 -4.20316,2.08808 -12.588,1.72951 -17.36885,-0.74278 -5.06121,-2.61722 -6.26164,-6.1386 -6.26164,-18.36804 0,-12.25045 1.17413,-15.67434 6.34399,-18.49975 2.6971,-1.47401 5.97443,-1.6565 29.74976,-1.6565 23.77533,0 27.05266,0.18249 29.74975,1.6565 3.59557,1.96503 5.69324,5.66021 6.48265,11.41954 0.52935,3.86206 0.72911,4.12014 2.46852,3.18923 2.44182,-1.30682 10.15634,-1.30682 12.59816,0 1.73941,0.93091 1.93916,0.67283 2.46851,-3.18923 0.78941,-5.75933 2.88709,-9.45451 6.48265,-11.41954 2.63945,-1.44251 6.24845,-1.69385 27.93691,-1.9456 19.8338,-0.23022 25.70467,-0.0139 28.82813,1.06223 l 3.92222,1.35131 0,-6.84024 0,-6.84025 -28.82813,-0.37837 c -26.89754,-0.35303 -29.2676,-0.52164 -35.39062,-2.5176 -19.28799,-6.28745 -33.23904,-18.22048 -41.50269,-35.4993 l -3.2647,-6.82632 -3.50572,8.70132 c -5.52884,13.72281 -12.38854,24.45713 -21.49915,33.64264 -6.72498,6.78027 -8.99249,8.45044 -13.8613,10.20978 -7.25811,2.62272 -12.7221,7.22256 -16.00015,13.46967 -2.16827,4.13216 -2.52776,5.94929 -2.52939,12.78548 -0.002,6.40222 0.40175,8.7274 2.05141,11.82794 3.19293,6.00109 6.67411,9.6303 12.26297,12.78446 2.92359,1.64998 5.35433,3.74071 5.63589,4.84757 0.27229,1.07046 2.26389,5.39813 4.42575,9.61706 7.69769,15.02219 18.51068,25.83774 33.5538,33.56175 4.21893,2.16624 8.18569,4.11105 8.81502,4.3218 0.62935,0.21075 1.26216,1.38055 1.40625,2.59956 0.22066,1.86663 -0.35194,2.40145 -3.62849,3.389 -9.29536,2.80165 -26.53489,13.6002 -33.55052,21.01549 -2.55688,2.70251 -6.74059,3.88501 -8.28415,2.34145 z m 51.52412,-95.21949 c 2.02434,-1.90178 2.1698,-2.76184 2.1698,-12.83021 0,-16.23401 2.24486,-15.13138 -30.80612,-15.13138 -33.28047,0 -31.06888,-1.0584 -31.06888,14.86862 0,16.23401 -2.24486,15.13138 30.80612,15.13138 26.15329,0 26.77604,-0.044 28.89908,-2.03841 z m -27.81921,-6.65618 c -7.25745,-2.55025 -6.82956,-10.33581 0.69921,-12.72249 7.93534,-2.51558 15.73383,2.49693 13.40686,8.61731 -1.57426,4.14063 -8.37386,6.11946 -14.10607,4.10518 z m 117.81921,6.65618 c 2.02434,-1.90178 2.1698,-2.76184 2.1698,-12.83021 0,-16.23401 2.24486,-15.13138 -30.80612,-15.13138 -33.28047,0 -31.06888,-1.0584 -31.06888,14.86862 0,16.23401 -2.24486,15.13138 30.80612,15.13138 26.15329,0 26.77604,-0.044 28.89908,-2.03841 z m -37.19421,-6.65618 c -7.25745,-2.55025 -6.82956,-10.33581 0.69921,-12.72249 7.93534,-2.51558 15.73383,2.49693 13.40686,8.61731 -1.57426,4.14063 -8.37386,6.11946 -14.10607,4.10518 z m -42.19849,41.00683 c -2.32031,-0.72178 -5.16797,-1.81954 -6.32813,-2.43945 -2.541,-1.35776 -2.96489,-4.18615 -0.46875,-3.12772 6.01159,2.54908 9.00578,3.17263 15.23438,3.17263 6.2286,0 9.22279,-0.62355 15.23437,-3.17263 3.10324,-1.31586 1.76274,2.04673 -1.40625,3.52751 -7.7604,3.62621 -15.02577,4.29177 -22.26562,2.03966 z M -338.17716,175.97 c -1.36925,-2.21548 1.50283,-2.81235 12.29849,-2.55581 9.18769,0.21832 11.17202,0.51525 11.17202,1.67173 0,1.1586 -2.00968,1.45251 -11.41158,1.6689 -7.65926,0.17628 -11.62444,-0.0817 -12.05893,-0.78482 z m 86.25,0 c -1.36925,-2.21548 1.50283,-2.81235 12.29849,-2.55581 9.18769,0.21832 11.17202,0.51525 11.17202,1.67173 0,1.1586 -2.00968,1.45251 -11.41158,1.6689 -7.65926,0.17628 -11.62444,-0.0817 -12.05893,-0.78482 z"
       id="path4269"
       inkscape:connector-curvature="0" />
    <path
       style="fill:#434a52"
       d="m -350.13144,309.50489 c -0.31957,-0.31957 -5.55785,-0.68176 -11.64062,-0.80488 -13.32312,-0.26965 -18.95712,-2.08889 -26.25365,-8.47739 -6.67863,-5.8475 -10.5347,-13.78086 -11.24164,-23.12823 -0.62194,-8.22346 -1.29736,-5.81814 11.92756,-42.47722 l 10.1462,-28.125 0.39979,-32.8125 c 0.3841,-31.52553 0.49346,-33.16453 2.78818,-41.78791 3.22463,-12.11791 7.29864,-21.60545 13.0195,-30.31975 16.45852,-25.070485 42.61878,-40.796766 72.58797,-43.636365 54.5474,-5.168399 101.19346,32.474642 107.22057,86.526255 0.55119,4.9432 1.00218,20.12234 1.00218,33.73146 l 0,24.74384 11.35799,31.30873 c 12.42096,34.23887 13.2558,37.92167 10.78369,47.57124 -3.53819,13.81091 -13.84705,23.1577 -28.04248,25.42543 -3.36172,0.53703 -6.73675,0.73678 -7.50005,0.44386 -0.76331,-0.2929 -4.58165,0.12715 -8.48522,0.93345 -3.90356,0.80631 -9.48457,1.46601 -12.40224,1.46601 -5.10452,0 -5.50711,-0.18727 -10.6617,-4.95951 -9.35145,-8.65779 -23.69516,-17.08689 -33.11131,-19.45791 -2.44127,-0.61472 -4.43868,-1.30626 -4.43868,-1.53676 0,-1.35956 2.13724,-4.04582 3.21893,-4.04582 2.65231,0 18.1055,-8.54239 23.71067,-13.10704 11.71968,-9.5441 21.73008,-25.33554 25.41496,-40.09218 0.93295,-3.73615 2.58712,-7.74396 3.67591,-8.90625 3.17002,-3.38404 3.97953,-6.78834 3.97953,-16.73567 0,-9.58289 -1.13539,-14.22762 -4.07353,-16.66427 -1.18411,-0.98201 -1.55147,-2.90511 -1.55147,-8.12178 l 0,-6.83511 -28.82813,-0.37837 c -26.89754,-0.35303 -29.2676,-0.52164 -35.39062,-2.5176 -19.28799,-6.28745 -33.23904,-18.22048 -41.50269,-35.4993 l -3.2647,-6.82632 -3.50572,8.70132 c -5.54077,13.75243 -12.38727,24.45886 -21.49915,33.61999 -6.92676,6.96419 -8.95717,8.42962 -14.66127,10.58165 -7.35738,2.77577 -11.94381,6.82617 -15.53395,13.71843 -1.80246,3.46032 -2.19718,5.65134 -2.19562,12.1875 0.002,6.80984 0.36276,8.65046 2.48317,12.65625 2.96383,5.59916 7.25752,9.85275 12.85708,12.73699 2.26563,1.16698 4.34227,2.99423 4.62118,4.0662 0.27859,1.07075 2.31066,5.53275 4.51573,9.91556 7.45817,14.82395 18.34109,25.69926 33.20721,33.18399 4.41169,2.22119 8.51254,4.20643 9.11299,4.41165 0.60045,0.2052 1.20964,1.37049 1.35373,2.5895 0.22066,1.86663 -0.35194,2.40145 -3.62849,3.389 -9.29536,2.80165 -26.53489,13.6002 -33.55052,21.01549 -2.59026,2.73781 -5.10175,3.64886 -6.42127,2.32934 z m 62.8272,-60.39218 c -4.72381,-0.79415 -10.1297,-3.45863 -10.7416,-5.29437 -0.23033,-0.69096 1.38657,-0.4287 4.38792,0.71172 3.24973,1.2348 7.11796,1.80586 12.23252,1.80586 5.11456,0 8.98279,-0.57106 12.23252,-1.80586 5.92991,-2.25319 5.86532,-0.45927 -0.0871,2.4197 -4.92903,2.384 -11.80293,3.20887 -18.02424,2.16295 z m -39.66616,-41.30786 c -9.4754,-2.67521 -6.79389,-13.28711 3.3575,-13.28711 10.76999,0 12.36637,11.62135 1.875,13.64959 -1.28906,0.24921 -3.64369,0.0861 -5.2325,-0.36248 z m 80.625,0 c -9.4754,-2.67521 -6.79389,-13.28711 3.3575,-13.28711 10.76999,0 12.36637,11.62135 1.875,13.64959 -1.28906,0.24921 -3.64369,0.0861 -5.2325,-0.36248 z"
       id="path4267"
       inkscape:connector-curvature="0" />
    <path
       style="fill:#442725"
       d="m -349.17298,309.52585 c -0.30804,-0.30804 -5.81998,-0.67943 -12.24874,-0.82528 -10.27061,-0.23304 -12.33554,-0.56136 -17.02046,-2.70618 -10.56082,-4.8349 -16.64409,-11.7868 -19.74072,-22.55951 -2.7462,-9.55361 -1.84403,-13.69512 10.13613,-46.53122 l 10.79528,-29.58851 0.46279,-32.75524 c 0.51573,-36.50151 0.96004,-39.97123 7.14433,-55.79119 11.02177,-28.194595 36.7625,-50.915779 66.18772,-58.423474 13.92758,-3.553551 35.75991,-3.553551 49.6875,0 28.78963,7.345529 53.75668,28.953935 65.41556,56.615674 6.83927,16.22678 8.15977,26.1392 8.1705,61.33244 l 0.007,25.23869 10.43938,28.57824 c 5.74165,15.71803 11.05377,30.93102 11.8047,33.80665 1.86969,7.1598 0.89313,15.4368 -2.6395,22.37158 -6.49012,12.74052 -16.50891,18.89742 -31.61995,19.43157 -3.96186,0.14005 -9.73463,0.7272 -12.82838,1.3048 -3.09375,0.57759 -7.66635,1.05261 -10.16133,1.0556 -4.26563,0.005 -4.92584,-0.35007 -11.06351,-5.9518 -8.13135,-7.42133 -20.64983,-14.9637 -29.34123,-17.67804 -3.64178,-1.13734 -6.76108,-2.1548 -6.93176,-2.26102 -0.73162,-0.45541 1.88913,-4.10371 2.94808,-4.10371 2.17718,0 15.07209,-6.65901 20.76049,-10.72085 13.5448,-9.67175 24.15885,-25.52144 28.45791,-42.49549 1.18992,-4.69812 2.57483,-7.69732 4.46568,-9.67093 l 2.74086,-2.86085 0,-13.00188 c 0,-12.90651 -0.0189,-13.02162 -2.57813,-15.69287 -2.31685,-2.41826 -2.57812,-3.36432 -2.57812,-9.33515 l 0,-6.64417 -27.89063,-0.43694 c -24.65517,-0.38624 -28.74476,-0.66833 -35.25354,-2.43168 -11.71653,-3.17421 -19.58015,-7.87727 -29.2445,-17.49044 -7.06502,-7.02761 -9.20507,-9.89337 -12.80717,-17.15018 -4.26592,-8.59415 -4.33376,-8.67068 -4.98612,-5.625 -0.99231,4.63286 -9.02963,21.24833 -13.3702,27.64009 -8.39487,12.36201 -17.14764,20.15432 -26.61887,23.69796 -5.73857,2.14708 -10.78583,6.87457 -14.04575,13.15588 -3.17652,6.12063 -3.1474,18.28216 0.0588,24.55473 2.73581,5.35229 7.61053,10.19406 13.1164,13.02773 2.26307,1.16472 4.32141,2.9083 4.57412,3.87463 1.00649,3.84884 7.11872,15.49804 10.93832,20.84721 7.29442,10.21545 16.59043,17.7152 29.36278,23.689 3.99307,1.86763 7.31319,3.42768 7.37804,3.46681 0.0649,0.0391 0.39709,0.98069 0.73833,2.09237 0.5548,1.80747 -0.0174,2.23348 -5.41092,4.02832 -8.33533,2.77382 -20.80998,10.41879 -28.59548,17.52447 -6.32746,5.77495 -7.6368,6.57652 -8.81617,5.39716 z"
       id="path4265"
       inkscape:connector-curvature="0" />
  </g>
</svg>
