<?xml version="1.0" encoding="UTF-8" standalone="no"?>
<!-- Created with Inkscape (http://www.inkscape.org/) -->

<svg
   xmlns:dc="http://purl.org/dc/elements/1.1/"
   xmlns:cc="http://creativecommons.org/ns#"
   xmlns:rdf="http://www.w3.org/1999/02/22-rdf-syntax-ns#"
   xmlns:svg="http://www.w3.org/2000/svg"
   xmlns="http://www.w3.org/2000/svg"
   xmlns:sodipodi="http://sodipodi.sourceforge.net/DTD/sodipodi-0.dtd"
   xmlns:inkscape="http://www.inkscape.org/namespaces/inkscape"
   id="svg4228"
   version="1.1"
   inkscape:version="0.91 r13725"
   width="608.4375"
   height="588.75"
   viewBox="0 0 608.4375 588.75"
   sodipodi:docname="xuefei.svg">
  <metadata
     id="metadata4234">
    <rdf:RDF>
      <cc:Work
         rdf:about="">
        <dc:format>image/svg+xml</dc:format>
        <dc:type
           rdf:resource="http://purl.org/dc/dcmitype/StillImage" />
        <dc:title></dc:title>
      </cc:Work>
    </rdf:RDF>
  </metadata>
  <defs
     id="defs4232" />
  <sodipodi:namedview
     pagecolor="#ffffff"
     bordercolor="#666666"
     borderopacity="1"
     objecttolerance="10"
     gridtolerance="10"
     guidetolerance="10"
     inkscape:pageopacity="0"
     inkscape:pageshadow="2"
     inkscape:window-width="1174"
     inkscape:window-height="565"
     id="namedview4230"
     showgrid="false"
     inkscape:zoom="0.40084926"
     inkscape:cx="511.75014"
     inkscape:cy="269.14244"
     inkscape:window-x="99"
     inkscape:window-y="490"
     inkscape:window-maximized="0"
     inkscape:current-layer="svg4228" />
  <g
     id="g4865"
     transform="translate(-743.42161,-14.96822)">
    <path
       inkscape:connector-curvature="0"
       id="path4863"
       d="M 1025.911,597.56453 C 940.01426,587.98783 864.55358,542.37267 817.3287,471.47881 776.58201,410.30998 760.87624,337.25617 772.88643,264.76006 791.35652,153.27051 874.95433,62.088389 984.19227,34.283721 c 47.98133,-12.212825 95.45623,-12.212825 143.43753,0 100.5641,25.596889 180.5044,105.537229 206.1013,206.101339 6.305,24.77097 9.0549,46.55116 9.0549,71.71875 0,80.27785 -33.2112,156.29024 -92.0515,210.68328 -46.4759,42.96322 -104.9564,68.98926 -168.9707,75.19839 -13.4633,1.30588 -42.3145,1.08844 -55.8528,-0.42095 z m 57.3226,-5.17526 c 54.4749,-5.41199 105.6582,-26.38605 149.1298,-61.11095 12.409,-9.91221 32.8439,-30.36027 42.897,-42.92451 27.0615,-33.82127 46.6289,-74.99321 55.7344,-117.27133 4.7359,-21.98984 5.6414,-31.45594 5.6414,-58.97867 0,-27.52273 -0.9055,-36.98883 -5.6414,-58.97867 -9.1055,-42.27812 -28.6729,-83.45006 -55.7344,-117.27133 -10.0932,-12.61438 -30.485,-33.00618 -43.0994,-43.099367 -33.8213,-27.061526 -74.9932,-46.628906 -117.2713,-55.734374 -21.9899,-4.735968 -31.456,-5.641418 -58.9787,-5.641418 -27.5227,0 -36.9888,0.90545 -58.97865,5.641418 -42.27812,9.105468 -83.45006,28.672848 -117.27133,55.734374 -12.61438,10.093187 -33.00618,30.484987 -43.09937,43.099367 -27.06153,33.82127 -46.62891,74.99321 -55.73438,117.27133 -4.73597,21.98984 -5.64142,31.45594 -5.64142,58.97867 0,27.52273 0.90545,36.98883 5.64142,58.97867 9.10547,42.27812 28.67285,83.45006 55.73438,117.27133 10.09319,12.61438 30.48499,33.00618 43.09937,43.09937 30.61453,24.49571 69.77497,44.09058 106.875,53.47749 12.64424,3.1992 29.09858,6.20104 40.31248,7.3544 11.4237,1.17494 44.9831,1.23696 56.3851,0.1042 z"
       style="fill:#ffffff;fill-opacity:1" />
    <g
       id="g4850">
      <path
         inkscape:connector-curvature="0"
         id="path4834"
         d="m 1033.8798,591.29822 c -1.5469,-0.21252 -6.8203,-0.84101 -11.7188,-1.39665 -21.5591,-2.44553 -48.35731,-9.16121 -68.72076,-17.22157 -21.40893,-8.47418 -49.41497,-24.47841 -69.553,-39.7465 -12.19403,-9.24519 -41.17466,-38.26127 -50.5141,-50.57591 -30.86874,-40.70239 -49.50481,-86.09568 -56.46673,-137.54032 -2.27941,-16.84355 -2.27941,-51.59395 0,-68.4375 6.96192,-51.44464 25.59799,-96.83793 56.46673,-137.54032 9.42156,-12.42292 38.35589,-41.357251 50.77881,-50.778818 40.70239,-30.868739 86.09568,-49.504807 137.54035,-56.466728 16.8435,-2.27941 51.5939,-2.27941 68.4375,0 51.4446,6.961921 96.8379,25.597989 137.5403,56.466728 12.4229,9.421567 41.3572,38.355898 50.7788,50.778818 30.8687,40.70239 49.5048,86.09568 56.4667,137.54032 2.2794,16.84355 2.2794,51.59395 0,68.4375 -6.9668,51.48112 -25.7982,97.31567 -56.4993,137.51605 -14.3326,18.76737 -39.901,43.3533 -59.5051,57.21874 -38.5905,27.29392 -77.5354,42.81826 -125.5002,50.02722 -9.3405,1.40386 -52.7094,2.65612 -59.5312,1.71894 z"
         style="fill:#cedee9" />
      <path
         inkscape:connector-curvature="0"
         id="path4832"
         d="m 1033.8798,591.29822 c -1.5469,-0.21252 -6.8203,-0.84101 -11.7188,-1.39665 -21.6376,-2.45443 -48.11203,-9.10009 -69.18951,-17.36809 -16.16625,-6.34149 -15.18798,-5.29782 -13.69629,-14.6119 3.46072,-21.60863 14.62828,-46.34249 27.58896,-61.10389 l 2.77148,-3.15655 -6.78418,-0.69642 c -3.73131,-0.38302 -11.47548,-0.61181 -17.20928,-0.5084 -17.89838,0.32279 -29.79302,-4.11089 -41.12059,-15.32754 -11.1028,-10.99407 -16.09575,-23.91245 -15.26637,-39.49901 0.43062,-8.09272 1.09045,-10.19973 16.14717,-51.5625 8.63401,-23.71875 16.27221,-44.39063 16.97381,-45.9375 1.00814,-2.22278 1.34811,-13.03436 1.62133,-51.5625 0.32481,-45.80018 0.46724,-49.27589 2.35383,-57.44102 6.87511,-29.75534 19.94276,-53.72333 40.49716,-74.27773 20.72242,-20.72242 44.98978,-33.88335 74.75768,-40.54337 7.8882,-1.76486 11.9899,-2.04683 29.7736,-2.04683 17.7836,0 21.8853,0.28197 29.7736,2.04683 29.7678,6.66002 54.0352,19.82095 74.7576,40.54337 20.5609,20.56083 33.665,44.60188 40.487,74.27773 1.8449,8.02538 2.0404,12.24527 2.5523,55.09727 l 0.5545,46.40625 16.3149,44.53125 c 8.9732,24.49219 16.8784,46.64062 17.567,49.21875 0.6886,2.57812 1.2571,8.35713 1.2632,12.84223 0.026,19.11141 -10.3148,36.35726 -27.0842,45.16935 -8.7681,4.60748 -15.6489,6.20532 -26.7735,6.21731 -5.6218,0.006 -11.2658,0.5724 -14.0145,1.40625 -3.0167,0.91515 -8.6214,1.39611 -16.269,1.39611 l -11.6669,0 2.8813,3.28161 c 12.1544,13.84307 24.9983,41.27739 27.0055,57.68331 l 0.5196,4.24617 -12.0592,5.78797 c -26.5224,12.72974 -52.0609,20.40223 -83.778,25.1692 -9.3405,1.40386 -52.7094,2.65612 -59.5312,1.71894 z"
         style="fill:#fdcfc1" />
      <path
         inkscape:connector-curvature="0"
         id="path4830"
         d="m 1031.0673,590.7801 c -27.3936,-2.36881 -59.41528,-10.37596 -84.60941,-21.15692 -7.53686,-3.22514 -7.73437,-3.39162 -7.73437,-6.51919 0,-4.77606 2.58912,-16.58703 5.66202,-25.82875 4.44171,-13.35846 13.06292,-29.01691 21.63024,-39.28635 l 3.61096,-4.32838 -6.77974,-0.69611 c -3.72885,-0.38284 -11.47102,-0.61149 -17.20482,-0.50808 -17.89838,0.32279 -29.79302,-4.11089 -41.12059,-15.32754 -11.1028,-10.99407 -16.09575,-23.91245 -15.26637,-39.49901 0.43062,-8.09272 1.09045,-10.19973 16.14717,-51.5625 8.63401,-23.71875 16.27221,-44.39062 16.97381,-45.9375 1.00814,-2.22277 1.34811,-13.03436 1.62133,-51.5625 0.32481,-45.80017 0.46724,-49.27589 2.35383,-57.44102 6.87511,-29.75534 19.94276,-53.72333 40.49716,-74.27773 20.72242,-20.72242 44.98978,-33.88335 74.75768,-40.54337 7.8882,-1.76486 11.9899,-2.04683 29.7736,-2.04683 17.7836,0 21.8853,0.28197 29.7736,2.04683 29.7678,6.66002 54.0352,19.82095 74.7576,40.54337 20.5609,20.56083 33.665,44.60188 40.487,74.27773 1.8449,8.02538 2.0404,12.24527 2.5523,55.09727 l 0.5545,46.40625 16.3149,44.53125 c 8.9732,24.49219 16.8784,46.64062 17.567,49.21875 0.6886,2.57812 1.2571,8.35713 1.2632,12.84223 0.026,19.11141 -10.3148,36.35726 -27.0842,45.16935 -8.7681,4.60748 -15.6489,6.20532 -26.7735,6.21731 -5.6218,0.006 -11.2658,0.5724 -14.0145,1.40625 -3.0158,0.91488 -8.6203,1.39611 -16.2592,1.39611 l -11.6571,0 3.7154,4.45312 c 12.3708,14.82705 24.1731,40.33706 26.1541,56.53053 l 0.5217,4.26491 -10.5568,4.95176 c -48.1053,22.56408 -96.9422,31.55177 -147.6285,27.16876 z m 75.6514,-108.44332 c 5.1607,-2.54196 10.8703,-7.98132 13.4542,-12.81738 1.814,-3.39496 1.8141,-3.44154 0.01,-4.77044 -3.1642,-2.32986 -16.7433,-7.21007 -21.3805,-7.68393 -4.8877,-0.49948 -5.0393,-0.7488 -3.1724,-5.21685 0.9674,-2.31551 2.1816,-3.33506 4.9644,-4.1688 2.026,-0.60702 7.8833,-3.17415 13.0162,-5.70475 35.5353,-17.51956 58.5079,-51.03688 62.2858,-90.87578 0.5232,-5.51737 0.9516,-23.21517 0.9521,-39.32845 l 10e-4,-29.29688 -39.7402,0 c -42.5778,0 -47.5619,-0.41032 -61.1442,-5.03369 -14.272,-4.85812 -26.0685,-12.19864 -37.6246,-23.41229 -9.0103,-8.74327 -15.5933,-17.88805 -21.0236,-29.20506 l -3.8797,-8.08559 -3.012,7.7902 c -13.98372,36.16771 -37.43678,64.99978 -57.93869,71.22704 -8.02805,2.43844 -14.64074,7.85515 -19.75142,16.17915 -7.54165,12.28338 -7.27544,30.89339 0.61932,43.29601 4.65122,7.30703 14.36116,15.23345 20.57013,16.7918 1.9271,0.48368 2.84255,1.77973 4.51275,6.38897 3.12686,8.62921 9.51805,20.8765 14.79152,28.34466 5.95773,8.43718 17.38959,19.88247 25.90201,25.93246 6.44028,4.57721 26.04138,14.76042 28.44508,14.77773 1.1723,0.008 2.4391,2.50956 3.5865,7.0812 0.4733,1.88573 0.229,2.30241 -1.3497,2.30241 -1.0602,0 -5.5684,1.31737 -10.0182,2.92749 -7.7782,2.81449 -8.0677,3.02258 -7.499,5.39063 0.9722,4.04827 6.3031,11.17418 10.7563,14.37811 7.1194,5.12211 9.3877,5.37656 45.9852,5.1584 32.688,-0.19485 33.3597,-0.23702 37.6827,-2.36637 z m -72.165,-83.06367 c -2.2075,-1.29197 -4.5785,-2.91401 -5.269,-3.60453 -1.6469,-1.64687 -4.3112,-6.83294 -4.3112,-8.39174 0,-1.10543 3.6597,-4.10763 4.1251,-3.3839 0.1058,0.16463 0.9867,1.56495 1.9575,3.11183 2.199,3.50362 5.6341,6.25642 9.4533,7.5756 3.3869,1.16984 3.828,1.13252 10.6499,-0.90128 6.5993,-1.96743 21.3756,-1.9848 29.7717,-0.035 8.8906,2.06464 14.9813,1.20702 19.2215,-2.70656 1.7849,-1.64739 3.7179,-3.83901 4.2955,-4.87026 1.0447,-1.86507 1.0609,-1.86447 3.0623,0.11292 1.8727,1.85029 1.9148,2.17483 0.6083,4.6875 -2.267,4.36003 -4.787,6.7641 -9.1786,8.75662 -5.0477,2.29019 -9.7639,2.40743 -14.5551,0.36182 -4.9366,-2.10769 -32.8153,-2.40194 -34.0775,-0.35967 -0.4969,0.80397 -2.922,1.4428 -6.275,1.65304 -4.5267,0.28381 -6.1543,-0.0608 -9.4787,-2.00639 z m -51.44904,-10.7637 c -12.69442,-3.27625 -15.31444,-11.19779 -5.32595,-16.10283 3.94348,-1.93653 5.89069,-2.22875 14.85106,-2.22875 8.96033,0 10.90753,0.29222 14.85103,2.22875 8.2261,4.0396 8.3058,9.92183 0.1892,13.96886 -3.6984,1.84403 -6.3783,2.37652 -13.125,2.60787 -4.66275,0.15989 -9.8109,-0.0534 -11.44034,-0.4739 z m 146.25004,0 c -12.6945,-3.27625 -15.3145,-11.19779 -5.326,-16.10283 3.9435,-1.93653 5.8907,-2.22875 14.8511,-2.22875 8.9603,0 10.9076,0.29222 14.851,2.22875 8.2262,4.0396 8.3058,9.92183 0.1892,13.96886 -3.6983,1.84403 -6.3783,2.37652 -13.125,2.60787 -4.6627,0.15989 -9.8109,-0.0534 -11.4403,-0.4739 z m -135.78743,-25.734 c -14.37356,-4.74043 -22.03125,-13.58925 -22.03125,-25.45814 0,-10.62201 5.4986,-18.06559 17.4976,-23.68688 4.96658,-2.32674 6.46543,-2.56312 16.25238,-2.56312 9.787,0 11.2858,0.23638 16.2524,2.56312 11.999,5.62129 17.4976,13.06487 17.4976,23.68688 0,10.63473 -5.543,18.12743 -17.4976,23.65223 -4.591,2.12173 -6.9793,2.56985 -14.8461,2.78558 -5.9194,0.16233 -10.7573,-0.19879 -13.12503,-0.97967 z m 120.93753,0 c -14.3736,-4.74043 -22.0313,-13.58925 -22.0313,-25.45814 0,-10.62201 5.4986,-18.06559 17.4976,-23.68688 4.9666,-2.32674 6.4654,-2.56312 16.2524,-2.56312 9.787,0 11.2858,0.23638 16.2524,2.56312 11.999,5.62129 17.4976,13.06487 17.4976,23.68688 0,10.63473 -5.543,18.12743 -17.4976,23.65223 -4.591,2.12173 -6.9793,2.56985 -14.8461,2.78558 -5.9194,0.16233 -10.7573,-0.19879 -13.125,-0.97967 z M 946.48738,350.05688 c -6.49104,-4.70209 -8.23261,-8.00749 -8.23261,-15.62508 0,-5.84026 0.31807,-7.05248 2.65398,-10.11503 2.52399,-3.30912 9.6428,-8.78576 10.39369,-7.99607 0.19432,0.20437 0.50266,8.49266 0.6852,18.41845 0.23381,12.7126 0.0267,18.04687 -0.70045,18.04687 -0.56779,0 -2.7277,-1.22811 -4.79981,-2.72914 z m 33.83264,-57.72013 c -0.30091,-0.78415 -0.30091,-2.06731 0,-2.85146 0.46928,-1.22292 3.25072,-1.38962 19.55343,-1.17188 l 19.00635,0.25386 0,2.34375 0,2.34375 -19.00635,0.25386 c -16.30271,0.21774 -19.08415,0.051 -19.55343,-1.17188 z m 129.37498,0 c -0.3009,-0.78415 -0.3009,-2.06731 0,-2.85146 0.4693,-1.22292 3.2507,-1.38962 19.5535,-1.17188 l 19.0063,0.25386 0,2.34375 0,2.34375 -19.0063,0.25386 c -16.3028,0.21774 -19.0842,0.051 -19.5535,-1.17188 z"
         style="fill:#fbe679" />
      <path
         inkscape:connector-curvature="0"
         id="path4828"
         d="m 1031.0673,590.7801 c -27.3936,-2.36881 -59.41528,-10.37596 -84.60941,-21.15692 -7.53686,-3.22514 -7.73437,-3.39162 -7.73437,-6.51919 0,-4.77606 2.58912,-16.58703 5.66202,-25.82875 4.44171,-13.35846 13.06292,-29.01691 21.63024,-39.28635 l 3.61096,-4.32838 -6.77974,-0.69611 c -3.72885,-0.38284 -11.47102,-0.61149 -17.20482,-0.50808 -17.89838,0.32279 -29.79302,-4.11089 -41.12059,-15.32754 -11.1028,-10.99407 -16.09575,-23.91245 -15.26637,-39.49901 0.43062,-8.09272 1.09045,-10.19973 16.14717,-51.5625 8.63401,-23.71875 16.27221,-44.39062 16.97381,-45.9375 1.00814,-2.22277 1.34811,-13.03436 1.62133,-51.5625 0.32481,-45.80017 0.46724,-49.27589 2.35383,-57.44102 6.87511,-29.75534 19.94276,-53.72333 40.49716,-74.27773 20.72242,-20.72242 44.98978,-33.88335 74.75768,-40.54337 7.8882,-1.76486 11.9899,-2.04683 29.7736,-2.04683 17.7836,0 21.8853,0.28197 29.7736,2.04683 29.7678,6.66002 54.0352,19.82095 74.7576,40.54337 20.5609,20.56083 33.665,44.60188 40.487,74.27773 1.8449,8.02538 2.0404,12.24527 2.5523,55.09727 l 0.5545,46.40625 16.3149,44.53125 c 8.9732,24.49219 16.8784,46.64062 17.567,49.21875 0.6886,2.57812 1.2571,8.35713 1.2632,12.84223 0.026,19.11141 -10.3148,36.35726 -27.0842,45.16935 -8.7681,4.60748 -15.6489,6.20532 -26.7735,6.21731 -5.6218,0.006 -11.2658,0.5724 -14.0145,1.40625 -3.0158,0.91488 -8.6203,1.39611 -16.2592,1.39611 l -11.6571,0 3.7154,4.45312 c 12.3708,14.82705 24.1731,40.33706 26.1541,56.53053 l 0.5217,4.26491 -10.5568,4.95176 c -48.1053,22.56408 -96.9422,31.55177 -147.6285,27.16876 z m 75.6514,-108.44332 c 5.1607,-2.54196 10.8703,-7.98132 13.4542,-12.81738 1.814,-3.39496 1.8141,-3.44154 0.01,-4.77044 -3.1642,-2.32986 -16.7433,-7.21007 -21.3805,-7.68393 -4.8877,-0.49948 -5.0393,-0.7488 -3.1724,-5.21685 0.9674,-2.31551 2.1816,-3.33506 4.9644,-4.1688 2.026,-0.60702 7.8833,-3.17415 13.0162,-5.70475 35.5353,-17.51956 58.5079,-51.03688 62.2858,-90.87578 0.5232,-5.51737 0.9516,-23.21517 0.9521,-39.32845 l 10e-4,-29.29688 -39.7402,0 c -42.5778,0 -47.5619,-0.41032 -61.1442,-5.03369 -14.272,-4.85812 -26.0685,-12.19864 -37.6246,-23.41229 -9.0103,-8.74327 -15.5933,-17.88805 -21.0236,-29.20506 l -3.8797,-8.08559 -3.012,7.7902 c -13.98372,36.16771 -37.43678,64.99978 -57.93869,71.22704 -8.02805,2.43844 -14.64074,7.85515 -19.75142,16.17915 -7.54165,12.28338 -7.27544,30.89339 0.61932,43.29601 4.65122,7.30703 14.36116,15.23345 20.57013,16.7918 1.9271,0.48368 2.84255,1.77973 4.51275,6.38897 3.12686,8.62921 9.51805,20.8765 14.79152,28.34466 5.95773,8.43718 17.38959,19.88247 25.90201,25.93246 6.44028,4.57721 26.04138,14.76042 28.44508,14.77773 1.1723,0.008 2.4391,2.50956 3.5865,7.0812 0.4733,1.88573 0.229,2.30241 -1.3497,2.30241 -1.0602,0 -5.5684,1.31737 -10.0182,2.92749 -7.7782,2.81449 -8.0677,3.02258 -7.499,5.39063 0.9722,4.04827 6.3031,11.17418 10.7563,14.37811 7.1194,5.12211 9.3877,5.37656 45.9852,5.1584 32.688,-0.19485 33.3597,-0.23702 37.6827,-2.36637 z m -72.165,-83.06367 c -2.2075,-1.29197 -4.5785,-2.91401 -5.269,-3.60453 -1.6469,-1.64687 -4.3112,-6.83294 -4.3112,-8.39174 0,-1.10543 3.6597,-4.10763 4.1251,-3.3839 0.1058,0.16463 0.9867,1.56495 1.9575,3.11183 2.199,3.50362 5.6341,6.25642 9.4533,7.5756 3.3869,1.16984 3.828,1.13252 10.6499,-0.90128 6.5993,-1.96743 21.3756,-1.9848 29.7717,-0.035 8.8906,2.06464 14.9813,1.20702 19.2215,-2.70656 1.7849,-1.64739 3.7179,-3.83901 4.2955,-4.87026 1.0447,-1.86507 1.0609,-1.86447 3.0623,0.11292 1.8727,1.85029 1.9148,2.17483 0.6083,4.6875 -2.267,4.36003 -4.787,6.7641 -9.1786,8.75662 -5.0477,2.29019 -9.7639,2.40743 -14.5551,0.36182 -4.9366,-2.10769 -32.8153,-2.40194 -34.0775,-0.35967 -0.4969,0.80397 -2.922,1.4428 -6.275,1.65304 -4.5267,0.28381 -6.1543,-0.0608 -9.4787,-2.00639 z m -51.44904,-10.7637 c -12.69442,-3.27625 -15.31444,-11.19779 -5.32595,-16.10283 3.94348,-1.93653 5.89069,-2.22875 14.85106,-2.22875 8.96033,0 10.90753,0.29222 14.85103,2.22875 8.2261,4.0396 8.3058,9.92183 0.1892,13.96886 -3.6984,1.84403 -6.3783,2.37652 -13.125,2.60787 -4.66275,0.15989 -9.8109,-0.0534 -11.44034,-0.4739 z m 146.25004,0 c -12.6945,-3.27625 -15.3145,-11.19779 -5.326,-16.10283 3.9435,-1.93653 5.8907,-2.22875 14.8511,-2.22875 8.9603,0 10.9076,0.29222 14.851,2.22875 8.2262,4.0396 8.3058,9.92183 0.1892,13.96886 -3.6983,1.84403 -6.3783,2.37652 -13.125,2.60787 -4.6627,0.15989 -9.8109,-0.0534 -11.4403,-0.4739 z m -135.78743,-25.734 c -14.37356,-4.74043 -22.03125,-13.58925 -22.03125,-25.45814 0,-10.62201 5.4986,-18.06559 17.4976,-23.68688 4.96658,-2.32674 6.46543,-2.56312 16.25238,-2.56312 9.787,0 11.2858,0.23638 16.2524,2.56312 11.999,5.62129 17.4976,13.06487 17.4976,23.68688 0,10.63473 -5.543,18.12743 -17.4976,23.65223 -4.591,2.12173 -6.9793,2.56985 -14.8461,2.78558 -5.9194,0.16233 -10.7573,-0.19879 -13.12503,-0.97967 z m 6.29604,-11.6109 c -2.04381,-3.65677 -2.54322,-5.92029 -2.84906,-12.91315 -0.20397,-4.66354 0.0742,-10.09102 0.61817,-12.06107 l 0.98901,-3.58192 -2.52708,0.63066 c -6.92669,1.7286 -12.33959,7.53895 -13.07136,14.03115 -0.84405,7.48843 4.35833,14.22202 13.09596,16.95048 6.18575,1.93159 6.42355,1.73749 3.74436,-3.05615 z m 18.33879,1.44372 c 8.1774,-3.85257 11.8232,-13.28413 7.904,-20.44721 -1.9811,-3.62073 -7.7044,-8.0286 -11.6284,-8.95563 -2.5252,-0.59656 -2.5263,-0.5943 -1.5381,2.9849 0.544,1.97005 0.8222,7.39753 0.6182,12.06107 -0.3075,7.02964 -0.8011,9.24884 -2.8873,12.98154 l -2.5164,4.5024 3.0191,-0.61895 c 1.6605,-0.34043 4.8235,-1.46909 7.0289,-2.50812 z m 96.3027,10.16718 c -14.3736,-4.74043 -22.0313,-13.58925 -22.0313,-25.45814 0,-10.62201 5.4986,-18.06559 17.4976,-23.68688 4.9666,-2.32674 6.4654,-2.56312 16.2524,-2.56312 9.787,0 11.2858,0.23638 16.2524,2.56312 11.999,5.62129 17.4976,13.06487 17.4976,23.68688 0,10.63473 -5.543,18.12743 -17.4976,23.65223 -4.591,2.12173 -6.9793,2.56985 -14.8461,2.78558 -5.9194,0.16233 -10.7573,-0.19879 -13.125,-0.97967 z m 6.296,-11.6109 c -2.0438,-3.65677 -2.5432,-5.92029 -2.849,-12.91315 -0.204,-4.66354 0.074,-10.09102 0.6181,-12.06107 l 0.989,-3.58192 -2.527,0.63066 c -6.9267,1.7286 -12.3396,7.53895 -13.0714,14.03115 -0.8441,7.48843 4.3583,14.22202 13.096,16.95048 6.1857,1.93159 6.4235,1.73749 3.7443,-3.05615 z m 18.3388,1.44372 c 8.1774,-3.85257 11.8232,-13.28413 7.904,-20.44721 -1.9811,-3.62073 -7.7044,-8.0286 -11.6284,-8.95563 -2.5252,-0.59656 -2.5263,-0.5943 -1.5381,2.9849 0.544,1.97005 0.8222,7.39753 0.6182,12.06107 -0.3075,7.02964 -0.801,9.24884 -2.8873,12.98154 l -2.5164,4.5024 3.0191,-0.61895 c 1.6605,-0.34043 4.8235,-1.46909 7.0289,-2.50812 z m -192.65222,-2.55135 c -6.49104,-4.70209 -8.23261,-8.00749 -8.23261,-15.62508 0,-5.84026 0.31807,-7.05248 2.65398,-10.11503 2.52399,-3.30912 9.6428,-8.78576 10.39369,-7.99607 0.19432,0.20437 0.50266,8.49266 0.6852,18.41845 0.23381,12.7126 0.0267,18.04687 -0.70045,18.04687 -0.56779,0 -2.7277,-1.22811 -4.79981,-2.72914 z m 33.83264,-57.72013 c -0.30091,-0.78415 -0.30091,-2.06731 0,-2.85146 0.46928,-1.22292 3.25072,-1.38962 19.55343,-1.17188 l 19.00635,0.25386 0,2.34375 0,2.34375 -19.00635,0.25386 c -16.30271,0.21774 -19.08415,0.051 -19.55343,-1.17188 z m 129.37498,0 c -0.3009,-0.78415 -0.3009,-2.06731 0,-2.85146 0.4693,-1.22292 3.2507,-1.38962 19.5535,-1.17188 l 19.0063,0.25386 0,2.34375 0,2.34375 -19.0063,0.25386 c -16.3028,0.21774 -19.0842,0.051 -19.5535,-1.17188 z"
         style="fill:#f2b2b2" />
      <path
         inkscape:connector-curvature="0"
         id="path4826"
         d="m 1040.911,591.28105 c -33.0426,-2.28285 -60.25822,-8.39437 -90.23436,-20.263 -9.63485,-3.81478 -11.95312,-5.08891 -11.95312,-6.56946 0,-1.01023 0.84644,-5.99035 1.88098,-11.06693 3.82772,-18.78292 11.64229,-36.35756 22.70579,-51.06439 l 6.34728,-8.4375 -6.79515,-0.82221 c -3.73733,-0.45222 -11.48644,-0.73019 -17.22024,-0.61772 -17.87691,0.35066 -29.7798,-4.08133 -41.12059,-15.31106 -11.1028,-10.99407 -16.09575,-23.91245 -15.26637,-39.49901 0.43062,-8.09272 1.09045,-10.19973 16.14717,-51.5625 8.63401,-23.71875 16.27221,-44.39063 16.97381,-45.9375 1.00814,-2.22278 1.34811,-13.03436 1.62133,-51.5625 0.32481,-45.80018 0.46724,-49.27589 2.35383,-57.44102 6.87511,-29.75534 19.94276,-53.72333 40.49716,-74.27773 20.72242,-20.72242 44.98978,-33.88335 74.75768,-40.54337 7.8882,-1.76486 11.9899,-2.04683 29.7736,-2.04683 17.7836,0 21.8853,0.28197 29.7736,2.04683 29.7678,6.66002 54.0352,19.82095 74.7576,40.54337 20.5609,20.56083 33.665,44.60188 40.487,74.27773 1.8449,8.02538 2.0404,12.24527 2.5523,55.09727 l 0.5545,46.40625 16.3149,44.53125 c 8.9732,24.49219 16.8784,46.64062 17.567,49.21875 0.6886,2.57812 1.2571,8.35713 1.2632,12.84223 0.026,19.11141 -10.3148,36.35726 -27.0842,45.16935 -8.8274,4.63864 -15.6368,6.20717 -26.9469,6.20717 -5.2721,0 -10.7733,0.49675 -12.2249,1.1039 -1.4515,0.60713 -8.6495,1.34541 -15.9954,1.64062 l -13.3563,0.53673 6.3459,8.4375 c 10.2327,13.60539 17.6879,29.61099 21.8337,46.875 0.9906,4.125 1.804,7.81217 1.8077,8.19371 0,0.38155 -3.7656,2.58818 -8.3759,4.90361 -27.5338,13.82832 -58.9657,23.23318 -90.7462,27.15253 -11.6582,1.43774 -39.6155,2.48703 -48.9964,1.83893 z m 64.0463,-107.80006 c 2.4092,-0.82088 6.4476,-3.35116 8.9742,-5.62282 4.3936,-3.95023 8.9523,-11.14988 8.0175,-12.66235 -0.987,-1.59708 -20.1669,-8.3473 -23.7177,-8.3473 -3.5559,0 -3.7343,-0.13421 -3.3073,-2.48878 0.7679,-4.23466 1.9804,-5.57542 6.1661,-6.81846 13.1524,-3.90588 30.355,-14.66597 42.0566,-26.30608 16.2636,-16.17815 26.4948,-35.08124 31.4785,-58.15993 1.195,-5.53379 1.6055,-14.73755 1.9513,-43.7521 l 0.4379,-36.74412 -42.5048,-0.34397 c -39.858,-0.32256 -42.9798,-0.46931 -50.1316,-2.35663 -28.195,-7.4405 -52.1823,-26.29977 -64.9459,-51.0618 -1.9311,-3.74654 -4.027,-8.28844 -4.6574,-10.09313 l -1.1462,-3.28125 -3.5633,9.375 c -13.76673,36.21981 -39.39897,67.10212 -59.15418,71.27027 -10.35876,2.18559 -21.22456,16.32597 -23.61076,30.72624 -2.89608,17.47724 6.7135,35.76818 23.0048,43.78749 3.53391,1.73955 6.65203,3.82166 6.92915,4.62691 11.38963,33.09509 33.80199,57.48963 64.28069,69.96582 6.6289,2.71347 7.7853,3.53458 8.7579,6.21852 1.6704,4.60944 1.5015,5.436 -1.1108,5.436 -4.0422,0 -17.3135,5.57429 -17.3135,7.27215 0,5.68795 9.7699,16.69511 17.1324,19.30214 6.0601,2.14583 69.7065,2.19457 75.9764,0.0582 z m -67.0846,-83.23657 c -7.1237,-2.62858 -11.9502,-7.7004 -11.9582,-12.56594 0,-2.45551 2.9252,-4.09414 3.6007,-2.01425 0.9258,2.8507 7.3816,8.22837 11.0705,9.22169 3.0959,0.83365 4.6091,0.7402 7.9348,-0.49001 6.532,-2.41632 22.8763,-2.83386 31.0847,-0.79412 11.8385,2.94181 17.2972,1.8358 23.0009,-4.66034 5.1098,-5.81967 8.1926,-1.49401 3.4069,4.78036 -4.7184,6.18602 -12.6303,8.52223 -20.5707,6.07407 -6.0043,-1.8512 -34.8281,-2.18284 -35.9217,-0.4133 -1.1117,1.79874 -7.7731,2.29163 -11.6479,0.86184 z m -44.04673,-37.59514 c -8.91643,-2.45436 -17.97123,-9.7794 -20.9748,-16.96794 -1.68917,-4.04275 -1.68917,-12.68539 0,-16.72815 4.48523,-10.73465 17.92766,-18.33241 32.43483,-18.33241 14.5072,0 27.9496,7.59776 32.4349,18.33241 1.6891,4.04276 1.6891,12.6854 0,16.72815 -1.801,4.31025 -7.5423,10.47233 -12.4215,13.3317 -8.2149,4.81427 -21.5829,6.35873 -31.47343,3.63624 z m 6.03734,-11.48477 c -2.04381,-3.65677 -2.54322,-5.92029 -2.84906,-12.91315 -0.20397,-4.66354 0.0742,-10.09102 0.61817,-12.06107 l 0.98901,-3.58192 -2.52708,0.63066 c -6.92669,1.7286 -12.33959,7.53895 -13.07136,14.03115 -0.84405,7.48843 4.35833,14.22202 13.09596,16.95048 6.18575,1.93159 6.42355,1.73749 3.74436,-3.05615 z m 18.33879,1.44372 c 8.1774,-3.85257 11.8232,-13.28413 7.904,-20.44721 -1.9811,-3.62073 -7.7044,-8.0286 -11.6284,-8.95563 -2.5252,-0.59656 -2.5263,-0.5943 -1.5381,2.9849 0.544,1.97005 0.8222,7.39753 0.6182,12.06107 -0.3075,7.02963 -0.8011,9.24884 -2.8873,12.98154 l -2.5164,4.5024 3.0191,-0.61895 c 1.6605,-0.34043 4.8235,-1.46909 7.0289,-2.50812 z m 96.5614,10.04105 c -8.9165,-2.45436 -17.9713,-9.7794 -20.9748,-16.96794 -1.6892,-4.04275 -1.6892,-12.68539 0,-16.72815 4.4852,-10.73465 17.9276,-18.33241 32.4348,-18.33241 14.5072,0 27.9496,7.59776 32.4349,18.33241 1.6891,4.04276 1.6891,12.6854 0,16.72815 -1.801,4.31025 -7.5423,10.47233 -12.4215,13.3317 -8.2149,4.81427 -21.5829,6.35873 -31.4734,3.63624 z m 6.0373,-11.48477 c -2.0438,-3.65677 -2.5432,-5.92029 -2.849,-12.91315 -0.204,-4.66354 0.074,-10.09102 0.6181,-12.06107 l 0.989,-3.58192 -2.5271,0.63066 c -6.9266,1.7286 -12.3395,7.53895 -13.0713,14.03115 -0.8441,7.48843 4.3583,14.22202 13.096,16.95048 6.1857,1.93159 6.4235,1.73749 3.7443,-3.05615 z m 18.3388,1.44372 c 8.1774,-3.85257 11.8232,-13.28413 7.904,-20.44721 -1.9811,-3.62073 -7.7044,-8.0286 -11.6284,-8.95563 -2.5252,-0.59656 -2.5263,-0.5943 -1.5381,2.9849 0.544,1.97005 0.8222,7.39753 0.6182,12.06107 -0.3075,7.02963 -0.801,9.24884 -2.8873,12.98154 l -2.5164,4.5024 3.0191,-0.61896 c 1.6605,-0.34042 4.8235,-1.46908 7.0289,-2.50811 z m -191.97858,-2.54584 c -6.45518,-4.32468 -8.90625,-8.60626 -8.90625,-15.55762 0,-6.9513 2.45098,-11.23278 8.90625,-15.55781 l 4.21875,-2.82657 0.26772,8.90795 c 0.14725,4.89937 0.14725,13.17225 0,18.38418 l -0.26772,9.47624 -4.21875,-2.82637 z m 33.159,-57.72564 c -0.30091,-0.78415 -0.30091,-2.06731 0,-2.85146 0.46928,-1.22292 3.25072,-1.38962 19.55343,-1.17188 l 19.00635,0.25386 0,2.34375 0,2.34375 -19.00635,0.25386 c -16.30271,0.21774 -19.08415,0.051 -19.55343,-1.17188 z m 129.37498,0 c -0.3009,-0.78415 -0.3009,-2.06731 0,-2.85146 0.4693,-1.22292 3.2507,-1.38962 19.5535,-1.17188 l 19.0063,0.25386 0,2.34375 0,2.34375 -19.0063,0.25386 c -16.3028,0.21774 -19.0842,0.051 -19.5535,-1.17188 z"
         style="fill:#f7a979" />
      <path
         inkscape:connector-curvature="0"
         id="path4824"
         d="m 1040.911,591.28105 c -33.0426,-2.28285 -60.25822,-8.39437 -90.23436,-20.263 -9.63485,-3.81478 -11.95312,-5.08891 -11.95312,-6.56946 0,-1.01023 0.84644,-5.99035 1.88098,-11.06693 3.82772,-18.78292 11.64229,-36.35756 22.70579,-51.06439 l 6.34728,-8.4375 -6.79515,-0.82221 c -3.73733,-0.45222 -11.48644,-0.73019 -17.22024,-0.61772 -17.87691,0.35066 -29.7798,-4.08133 -41.12059,-15.31106 -11.1028,-10.99407 -16.09575,-23.91245 -15.26637,-39.49901 0.43062,-8.09272 1.09045,-10.19973 16.14717,-51.5625 8.63401,-23.71875 16.27221,-44.39063 16.97381,-45.9375 1.00814,-2.22278 1.34811,-13.03436 1.62133,-51.5625 0.32481,-45.80018 0.46724,-49.27589 2.35383,-57.44102 6.87511,-29.75534 19.94276,-53.72333 40.49716,-74.27773 20.72242,-20.72242 44.98978,-33.88335 74.75768,-40.54337 7.8882,-1.76486 11.9899,-2.04683 29.7736,-2.04683 17.7836,0 21.8853,0.28197 29.7736,2.04683 29.7678,6.66002 54.0352,19.82095 74.7576,40.54337 20.5609,20.56083 33.665,44.60188 40.487,74.27773 1.8449,8.02538 2.0404,12.24527 2.5523,55.09727 l 0.5545,46.40625 16.3149,44.53125 c 8.9732,24.49219 16.8784,46.64062 17.567,49.21875 0.6886,2.57812 1.2571,8.35713 1.2632,12.84223 0.026,19.11141 -10.3148,36.35726 -27.0842,45.16935 -8.8274,4.63864 -15.6368,6.20717 -26.9469,6.20717 -5.2721,0 -10.7733,0.49675 -12.2249,1.1039 -1.4515,0.60713 -8.6495,1.34541 -15.9954,1.64062 l -13.3563,0.53673 6.3459,8.4375 c 10.2327,13.60539 17.6879,29.61099 21.8337,46.875 0.9906,4.125 1.804,7.81217 1.8077,8.19371 0,0.38155 -3.7656,2.58818 -8.3759,4.90361 -27.5338,13.82832 -58.9657,23.23318 -90.7462,27.15253 -11.6582,1.43774 -39.6155,2.48703 -48.9964,1.83893 z m 64.0463,-107.80006 c 2.4092,-0.82088 6.4476,-3.35116 8.9742,-5.62282 4.3936,-3.95023 8.9523,-11.14988 8.0175,-12.66235 -0.987,-1.59708 -20.1669,-8.3473 -23.7177,-8.3473 -3.5559,0 -3.7343,-0.13421 -3.3073,-2.48878 0.7679,-4.23466 1.9804,-5.57542 6.1661,-6.81846 13.1524,-3.90588 30.355,-14.66597 42.0566,-26.30608 16.2636,-16.17815 26.4948,-35.08124 31.4785,-58.15993 1.195,-5.53379 1.6055,-14.73755 1.9513,-43.7521 l 0.4379,-36.74412 -42.5048,-0.34397 c -39.858,-0.32256 -42.9798,-0.46931 -50.1316,-2.35663 -28.195,-7.4405 -52.1823,-26.29977 -64.9459,-51.0618 -1.9311,-3.74654 -4.027,-8.28844 -4.6574,-10.09313 l -1.1462,-3.28125 -3.5633,9.375 c -13.76673,36.21981 -39.39897,67.10212 -59.15418,71.27027 -10.35876,2.18559 -21.22456,16.32597 -23.61076,30.72624 -2.89608,17.47724 6.7135,35.76818 23.0048,43.78749 3.53391,1.73955 6.65203,3.82166 6.92915,4.62691 11.38963,33.09509 33.80199,57.48963 64.28069,69.96582 6.6289,2.71347 7.7853,3.53458 8.7579,6.21852 1.6704,4.60944 1.5015,5.436 -1.1108,5.436 -4.0422,0 -17.3135,5.57429 -17.3135,7.27215 0,5.68795 9.7699,16.69511 17.1324,19.30214 6.0601,2.14583 69.7065,2.19457 75.9764,0.0582 z m -67.0846,-83.23657 c -7.1237,-2.62858 -11.9502,-7.7004 -11.9582,-12.56594 0,-2.45551 2.9252,-4.09414 3.6007,-2.01425 0.9258,2.8507 7.3816,8.22837 11.0705,9.22169 3.0959,0.83365 4.6091,0.7402 7.9348,-0.49001 6.532,-2.41632 22.8763,-2.83386 31.0847,-0.79412 11.8385,2.94181 17.2972,1.8358 23.0009,-4.66034 5.1098,-5.81967 8.1926,-1.49401 3.4069,4.78036 -4.7184,6.18602 -12.6303,8.52223 -20.5707,6.07407 -6.0043,-1.8512 -34.8281,-2.18284 -35.9217,-0.4133 -1.1117,1.79874 -7.7731,2.29163 -11.6479,0.86184 z m -44.04673,-37.59514 c -8.91643,-2.45436 -17.97123,-9.7794 -20.9748,-16.96794 -1.68917,-4.04275 -1.68917,-12.68539 0,-16.72815 4.48523,-10.73465 17.92766,-18.33241 32.43483,-18.33241 14.5072,0 27.9496,7.59776 32.4349,18.33241 1.6891,4.04276 1.6891,12.6854 0,16.72815 -1.801,4.31025 -7.5423,10.47233 -12.4215,13.3317 -8.2149,4.81427 -21.5829,6.35873 -31.47343,3.63624 z m 23.77263,-6.583 c 2.3891,-0.82887 6.1378,-3.04261 8.3305,-4.91945 14.5496,-12.45394 6.4978,-30.00868 -15.8167,-34.48401 l -3.1423,-0.63021 1.9335,1.93353 c 5.1936,5.19352 6.3936,23.4155 2.1231,32.23723 -5.2911,10.92986 -13.14762,4.197 -13.99751,-11.9955 -0.45563,-8.6808 1.46698,-17.0695 4.63921,-20.24173 l 1.9335,-1.93353 -3.1423,0.63021 c -10.8408,2.1742 -18.37133,7.08476 -21.53033,14.03963 -2.12413,4.67649 -2.20638,7.96995 -0.31227,12.50431 5.19048,12.42561 23.1527,18.35112 38.9816,12.85952 z m 97.1649,6.583 c -8.9165,-2.45436 -17.9713,-9.7794 -20.9748,-16.96794 -1.6892,-4.04275 -1.6892,-12.68539 0,-16.72815 4.4852,-10.73465 17.9276,-18.33241 32.4348,-18.33241 14.5072,0 27.9496,7.59776 32.4349,18.33241 1.6891,4.04276 1.6891,12.6854 0,16.72815 -1.801,4.31025 -7.5423,10.47233 -12.4215,13.3317 -8.2149,4.81427 -21.5829,6.35873 -31.4734,3.63624 z m 23.7726,-6.583 c 2.3891,-0.82887 6.1378,-3.04261 8.3305,-4.91945 14.5496,-12.45394 6.4978,-30.00868 -15.8167,-34.48401 l -3.1423,-0.63021 1.9335,1.93353 c 5.1936,5.19352 6.3936,23.4155 2.1231,32.23723 -5.2911,10.92986 -13.1476,4.197 -13.9975,-11.9955 -0.4556,-8.6808 1.467,-17.0695 4.6392,-20.24173 l 1.9335,-1.93353 -3.1423,0.63021 c -10.8408,2.1742 -18.3713,7.08476 -21.5303,14.03963 -2.1242,4.67649 -2.2064,7.96995 -0.3123,12.50431 5.1905,12.42561 23.1527,18.35112 38.9816,12.85952 z m -191.37508,-6.00389 c -6.45518,-4.32468 -8.90625,-8.60626 -8.90625,-15.55762 0,-6.9513 2.45098,-11.23278 8.90625,-15.55781 l 4.21875,-2.82657 0.26772,8.90795 c 0.14725,4.89937 0.14725,13.17225 0,18.38418 l -0.26772,9.47624 -4.21875,-2.82637 z m 33.159,-57.72564 c -0.30091,-0.78415 -0.30091,-2.06731 0,-2.85146 0.46928,-1.22292 3.25072,-1.38962 19.55343,-1.17188 l 19.00635,0.25386 0,2.34375 0,2.34375 -19.00635,0.25386 c -16.30271,0.21774 -19.08415,0.051 -19.55343,-1.17188 z m 129.37498,0 c -0.3009,-0.78415 -0.3009,-2.06731 0,-2.85146 0.4693,-1.22292 3.2507,-1.38962 19.5535,-1.17188 l 19.0063,0.25386 0,2.34375 0,2.34375 -19.0063,0.25386 c -16.3028,0.21774 -19.0842,0.051 -19.5535,-1.17188 z"
         style="fill:#f48d96" />
      <path
         inkscape:connector-curvature="0"
         id="path4822"
         d="m 957.47352,492.51342 c -1.28906,-0.39089 -6.77344,-0.50515 -12.1875,-0.25392 -16.93757,0.78595 -29.33896,-3.81713 -40.76443,-15.13072 -11.1028,-10.99407 -16.09575,-23.91245 -15.26637,-39.49901 0.43062,-8.09272 1.09045,-10.19973 16.14717,-51.5625 8.63401,-23.71875 16.27221,-44.39063 16.97381,-45.9375 1.00814,-2.22278 1.34811,-13.03436 1.62133,-51.5625 0.32481,-45.80018 0.46724,-49.27589 2.35383,-57.44102 6.87511,-29.75534 19.94276,-53.72333 40.49716,-74.27773 20.72242,-20.72242 44.98978,-33.88335 74.75768,-40.54337 7.8882,-1.76486 11.9899,-2.04683 29.7736,-2.04683 17.7836,0 21.8853,0.28197 29.7736,2.04683 29.7678,6.66002 54.0352,19.82095 74.7576,40.54337 20.5609,20.56083 33.665,44.60188 40.487,74.27773 1.8449,8.02538 2.0404,12.24527 2.5523,55.09727 l 0.5545,46.40625 16.3149,44.53125 c 8.9732,24.49219 16.8784,46.64062 17.567,49.21875 0.6886,2.57812 1.2571,8.35713 1.2632,12.84223 0.026,19.11141 -10.3148,36.35726 -27.0842,45.16935 -8.7681,4.60748 -15.6489,6.20532 -26.7735,6.21731 -5.6218,0.006 -11.2658,0.5724 -14.0145,1.40625 -3.0193,0.91593 -8.6247,1.39611 -16.2974,1.39611 l -11.6952,0 -6.7637,-6.42488 c -14.1672,-13.45738 -30.469,-23.4428 -46.9907,-28.78339 l -10.6063,-3.42846 1.1342,-2.77959 c 0.9518,-2.33264 2.4342,-3.26859 9.2188,-5.82069 33.2914,-12.52288 59.345,-41.87163 68.3129,-76.95287 2.9924,-11.70579 3.7529,-22.85411 3.7556,-55.05454 l 0,-31.58818 -42.4219,-0.34366 c -39.7735,-0.3222 -42.898,-0.46931 -50.0486,-2.35632 -28.1951,-7.44049 -52.1823,-26.29976 -64.9459,-51.06179 -1.9312,-3.74654 -4.027,-8.28844 -4.6574,-10.09313 l -1.1462,-3.28125 -3.6891,9.73743 c -13.58139,35.84838 -39.21005,66.62877 -59.02842,70.89397 -10.3872,2.23548 -21.22569,16.34669 -23.61076,30.74011 -2.89024,17.44203 6.59496,35.53178 22.97979,43.82606 l 6.4003,3.23993 3.03563,8.08485 c 10.48406,27.92235 34.08542,52.10842 61.72286,63.25196 6.7248,2.71146 7.8597,3.50785 8.8352,6.19964 0.6156,1.69871 1.1514,3.36387 1.1906,3.70036 0.039,0.3365 -2.9872,1.53213 -6.7255,2.65695 -14.8211,4.4596 -33.64033,15.74024 -46.78462,28.04371 l -8.11275,7.59378 -5.01225,-0.0935 c -2.75674,-0.0514 -6.06694,-0.41325 -7.356,-0.80413 z m 80.39918,-92.269 c -7.1237,-2.62858 -11.9502,-7.7004 -11.9582,-12.56594 0,-2.45551 2.9252,-4.09414 3.6007,-2.01425 0.9258,2.8507 7.3816,8.22837 11.0705,9.22169 3.0959,0.83365 4.6091,0.7402 7.9348,-0.49001 6.532,-2.41632 22.8763,-2.83386 31.0847,-0.79412 11.8385,2.94181 17.2972,1.8358 23.0009,-4.66034 5.1098,-5.81967 8.1926,-1.49401 3.4069,4.78036 -4.7184,6.18602 -12.6303,8.52223 -20.5707,6.07407 -6.0043,-1.8512 -34.8281,-2.18284 -35.9217,-0.4133 -1.1117,1.79874 -7.7731,2.29163 -11.6479,0.86184 z m -44.04673,-37.59514 c -8.91643,-2.45436 -17.97123,-9.7794 -20.9748,-16.96794 -1.68917,-4.04275 -1.68917,-12.68539 0,-16.72815 4.48523,-10.73465 17.92766,-18.33241 32.43483,-18.33241 14.5072,0 27.9496,7.59776 32.4349,18.33241 1.6891,4.04276 1.6891,12.6854 0,16.72815 -1.801,4.31025 -7.5423,10.47233 -12.4215,13.3317 -8.2149,4.81427 -21.5829,6.35873 -31.47343,3.63624 z m 23.77263,-6.583 c 2.3891,-0.82887 6.1378,-3.04261 8.3305,-4.91945 14.5496,-12.45394 6.4978,-30.00868 -15.8167,-34.48401 l -3.1423,-0.63021 1.9335,1.93353 c 5.1936,5.19352 6.3936,23.4155 2.1231,32.23723 -5.2911,10.92986 -13.14762,4.197 -13.99751,-11.9955 -0.45563,-8.6808 1.46698,-17.0695 4.63921,-20.24173 l 1.9335,-1.93353 -3.1423,0.63021 c -10.8408,2.1742 -18.37133,7.08476 -21.53033,14.03963 -2.12413,4.67649 -2.20638,7.96995 -0.31227,12.50431 5.19048,12.42561 23.1527,18.35112 38.9816,12.85952 z m 97.1649,6.583 c -8.9165,-2.45436 -17.9713,-9.7794 -20.9748,-16.96794 -1.6892,-4.04275 -1.6892,-12.68539 0,-16.72815 4.4852,-10.73465 17.9276,-18.33241 32.4348,-18.33241 14.5072,0 27.9496,7.59776 32.4349,18.33241 1.6891,4.04276 1.6891,12.6854 0,16.72815 -1.801,4.31025 -7.5423,10.47233 -12.4215,13.3317 -8.2149,4.81427 -21.5829,6.35873 -31.4734,3.63624 z m 23.7726,-6.583 c 2.3891,-0.82887 6.1378,-3.04261 8.3305,-4.91945 14.5496,-12.45394 6.4978,-30.00868 -15.8167,-34.48401 l -3.1423,-0.63021 1.9335,1.93353 c 5.1936,5.19352 6.3936,23.4155 2.1231,32.23723 -5.2911,10.92986 -13.1476,4.197 -13.9975,-11.9955 -0.4556,-8.6808 1.467,-17.0695 4.6392,-20.24173 l 1.9335,-1.93353 -3.1423,0.63021 c -10.8408,2.1742 -18.3713,7.08476 -21.5303,14.03963 -2.1242,4.67649 -2.2064,7.96995 -0.3123,12.50431 5.1905,12.42561 23.1527,18.35112 38.9816,12.85952 z M 980.32002,292.33675 c -0.30091,-0.78415 -0.30091,-2.06731 0,-2.85146 0.46928,-1.22292 3.25072,-1.38962 19.55343,-1.17188 l 19.00635,0.25386 0,2.34375 0,2.34375 -19.00635,0.25386 c -16.30271,0.21774 -19.08415,0.051 -19.55343,-1.17188 z m 129.37498,0 c -0.3009,-0.78415 -0.3009,-2.06731 0,-2.85146 0.4693,-1.22292 3.2507,-1.38962 19.5535,-1.17188 l 19.0063,0.25386 0,2.34375 0,2.34375 -19.0063,0.25386 c -16.3028,0.21774 -19.0842,0.051 -19.5535,-1.17188 z"
         style="fill:#a29798" />
      <path
         inkscape:connector-curvature="0"
         id="path4820"
         d="m 958.41102,492.40479 c -1.80469,-0.44786 -7.5,-0.58243 -12.65625,-0.29902 -16.06208,0.88279 -30.08647,-4.17665 -40.79024,-14.71552 -12.0502,-11.86458 -17.86043,-29.23574 -15.00712,-44.86775 0.93465,-5.12055 28.53486,-83.05364 32.38911,-91.45523 1.02592,-2.2363 1.36563,-12.70381 1.65821,-51.09375 0.34783,-45.63836 0.48163,-48.79443 2.44421,-57.65625 13.31843,-60.13804 56.43377,-103.09081 116.33706,-115.89842 8.339,-1.7829 12.7101,-2.10464 28.5938,-2.10464 15.8837,0 20.2548,0.32174 28.5937,2.10464 60.0963,12.84887 103.4361,56.18397 116.3796,116.36717 1.9818,9.2146 2.1502,12.74979 2.6344,55.3125 l 0.5173,45.46875 16.3268,44.53125 c 8.9798,24.49219 16.8834,46.85156 17.5635,49.6875 6.3744,26.57891 -10.8909,54.03741 -38.6102,61.4051 -3.5654,0.94766 -8.821,1.42399 -14.4989,1.31406 -5.8574,-0.1134 -10.819,0.35446 -14.4938,1.36671 -3.6663,1.0099 -9.258,1.53913 -16.2623,1.53913 l -10.6746,0 -8.1128,-7.60283 c -13.5249,-12.67484 -34.6003,-25.22529 -47.9565,-28.5582 -7.2412,-1.80698 -7.7851,-2.22032 -7.006,-5.32464 0.4732,-1.88505 1.8039,-2.81871 6.3801,-4.47613 15.4595,-5.5993 29.4549,-14.57569 41.4904,-26.61118 15.7535,-15.75348 25.5102,-33.55249 30.97,-56.49806 1.2273,-5.15778 1.6064,-13.69912 1.9565,-44.071 l 0.4342,-37.67328 -42.0345,-0.34074 -42.0344,-0.34074 -9.2224,-2.49959 c -29.7471,-8.06249 -52.9763,-27.32208 -65.9266,-54.66036 l -4.3389,-9.1596 -3.4975,9.02562 c -5.0363,12.997 -10.76707,24.16501 -17.90057,34.88448 -13.84461,20.80419 -26.37033,31.97277 -40.616,36.21532 -5.62882,1.67633 -7.28862,2.72415 -12.20699,7.70616 -16.76192,16.9788 -16.78523,42.4495 -0.0542,59.23504 3.51898,3.53044 7.81691,6.67851 11.43479,8.37557 5.57589,2.6155 5.87506,2.93562 7.85615,8.40598 5.5623,15.35912 14.5688,29.38755 26.57645,41.3952 9.93306,9.93306 19.78127,16.81448 32.34627,22.60177 4.9428,2.27664 9.5859,4.45654 10.3178,4.84423 0.732,0.3877 1.8692,2.26007 2.5273,4.16085 1.1707,3.38154 1.1421,3.46749 -1.3308,3.99313 -9.3017,1.97714 -26.5136,10.41557 -38.27304,18.76397 -3.16016,2.2435 -9.12529,7.25833 -13.25585,11.14406 -7.06937,6.65036 -7.75,7.05934 -11.59801,6.96901 -2.24835,-0.0528 -5.56447,-0.46241 -7.36915,-0.91027 z m 77.32628,-93.11274 c -3.2105,-1.3989 -8.4012,-6.93046 -9.3712,-9.98647 -0.4069,-1.28217 -0.1467,-2.54224 0.6998,-3.38877 1.1719,-1.17185 1.6656,-0.8673 3.7845,2.33471 2.8781,4.34902 9.7852,8.09952 13.6124,7.39134 1.3981,-0.25871 5.4951,-1.14063 9.1045,-1.95984 8.2926,-1.88212 16.0105,-1.89085 24.375,-0.0276 11.4537,2.55144 13.883,2.63007 18.4767,0.59806 2.3246,-1.02832 5.4086,-3.41924 6.8531,-5.31316 2.3011,-3.01682 2.7959,-3.27413 3.9934,-2.07662 1.1975,1.19751 1.1147,1.81568 -0.6687,4.98881 -3.2179,5.72541 -7.7263,8.28413 -14.5213,8.24155 -3.1327,-0.0196 -7.9682,-0.54698 -10.7456,-1.17188 -7.0715,-1.59106 -26.7875,-1.40518 -31.5126,0.29711 -4.6373,1.67063 -10.3451,1.70012 -14.08,0.0727 z m -40.29503,-36.57699 c -9.45314,-2.34236 -16.69461,-7.3651 -20.87776,-14.48098 -2.1295,-3.62245 -2.55974,-5.45732 -2.55974,-10.91681 0,-5.45949 0.43024,-7.29436 2.55974,-10.91681 12.19717,-20.74835 49.24589,-20.74835 61.44299,0 2.1295,3.62245 2.5598,5.45732 2.5598,10.91681 0,5.45949 -0.4303,7.29436 -2.5598,10.91681 -7.2014,12.25027 -24.5599,18.44689 -40.56523,14.48098 z m 21.85553,-6.48221 c 5.4824,-1.88885 10.4878,-5.53578 13.3007,-9.69105 1.8703,-2.76275 2.3438,-4.62623 2.3438,-9.22453 0,-4.59235 -0.4759,-6.46988 -2.3438,-9.24682 -4.0012,-5.94853 -10.1888,-9.36632 -20.625,-11.39236 -2.8644,-0.5561 -3.0767,-0.47658 -1.6712,0.62609 4.2571,3.33963 6.5897,17.38581 4.5317,27.28809 -1.2136,5.8392 -4.7571,11.00625 -7.548,11.00625 -2.7909,0 -6.33438,-5.16705 -7.54794,-11.00625 -2.05802,-9.90228 0.27458,-23.94846 4.53164,-27.28809 1.4056,-1.10267 1.1933,-1.18219 -1.6712,-0.62609 -13.73468,2.66641 -21.66348,8.79585 -23.01221,17.78985 -2.04952,13.66717 11.72644,24.62347 29.58221,23.52728 3.3556,-0.20601 7.9138,-0.99907 10.1293,-1.76237 z m 99.082,6.48221 c -9.4532,-2.34236 -16.6946,-7.3651 -20.8778,-14.48098 -2.1295,-3.62245 -2.5597,-5.45732 -2.5597,-10.91681 0,-5.45949 0.4302,-7.29436 2.5597,-10.91681 12.1972,-20.74835 49.2459,-20.74835 61.443,0 2.1295,3.62245 2.5598,5.45732 2.5598,10.91681 0,5.45949 -0.4303,7.29436 -2.5598,10.91681 -7.2014,12.25027 -24.5599,18.44689 -40.5652,14.48098 z m 21.8555,-6.48221 c 5.4824,-1.88885 10.4878,-5.53578 13.3007,-9.69105 1.8703,-2.76275 2.3438,-4.62623 2.3438,-9.22453 0,-4.59235 -0.4759,-6.46988 -2.3438,-9.24682 -4.0012,-5.94853 -10.1888,-9.36632 -20.625,-11.39236 -2.8644,-0.5561 -3.0767,-0.47658 -1.6712,0.62609 4.2571,3.33963 6.5897,17.38581 4.5317,27.28809 -1.2136,5.8392 -4.7571,11.00625 -7.548,11.00625 -2.7909,0 -6.3344,-5.16705 -7.5479,-11.00625 -2.0581,-9.90228 0.2745,-23.94846 4.5316,-27.28809 1.4056,-1.10267 1.1933,-1.18219 -1.6712,-0.62609 -13.7347,2.66641 -21.6635,8.79585 -23.0122,17.78985 -2.0495,13.66717 11.7264,24.62347 29.5822,23.52728 3.3556,-0.20601 7.9138,-0.99907 10.1293,-1.76237 z M 980.91102,292.31727 c -0.93112,-1.12193 -0.93112,-1.69057 0,-2.8125 0.96149,-1.15853 4.26444,-1.40625 18.75,-1.40625 14.48558,0 17.78848,0.24772 18.74998,1.40625 0.9311,1.12193 0.9311,1.69057 0,2.8125 -0.9615,1.15853 -4.2644,1.40625 -18.74998,1.40625 -14.48556,0 -17.78851,-0.24772 -18.75,-1.40625 z m 129.37498,0 c -0.9311,-1.12193 -0.9311,-1.69057 0,-2.8125 0.9615,-1.15853 4.2645,-1.40625 18.75,-1.40625 14.4856,0 17.7885,0.24772 18.75,1.40625 0.9311,1.12193 0.9311,1.69057 0,2.8125 -0.9615,1.15853 -4.2644,1.40625 -18.75,1.40625 -14.4855,0 -17.7885,-0.24772 -18.75,-1.40625 z"
         style="fill:#8f6d67" />
      <path
         inkscape:connector-curvature="0"
         id="path4818"
         d="m 962.75254,492.75255 c -0.36215,-0.36217 -7.49887,-0.73138 -15.85937,-0.82048 -13.59785,-0.14492 -15.91929,-0.41224 -22.01298,-2.53481 -8.70885,-3.03348 -14.60561,-6.84377 -21.01661,-13.58024 -9.71221,-10.20525 -14.0777,-20.8276 -14.15276,-34.43725 -0.027,-4.88664 0.56115,-10.60747 1.39744,-13.59375 1.45697,-5.20267 29.98116,-84.17641 31.66017,-87.65625 0.5301,-1.09865 1.03966,-21.28389 1.23066,-48.75 0.36503,-52.49248 0.64685,-55.43689 7.23262,-75.568 7.13108,-21.79793 18.10714,-40.20645 33.59295,-56.34046 19.67001,-20.49335 43.04064,-34.06152 70.67504,-41.03149 49.1208,-12.38931 101.3388,1.39953 137.7885,36.38484 20.5018,19.67811 34.0914,43.09161 41.021,70.675 4.0195,15.99985 4.7268,26.21158 4.7268,68.24217 l 0,38.38228 16.8867,46.4752 c 9.6129,26.45648 17.3676,49.28027 18.0033,52.98739 3.2379,18.88178 -7.2883,41.2679 -23.9966,51.03397 -9.5391,5.57559 -16.0446,7.336 -28.2371,7.64097 -6.1875,0.15477 -13.9922,0.91791 -17.3438,1.69585 -3.3515,0.77795 -10.3514,1.42325 -15.5552,1.43399 l -9.4615,0.0195 -7.4135,-7.11293 c -13.4285,-12.88409 -31.5611,-23.73569 -48.4547,-28.99819 -7.4751,-2.32855 -8.1738,-2.74566 -7.629,-4.55422 0.8568,-2.84463 1.0148,-2.95015 9.2952,-6.20758 27.6015,-10.85824 50.9402,-33.2469 62.3448,-59.80694 8.3577,-19.46421 9.3739,-27.01107 9.3739,-69.61689 l 0,-34.48866 -41.4844,-0.37427 c -41.1372,-0.37114 -41.5599,-0.39462 -50.5155,-2.80679 -19.084,-5.14018 -32.0852,-12.40613 -45.6684,-25.52265 -11.3696,-10.97885 -19.6748,-23.48533 -24.9308,-37.54213 -0.5535,-1.48052 -1.285,-0.29708 -3.4764,5.625 -13.82134,37.34965 -39.16895,68.3695 -60.18808,73.65679 -5.34567,1.34469 -14.25902,9.01416 -18.10688,15.58005 -7.78957,13.29189 -7.78957,30.42193 0,43.71382 3.47094,5.92271 12.70229,14.09395 18.75809,16.60393 3.76449,1.56029 5.32394,2.75735 5.73722,4.40398 1.48244,5.90651 8.35828,19.83855 13.89664,28.15784 11.6539,17.50551 30.63801,33.27621 49.43551,41.06767 7.5198,3.11689 8.4577,3.78289 9.4158,6.68601 0.5853,1.77335 0.9166,3.34972 0.7363,3.50304 -0.1803,0.15331 -3.281,1.23947 -6.8903,2.41368 -15.5011,5.04286 -34.04913,16.35369 -46.78855,28.53229 -6.04651,5.78033 -7.96246,7.08715 -10.39062,7.08715 -1.63741,0 -3.27342,-0.29632 -3.63558,-0.65847 z m 74.11206,-93.51229 c -4.5177,-1.6112 -6.9135,-3.7762 -9.2543,-8.36266 -1.3398,-2.62507 -1.5679,-3.91041 -0.8259,-4.65242 0.742,-0.742 1.824,-0.0562 3.9166,2.4825 3.0701,3.72453 8.7728,7.13406 12.2994,7.35357 1.1712,0.0728 4.6606,-0.64784 7.7544,-1.60163 7.309,-2.25337 22.0828,-2.31104 30.1353,-0.11764 3.1682,0.86297 7.2983,1.56904 9.178,1.56904 4.2883,0 9.8794,-2.80297 13.0082,-6.52139 4.2224,-5.01798 6.6941,-2.47686 2.9501,3.03292 -4.7162,6.94046 -12.1981,9.30716 -21.6666,6.85361 -7.8147,-2.02498 -30.5605,-2.07898 -35.3354,-0.0839 -4.1032,1.7144 -7.4503,1.72761 -12.1598,0.048 z m -40.60806,-36.55034 c -9.44052,-2.14045 -16.17703,-6.34943 -20.41713,-12.75666 -11.91039,-17.9978 3.8621,-38.75748 29.44659,-38.75748 21.0433,0 36.6589,14.46586 32.9519,30.52565 -3.5938,15.56895 -23.029,25.28556 -41.98136,20.98849 z m 20.06796,-5.70919 c 2.6489,-0.78665 6.6254,-2.81017 8.8367,-4.49672 15.7012,-11.97573 7.6503,-32.99955 -13.7607,-35.93426 l -4.3679,-0.59869 2.3832,3.51178 c 3.0184,4.4478 3.8604,8.45249 3.7543,17.85443 -0.1348,11.9512 -4.7356,20.03227 -9.8473,17.29656 -3.39643,-1.81774 -5.82633,-8.91608 -5.92089,-17.29656 -0.1061,-9.40194 0.73598,-13.40663 3.75439,-17.85443 l 2.3831,-3.51178 -4.3679,0.59869 c -21.04391,2.88439 -29.33433,23.48189 -14.31833,35.57379 7.29535,5.87471 20.94903,7.98198 31.47133,4.85719 z m 100.8695,5.70919 c -9.4405,-2.14045 -16.177,-6.34943 -20.4171,-12.75666 -11.9104,-17.9978 3.8621,-38.75748 29.4466,-38.75748 21.0433,0 36.6589,14.46586 32.9519,30.52565 -3.5938,15.56895 -23.029,25.28556 -41.9814,20.98849 z m 20.068,-5.70919 c 2.649,-0.78665 6.6254,-2.81017 8.8367,-4.49672 15.7012,-11.97573 7.6503,-32.99955 -13.7607,-35.93426 l -4.3679,-0.59869 2.3832,3.51178 c 3.0184,4.4478 3.8604,8.45249 3.7543,17.85443 -0.1348,11.9512 -4.7355,20.03227 -9.8473,17.29656 -3.3964,-1.81774 -5.8263,-8.91608 -5.9209,-17.29656 -0.1061,-9.40194 0.736,-13.40663 3.7544,-17.85443 l 2.3831,-3.51178 -4.3679,0.59869 c -21.0439,2.88439 -29.3343,23.48189 -14.3183,35.57379 7.2953,5.87471 20.949,7.98198 31.4713,4.85719 z m -155.17911,-63.8781 c -1.66843,-0.67323 -1.45204,-3.75849 0.31106,-4.43506 0.8156,-0.31298 8.58579,-0.56905 17.26707,-0.56905 8.68128,0 16.45148,0.25607 17.26708,0.56905 0.8156,0.31298 1.4829,1.32253 1.4829,2.24345 0,0.92092 -0.6673,1.93047 -1.4829,2.24345 -1.7647,0.67716 -33.15427,0.63047 -34.84521,-0.0519 z m 129.37501,0 c -1.6684,-0.67323 -1.452,-3.75849 0.3111,-4.43506 0.8156,-0.31298 8.5857,-0.56905 17.267,-0.56905 8.6813,0 16.4515,0.25607 17.2671,0.56905 0.8156,0.31298 1.4829,1.32253 1.4829,2.24345 0,0.92092 -0.6673,1.93047 -1.4829,2.24345 -1.7647,0.67716 -33.1543,0.63047 -34.8452,-0.0519 z"
         style="fill:#4e5259" />
      <path
         inkscape:connector-curvature="0"
         id="path4816"
         d="m 958.87977,492.0324 c -4.0198,-0.87291 -7.19129,-0.97391 -11.11365,-0.35392 -19.60824,3.09936 -42.99319,-9.15555 -52.17346,-27.34158 -4.66581,-9.24289 -5.8648,-15.03139 -5.41004,-26.11845 l 0.40868,-9.96368 16.28615,-44.0625 16.28615,-44.0625 0.60587,-47.34375 c 0.63977,-49.99278 0.97439,-54.16118 5.71959,-71.25 4.27329,-15.38931 12.67869,-32.97972 22.11434,-46.27981 7.1875,-10.13119 24.01555,-26.83267 34.46387,-34.20467 21.21493,-14.96859 46.81523,-24.13471 73.86163,-26.44604 33.2787,-2.84393 69.143,6.95801 96.7634,26.44604 10.8124,7.62892 27.3868,24.20328 35.0157,35.01573 6.7748,9.60187 15.7749,27.39791 19.4,38.35968 6.6472,20.10037 7.9094,33.1145 7.92,81.66312 l 0.01,36.58531 16.9175,46.38344 c 19.225,52.70977 20.069,56.0401 17.4579,68.88345 -3.1135,15.31469 -12.3667,28.36696 -25.1206,35.43454 -9.1988,5.09747 -14.8656,6.51366 -27.0673,6.76436 -5.9297,0.12184 -13.7344,0.90007 -17.3437,1.72941 -3.6094,0.82934 -10.5191,1.51521 -15.3548,1.52416 l -8.7927,0.0163 -6.4121,-6.04884 c -15.7982,-14.90325 -34.6618,-26.07765 -52.445,-31.06738 -3.0743,-0.8626 -5.5896,-1.69624 -5.5896,-1.85254 0,-0.15629 0.3848,-1.29628 0.8551,-2.53331 0.6208,-1.63289 2.4831,-2.83867 6.7969,-4.40088 31.8693,-11.54124 57.4341,-37.80838 68.267,-70.14255 5.0529,-15.08184 5.6435,-21.34586 5.6435,-59.85855 l 0,-35.03345 -35.3907,-0.007 c -37.2843,-0.008 -46.6246,-0.60986 -58.8281,-3.79007 -8.5735,-2.23423 -22.2146,-8.42467 -30.1837,-13.6976 -7.1537,-4.73345 -18.1551,-15.21381 -23.9514,-22.81714 -2.555,-3.35156 -7.0451,-11.00273 -9.9779,-17.00258 l -5.3324,-10.90882 -2.6228,7.62757 c -6.3924,18.59006 -20.03207,41.80432 -32.41268,55.16539 -7.42956,8.01795 -18.65399,16.06049 -24.70007,17.69813 -7.43005,2.0125 -9.15111,2.98589 -14.38236,8.13422 -3.52715,3.47124 -6.35394,7.49039 -8.65044,12.29925 -3.31145,6.93398 -3.41122,7.45823 -3.41122,17.92415 0,10.46592 0.0998,10.99017 3.41122,17.92433 4.34738,9.10341 11.48472,16.32866 19.87418,20.11899 5.44799,2.46138 6.17302,3.11671 7.17799,6.48793 1.97851,6.63706 8.29877,19.26203 13.72685,27.41994 11.90576,17.89324 32.62293,34.27151 53.04033,41.93168 3.6002,1.35075 4.6153,2.25545 5.484,4.88766 0.5863,1.77656 0.9185,3.33975 0.7382,3.47379 -0.1802,0.13402 -3.1086,1.13561 -6.5074,2.22574 -16.86,5.40761 -33.68763,15.75076 -48.76355,29.97262 -6.78475,6.4004 -7.10662,6.48904 -16.30682,4.4912 z m 43.87753,-137.84064 c -7.0772,-4.95706 -6.87656,-32.0213 0.2721,-36.70529 2.055,-1.34646 2.4583,-1.34646 4.5132,0 5.1485,3.37343 7.324,20.20881 3.9254,30.37717 -1.3954,4.17517 -4.2405,7.73488 -6.182,7.73488 -0.2861,0 -1.4241,-0.63304 -2.5287,-1.40676 z m 120.9375,0 c -7.0772,-4.95706 -6.8766,-32.0213 0.2721,-36.70529 2.055,-1.34646 2.4583,-1.34646 4.5132,0 5.1485,3.37343 7.324,20.20881 3.9254,30.37717 -1.3954,4.17517 -4.2405,7.73488 -6.182,7.73488 -0.2861,0 -1.4241,-0.63304 -2.5287,-1.40676 z"
         style="fill:#373737" />
      <path
         inkscape:connector-curvature="0"
         id="path4814"
         d="m 960.75477,492.3113 c -5.24159,-0.98311 -5.63529,-0.99956 -18.75,-0.78332 -7.17689,0.11832 -10.80377,-0.29641 -15.46875,-1.76888 -13.62863,-4.30176 -25.06245,-13.92316 -31.25441,-26.30015 -4.36882,-8.73276 -5.6447,-15.36289 -5.05988,-26.29376 0.46676,-8.72392 0.82059,-9.85228 16.90556,-53.91042 l 16.42881,-45 0.45132,-46.40625 c 0.50103,-51.51757 0.97835,-56.50592 7.28816,-76.16633 3.83291,-11.94278 12.87945,-29.97164 20.17964,-40.21602 7.18048,-10.0764 24.06399,-26.97899 33.95257,-33.99095 10.1948,-7.2291 28.25951,-16.31347 40.01451,-20.12248 28.8101,-9.33545 63.0649,-9.33545 91.875,0 11.7951,3.82201 29.8672,12.91883 39.9761,20.12248 10.0764,7.18048 26.979,24.06399 33.9909,33.95257 7.3263,10.33185 16.3595,28.3512 20.1797,40.2544 6.2288,19.40806 6.7753,24.92933 7.2986,73.72974 l 0.4714,43.96967 16.7406,46.09128 c 18.2347,50.20496 19.534,55.03084 17.8094,66.14646 -3.1265,20.15076 -15.5596,35.09323 -34.8597,41.89554 -5.749,2.02622 -8.8226,2.47617 -18.1695,2.65977 -6.1875,0.12154 -12.7266,0.7144 -14.5313,1.31747 -1.8047,0.60306 -8.4388,1.34246 -14.7425,1.64309 l -11.4612,0.5466 -6.5556,-6.18424 c -15.9549,-15.05106 -34.7407,-26.1949 -52.6106,-31.20894 -4.9874,-1.39939 -5.5453,-1.79475 -5.0155,-3.5542 0.8362,-2.77683 0.8822,-2.80658 9.8365,-6.36169 34.0473,-13.51775 58.2519,-41.00167 68.1255,-77.35561 2.4855,-9.15111 2.5005,-9.4048 2.8302,-47.87173 l 0.3315,-38.67188 -34.9785,-0.0162 c -19.2382,-0.009 -38.7754,-0.42015 -43.416,-0.91377 -36.0473,-3.83436 -66.6134,-26.05951 -81.5416,-59.29029 l -3.6788,-8.18903 -2.9716,8.32268 c -6.9028,19.33322 -19.86244,41.31255 -32.22644,54.65569 -7.49392,8.0874 -18.73646,16.11497 -24.70075,17.63721 -7.01651,1.79078 -9.05377,2.95168 -14.38168,8.19515 -3.52715,3.47123 -6.35394,7.49039 -8.65044,12.29925 -3.31145,6.93416 -3.41122,7.45841 -3.41122,17.92433 0,10.46592 0.0998,10.99017 3.41122,17.92433 4.34738,9.10341 11.48472,16.32866 19.87418,20.11899 5.44799,2.46138 6.17302,3.11671 7.17799,6.48793 1.77605,5.95791 7.87163,18.47616 12.42151,25.50953 12.14897,18.78041 30.66623,34.12381 51.42613,42.61182 6.5061,2.66011 7.5041,3.39247 8.425,6.18278 0.5745,1.74089 0.8971,3.2749 0.7168,3.40894 -0.1803,0.13402 -3.1087,1.13561 -6.5075,2.22574 -16.86,5.40761 -33.68759,15.75076 -48.76351,29.97262 -6.48369,6.11638 -6.76253,6.20855 -14.43182,4.7701 z"
         style="fill:#442725" />
    </g>
  </g>
</svg>
