<?xml version="1.0" encoding="UTF-8" standalone="no"?>
<!-- Created with Inkscape (http://www.inkscape.org/) -->

<svg
   xmlns:dc="http://purl.org/dc/elements/1.1/"
   xmlns:cc="http://creativecommons.org/ns#"
   xmlns:rdf="http://www.w3.org/1999/02/22-rdf-syntax-ns#"
   xmlns:svg="http://www.w3.org/2000/svg"
   xmlns="http://www.w3.org/2000/svg"
   xmlns:sodipodi="http://sodipodi.sourceforge.net/DTD/sodipodi-0.dtd"
   xmlns:inkscape="http://www.inkscape.org/namespaces/inkscape"
   id="svg4136"
   version="1.1"
   inkscape:version="0.91 r13725"
   width="600.9375"
   height="577.5"
   viewBox="0 0 600.9375 577.5"
   sodipodi:docname="xuefei-2.svg">
  <metadata
     id="metadata4142">
    <rdf:RDF>
      <cc:Work
         rdf:about="">
        <dc:format>image/svg+xml</dc:format>
        <dc:type
           rdf:resource="http://purl.org/dc/dcmitype/StillImage" />
        <dc:title></dc:title>
      </cc:Work>
    </rdf:RDF>
  </metadata>
  <defs
     id="defs4140" />
  <sodipodi:namedview
     pagecolor="#ffffff"
     bordercolor="#666666"
     borderopacity="1"
     objecttolerance="10"
     gridtolerance="10"
     guidetolerance="10"
     inkscape:pageopacity="0"
     inkscape:pageshadow="2"
     inkscape:window-width="1094"
     inkscape:window-height="793"
     id="namedview4138"
     showgrid="false"
     inkscape:zoom="0.2507015"
     inkscape:cx="156.53846"
     inkscape:cy="570.80128"
     inkscape:window-x="75"
     inkscape:window-y="75"
     inkscape:window-maximized="0"
     inkscape:current-layer="svg4136" />
  <g
     id="g4199"
     transform="translate(606.29874,0)">
    <path
       inkscape:connector-curvature="0"
       id="path4197"
       d="M -328.61458,580.53728 C -453.21552,575.0957 -559.80349,491.31316 -593.30592,372.479 c -7.3146,-25.94515 -10.65795,-50.47765 -10.65795,-78.20496 0,-20.42404 0.98755,-31.61291 4.55102,-51.5625 20.78125,-116.34105 113.67597,-209.235765 230.01702,-230.017017 19.94959,-3.563467 31.13846,-4.551021 51.5625,-4.551021 20.42404,0 31.61291,0.987554 51.5625,4.551021 116.34105,20.781252 209.235757,113.675967 230.017007,230.017017 3.56347,19.94959 4.55103,31.13846 4.55103,51.5625 0,20.42404 -0.98756,31.61291 -4.55103,51.5625 -20.78165,116.34331 -113.634267,209.19758 -230.017007,230.02108 -20.33595,3.63856 -44.55529,5.45652 -62.34375,4.67966 z m 52.98323,-7.6784 c 49.99947,-8.15956 91.64302,-26.23376 132.17302,-57.36593 11.46738,-8.8084 38.03551,-35.37653 46.843907,-46.84391 33.33571,-43.39872 52.58987,-90.23697 58.57857,-142.5 1.89055,-16.49875 1.89055,-47.25125 0,-63.75 -5.9887,-52.26303 -25.24286,-99.10128 -58.57857,-142.5 -8.808397,-11.46738 -35.376527,-38.035511 -46.843907,-46.843912 -43.39872,-33.335711 -90.23697,-52.589868 -142.5,-58.578566 -16.49875,-1.890553 -47.25125,-1.890553 -63.75,0 -52.26303,5.988698 -99.10128,25.242855 -142.5,58.578566 -11.46738,8.808401 -38.03551,35.376532 -46.84391,46.843912 -33.33571,43.39872 -52.58987,90.23697 -58.57857,142.5 -1.89055,16.49875 -1.89055,47.25125 0,63.75 5.9887,52.26303 25.24286,99.10128 58.57857,142.5 8.8084,11.46738 35.37653,38.03551 46.84391,46.84391 45.22852,34.74122 90.31978,52.72924 149.0625,59.46469 1.80469,0.20693 15.09375,0.25018 29.53125,0.0961 20.96804,-0.22374 28.61093,-0.66539 37.98323,-2.19489 z"
       style="fill:#ffffff;fill-opacity:1" />
    <g
       id="g4184">
      <path
         inkscape:connector-curvature="0"
         id="path4168"
         d="m -340.6851,574.15323 c -1.54688,-0.21252 -6.82031,-0.84101 -11.71875,-1.39665 -21.55916,-2.44553 -48.35733,-9.16121 -68.72078,-17.22157 -21.40893,-8.47418 -49.41497,-24.47841 -69.553,-39.7465 -12.19403,-9.24519 -41.17466,-38.26127 -50.5141,-50.57591 -30.86874,-40.70239 -49.50481,-86.09568 -56.46673,-137.54032 -2.27941,-16.84355 -2.27941,-51.59395 0,-68.4375 6.96192,-51.44464 25.59799,-96.83793 56.46673,-137.54032 9.42156,-12.42292 38.35589,-41.357252 50.77881,-50.778819 40.70239,-30.868739 86.09568,-49.504807 137.54032,-56.466728 16.84355,-2.279411 51.59395,-2.279411 68.4375,0 51.44464,6.961921 96.83793,25.597989 137.54032,56.466728 12.42292,9.421567 41.35725,38.355899 50.77881,50.778819 30.86874,40.70239 49.50481,86.09568 56.46673,137.54032 2.27941,16.84355 2.27941,51.59395 0,68.4375 -6.96685,51.48112 -25.79826,97.31567 -56.49933,137.51605 -14.33264,18.76737 -39.90099,43.3533 -59.50512,57.21874 -38.59044,27.29392 -77.53537,42.81826 -125.50016,50.02722 -9.34056,1.40386 -52.7094,2.65612 -59.53125,1.71894 z"
         style="fill:#cedee9" />
      <path
         inkscape:connector-curvature="0"
         id="path4166"
         d="m -340.6851,574.15323 c -1.54688,-0.21252 -6.82031,-0.84101 -11.71875,-1.39665 -21.63765,-2.45443 -48.11205,-9.10009 -69.18953,-17.36809 -16.16625,-6.34149 -15.18798,-5.29782 -13.69629,-14.6119 3.46072,-21.60863 14.62828,-46.34249 27.58896,-61.10389 l 2.77148,-3.15655 -6.78418,-0.69642 c -3.73131,-0.38302 -11.47548,-0.61181 -17.20928,-0.5084 -17.89838,0.32279 -29.79302,-4.11089 -41.12059,-15.32754 -11.1028,-10.99407 -16.09575,-23.91245 -15.26637,-39.49901 0.43062,-8.09272 1.09045,-10.19973 16.14717,-51.5625 8.63401,-23.71875 16.27221,-44.39063 16.97381,-45.9375 1.00814,-2.22278 1.34811,-13.03436 1.62133,-51.5625 0.32481,-45.80018 0.46724,-49.27589 2.35383,-57.44102 6.87511,-29.75534 19.94276,-53.72333 40.49716,-74.27773 20.72242,-20.72242 44.98977,-33.88335 74.75765,-40.543377 7.88826,-1.764856 11.98996,-2.046834 29.7736,-2.046834 17.78364,0 21.88534,0.281978 29.7736,2.046834 29.76788,6.660027 54.03523,19.820957 74.75765,40.543377 20.56083,20.56083 33.66502,44.60188 40.48697,74.27773 1.8449,8.02538 2.04037,12.24527 2.55234,55.09727 l 0.55444,46.40625 16.31493,44.53125 c 8.97321,24.49219 16.87836,46.64062 17.56699,49.21875 0.68865,2.57812 1.25708,8.35713 1.2632,12.84223 0.0261,19.11141 -10.3148,36.35726 -27.08424,45.16935 -8.76804,4.60748 -15.64882,6.20532 -26.77347,6.21731 -5.62176,0.006 -11.26582,0.5724 -14.01453,1.40625 -3.01668,0.91515 -8.62139,1.39611 -16.26899,1.39611 l -11.66687,0 2.88128,3.28161 c 12.15438,13.84307 24.9983,41.27739 27.00557,57.68331 l 0.51953,4.24617 -12.0592,5.78797 c -26.52235,12.72974 -52.06091,20.40223 -83.77795,25.1692 -9.34056,1.40386 -52.7094,2.65612 -59.53125,1.71894 z"
         style="fill:#fdcfc1" />
      <path
         inkscape:connector-curvature="0"
         id="path4164"
         d="m -343.4976,573.63511 c -27.39361,-2.36881 -59.41525,-10.37596 -84.60938,-21.15692 -7.53686,-3.22514 -7.73437,-3.39162 -7.73437,-6.51919 0,-4.77606 2.58912,-16.58703 5.66202,-25.82875 4.44171,-13.35846 13.06292,-29.01691 21.63024,-39.28635 l 3.61096,-4.32838 -6.77974,-0.69611 c -3.72885,-0.38284 -11.47102,-0.61149 -17.20482,-0.50808 -17.89838,0.32279 -29.79302,-4.11089 -41.12059,-15.32754 -11.1028,-10.99407 -16.09575,-23.91245 -15.26637,-39.49901 0.43062,-8.09272 1.09045,-10.19973 16.14717,-51.5625 8.63401,-23.71875 16.27221,-44.39062 16.97381,-45.9375 1.00814,-2.22277 1.34811,-13.03436 1.62133,-51.5625 0.32481,-45.80017 0.46724,-49.27589 2.35383,-57.44102 6.87511,-29.75534 19.94276,-53.72333 40.49716,-74.27773 20.72242,-20.72242 44.98977,-33.88335 74.75765,-40.543377 7.88826,-1.764856 11.98996,-2.046834 29.7736,-2.046834 17.78364,0 21.88534,0.281978 29.7736,2.046834 29.76788,6.660027 54.03523,19.820957 74.75765,40.543377 20.56083,20.56083 33.66502,44.60188 40.48697,74.27773 1.8449,8.02538 2.04037,12.24527 2.55234,55.09727 l 0.55444,46.40625 16.31493,44.53125 c 8.97321,24.49219 16.87836,46.64062 17.56699,49.21875 0.68865,2.57812 1.25708,8.35713 1.2632,12.84223 0.0261,19.11141 -10.3148,36.35726 -27.08424,45.16935 -8.76804,4.60748 -15.64882,6.20532 -26.77347,6.21731 -5.62176,0.006 -11.26582,0.5724 -14.01453,1.40625 -3.01579,0.91488 -8.62027,1.39611 -16.25918,1.39611 l -11.65705,0 3.71541,4.45312 c 12.37074,14.82705 24.17302,40.33706 26.15403,56.53053 l 0.52175,4.26491 -10.55685,4.95176 c -48.10521,22.56408 -96.94214,31.55177 -147.62849,27.16876 z m 75.65144,-108.44332 c 5.16068,-2.54196 10.87031,-7.98132 13.45423,-12.81738 1.81395,-3.39496 1.81404,-3.44154 0.009,-4.77044 -3.16422,-2.32986 -16.74338,-7.21007 -21.38054,-7.68393 -4.88769,-0.49948 -5.03931,-0.7488 -3.17244,-5.21685 0.96748,-2.31551 2.1816,-3.33506 4.96441,-4.1688 6.15474,-1.84401 21.9502,-10.02329 28.9736,-15.00327 14.00312,-9.92896 26.66238,-24.7861 34.72147,-40.74973 3.51611,-6.96477 9.35585,-22.37083 8.58446,-22.64698 -0.13386,-0.0479 -6.36057,0.14659 -13.83713,0.43224 -7.47656,0.28565 -12.53906,0.61394 -11.25,0.72953 1.28906,0.11559 4.24219,1.18034 6.5625,2.36611 7.66764,3.91845 7.40173,9.85759 -0.61769,13.79568 -3.94348,1.93653 -5.89069,2.22875 -14.85106,2.22875 -8.96037,0 -10.90758,-0.29222 -14.85106,-2.22875 -9.97799,-4.89988 -7.27528,-13.04164 5.32595,-16.04412 1.63861,-0.39043 -6.50312,-0.74878 -18.21806,-0.80186 -20.26744,-0.0918 -21.35882,-0.19001 -25.3125,-2.27731 -2.2725,-1.19974 -5.39745,-3.9779 -6.94433,-6.17369 -2.48136,-3.52229 -2.85122,-4.91627 -3.14137,-11.83963 l -0.32887,-7.8473 -3.42113,-1.17341 c -1.88162,-0.64537 -5.95238,-1.1734 -9.04613,-1.1734 -3.09375,0 -7.16451,0.52803 -9.04612,1.1734 l -3.42114,1.17341 -0.32886,7.8473 c -0.29016,6.92336 -0.66001,8.31734 -3.14138,11.83963 -1.54687,2.19579 -4.67182,4.97395 -6.94432,6.17369 -3.89623,2.05696 -5.17926,2.18682 -22.5,2.27731 -10.44878,0.0546 -17.09085,0.40031 -15.40557,0.80186 12.60123,3.00248 15.30394,11.14424 5.32595,16.04412 -3.94348,1.93653 -5.89069,2.22875 -14.85106,2.22875 -8.96037,0 -10.90758,-0.29222 -14.85106,-2.22875 -9.97799,-4.89988 -7.27528,-13.04164 5.32595,-16.04412 1.74842,-0.41659 -3.41269,-0.74522 -12.59306,-0.80186 -14.37314,-0.0887 -15.86977,-0.26179 -19.6875,-2.27731 -6.33937,-3.3468 -9.59407,-8.65971 -10.0182,-16.35356 -0.19129,-3.46987 -0.94902,-7.63822 -1.68384,-9.26302 -1.70371,-3.76716 -1.71012,-11.30667 -0.0124,-14.5608 0.72166,-1.38323 1.59096,-3.78458 1.93179,-5.33633 0.97611,-4.44419 5.57273,-9.99797 10.08128,-12.18052 4.02,-1.94592 5.20993,-1.99942 44.46833,-1.99942 l 40.3378,0 4.13183,2.18135 c 6.37821,3.3673 9.6212,8.69061 10.06355,16.51913 l 0.36345,6.43218 3.15043,-1.31633 c 4.0558,-1.69462 14.553,-1.69462 18.6088,0 l 3.15043,1.31633 0.36345,-6.43218 c 0.44235,-7.82852 3.68534,-13.15183 10.06354,-16.51913 l 4.13184,-2.18135 40.19515,0 c 32.97909,0 40.77882,0.24387 43.4463,1.35841 l 3.25114,1.35842 0,-14.01467 0,-14.01466 -39.74018,0 c -42.5778,0 -47.56194,-0.41032 -61.14429,-5.03369 -14.27195,-4.85812 -26.0685,-12.19864 -37.6246,-23.41229 -9.01028,-8.74327 -15.59323,-17.88805 -21.0235,-29.20506 l -3.87975,-8.08559 -3.01197,7.7902 c -13.98375,36.16771 -37.43681,64.99978 -57.93872,71.22704 -8.02805,2.43844 -14.64074,7.85515 -19.75142,16.17915 -7.54165,12.28338 -7.27544,30.89339 0.61932,43.29601 4.65122,7.30703 14.36116,15.23345 20.57013,16.7918 1.9271,0.48368 2.84255,1.77973 4.51275,6.38897 3.12686,8.62921 9.51805,20.8765 14.79152,28.34466 5.95773,8.43718 17.38959,19.88247 25.90201,25.93246 6.44023,4.57721 26.04143,14.76042 28.44503,14.77773 1.17237,0.008 2.43916,2.50956 3.58657,7.0812 0.47328,1.88573 0.22901,2.30241 -1.34976,2.30241 -1.0602,0 -5.56837,1.31738 -10.01816,2.92749 -7.77821,2.81449 -8.06769,3.02258 -7.499,5.39063 0.9722,4.04827 6.30314,11.17418 10.75635,14.37811 7.11936,5.12211 9.38761,5.37656 45.98517,5.1584 32.68799,-0.19485 33.35971,-0.23702 37.68269,-2.36637 z m -51.98339,-79.88894 c -4.30395,-1.08118 -12.13894,-4.97482 -13.63293,-6.77498 -0.84333,-1.01615 -0.81164,-1.71232 0.13699,-3.00964 1.13361,-1.55031 1.41855,-1.5691 3.49974,-0.23082 4.46882,2.8736 13.28659,4.73618 22.4219,4.73618 9.13531,0 17.95308,-1.86258 22.4219,-4.73618 2.08256,-1.33916 2.36606,-1.31959 3.50809,0.24224 1.72357,2.35713 -0.10302,4.1988 -7.46393,7.52554 -5.11224,2.31046 -7.10429,2.65609 -16.59106,2.87874 -5.92969,0.13916 -12.365,-0.14483 -14.3007,-0.63108 z m -74.4153,-110.11109 c -0.30091,-0.78415 -0.30091,-2.06731 0,-2.85146 0.46928,-1.22292 3.25072,-1.38962 19.55343,-1.17188 l 19.00632,0.25386 0,2.34375 0,2.34375 -19.00632,0.25386 c -16.30271,0.21774 -19.08415,0.051 -19.55343,-1.17188 z m 129.375,0 c -0.30091,-0.78415 -0.30091,-2.06731 0,-2.85146 0.46928,-1.22292 3.25072,-1.38962 19.55343,-1.17188 l 19.00632,0.25386 0,2.34375 0,2.34375 -19.00632,0.25386 c -16.30271,0.21774 -19.08415,0.051 -19.55343,-1.17188 z m -122.28689,66.63544 c -6.48311,-4.4054 -10.24711,-12.35974 -10.24711,-21.65492 0,-7.11623 1.18841,-10.83688 5.33647,-16.70729 l 3.1937,-4.5198 -14.38887,0.30105 c -12.07615,0.25266 -14.8127,0.57921 -17.02571,2.03167 l -2.63683,1.73062 0.35582,16.31625 c 0.27784,12.74007 0.0952,16.31625 -0.83312,16.31625 -1.59203,0 -1.49763,1.01711 0.33757,3.63723 2.82071,4.02713 6.23049,4.72423 23.30047,4.76358 l 15.92075,0.0367 -3.31314,-2.25133 z m 47.87789,0.60925 c 5.44996,-2.72256 6.55958,-6.25091 6.55958,-20.85792 0,-10.17318 -0.32159,-13.30001 -1.63916,-15.9375 -2.10394,-4.21162 -6.79901,-6.55917 -13.12199,-6.56105 l -4.92031,-0.002 3.14581,4.45312 c 4.09991,5.80416 5.28857,9.5443 5.28857,16.64105 0,9.29518 -3.764,17.24952 -10.24711,21.65492 l -3.31314,2.25133 7.48325,-0.002 c 5.24586,-9.4e-4 8.4643,-0.49156 10.7645,-1.64063 z m 81.49711,-0.60925 c -6.48311,-4.4054 -10.24711,-12.35974 -10.24711,-21.65492 0,-7.09675 1.18866,-10.83689 5.28857,-16.64063 l 3.14581,-4.45312 -10.54531,0.002 c -18.20138,0.003 -20.38615,2.41369 -20.38615,22.49855 0,20.69325 1.83904,22.4962 22.94908,22.49855 l 13.10825,0.002 -3.31314,-2.25133 z m 52.99133,0.92339 c 5.44324,-2.27434 6.14331,-4.34847 6.71173,-19.88528 0.45046,-12.31243 0.30961,-14.32677 -1.2044,-17.22428 -2.51995,-4.8227 -6.7575,-6.5593 -16.00984,-6.56105 l -7.73281,-0.002 3.14581,4.45312 c 4.09991,5.80416 5.28857,9.5443 5.28857,16.64105 0,9.29518 -3.764,17.24952 -10.24711,21.65492 l -3.31314,2.25133 10.09148,0 c 6.58491,0 11.19586,-0.46144 13.26971,-1.32794 z"
         style="fill:#fbe679" />
      <path
         inkscape:connector-curvature="0"
         id="path4162"
         d="m -343.4976,573.63511 c -27.39361,-2.36881 -59.41525,-10.37596 -84.60938,-21.15692 -7.53686,-3.22514 -7.73437,-3.39162 -7.73437,-6.51919 0,-4.77606 2.58912,-16.58703 5.66202,-25.82875 4.44171,-13.35846 13.06292,-29.01691 21.63024,-39.28635 l 3.61096,-4.32838 -6.77974,-0.69611 c -3.72885,-0.38284 -11.47102,-0.61149 -17.20482,-0.50808 -17.89838,0.32279 -29.79302,-4.11089 -41.12059,-15.32754 -11.1028,-10.99407 -16.09575,-23.91245 -15.26637,-39.49901 0.43062,-8.09272 1.09045,-10.19973 16.14717,-51.5625 8.63401,-23.71875 16.27221,-44.39062 16.97381,-45.9375 1.00814,-2.22277 1.34811,-13.03436 1.62133,-51.5625 0.32481,-45.80017 0.46724,-49.27589 2.35383,-57.44102 6.87511,-29.75534 19.94276,-53.72333 40.49716,-74.27773 20.72242,-20.72242 44.98977,-33.88335 74.75765,-40.543377 7.88826,-1.764856 11.98996,-2.046834 29.7736,-2.046834 17.78364,0 21.88534,0.281978 29.7736,2.046834 29.76788,6.660027 54.03523,19.820957 74.75765,40.543377 20.56083,20.56083 33.66502,44.60188 40.48697,74.27773 1.8449,8.02538 2.04037,12.24527 2.55234,55.09727 l 0.55444,46.40625 16.31493,44.53125 c 8.97321,24.49219 16.87836,46.64062 17.56699,49.21875 0.68865,2.57812 1.25708,8.35713 1.2632,12.84223 0.0261,19.11141 -10.3148,36.35726 -27.08424,45.16935 -8.76804,4.60748 -15.64882,6.20532 -26.77347,6.21731 -5.62176,0.006 -11.26582,0.5724 -14.01453,1.40625 -3.01579,0.91488 -8.62027,1.39611 -16.25918,1.39611 l -11.65705,0 3.71541,4.45312 c 12.37074,14.82705 24.17302,40.33706 26.15403,56.53053 l 0.52175,4.26491 -10.55685,4.95176 c -48.10521,22.56408 -96.94214,31.55177 -147.62849,27.16876 z m 75.65144,-108.44332 c 5.16068,-2.54196 10.87031,-7.98132 13.45423,-12.81738 1.81395,-3.39496 1.81404,-3.44154 0.009,-4.77044 -3.16422,-2.32986 -16.74338,-7.21007 -21.38054,-7.68393 -4.88769,-0.49948 -5.03931,-0.7488 -3.17244,-5.21685 0.96748,-2.31551 2.1816,-3.33506 4.96441,-4.1688 6.15474,-1.84401 21.9502,-10.02329 28.9736,-15.00327 14.00312,-9.92896 26.66238,-24.7861 34.72147,-40.74973 3.51611,-6.96477 9.35585,-22.37083 8.58446,-22.64698 -0.13386,-0.0479 -6.36057,0.14659 -13.83713,0.43224 -7.47656,0.28565 -12.53906,0.61394 -11.25,0.72953 1.28906,0.11559 4.24219,1.18034 6.5625,2.36611 7.66764,3.91845 7.40173,9.85759 -0.61769,13.79568 -3.94348,1.93653 -5.89069,2.22875 -14.85106,2.22875 -8.96037,0 -10.90758,-0.29222 -14.85106,-2.22875 -9.97799,-4.89988 -7.27528,-13.04164 5.32595,-16.04412 1.63861,-0.39043 -6.50312,-0.74878 -18.21806,-0.80186 -20.26744,-0.0918 -21.35882,-0.19001 -25.3125,-2.27731 -2.2725,-1.19974 -5.39745,-3.9779 -6.94433,-6.17369 -2.48136,-3.52229 -2.85122,-4.91627 -3.14137,-11.83963 l -0.32887,-7.8473 -3.42113,-1.17341 c -1.88162,-0.64537 -5.95238,-1.1734 -9.04613,-1.1734 -3.09375,0 -7.16451,0.52803 -9.04612,1.1734 l -3.42114,1.17341 -0.32886,7.8473 c -0.29016,6.92336 -0.66001,8.31734 -3.14138,11.83963 -1.54687,2.19579 -4.67182,4.97395 -6.94432,6.17369 -3.89623,2.05696 -5.17926,2.18682 -22.5,2.27731 -10.44878,0.0546 -17.09085,0.40031 -15.40557,0.80186 12.60123,3.00248 15.30394,11.14424 5.32595,16.04412 -3.94348,1.93653 -5.89069,2.22875 -14.85106,2.22875 -8.96037,0 -10.90758,-0.29222 -14.85106,-2.22875 -9.97799,-4.89988 -7.27528,-13.04164 5.32595,-16.04412 1.74842,-0.41659 -3.41269,-0.74522 -12.59306,-0.80186 -14.37314,-0.0887 -15.86977,-0.26179 -19.6875,-2.27731 -6.33937,-3.3468 -9.59407,-8.65971 -10.0182,-16.35356 -0.19129,-3.46987 -0.94902,-7.63822 -1.68384,-9.26302 -1.70371,-3.76716 -1.71012,-11.30667 -0.0124,-14.5608 0.72166,-1.38323 1.59096,-3.78458 1.93179,-5.33633 0.97611,-4.44419 5.57273,-9.99797 10.08128,-12.18052 4.02,-1.94592 5.20993,-1.99942 44.46833,-1.99942 l 40.3378,0 4.13183,2.18135 c 6.37821,3.3673 9.6212,8.69061 10.06355,16.51913 l 0.36345,6.43218 3.15043,-1.31633 c 4.0558,-1.69462 14.553,-1.69462 18.6088,0 l 3.15043,1.31633 0.36345,-6.43218 c 0.44235,-7.82852 3.68534,-13.15183 10.06354,-16.51913 l 4.13184,-2.18135 40.19515,0 c 32.97909,0 40.77882,0.24387 43.4463,1.35841 l 3.25114,1.35842 0,-14.01467 0,-14.01466 -39.74018,0 c -42.5778,0 -47.56194,-0.41032 -61.14429,-5.03369 -14.27195,-4.85812 -26.0685,-12.19864 -37.6246,-23.41229 -9.01028,-8.74327 -15.59323,-17.88805 -21.0235,-29.20506 l -3.87975,-8.08559 -3.01197,7.7902 c -13.98375,36.16771 -37.43681,64.99978 -57.93872,71.22704 -8.02805,2.43844 -14.64074,7.85515 -19.75142,16.17915 -7.54165,12.28338 -7.27544,30.89339 0.61932,43.29601 4.65122,7.30703 14.36116,15.23345 20.57013,16.7918 1.9271,0.48368 2.84255,1.77973 4.51275,6.38897 3.12686,8.62921 9.51805,20.8765 14.79152,28.34466 5.95773,8.43718 17.38959,19.88247 25.90201,25.93246 6.44023,4.57721 26.04143,14.76042 28.44503,14.77773 1.17237,0.008 2.43916,2.50956 3.58657,7.0812 0.47328,1.88573 0.22901,2.30241 -1.34976,2.30241 -1.0602,0 -5.56837,1.31738 -10.01816,2.92749 -7.77821,2.81449 -8.06769,3.02258 -7.499,5.39063 0.9722,4.04827 6.30314,11.17418 10.75635,14.37811 7.11936,5.12211 9.38761,5.37656 45.98517,5.1584 32.68799,-0.19485 33.35971,-0.23702 37.68269,-2.36637 z m -51.98339,-79.88894 c -4.30395,-1.08118 -12.13894,-4.97482 -13.63293,-6.77498 -0.84333,-1.01615 -0.81164,-1.71232 0.13699,-3.00964 1.13361,-1.55031 1.41855,-1.5691 3.49974,-0.23082 4.46882,2.8736 13.28659,4.73618 22.4219,4.73618 9.13531,0 17.95308,-1.86258 22.4219,-4.73618 2.08256,-1.33916 2.36606,-1.31959 3.50809,0.24224 1.72357,2.35713 -0.10302,4.1988 -7.46393,7.52554 -5.11224,2.31046 -7.10429,2.65609 -16.59106,2.87874 -5.92969,0.13916 -12.365,-0.14483 -14.3007,-0.63108 z m -74.4153,-110.11109 c -0.30091,-0.78415 -0.30091,-2.06731 0,-2.85146 0.46928,-1.22292 3.25072,-1.38962 19.55343,-1.17188 l 19.00632,0.25386 0,2.34375 0,2.34375 -19.00632,0.25386 c -16.30271,0.21774 -19.08415,0.051 -19.55343,-1.17188 z m 129.375,0 c -0.30091,-0.78415 -0.30091,-2.06731 0,-2.85146 0.46928,-1.22292 3.25072,-1.38962 19.55343,-1.17188 l 19.00632,0.25386 0,2.34375 0,2.34375 -19.00632,0.25386 c -16.30271,0.21774 -19.08415,0.051 -19.55343,-1.17188 z m -122.28689,66.63544 c -6.48311,-4.4054 -10.24711,-12.35974 -10.24711,-21.65492 0,-7.11623 1.18841,-10.83688 5.33647,-16.70729 l 3.1937,-4.5198 -14.38887,0.30105 c -12.07615,0.25266 -14.8127,0.57921 -17.02571,2.03167 l -2.63683,1.73062 0.35582,16.31625 c 0.27784,12.74007 0.0952,16.31625 -0.83312,16.31625 -1.59203,0 -1.49763,1.01711 0.33757,3.63723 2.82071,4.02713 6.23049,4.72423 23.30047,4.76358 l 15.92075,0.0367 -3.31314,-2.25133 z m 47.87789,0.60925 c 5.44996,-2.72256 6.55958,-6.25091 6.55958,-20.85792 0,-10.17318 -0.32159,-13.30001 -1.63916,-15.9375 -2.10394,-4.21162 -6.79901,-6.55917 -13.12199,-6.56105 l -4.92031,-0.002 3.14581,4.45312 c 4.09991,5.80416 5.28857,9.5443 5.28857,16.64105 0,9.29518 -3.764,17.24952 -10.24711,21.65492 l -3.31314,2.25133 7.48325,-0.002 c 5.24586,-9.4e-4 8.4643,-0.49156 10.7645,-1.64063 z m 81.49711,-0.60925 c -6.48311,-4.4054 -10.24711,-12.35974 -10.24711,-21.65492 0,-7.09675 1.18866,-10.83689 5.28857,-16.64063 l 3.14581,-4.45312 -10.54531,0.002 c -18.20138,0.003 -20.38615,2.41369 -20.38615,22.49855 0,20.69325 1.83904,22.4962 22.94908,22.49855 l 13.10825,0.002 -3.31314,-2.25133 z m 52.99133,0.92339 c 5.44324,-2.27434 6.14331,-4.34847 6.71173,-19.88528 0.45046,-12.31243 0.30961,-14.32677 -1.2044,-17.22428 -2.51995,-4.8227 -6.7575,-6.5593 -16.00984,-6.56105 l -7.73281,-0.002 3.14581,4.45312 c 4.09991,5.80416 5.28857,9.5443 5.28857,16.64105 0,9.29518 -3.764,17.24952 -10.24711,21.65492 l -3.31314,2.25133 10.09148,0 c 6.58491,0 11.19586,-0.46144 13.26971,-1.32794 z m -171.67957,-11.09394 c -0.4277,-1.67578 -0.77762,-8.17339 -0.77762,-14.43914 0,-12.34887 -0.20408,-12.67134 -4.85943,-7.67819 -5.96177,6.39438 -5.25298,16.92855 1.52263,22.62986 4.0305,3.39144 5.07748,3.26102 4.11442,-0.51253 z m 15.68418,0.51253 c 6.77561,-5.70131 7.4844,-16.23548 1.52263,-22.62986 -4.65535,-4.99315 -4.85943,-4.67068 -4.85943,7.67819 0,6.26575 -0.34992,12.76336 -0.77762,14.43914 -0.96306,3.77355 0.0839,3.90397 4.11442,0.51253 z m 113.69082,-0.51253 c -0.4277,-1.67578 -0.77762,-8.17339 -0.77762,-14.43914 0,-12.34887 -0.20408,-12.67134 -4.85943,-7.67819 -5.96177,6.39438 -5.25298,16.92855 1.52263,22.62986 4.0305,3.39144 5.07748,3.26102 4.11442,-0.51253 z m 15.68418,0.51253 c 6.77561,-5.70131 7.4844,-16.23548 1.52263,-22.62986 -4.65535,-4.99315 -4.85943,-4.67068 -4.85943,7.67819 0,6.26575 -0.34992,12.76336 -0.77762,14.43914 -0.96306,3.77355 0.0839,3.90397 4.11442,0.51253 z"
         style="fill:#f2b2b2" />
      <path
         inkscape:connector-curvature="0"
         id="path4160"
         d="m -333.65385,574.13606 c -33.04264,-2.28285 -60.25824,-8.39437 -90.23438,-20.263 -9.63485,-3.81478 -11.95312,-5.08891 -11.95312,-6.56946 0,-1.01023 0.84644,-5.99035 1.88098,-11.06693 3.82772,-18.78292 11.64229,-36.35756 22.70579,-51.06439 l 6.34728,-8.4375 -6.79515,-0.82221 c -3.73733,-0.45222 -11.48644,-0.73019 -17.22024,-0.61772 -17.87691,0.35066 -29.7798,-4.08133 -41.12059,-15.31106 -11.1028,-10.99407 -16.09575,-23.91245 -15.26637,-39.49901 0.43062,-8.09272 1.09045,-10.19973 16.14717,-51.5625 8.63401,-23.71875 16.27221,-44.39063 16.97381,-45.9375 1.00814,-2.22278 1.34811,-13.03436 1.62133,-51.5625 0.32481,-45.80018 0.46724,-49.27589 2.35383,-57.44102 6.87511,-29.75534 19.94276,-53.72333 40.49716,-74.27773 20.72242,-20.72242 44.98977,-33.88335 74.75765,-40.543377 7.88826,-1.764856 11.98996,-2.046834 29.7736,-2.046834 17.78364,0 21.88534,0.281978 29.7736,2.046834 29.76788,6.660027 54.03523,19.820957 74.75765,40.543377 20.56083,20.56083 33.66502,44.60188 40.48697,74.27773 1.8449,8.02538 2.04037,12.24527 2.55234,55.09727 l 0.55444,46.40625 16.31493,44.53125 c 8.97321,24.49219 16.87836,46.64062 17.56699,49.21875 0.68865,2.57812 1.25708,8.35713 1.2632,12.84223 0.0261,19.11141 -10.3148,36.35726 -27.08424,45.16935 -8.82734,4.63864 -15.63671,6.20717 -26.94682,6.20717 -5.27216,0 -10.77337,0.49675 -12.2249,1.1039 -1.45154,0.60713 -8.64949,1.34541 -15.99545,1.64062 l -13.35629,0.53673 6.34592,8.4375 c 10.23274,13.60539 17.68791,29.61099 21.83372,46.875 0.99058,4.125 1.80401,7.81217 1.80762,8.19371 0.004,0.38155 -3.76551,2.58818 -8.37582,4.90361 -27.53382,13.82832 -58.96573,23.23318 -90.74624,27.15253 -11.65815,1.43774 -39.61545,2.48703 -48.99637,1.83893 z M -269.60754,466.336 c 2.40917,-0.82088 6.44757,-3.35116 8.97421,-5.62282 4.3936,-3.95023 8.95224,-11.14988 8.01749,-12.66235 -0.98706,-1.59708 -20.16692,-8.3473 -23.71778,-8.3473 -3.55588,0 -3.73423,-0.13421 -3.30726,-2.48878 0.76788,-4.23466 1.98037,-5.57542 6.1661,-6.81846 2.22183,-0.65981 7.45938,-2.82642 11.63902,-4.81468 22.467,-10.68756 41.78767,-29.84375 52.44248,-51.99602 2.84692,-5.91899 7.926,-19.37332 7.92739,-20.99939 2.5e-4,-0.29641 -18.0349,-0.40746 -40.07813,-0.24679 -27.36613,0.19948 -41.19862,-0.0369 -43.60975,-0.74541 -1.94214,-0.57066 -5.06696,-2.38599 -6.94404,-4.03409 -4.76645,-4.185 -6.82304,-9.20849 -6.84795,-16.72702 -0.0203,-6.11512 -0.0693,-6.23492 -3.06747,-7.5 -1.67578,-0.70709 -6,-1.28561 -9.60937,-1.28561 -3.60938,0 -7.93359,0.57852 -9.60938,1.28561 -2.9982,1.26508 -3.0472,1.38488 -3.06746,7.5 -0.0235,7.0947 -2.01942,12.33262 -6.18932,16.24278 -5.75699,5.3984 -6.15174,5.44221 -48.8381,5.41977 -36.12623,-0.019 -39.46221,-0.15553 -42.92074,-1.75678 -7.33338,-3.39525 -11.71875,-10.39426 -11.71875,-18.70303 0,-2.53171 -0.63281,-6.11765 -1.40625,-7.96875 -2.06672,-4.94634 -1.7377,-9.00817 1.38699,-17.12287 3.13584,-8.14364 6.23369,-11.9772 11.73801,-14.52561 3.45853,-1.60125 6.79451,-1.73779 42.92074,-1.75678 33.3245,-0.0175 39.69094,0.19671 42.65625,1.43539 7.59534,3.17276 12.33558,10.42791 12.37117,18.93465 0.0114,2.70703 0.18,4.92187 0.37485,4.92187 0.19484,0 1.86879,-0.63281 3.71989,-1.40625 1.85109,-0.77344 5.71304,-1.40625 8.5821,-1.40625 2.86906,0 6.73101,0.63281 8.5821,1.40625 1.8511,0.77344 3.52505,1.40625 3.71989,1.40625 0.19485,0 0.36352,-2.21484 0.37485,-4.92187 0.0356,-8.50674 4.77583,-15.76189 12.37117,-18.93465 5.10929,-2.13427 79.69038,-2.17802 84.78409,-0.0497 1.8511,0.77343 3.52505,1.40625 3.71989,1.40625 0.19485,-5e-5 0.35426,-6.30457 0.35426,-14.0101 l 0,-14.01005 -42.42188,-0.34366 c -39.77354,-0.3222 -42.898,-0.46931 -50.04864,-2.35632 -28.19505,-7.44049 -52.18231,-26.29976 -64.9459,-51.06179 -1.93115,-3.74654 -4.02698,-8.28844 -4.65739,-10.09313 l -1.1462,-3.28125 -3.56332,9.375 c -13.76672,36.21981 -39.39896,67.10212 -59.15417,71.27027 -10.35876,2.18559 -21.22456,16.32597 -23.61076,30.72624 -2.89608,17.47724 6.7135,35.76818 23.0048,43.78749 3.53391,1.73955 6.65203,3.82166 6.92915,4.62691 11.38963,33.09509 33.80199,57.48963 64.28071,69.96582 6.62889,2.71347 7.78529,3.53458 8.75789,6.21852 1.67036,4.60944 1.50147,5.436 -1.11078,5.436 -4.04226,0 -17.31351,5.57429 -17.31351,7.27215 0,5.68795 9.76986,16.69511 17.13242,19.30214 6.06006,2.14583 69.70645,2.19457 75.97639,0.0582 z m -50.89858,-81.51583 c -5.4707,-1.53089 -13.14773,-5.59165 -13.14773,-6.95449 0,-3.38148 1.06975,-3.62287 6.01733,-1.3578 11.0685,5.06733 29.40934,5.06161 40.49294,-0.0127 l 4.97066,-2.27565 0.61949,1.95186 c 0.77816,2.45177 -1.84642,4.61531 -8.97542,7.39874 -6.8489,2.67409 -22.54876,3.32872 -29.97727,1.24996 z m -73.73873,-109.62841 c -0.30091,-0.78415 -0.30091,-2.06731 0,-2.85146 0.46928,-1.22292 3.25072,-1.38962 19.55343,-1.17188 l 19.00632,0.25386 0,2.34375 0,2.34375 -19.00632,0.25386 c -16.30271,0.21774 -19.08415,0.051 -19.55343,-1.17188 z m 129.375,0 c -0.30091,-0.78415 -0.30091,-2.06731 0,-2.85146 0.46928,-1.22292 3.25072,-1.38962 19.55343,-1.17188 l 19.00632,0.25386 0,2.34375 0,2.34375 -19.00632,0.25386 c -16.30271,0.21774 -19.08415,0.051 -19.55343,-1.17188 z m -123.72772,64.94454 c -6.74477,-6.21713 -8.32351,-10.00204 -8.32724,-19.96402 -0.004,-9.295 1.13994,-12.53323 6.37232,-18.04688 l 2.89145,-3.04687 -14.48078,0.004 c -12.78203,0.003 -14.83821,0.22144 -17.52765,1.86122 l -3.04688,1.85771 0,16.39061 c 0,14.64408 -0.15994,16.32923 -1.50099,15.81463 -2.72698,-1.04645 1.22802,5.1833 4.59338,7.23527 2.66946,1.62767 4.78742,1.83043 19.15229,1.83355 l 16.15092,0.004 -4.27682,-3.94224 z m 49.97633,2.10518 c 5.1236,-3.12404 5.90489,-5.85801 5.90489,-20.66295 0,-14.80494 -0.78129,-17.53891 -5.90489,-20.66295 -2.15495,-1.31395 -4.70562,-1.83103 -9.04464,-1.83354 l -6.04328,-0.004 2.89145,3.04687 c 5.23238,5.51364 6.37579,8.75187 6.37232,18.04688 -0.004,9.96197 -1.58247,13.74689 -8.32724,19.96401 l -4.27682,3.94248 7.71342,-0.004 c 5.99584,-0.003 8.38176,-0.41101 10.71479,-1.83354 z m 79.39867,-2.10518 c -6.74477,-6.21713 -8.32351,-10.00204 -8.32724,-19.96402 -0.004,-9.295 1.13994,-12.53323 6.37232,-18.04688 l 2.89145,-3.04687 -11.66828,0.004 c -9.91871,0.003 -12.11831,0.2779 -14.66964,1.83354 -5.1236,3.1238 -5.90489,5.85777 -5.90489,20.66271 0,14.80494 0.78129,17.53891 5.90489,20.66295 2.60462,1.58813 4.76451,1.83051 16.33979,1.83354 l 13.33842,0.004 -4.27682,-3.94223 z m 55.58701,2.11389 c 4.71398,-2.87432 5.29951,-4.89446 5.73896,-19.8 0.45408,-15.402 -0.29631,-18.22477 -5.72464,-21.53461 -2.41613,-1.4732 -4.72815,-1.83072 -11.85714,-1.83354 l -8.85578,-0.004 2.89145,3.04687 c 5.23238,5.51364 6.37579,8.75187 6.37232,18.04688 -0.004,9.96197 -1.58247,13.74689 -8.32724,19.96401 l -4.27682,3.94248 10.52592,-0.004 c 8.76844,-0.003 11.02467,-0.3076 13.51297,-1.82483 z m -172.83442,-10.59354 c -0.4277,-1.67578 -0.77762,-8.17339 -0.77762,-14.43914 0,-12.34887 -0.20408,-12.67134 -4.85943,-7.67819 -5.96177,6.39438 -5.25298,16.92855 1.52263,22.62986 4.0305,3.39144 5.07748,3.26102 4.11442,-0.51253 z m 15.68418,0.51253 c 6.77561,-5.70131 7.4844,-16.23548 1.52263,-22.62986 -4.65535,-4.99315 -4.85943,-4.67068 -4.85943,7.67819 0,6.26575 -0.34992,12.76336 -0.77762,14.43914 -0.96306,3.77355 0.0839,3.90397 4.11442,0.51253 z m 113.69082,-0.51253 c -0.4277,-1.67578 -0.77762,-8.17339 -0.77762,-14.43914 0,-12.34887 -0.20408,-12.67134 -4.85943,-7.67819 -5.96177,6.39438 -5.25298,16.92855 1.52263,22.62986 4.0305,3.39144 5.07748,3.26102 4.11442,-0.51253 z m 15.68418,0.51253 c 6.77561,-5.70131 7.4844,-16.23548 1.52263,-22.62986 -4.65535,-4.99315 -4.85943,-4.67068 -4.85943,7.67819 0,6.26575 -0.34992,12.76336 -0.77762,14.43914 -0.96306,3.77355 0.0839,3.90397 4.11442,0.51253 z"
         style="fill:#f9af77" />
      <path
         inkscape:connector-curvature="0"
         id="path4158"
         d="m -333.65385,574.13606 c -33.04264,-2.28285 -60.25824,-8.39437 -90.23438,-20.263 -9.63485,-3.81478 -11.95312,-5.08891 -11.95312,-6.56946 0,-1.01023 0.84644,-5.99035 1.88098,-11.06693 3.82772,-18.78292 11.64229,-36.35756 22.70579,-51.06439 l 6.34728,-8.4375 -6.79515,-0.82221 c -3.73733,-0.45222 -11.48644,-0.73019 -17.22024,-0.61772 -17.87691,0.35066 -29.7798,-4.08133 -41.12059,-15.31106 -11.1028,-10.99407 -16.09575,-23.91245 -15.26637,-39.49901 0.43062,-8.09272 1.09045,-10.19973 16.14717,-51.5625 8.63401,-23.71875 16.27221,-44.39063 16.97381,-45.9375 1.00814,-2.22278 1.34811,-13.03436 1.62133,-51.5625 0.32481,-45.80018 0.46724,-49.27589 2.35383,-57.44102 6.87511,-29.75534 19.94276,-53.72333 40.49716,-74.27773 20.72242,-20.72242 44.98977,-33.88335 74.75765,-40.543377 7.88826,-1.764856 11.98996,-2.046834 29.7736,-2.046834 17.78364,0 21.88534,0.281978 29.7736,2.046834 29.76788,6.660027 54.03523,19.820957 74.75765,40.543377 20.56083,20.56083 33.66502,44.60188 40.48697,74.27773 1.8449,8.02538 2.04037,12.24527 2.55234,55.09727 l 0.55444,46.40625 16.31493,44.53125 c 8.97321,24.49219 16.87836,46.64062 17.56699,49.21875 0.68865,2.57812 1.25708,8.35713 1.2632,12.84223 0.0261,19.11141 -10.3148,36.35726 -27.08424,45.16935 -8.82734,4.63864 -15.63671,6.20717 -26.94682,6.20717 -5.27216,0 -10.77337,0.49675 -12.2249,1.1039 -1.45154,0.60713 -8.64949,1.34541 -15.99545,1.64062 l -13.35629,0.53673 6.34592,8.4375 c 10.23274,13.60539 17.68791,29.61099 21.83372,46.875 0.99058,4.125 1.80401,7.81217 1.80762,8.19371 0.004,0.38155 -3.76551,2.58818 -8.37582,4.90361 -27.53382,13.82832 -58.96573,23.23318 -90.74624,27.15253 -11.65815,1.43774 -39.61545,2.48703 -48.99637,1.83893 z M -269.60754,466.336 c 2.40917,-0.82088 6.44757,-3.35116 8.97421,-5.62282 4.3936,-3.95023 8.95224,-11.14988 8.01749,-12.66235 -0.98706,-1.59708 -20.16692,-8.3473 -23.71778,-8.3473 -3.55588,0 -3.73423,-0.13421 -3.30726,-2.48878 0.76788,-4.23466 1.98037,-5.57542 6.1661,-6.81846 2.22183,-0.65981 7.45938,-2.82642 11.63902,-4.81468 22.467,-10.68756 41.78767,-29.84375 52.44248,-51.99602 2.84692,-5.91899 7.926,-19.37332 7.92739,-20.99939 2.5e-4,-0.29641 -18.0349,-0.40746 -40.07813,-0.24679 -27.36613,0.19948 -41.19862,-0.0369 -43.60975,-0.74541 -1.94214,-0.57066 -5.06696,-2.38599 -6.94404,-4.03409 -4.76645,-4.185 -6.82304,-9.20849 -6.84795,-16.72702 -0.0203,-6.11512 -0.0693,-6.23492 -3.06747,-7.5 -1.67578,-0.70709 -6,-1.28561 -9.60937,-1.28561 -3.60938,0 -7.93359,0.57852 -9.60938,1.28561 -2.9982,1.26508 -3.0472,1.38488 -3.06746,7.5 -0.0235,7.0947 -2.01942,12.33262 -6.18932,16.24278 -5.75699,5.3984 -6.15174,5.44221 -48.8381,5.41977 -36.12623,-0.019 -39.46221,-0.15553 -42.92074,-1.75678 -7.33338,-3.39525 -11.71875,-10.39426 -11.71875,-18.70303 0,-2.53171 -0.63281,-6.11765 -1.40625,-7.96875 -2.06672,-4.94634 -1.7377,-9.00817 1.38699,-17.12287 3.13584,-8.14364 6.23369,-11.9772 11.73801,-14.52561 3.45853,-1.60125 6.79451,-1.73779 42.92074,-1.75678 33.3245,-0.0175 39.69094,0.19671 42.65625,1.43539 7.59534,3.17276 12.33558,10.42791 12.37117,18.93465 0.0114,2.70703 0.18,4.92187 0.37485,4.92187 0.19484,0 1.86879,-0.63281 3.71989,-1.40625 1.85109,-0.77344 5.71304,-1.40625 8.5821,-1.40625 2.86906,0 6.73101,0.63281 8.5821,1.40625 1.8511,0.77344 3.52505,1.40625 3.71989,1.40625 0.19485,0 0.36352,-2.21484 0.37485,-4.92187 0.0356,-8.50674 4.77583,-15.76189 12.37117,-18.93465 5.10929,-2.13427 79.69038,-2.17802 84.78409,-0.0497 1.8511,0.77343 3.52505,1.40625 3.71989,1.40625 0.19485,-5e-5 0.35426,-6.30457 0.35426,-14.0101 l 0,-14.01005 -42.42188,-0.34366 c -39.77354,-0.3222 -42.898,-0.46931 -50.04864,-2.35632 -28.19505,-7.44049 -52.18231,-26.29976 -64.9459,-51.06179 -1.93115,-3.74654 -4.02698,-8.28844 -4.65739,-10.09313 l -1.1462,-3.28125 -3.56332,9.375 c -13.76672,36.21981 -39.39896,67.10212 -59.15417,71.27027 -10.35876,2.18559 -21.22456,16.32597 -23.61076,30.72624 -2.89608,17.47724 6.7135,35.76818 23.0048,43.78749 3.53391,1.73955 6.65203,3.82166 6.92915,4.62691 11.38963,33.09509 33.80199,57.48963 64.28071,69.96582 6.62889,2.71347 7.78529,3.53458 8.75789,6.21852 1.67036,4.60944 1.50147,5.436 -1.11078,5.436 -4.04226,0 -17.31351,5.57429 -17.31351,7.27215 0,5.68795 9.76986,16.69511 17.13242,19.30214 6.06006,2.14583 69.70645,2.19457 75.97639,0.0582 z m -50.89858,-81.51583 c -5.4707,-1.53089 -13.14773,-5.59165 -13.14773,-6.95449 0,-3.38148 1.06975,-3.62287 6.01733,-1.3578 11.0685,5.06733 29.40934,5.06161 40.49294,-0.0127 l 4.97066,-2.27565 0.61949,1.95186 c 0.77816,2.45177 -1.84642,4.61531 -8.97542,7.39874 -6.8489,2.67409 -22.54876,3.32872 -29.97727,1.24996 z m -73.73873,-109.62841 c -0.30091,-0.78415 -0.30091,-2.06731 0,-2.85146 0.46928,-1.22292 3.25072,-1.38962 19.55343,-1.17188 l 19.00632,0.25386 0,2.34375 0,2.34375 -19.00632,0.25386 c -16.30271,0.21774 -19.08415,0.051 -19.55343,-1.17188 z m 129.375,0 c -0.30091,-0.78415 -0.30091,-2.06731 0,-2.85146 0.46928,-1.22292 3.25072,-1.38962 19.55343,-1.17188 l 19.00632,0.25386 0,2.34375 0,2.34375 -19.00632,0.25386 c -16.30271,0.21774 -19.08415,0.051 -19.55343,-1.17188 z m -123.72772,64.94454 c -6.74477,-6.21713 -8.32351,-10.00204 -8.32724,-19.96402 -0.004,-9.295 1.13994,-12.53323 6.37232,-18.04688 l 2.89145,-3.04687 -14.48078,0.004 c -12.78203,0.003 -14.83821,0.22144 -17.52765,1.86122 l -3.04688,1.85771 0,16.39061 c 0,14.64408 -0.15994,16.32923 -1.50099,15.81463 -2.72698,-1.04645 1.22802,5.1833 4.59338,7.23527 2.66946,1.62767 4.78742,1.83043 19.15229,1.83355 l 16.15092,0.004 -4.27682,-3.94224 z m 49.97633,2.10518 c 5.1236,-3.12404 5.90489,-5.85801 5.90489,-20.66295 0,-14.80494 -0.78129,-17.53891 -5.90489,-20.66295 -2.15495,-1.31395 -4.70562,-1.83103 -9.04464,-1.83354 l -6.04328,-0.004 2.89145,3.04687 c 5.23238,5.51364 6.37579,8.75187 6.37232,18.04688 -0.004,9.96197 -1.58247,13.74689 -8.32724,19.96401 l -4.27682,3.94248 7.71342,-0.004 c 5.99584,-0.003 8.38176,-0.41101 10.71479,-1.83354 z m 79.39867,-2.10518 c -6.74477,-6.21713 -8.32351,-10.00204 -8.32724,-19.96402 -0.004,-9.295 1.13994,-12.53323 6.37232,-18.04688 l 2.89145,-3.04687 -11.66828,0.004 c -9.91871,0.003 -12.11831,0.2779 -14.66964,1.83354 -5.1236,3.1238 -5.90489,5.85777 -5.90489,20.66271 0,14.80494 0.78129,17.53891 5.90489,20.66295 2.60462,1.58813 4.76451,1.83051 16.33979,1.83354 l 13.33842,0.004 -4.27682,-3.94223 z m 55.58701,2.11389 c 4.71398,-2.87432 5.29951,-4.89446 5.73896,-19.8 0.45408,-15.402 -0.29631,-18.22477 -5.72464,-21.53461 -2.41613,-1.4732 -4.72815,-1.83072 -11.85714,-1.83354 l -8.85578,-0.004 2.89145,3.04687 c 5.23238,5.51364 6.37579,8.75187 6.37232,18.04688 -0.004,9.96197 -1.58247,13.74689 -8.32724,19.96401 l -4.27682,3.94248 10.52592,-0.004 c 8.76844,-0.003 11.02467,-0.3076 13.51297,-1.82483 z m -159.90179,-2.4306 c 5.39028,-1.90059 10.71143,-7.20713 12.50484,-12.47049 4.20488,-12.34066 -1.99642,-23.72711 -15.09701,-27.72017 l -2.00693,-0.61172 2.00693,4.01504 c 1.72972,3.46047 2.00692,5.63362 2.00692,15.73378 0,9.84375 -0.3,12.31875 -1.875,15.46875 -1.5625,3.125 -2.34375,3.75 -4.6875,3.75 -2.34375,0 -3.125,-0.625 -4.6875,-3.75 -1.575,-3.15 -1.875,-5.625 -1.875,-15.46875 0,-10.10016 0.2772,-12.27331 2.00692,-15.73378 l 2.00693,-4.01504 -2.00693,0.61172 c -4.88519,1.48901 -7.8378,3.19253 -10.63892,6.13817 -15.09294,15.87171 1.62783,41.35634 22.34225,34.05249 z m 129.375,0 c 5.39028,-1.90059 10.71143,-7.20713 12.50484,-12.47049 4.20488,-12.34066 -1.99642,-23.72711 -15.09701,-27.72017 l -2.00693,-0.61172 2.00693,4.01504 c 1.72972,3.46047 2.00692,5.63362 2.00692,15.73378 0,9.84375 -0.3,12.31875 -1.875,15.46875 -1.5625,3.125 -2.34375,3.75 -4.6875,3.75 -2.34375,0 -3.125,-0.625 -4.6875,-3.75 -1.575,-3.15 -1.875,-5.625 -1.875,-15.46875 0,-10.10016 0.2772,-12.27331 2.00692,-15.73378 l 2.00693,-4.01504 -2.00693,0.61172 c -4.88519,1.48901 -7.8378,3.19253 -10.63892,6.13817 -15.09294,15.87171 1.62783,41.35634 22.34225,34.05249 z"
         style="fill:#f48d96" />
      <path
         inkscape:connector-curvature="0"
         id="path4156"
         d="m -417.09135,475.36843 c -1.28906,-0.39089 -6.77344,-0.50515 -12.1875,-0.25392 -16.93757,0.78595 -29.33896,-3.81713 -40.76443,-15.13072 -11.1028,-10.99407 -16.09575,-23.91245 -15.26637,-39.49901 0.43062,-8.09272 1.09045,-10.19973 16.14717,-51.5625 8.63401,-23.71875 16.27221,-44.39063 16.97381,-45.9375 1.00814,-2.22278 1.34811,-13.03436 1.62133,-51.5625 0.32481,-45.80018 0.46724,-49.27589 2.35383,-57.44102 6.87511,-29.75534 19.94276,-53.72333 40.49716,-74.27773 20.72242,-20.72242 44.98977,-33.88335 74.75765,-40.543377 7.88826,-1.764856 11.98996,-2.046834 29.7736,-2.046834 17.78364,0 21.88534,0.281978 29.7736,2.046834 29.76788,6.660027 54.03523,19.820957 74.75765,40.543377 20.56083,20.56083 33.66502,44.60188 40.48697,74.27773 1.8449,8.02538 2.04037,12.24527 2.55234,55.09727 l 0.55444,46.40625 16.31493,44.53125 c 8.97321,24.49219 16.87836,46.64062 17.56699,49.21875 0.68865,2.57812 1.25708,8.35713 1.2632,12.84223 0.0261,19.11141 -10.3148,36.35726 -27.08424,45.16935 -8.76804,4.60748 -15.64882,6.20532 -26.77347,6.21731 -5.62176,0.006 -11.26582,0.5724 -14.01453,1.40625 -3.01925,0.91593 -8.62463,1.39611 -16.29735,1.39611 l -11.69522,0 -6.76373,-6.42488 c -14.16712,-13.45738 -30.46892,-23.4428 -46.99062,-28.78339 l -10.60629,-3.42846 1.13419,-2.77959 c 0.94951,-2.327 2.43168,-3.26806 9.10266,-5.77951 25.29867,-9.52426 48.07187,-30.13003 60.25795,-54.52292 2.15672,-4.31713 8.17868,-20.41905 8.17974,-21.87158 2.5e-4,-0.34563 -18.0349,-0.49696 -40.07813,-0.33629 -27.36613,0.19948 -41.19862,-0.0369 -43.60975,-0.74541 -1.94214,-0.57066 -5.06696,-2.38599 -6.94404,-4.03409 -4.76645,-4.185 -6.82304,-9.20849 -6.84795,-16.72702 -0.0203,-6.11512 -0.0693,-6.23492 -3.06746,-7.5 -1.67579,-0.70709 -6,-1.28561 -9.60938,-1.28561 -3.60937,0 -7.93359,0.57852 -9.60937,1.28561 -2.98696,1.26033 -3.04688,1.40381 -3.04688,7.29574 0,9.73158 -3.95257,16.5144 -11.71875,20.11003 -3.45853,1.60125 -6.79451,1.73779 -42.92074,1.75678 -42.68636,0.0224 -43.08111,-0.0214 -48.8381,-5.41977 -5.34412,-5.01124 -6.16873,-8.41961 -6.16873,-25.49714 0,-17.07753 0.82461,-20.4859 6.16873,-25.49714 5.75066,-5.39246 6.17881,-5.44036 48.63384,-5.44036 33.10721,0 39.49058,0.21893 42.45199,1.45598 7.59534,3.17276 12.33558,10.42791 12.37117,18.93464 0.0114,2.70704 0.18,4.92188 0.37485,4.92188 0.19484,0 1.86879,-0.63281 3.71989,-1.40625 4.31837,-1.80433 12.84583,-1.80433 17.1642,0 1.8511,0.77344 3.52505,1.40625 3.71989,1.40625 0.19485,0 0.36352,-2.21484 0.37485,-4.92188 0.0356,-8.50673 4.77583,-15.76188 12.37117,-18.93464 5.10929,-2.13427 79.69038,-2.17802 84.78409,-0.0497 1.8511,0.77343 3.52505,1.40625 3.71989,1.40625 0.19485,-5e-5 0.35426,-6.30457 0.35426,-14.0101 l 0,-14.01005 -42.42188,-0.34366 c -39.77354,-0.3222 -42.898,-0.46931 -50.04864,-2.35632 -28.19505,-7.44049 -52.18231,-26.29976 -64.9459,-51.06179 -1.93115,-3.74654 -4.02698,-8.28844 -4.65739,-10.09313 l -1.1462,-3.28125 -3.68909,9.73743 c -13.58137,35.84838 -39.21003,66.62877 -59.0284,70.89397 -10.3872,2.23548 -21.22569,16.34669 -23.61076,30.74011 -2.89024,17.44203 6.59496,35.53178 22.97979,43.82606 l 6.4003,3.23993 3.03563,8.08485 c 10.48406,27.92235 34.08542,52.10842 61.72284,63.25196 6.72478,2.71146 7.85972,3.50785 8.83524,6.19964 0.61562,1.69871 1.15141,3.36387 1.19063,3.70036 0.0392,0.3365 -2.98726,1.53213 -6.72555,2.65695 -14.8211,4.4596 -33.64033,15.74024 -46.78462,28.04371 l -8.11275,7.59378 -5.01225,-0.0935 c -2.75674,-0.0514 -6.06694,-0.41325 -7.356,-0.80413 z m 28.49378,-135.23213 c -6.74477,-6.21713 -8.32351,-10.00204 -8.32724,-19.96402 -0.004,-9.295 1.13994,-12.53323 6.37232,-18.04688 l 2.89145,-3.04687 -14.48078,0.004 c -21.92946,0.005 -23.38703,1.43737 -23.38703,22.98144 0,20.92023 1.23617,22.00614 25.05718,22.0113 l 16.15092,0.004 -4.27682,-3.94223 z m 49.97633,2.10518 c 5.1236,-3.12404 5.90489,-5.85801 5.90489,-20.66295 0,-14.80494 -0.78129,-17.53891 -5.90489,-20.66295 -2.15495,-1.31395 -4.70562,-1.83103 -9.04464,-1.83354 l -6.04328,-0.004 2.89145,3.04687 c 5.23238,5.51364 6.37579,8.75187 6.37232,18.04688 -0.004,9.96197 -1.58247,13.74689 -8.32724,19.96401 l -4.27682,3.94248 7.71342,-0.004 c 5.99584,-0.003 8.38176,-0.41101 10.71479,-1.83354 z m 79.39867,-2.10518 c -6.74477,-6.21713 -8.32351,-10.00204 -8.32724,-19.96402 -0.004,-9.295 1.13994,-12.53323 6.37232,-18.04688 l 2.89145,-3.04687 -11.66828,0.004 c -9.91871,0.003 -12.11831,0.2779 -14.66964,1.83354 -5.1236,3.1238 -5.90489,5.85777 -5.90489,20.66271 0,14.80494 0.78129,17.53891 5.90489,20.66295 2.60462,1.58813 4.76451,1.83051 16.33979,1.83354 l 13.33842,0.004 -4.27682,-3.94223 z m 55.58701,2.11389 c 4.71398,-2.87432 5.29951,-4.89446 5.73896,-19.8 0.45408,-15.402 -0.29631,-18.22477 -5.72464,-21.53461 -2.41613,-1.4732 -4.72815,-1.83072 -11.85714,-1.83354 l -8.85578,-0.004 2.89145,3.04687 c 5.23238,5.51364 6.37579,8.75187 6.37232,18.04688 -0.004,9.96197 -1.58247,13.74689 -8.32724,19.96401 l -4.27682,3.94248 10.52592,-0.004 c 8.76844,-0.003 11.02467,-0.3076 13.51297,-1.82483 z m -159.90179,-2.4306 c 5.39028,-1.90059 10.71143,-7.20713 12.50484,-12.47049 4.20488,-12.34066 -1.99642,-23.72711 -15.09701,-27.72017 l -2.00693,-0.61172 2.00693,4.01504 c 1.72972,3.46047 2.00692,5.63362 2.00692,15.73378 0,9.84375 -0.3,12.31875 -1.875,15.46875 -1.5625,3.125 -2.34375,3.75 -4.6875,3.75 -2.34375,0 -3.125,-0.625 -4.6875,-3.75 -1.575,-3.15 -1.875,-5.625 -1.875,-15.46875 0,-10.10016 0.2772,-12.27331 2.00692,-15.73378 l 2.00693,-4.01504 -2.00693,0.61172 c -4.88519,1.48901 -7.8378,3.19253 -10.63892,6.13817 -15.09294,15.87171 1.62783,41.35634 22.34225,34.05249 z m 129.375,0 c 5.39028,-1.90059 10.71143,-7.20713 12.50484,-12.47049 4.20488,-12.34066 -1.99642,-23.72711 -15.09701,-27.72017 l -2.00693,-0.61172 2.00693,4.01504 c 1.72972,3.46047 2.00692,5.63362 2.00692,15.73378 0,9.84375 -0.3,12.31875 -1.875,15.46875 -1.5625,3.125 -2.34375,3.75 -4.6875,3.75 -2.34375,0 -3.125,-0.625 -4.6875,-3.75 -1.575,-3.15 -1.875,-5.625 -1.875,-15.46875 0,-10.10016 0.2772,-12.27331 2.00692,-15.73378 l 2.00693,-4.01504 -2.00693,0.61172 c -4.88519,1.48901 -7.8378,3.19253 -10.63892,6.13817 -15.09294,15.87171 1.62783,41.35634 22.34225,34.05249 z m -86.34377,45.00058 c -5.4707,-1.53089 -13.14773,-5.59165 -13.14773,-6.95449 0,-3.38148 1.06975,-3.62287 6.01733,-1.3578 11.0685,5.06733 29.40934,5.06161 40.49294,-0.0127 l 4.97066,-2.27565 0.61949,1.95186 c 0.77816,2.45177 -1.84642,4.61531 -8.97542,7.39874 -6.8489,2.67409 -22.54876,3.32872 -29.97727,1.24996 z m -73.73873,-109.62841 c -0.30091,-0.78415 -0.30091,-2.06731 0,-2.85146 0.46928,-1.22292 3.25072,-1.38962 19.55343,-1.17188 l 19.00632,0.25386 0,2.34375 0,2.34375 -19.00632,0.25386 c -16.30271,0.21774 -19.08415,0.051 -19.55343,-1.17188 z m 129.375,0 c -0.30091,-0.78415 -0.30091,-2.06731 0,-2.85146 0.46928,-1.22292 3.25072,-1.38962 19.55343,-1.17188 l 19.00632,0.25386 0,2.34375 0,2.34375 -19.00632,0.25386 c -16.30271,0.21774 -19.08415,0.051 -19.55343,-1.17188 z"
         style="fill:#a29798" />
      <path
         inkscape:connector-curvature="0"
         id="path4154"
         d="m -416.15385,475.2598 c -1.80469,-0.44786 -7.5,-0.58243 -12.65625,-0.29902 -16.06208,0.88279 -30.08647,-4.17665 -40.79024,-14.71552 -12.0502,-11.86458 -17.86043,-29.23574 -15.00712,-44.86775 0.93465,-5.12055 28.53486,-83.05364 32.38911,-91.45523 1.02592,-2.2363 1.36563,-12.70381 1.65821,-51.09375 0.34783,-45.63836 0.48163,-48.79443 2.44421,-57.65625 13.31843,-60.13804 56.43377,-103.09081 116.33708,-115.898419 8.33895,-1.782907 12.71003,-2.10464 28.59375,-2.10464 15.88372,0 20.2548,0.321733 28.59375,2.10464 60.09631,12.848869 103.43604,56.183969 116.37962,116.367169 1.98178,9.2146 2.15015,12.74979 2.63436,55.3125 l 0.51727,45.46875 16.32686,44.53125 c 8.97978,24.49219 16.88335,46.85156 17.56348,49.6875 6.37439,26.57891 -10.89092,54.03741 -38.6102,61.4051 -3.56538,0.94766 -8.82104,1.42399 -14.49889,1.31406 -5.85742,-0.1134 -10.81902,0.35446 -14.49384,1.36671 -3.66632,1.0099 -9.25803,1.53913 -16.26225,1.53913 l -10.67466,0 -8.11275,-7.60283 c -13.52492,-12.67484 -34.60035,-25.22529 -47.9565,-28.5582 -7.24124,-1.80698 -7.78511,-2.22032 -7.00598,-5.32464 0.47374,-1.88753 1.79786,-2.81366 6.38002,-4.46236 31.68633,-11.40101 58.03519,-38.13335 68.53235,-69.52977 3.22205,-9.63698 3.18032,-10.23835 -0.63458,-9.14425 -4.15449,1.19148 -75.24928,1.11959 -79.56959,-0.0804 -9.13248,-2.53675 -13.98738,-9.2698 -14.7009,-20.38806 -0.44136,-6.87735 -0.49819,-7.00935 -3.5698,-8.29275 -4.01879,-1.67916 -14.53175,-1.67916 -18.55054,0 -3.07161,1.2834 -3.12844,1.4154 -3.5698,8.29275 -0.71352,11.11826 -5.56842,17.85131 -14.7009,20.38806 -4.51781,1.25492 -75.39025,1.25492 -79.90806,0 -5.19772,-1.44383 -9.49391,-4.78632 -12.07722,-9.39629 -2.19333,-3.91404 -2.36241,-5.17526 -2.63444,-19.65122 -0.28882,-15.36934 -0.27375,-15.50188 2.34375,-20.62403 2.80102,-5.48126 6.69318,-8.72216 12.36791,-10.29844 4.51781,-1.25492 75.39025,-1.25492 79.90806,0 8.70018,2.41667 13.85265,9.17974 14.66045,19.24311 l 0.47946,5.97313 2.92178,-1.54616 c 3.95247,-2.09158 15.01609,-2.09158 18.96856,0 l 2.92178,1.54616 0.47947,-5.97313 c 0.81709,-10.17923 6.0147,-16.90038 14.92479,-19.29962 2.3111,-0.62233 17.43545,-0.87594 41.81152,-0.70114 34.49513,0.24737 38.48549,0.43495 41.23753,1.93857 l 3.04688,1.6647 0,-14.4946 0,-14.49461 -41.95313,-0.34037 -41.95312,-0.34037 -9.22238,-2.49959 c -29.74706,-8.06249 -52.9763,-27.32208 -65.92657,-54.66036 l -4.33894,-9.1596 -3.49744,9.02562 c -9.99914,25.8041 -25.48031,49.10977 -40.67685,61.23573 -7.54479,6.02032 -11.14996,7.97345 -18.76275,10.16488 -4.58627,1.32022 -6.54194,2.60242 -11.26315,7.38449 -16.78369,17.00007 -16.81594,42.46047 -0.0751,59.2559 3.51897,3.53044 7.8169,6.67851 11.43479,8.37557 5.58477,2.61966 5.87096,2.9269 7.83043,8.40598 1.1186,3.12781 4.04878,9.55274 6.51154,14.27761 11.49183,22.04747 29.50068,39.14812 52.28323,49.64658 5.02736,2.31666 9.73953,4.52932 10.47147,4.91701 0.73194,0.3877 1.86922,2.26007 2.52729,4.16085 1.17072,3.38154 1.14207,3.46749 -1.33081,3.99313 -9.30166,1.97714 -26.51359,10.41557 -38.27303,18.76397 -3.16015,2.2435 -9.12529,7.25833 -13.25585,11.14406 -7.06936,6.65036 -7.75,7.05934 -11.59801,6.96901 -2.24835,-0.0528 -5.56446,-0.46241 -7.36915,-0.91027 z m 31.40625,-132.27276 c -3.5882,-1.97968 -7.22162,-5.96921 -9.67867,-10.62726 -2.07436,-3.93255 -2.47289,-5.89542 -2.47448,-12.1875 -0.002,-8.12866 1.88611,-13.26486 6.80669,-18.51563 l 2.416,-2.57812 -14.7532,0 c -22.29053,0 -23.09759,0.80094 -23.09759,22.92262 0,21.79258 0.23656,21.99828 25.3125,22.01133 13.15026,0.007 16.8904,-0.24108 15.46875,-1.02544 z m 46.43693,-0.33063 c 4.83324,-2.49936 5.59432,-5.36692 5.59432,-21.07788 0,-15.71096 -0.76108,-18.57852 -5.59432,-21.07788 -1.65973,-0.85828 -5.25411,-1.42212 -9.06577,-1.42212 l -6.3157,0 2.416,2.57812 c 4.92058,5.25077 6.80874,10.38697 6.80669,18.51563 -0.002,6.29208 -0.40013,8.25495 -2.47448,12.1875 -2.45705,4.65805 -6.09047,8.64758 -9.67867,10.62726 -3.1784,1.75358 14.91319,1.42693 18.31193,-0.33063 z m 82.93807,0.33063 c -3.5882,-1.97968 -7.22162,-5.96921 -9.67867,-10.62726 -2.07435,-3.93255 -2.47289,-5.89542 -2.47448,-12.1875 -0.002,-8.12866 1.88611,-13.26486 6.80669,-18.51563 l 2.416,-2.57812 -11.9407,0 c -19.26658,0 -20.28509,1.12972 -20.28509,22.5 0,21.8493 0.57272,22.42033 22.5,22.43395 11.09958,0.007 14.08845,-0.23526 12.65625,-1.02544 z m 52.05002,-0.32446 c 4.49389,-2.32389 5.05345,-4.4062 5.43982,-20.24333 0.52068,-21.34276 -0.96073,-23.34072 -17.30618,-23.34072 l -9.1282,0 2.416,2.57812 c 4.92058,5.25077 6.80874,10.38697 6.80669,18.51563 -0.002,6.29208 -0.40013,8.25495 -2.47448,12.1875 -2.45705,4.65805 -6.09047,8.64758 -9.67867,10.62726 -3.20312,1.76722 20.50181,1.44574 23.92502,-0.32446 z m -160.80002,-2.44514 c 7.63357,-2.11325 14.5208,-11.62069 14.5208,-20.04516 0,-9.41583 -7.0303,-18.32072 -16.2013,-20.5213 -2.53412,-0.60807 -2.57465,-0.55971 -1.26509,1.50905 3.41948,5.40189 4.40121,19.9857 1.97295,29.30844 -1.69511,6.50797 -2.72914,7.98506 -5.58986,7.98506 -2.86073,0 -3.89475,-1.47709 -5.58986,-7.98506 -2.42826,-9.32274 -1.44653,-23.90655 1.97295,-29.30844 1.30956,-2.06876 1.26903,-2.11712 -1.26509,-1.50905 -4.37467,1.0497 -7.28462,2.87709 -10.82919,6.8005 -7.38072,8.16957 -7.14693,19.83648 0.56037,27.96412 5.8794,6.20007 13.20457,8.15737 21.71332,5.80184 z m 129.375,0 c 7.63357,-2.11325 14.5208,-11.62069 14.5208,-20.04516 0,-9.41583 -7.0303,-18.32072 -16.2013,-20.5213 -2.53412,-0.60807 -2.57465,-0.55971 -1.26509,1.50905 3.41948,5.40189 4.40121,19.9857 1.97295,29.30844 -1.69511,6.50797 -2.72914,7.98506 -5.58986,7.98506 -2.86073,0 -3.89475,-1.47709 -5.58986,-7.98506 -2.42826,-9.32274 -1.44653,-23.90655 1.97295,-29.30844 1.30956,-2.06876 1.26903,-2.11712 -1.26509,-1.50905 -4.37467,1.0497 -7.28462,2.87709 -10.82919,6.8005 -7.38072,8.16957 -7.14693,19.83648 0.56037,27.96412 5.8794,6.20007 13.20457,8.15737 21.71332,5.80184 z m -82.64641,45.13475 c -5.30694,-1.13504 -12.98946,-4.52631 -14.80935,-6.53727 -0.82263,-0.909 -1.24223,-2.31324 -0.93246,-3.12052 0.49942,-1.30144 0.90104,-1.2685 3.54353,0.2906 4.38176,2.58531 14.17608,4.62832 22.18844,4.62832 8.01236,0 17.80668,-2.04301 22.18844,-4.62832 2.74354,-1.61872 3.02795,-1.63418 3.58038,-0.19456 0.83325,2.17141 -2.89303,5.16026 -9.55088,7.66078 -6.11291,2.29587 -19.74022,3.2843 -26.2081,1.90097 z m -76.25984,-110.17991 c -0.93112,-1.12193 -0.93112,-1.69057 0,-2.8125 0.96149,-1.15853 4.26444,-1.40625 18.75,-1.40625 14.48556,0 17.78851,0.24772 18.75,1.40625 0.93112,1.12193 0.93112,1.69057 0,2.8125 -0.96149,1.15853 -4.26444,1.40625 -18.75,1.40625 -14.48556,0 -17.78851,-0.24772 -18.75,-1.40625 z m 129.375,0 c -0.93112,-1.12193 -0.93112,-1.69057 0,-2.8125 0.96149,-1.15853 4.26444,-1.40625 18.75,-1.40625 14.48556,0 17.78851,0.24772 18.75,1.40625 0.93112,1.12193 0.93112,1.69057 0,2.8125 -0.96149,1.15853 -4.26444,1.40625 -18.75,1.40625 -14.48556,0 -17.78851,-0.24772 -18.75,-1.40625 z"
         style="fill:#8f6d65" />
      <path
         inkscape:connector-curvature="0"
         id="path4152"
         d="m -412.78536,475.57202 c -0.3817,-0.38171 -7.30748,-0.72581 -15.39062,-0.76466 -13.32974,-0.0641 -15.32998,-0.2964 -21.50637,-2.49778 -3.74537,-1.33491 -8.80787,-3.711 -11.25,-5.28019 -17.19298,-11.04734 -26.81006,-31.62967 -23.73366,-50.79441 0.7862,-4.89772 29.27175,-85.70045 32.87368,-93.2502 0.51586,-1.08125 1.04975,-22.11562 1.26118,-49.6875 0.4054,-52.86836 0.63624,-55.2641 7.26068,-75.35527 14.66747,-44.48475 49.09478,-78.94324 93.67848,-93.76334 15.99031,-5.31535 27.46525,-7.06141 46.40689,-7.06141 18.94164,0 30.41658,1.74606 46.40689,7.06141 44.5837,14.8201 79.01101,49.27859 93.67848,93.76334 6.53469,19.81896 6.84108,22.85964 7.30741,72.51965 l 0.42235,44.97688 16.80801,46.1327 c 9.24441,25.37299 17.22429,48.32769 17.73306,51.01045 4.22327,22.26918 -7.49289,45.1868 -28.13745,55.03884 -9.70954,4.6336 -16.2926,6.0438 -26.99131,5.78197 -5.18039,-0.12678 -10.22106,0.35471 -13.78994,1.31721 -3.48909,0.941 -9.36283,1.51966 -15.46875,1.52394 l -9.84375,0.007 -7.5,-7.11057 c -13.68938,-12.97858 -31.72021,-23.74519 -48.5412,-28.98508 -7.47505,-2.32854 -8.17378,-2.74565 -7.62901,-4.55421 0.85686,-2.84463 1.01486,-2.95016 9.29521,-6.20759 31.57542,-12.42154 55.9626,-38.40211 66.58127,-70.93154 1.28864,-3.94764 2.2281,-7.29241 2.08769,-7.43282 -0.14041,-0.14042 -2.19927,0.15931 -4.57525,0.66605 -2.55529,0.54499 -19.59213,0.80516 -41.70683,0.63692 l -37.38688,-0.28409 -4.42821,-2.60304 c -6.38893,-3.75562 -9.20743,-9.01512 -9.84927,-18.37934 l -0.50654,-7.39032 -3.49801,-1.04802 c -4.48804,-1.34466 -13.3229,-1.34466 -17.81094,0 l -3.49801,1.04802 -0.50654,7.39032 c -0.64184,9.36422 -3.46034,14.62372 -9.84927,18.37934 l -4.42821,2.60304 -40.3125,0 -40.3125,0 -4.42821,-2.60304 c -2.87153,-1.68798 -5.34327,-4.15972 -7.03125,-7.03125 -2.57787,-4.38539 -2.60304,-4.58689 -2.60304,-20.83446 0,-16.24757 0.0251,-16.44908 2.60304,-20.83446 1.68798,-2.87153 4.15972,-5.34327 7.03125,-7.03125 l 4.42821,-2.60304 40.3125,0 40.3125,0 4.42821,2.60304 c 5.89169,3.46333 9.04018,8.89273 9.78554,16.87469 l 0.56986,6.10241 3.38944,-1.45146 c 4.35347,-1.86428 13.67543,-1.86428 18.0289,0 l 3.38944,1.45146 0.56986,-6.10241 c 0.74536,-7.98196 3.89385,-13.41136 9.78554,-16.87469 l 4.42821,-2.60304 40.3125,0 c 36.84603,0 40.5745,0.14315 43.35937,1.6647 l 3.04688,1.6647 0,-14.47927 0,-14.47929 -41.48438,-0.37427 c -41.07319,-0.37056 -41.57333,-0.39824 -50.45978,-2.79263 -12.6192,-3.40017 -21.87245,-7.46279 -31.48493,-13.82343 -9.36573,-6.19736 -20.91053,-17.39078 -27.17823,-26.35104 -3.69288,-5.27932 -10.04742,-17.38611 -12.02196,-22.90447 -0.52291,-1.46142 -1.28307,-0.22071 -3.44628,5.625 -13.8213,37.34965 -39.16892,68.3695 -60.18804,73.65679 -5.34567,1.34469 -14.25902,9.01416 -18.10688,15.58005 -7.78957,13.29189 -7.78957,30.42193 0,43.71382 3.47094,5.92272 12.70229,14.09395 18.75809,16.60393 3.76449,1.56029 5.32394,2.75735 5.73721,4.40398 1.48552,5.91874 8.35984,19.83832 13.88319,28.11157 11.68783,17.50685 30.76776,33.37069 49.44898,41.11394 7.51973,3.11689 8.45766,3.78289 9.41577,6.68601 0.58526,1.77335 0.9166,3.34972 0.7363,3.50304 -0.18029,0.15331 -3.28094,1.23947 -6.89031,2.41368 -15.41518,5.01491 -33.93991,16.28769 -46.90493,28.54288 -6.42871,6.07674 -7.93838,7.06217 -10.82944,7.06883 -1.84766,0.005 -3.67168,-0.30457 -4.05339,-0.68628 z m 25.54225,-134.58064 c -4.86892,-3.71364 -9.04083,-11.39202 -9.82585,-18.0844 -0.73774,-6.28934 1.54038,-14.01949 5.76125,-19.54914 l 3.26648,-4.27931 -15.55632,0 -15.5563,0 -3.1875,3.1875 -3.1875,3.1875 0,16.125 0,16.125 3.1875,3.1875 3.1875,3.1875 17.97913,0 17.97913,0 -4.04752,-3.08715 z m 51.33926,-0.10035 3.1875,-3.1875 0,-16.125 0,-16.125 -3.1875,-3.1875 c -3.06531,-3.06531 -3.46041,-3.1875 -10.3063,-3.1875 l -7.11882,0 3.26648,4.27931 c 4.22087,5.52965 6.49899,13.2598 5.76125,19.54914 -0.78502,6.69238 -4.95693,14.37076 -9.82585,18.0844 l -4.04752,3.08715 9.54163,0 9.54163,0 3.1875,-3.1875 z m 78.03574,0.10035 c -4.86892,-3.71364 -9.04083,-11.39202 -9.82585,-18.0844 -0.73774,-6.28934 1.54038,-14.01949 5.76125,-19.54914 l 3.26648,-4.27931 -12.74382,0 -12.7438,0 -3.1875,3.1875 -3.1875,3.1875 0,16.125 0,16.125 3.1875,3.1875 3.1875,3.1875 15.16663,0 15.16663,0 -4.04752,-3.08715 z m 56.62134,0.3532 3.06167,-2.73395 0.31207,-16.50087 0.31205,-16.50086 -3.26518,-3.26518 -3.26519,-3.26519 -9.9313,0 -9.93132,0 3.26648,4.27931 c 4.22087,5.52965 6.49899,13.2598 5.76125,19.54914 -0.78502,6.69238 -4.95693,14.37076 -9.82585,18.0844 l -4.04752,3.08715 12.24558,0 c 12.20311,0 12.25622,-0.009 15.30726,-2.73395 z m -157.8774,-3.14408 c 2.1405,-1.41652 5.05557,-4.33404 6.47794,-6.48339 2.29171,-3.463 2.58613,-4.77735 2.58613,-11.54483 0,-6.76748 -0.29442,-8.08183 -2.58613,-11.54483 -3.12471,-4.72176 -8.54648,-8.48204 -13.3549,-9.26235 l -3.54762,-0.5757 1.99673,2.72269 c 6.28115,8.56483 3.88381,36.47269 -3.13308,36.47269 -4.88784,0 -8.1789,-13.94892 -6.24862,-26.48438 0.69228,-4.4957 1.88004,-8.30361 3.11554,-9.98831 l 1.99673,-2.72269 -3.54762,0.5757 c -4.79684,0.77842 -10.22824,4.53765 -13.33164,9.2272 -1.9899,3.00693 -2.64165,5.26677 -2.9152,10.10798 -0.54187,9.58976 3.28228,16.56158 11.32298,20.643 5.84879,2.96883 15.76459,2.43353 21.16876,-1.14278 z m 129.375,0 c 2.1405,-1.41652 5.05557,-4.33404 6.47794,-6.48339 2.29171,-3.463 2.58613,-4.77735 2.58613,-11.54483 0,-6.76748 -0.29442,-8.08183 -2.58613,-11.54483 -3.12471,-4.72176 -8.54648,-8.48204 -13.3549,-9.26235 l -3.54762,-0.5757 1.99673,2.72269 c 6.28115,8.56483 3.88381,36.47269 -3.13308,36.47269 -4.88784,0 -8.1789,-13.94892 -6.24862,-26.48438 0.69228,-4.4957 1.88004,-8.30361 3.11554,-9.98831 l 1.99673,-2.72269 -3.54762,0.5757 c -4.79684,0.77842 -10.22824,4.53765 -13.33164,9.2272 -1.9899,3.00693 -2.64165,5.26677 -2.9152,10.10798 -0.54187,9.58976 3.28228,16.56158 11.32298,20.643 5.84879,2.96883 15.76459,2.43353 21.16876,-1.14278 z m -87.96718,46.78827 c -9.01957,-1.95937 -17.47056,-6.93968 -15.35894,-9.0513 0.54045,-0.54045 3.19119,0.0999 6.94463,1.67772 5.59432,2.35162 7.06346,2.55181 18.72681,2.55181 11.66335,0 13.13249,-0.20019 18.72681,-2.55181 9.76361,-4.10421 10.32484,-0.25618 0.63035,4.32197 -8.73896,4.12689 -19.58471,5.24242 -29.66966,3.05161 z m -75.9375,-109.81649 c -0.93112,-1.12193 -0.93112,-1.69057 0,-2.8125 0.96149,-1.15853 4.26444,-1.40625 18.75,-1.40625 14.48556,0 17.78851,0.24772 18.75,1.40625 0.93112,1.12193 0.93112,1.69057 0,2.8125 -0.96149,1.15853 -4.26444,1.40625 -18.75,1.40625 -14.48556,0 -17.78851,-0.24772 -18.75,-1.40625 z m 129.375,0 c -0.93112,-1.12193 -0.93112,-1.69057 0,-2.8125 0.96149,-1.15853 4.26444,-1.40625 18.75,-1.40625 14.48556,0 17.78851,0.24772 18.75,1.40625 0.93112,1.12193 0.93112,1.69057 0,2.8125 -0.96149,1.15853 -4.26444,1.40625 -18.75,1.40625 -14.48556,0 -17.78851,-0.24772 -18.75,-1.40625 z"
         style="fill:#5d626a" />
      <path
         inkscape:connector-curvature="0"
         id="path4150"
         d="m -415.6851,474.88741 c -4.06791,-0.88335 -7.1798,-0.97562 -11.24169,-0.3333 -19.11677,3.02298 -42.25427,-8.76727 -51.36942,-26.17646 -5.29384,-10.11082 -6.55854,-15.78471 -6.08604,-27.30419 l 0.40868,-9.96368 16.28913,-44.0625 16.28913,-44.0625 0.59546,-47.34375 c 0.61563,-48.94735 0.92774,-53.13278 5.19493,-69.66364 3.87507,-15.01174 12.61112,-33.56692 22.25257,-47.26392 7.42577,-10.54932 24.09662,-27.22017 34.64594,-34.64594 34.11596,-24.01455 76.55657,-32.539744 117.65897,-23.63458 18.22354,3.94828 37.60966,12.53112 53.38365,23.63458 10.54932,7.42577 27.22017,24.09662 34.64594,34.64594 11.07883,15.739 19.68688,35.16286 23.61218,53.28028 3.12572,14.42702 3.87521,27.28228 3.87603,66.48258 l 7.9e-4,37.05406 16.91753,46.38344 c 19.22494,52.70977 20.06898,56.0401 17.45789,68.88345 -5.38555,26.49007 -27.37974,43.37056 -55.40835,42.52575 -4.61106,-0.13898 -10.1211,0.3843 -14.12332,1.34127 -3.67455,0.87864 -10.43169,1.57633 -15.35475,1.58545 l -8.79225,0.0163 -6.22232,-5.86982 c -15.87582,-14.97645 -34.85612,-26.25795 -52.51161,-31.21182 -3.14205,-0.88162 -5.71282,-1.73082 -5.71282,-1.88712 0,-0.15629 0.38481,-1.29628 0.85511,-2.53331 0.62203,-1.63606 2.47471,-2.83177 6.79688,-4.38668 31.63536,-11.38088 57.48142,-37.96376 68.29593,-70.24291 2.46112,-7.34596 3.57474,-9.29881 7.44203,-13.05036 5.85097,-5.67587 6.5996,-8.56909 6.5996,-25.50548 0,-15.73877 -0.79067,-19.43094 -5.20819,-24.32061 l -3.21886,-3.56289 0,-14.09958 0,-14.09958 -41.01563,-0.4258 c -45.49341,-0.47229 -47.69964,-0.71403 -63.51562,-6.95934 -25.22439,-9.96046 -45.56241,-29.444 -55.41858,-53.09028 -1.32636,-3.18212 -2.73184,-6.12398 -3.12328,-6.53745 -0.39144,-0.41349 -1.86656,2.53964 -3.27804,6.5625 -12.49538,35.61291 -38.67326,67.86761 -59.58635,73.41847 -8.40413,2.23067 -15.96816,9.76794 -21.36876,21.29315 -2.29937,4.90699 -2.53749,6.43146 -2.53749,16.24503 0,10.65597 0.0574,10.94597 3.57325,18.05987 4.49662,9.09828 10.74502,15.45154 19.23056,19.55327 6.184,2.98922 6.51995,3.32507 8.04496,8.04244 4.2798,13.23884 15.81005,31.56153 26.7384,42.48988 10.22101,10.22101 26.63926,20.86588 39.64336,25.70298 3.60615,1.34138 4.61393,2.23695 5.48406,4.87347 0.58632,1.77656 0.91852,3.36112 0.73822,3.52125 -0.18029,0.16014 -2.73509,0.98203 -5.67733,1.82643 -8.06544,2.31472 -26.82097,12.0536 -35.25159,18.30452 -4.11253,3.04926 -10.42192,8.32188 -14.02086,11.71693 -7.13259,6.72853 -7.38511,6.80134 -16.62803,4.79422 z m 100.98143,-89.62513 c -9.01136,-1.16985 -19.73639,-6.60147 -18.11312,-9.17326 0.66776,-1.05796 1.17506,-1.0321 3.02939,0.15447 7.366,4.7134 27.30523,6.00159 38.65144,2.49711 3.38409,-1.04524 6.40655,-2.31087 6.71658,-2.8125 0.82715,-1.33836 2.05054,-1.11242 2.66637,0.49241 0.37436,0.97555 -0.93949,2.24885 -4.30204,4.16929 -7.5921,4.33603 -18.07295,6.04541 -28.64862,4.67248 z m -74.16006,-46.57438 c -4.01758,-4.03123 -5.69299,-6.54459 -6.64375,-9.96665 -2.69233,-9.69047 -0.94216,-18.8301 4.87028,-25.43339 3.50497,-3.98186 3.96688,-4.20731 8.5474,-4.17179 l 4.8422,0.0375 -2.8125,1.48009 c -7.86859,4.14094 -11.71875,10.56029 -11.71875,19.53862 0,6.90053 1.84947,11.52136 6.24227,15.5961 4.43843,4.11708 8.16796,5.49765 14.85148,5.49765 6.68352,0 10.41305,-1.38057 14.85148,-5.49765 4.3928,-4.07474 6.24227,-8.69557 6.24227,-15.5961 0,-8.97833 -3.85016,-15.39768 -11.71875,-19.53858 l -2.8125,-1.48009 4.8422,-0.0375 c 4.58052,-0.0355 5.04243,0.18994 8.5474,4.1718 5.81244,6.60329 7.56261,15.74292 4.87027,25.43339 -0.95075,3.42206 -2.62616,5.93542 -6.64374,9.96665 l -5.37238,5.39059 -12.80625,0 -12.80625,0 -5.37238,-5.39063 z m 129.375,0 c -4.01758,-4.03123 -5.69299,-6.54459 -6.64374,-9.96665 -2.69234,-9.69047 -0.94217,-18.8301 4.87027,-25.43339 3.50497,-3.98186 3.96688,-4.20731 8.5474,-4.17179 l 4.8422,0.0375 -2.8125,1.48009 c -7.86859,4.14094 -11.71875,10.56029 -11.71875,19.53862 0,6.90053 1.84947,11.52136 6.24227,15.5961 4.43843,4.11708 8.16796,5.49765 14.85148,5.49765 6.68352,0 10.41305,-1.38057 14.85148,-5.49765 4.3928,-4.07474 6.24227,-8.69557 6.24227,-15.5961 0,-8.97833 -3.85016,-15.39768 -11.71875,-19.53858 l -2.8125,-1.48009 4.8422,-0.0375 c 4.58052,-0.0355 5.04243,0.18994 8.5474,4.1718 5.81244,6.60329 7.56261,15.74292 4.87027,25.43339 -0.95075,3.42206 -2.62616,5.93542 -6.64374,9.96665 l -5.37238,5.39059 -12.80625,0 -12.80625,0 -5.37238,-5.39063 z m -113.74505,-1.875 c -3.37573,-3.86476 -5.16794,-16.21049 -3.67415,-25.30955 3.29473,-20.06906 12.8487,-14.2631 12.7224,7.73143 -0.0636,11.07682 -2.81711,19.21875 -6.49957,19.21875 -0.6136,0 -1.76051,-0.73828 -2.54868,-1.64063 z m 129.375,0 c -3.37573,-3.86476 -5.16794,-16.21049 -3.67415,-25.30955 3.29473,-20.06906 12.8487,-14.2631 12.7224,7.73143 -0.0636,11.07682 -2.81711,19.21875 -6.49957,19.21875 -0.6136,0 -1.76051,-0.73828 -2.54868,-1.64063 z"
         style="fill:#373737" />
      <path
         inkscape:connector-curvature="0"
         id="path4148"
         d="m -413.8101,475.16631 c -5.24159,-0.98311 -5.63529,-0.99956 -18.75,-0.78332 -7.17689,0.11832 -10.80377,-0.29641 -15.46875,-1.76888 -13.62863,-4.30176 -25.06245,-13.92316 -31.25441,-26.30015 -4.36882,-8.73276 -5.6447,-15.36289 -5.05988,-26.29376 0.46676,-8.72392 0.82059,-9.85228 16.90556,-53.91042 l 16.42881,-45 0.45132,-46.40625 c 0.50103,-51.51757 0.97835,-56.50592 7.28816,-76.16633 3.83291,-11.94278 12.87945,-29.97164 20.17964,-40.21602 7.18048,-10.0764 24.06399,-26.97899 33.95257,-33.99095 10.1948,-7.2291 28.25948,-16.31347 40.01448,-20.12249 28.81009,-9.335443 63.06491,-9.335443 91.875,0 11.79508,3.82202 29.86719,12.91884 39.9761,20.12249 10.0764,7.18048 26.97899,24.06399 33.99095,33.95257 7.32628,10.33185 16.35943,28.3512 20.17964,40.2544 6.22882,19.40806 6.77538,24.92933 7.29862,73.72974 l 0.47145,43.96967 16.74058,46.09128 c 18.23469,50.20496 19.53403,55.03084 17.80938,66.14646 -3.1265,20.15076 -15.55956,35.09323 -34.85968,41.89554 -5.749,2.02622 -8.82264,2.47617 -18.16954,2.65977 -6.1875,0.12154 -12.72656,0.7144 -14.53125,1.31747 -1.80469,0.60306 -8.4388,1.34246 -14.74248,1.64309 l -11.46123,0.5466 -6.55561,-6.18424 c -15.94696,-15.04355 -34.74176,-26.1952 -52.58859,-31.20277 -3.07428,-0.8626 -5.58959,-1.69624 -5.58959,-1.85254 0,-0.15629 0.38481,-1.29628 0.85511,-2.53331 0.62083,-1.63289 2.48308,-2.83867 6.79688,-4.40088 32.62096,-11.81344 59.25099,-39.80464 69.16301,-72.69821 1.5313,-5.08171 2.61636,-6.99294 4.7902,-8.4375 1.54575,-1.02717 3.96147,-3.51733 5.36825,-5.53366 2.51422,-3.60362 2.56299,-3.94705 2.86253,-20.15625 0.34523,-18.68207 -0.2199,-21.69848 -4.98435,-26.60428 l -3.28913,-3.38672 0,-14.10896 0,-14.10897 -34.92188,-0.0162 c -19.20703,-0.009 -38.71875,-0.42012 -43.35937,-0.91374 -36.04726,-3.83436 -66.61339,-26.05951 -81.54159,-59.2903 l -3.67875,-8.18902 -2.9716,8.32268 c -6.90287,19.33322 -19.86247,41.31254 -32.22647,54.65569 -7.49392,8.0874 -18.73646,16.11497 -24.70075,17.63721 -7.01651,1.79078 -9.05377,2.95168 -14.38168,8.19514 -3.52715,3.47124 -6.35394,7.49039 -8.65044,12.29925 -3.31145,6.93414 -3.41122,7.45839 -3.41122,17.92431 0,10.46592 0.0998,10.99017 3.41122,17.92433 4.34738,9.10341 11.48472,16.32866 19.87418,20.11899 5.44799,2.46138 6.17302,3.11671 7.17799,6.48793 1.77605,5.95791 7.87163,18.47616 12.42151,25.50953 12.14471,18.77381 30.66691,34.1241 51.40787,42.60434 6.11461,2.50005 7.52628,3.48128 8.3315,5.79112 1.38271,3.96644 1.30221,4.15567 -2.0774,4.88311 -14.0109,3.01578 -37.06144,16.68668 -52.17527,30.94431 -6.68296,6.30436 -6.93717,6.39041 -14.6216,4.94912 z"
         style="fill:#442725" />
    </g>
  </g>
</svg>
