<?xml version="1.0" encoding="UTF-8" standalone="no"?>
<!-- Created with Inkscape (http://www.inkscape.org/) -->

<svg
   xmlns:dc="http://purl.org/dc/elements/1.1/"
   xmlns:cc="http://creativecommons.org/ns#"
   xmlns:rdf="http://www.w3.org/1999/02/22-rdf-syntax-ns#"
   xmlns:svg="http://www.w3.org/2000/svg"
   xmlns="http://www.w3.org/2000/svg"
   xmlns:sodipodi="http://sodipodi.sourceforge.net/DTD/sodipodi-0.dtd"
   xmlns:inkscape="http://www.inkscape.org/namespaces/inkscape"
   id="svg4136"
   version="1.1"
   inkscape:version="0.91 r13725"
   width="369.375"
   height="347.8125"
   viewBox="0 0 369.375 347.8125"
   sodipodi:docname="Yoga.svg">
  <metadata
     id="metadata4142">
    <rdf:RDF>
      <cc:Work
         rdf:about="">
        <dc:format>image/svg+xml</dc:format>
        <dc:type
           rdf:resource="http://purl.org/dc/dcmitype/StillImage" />
        <dc:title></dc:title>
      </cc:Work>
    </rdf:RDF>
  </metadata>
  <defs
     id="defs4140" />
  <sodipodi:namedview
     pagecolor="#ffffff"
     bordercolor="#666666"
     borderopacity="1"
     objecttolerance="10"
     gridtolerance="10"
     guidetolerance="10"
     inkscape:pageopacity="0"
     inkscape:pageshadow="2"
     inkscape:window-width="1040"
     inkscape:window-height="601"
     id="namedview4138"
     showgrid="false"
     inkscape:zoom="0.83251817"
     inkscape:cx="70.451476"
     inkscape:cy="173.90625"
     inkscape:window-x="250"
     inkscape:window-y="250"
     inkscape:window-maximized="0"
     inkscape:current-layer="svg4136" />
  <g
     id="g4211"
     transform="translate(397.58892,-6.0058749)">
    <path
       inkscape:connector-curvature="0"
       id="path4209"
       d="m -233.31731,347.10316 c -40.88041,-3.54816 -77.51266,-20.92697 -105.99666,-50.28616 -21.96675,-22.6417 -34.95924,-46.20049 -42.58052,-77.20963 -3.43502,-13.9763 -4.46668,-22.81047 -4.44087,-38.02741 0.0348,-20.50685 2.58528,-35.73121 9.23598,-55.13158 12.20309,-35.596925 37.1293,-66.659177 69.75624,-86.928021 36.3203,-22.563283 83.45919,-30.3088388 124.18208,-20.404794 33.34603,8.10995 59.01139,22.619034 82.09041,46.407179 22.161763,22.842695 35.154573,46.634416 42.932653,78.615876 2.89294,11.89504 4.04656,22.3687 4.07667,37.01196 0.041,19.92105 -2.66367,35.87262 -9.40277,55.45628 -16.23787,47.18689 -55.993613,86.39905 -103.290713,101.87843 -22.74982,7.44556 -45.75398,10.42392 -66.5625,8.61787 z m 36.76735,-3.30781 c 53.25325,-7.99851 98.535913,-40.39971 122.509283,-87.65929 11.88911,-23.43745 16.83507,-42.82995 17.63882,-69.15963 0.56983,-18.66695 -0.27612,-28.00604 -3.96525,-43.77531 -10.81438,-46.226254 -41.952123,-86.209244 -83.887703,-107.717526 -24.87589,-12.758562 -47.97986,-18.376222 -75.57664,-18.376222 -28.12474,0 -51.39868,5.605457 -76.29836,18.376222 -47.58338,24.404978 -80.06446,71.208776 -87.24182,125.711586 -1.66642,12.65433 -0.65035,40.32108 1.92048,52.29298 10.68461,49.75628 41.70636,90.97814 85.32134,113.37542 17.24727,8.85686 33.05794,13.99087 52.03125,16.89549 11.67636,1.78753 35.76659,1.80592 47.5486,0.0363 z m -65.62125,-156.58489 c -2.56631,-1.79751 -2.73107,-5.62811 -0.29808,-6.9302 1.62926,-0.87195 1.81387,-0.5466 2.10938,3.7176 0.17812,2.57025 0.31225,4.67291 0.29808,4.67259 -0.0142,-3.2e-4 -0.96341,-0.65732 -2.10938,-1.45999 z m 70.3125,0 c -2.56631,-1.79751 -2.73107,-5.62811 -0.29808,-6.9302 1.62926,-0.87195 1.81387,-0.5466 2.10938,3.7176 0.17812,2.57025 0.31225,4.67291 0.29808,4.67259 -0.0142,-3.2e-4 -0.96341,-0.65732 -2.10938,-1.45999 z m -50.8336,-3.19142 c 0,-2.73456 0.35914,-3.825 1.17187,-3.55812 1.75196,0.57527 1.94614,4.91331 0.28178,6.29461 -1.27401,1.05733 -1.45365,0.71917 -1.45365,-2.73649 z m 71.25,-0.50542 c 0,-2.02254 0.37849,-3.15799 0.9375,-2.8125 0.51562,0.31868 0.9375,1.5843 0.9375,2.8125 0,1.2282 -0.42188,2.49382 -0.9375,2.8125 -0.55901,0.34549 -0.9375,-0.78996 -0.9375,-2.8125 z"
       style="fill:#ffffff" />
    <g
       id="g4193">
      <path
         inkscape:connector-curvature="0"
         id="path4174"
         d="m -243.26991,343.78359 c -50.78898,-7.41256 -96.02008,-38.97922 -120.83794,-84.33247 -8.22285,-15.02678 -15.45701,-36.76447 -18.40766,-55.3125 -1.51663,-9.53372 -1.51918,-34.01818 -0.005,-45 7.03661,-51.0234 38.08942,-96.356222 83.10914,-121.327884 15.69795,-8.707384 37.36854,-16.002652 56.25,-18.936205 9.59171,-1.490234 35.14339,-1.483591 45.46875,0.01182 66.70894,9.6614 120.08336,57.773901 136.35067,122.908519 3.40752,13.64381 4.6511,24.4047 4.6587,40.3125 0.007,16.00835 -1.04804,24.36099 -5.03699,39.85318 -15.18393,58.97097 -60.72614,103.93471 -120.50363,118.97302 -16.92952,4.25898 -43.04017,5.47798 -61.04635,2.85002 z m -17.091,-159.80064 c -0.35533,-5.12774 -0.90314,-5.59986 -3.35458,-2.89107 -1.82056,2.01171 -0.94173,4.82865 2.0503,6.57183 0.89602,0.52203 1.62913,0.96224 1.62913,0.97823 0,0.016 -0.14618,-2.08054 -0.32485,-4.65899 z m 70.3125,0 c -0.35533,-5.12774 -0.90314,-5.59986 -3.35458,-2.89107 -1.82056,2.01171 -0.94173,4.82865 2.0503,6.57183 0.89602,0.52203 1.62913,0.96224 1.62913,0.97823 0,0.016 -0.14618,-2.08054 -0.32485,-4.65899 z m -48.8939,-0.89664 c 0,-0.37858 -0.84375,-1.45192 -1.875,-2.38519 -1.85105,-1.67517 -1.8746,-1.63809 -1.84381,2.90157 l 0.0312,4.59843 1.84381,-2.21323 c 1.01406,-1.21729 1.84378,-2.52299 1.84378,-2.90158 z m 70.3125,-0.10583 c 0,-0.35394 -0.63281,-1.16871 -1.40625,-1.81061 -1.20942,-1.00373 -1.40208,-0.65895 -1.37644,2.46334 0.0279,3.39556 0.11887,3.51269 1.40625,1.8106 0.75704,-1.00089 1.37644,-2.10939 1.37644,-2.46333 z"
         style="fill:#e3d2e3" />
      <path
         inkscape:connector-curvature="0"
         id="path4172"
         d="m -234.25481,344.6857 c -16.74013,-1.93144 -30.60658,-5.18463 -44.53125,-10.44742 -8.81628,-3.33208 -9.39153,-3.71146 -9.65227,-6.36575 -0.15249,-1.55237 0.56471,-5.52774 1.59378,-8.83415 1.93106,-6.2045 1.85921,-7.55601 -0.40172,-7.55601 -2.08469,0 -8.09987,-5.76419 -9.49194,-9.09587 -0.69663,-1.66728 -1.2666,-4.95628 -1.2666,-7.30891 0,-3.71 -0.43277,-4.65748 -3.26199,-7.14157 -1.7941,-1.57524 -4.61865,-5.61985 -6.2768,-8.98802 -4.74426,-9.63695 -4.39026,-13.92178 3.35345,-40.59063 l 6.39711,-22.03125 -1.18805,-16.05628 c -0.65342,-8.83095 -0.86822,-16.84658 -0.47734,-17.8125 0.39089,-0.96592 1.03519,-13.35778 1.43179,-27.53747 0.67468,-24.12207 0.88322,-26.32425 3.24053,-34.21875 8.66232,-29.009728 29.86418,-50.183338 59.31575,-59.236698 7.54539,-2.319438 9.56246,-2.535051 23.71555,-2.535051 14.15309,0 16.17016,0.215613 23.71555,2.535051 29.41964,9.043548 50.37961,29.948397 59.3929,59.236698 l 2.59658,8.4375 0.50686,42.65625 0.50686,42.65625 7.14032,19.22175 c 3.92717,10.57196 7.45075,20.63515 7.83017,22.36265 2.31769,10.55237 -1.2025,21.65026 -9.1274,28.77542 -2.5518,2.29429 -5.01588,4.17143 -5.47573,4.17143 -0.45986,0 -0.83611,2.33386 -0.83611,5.18636 0,10.99497 -6.73332,18.25114 -16.93603,18.25114 -2.02893,0 -3.68897,0.15789 -3.68897,0.35088 0,0.19298 0.56852,1.98595 1.26337,3.98437 3.06072,8.8027 3.18459,8.41681 -3.82827,11.92626 -12.55091,6.28086 -29.63114,11.6979 -45.2476,14.35039 -7.82674,1.32939 -33.86595,2.39772 -40.3125,1.65393 z m -25.77428,-160.70042 c -0.005,-2.96567 -0.4124,-4.68567 -1.11188,-4.6875 -1.3981,-0.004 -4.05134,2.60808 -4.05134,3.98801 0,1.09641 3.68197,5.38408 4.62351,5.38408 0.30067,0 0.54354,-2.10807 0.53971,-4.68459 z m 21.08678,-0.56812 c 0,-1.24343 -2.50546,-4.12431 -3.58259,-4.11938 -0.34988,0.002 -0.6387,2.08781 -0.6418,4.63603 l -0.006,4.63314 2.11502,-1.98696 c 1.16324,-1.09283 2.115,-2.5161 2.115,-3.16283 z m 49.22572,0.56812 c -0.005,-2.96567 -0.4124,-4.68567 -1.11188,-4.6875 -1.3981,-0.004 -4.05134,2.60808 -4.05134,3.98801 0,1.09641 3.68197,5.38408 4.62351,5.38408 0.30067,0 0.54354,-2.10807 0.53971,-4.68459 z m 20.68049,-1.68112 c -1.18567,-3.7357 -2.87496,-2.97021 -2.87496,1.30278 0,3.96696 0.0454,4.02794 1.73877,2.33457 1.12554,-1.12553 1.52625,-2.40837 1.13619,-3.63735 z"
         style="fill:#eebcad" />
      <path
         inkscape:connector-curvature="0"
         id="path4170"
         d="m -234.25481,344.6857 c -16.74013,-1.93144 -30.60658,-5.18463 -44.53125,-10.44742 -8.81628,-3.33208 -9.39153,-3.71146 -9.65227,-6.36575 -0.15249,-1.55237 0.56471,-5.52774 1.59378,-8.83415 1.93106,-6.2045 1.85921,-7.55601 -0.40172,-7.55601 -2.08469,0 -8.09987,-5.76419 -9.49194,-9.09587 -0.69663,-1.66728 -1.2666,-4.95628 -1.2666,-7.30891 0,-3.71 -0.43277,-4.65748 -3.26199,-7.14157 -1.7941,-1.57524 -4.61865,-5.61985 -6.2768,-8.98802 -4.74426,-9.63695 -4.39026,-13.92178 3.35345,-40.59063 l 6.39711,-22.03125 -1.18805,-16.05628 c -0.65342,-8.83095 -0.86822,-16.84658 -0.47734,-17.8125 0.39089,-0.96592 1.03519,-13.35778 1.43179,-27.53747 0.67468,-24.12207 0.88322,-26.32425 3.24053,-34.21875 8.66232,-29.009728 29.86418,-50.183338 59.31575,-59.236698 7.54539,-2.319438 9.56246,-2.535051 23.71555,-2.535051 14.15309,0 16.17016,0.215613 23.71555,2.535051 29.41964,9.043548 50.37961,29.948397 59.3929,59.236698 l 2.59658,8.4375 0.50686,42.65625 0.50686,42.65625 7.14032,19.22175 c 3.92717,10.57196 7.45075,20.63515 7.83017,22.36265 2.31769,10.55237 -1.2025,21.65026 -9.1274,28.77542 -2.5518,2.29429 -5.01588,4.17143 -5.47573,4.17143 -0.45986,0 -0.83611,2.33386 -0.83611,5.18636 0,10.99497 -6.73332,18.25114 -16.93603,18.25114 -2.02893,0 -3.68897,0.15789 -3.68897,0.35088 0,0.19298 0.56852,1.98595 1.26337,3.98437 3.06072,8.8027 3.18459,8.41681 -3.82827,11.92626 -12.55091,6.28086 -29.63114,11.6979 -45.2476,14.35039 -7.82674,1.32939 -33.86595,2.39772 -40.3125,1.65393 z m 30.47446,-48.58572 c 8.42697,-3.80122 14.40276,-12.05256 15.83772,-21.86869 l 0.58032,-3.96983 -5.64177,-1.65517 c -4.29092,-1.25886 -5.5055,-1.99188 -5.07262,-3.06142 0.31303,-0.77344 0.79193,-2.97243 1.06423,-4.88664 0.4732,-3.32652 0.87325,-3.666 9.04825,-7.67852 12.61032,-6.1895 21.99603,-14.66337 28.46219,-25.69703 l 2.42565,-4.13906 -1.05783,-11.84625 c -1.45688,-16.31514 -5.9686,-37.11307 -10.65387,-49.11188 l -1.00671,-2.57812 -13.48001,0 -13.48001,0 0,-2.34375 0,-2.34375 12.65625,0 c 6.96094,0 12.65625,-0.18983 12.65625,-0.42186 0,-1.15301 -7.84554,-18.29709 -10.74961,-23.49005 -3.76658,-6.73527 -13.13672,-19.56018 -16.6237,-22.75286 -1.77126,-1.62177 -4.11795,-2.33742 -9.78344,-2.98358 -7.69883,-0.87807 -19.51179,0.0529 -22.76528,1.79412 -4.65054,2.4889 -15.08263,16.86153 -21.46494,29.57298 -3.03556,6.04581 -7.67285,16.94978 -7.67506,18.04687 -2.5e-4,0.12891 5.30231,0.23438 11.78348,0.23438 11.68417,0 11.78142,0.0178 11.48438,2.10937 -0.29124,2.05063 -0.64496,2.11666 -12.69957,2.37081 l -12.4,0.26144 -2.43555,8.17606 c -3.89696,13.08196 -3.83144,12.27774 -0.76642,9.40759 3.64919,-3.41721 6.94161,-4.51277 13.56185,-4.51277 9.90755,0 16.2194,4.35444 15.67495,10.81389 -0.44741,5.30822 -5.53204,9.09277 -12.93588,9.62831 -7.76851,0.56192 -11.71635,-0.38276 -15.5065,-3.71056 -2.34171,-2.05604 -3.29044,-3.69507 -3.36488,-5.81313 -0.29836,-8.48948 -5.52133,23.51631 -5.52133,33.83409 0,5.6084 0.38025,7.0424 2.93604,11.07247 7.1311,11.24457 15.59653,18.75 27.65066,24.51502 6.49639,3.10697 6.69372,3.30343 7.16206,7.13058 0.26488,2.16457 0.7672,4.62935 1.11627,5.4773 0.50674,1.23095 -0.46452,1.91021 -4.81831,3.36981 l -5.45297,1.82808 0.30641,3.66145 c 0.42058,5.02577 3.91486,12.42598 7.61412,16.12523 8.35611,8.35612 21.94701,10.57202 33.33518,5.43507 z m -19.22446,-64.02429 c -4.86517,-1.75976 -7.5,-3.5014 -7.5,-4.95752 0,-1.54224 0.24553,-1.52908 3.74147,0.20057 2.84072,1.40548 5.66403,1.85113 11.72728,1.85113 6.06325,0 8.88656,-0.44565 11.72728,-1.85113 3.52527,-1.74416 3.74147,-1.75442 3.74147,-0.17739 0,2.99027 -7.12809,5.60126 -15.06161,5.517 -3.83331,-0.0407 -7.60245,-0.3029 -8.37589,-0.58266 z m -42.09759,-19.26098 c -9.14457,-3.37 -4.07306,-10.08432 7.61435,-10.08089 9.39587,0.003 15.19085,5.35362 9.6967,8.95352 -3.08556,2.02174 -13.11229,2.67472 -17.31105,1.12737 z m 85.3125,0 c -9.14457,-3.37 -4.07306,-10.08432 7.61435,-10.08089 9.39587,0.003 15.19085,5.35362 9.6967,8.95352 -3.08556,2.02174 -13.11229,2.67472 -17.31105,1.12737 z m -40.59144,-5.30064 c -2.62707,-2.35579 -2.8529,-2.8657 -1.50127,-3.38979 1.7582,-0.68174 6.30076,2.13995 6.34834,3.94338 0.0617,2.3378 -1.86857,2.11734 -4.84707,-0.55359 z m 30.18903,-15.16034 c -9.99563,-4.1747 -9.82709,-14.79968 0.29541,-18.62422 3.71434,-1.40338 13.25722,-1.24005 16.84408,0.28829 8.17703,3.48419 9.61998,10.75368 3.16804,15.96033 -3.23771,2.61281 -4.31924,2.92673 -10.78125,3.1293 -3.9504,0.12385 -8.23722,-0.21532 -9.52628,-0.7537 z m 0.47572,-8.36845 c -0.005,-2.96567 -0.4124,-4.68567 -1.11188,-4.6875 -1.3981,-0.004 -4.05134,2.60808 -4.05134,3.98801 0,1.09641 3.68197,5.38408 4.62351,5.38408 0.30067,0 0.54354,-2.10807 0.53971,-4.68459 z m 20.68049,-1.68112 c -1.18567,-3.7357 -2.87496,-2.97021 -2.87496,1.30278 0,3.96696 0.0454,4.02794 1.73877,2.33457 1.12554,-1.12553 1.52625,-2.40837 1.13619,-3.63735 z m -90.99299,1.68112 c -0.005,-2.96567 -0.4124,-4.68567 -1.11188,-4.6875 -1.3981,-0.004 -4.05134,2.60808 -4.05134,3.98801 0,1.09641 3.68197,5.38408 4.62351,5.38408 0.30067,0 0.54354,-2.10807 0.53971,-4.68459 z m 21.08678,-0.56812 c 0,-1.24343 -2.50546,-4.12431 -3.58259,-4.11938 -0.34988,0.002 -0.6387,2.08781 -0.6418,4.63603 l -0.006,4.63314 2.11502,-1.98696 c 1.16324,-1.09283 2.115,-2.5161 2.115,-3.16283 z"
         style="fill:#eaa7a7" />
      <path
         inkscape:connector-curvature="0"
         id="path4168"
         d="m -234.25481,344.6857 c -16.74013,-1.93144 -30.60658,-5.18463 -44.53125,-10.44742 -8.81628,-3.33208 -9.39153,-3.71146 -9.65227,-6.36575 -0.15249,-1.55237 0.56471,-5.52774 1.59378,-8.83415 1.93106,-6.2045 1.85921,-7.55601 -0.40172,-7.55601 -2.08469,0 -8.09987,-5.76419 -9.49194,-9.09587 -0.69663,-1.66728 -1.2666,-4.95628 -1.2666,-7.30891 0,-3.71 -0.43277,-4.65748 -3.26199,-7.14157 -1.7941,-1.57524 -4.61865,-5.61985 -6.2768,-8.98802 -4.74426,-9.63695 -4.39026,-13.92178 3.35345,-40.59063 l 6.39711,-22.03125 -1.18805,-16.05628 c -0.65342,-8.83095 -0.86822,-16.84658 -0.47734,-17.8125 0.39089,-0.96592 1.03519,-13.35778 1.43179,-27.53747 0.67468,-24.12207 0.88322,-26.32425 3.24053,-34.21875 8.66232,-29.009728 29.86418,-50.183338 59.31575,-59.236698 7.54539,-2.319438 9.56246,-2.535051 23.71555,-2.535051 14.15309,0 16.17016,0.215613 23.71555,2.535051 29.41964,9.043548 50.37961,29.948397 59.3929,59.236698 l 2.59658,8.4375 0.50686,42.65625 0.50686,42.65625 7.14032,19.22175 c 3.92717,10.57196 7.45075,20.63515 7.83017,22.36265 2.31769,10.55237 -1.2025,21.65026 -9.1274,28.77542 -2.5518,2.29429 -5.01588,4.17143 -5.47573,4.17143 -0.45986,0 -0.83611,2.33386 -0.83611,5.18636 0,10.99497 -6.73332,18.25114 -16.93603,18.25114 -2.02893,0 -3.68897,0.15789 -3.68897,0.35088 0,0.19298 0.56852,1.98595 1.26337,3.98437 3.06072,8.8027 3.18459,8.41681 -3.82827,11.92626 -12.55091,6.28086 -29.63114,11.6979 -45.2476,14.35039 -7.82674,1.32939 -33.86595,2.39772 -40.3125,1.65393 z m 25.13173,-46.4711 c 9.72868,-2.3888 18.25515,-10.91718 20.65839,-20.663 1.67181,-6.77971 1.56699,-6.99878 -4.30575,-8.99892 -3.52107,-1.1992 -5.2803,-2.283 -5.07253,-3.125 0.17495,-0.70898 0.59683,-2.89635 0.9375,-4.8608 0.58195,-3.35575 1.00102,-3.7327 6.92978,-6.23316 11.6902,-4.93039 21.91864,-13.55795 29.35904,-24.76401 l 3.49359,-5.26172 -0.67223,-10.08469 c -1.06657,-16.00029 -5.86754,-39.26848 -10.73171,-52.01186 l -0.97418,-2.55219 -13.39244,-0.26031 c -13.08439,-0.25433 -13.39933,-0.30884 -13.69202,-2.3697 -0.2981,-2.09902 -0.23685,-2.10937 12.48506,-2.10937 l 12.78463,0 -0.65447,-2.10938 c -0.35995,-1.16015 -2.35511,-5.90625 -4.43369,-10.54687 -7.73518,-17.2695 -19.80452,-34.21178 -25.77564,-36.18243 -4.29868,-1.41869 -21.94403,-1.41534 -27.13885,0.005 -3.19957,0.8749 -4.95665,2.30745 -9.05362,7.38143 -6.91397,8.56277 -12.83918,18.38282 -17.28708,28.65054 -6.15441,14.20752 -6.90209,12.80202 6.81006,12.80202 6.52999,0 11.78193,0.38372 11.78193,0.86082 0,3.56293 -0.91314,3.82668 -13.24851,3.82668 l -12.1104,0 -0.98582,2.57812 c -4.29386,11.22928 -9.11974,36.06538 -9.91525,51.02816 l -0.58217,10.95002 3.16648,4.98748 c 6.64703,10.46959 15.0412,17.86178 27.5787,24.28675 5.8239,2.98451 6.62109,3.72099 7.10357,6.5625 0.29892,1.7604 0.84351,4.11072 1.21021,5.22295 0.59152,1.79414 0.10754,2.20369 -4.29066,3.63087 -2.72657,0.88474 -5.32407,1.94453 -5.77222,2.35508 -0.45823,0.41979 -0.2963,2.93356 0.37,5.74414 3.7644,15.8785 19.31841,25.21486 35.4203,21.26116 z m -16.3442,-67.28021 c -6.39396,-2.90351 -7.07183,-5.92247 -0.72835,-3.2438 4.93004,2.08182 17.3891,2.08182 22.31914,0 6.34348,-2.67867 5.66561,0.34029 -0.72835,3.2438 -2.60212,1.18164 -6.01725,1.7568 -10.43122,1.7568 -4.41397,0 -7.8291,-0.57516 -10.43122,-1.7568 z m 5.97809,-22.71811 c -2.70368,-1.98236 -3.45675,-4.54641 -1.33529,-4.54641 0.68355,0 2.2389,1.06027 3.45633,2.35616 2.93692,3.12621 1.3668,4.74755 -2.12104,2.19025 z m -41.59453,-16.65305 c -12.83023,-5.82641 -6.60969,-18.78969 9.01641,-18.78969 8.87298,0 15.9375,4.55292 15.9375,10.27133 0,5.71841 -7.06452,10.27132 -15.9375,10.27132 -3.0353,0 -6.74408,-0.72105 -9.01641,-1.75296 z m 1.05463,-7.57795 c -0.005,-2.96567 -0.4124,-4.68567 -1.11188,-4.6875 -1.3981,-0.004 -4.05134,2.60808 -4.05134,3.98801 0,1.09641 3.68197,5.38408 4.62351,5.38408 0.30067,0 0.54354,-2.10807 0.53971,-4.68459 z m 21.08678,-0.56812 c 0,-1.24343 -2.50546,-4.12431 -3.58259,-4.11938 -0.34988,0.002 -0.6387,2.08781 -0.6418,4.63603 l -0.006,4.63314 2.11502,-1.98696 c 1.16324,-1.09283 2.115,-2.5161 2.115,-3.16283 z m 48.17109,8.14607 c -12.83023,-5.82641 -6.60969,-18.78969 9.01641,-18.78969 8.87298,0 15.9375,4.55292 15.9375,10.27133 0,5.71841 -7.06452,10.27132 -15.9375,10.27132 -3.0353,0 -6.74408,-0.72105 -9.01641,-1.75296 z m 1.05463,-7.57795 c -0.005,-2.96567 -0.4124,-4.68567 -1.11188,-4.6875 -1.3981,-0.004 -4.05134,2.60808 -4.05134,3.98801 0,1.09641 3.68197,5.38408 4.62351,5.38408 0.30067,0 0.54354,-2.10807 0.53971,-4.68459 z m 20.68049,-1.68112 c -1.18567,-3.7357 -2.87496,-2.97021 -2.87496,1.30278 0,3.96696 0.0454,4.02794 1.73877,2.33457 1.12554,-1.12553 1.52625,-2.40837 1.13619,-3.63735 z"
         style="fill:#a49d9d" />
      <path
         inkscape:connector-curvature="0"
         id="path4166"
         d="m -229.56731,344.65312 c -18.18141,-1.33295 -42.77046,-7.22527 -56.48437,-13.53544 -3.07923,-1.41684 -3.08037,-1.43416 -0.70313,-10.72906 2.31201,-9.03986 2.32741,-8.58944 -0.31643,-9.25299 -5.92434,-1.48693 -10.87534,-8.92583 -10.91298,-16.39681 -0.0179,-3.55262 -0.60312,-4.72586 -4.47371,-8.96861 -9.62869,-10.5545 -9.9518,-17.73275 -2.02868,-45.07007 l 5.7057,-19.68652 0.35409,-41.3844 c 0.20144,-23.54294 0.79679,-44.15566 1.38094,-47.8125 5.11707,-32.032796 27.41976,-58.65669 57.48877,-68.627388 11.88366,-3.940551 20.70453,-5.17313 32.4898,-4.539947 21.57757,1.15929 40.62863,9.709518 56.0948,25.175687 11.26847,11.268463 17.28192,21.509068 22.40373,38.152388 l 2.49229,8.09866 0.54458,42.65625 0.54458,42.65625 7.33605,19.6875 c 7.85704,21.08566 9.11941,27.18167 7.22023,34.86666 -1.46304,5.92018 -6.51484,13.47981 -11.24483,16.82707 -3.51723,2.48902 -3.79033,3.00273 -3.80891,7.16451 -0.0214,4.78315 -1.88606,10.23924 -4.5089,13.19298 -2.34729,2.64342 -8.5831,5.2483 -12.6205,5.27194 -1.93359,0.0114 -3.51562,0.27206 -3.51562,0.57942 0,0.30736 0.6693,2.86115 1.48733,5.67509 0.81804,2.81394 1.24772,5.74065 0.95487,6.50383 -1.06214,2.76791 -21.38157,10.74724 -37.59845,14.76473 -14.25045,3.53033 -35.82329,5.64412 -48.28125,4.73077 z m 25.78125,-48.05753 c 3.09375,-1.48378 6.97326,-4.12017 8.62112,-5.85863 4.20398,-4.43512 7.97189,-13.04838 7.60875,-17.39327 -0.27701,-3.31432 -0.53861,-3.57129 -4.97987,-4.89193 -2.57812,-0.76663 -4.82982,-1.48991 -5.00377,-1.60728 -0.17396,-0.11738 0.1587,-2.50139 0.73923,-5.2978 0.96177,-4.6328 1.34126,-5.17209 4.27266,-6.07176 10.24233,-3.14346 24.43926,-14.40024 31.46892,-24.95178 l 3.83711,-5.75952 -0.52518,-10.3125 c -0.76009,-14.92477 -4.51994,-33.87514 -9.76526,-49.21875 l -1.76269,-5.15625 -13.27114,-0.26012 c -7.29912,-0.14306 -13.27113,-0.6359 -13.27113,-1.0952 0,-0.45929 -0.25607,-1.5024 -0.56905,-2.318 -0.50181,-1.30768 0.94592,-1.48293 12.25067,-1.48293 l 12.81974,0 -0.65367,-2.10938 c -3.56642,-11.50903 -13.25438,-28.76011 -22.59541,-40.23505 l -5.08829,-6.25067 -6.72827,-1.13487 c -7.00756,-1.18198 -17.2267,-0.7358 -23.46169,1.02436 -6.20511,1.75172 -19.07048,19.84804 -26.44923,37.20328 -5.40792,12.71971 -6.20632,11.50233 7.54357,11.50233 10.44988,0 11.81364,0.17876 11.31318,1.48293 -0.31298,0.8156 -0.56905,1.85805 -0.56905,2.31653 0,0.4585 -5.58366,0.95133 -12.40813,1.0952 l -12.40813,0.26159 -2.62396,8.90625 c -4.56418,15.49172 -7.28487,30.63967 -7.82979,43.59375 l -0.51266,12.1875 3.86947,5.80921 c 5.59068,8.39327 15.37163,17.04471 24.58189,21.74316 l 7.80006,3.97905 1.42824,5.32804 1.42824,5.32804 -5.17824,1.89423 -5.17824,1.89423 0.0479,4.25769 c 0.0939,8.3525 6.53965,17.11401 15.88962,21.59832 4.65433,2.23226 6.83833,2.6978 12.65625,2.6978 5.81792,0 8.00192,-0.46554 12.65625,-2.6978 z m -20.52648,-65.27722 c -3.95838,-1.51161 -6.19227,-3.0549 -6.19227,-4.27796 0,-0.42617 1.58203,-0.0786 3.51562,0.77247 4.86966,2.14329 19.07589,2.1254 23.9785,-0.0302 4.46405,-1.96276 4.26174,-0.12589 -0.27815,2.52555 -4.11353,2.40244 -15.89534,2.96851 -21.0237,1.01012 z m 3.98971,-23.83196 c -1.66281,-1.3587 -1.94756,-2.07901 -1.14497,-2.89638 0.80815,-0.82303 1.65641,-0.57656 3.48365,1.01221 3.86205,3.35801 1.64803,5.14174 -2.33868,1.88417 z m -38.9126,-15.09654 c -1.62217,-0.50082 -4.25889,-2.13383 -5.85938,-3.62892 -10.86202,-10.14665 11.00804,-21.63992 24.36186,-12.80278 9.35923,6.19364 3.64366,16.25127 -9.66514,17.00765 -3.23839,0.18405 -7.21519,-0.0751 -8.83734,-0.57595 z m -0.41728,-5.35087 c -0.53707,-1.4126 -0.71415,-3.9668 -0.3935,-5.67599 l 0.58299,-3.10762 -2.86454,1.48131 c -3.02355,1.56354 -3.63943,3.85353 -1.69267,6.29369 0.94477,1.18422 4.17834,3.41958 5.13304,3.54847 0.11615,0.0157 -0.22825,-1.12726 -0.76532,-2.53986 z m 20.36882,-2.76081 c 0.4528,-1.80408 0.15716,-2.79957 -1.10561,-3.72294 -2.57633,-1.88386 -2.76575,-1.65891 -2.83884,3.37133 -0.0608,4.18717 0.0951,4.54348 1.62956,3.72229 0.93325,-0.49947 1.97495,-2.01628 2.31489,-3.37068 z m 50.36096,8.11168 c -1.62217,-0.50082 -4.25889,-2.13383 -5.85938,-3.62892 -10.86202,-10.14665 11.00804,-21.63992 24.36186,-12.80278 9.35923,6.19364 3.64366,16.25127 -9.66514,17.00765 -3.23839,0.18405 -7.21519,-0.0751 -8.83734,-0.57595 z m -0.41728,-5.35087 c -0.53707,-1.4126 -0.71415,-3.9668 -0.3935,-5.67599 l 0.58299,-3.10762 -2.86454,1.48131 c -3.02355,1.56354 -3.63943,3.85353 -1.69267,6.29369 0.94477,1.18422 4.17834,3.41958 5.13304,3.54847 0.11615,0.0157 -0.22825,-1.12726 -0.76532,-2.53986 z m 19.73992,-1.12 c 1.42016,-2.6536 1.18973,-4.56582 -0.67014,-5.56119 -1.447,-0.77442 -1.64063,-0.39104 -1.64063,3.24826 0,4.44003 0.76343,5.20417 2.31077,2.31293 z"
         style="fill:#799a96" />
      <path
         inkscape:connector-curvature="0"
         id="path4164"
         d="m -288.31112,310.56478 c -1.97997,-0.89656 -4.32213,-2.4434 -5.20481,-3.43744 -2.52396,-2.84239 -4.48888,-8.35462 -4.48888,-12.59279 0,-3.3223 -0.64306,-4.58793 -4.45312,-8.76434 -9.62869,-10.5545 -9.9518,-17.73275 -2.02868,-45.07007 l 5.7057,-19.68652 0.35409,-41.3844 c 0.20144,-23.54294 0.79679,-44.15566 1.38094,-47.8125 5.11707,-32.032796 27.41976,-58.65669 57.48877,-68.627388 11.88366,-3.940551 20.70453,-5.17313 32.4898,-4.539948 21.57757,1.15929 40.62863,9.709519 56.0948,25.175688 11.26847,11.268463 17.28192,21.509068 22.40373,38.152388 l 2.49229,8.09866 0.54458,42.65625 0.54458,42.65625 7.33605,19.6875 c 7.85704,21.08566 9.11941,27.18167 7.22023,34.86666 -1.46304,5.92018 -6.51484,13.47981 -11.24483,16.82707 -3.51723,2.48902 -3.79033,3.00273 -3.80891,7.16451 -0.0214,4.78315 -1.88606,10.23924 -4.5089,13.19298 -2.42366,2.72942 -8.6449,5.2553 -12.85487,5.21918 -3.708,-0.0318 -3.78474,-0.105 -6.85167,-6.53407 -3.99719,-8.3791 -11.7135,-18.02428 -19.42558,-24.28144 -6.80384,-5.52026 -20.07718,-12.7272 -25.21564,-13.69119 -3.76928,-0.70712 -3.70882,-0.53356 -2.36632,-6.79345 0.87571,-4.08328 1.339,-4.69958 4.19076,-5.57481 10.23145,-3.14012 24.43168,-14.40191 31.45799,-24.94842 l 3.83711,-5.75952 -0.52518,-10.3125 c -0.76009,-14.92477 -4.51995,-33.87514 -9.76526,-49.21875 l -1.76269,-5.15625 -13.27114,-0.26012 c -7.29912,-0.14306 -13.27113,-0.6359 -13.27113,-1.0952 0,-0.45929 -0.25607,-1.5024 -0.56905,-2.318 -0.50181,-1.30768 0.94592,-1.48293 12.25067,-1.48293 l 12.81974,0 -0.65367,-2.10938 c -3.56642,-11.50903 -13.25438,-28.76011 -22.59541,-40.23505 l -5.08829,-6.25067 -6.72827,-1.13487 c -7.00756,-1.18198 -17.2267,-0.7358 -23.46169,1.02436 -6.20511,1.75172 -19.07048,19.84804 -26.44923,37.20328 -5.40792,12.71971 -6.20632,11.50233 7.54357,11.50233 10.44988,0 11.81364,0.17876 11.31318,1.48293 -0.31298,0.8156 -0.56905,1.85805 -0.56905,2.31653 0,0.4585 -5.58366,0.95133 -12.40813,1.0952 l -12.40813,0.26159 -2.62396,8.90625 c -4.56418,15.49172 -7.28487,30.63967 -7.82979,43.59375 l -0.51266,12.1875 3.86947,5.80921 c 5.58767,8.38875 15.37142,17.04399 24.58189,21.74649 l 7.80006,3.9824 1.48173,5.45828 1.48172,5.4583 -3.82547,1.11736 c -5.88673,1.71942 -17.1859,8.08402 -23.62158,13.30558 -7.44772,6.04267 -14.55297,14.82631 -19.09791,23.60917 l -3.59361,6.94448 -3.59994,-1.63011 z m 63.99858,-79.24641 c -3.95838,-1.51161 -6.19227,-3.0549 -6.19227,-4.27796 0,-0.42617 1.58203,-0.0786 3.51562,0.77247 4.86966,2.14329 19.07589,2.1254 23.9785,-0.0302 4.46405,-1.96276 4.26174,-0.12589 -0.27815,2.52555 -4.11353,2.40244 -15.89534,2.96851 -21.0237,1.01012 z m 3.98971,-23.83196 c -1.66281,-1.3587 -1.94756,-2.07901 -1.14497,-2.89638 0.80815,-0.82303 1.65641,-0.57656 3.48365,1.01221 3.86205,3.35801 1.64803,5.14174 -2.33868,1.88417 z m -38.9126,-15.09654 c -1.62217,-0.50082 -4.25889,-2.13383 -5.85938,-3.62892 -10.86202,-10.14665 11.00804,-21.63992 24.36186,-12.80278 9.35923,6.19364 3.64366,16.25127 -9.66514,17.00765 -3.23839,0.18405 -7.21519,-0.0751 -8.83734,-0.57595 z m -0.41728,-5.35087 c -0.53707,-1.4126 -0.71845,-3.94385 -0.40307,-5.625 0.65007,-3.46514 -0.23196,-3.82335 -3.299,-1.33981 -2.74244,2.2207 -1.92921,6.10193 1.69001,8.06569 1.41142,0.76584 2.66124,1.40931 2.77738,1.42995 0.11615,0.0206 -0.22825,-1.11823 -0.76532,-2.53083 z m 18.89305,-0.30178 c 2.38935,-2.38935 2.04847,-5.35875 -0.83381,-7.26338 -2.1724,-1.43554 -2.17952,-1.42681 -1.5548,1.90323 0.36438,1.94231 0.18457,4.17315 -0.42871,5.31908 -1.38716,2.59194 0.2427,2.61569 2.81732,0.0411 z m 51.83673,5.65265 c -1.62217,-0.50082 -4.25889,-2.13383 -5.85938,-3.62892 -10.86202,-10.14665 11.00804,-21.63992 24.36186,-12.80278 9.35923,6.19364 3.64366,16.25127 -9.66514,17.00765 -3.23839,0.18405 -7.21519,-0.0751 -8.83734,-0.57595 z m -0.41728,-5.35087 c -0.53707,-1.4126 -0.71845,-3.94385 -0.40307,-5.625 0.65007,-3.46514 -0.23196,-3.82335 -3.299,-1.33981 -2.74244,2.2207 -1.92921,6.10193 1.69001,8.06569 1.41142,0.76584 2.66124,1.40931 2.77738,1.42995 0.11615,0.0206 -0.22825,-1.11823 -0.76532,-2.53083 z m 19.97666,-1.72319 c 0.76149,-1.6713 0.80692,-2.88285 0.1473,-3.92857 -1.78149,-2.82424 -2.69481,-2.10357 -2.69481,2.12638 0,4.7438 0.91295,5.38965 2.54751,1.80219 z"
         style="fill:#a58478" />
      <path
         inkscape:connector-curvature="0"
         id="path4162"
         d="m -288.31112,310.56478 c -1.97997,-0.89656 -4.32213,-2.4434 -5.20481,-3.43744 -2.52396,-2.84239 -4.48888,-8.35462 -4.48888,-12.59279 0,-3.3223 -0.64306,-4.58793 -4.45312,-8.76434 -9.62869,-10.5545 -9.9518,-17.73275 -2.02868,-45.07007 l 5.7057,-19.68652 0.35409,-41.3844 c 0.20144,-23.54294 0.79679,-44.15566 1.38094,-47.8125 5.11707,-32.032796 27.41976,-58.65669 57.48877,-68.627388 11.88366,-3.940551 20.70453,-5.17313 32.4898,-4.539948 21.57757,1.15929 40.62863,9.709519 56.0948,25.175688 11.26847,11.268463 17.28192,21.509068 22.40373,38.152388 l 2.49229,8.09866 0.54458,42.65625 0.54458,42.65625 7.33605,19.6875 c 7.85704,21.08566 9.11941,27.18167 7.22023,34.86666 -1.46304,5.92018 -6.51484,13.47981 -11.24483,16.82707 -3.51723,2.48902 -3.79033,3.00273 -3.80891,7.16451 -0.0214,4.78315 -1.88606,10.23924 -4.5089,13.19298 -2.42366,2.72942 -8.6449,5.2553 -12.85487,5.21918 -3.708,-0.0318 -3.78474,-0.105 -6.85167,-6.53407 -3.9601,-8.30133 -11.69724,-18.01109 -19.20753,-24.10452 -6.34847,-5.15079 -17.58538,-11.50551 -23.6283,-13.36231 -5.18108,-1.59198 -5.398,-1.94786 -4.1671,-6.83624 1.06918,-4.24607 1.22076,-4.37897 9.69934,-8.50355 10.01584,-4.87243 19.87041,-13.38099 25.82437,-22.29711 3.49659,-5.2362 3.79818,-6.1862 3.78134,-11.9113 -0.038,-12.8888 -3.61791,-33.07399 -9.0429,-50.98693 l -2.48435,-8.20312 -13.44597,0 c -7.54055,0 -13.44598,-0.37808 -13.44598,-0.86082 0,-0.47346 -0.25607,-1.52815 -0.56905,-2.34375 -0.50173,-1.30747 0.94036,-1.48293 12.1875,-1.48293 7.74024,0 12.75655,-0.36272 12.75655,-0.92241 0,-1.78904 -7.33743,-17.91322 -11.31528,-24.86559 -5.27185,-9.21402 -15.31685,-21.85975 -18.24981,-22.97486 -8.00988,-3.04536 -28.97919,-1.67328 -33.08369,2.16475 -3.85039,3.60042 -11.96253,14.93223 -16.28928,22.75441 -4.18898,7.5731 -10.12444,20.96368 -10.12444,22.84102 0,0.65888 4.05253,1.00268 11.81905,1.00268 10.39227,0 11.75036,0.17902 11.25,1.48293 -0.31298,0.8156 -0.56905,1.87029 -0.56905,2.34375 0,0.47974 -5.53551,0.86082 -12.504,0.86082 l -12.50399,0 -2.9716,10.54943 c -4.67297,16.58939 -6.71052,28.2795 -7.31184,41.95057 l -0.5567,12.65625 3.91121,5.81755 c 5.71208,8.4962 15.77466,17.39056 24.7662,21.89097 l 7.6061,3.80698 1.49731,5.46992 1.49731,5.46991 -3.82437,1.11704 c -5.88572,1.71911 -17.18526,8.08406 -23.62048,13.30525 -7.44773,6.04267 -14.55297,14.82631 -19.09791,23.60917 l -3.59361,6.94448 -3.59994,-1.63011 z m 65.12425,-79.08763 c -4.38083,-1.23522 -7.31794,-2.999 -7.31794,-4.3945 0,-0.40296 2.1139,0.0706 4.69756,1.05229 6.18997,2.35201 15.37583,2.34311 21.59746,-0.0209 5.59289,-2.12513 5.98105,-0.54639 0.5297,2.1544 -4.50782,2.23333 -13.82533,2.81069 -19.50678,1.20874 z m 2.90081,-24.15103 c -1.3125,-1.3125 -1.65625,-2.28125 -1.03125,-2.90625 0.98893,-0.98893 4.875,2.14981 4.875,3.9375 0,1.53713 -1.743,1.0695 -3.84375,-1.03125 z m -39.11331,-15.10726 c -8.37314,-2.81273 -11.07766,-9.86231 -5.70799,-14.87835 7.47947,-6.98686 24.00046,-5.46095 27.83038,2.57048 1.3676,2.86787 1.3676,3.39989 0,6.26776 -0.92371,1.93705 -2.86971,3.79411 -5.09551,4.86265 -4.2838,2.05652 -12.68133,2.63723 -17.02688,1.17746 z m -0.25334,-5.17986 c -0.53707,-1.4126 -0.71845,-3.94385 -0.40307,-5.625 0.65007,-3.46514 -0.23196,-3.82335 -3.299,-1.3398 -2.74244,2.22069 -1.92921,6.10192 1.69001,8.06568 1.41142,0.76584 2.66124,1.40931 2.77738,1.42995 0.11615,0.0206 -0.22825,-1.11823 -0.76532,-2.53083 z m 18.89305,-0.30178 c 2.38935,-2.38935 2.04847,-5.35875 -0.83381,-7.26338 -2.1724,-1.43554 -2.17952,-1.42681 -1.5548,1.90323 0.36438,1.94231 0.18457,4.17315 -0.42871,5.31908 -1.38716,2.59194 0.2427,2.61569 2.81732,0.0411 z m 51.67279,5.48164 c -8.36461,-2.80987 -11.0775,-9.86247 -5.71916,-14.86791 6.22938,-5.81911 17.60542,-6.13815 25.40141,-0.71239 5.30972,3.6954 3.89436,11.25782 -2.69952,14.42379 -4.24491,2.03814 -12.6536,2.61077 -16.98273,1.15651 z m -0.25334,-5.17986 c -0.53707,-1.4126 -0.71845,-3.94385 -0.40307,-5.625 0.65007,-3.46514 -0.23196,-3.82335 -3.299,-1.3398 -2.74244,2.22069 -1.92921,6.10192 1.69001,8.06568 1.41142,0.76584 2.66124,1.40931 2.77738,1.42995 0.11615,0.0206 -0.22825,-1.11823 -0.76532,-2.53083 z m 19.97666,-1.72319 c 0.76149,-1.6713 0.80692,-2.88285 0.1473,-3.92857 -1.78149,-2.82424 -2.69481,-2.10357 -2.69481,2.12638 0,4.7438 0.91295,5.38965 2.54751,1.80219 z"
         style="fill:#867b80" />
      <path
         inkscape:connector-curvature="0"
         id="path4160"
         d="m -150.15605,305.09033 c -6.62985,-13.42132 -16.19523,-23.28989 -30.19251,-31.14949 -3.60938,-2.0267 -8.67188,-4.37488 -11.25,-5.21817 -2.57813,-0.8433 -5.02573,-1.84075 -5.43912,-2.21653 -0.4134,-0.3758 -0.26286,-2.62434 0.33452,-4.99676 1.06918,-4.24607 1.22076,-4.37897 9.69934,-8.50355 10.01584,-4.87243 19.87041,-13.38099 25.82437,-22.29711 3.49659,-5.2362 3.79818,-6.1862 3.78134,-11.9113 -0.038,-12.8888 -3.61791,-33.07399 -9.0429,-50.98693 l -2.48435,-8.20312 -13.33668,0 -13.33669,0 -0.44803,-2.34375 -0.44804,-2.34375 12.52624,0 c 7.58922,0 12.52625,-0.36355 12.52625,-0.92241 0,-1.78904 -7.33743,-17.91322 -11.31528,-24.86559 -5.27185,-9.21402 -15.31685,-21.85975 -18.24981,-22.97486 -8.00988,-3.04536 -28.97919,-1.67328 -33.08369,2.16475 -3.85039,3.60042 -11.96253,14.93223 -16.28928,22.75441 -4.18898,7.5731 -10.12444,20.96368 -10.12444,22.84102 0,0.65783 3.98574,1.00268 11.58875,1.00268 l 11.58874,0 -0.44804,2.34375 -0.44803,2.34375 -12.3947,0 -12.39471,0 -2.9716,10.54943 c -4.67297,16.58939 -6.71052,28.2795 -7.31184,41.95057 l -0.5567,12.65625 3.91121,5.81755 c 5.71208,8.4962 15.77466,17.39056 24.7662,21.89097 l 7.6061,3.80698 1.49219,5.45121 1.4922,5.45122 -4.75676,1.52437 c -6.21088,1.99037 -16.51939,7.8366 -23.23926,13.1796 -6.67173,5.30473 -13.58069,13.93167 -18.25146,22.78987 -2.15608,4.08904 -4.17558,6.79078 -5.08053,6.79687 -5.33269,0.0359 -12.09176,-9.29781 -12.09176,-16.69772 0,-3.61943 -0.55307,-4.72817 -4.52806,-9.07744 -5.82701,-6.37569 -8.09638,-13.07334 -7.41804,-21.89313 0.27784,-3.61266 2.91617,-14.49502 6.28292,-25.91535 l 5.80394,-19.6875 -0.55487,-15.46875 c -0.30519,-8.50781 -0.16309,-28.125 0.31578,-43.59375 0.72805,-23.51848 1.18808,-29.32708 2.80873,-35.46428 8.12947,-30.785475 31.47207,-54.154557 62.60657,-62.67763 10.47068,-2.86635 31.2635,-2.840776 42.02678,0.05169 30.55821,8.212052 54.08762,31.727213 62.50306,62.46522 1.92551,7.0331 2.0868,10.12635 2.59066,49.6875 l 0.53732,42.1875 7.43253,19.6875 c 6.95235,18.41557 7.4367,20.17205 7.49698,27.1875 0.0921,10.70953 -3.83115,18.95356 -11.57272,24.31846 -3.63106,2.51633 -3.83266,2.9062 -3.85217,7.44967 -0.0221,5.15789 -2.35542,11.30944 -5.27194,13.89924 -2.80745,2.49294 -8.35325,4.49531 -12.25548,4.42496 -3.46945,-0.0625 -3.62229,-0.21888 -7.10323,-7.26562 z m -72.1612,-73.32277 c -3.78435,-0.95097 -8.18756,-3.46673 -8.18756,-4.67795 0,-0.40678 2.1139,0.0636 4.69756,1.04533 6.18997,2.35201 15.37583,2.34311 21.59746,-0.0209 5.48023,-2.08232 5.86394,-0.66135 0.56411,2.08901 -4.02904,2.09089 -13.43917,2.87938 -18.67157,1.56454 z m 2.03119,-24.44144 c -1.3125,-1.3125 -1.65625,-2.28125 -1.03125,-2.90625 0.98893,-0.98893 4.875,2.14981 4.875,3.9375 0,1.53713 -1.743,1.0695 -3.84375,-1.03125 z m -38.23161,-14.99481 c -4.69564,-1.43117 -7.2816,-3.41261 -8.59641,-6.58686 -0.97885,-2.36313 -0.9309,-3.34357 0.28849,-5.90068 2.05414,-4.30756 7.16077,-6.58667 14.75828,-6.58667 7.64562,0 12.70209,2.2748 14.79033,6.65389 1.36759,2.86787 1.36759,3.39989 0,6.26776 -0.9049,1.8976 -2.84782,3.7761 -4.9251,4.76185 -4.23568,2.00995 -12.08788,2.67927 -16.31559,1.39071 z m -1.24653,-6.23531 c -0.84243,-2.23183 -0.84332,-3.48625 -0.004,-5.3288 1.36169,-2.9886 -0.34469,-3.31829 -3.58678,-0.69301 -2.7465,2.22399 -1.92504,6.12259 1.69001,8.02067 1.41141,0.74108 2.66434,1.25127 2.78428,1.13376 0.11993,-0.11751 -0.27774,-1.52718 -0.88372,-3.13262 z m 19.00454,0.64122 c 2.38935,-2.38935 2.04847,-5.35875 -0.83381,-7.26338 -2.1724,-1.43554 -2.17952,-1.42681 -1.5548,1.90323 0.36438,1.94231 0.18457,4.17315 -0.42871,5.31908 -1.38716,2.59194 0.2427,2.61569 2.81732,0.0411 z m 52.55449,5.59409 c -4.69564,-1.43117 -7.2816,-3.41261 -8.59641,-6.58686 -0.97885,-2.36313 -0.9309,-3.34357 0.28849,-5.90068 2.05414,-4.30756 7.16077,-6.58667 14.75828,-6.58667 7.64562,0 12.70209,2.2748 14.79033,6.65389 1.36759,2.86787 1.36759,3.39989 0,6.26776 -0.90491,1.8976 -2.84782,3.7761 -4.9251,4.76185 -4.23568,2.00995 -12.08788,2.67927 -16.31559,1.39071 z m -1.24653,-6.23531 c -0.84243,-2.23183 -0.84332,-3.48625 -0.004,-5.3288 1.36169,-2.9886 -0.34469,-3.31829 -3.58678,-0.69301 -2.7465,2.22399 -1.92504,6.12259 1.69001,8.02067 1.41141,0.74108 2.66434,1.25127 2.78428,1.13376 0.11993,-0.11751 -0.27774,-1.52718 -0.88372,-3.13262 z m 20.44676,-1.68411 c 0.33219,-1.32357 0.085,-2.93066 -0.57248,-3.72295 -1.82957,-2.20449 -2.80304,-1.63169 -2.21592,1.3039 0.29678,1.48388 0.0433,3.62519 -0.56315,4.75846 -1.02042,1.90666 -0.95829,1.98318 0.83215,1.02497 1.06419,-0.56954 2.19792,-2.08351 2.5194,-3.36438 z"
         style="fill:#89726b" />
      <path
         inkscape:connector-curvature="0"
         id="path4158"
         d="m -150.15605,305.16992 c -4.46828,-9.14544 -11.17952,-17.6204 -18.72122,-23.64113 -6.24847,-4.98831 -23.05092,-14.10892 -25.99217,-14.10892 -2.58649,0 -2.84995,-1.00734 -1.57279,-6.01378 1.09298,-4.28445 1.39888,-4.59498 6.74429,-6.84626 3.07966,-1.29704 7.73179,-3.772 10.33807,-5.49992 5.72628,-3.79643 16.00878,-14.2973 19.61861,-20.03524 2.61566,-4.15767 2.62491,-4.22933 2.05596,-15.9375 -0.63508,-13.06899 -3.47099,-28.17724 -8.14679,-43.40168 l -3.09525,-10.07812 -13.33569,0 -13.3357,0 -0.44803,-2.34375 -0.44804,-2.34375 12.95943,0 12.95944,0 -3.26536,-7.62903 c -5.46406,-12.76595 -10.41605,-21.55927 -17.05189,-30.27931 -9.42695,-12.38776 -9.14875,-12.24841 -24.446,-12.2453 -15.34325,0.003 -16.33727,0.38384 -23.56262,9.02484 -6.98325,8.35147 -13.17308,18.8785 -18.25759,31.05067 l -4.2098,10.07813 12.02094,0 12.02093,0 -0.44804,2.34375 -0.44803,2.34375 -12.54696,0 c -6.90083,0 -12.54696,0.20214 -12.54696,0.44921 0,0.24707 -1.24393,4.78223 -2.76428,10.07813 -3.89776,13.57714 -6.3364,26.47379 -7.60952,40.2427 -1.07825,11.66134 -1.05917,11.9413 1.11769,16.40625 1.30208,2.67068 5.88672,8.23262 11.12601,13.49776 7.37587,7.41225 10.22807,9.58194 16.55313,12.59212 7.10615,3.38193 7.68109,3.87133 8.20263,6.98221 0.30846,1.83995 0.79325,4.18912 1.07731,5.22037 0.4308,1.56392 -0.26236,2.15122 -4.17792,3.53986 -6.10566,2.16535 -16.04955,7.96614 -22.7888,13.29391 -6.6558,5.26178 -13.5685,13.88416 -18.25146,22.7655 -2.02873,3.84752 -4.19482,6.79114 -5.00154,6.79687 -2.75713,0.0196 -8.24299,-4.6557 -10.1955,-8.68906 -1.08639,-2.24417 -1.97525,-5.90385 -1.97525,-8.1326 0,-3.41243 -0.58163,-4.68328 -3.6834,-8.04832 -5.54505,-6.01566 -7.80122,-11.12767 -8.25922,-18.71366 -0.35607,-5.89785 0.1941,-8.60393 5.43222,-26.71875 l 5.82841,-20.15625 0.30706,-40.4931 c 0.38558,-50.84797 1.28146,-57.5602 9.98625,-74.8194 21.23117,-42.095635 72.95988,-59.160556 115.07618,-37.962788 22.31253,11.230231 38.21088,30.833168 44.80631,55.246928 2.38374,8.82369 2.43143,9.63483 3.00714,51.15336 l 0.58498,42.1875 7.2736,19.21875 c 4.47489,11.8238 7.47264,21.22869 7.79085,24.4424 0.9635,9.73019 -4.21668,21.32655 -11.90758,26.65634 -3.5286,2.44533 -3.7428,2.86461 -3.7428,7.32652 0,10.05513 -6.6762,17.52543 -16.2283,18.15859 l -4.86545,0.32251 -3.55749,-7.28131 z m -72.38001,-73.64559 c -4.68769,-1.41969 -7.96875,-3.26183 -7.96875,-4.47402 0,-0.51073 1.37109,-0.17947 3.04687,0.73611 2.34368,1.28049 5.21058,1.6647 12.42188,1.6647 7.2113,0 10.0782,-0.38421 12.42187,-1.6647 1.67579,-0.91558 3.04688,-1.24057 3.04688,-0.72218 0,0.51839 -1.78056,1.85089 -3.9568,2.96114 -4.73172,2.41393 -13.66509,3.11826 -19.01195,1.49895 z m 2.2331,-24.21511 c -1.47133,-1.47133 -1.6855,-2.17118 -0.82685,-2.70185 1.20118,-0.74237 4.6875,2.04668 4.6875,3.75 0,1.54124 -1.74503,1.06747 -3.86065,-1.04815 z m -37.53688,-14.86562 c -10.86701,-3.28293 -13.22492,-11.90486 -4.58387,-16.76141 7.69937,-4.32729 17.60469,-3.38903 23.1904,2.19668 3.91323,3.91323 3.91629,6.41571 0.0127,10.31936 -4.48532,4.48532 -12.08729,6.21865 -18.61917,4.24537 z m -1.92436,-6.3476 c -0.84243,-2.23183 -0.84332,-3.48625 -0.004,-5.3288 1.36169,-2.9886 -0.34469,-3.31829 -3.58678,-0.69301 -2.7465,2.22399 -1.92504,6.12259 1.69001,8.02067 1.41141,0.74108 2.66434,1.25127 2.78428,1.13376 0.11993,-0.11751 -0.27774,-1.52718 -0.88372,-3.13262 z m 19.00454,0.64122 c 2.38935,-2.38935 2.04847,-5.35875 -0.83381,-7.26338 -2.1724,-1.43554 -2.17952,-1.42681 -1.5548,1.90323 0.36438,1.94231 0.18457,4.17315 -0.42871,5.31908 -1.38716,2.59194 0.2427,2.61569 2.81732,0.0411 z m 53.23232,5.70638 c -15.78933,-4.76996 -11.44932,-19.2213 5.77253,-19.2213 9.75338,0 17.37378,5.69537 15.50376,11.58728 -1.91967,6.04831 -13.1669,10.08386 -21.27629,7.63402 z m -1.92436,-6.3476 c -0.84243,-2.23183 -0.84332,-3.48625 -0.004,-5.3288 1.36169,-2.9886 -0.34469,-3.31829 -3.58678,-0.69301 -2.7465,2.22399 -1.92504,6.12259 1.69001,8.02067 1.41141,0.74108 2.66434,1.25127 2.78428,1.13376 0.11993,-0.11751 -0.27774,-1.52718 -0.88372,-3.13262 z m 20.44676,-1.68411 c 0.33219,-1.32357 0.085,-2.93066 -0.57248,-3.72295 -1.82957,-2.20449 -2.80304,-1.63169 -2.21592,1.3039 0.29678,1.48388 0.0433,3.62519 -0.56315,4.75846 -1.02042,1.90666 -0.95829,1.98318 0.83215,1.02497 1.06419,-0.56954 2.19792,-2.08351 2.5194,-3.36438 z"
         style="fill:#676a71" />
      <path
         inkscape:connector-curvature="0"
         id="path4156"
         d="m -148.97792,306.6822 c -5.99339,-11.95708 -14.4088,-21.8532 -24.33939,-28.62195 -6.03026,-4.11026 -16.8737,-9.56199 -20.43563,-10.27438 -1.67249,-0.3345 -3.21938,-0.89699 -3.43754,-1.24998 -0.21816,-0.35299 0.11394,-2.64329 0.73799,-5.08957 1.07036,-4.19579 1.42718,-4.56669 6.29795,-6.54632 11.10935,-4.51517 22.41663,-13.91149 29.39841,-24.42999 l 3.64794,-5.49586 -0.57456,-11.82402 c -0.9599,-19.75368 -6.06918,-40.53371 -16.45191,-66.91178 -4.41573,-11.21849 -14.35058,-27.4977 -21.78888,-35.70318 -3.25864,-3.59475 -4.98844,-4.70507 -8.33127,-5.34767 -5.73883,-1.10318 -16.48055,-1.08913 -22.60642,0.0295 -4.36237,0.79665 -5.67863,1.59432 -9.66873,5.85938 -2.54039,2.71545 -6.89352,8.4212 -9.6736,12.67946 -13.55481,20.7619 -24.64359,55.7153 -27.49611,86.67163 -1.06497,11.55736 -1.03594,12.03265 0.97017,15.88147 5.62822,10.79795 17.24708,21.67108 29.24271,27.36578 5.62201,2.66895 6.29853,3.29031 6.79958,6.24509 0.30602,1.80469 0.797,4.15487 1.09106,5.22264 0.45014,1.6345 -0.0957,2.13024 -3.45317,3.13616 -8.34661,2.50071 -22.32659,11.47266 -29.57016,18.97732 -5.14786,5.33339 -10.9004,13.76541 -13.82458,20.26394 -2.00992,4.4667 -3.22095,4.7889 -7.66846,2.04018 -4.3764,-2.70476 -6.99491,-7.43197 -7.62414,-13.76391 -0.45837,-4.61271 -1.08107,-6.00349 -4.2363,-9.46164 -4.79822,-5.25888 -7.41341,-11.30134 -7.98769,-18.45573 -0.40673,-5.06692 0.28725,-8.35735 5.84499,-27.71364 l 6.30651,-21.96404 -0.56579,-15.46875 c -0.81965,-22.40901 0.81407,-69.24536 2.68152,-76.875 6.8776,-28.099212 25.79873,-50.31174 51.90719,-60.936655 20.18797,-8.215554 43.87487,-8.215554 64.06284,0 21.8304,8.883945 39.95597,27.24745 48.09869,48.730085 5.28984,13.95597 5.418,15.23662 6.0535,60.48782 l 0.59246,42.1875 7.42298,19.6875 c 6.85113,18.1708 7.4237,20.22918 7.43217,26.71875 0.007,5.64988 -0.47158,8.04425 -2.43794,12.1875 -2.45161,5.16572 -6.52189,10.07069 -10.54366,12.70585 -1.75986,1.15311 -2.23391,2.49029 -2.62937,7.41687 -0.81723,10.18103 -6.07247,15.94213 -15.56818,17.06675 l -4.6772,0.55395 -2.99798,-5.98109 z m -71.30536,-74.86499 c -4.31671,-0.76462 -10.75598,-3.55039 -9.98614,-4.32022 0.2253,-0.2253 2.21598,0.22768 4.42374,1.00662 2.20776,0.77895 7.07209,1.41626 10.80962,1.41626 3.73753,0 8.60186,-0.63731 10.80962,-1.41626 5.39436,-1.90324 5.9905,-0.93778 0.81964,1.32741 -5.15348,2.25757 -11.27624,2.97816 -16.87648,1.98619 z m 0.11133,-24.57958 c -1.43811,-1.33981 -1.80778,-2.1907 -1.06002,-2.43996 1.21427,-0.40475 4.78966,2.36096 4.78966,3.705 0,1.36022 -1.43372,0.87393 -3.72964,-1.26504 z m -36.58286,-14.74204 c -12.02843,-2.44166 -14.41499,-12.38919 -4.23529,-17.65332 1.68654,-0.87214 5.23556,-1.44814 8.92279,-1.44814 18.69571,0 21.19499,17.12834 2.8125,19.2749 -2.32031,0.27095 -5.69531,0.1929 -7.5,-0.17344 z m -2.49784,-5.72792 c -1.08696,-2.17887 -1.19067,-3.48785 -0.44566,-5.625 1.12872,-3.23786 -0.0349,-3.69023 -3.4104,-1.32589 -2.82489,1.97863 -2.65358,5.45615 0.38658,7.84755 3.75383,2.95276 5.20299,2.57823 3.46948,-0.89666 z m 18.66971,0.20805 c 2.26759,-1.94738 2.05331,-5.41048 -0.44297,-7.15894 -2.97508,-2.08382 -3.63035,-1.81542 -2.54395,1.04202 0.64747,1.70297 0.64006,3.3935 -0.0232,5.29614 -0.53583,1.5371 -0.97424,2.9676 -0.97424,3.1789 0,0.52807 2.00623,-0.65931 3.98438,-2.35812 z m 54.14063,5.51987 c -12.02843,-2.44166 -14.41499,-12.38919 -4.23529,-17.65332 1.68654,-0.87214 5.23556,-1.44814 8.92279,-1.44814 18.69571,0 21.19499,17.12834 2.8125,19.2749 -2.32031,0.27095 -5.69531,0.1929 -7.5,-0.17344 z m -2.49784,-5.72792 c -1.08696,-2.17887 -1.19067,-3.48785 -0.44566,-5.625 1.12872,-3.23786 -0.0349,-3.69023 -3.4104,-1.32589 -2.82489,1.97863 -2.65358,5.45615 0.38658,7.84755 3.75383,2.95276 5.20299,2.57823 3.46948,-0.89666 z m 18.83412,0.10452 c 2.09099,-2.31053 1.59148,-5.57032 -1.12902,-7.36786 -2.10161,-1.38862 -2.12014,-1.36867 -1.13513,1.22211 0.67631,1.77885 0.70095,3.49555 0.0758,5.28861 -1.07143,3.07352 -0.14569,3.43613 2.18828,0.85714 z"
         style="fill:#434a52" />
      <path
         inkscape:connector-curvature="0"
         id="path4154"
         d="m -148.35659,307.25571 c -8.03909,-17.55968 -25.68965,-33.18325 -44.41288,-39.31248 -5.35144,-1.75184 -5.12897,-1.12365 -3.11027,-8.78272 0.40372,-1.5317 2.08086,-2.77934 5.72965,-4.26232 11.10486,-4.51335 22.41328,-13.91133 29.39396,-24.42818 l 3.64794,-5.49586 -0.57456,-11.82402 c -1.7245,-35.48821 -18.71178,-81.07173 -38.24079,-102.61496 -3.25864,-3.59475 -4.98844,-4.70507 -8.33127,-5.34767 -5.73883,-1.10318 -16.48055,-1.08913 -22.60642,0.0295 -4.36237,0.79665 -5.67863,1.59432 -9.66873,5.85938 -18.25518,19.51312 -33.58982,60.50114 -37.16971,99.35109 -1.06497,11.55736 -1.03594,12.03265 0.97017,15.88147 5.62822,10.79795 17.24708,21.67108 29.24271,27.36578 5.62201,2.66895 6.29853,3.29031 6.79958,6.24509 0.30602,1.80469 0.797,4.15487 1.09106,5.22264 0.45105,1.6378 -0.0986,2.13076 -3.51513,3.15245 -9.70995,2.90375 -21.4949,10.563 -29.98929,19.49058 -5.79199,6.08738 -12.26603,15.53218 -14.07413,20.53239 -1.34479,3.71895 -1.73977,3.79184 -6.38882,1.17892 -4.40592,-2.47627 -7.41325,-7.69848 -8.14898,-14.1507 -0.46128,-4.04534 -1.24556,-5.70348 -4.26234,-9.01159 -5.77639,-6.33419 -7.72688,-11.49123 -7.68575,-20.32094 0.0298,-6.39446 0.9076,-10.47114 5.95513,-27.65625 l 5.92021,-20.15625 -0.55142,-15 c -0.77073,-20.96577 0.86125,-68.65646 2.62647,-76.75216 6.92522,-31.760586 31.2868,-57.006327 62.92424,-65.207977 7.61837,-1.974975 20.80985,-2.785977 30.00845,-1.844895 40.68074,4.16193 72.08198,35.765165 76.29108,76.781862 0.5399,5.26108 0.98162,24.90109 0.98162,43.64449 l 0,34.0789 7.62461,20.8999 c 6.98035,19.13388 7.62867,21.50299 7.6727,28.03739 0.0617,9.16252 -2.90153,15.6778 -10.0675,22.13538 -4.665,4.20382 -5.00063,4.80513 -5.49831,9.85084 -0.98344,9.97046 -6.50564,15.95141 -15.91924,17.24169 l -4.19814,0.57542 -2.4659,-5.38625 z"
         style="fill:#4b423a" />
      <path
         inkscape:connector-curvature="0"
         id="path4152"
         d="m -149.87981,304.26386 c -3.36469,-6.58002 -6.02178,-10.07512 -13.125,-17.26443 -9.55764,-9.67349 -17.78135,-15.00408 -28.89106,-18.72715 -4.73637,-1.58723 -5.79987,-2.2937 -5.31086,-3.52791 0.33629,-0.84879 0.83706,-2.88587 1.11283,-4.52686 0.43311,-2.57735 1.19663,-3.26579 5.60737,-5.05598 11.32425,-4.59618 21.44119,-12.67681 28.55879,-22.81056 l 4.54793,-6.47516 0,-9.13481 c 0,-34.3709 -19.97521,-88.44024 -39.81002,-107.75863 l -4.33152,-4.21875 -13.78861,0 c -10.52243,0 -14.37971,0.3331 -16.28408,1.40625 -3.0757,1.73321 -11.64808,12.10447 -16.20403,19.60438 -13.77473,22.67566 -24.64682,59.18452 -26.40735,88.67687 l -0.55963,9.375 3.82576,5.85525 c 2.10416,3.22038 5.59041,7.76967 7.74721,10.10952 4.6093,5.0005 15.74996,12.67153 21.70677,14.94646 3.70226,1.41391 4.25616,2.00378 4.72579,5.0327 0.29259,1.88709 0.79434,4.30469 1.11501,5.37245 0.49633,1.65271 -0.0191,2.11848 -3.46677,3.13243 -2.22737,0.65507 -7.42478,2.94552 -11.54978,5.08987 -10.65549,5.53918 -24.62671,19.54878 -30.29998,30.38319 -2.22748,4.25391 -4.37995,7.73438 -4.78323,7.73438 -1.64095,0 -7.19229,-4.46016 -9.12981,-7.33524 -1.16862,-1.73412 -2.35459,-5.39882 -2.72332,-8.41519 -0.5439,-4.44928 -1.27405,-6.02164 -4.36384,-9.39738 -4.81225,-5.25761 -7.43432,-11.3143 -7.96077,-18.38857 -0.36618,-4.9204 0.3628,-8.38519 5.43636,-25.83862 l 5.85923,-20.15625 0.24638,-37.29504 c 0.27463,-41.56657 1.19279,-54.36946 4.70779,-65.64569 10.20376,-32.733861 38.82213,-56.123786 72.94014,-59.614302 27.11102,-2.773652 53.6337,7.131731 71.88707,26.847554 10.09938,10.908534 16.15242,22.085848 20.2235,37.343988 2.46775,9.2489 2.48379,9.52936 2.86525,50.08224 l 0.38362,40.78125 7.54961,20.625 c 6.89994,18.85013 7.55452,21.23921 7.60662,27.76251 0.0732,9.15977 -2.88533,15.67094 -10.05774,22.13537 -4.65154,4.19239 -5.00689,4.82621 -5.58756,9.96633 -1.17017,10.35822 -5.96828,15.5792 -15.59292,16.96717 l -4.2064,0.60661 -4.21875,-8.25025 z"
         style="fill:#433a35" />
      <path
         inkscape:connector-curvature="0"
         id="path4150"
         d="m -149.3251,305.33359 c -8.86525,-17.4098 -25.31993,-31.64059 -43.2724,-37.42403 l -4.74895,-1.52988 0.92827,-4.53149 c 0.8882,-4.33592 1.14575,-4.62164 5.96743,-6.62011 11.97071,-4.96158 23.39112,-14.46621 30.14666,-25.08954 3.01569,-4.74225 3.13444,-5.27883 3.00221,-13.56448 -0.35567,-22.28528 -9.60997,-57.39976 -21.20529,-80.46126 -4.47031,-8.89082 -13.66638,-22.24482 -18.68306,-27.13043 l -4.33193,-4.21875 -13.78819,0 c -10.54099,0 -14.3659,0.33118 -16.24116,1.40625 -2.92804,1.67862 -8.86965,8.45071 -13.84526,15.78047 -14.5118,21.37786 -27.01921,61.30533 -28.78975,91.90562 l -0.57687,9.97016 3.93873,6.09375 c 2.16631,3.35156 5.6909,7.93963 7.83242,10.19572 4.47344,4.71272 15.42852,12.20448 21.54685,14.73505 3.79493,1.56959 4.22752,2.08013 4.7032,5.55066 0.28814,2.10215 0.79987,4.5413 1.13718,5.42033 0.44682,1.16437 0.12412,1.59824 -1.18872,1.59824 -3.07538,0 -19.38212,8.72702 -25.45531,13.62315 -7.34877,5.92447 -13.93346,14.01315 -18.89372,23.20913 -2.14495,3.97662 -4.22276,7.23022 -4.61734,7.23022 -1.62736,0 -7.18522,-4.47316 -9.11398,-7.33524 -1.1614,-1.72341 -2.36148,-5.41745 -2.73385,-8.41519 -0.54725,-4.40565 -1.31878,-6.08364 -4.39661,-9.56207 -4.65586,-5.26184 -7.14563,-10.91125 -7.87216,-17.86237 -0.49754,-4.76025 0.16887,-7.95891 5.78012,-27.74349 l 6.34249,-22.36289 -0.55943,-14.53125 c -0.30769,-7.99219 -0.1643,-27.1875 0.31865,-42.65625 0.96117,-30.78659 1.92193,-37.2209 7.52319,-50.38367 20.43615,-48.024225 79.75387,-66.335669 124.57628,-38.456822 18.87861,11.742205 32.96634,31.941552 38.09512,54.621742 1.32024,5.83826 1.65759,13.87107 1.98829,47.34375 l 0.39828,40.3125 6.94778,19.21875 c 8.50864,23.53632 9.41348,27.37854 8.00327,33.98437 -1.6021,7.50475 -4.40534,12.44667 -9.83755,17.34297 -4.62306,4.16696 -4.98137,4.80755 -5.56153,9.94312 -1.16982,10.355 -5.95857,15.56811 -15.59292,16.97468 l -4.2064,0.61412 -3.66404,-7.19554 z"
         style="fill:#36302a" />
      <path
         inkscape:connector-curvature="0"
         id="path4148"
         d="m -149.18261,305.20499 c -8.29818,-17.24027 -24.62697,-31.2695 -43.41489,-37.30081 l -4.74895,-1.5245 0.92827,-4.53149 c 0.89556,-4.37184 1.11242,-4.6062 6.15519,-6.65177 11.7421,-4.76314 24.70257,-15.70089 30.66983,-25.88323 2.28702,-3.9025 2.50242,-5.08619 2.34045,-12.86132 -0.6217,-29.84262 -13.34151,-70.39113 -29.74231,-94.81325 -10.89873,-16.22909 -12.6129,-17.28089 -28.22927,-17.32138 -13.63926,-0.0353 -17.3087,1.09761 -22.18748,6.85058 -10.99333,12.96317 -18.63271,27.47281 -25.76908,48.94377 -6.84178,20.58462 -11.32234,43.58977 -11.36816,58.36894 -0.016,5.1874 0.38927,6.54153 3.33789,11.15099 6.86069,10.72497 18.70774,20.81172 29.59131,25.19447 3.99584,1.60911 4.39682,2.06743 4.87763,5.57531 0.28813,2.10215 0.75983,4.43699 1.04822,5.18852 0.37348,0.9733 -0.62529,1.71942 -3.47137,2.59326 -17.31094,5.31499 -34.19637,19.819 -42.49578,36.50241 -1.85966,3.73829 -3.57653,6.79688 -3.81526,6.79688 -1.23847,0 -5.7454,-2.90826 -7.48941,-4.8328 -3.04953,-3.36521 -4.005,-5.73529 -4.70164,-11.66256 -0.50485,-4.29548 -1.16762,-5.88679 -3.14473,-7.55041 -3.97315,-3.34318 -8.37247,-12.50767 -9.03165,-18.81434 -0.51813,-4.95723 0.0693,-7.84449 5.50297,-27.04789 l 6.08302,-21.49825 0.0615,-36.09375 c 0.0862,-50.52211 1.16749,-59.15332 9.59101,-76.5517 8.63509,-17.83536 21.83841,-31.038672 39.67377,-39.673761 15.20731,-7.362706 29.30808,-9.983893 45.0268,-8.370013 11.82232,1.213827 18.45687,3.107372 29.3266,8.370013 17.83536,8.635089 31.03868,21.838401 39.67377,39.673761 8.36076,17.26876 9.36062,25.03594 9.38328,72.8918 l 0.0162,34.30887 7.4008,20.53488 c 4.07043,11.2942 7.6884,22.29802 8.03994,24.45295 0.82987,5.08716 -1.50533,14.27855 -4.91904,19.36146 -1.42429,2.12071 -4.31098,5.13319 -6.41486,6.69441 -3.593,2.66624 -3.86009,3.19401 -4.39904,8.69277 -1.05315,10.74507 -5.85091,16.12062 -15.65764,17.54332 l -4.20641,0.61023 -3.52155,-7.31637 z"
         style="fill:#2b251e" />
    </g>
  </g>
</svg>
