<?xml version="1.0" encoding="UTF-8" standalone="no"?>
<!-- Created with Inkscape (http://www.inkscape.org/) -->

<svg
   xmlns:dc="http://purl.org/dc/elements/1.1/"
   xmlns:cc="http://creativecommons.org/ns#"
   xmlns:rdf="http://www.w3.org/1999/02/22-rdf-syntax-ns#"
   xmlns:svg="http://www.w3.org/2000/svg"
   xmlns="http://www.w3.org/2000/svg"
   xmlns:sodipodi="http://sodipodi.sourceforge.net/DTD/sodipodi-0.dtd"
   xmlns:inkscape="http://www.inkscape.org/namespaces/inkscape"
   id="svg4200"
   version="1.1"
   inkscape:version="0.91 r13725"
   width="362.8125"
   height="348.75"
   viewBox="0 0 362.8125 348.75"
   sodipodi:docname="Yozen.svg">
  <metadata
     id="metadata4206">
    <rdf:RDF>
      <cc:Work
         rdf:about="">
        <dc:format>image/svg+xml</dc:format>
        <dc:type
           rdf:resource="http://purl.org/dc/dcmitype/StillImage" />
        <dc:title></dc:title>
      </cc:Work>
    </rdf:RDF>
  </metadata>
  <defs
     id="defs4204" />
  <sodipodi:namedview
     pagecolor="#ffffff"
     bordercolor="#666666"
     borderopacity="1"
     objecttolerance="10"
     gridtolerance="10"
     guidetolerance="10"
     inkscape:pageopacity="0"
     inkscape:pageshadow="2"
     inkscape:window-width="1244"
     inkscape:window-height="744"
     id="namedview4202"
     showgrid="false"
     inkscape:zoom="0.47850093"
     inkscape:cx="-120.75833"
     inkscape:cy="174.375"
     inkscape:window-x="0"
     inkscape:window-y="0"
     inkscape:window-maximized="0"
     inkscape:current-layer="svg4200" />
  <g
     id="g4803"
     transform="translate(397.07342,-4.1797202)">
    <path
       inkscape:connector-curvature="0"
       id="path4801"
       d="m -231.07771,343.69442 c -44.09859,-3.37566 -85.73681,-24.7291 -114.03311,-58.47991 -34.34695,-40.96783 -47.21502,-96.99132 -34.06165,-148.29377 10.66634,-41.602261 36.98339,-77.857119 72.55929,-99.959015 9.5242,-5.917011 26.8001,-13.994185 37.17948,-17.382894 28.8204,-9.409421 63.58187,-10.5452511 92.991,-3.038476 59.81892,15.268975 105.344897,60.694051 120.647795,120.380385 2.77887,10.83853 3.625185,16.36089 4.526323,29.53531 3.65021,53.36465 -18.158137,104.97563 -58.632908,138.75895 -33.86303,28.26467 -76.74176,41.88078 -121.17622,38.47942 z m 37.15298,-3.21514 c 25.42643,-3.77385 47.05143,-12.15863 69.07968,-26.78464 14.18484,-9.41825 34.046031,-29.23454 43.483027,-43.3847 19.264679,-28.88617 28.289762,-58.40924 28.258273,-92.43918 -0.03147,-34.03823 -9.105212,-63.72038 -28.258273,-92.439171 -9.435062,-14.147279 -29.298437,-33.966629 -43.477147,-43.380783 -28.8449,-19.151985 -58.45681,-28.164138 -92.64452,-28.19564 -34.25819,-0.03157 -63.56291,8.886425 -92.63864,28.191715 -14.18484,9.418256 -34.04603,29.23454 -43.48302,43.384708 -19.20807,28.801261 -28.26717,58.423531 -28.2698,92.439171 -0.003,34.0845 9.01308,63.56497 28.2698,92.43918 9.43699,14.15016 29.29818,33.96645 43.48302,43.3847 21.79046,14.46812 44.27965,23.25016 68.62126,26.79666 12.04173,1.75444 35.7151,1.74846 47.57634,-0.012 z"
       style="fill:#e6e6e6" />
    <g
       id="g4788">
      <path
         inkscape:connector-curvature="0"
         id="path4772"
         d="m -241.92267,340.0984 c -27.71831,-4.27991 -50.50456,-13.90107 -73.96043,-31.2287 -61.73244,-45.6038 -82.82738,-130.64264 -49.82151,-200.84269 40.18198,-85.462894 145.03774,-119.296256 227.53681,-73.418333 63.02177,35.046551 95.5207,106.394763 80.80643,177.402603 -9.27555,44.76178 -37.56565,83.6414 -78.6238,108.05418 -30.42683,18.0915 -70.02072,25.57877 -105.9375,20.03294 z"
         style="fill:#ebe7c4" />
      <path
         inkscape:connector-curvature="0"
         id="path4770"
         d="m -229.73517,341.36956 c -15.77026,-1.89672 -20.17754,-2.59701 -26.71875,-4.24543 -7.26131,-1.8299 -18.32781,-5.50105 -26.44383,-8.77238 -3.68997,-1.48731 -3.90979,-1.78023 -3.41523,-4.55093 3.1857,-17.847 9.23247,-30.14474 20.62384,-41.94418 3.27634,-3.3937 5.70181,-6.42554 5.38993,-6.73741 -0.46354,-0.46356 3.6685,-14.55579 4.92402,-16.7932 0.19705,-0.35116 4.01643,0.59805 8.48751,2.10937 4.47108,1.51133 9.04184,2.74786 10.15724,2.74786 1.88874,0 1.95741,-0.22556 0.99994,-3.2846 -0.80021,-2.55664 -1.75615,-3.5144 -4.31324,-4.32149 -5.40972,-1.70745 -18.36542,-8.86037 -24.25055,-13.38887 -8.51233,-6.55009 -18.08014,-18.04968 -21.78755,-26.18656 -0.61895,-1.35847 -1.95174,-2.73222 -2.96174,-3.05278 -3.35935,-1.06622 -9.39482,-7.36089 -11.61079,-12.10945 -2.96744,-6.35886 -2.96824,-14.26285 -0.002,-20.625 1.20198,-2.57813 2.88536,-5.2665 3.74084,-5.97416 1.39659,-1.15527 1.55545,-4.75275 1.55545,-35.22363 0,-28.04482 0.24929,-34.65771 1.43582,-38.08833 3.3238,-9.610035 12.98929,-18.46184 22.66985,-20.76139 4.48681,-1.065807 4.86708,-1.378581 5.41718,-4.45563 1.57007,-8.782405 2.31643,-10.240636 6.4947,-12.689266 6.0555,-3.548758 15.15161,-5.116504 29.7938,-5.135062 33.64803,-0.04265 73.28568,10.427123 89.22699,23.56816 3.60778,2.974034 6.75174,8.533225 5.74612,10.160359 -0.28885,0.46737 1.4275,8.148018 3.8141,17.068099 2.38661,8.92009 4.56202,18.59417 4.83426,21.49796 0.53147,5.66912 -0.86237,13.01308 -3.62327,19.0904 -1.2004,2.64234 -1.71197,6.04751 -1.72647,11.4918 l -0.0206,7.73682 3.89711,3.51318 c 14.07113,12.6849 9.4166,35.73872 -8.50038,42.10226 -2.60425,0.92496 -4.95372,2.25171 -5.22105,2.94834 -1.00685,2.62383 -7.38999,11.60594 -11.48264,16.15795 -5.91063,6.57404 -14.18326,12.73186 -23.63052,17.58961 -8.28712,4.26122 -9.39872,5.18502 -9.42317,7.83131 -0.0121,1.30819 1.19542,1.04356 7.63955,-1.67422 4.20965,-1.77541 7.97031,-2.89648 8.35704,-2.49129 0.38673,0.4052 2.19469,4.45748 4.01769,9.00507 l 3.31454,8.26833 -2.76534,0.964 c -1.5211,0.5302 -2.7655,1.09861 -2.7655,1.26312 0,0.16452 2.77552,2.96432 6.16784,6.22178 10.06651,9.66637 16.90471,21.41204 20.46508,35.15196 0.82064,3.16697 1.49208,6.00833 1.49208,6.31413 0,1.89546 -24.60115,11.82975 -37.5,15.14303 -13.19345,3.38896 -41.67171,5.8627 -52.5,4.56036 z"
         style="fill:#eebcad" />
      <path
         inkscape:connector-curvature="0"
         id="path4768"
         d="m -229.73517,341.36956 c -15.77026,-1.89672 -20.17754,-2.59701 -26.71875,-4.24543 -7.26131,-1.8299 -18.32781,-5.50105 -26.44383,-8.77238 -3.68997,-1.48731 -3.90979,-1.78023 -3.41523,-4.55093 3.1857,-17.847 9.23247,-30.14474 20.62384,-41.94418 3.27634,-3.3937 5.70332,-6.42402 5.39329,-6.73405 -0.57916,-0.57916 0.40701,-4.08174 3.53902,-12.56947 l 1.78926,-4.84889 8.10457,2.73951 c 7.52709,2.54432 12.44033,3.42926 12.44033,2.24066 0,-0.27437 -0.57631,-1.87817 -1.28069,-3.56398 -1.00843,-2.41351 -2.15443,-3.3208 -5.39063,-4.26772 -9.95608,-2.91321 -25.01843,-12.79824 -32.95922,-21.63033 -4.38372,-4.87574 -10.12023,-13.04634 -11.93859,-17.00428 -0.56943,-1.23947 -3.00252,-3.5192 -5.40685,-5.06608 -11.53048,-7.41836 -14.63216,-23.18935 -6.83332,-34.74506 l 2.78635,-4.12857 0.27709,-34.93818 0.27711,-34.93819 3.19509,-5.892389 c 1.7573,-3.240815 4.62053,-7.143945 6.36273,-8.67362 3.9674,-3.483421 11.05225,-7.11366 15.51829,-7.951496 3.58854,-0.673214 3.52306,-0.55434 4.98095,-9.041996 1.11513,-6.492246 6.99884,-10.202707 19.21371,-12.116832 8.882,-1.391848 34.89091,-0.584167 46.35423,1.439486 36.18338,6.387556 63.77012,19.278353 64.35626,30.072547 0.0833,1.534117 2.01832,9.96118 4.30003,18.7268 2.28171,8.76563 4.38013,18.31332 4.66316,21.21711 0.56673,5.8146 -0.88973,13.42383 -3.60297,18.82366 -1.31171,2.61053 -1.74773,5.54859 -1.74773,11.77682 0,8.14082 0.0537,8.33823 2.82367,10.38618 9.54239,7.05499 11.87881,23.17077 4.84142,33.39427 -3.04905,4.42946 -8.83943,8.63943 -13.02433,9.46949 -2.31801,0.45978 -3.60032,1.60534 -5.54401,4.95279 -8.56975,14.75902 -22.09119,26.86378 -37.51203,33.58182 -4.56374,1.98819 -5.90721,3.04515 -6.26997,4.93287 -0.25392,1.32137 -0.36151,2.50476 -0.23907,2.62976 0.12243,0.125 3.77658,-1.21328 8.12034,-2.97393 4.34375,-1.76066 8.17793,-2.91762 8.5204,-2.57102 0.34247,0.3466 2.11421,4.35093 3.93721,8.89852 l 3.31454,8.26834 -2.76534,0.96399 c -1.52093,0.5302 -2.76533,1.14811 -2.76533,1.37313 0,0.22502 2.74155,2.97371 6.09233,6.1082 9.90475,9.2654 16.96139,21.34297 20.54059,35.15553 0.82064,3.16697 1.49208,6.00833 1.49208,6.31413 0,1.89546 -24.60115,11.82975 -37.5,15.14303 -13.19345,3.38896 -41.67171,5.8627 -52.5,4.56036 z m 36.09375,-103.04314 c 3.60937,-0.76273 7.61719,-2.17203 8.90625,-3.13177 7.82346,-5.82479 -4.73138,-11.35383 -25.78125,-11.35383 -21.06334,0 -33.59542,5.52458 -25.7757,11.36285 5.6226,4.19787 29.34411,5.93469 42.6507,3.12275 z m -38.90625,-7.48691 c 0,-1.20924 3.02083,-1.40625 21.5625,-1.40625 18.54167,0 21.5625,0.19701 21.5625,1.40625 0,1.20924 -3.02083,1.40625 -21.5625,1.40625 -18.54167,0 -21.5625,-0.19701 -21.5625,-1.40625 z"
         style="fill:#d6a99b" />
      <path
         inkscape:connector-curvature="0"
         id="path4766"
         d="m -229.73517,341.36956 c -15.77026,-1.89672 -20.17754,-2.59701 -26.71875,-4.24543 -7.26131,-1.8299 -18.32781,-5.50105 -26.44383,-8.77238 -3.68997,-1.48731 -3.90979,-1.78023 -3.41523,-4.55093 3.1857,-17.847 9.23247,-30.14474 20.62384,-41.94418 3.27634,-3.3937 5.68871,-6.43864 5.36082,-6.76653 -0.32789,-0.32789 0.76822,-4.37996 2.4358,-9.00462 l 3.03195,-8.40846 7.80017,2.75311 c 4.29008,1.51421 9.09955,2.75312 10.68769,2.75312 1.58815,0 2.88754,0.37043 2.88754,0.82319 0,0.45277 2.53125,1.76982 5.625,2.92681 4.4921,1.67993 5.625,2.51188 5.625,4.13071 0,1.21491 2.06646,4.06788 5.1576,7.12063 l 5.15761,5.09353 5.66533,-5.5943 c 3.28738,-3.24617 5.49906,-6.18458 5.26919,-7.00057 -0.21788,-0.77344 -0.55306,-1.96242 -0.74481,-2.64218 -0.38365,-1.35994 31.09598,-14.55839 32.07969,-13.45004 0.30434,0.34291 1.98066,4.14613 3.72514,8.4516 3.0527,7.53422 3.10613,7.87613 1.42307,9.10681 -0.9618,0.70328 -2.20527,1.43087 -2.76328,1.61688 -0.55801,0.186 1.82149,2.99118 5.28778,6.23372 10.11505,9.46214 17.14559,21.43978 20.7506,35.35199 0.82064,3.16697 1.49208,6.00833 1.49208,6.31413 0,1.89546 -24.60115,11.82975 -37.5,15.14303 -13.19345,3.38896 -41.67171,5.8627 -52.5,4.56036 z m -11.72971,-86.55927 c -13.48917,-4.80449 -26.29762,-13.93669 -35.52213,-25.32664 -4.92161,-6.07697 -10.48885,-14.84052 -9.81518,-15.45037 0.19155,-0.1734 1.7497,-0.10201 3.46257,0.15865 2.20667,0.33581 3.37033,1.14738 3.99284,2.78468 1.79321,4.71652 9.64559,15.76984 14.72828,20.73213 5.8862,5.74677 14.86525,11.79084 22.93021,15.43502 2.96484,1.33967 5.39062,2.67005 5.39062,2.95639 0,0.28633 -0.10547,0.48978 -0.23437,0.45211 -0.12891,-0.0377 -2.34869,-0.82156 -4.93284,-1.74197 z m 55.79221,-0.51794 c 0,-0.31887 1.58203,-1.2399 3.51562,-2.04673 5.84056,-2.4371 15.49256,-9.106 21.09338,-14.57414 5.15263,-5.03058 14.76562,-18.78603 14.76588,-21.12884 6e-5,-0.64454 0.59843,-1.17188 1.32969,-1.17188 0.73127,0 1.9969,-0.25607 2.8125,-0.56905 2.57635,-0.98864 1.66487,1.72412 -2.8312,8.42617 -7.6498,11.40319 -19.46072,21.80398 -31.77962,27.98544 -5.37838,2.69879 -8.90625,3.91843 -8.90625,3.07903 z m -46.64063,-23.21847 c 0.29696,-0.89085 5.41146,-1.17187 21.32813,-1.17187 15.91667,0 21.03117,0.28102 21.32812,1.17187 0.30501,0.91502 -4.36979,1.17188 -21.32812,1.17188 -16.95833,0 -21.63313,-0.25686 -21.32813,-1.17188 z m 10.94352,-21.25601 c -5.8029,-5.8029 -1.91791,-16.00961 6.09375,-16.00961 l 3.35336,0 0,-7.5 c 0,-5.88187 0.28952,-7.5 1.34192,-7.5 1.0516,0 1.40793,1.9775 1.64705,9.14062 0.16782,5.02735 0.0546,9.47271 -0.25176,9.87859 -0.30629,0.40588 -1.68027,0.31086 -3.0533,-0.21117 -5.27675,-2.00621 -10.10029,2.70587 -8.11502,7.92752 1.15263,3.03166 4.79222,4.46973 8.11502,3.2064 3.3741,-1.28283 5.35553,0.51605 2.71503,2.4649 -3.19575,2.35868 -8.74462,1.70418 -11.84605,-1.39725 z m -51.95914,-0.22195 c -4.20736,-1.55492 -5.28048,-2.71846 -4.96927,-5.38799 0.39862,-3.41941 4.5732,-5.24342 12.00052,-5.24342 7.94461,0 11.71875,1.81159 11.71875,5.625 0,2.16894 -0.62389,3.08968 -2.8125,4.15065 -3.58491,1.73784 -12.28647,2.20507 -15.9375,0.85576 z m 106.875,0 c -4.20736,-1.55492 -5.28048,-2.71846 -4.96927,-5.38799 0.39862,-3.41941 4.5732,-5.24342 12.00052,-5.24342 7.94461,0 11.71875,1.81159 11.71875,5.625 0,2.16894 -0.62389,3.08968 -2.8125,4.15065 -3.58491,1.73784 -12.28647,2.20507 -15.9375,0.85576 z m -121.97136,-7.28783 c -5.27034,-2.35961 -7.87239,-5.94373 -7.87239,-10.84358 0,-4.44933 2.32254,-8.11993 6.507,-10.28379 l 2.59144,-1.34009 0.58517,8.62443 c 0.32183,4.74345 1.00966,10.07307 1.52849,11.84361 0.51884,1.77053 0.83488,3.32761 0.70232,3.46017 -0.13256,0.13255 -1.95147,-0.52478 -4.04203,-1.46075 z m 147.24081,0.0733 c 1.12732,-3.55191 2.37601,-12.85279 2.38137,-17.73785 l 0.006,-4.94595 2.72972,1.41159 c 6.9844,3.61178 8.95515,12.02301 4.06715,17.35877 -1.41797,1.54786 -4.195,3.47318 -6.17119,4.27848 -3.46531,1.41212 -3.57241,1.39915 -3.01248,-0.36504 z m -115.67016,-13.85581 c -4.39661,-5.58939 -1.36316,-16.27982 4.61946,-16.27982 3.90551,0 6.5625,3.7957 6.5625,9.375 0,5.5793 -2.65699,9.375 -6.5625,9.375 -1.77474,0 -3.33101,-0.83219 -4.61946,-2.47018 z m 81.5625,0 c -4.39661,-5.58939 -1.36316,-16.27982 4.61946,-16.27982 3.90551,0 6.5625,3.7957 6.5625,9.375 0,5.5793 -2.65699,9.375 -6.5625,9.375 -1.77474,0 -3.33101,-0.83219 -4.61946,-2.47018 z m -120.04578,-49.79545 c 0.0217,-32.78319 0.0693,-33.62993 2.17412,-38.746417 4.13756,-10.057567 10.86792,-16.203075 21.17542,-19.33533 2.87208,-0.872768 5.33797,-1.654391 5.47978,-1.736941 0.14181,-0.08255 0.71337,-2.736218 1.27014,-5.897042 1.6188,-9.190124 5.90368,-12.054329 21.44078,-14.332004 8.52791,-1.250157 31.85617,-0.460195 43.125,1.460336 28.7388,4.897915 51.9223,13.403087 61.25298,22.471463 3.5783,3.477717 4.23452,4.709663 4.6026,8.640661 0.23611,2.521562 2.39019,12.134284 4.78685,21.361614 2.39667,9.22732 4.35757,18.1714 4.35757,19.87573 0,4.59146 -1.86491,12.55818 -3.86551,16.51308 -1.32935,2.62795 -1.75949,5.52173 -1.75949,11.83695 l 0,8.35866 -4.21875,-1.51705 c -4.04151,-1.45331 -4.21933,-1.67491 -4.23261,-5.27444 -0.0496,-13.44443 -9.27788,-33.16462 -21.00992,-44.89666 -9.75533,-9.75533 -9.59942,-9.69701 -40.5367,-15.16127 -30.22548,-5.33854 -29.07364,-5.319032 -40.15827,-0.68013 -17.30855,7.2436 -31.91573,21.89584 -39.27606,39.39717 -3.00516,7.14567 -5.22273,16.24277 -5.24133,21.50145 -0.0127,3.59718 -0.36312,4.15367 -4.27961,6.79688 -2.34616,1.58341 -4.45553,2.87892 -4.6875,2.87892 -0.23196,0 -0.41174,-15.08203 -0.39949,-33.51563 z m 55.29024,19.80059 c -5.71972,-1.8197 -17.41087,-2.60488 -22.1939,-1.49055 -2.69569,0.62803 -4.22654,0.59765 -4.92187,-0.0977 -3.6451,-3.6451 3.15068,-5.73431 16.48958,-5.06937 7.60835,0.37927 10.60886,0.96896 14.88,2.92435 4.54343,2.08005 5.17406,2.66121 4.18328,3.85504 -1.39227,1.67757 -2.84727,1.65657 -8.43709,-0.12179 z m 52.6875,-0.53496 c -1.8417,-1.8417 -1.33289,-2.63847 2.87294,-4.49891 10.56881,-4.67509 35.45318,-4.25857 32.76307,0.5484 -0.69079,1.23438 -3.03598,1.53652 -13.40849,1.72749 -8.97923,0.16531 -13.74342,0.6767 -16.67352,1.78974 -4.87884,1.85328 -4.1879,1.79938 -5.554,0.43328 z"
         style="fill:#dc929a" />
      <path
         inkscape:connector-curvature="0"
         id="path4764"
         d="m -229.73517,341.36956 c -15.77026,-1.89672 -20.17754,-2.59701 -26.71875,-4.24543 -7.26131,-1.8299 -18.32781,-5.50105 -26.44383,-8.77238 -3.68997,-1.48731 -3.90979,-1.78023 -3.41523,-4.55093 3.1857,-17.847 9.23247,-30.14474 20.62384,-41.94418 3.27634,-3.3937 5.68871,-6.43864 5.36082,-6.76653 -0.32789,-0.32789 0.76822,-4.37996 2.4358,-9.00462 l 3.03195,-8.40846 7.80017,2.75311 c 4.29008,1.51421 9.09955,2.75312 10.68769,2.75312 1.58815,0 2.88754,0.37043 2.88754,0.82319 0,0.45277 2.53125,1.76982 5.625,2.92681 4.4921,1.67993 5.625,2.51188 5.625,4.13071 0,1.21491 2.06646,4.06788 5.1576,7.12063 l 5.15761,5.09353 5.66533,-5.5943 c 3.28738,-3.24617 5.49906,-6.18458 5.26919,-7.00057 -0.21788,-0.77344 -0.55306,-1.96242 -0.74481,-2.64218 -0.38365,-1.35994 31.09598,-14.55839 32.07969,-13.45004 0.30434,0.34291 1.98066,4.14613 3.72514,8.4516 3.0527,7.53422 3.10613,7.87613 1.42307,9.10681 -0.9618,0.70328 -2.20527,1.43087 -2.76328,1.61688 -0.55801,0.186 1.82149,2.99118 5.28778,6.23372 10.11505,9.46214 17.14559,21.43978 20.7506,35.35199 0.82064,3.16697 1.49208,6.00833 1.49208,6.31413 0,1.89546 -24.60115,11.82975 -37.5,15.14303 -13.19345,3.38896 -41.67171,5.8627 -52.5,4.56036 z m -11.72971,-86.55927 c -13.48917,-4.80449 -26.29762,-13.93669 -35.52213,-25.32664 -4.92161,-6.07697 -10.48885,-14.84052 -9.81518,-15.45037 0.19155,-0.1734 1.7497,-0.10201 3.46257,0.15865 2.20667,0.33581 3.37033,1.14738 3.99284,2.78468 1.79321,4.71652 9.64559,15.76984 14.72828,20.73213 5.8862,5.74677 14.86525,11.79084 22.93021,15.43502 2.96484,1.33967 5.39062,2.67005 5.39062,2.95639 0,0.28633 -0.10547,0.48978 -0.23437,0.45211 -0.12891,-0.0377 -2.34869,-0.82156 -4.93284,-1.74197 z m 55.79221,-0.51794 c 0,-0.31887 1.58203,-1.2399 3.51562,-2.04673 5.84056,-2.4371 15.49256,-9.106 21.09338,-14.57414 5.15263,-5.03058 14.76562,-18.78603 14.76588,-21.12884 6e-5,-0.64454 0.59843,-1.17188 1.32969,-1.17188 0.73127,0 1.9969,-0.25607 2.8125,-0.56905 2.57635,-0.98864 1.66487,1.72412 -2.8312,8.42617 -7.6498,11.40319 -19.46072,21.80398 -31.77962,27.98544 -5.37838,2.69879 -8.90625,3.91843 -8.90625,3.07903 z m -46.64063,-23.21847 c 0.29696,-0.89085 5.41146,-1.17187 21.32813,-1.17187 15.91667,0 21.03117,0.28102 21.32812,1.17187 0.30501,0.91502 -4.36979,1.17188 -21.32812,1.17188 -16.95833,0 -21.63313,-0.25686 -21.32813,-1.17188 z m 10.94352,-21.25601 c -5.8029,-5.8029 -1.91791,-16.00961 6.09375,-16.00961 l 3.35336,0 0,-7.5 c 0,-5.88187 0.28952,-7.5 1.34192,-7.5 1.0516,0 1.40793,1.9775 1.64705,9.14062 0.16782,5.02735 0.0546,9.47271 -0.25176,9.87859 -0.30629,0.40588 -1.68027,0.31086 -3.0533,-0.21117 -5.27675,-2.00621 -10.10029,2.70587 -8.11502,7.92752 1.15263,3.03166 4.79222,4.46973 8.11502,3.2064 3.3741,-1.28283 5.35553,0.51605 2.71503,2.4649 -3.19575,2.35868 -8.74462,1.70418 -11.84605,-1.39725 z m -68.25149,-8.23765 c -5.86252,-2.88808 -8.20968,-9.58754 -5.31807,-15.1793 1.30388,-2.52141 5.16658,-5.71766 6.90986,-5.71766 0.45879,0 1.08868,4.11328 1.39976,9.14062 0.31107,5.02735 0.8435,10.08985 1.18316,11.25 0.73262,2.50234 0.046,2.58562 -4.17471,0.50634 z m 149.29486,-0.3996 c 0.34141,-1.21886 0.88878,-6.32939 1.21636,-11.35674 0.3276,-5.02734 0.96861,-9.14062 1.42448,-9.14062 1.73861,0 5.60244,3.19963 6.90457,5.71766 3.403,6.58068 -0.11601,13.81693 -7.91955,16.2852 -2.02653,0.641 -2.18581,0.49351 -1.62586,-1.5055 z m -116.52822,-12.65504 c -4.39661,-5.58939 -1.36316,-16.27982 4.61946,-16.27982 3.90551,0 6.5625,3.7957 6.5625,9.375 0,5.5793 -2.65699,9.375 -6.5625,9.375 -1.77474,0 -3.33101,-0.83219 -4.61946,-2.47018 z m 81.5625,0 c -4.39661,-5.58939 -1.36316,-16.27982 4.61946,-16.27982 3.90551,0 6.5625,3.7957 6.5625,9.375 0,5.5793 -2.65699,9.375 -6.5625,9.375 -1.77474,0 -3.33101,-0.83219 -4.61946,-2.47018 z m -120.04578,-49.79545 c 0.0217,-32.78319 0.0693,-33.62993 2.17412,-38.746417 4.13756,-10.057567 10.86792,-16.203075 21.17542,-19.33533 2.87208,-0.872768 5.33797,-1.654391 5.47978,-1.736941 0.14181,-0.08255 0.71337,-2.736218 1.27014,-5.897042 1.6188,-9.190124 5.90368,-12.054329 21.44078,-14.332004 8.52791,-1.250157 31.85617,-0.460195 43.125,1.460336 28.7388,4.897915 51.9223,13.403087 61.25298,22.471463 3.5783,3.477717 4.23452,4.709663 4.6026,8.640661 0.23611,2.521562 2.39019,12.134284 4.78685,21.361614 2.39667,9.22732 4.35757,18.1714 4.35757,19.87573 0,4.59146 -1.86491,12.55818 -3.86551,16.51308 -1.32935,2.62795 -1.75949,5.52173 -1.75949,11.83695 l 0,8.35866 -4.21875,-1.51705 c -4.04151,-1.45331 -4.21933,-1.67491 -4.23261,-5.27444 -0.0496,-13.44443 -9.27788,-33.16462 -21.00992,-44.89666 -9.75533,-9.75533 -9.59942,-9.69701 -40.5367,-15.16127 -30.22548,-5.33854 -29.07364,-5.319032 -40.15827,-0.68013 -17.30855,7.2436 -31.91573,21.89584 -39.27606,39.39717 -3.00516,7.14567 -5.22273,16.24277 -5.24133,21.50145 -0.0127,3.59718 -0.36312,4.15367 -4.27961,6.79688 -2.34616,1.58341 -4.45553,2.87892 -4.6875,2.87892 -0.23196,0 -0.41174,-15.08203 -0.39949,-33.51563 z m 55.29024,19.80059 c -5.71972,-1.8197 -17.41087,-2.60488 -22.1939,-1.49055 -2.69569,0.62803 -4.22654,0.59765 -4.92187,-0.0977 -3.6451,-3.6451 3.15068,-5.73431 16.48958,-5.06937 7.60835,0.37927 10.60886,0.96896 14.88,2.92435 4.54343,2.08005 5.17406,2.66121 4.18328,3.85504 -1.39227,1.67757 -2.84727,1.65657 -8.43709,-0.12179 z m 52.6875,-0.53496 c -1.8417,-1.8417 -1.33289,-2.63847 2.87294,-4.49891 10.56881,-4.67509 35.45318,-4.25857 32.76307,0.5484 -0.69079,1.23438 -3.03598,1.53652 -13.40849,1.72749 -8.97923,0.16531 -13.74342,0.6767 -16.67352,1.78974 -4.87884,1.85328 -4.1879,1.79938 -5.554,0.43328 z"
         style="fill:#8fa9c0" />
      <path
         inkscape:connector-curvature="0"
         id="path4762"
         d="m -212.86017,313.07311 0,-28.86015 -4.95136,-4.88985 c -2.72324,-2.68942 -5.18771,-4.88985 -5.4766,-4.88985 -0.28888,0 -1.05498,1.76807 -1.70242,3.92903 -0.64744,2.16097 -1.54393,4.8937 -1.9922,6.07274 l -0.81503,2.14368 -16.15968,-5.6387 c -8.88783,-3.1013 -16.34134,-5.82037 -16.56335,-6.04239 -0.22201,-0.22202 0.96138,-4.18933 2.62977,-8.81626 l 3.03345,-8.41259 10.92058,3.77242 c 22.3195,7.71005 21.70184,7.43618 21.70184,9.62278 0,1.21491 2.06646,4.06788 5.1576,7.12063 l 5.15761,5.09353 5.66533,-5.5943 c 3.28738,-3.24617 5.49906,-6.18458 5.26919,-7.00057 -0.21788,-0.77344 -0.55306,-1.96242 -0.74481,-2.64218 -0.38365,-1.35994 31.09598,-14.55839 32.07969,-13.45004 0.30434,0.34291 1.96543,4.10925 3.69131,8.36966 2.09291,5.16646 2.8256,8.05854 2.20003,8.68411 -1.23717,1.23717 -30.65499,13.02225 -31.38377,12.57266 -0.31023,-0.19139 -1.32005,-2.36566 -2.24403,-4.83172 -0.92398,-2.46606 -1.84075,-4.66996 -2.03726,-4.89756 -0.1965,-0.2276 -2.66716,1.86737 -5.49033,4.65547 l -5.13306,5.0693 0,28.86015 c 0,25.02847 -0.1867,28.86015 -1.40625,28.86015 -1.21955,0 -1.40625,-3.83168 -1.40625,-28.86015 z m -13.14466,-36.12161 c 1.14806,-3.51341 1.92412,-6.55129 1.72455,-6.75085 -0.19956,-0.19955 -6.96073,-2.67477 -15.02482,-5.50047 l -14.66199,-5.13764 -2.54906,6.98908 c -1.40199,3.84401 -2.37128,7.16689 -2.15396,7.38419 1.03107,1.03108 29.47709,10.51008 29.99079,9.99377 0.3229,-0.32453 1.52643,-3.46468 2.67449,-6.97808 z m 50.40841,-1.58074 c 5.79527,-2.32031 10.53953,-4.68197 10.5428,-5.24813 0.0155,-2.68234 -5.47967,-13.94811 -6.67163,-13.67764 -1.45224,0.32952 -27.31093,10.64081 -27.95536,11.14734 -0.45028,0.35393 1.11467,5.00314 3.80092,11.29185 l 1.701,3.98217 4.02271,-1.63842 c 2.21249,-0.90113 8.76429,-3.53686 14.55956,-5.85717 z m -65.86846,-20.56047 c -13.48917,-4.80449 -26.29762,-13.93669 -35.52213,-25.32664 -4.92161,-6.07697 -10.48885,-14.84052 -9.81518,-15.45037 0.19155,-0.1734 1.7497,-0.10201 3.46257,0.15865 2.20667,0.33581 3.37033,1.14738 3.99284,2.78468 1.79321,4.71652 9.64559,15.76984 14.72828,20.73213 5.8862,5.74677 14.86525,11.79084 22.9302,15.43502 2.96485,1.33967 5.39063,2.67005 5.39063,2.95639 0,0.28633 -0.10547,0.48978 -0.23438,0.45211 -0.1289,-0.0377 -2.34868,-0.82156 -4.93283,-1.74197 z m 55.79221,-0.51794 c 0,-0.31887 1.58203,-1.2399 3.51562,-2.04673 5.84056,-2.4371 15.49256,-9.106 21.09338,-14.57414 5.15263,-5.03058 14.76562,-18.78603 14.76588,-21.12884 6e-5,-0.64454 0.59843,-1.17188 1.32969,-1.17188 0.73127,0 1.9969,-0.25607 2.8125,-0.56905 2.57635,-0.98864 1.66487,1.72412 -2.8312,8.42617 -7.6498,11.40319 -19.46072,21.80398 -31.77962,27.98544 -5.37838,2.69879 -8.90625,3.91843 -8.90625,3.07903 z m -46.64063,-23.21847 c 0.29696,-0.89085 5.41146,-1.17187 21.32813,-1.17187 15.91667,0 21.03117,0.28102 21.32812,1.17187 0.30501,0.91502 -4.36979,1.17188 -21.32812,1.17188 -16.95833,0 -21.63313,-0.25686 -21.32813,-1.17188 z m 10.94352,-21.25601 c -5.8029,-5.8029 -1.91791,-16.00961 6.09375,-16.00961 l 3.35336,0 0,-7.5 c 0,-5.88187 0.28952,-7.5 1.34192,-7.5 1.0516,0 1.40793,1.9775 1.64705,9.14062 0.16782,5.02735 0.0546,9.47271 -0.25176,9.87859 -0.30629,0.40588 -1.68027,0.31086 -3.0533,-0.21117 -5.27675,-2.00621 -10.10029,2.70587 -8.11502,7.92752 1.15263,3.03166 4.79222,4.46973 8.11502,3.2064 3.3741,-1.28283 5.35553,0.51605 2.71503,2.4649 -3.19575,2.35868 -8.74462,1.70418 -11.84605,-1.39725 z m -68.25149,-8.23765 c -5.86252,-2.88808 -8.20968,-9.58754 -5.31807,-15.1793 1.30388,-2.52141 5.16658,-5.71766 6.90986,-5.71766 0.45879,0 1.08868,4.11328 1.39976,9.14062 0.31107,5.02735 0.8435,10.08985 1.18316,11.25 0.73262,2.50234 0.046,2.58562 -4.17471,0.50634 z m 149.29486,-0.3996 c 0.34141,-1.21886 0.88878,-6.32939 1.21636,-11.35674 0.3276,-5.02734 0.96861,-9.14062 1.42448,-9.14062 1.73861,0 5.60244,3.19963 6.90457,5.71766 3.403,6.58068 -0.11601,13.81693 -7.91955,16.2852 -2.02653,0.641 -2.18581,0.49351 -1.62586,-1.5055 z m -116.52822,-12.65504 c -4.39661,-5.58939 -1.36316,-16.27982 4.61946,-16.27982 3.90551,0 6.5625,3.7957 6.5625,9.375 0,5.5793 -2.65699,9.375 -6.5625,9.375 -1.77474,0 -3.33101,-0.83219 -4.61946,-2.47018 z m 81.5625,0 c -4.39661,-5.58939 -1.36316,-16.27982 4.61946,-16.27982 3.90551,0 6.5625,3.7957 6.5625,9.375 0,5.5793 -2.65699,9.375 -6.5625,9.375 -1.77474,0 -3.33101,-0.83219 -4.61946,-2.47018 z m -120.04578,-49.79545 c 0.0217,-32.78319 0.0693,-33.62993 2.17412,-38.746417 4.13756,-10.057567 10.86792,-16.203075 21.17542,-19.33533 2.87208,-0.872768 5.33797,-1.654391 5.47978,-1.736941 0.14181,-0.08255 0.71337,-2.736218 1.27014,-5.897042 1.6188,-9.190124 5.90368,-12.054329 21.44078,-14.332004 8.52791,-1.250157 31.85617,-0.460195 43.125,1.460336 28.7388,4.897915 51.9223,13.403087 61.25298,22.471463 3.5783,3.477717 4.23452,4.709663 4.6026,8.640661 0.23611,2.521562 2.39019,12.134284 4.78685,21.361614 2.39667,9.22732 4.35757,18.1714 4.35757,19.87573 0,4.59146 -1.86491,12.55818 -3.86551,16.51308 -1.32935,2.62795 -1.75949,5.52173 -1.75949,11.83695 l 0,8.35866 -4.21875,-1.51705 c -4.04151,-1.45331 -4.21933,-1.67491 -4.23261,-5.27444 -0.0496,-13.44443 -9.27788,-33.16462 -21.00992,-44.89666 -9.75533,-9.75533 -9.59942,-9.69701 -40.5367,-15.16127 -30.22548,-5.33854 -29.07364,-5.319032 -40.15827,-0.68013 -17.30855,7.2436 -31.91573,21.89584 -39.27606,39.39717 -3.00516,7.14567 -5.22273,16.24277 -5.24133,21.50145 -0.0127,3.59718 -0.36312,4.15367 -4.27961,6.79688 -2.34616,1.58341 -4.45553,2.87892 -4.6875,2.87892 -0.23196,0 -0.41174,-15.08203 -0.39949,-33.51563 z m 55.29024,19.80059 c -5.71972,-1.8197 -17.41087,-2.60488 -22.1939,-1.49055 -2.69569,0.62803 -4.22654,0.59765 -4.92187,-0.0977 -3.6451,-3.6451 3.15068,-5.73431 16.48958,-5.06937 7.60835,0.37927 10.60886,0.96896 14.88,2.92435 4.54343,2.08005 5.17406,2.66121 4.18328,3.85504 -1.39227,1.67757 -2.84727,1.65657 -8.43709,-0.12179 z m 52.6875,-0.53496 c -1.8417,-1.8417 -1.33289,-2.63847 2.87294,-4.49891 10.56881,-4.67509 35.45318,-4.25857 32.76307,0.5484 -0.69079,1.23438 -3.03598,1.53652 -13.40849,1.72749 -8.97923,0.16531 -13.74342,0.6767 -16.67352,1.78974 -4.87884,1.85328 -4.1879,1.79938 -5.554,0.43328 z"
         style="fill:#a19896" />
      <path
         inkscape:connector-curvature="0"
         id="path4760"
         d="m -212.86017,313.07311 0,-28.86015 -4.95136,-4.88985 c -2.72324,-2.68942 -5.18771,-4.88985 -5.4766,-4.88985 -0.28888,0 -1.05498,1.76807 -1.70242,3.92903 -0.64744,2.16097 -1.54393,4.8937 -1.9922,6.07274 l -0.81503,2.14368 -16.15968,-5.6387 c -8.88783,-3.1013 -16.28067,-5.75971 -16.42855,-5.90759 -0.40795,-0.40796 4.53434,-15.00942 5.40367,-15.96455 0.43215,-0.47481 7.66164,1.51947 16.78225,4.62945 13.20329,4.5021 15.97668,5.75623 15.75961,7.12652 -0.15825,0.99895 1.97162,3.92399 5.33425,7.32574 l 5.5977,5.66281 5.80777,-5.75615 c 5.28662,-5.23963 5.71618,-5.95715 4.78711,-7.99624 -0.62051,-1.36186 -0.68145,-2.55048 -0.15546,-3.03178 0.47586,-0.43542 7.69421,-3.54349 16.0408,-6.90682 l 15.17561,-6.11514 3.34002,8.34497 c 1.837,4.58974 3.34001,8.54734 3.34001,8.79467 0,0.87591 -31.11686,13.59883 -31.97032,13.07187 -0.31023,-0.19156 -1.32005,-2.36596 -2.24403,-4.83202 -0.92398,-2.46606 -1.84075,-4.66996 -2.03726,-4.89756 -0.1965,-0.2276 -2.66716,1.86737 -5.49033,4.65547 l -5.13306,5.0693 0,28.86015 c 0,25.02847 -0.1867,28.86015 -1.40625,28.86015 -1.21955,0 -1.40625,-3.83168 -1.40625,-28.86015 z m -13.14466,-36.12161 c 1.14806,-3.51341 1.92412,-6.55129 1.72455,-6.75085 -0.19956,-0.19955 -6.96073,-2.67477 -15.02482,-5.50047 l -14.66199,-5.13764 -2.54906,6.98908 c -1.40199,3.84401 -2.37128,7.16689 -2.15396,7.38419 1.03107,1.03108 29.47709,10.51008 29.99079,9.99377 0.3229,-0.32453 1.52643,-3.46468 2.67449,-6.97808 z m 50.40841,-1.58074 c 5.79527,-2.32031 10.53953,-4.68197 10.5428,-5.24813 0.0155,-2.68234 -5.47967,-13.94811 -6.67163,-13.67764 -1.45224,0.32952 -27.31093,10.64081 -27.95536,11.14734 -0.45028,0.35393 1.11467,5.00314 3.80092,11.29185 l 1.701,3.98217 4.02271,-1.63842 c 2.21249,-0.90113 8.76429,-3.53686 14.55956,-5.85717 z m -70.545,-22.64313 c -13.88391,-6.13364 -27.37828,-17.45203 -35.6604,-29.91012 -5.18497,-7.7993 -6.06389,-9.88423 -3.80068,-9.01576 0.90513,0.34733 2.46537,0.63151 3.46721,0.63151 1.09701,0 2.18856,0.96536 2.74429,2.42706 1.80674,4.75208 9.60495,15.80327 14.5766,20.65715 6.27367,6.12507 11.95662,10.06772 21.01661,14.58064 8.49774,4.23287 6.82801,4.68137 -2.34363,0.62952 z m 66.21048,-1.61777 c 12.29103,-6.23444 21.59325,-14.60432 28.89255,-25.99668 2.60726,-4.06927 4.74052,-7.92601 4.7406,-8.57055 6e-5,-0.64453 0.59843,-1.17187 1.32969,-1.17187 0.73127,0 1.9969,-0.25607 2.8125,-0.56905 2.48602,-0.95398 1.69862,1.39916 -2.65785,7.94298 -7.7158,11.58985 -20.28215,22.66784 -31.98612,28.19771 -7.65635,3.61744 -10.20123,3.75355 -3.13137,0.16746 z m -52.38236,-20.03598 c 0.29696,-0.89085 5.41146,-1.17187 21.32813,-1.17187 15.91667,0 21.03117,0.28102 21.32812,1.17187 0.30501,0.91502 -4.36979,1.17188 -21.32812,1.17188 -16.95833,0 -21.63313,-0.25686 -21.32813,-1.17188 z m 11.08774,-21.40023 c -2.22115,-2.22116 -2.88461,-3.71395 -2.88461,-6.49039 0,-4.863 4.32111,-9.375 8.97836,-9.375 l 3.20914,0 0,-7.5 c 0,-5.88187 0.28952,-7.5 1.34192,-7.5 1.0516,0 1.40793,1.9775 1.64705,9.14062 0.16782,5.02735 0.0737,9.45355 -0.20918,9.83601 -0.28287,0.38246 -1.82521,0.20058 -3.42742,-0.40419 -5.64944,-2.13242 -10.70263,4.05455 -7.41261,9.07576 1.85414,2.82977 5.29824,3.82997 8.07357,2.34467 2.93253,-1.56945 4.84679,0.37632 2.28003,2.31755 -3.22741,2.44088 -8.34848,1.80273 -11.59625,-1.44503 z m -68.39571,-8.09343 c -5.86252,-2.88808 -8.20968,-9.58754 -5.31807,-15.1793 1.30388,-2.52141 5.16658,-5.71766 6.90986,-5.71766 0.45879,0 1.08868,4.11328 1.39976,9.14062 0.31107,5.02735 0.8435,10.08985 1.18316,11.25 0.73262,2.50234 0.046,2.58562 -4.17471,0.50634 z m 149.29486,-0.3996 c 0.34141,-1.21886 0.88878,-6.32939 1.21636,-11.35674 0.3276,-5.02734 0.96861,-9.14062 1.42448,-9.14062 1.73861,0 5.60244,3.19963 6.90457,5.71766 3.403,6.58068 -0.11601,13.81693 -7.91955,16.2852 -2.02653,0.641 -2.18581,0.49351 -1.62586,-1.5055 z m -116.52822,-12.65504 c -4.39661,-5.58939 -1.36316,-16.27982 4.61946,-16.27982 3.90551,0 6.5625,3.7957 6.5625,9.375 0,5.5793 -2.65699,9.375 -6.5625,9.375 -1.77474,0 -3.33101,-0.83219 -4.61946,-2.47018 z m 81.5625,0 c -4.39661,-5.58939 -1.36316,-16.27982 4.61946,-16.27982 3.90551,0 6.5625,3.7957 6.5625,9.375 0,5.5793 -2.65699,9.375 -6.5625,9.375 -1.77474,0 -3.33101,-0.83219 -4.61946,-2.47018 z m -119.87682,-50.73295 0.27753,-34.45312 2.43218,-5.156247 c 4.21698,-8.940042 12.14497,-15.443171 21.78656,-17.870948 4.4812,-1.128381 4.6963,-1.423339 5.76875,-7.910302 0.84969,-5.139524 2.63675,-7.595459 7.23308,-9.940331 23.3344,-11.904328 97.61481,0.903647 117.70131,20.294928 4.11291,3.970565 4.92187,5.296139 4.92187,8.06509 0,1.822462 0.62596,5.384523 1.39102,7.915691 0.76506,2.531169 2.92908,10.719309 4.80894,18.195869 3.23443,12.86394 3.36314,13.94965 2.3975,20.22307 -0.56125,3.64611 -1.88152,8.63812 -2.93395,11.09334 -1.44282,3.36597 -1.91351,6.4918 -1.91351,12.70763 l 0,8.24359 -4.21875,-1.51705 c -4.04151,-1.45331 -4.21933,-1.67491 -4.23261,-5.27444 -0.0496,-13.44443 -9.27788,-33.16462 -21.00992,-44.89666 -9.75533,-9.75533 -9.59942,-9.69701 -40.5367,-15.16127 -30.22548,-5.33854 -29.07364,-5.319032 -40.15827,-0.68013 -17.30855,7.2436 -31.91573,21.89584 -39.27606,39.39717 -3.00516,7.14567 -5.22273,16.24277 -5.24133,21.50145 -0.0127,3.59718 -0.36312,4.15367 -4.27961,6.79688 -2.34616,1.58341 -4.47496,2.87892 -4.73065,2.87892 -0.2557,0 -0.34002,-15.50391 -0.18738,-34.45313 z m 56.52753,20.64312 c -2.6237,-1.04276 -7.35684,-1.54651 -15.75893,-1.67725 -7.39301,-0.11503 -12.41389,-0.59181 -13.0625,-1.24042 -1.5162,-1.5162 -0.70749,-1.9622 5.72824,-3.15905 7.65427,-1.42346 20.70561,0.0406 26.84161,3.01096 4.13151,2.00004 4.3521,2.27332 2.76929,3.43071 -2.04556,1.49574 -1.80163,1.5094 -6.51771,-0.36495 z m 51.71521,-0.41072 c -2.5053,-1.40204 -1.86325,-2.28671 3.36291,-4.63378 4.34893,-1.9531 6.34062,-2.21209 17.10938,-2.22483 12.93075,-0.0153 16.13888,0.74643 14.21291,3.37464 -0.92893,1.26762 -2.02325,1.38503 -6.72371,0.72135 -6.19073,-0.87409 -18.68374,0.40994 -23.47789,2.41307 -1.91718,0.80105 -3.46166,0.92146 -4.4836,0.34955 z"
         style="fill:#c27a70" />
      <path
         inkscape:connector-curvature="0"
         id="path4758"
         d="m -212.86017,313.07311 0,-28.86015 -4.95136,-4.88985 c -2.72324,-2.68942 -5.18771,-4.88985 -5.4766,-4.88985 -0.28888,0 -1.05498,1.76807 -1.70242,3.92903 -0.64744,2.16097 -1.54393,4.8937 -1.9922,6.07274 l -0.81503,2.14368 -16.15968,-5.6387 c -8.88783,-3.1013 -16.28067,-5.75971 -16.42855,-5.90759 -0.40795,-0.40796 4.53434,-15.00942 5.40367,-15.96455 0.43215,-0.47481 7.66164,1.51947 16.78225,4.62945 13.20329,4.5021 15.97668,5.75623 15.75961,7.12652 -0.15825,0.99895 1.97162,3.92399 5.33425,7.32574 l 5.5977,5.66281 5.80777,-5.75615 c 5.28662,-5.23963 5.71618,-5.95715 4.78711,-7.99624 -0.62051,-1.36186 -0.68145,-2.55048 -0.15546,-3.03178 0.47586,-0.43542 7.69421,-3.54349 16.0408,-6.90682 l 15.17561,-6.11514 3.34002,8.34497 c 1.837,4.58974 3.34001,8.54734 3.34001,8.79467 0,0.87591 -31.11686,13.59883 -31.97032,13.07187 -0.31023,-0.19156 -1.32005,-2.36596 -2.24403,-4.83202 -0.92398,-2.46606 -1.84075,-4.66996 -2.03726,-4.89756 -0.1965,-0.2276 -2.66716,1.86737 -5.49033,4.65547 l -5.13306,5.0693 0,28.86015 c 0,25.02847 -0.1867,28.86015 -1.40625,28.86015 -1.21955,0 -1.40625,-3.83168 -1.40625,-28.86015 z m -13.14466,-36.12161 c 1.14806,-3.51341 1.92412,-6.55129 1.72455,-6.75085 -0.19956,-0.19955 -6.96073,-2.67477 -15.02482,-5.50047 l -14.66199,-5.13764 -2.54906,6.98908 c -1.40199,3.84401 -2.37128,7.16689 -2.15396,7.38419 1.03107,1.03108 29.47709,10.51008 29.99079,9.99377 0.3229,-0.32453 1.52643,-3.46468 2.67449,-6.97808 z m 50.40841,-1.58074 c 5.79527,-2.32031 10.53953,-4.68197 10.5428,-5.24813 0.0155,-2.68234 -5.47967,-13.94811 -6.67163,-13.67764 -1.45224,0.32952 -27.31093,10.64081 -27.95536,11.14734 -0.45028,0.35393 1.11467,5.00314 3.80092,11.29185 l 1.701,3.98217 4.02271,-1.63842 c 2.21249,-0.90113 8.76429,-3.53686 14.55956,-5.85717 z m -70.545,-22.64313 c -13.88391,-6.13364 -27.37828,-17.45203 -35.6604,-29.91012 -5.18497,-7.7993 -6.06389,-9.88423 -3.80068,-9.01576 0.90513,0.34733 2.46537,0.63151 3.46721,0.63151 1.09701,0 2.18856,0.96536 2.74429,2.42706 1.80674,4.75208 9.60495,15.80327 14.5766,20.65715 6.27367,6.12507 11.95662,10.06772 21.01661,14.58064 8.49774,4.23287 6.82801,4.68137 -2.34363,0.62952 z m 66.21048,-1.61777 c 12.29103,-6.23444 21.59325,-14.60432 28.89255,-25.99668 2.60726,-4.06927 4.74052,-7.92601 4.7406,-8.57055 6e-5,-0.64453 0.59843,-1.17187 1.32969,-1.17187 0.73127,0 1.9969,-0.25607 2.8125,-0.56905 2.48602,-0.95398 1.69862,1.39916 -2.65785,7.94298 -7.7158,11.58985 -20.28215,22.66784 -31.98612,28.19771 -7.65635,3.61744 -10.20123,3.75355 -3.13137,0.16746 z m -52.38236,-20.03598 c 0.29696,-0.89085 5.41146,-1.17187 21.32813,-1.17187 15.91667,0 21.03117,0.28102 21.32812,1.17187 0.30501,0.91502 -4.36979,1.17188 -21.32812,1.17188 -16.95833,0 -21.63313,-0.25686 -21.32813,-1.17188 z m 11.08774,-21.40023 c -2.22115,-2.22116 -2.88461,-3.71395 -2.88461,-6.49039 0,-4.863 4.32111,-9.375 8.97836,-9.375 l 3.20914,0 0,-7.5 c 0,-5.88187 0.28952,-7.5 1.34192,-7.5 1.0516,0 1.40793,1.9775 1.64705,9.14062 0.16782,5.02735 0.0737,9.45355 -0.20918,9.83601 -0.28287,0.38246 -1.82521,0.20058 -3.42742,-0.40419 -5.64944,-2.13242 -10.70263,4.05455 -7.41261,9.07576 1.85414,2.82977 5.29824,3.82997 8.07357,2.34467 2.93253,-1.56945 4.84679,0.37632 2.28003,2.31755 -3.22741,2.44088 -8.34848,1.80273 -11.59625,-1.44503 z m -35.62907,-21.14807 c -4.39661,-5.58939 -1.36316,-16.27982 4.61946,-16.27982 3.90551,0 6.5625,3.7957 6.5625,9.375 0,5.5793 -2.65699,9.375 -6.5625,9.375 -1.77474,0 -3.33101,-0.83219 -4.61946,-2.47018 z m 81.5625,0 c -4.39661,-5.58939 -1.36316,-16.27982 4.61946,-16.27982 3.90551,0 6.5625,3.7957 6.5625,9.375 0,5.5793 -2.65699,9.375 -6.5625,9.375 -1.77474,0 -3.33101,-0.83219 -4.61946,-2.47018 z m -119.87682,-50.73295 0.27753,-34.45312 2.43218,-5.156247 c 4.21698,-8.940042 12.14497,-15.443171 21.78656,-17.870948 4.4812,-1.128381 4.6963,-1.423339 5.76875,-7.910302 0.84969,-5.139524 2.63675,-7.595459 7.23308,-9.940331 23.3344,-11.904328 97.61481,0.903647 117.70131,20.294928 4.11291,3.970565 4.92187,5.296139 4.92187,8.06509 0,1.822462 0.62596,5.384523 1.39102,7.915691 0.76506,2.531169 2.92908,10.719309 4.80894,18.195869 3.23443,12.86394 3.36314,13.94965 2.3975,20.22307 -0.56125,3.64611 -1.88152,8.63812 -2.93395,11.09334 -1.44282,3.36597 -1.91351,6.4918 -1.91351,12.70763 l 0,8.24359 -4.21875,-1.51705 c -4.04151,-1.45331 -4.21933,-1.67491 -4.23261,-5.27444 -0.0496,-13.44443 -9.27788,-33.16462 -21.00992,-44.89666 -9.75533,-9.75533 -9.59942,-9.69701 -40.5367,-15.16127 -30.22548,-5.33854 -29.07364,-5.319032 -40.15827,-0.68013 -17.30855,7.2436 -31.91573,21.89584 -39.27606,39.39717 -3.00516,7.14567 -5.22273,16.24277 -5.24133,21.50145 -0.0127,3.59718 -0.36312,4.15367 -4.27961,6.79688 -2.34616,1.58341 -4.47496,2.87892 -4.73065,2.87892 -0.2557,0 -0.34002,-15.50391 -0.18738,-34.45313 z m 56.52753,20.64312 c -2.6237,-1.04276 -7.35684,-1.54651 -15.75893,-1.67725 -7.39301,-0.11503 -12.41389,-0.59181 -13.0625,-1.24042 -1.5162,-1.5162 -0.70749,-1.9622 5.72824,-3.15905 7.65427,-1.42346 20.70561,0.0406 26.84161,3.01096 4.13151,2.00004 4.3521,2.27332 2.76929,3.43071 -2.04556,1.49574 -1.80163,1.5094 -6.51771,-0.36495 z m 51.71521,-0.41072 c -2.5053,-1.40204 -1.86325,-2.28671 3.36291,-4.63378 4.34893,-1.9531 6.34062,-2.21209 17.10938,-2.22483 12.93075,-0.0153 16.13888,0.74643 14.21291,3.37464 -0.92893,1.26762 -2.02325,1.38503 -6.72371,0.72135 -6.19073,-0.87409 -18.68374,0.40994 -23.47789,2.41307 -1.91718,0.80105 -3.46166,0.92146 -4.4836,0.34955 z"
         style="fill:#ad8579" />
      <path
         inkscape:connector-curvature="0"
         id="path4756"
         d="m -212.86017,313.07311 0,-28.86015 -4.95136,-4.88985 c -2.72324,-2.68942 -5.18771,-4.88985 -5.4766,-4.88985 -0.28888,0 -1.05498,1.76807 -1.70242,3.92903 -0.64744,2.16097 -1.54393,4.8937 -1.9922,6.07274 l -0.81503,2.14368 -16.15968,-5.6387 c -8.88783,-3.1013 -16.28067,-5.75971 -16.42855,-5.90759 -0.40795,-0.40796 4.53434,-15.00942 5.40367,-15.96455 0.43215,-0.47481 7.66164,1.51947 16.78225,4.62945 13.20329,4.5021 15.97668,5.75623 15.75961,7.12652 -0.15825,0.99895 1.97162,3.92399 5.33425,7.32574 l 5.5977,5.66281 5.80777,-5.75615 c 5.28662,-5.23963 5.71618,-5.95715 4.78711,-7.99624 -0.62051,-1.36186 -0.68145,-2.55048 -0.15546,-3.03178 0.47586,-0.43542 7.69421,-3.54349 16.0408,-6.90682 l 15.17561,-6.11514 3.34002,8.34497 c 1.837,4.58974 3.34001,8.53326 3.34001,8.76338 0,0.66688 -8.37608,4.28205 -27.46786,11.85534 l -4.4991,1.7847 -1.4717,-3.52007 c -0.80942,-1.93604 -1.82744,-4.45472 -2.26225,-5.59707 -0.74792,-1.96496 -1.07066,-1.78336 -5.98233,3.36601 l -5.19176,5.44302 0,28.74335 c 0,24.92466 -0.18683,28.74337 -1.40625,28.74337 -1.21955,0 -1.40625,-3.83168 -1.40625,-28.86015 z m -13.14466,-36.12161 c 1.14806,-3.51341 1.92412,-6.55129 1.72455,-6.75085 -0.19956,-0.19955 -6.96073,-2.67477 -15.02482,-5.50047 l -14.66199,-5.13764 -2.54906,6.98908 c -1.40199,3.84401 -2.37128,7.16689 -2.15396,7.38419 1.03107,1.03108 29.47709,10.51008 29.99079,9.99377 0.3229,-0.32453 1.52643,-3.46468 2.67449,-6.97808 z m 50.40841,-1.58074 c 5.79527,-2.32031 10.53953,-4.68197 10.5428,-5.24813 0.0155,-2.68234 -5.47967,-13.94811 -6.67163,-13.67764 -1.45224,0.32952 -27.31093,10.64081 -27.95536,11.14734 -0.45028,0.35393 1.11467,5.00314 3.80092,11.29185 l 1.701,3.98217 4.02271,-1.63842 c 2.21249,-0.90113 8.76429,-3.53686 14.55956,-5.85717 z m -73.40709,-24.25036 c -15.67429,-7.62709 -29.09877,-20.36609 -36.36595,-34.50904 l -1.53028,-2.97813 3.03541,0.86534 c 3.33446,0.9506 3.48056,1.11803 8.14072,9.32895 6.28897,11.08081 16.24106,20.30075 29.5279,27.35562 8.68882,4.61347 6.71139,4.56929 -2.8078,-0.0627 z m 70.48572,-0.45354 c 12.4616,-6.71747 22.41885,-16.08759 28.52106,-26.83934 4.75701,-8.38155 5.00802,-8.66542 7.3496,-8.31142 2.05586,0.3108 1.95845,0.59748 -2.4992,7.35466 -7.65781,11.60822 -18.52526,21.21932 -31.36232,27.73662 -8.0645,4.09432 -9.57726,4.13909 -2.00914,0.0594 z m -53.43141,-19.82735 c 0.80836,-2.10653 41.1197,-2.10653 41.92806,0 0.47,1.22482 -2.23483,1.40625 -20.96403,1.40625 -18.7292,0 -21.43403,-0.18143 -20.96403,-1.40625 z m 13.93278,-19.13204 c -8.78692,-3.76269 -6.65889,-17.15302 2.75857,-17.35799 l 3.32966,-0.0725 0.003,-7.73438 c 0.002,-6.08946 0.28859,-7.73437 1.34675,-7.73437 1.05867,0 1.40695,2.00979 1.64062,9.46729 0.16315,5.207 0.042,9.62339 -0.26911,9.81417 -0.31115,0.19078 -1.8506,-0.1381 -3.421,-0.73086 -5.59344,-2.11129 -10.62281,4.10988 -7.35474,9.0976 1.85414,2.82977 5.29824,3.82997 8.07357,2.34467 1.27973,-0.6849 2.39577,-0.77127 2.93955,-0.22749 2.08654,2.08655 -5.41991,4.68684 -9.04663,3.13383 z m -36.8166,-21.33917 c -1.80894,-0.72783 -3.96465,-5.48413 -3.96465,-8.74754 0,-3.78128 2.2932,-8.14633 4.67722,-8.90299 6.29546,-1.9981 10.81321,7.23437 7.07621,14.46094 -1.77059,3.42394 -4.46447,4.52711 -7.78878,3.18959 z m 81.5625,0 c -1.80894,-0.72783 -3.96465,-5.48413 -3.96465,-8.74754 0,-3.78128 2.2932,-8.14633 4.67722,-8.90299 6.29546,-1.9981 10.81321,7.23437 7.07621,14.46094 -1.77059,3.42394 -4.46447,4.52711 -7.78878,3.18959 z m -122.08965,-49.51872 c 0,-32.624 0.53856,-38.62417 3.9979,-44.541317 4.51877,-7.729269 12.88261,-14.235909 19.93693,-15.509901 5.11336,-0.923462 5.73383,-1.617708 6.47136,-7.240829 0.79841,-6.087352 2.38564,-8.599592 6.87314,-10.878704 6.4404,-3.270947 13.97258,-4.310495 30.68942,-4.235582 17.04379,0.07638 31.32711,1.986163 48.53854,6.489959 25.00141,6.542232 43.80521,17.608415 43.80521,25.779702 0,1.586221 1.7729,9.294862 3.93978,17.130312 3.49567,12.64039 3.94481,15.40875 3.98437,24.55879 0.0376,8.69268 -0.28673,11.07608 -2.06478,15.17379 -1.6516,3.80631 -2.10937,6.62559 -2.10937,12.99093 0,7.0519 -0.19797,8.05366 -1.49334,7.55658 -0.82135,-0.31518 -2.47436,-0.81926 -3.67336,-1.12019 -1.81607,-0.45581 -2.28198,-1.35509 -2.79074,-5.38663 -2.17642,-17.24614 -10.78738,-34.60661 -22.67694,-45.71876 -9.12369,-8.52715 -9.39094,-8.62116 -39.53547,-13.90709 -27.47318,-4.817505 -27.52132,-4.822351 -32.76349,-3.298408 -27.70523,8.054128 -48.72079,33.485118 -52.26088,63.241028 -0.57611,4.84245 -0.86463,5.31096 -4.74086,7.6983 l -4.12742,2.54206 0,-31.32404 z m 56.71875,17.4931 c -2.65602,-1.06029 -7.2583,-1.54196 -15.77599,-1.65108 -12.61228,-0.16157 -16.44562,-1.26133 -11.3298,-3.25043 7.24072,-2.81529 21.27008,-1.90303 30.26912,1.96825 4.37353,1.88144 4.67523,2.19792 3.1782,3.33399 -1.94305,1.47455 -1.58777,1.497 -6.34153,-0.40073 z m 51.47388,-0.8089 c -2.26983,-1.65974 -1.23126,-2.40025 6.98425,-4.97977 6.81196,-2.13884 19.73554,-2.53402 25.58239,-0.78227 3.35905,1.00641 3.52288,1.21022 2.17234,2.70256 -1.22384,1.35233 -2.09939,1.46578 -5.39929,0.69959 -5.21747,-1.21142 -17.47692,-0.17276 -23.07722,1.95519 -3.87028,1.47059 -4.7289,1.52607 -6.26247,0.4047 z"
         style="fill:#738799" />
      <path
         inkscape:connector-curvature="0"
         id="path4754"
         d="m -212.86017,313.15391 0,-28.9356 -5.46302,-5.40602 -5.46303,-5.40601 -1.73022,5.71453 c -0.95162,3.14298 -2.08867,5.93607 -2.52679,6.20684 -0.87448,0.54046 -10.48662,-2.41221 -9.86766,-3.03117 0.21078,-0.21078 2.18959,0.25408 4.39735,1.03302 2.20776,0.77895 4.2999,1.41626 4.6492,1.41626 0.34932,0 1.60332,-3.00618 2.78668,-6.6804 l 2.15156,-6.6804 6.26141,6.21343 6.26141,6.21342 5.74424,-5.86114 c 5.09025,-5.19386 5.64449,-6.11941 4.86798,-8.12946 -0.48195,-1.24756 -0.547,-2.55579 -0.14456,-2.90719 1.13709,-0.99288 13.57203,-5.73419 13.97694,-5.32926 0.19812,0.1981 -2.70103,1.54531 -6.44252,2.99377 -3.74149,1.44848 -6.92038,2.72366 -7.06419,2.83375 -0.1438,0.11009 1.09276,3.65984 2.74792,7.88834 2.8392,7.25343 3.14555,7.65761 5.41771,7.14753 2.05426,-0.46116 2.15876,-0.38939 0.71077,0.48818 -2.62821,1.59286 -4.00674,0.49375 -5.86612,-4.67702 -0.94213,-2.61996 -1.96044,-4.76355 -2.2629,-4.76355 -0.30248,0 -2.74415,2.22179 -5.42594,4.93732 l -4.87599,4.93731 -0.24824,28.96927 c -0.18992,22.16287 -0.52357,29.06096 -1.42012,29.35955 -0.92061,0.30662 -1.17187,-5.81366 -1.17187,-28.5453 z m 24.375,-32.15815 c 0.77344,-0.49984 1.82812,-0.90878 2.34375,-0.90878 0.51562,0 0.30469,0.40894 -0.46875,0.90878 -0.77344,0.49984 -1.82813,0.90878 -2.34375,0.90878 -0.51563,0 -0.30469,-0.40894 0.46875,-0.90878 z m -64.17436,-3.35352 c -7.53422,-2.63133 -8.29246,-3.18699 -6.94817,-5.09182 0.83598,-1.18457 0.9097,-1.15663 0.482,0.18264 -0.40665,1.27338 0.9444,2.06371 6.94281,4.06136 4.09625,1.36417 7.44772,2.65661 7.44772,2.87208 0,0.64145 -1.08602,0.36404 -7.92436,-2.02426 z m 68.00166,2.09747 c 0.80104,-0.90556 18.92207,-8.18209 19.33867,-7.76548 0.1948,0.1948 -3.56676,1.92987 -8.35902,3.85572 -11.10914,4.46439 -11.63633,4.65213 -10.97965,3.90976 z m 20.19477,-9.56144 c -0.90467,-2.35753 -0.63779,-2.96583 0.46737,-1.06532 0.54721,0.94101 0.79744,1.90843 0.55606,2.14981 -0.24138,0.24137 -0.70193,-0.24665 -1.02343,-1.08449 z m -64.60255,-2.14325 c -3.49895,-1.2565 -6.20891,-2.43737 -6.02213,-2.62415 0.32801,-0.32801 11.98222,3.32138 12.77449,4.0002 1.31772,1.12903 -1.2122,0.61347 -6.75235,-1.37605 z m 62.72755,-2.54425 c -0.90467,-2.35753 -0.63779,-2.96583 0.46737,-1.06532 0.54721,0.94101 0.79744,1.90843 0.55606,2.14981 -0.24138,0.24137 -0.70193,-0.24665 -1.02343,-1.08449 z m -1.875,-4.6875 c -0.90467,-2.35753 -0.63779,-2.96583 0.46737,-1.06532 0.54721,0.94101 0.79744,1.90843 0.55606,2.14981 -0.24138,0.24137 -0.70193,-0.24665 -1.02343,-1.08449 z m -12.8851,-1.8593 c 2.77377,-1.31616 5.21705,-2.21918 5.42952,-2.00672 0.21246,0.21247 -1.42417,1.11821 -3.63697,2.01277 -6.41459,2.59321 -7.26435,2.59034 -1.79255,-0.006 z m -72.54322,0.48929 c -1.23632,-0.53126 -1.39599,-0.82327 -0.46875,-0.85725 0.77344,-0.0283 2.03906,0.35741 2.8125,0.85725 1.71372,1.10749 0.23352,1.10749 -2.34375,0 z m 83.90625,-2.75788 c 0,-0.81129 -0.82839,-1.02012 -2.57813,-0.64992 -2.4624,0.52098 -2.48207,0.49746 -0.43815,-0.52403 1.6063,-0.80279 2.40898,-0.80047 3.21874,0.009 0.59334,0.59333 0.79051,1.36707 0.43816,1.71941 -0.35234,0.35226 -0.64062,0.10262 -0.64062,-0.55484 z m -79.26834,-5.55498 c -15.67429,-7.62709 -29.09877,-20.36609 -36.36595,-34.50904 l -1.53028,-2.97813 3.03541,0.86534 c 3.33446,0.9506 3.48056,1.11803 8.14072,9.32895 6.28897,11.08081 16.24106,20.30075 29.5279,27.35562 8.68882,4.61347 6.71139,4.56929 -2.8078,-0.0627 z m 70.48572,-0.45354 c 12.4616,-6.71747 22.41885,-16.08759 28.52106,-26.83934 4.75701,-8.38155 5.00802,-8.66542 7.3496,-8.31142 2.05586,0.3108 1.95845,0.59748 -2.4992,7.35466 -7.65781,11.60822 -18.52526,21.21932 -31.36232,27.73662 -8.0645,4.09432 -9.57726,4.13909 -2.00914,0.0594 z m -53.43141,-19.82735 c 0.80836,-2.10653 41.1197,-2.10653 41.92806,0 0.47,1.22482 -2.23483,1.40625 -20.96403,1.40625 -18.7292,0 -21.43403,-0.18143 -20.96403,-1.40625 z m 13.93278,-19.13204 c -8.78692,-3.76269 -6.65889,-17.15302 2.75857,-17.35799 l 3.32966,-0.0725 0.003,-7.73438 c 0.002,-6.08946 0.28859,-7.73437 1.34675,-7.73437 1.05867,0 1.40695,2.00979 1.64062,9.46729 0.29138,9.29955 -0.24227,11.46256 -2.3163,9.38853 -3.0743,-3.07426 -10.04336,0.84667 -10.04336,5.65056 0,4.64334 7.0783,8.35282 10.125,5.30612 0.7805,-0.7805 1.42426,-0.82574 2.10223,-0.14777 2.18121,2.18121 -5.1856,4.84472 -8.94598,3.23448 z m -36.8166,-21.33917 c -1.80894,-0.72783 -3.96465,-5.48413 -3.96465,-8.74754 0,-3.78128 2.2932,-8.14633 4.67722,-8.90299 6.29546,-1.9981 10.81321,7.23437 7.07621,14.46094 -1.77059,3.42394 -4.46447,4.52711 -7.78878,3.18959 z m 81.5625,0 c -1.80894,-0.72783 -3.96465,-5.48413 -3.96465,-8.74754 0,-3.78128 2.2932,-8.14633 4.67722,-8.90299 6.29546,-1.9981 10.81321,7.23437 7.07621,14.46094 -1.77059,3.42394 -4.46447,4.52711 -7.78878,3.18959 z m -122.08965,-49.51872 c 0,-32.624 0.53856,-38.62417 3.9979,-44.541317 4.51877,-7.729269 12.88261,-14.235909 19.93693,-15.509901 5.11336,-0.923462 5.73383,-1.617708 6.47136,-7.240829 0.79841,-6.087352 2.38564,-8.599592 6.87314,-10.878704 6.4404,-3.270947 13.97258,-4.310495 30.68942,-4.235582 17.04379,0.07638 31.32711,1.986163 48.53854,6.489959 25.00141,6.542232 43.80521,17.608415 43.80521,25.779702 0,1.586221 1.7729,9.294862 3.93978,17.130312 3.49567,12.64039 3.94481,15.40875 3.98437,24.55879 0.0376,8.69268 -0.28673,11.07608 -2.06478,15.17379 -1.6516,3.80631 -2.10937,6.62559 -2.10937,12.99093 0,7.0519 -0.19797,8.05366 -1.49334,7.55658 -0.82135,-0.31518 -2.47436,-0.81926 -3.67336,-1.12019 -1.81607,-0.45581 -2.28198,-1.35509 -2.79074,-5.38663 -2.17642,-17.24614 -10.78738,-34.60661 -22.67694,-45.71876 -9.12369,-8.52715 -9.39094,-8.62116 -39.53547,-13.90709 -27.47318,-4.817505 -27.52132,-4.822351 -32.76349,-3.298408 -27.70523,8.054128 -48.72079,33.485118 -52.26088,63.241028 -0.57611,4.84245 -0.86463,5.31096 -4.74086,7.6983 l -4.12742,2.54206 0,-31.32404 z m 57.65625,17.64916 c -6.32096,-2.2377 -16.55313,-3.28035 -22.60972,-2.30392 -4.33795,0.69936 -5.8001,0.61447 -6.84952,-0.39767 -2.18818,-2.11044 2.93968,-3.52133 13.05299,-3.59145 12.23025,-0.0847 24.89266,3.82641 21.41278,6.61402 -0.90666,0.7263 -2.30067,0.63693 -5.00653,-0.32098 z m 50.78125,-0.94048 c -1.2019,-1.2019 -0.59832,-1.91418 2.89062,-3.41127 8.20576,-3.52104 20.9059,-4.61185 28.65184,-2.4609 6.78472,1.88403 3.41778,3.06291 -9.25258,3.23965 -8.63351,0.12042 -13.31698,0.61467 -16.23588,1.71338 -4.58363,1.72534 -5.16025,1.81288 -6.054,0.91914 z"
         style="fill:#50555d" />
      <path
         inkscape:connector-curvature="0"
         id="path4752"
         d="m -256.02437,247.07943 c -9.585,-5.86716 -19.6966,-15.69511 -25.70003,-24.97909 -2.44127,-3.77529 -4.29318,-7.00758 -4.11534,-7.18284 0.17782,-0.17527 1.38362,-0.11489 2.67955,0.13417 1.77258,0.34066 3.16591,2.00377 5.625,6.71409 3.99689,7.65594 18.65908,22.84332 26.23752,27.17734 2.83594,1.62184 4.71674,2.95811 4.17955,2.96948 -0.53717,0.0113 -4.54499,-2.16354 -8.90625,-4.83315 z m 95.08914,-9.473 c 6.68042,-6.74954 10.45063,-11.44649 12.76256,-15.89963 2.58465,-4.97847 3.73389,-6.3219 5.41337,-6.32813 2.04688,-0.008 1.98321,0.22631 -1.59281,5.85146 -5.12517,8.06199 -13.67726,17.27589 -20.42098,22.0013 -5.51002,3.86093 -5.41929,3.72794 3.83786,-5.625 z m -134.41786,-95.07859 c 0.007,-31.04849 0.69721,-39.31198 3.78739,-45.369229 4.20887,-8.250085 11.97153,-14.298965 20.94007,-16.317078 l 4.79671,-1.079363 1.00549,-5.555079 c 1.35423,-7.481844 2.44343,-9.205478 7.24274,-11.461418 6.31727,-2.969467 14.92006,-4.199884 29.25177,-4.183743 35.79399,0.04031 80.7392,13.264417 90.76823,26.706492 1.048,1.404651 2.18972,4.568714 2.53715,7.03125 0.34744,2.462538 2.43327,11.393458 4.63519,19.846488 3.50542,13.45712 3.9467,16.25629 3.54696,22.5 -0.25108,3.92197 -1.21886,9.02929 -2.1506,11.3496 -1.08276,2.69636 -1.82636,7.49195 -2.06065,13.28927 l -0.36654,9.07051 -3.40511,-1.17888 c -3.31278,-1.14691 -3.43587,-1.36146 -4.53974,-7.91284 -2.81862,-16.72828 -8.82751,-29.07078 -19.68636,-40.4366 -11.45108,-11.98572 -10.17879,-11.461 -41.15353,-16.97271 -31.65261,-5.632333 -31.81367,-5.626611 -46.40625,1.64848 -7.64005,3.80893 -10.23909,5.779 -18.28125,13.8571 -7.27091,7.30342 -10.27899,11.14347 -13.40283,17.10974 -4.20772,8.03638 -8.62842,23.12926 -8.62842,29.45864 0,2.12071 -0.45041,3.62979 -1.08338,3.62979 -0.59586,0 -2.4943,1.07616 -4.21875,2.39146 l -3.13537,2.39146 0.007,-29.81334 z"
         style="fill:#170f0f" />
    </g>
  </g>
</svg>
