<?xml version="1.0" encoding="UTF-8" standalone="no"?>
<!-- Created with Inkscape (http://www.inkscape.org/) -->

<svg
   xmlns:dc="http://purl.org/dc/elements/1.1/"
   xmlns:cc="http://creativecommons.org/ns#"
   xmlns:rdf="http://www.w3.org/1999/02/22-rdf-syntax-ns#"
   xmlns:svg="http://www.w3.org/2000/svg"
   xmlns="http://www.w3.org/2000/svg"
   xmlns:sodipodi="http://sodipodi.sourceforge.net/DTD/sodipodi-0.dtd"
   xmlns:inkscape="http://www.inkscape.org/namespaces/inkscape"
   id="svg4136"
   version="1.1"
   inkscape:version="0.91 r13725"
   width="529.6875"
   height="487.5"
   viewBox="0 0 529.6875 487.5"
   sodipodi:docname="Ysy.svg">
  <metadata
     id="metadata4142">
    <rdf:RDF>
      <cc:Work
         rdf:about="">
        <dc:format>image/svg+xml</dc:format>
        <dc:type
           rdf:resource="http://purl.org/dc/dcmitype/StillImage" />
        <dc:title></dc:title>
      </cc:Work>
    </rdf:RDF>
  </metadata>
  <defs
     id="defs4140" />
  <sodipodi:namedview
     pagecolor="#ffffff"
     bordercolor="#666666"
     borderopacity="1"
     objecttolerance="10"
     gridtolerance="10"
     guidetolerance="10"
     inkscape:pageopacity="0"
     inkscape:pageshadow="2"
     inkscape:window-width="799"
     inkscape:window-height="483"
     id="namedview4138"
     showgrid="false"
     inkscape:zoom="0.42"
     inkscape:cx="189.33441"
     inkscape:cy="246.99054"
     inkscape:window-x="62"
     inkscape:window-y="498"
     inkscape:window-maximized="0"
     inkscape:current-layer="svg4136" />
  <g
     id="g4168"
     transform="translate(619.04762,7.1428572)">
    <path
       inkscape:connector-curvature="0"
       id="path4166"
       d="m -382.04613,481.4459 c -24.53425,-2.47493 -38.93358,-5.23272 -56.28455,-10.77972 -37.9701,-12.13882 -69.15321,-31.08728 -97.02066,-58.95472 -37.46762,-37.46762 -60.22061,-83.38344 -68.07078,-137.36771 -2.25259,-15.49069 -2.25212,-47.3275 9.4e-4,-62.8125 5.44512,-37.42378 17.75343,-70.19218 37.67889,-100.3125 9.46586,-14.309063 17.77042,-24.434681 30.39095,-37.055211 38.10442,-38.104426 85.78119,-61.351176 140.64896,-68.579132 13.33952,-1.7572689 46.86071,-1.4578632 60,0.53591 45.15392,6.851717 84.07232,23.605134 118.125,50.849908 10.08699,8.070376 27.61287,25.610758 35.93753,35.967275 27.74803,34.52066 45.45704,76.50167 51.41099,121.875 1.47675,11.25381 1.4432,43.60225 -0.0574,55.3125 -5.94097,46.36285 -23.22693,87.72126 -51.33013,122.8125 -8.18471,10.2199 -25.74113,27.77632 -35.96103,35.96103 -33.59433,26.90438 -72.61707,43.88116 -115.78125,50.37044 -11.61507,1.7462 -41.13594,3.03959 -49.6875,2.17693 z m 44.19929,-5.49587 c 35.30961,-4.6571 70.68158,-17.54947 99.1313,-36.13138 58.90423,-38.47325 96.49258,-99.12708 105.16243,-169.69365 2.13479,-17.3757 1.46704,-49.10617 -1.37119,-65.15625 -4.30025,-24.31788 -10.91016,-44.80416 -21.17395,-65.625 C -189.77173,71.034619 -252.83874,24.20676 -328.60863,11.253125 -343.01115,8.7908675 -374.96391,7.8432149 -390.15964,9.4276501 -444.51341,15.095034 -494.17331,38.670379 -532.5089,77.005977 c -34.9487,34.948693 -57.38708,78.629803 -65.73271,127.962773 -2.4956,14.75205 -3.40915,45.01992 -1.83323,60.73876 5.49329,54.79219 28.99677,104.59235 67.56594,143.16151 36.72261,36.72261 85.64383,60.67806 136.86902,67.0212 13.77906,1.70624 45.06452,1.73862 57.79304,0.0598 z m -100.93295,-10.73895 c -13.60817,-4.47121 -25.29759,-9.35682 -25.29759,-10.57317 0,-0.51542 0.84331,-5.07532 1.87402,-10.1331 4.75253,-23.32104 17.99083,-45.28145 36.13318,-59.93966 l 7.46155,-6.02861 0.24812,21.49736 0.24812,21.49735 -4.69495,23.35308 c -2.58222,12.84419 -4.80995,23.46808 -4.95052,23.60865 -0.14056,0.14057 -5.10043,-1.33629 -11.02193,-3.2819 z m 146.26491,-1.3169 c 0,-0.16131 -1.89844,-9.73245 -4.21875,-21.26918 -3.91039,-19.4427 -4.21875,-22.03218 -4.21875,-35.42753 l 0,-14.45166 5.22056,6.6721 c 6.28769,8.03594 10.83689,10.73362 17.16873,10.18105 2.3812,-0.20781 4.91383,-0.56117 5.62808,-0.78527 2.92396,-0.9174 12.4281,19.31538 15.60399,33.2184 0.80889,3.54108 1.34452,6.55097 1.19031,6.68862 -1.27018,1.1337 -19.74776,9.79709 -26.25839,12.31149 -7.50168,2.89716 -10.11578,3.63674 -10.11578,2.86198 z m -106.875,-67.6201 c 0,-19.24716 0.31561,-27.79598 1.04278,-28.2454 0.6094,-0.37662 8.69795,7.00351 19.46193,17.75739 l 18.41914,18.40187 18.27244,-18.30739 c 13.20243,-13.22765 18.79272,-18.23515 20.14746,-18.04709 1.82075,0.25276 1.88218,1.06732 2.12333,28.15092 l 0.24832,27.89062 -39.8577,0 -39.8577,0 0,-27.60092 z"
       style="fill:#f9f9f9" />
    <g
       transform="translate(-630.95238,2.3809524)"
       id="g4146">
      <path
         inkscape:connector-curvature="0"
         id="path4164"
         d="m 235.52393,473.88716 c -9.38066,-1.18581 -30.88099,-5.49423 -31.74886,-6.3621 -0.18105,-0.18105 1.7783,-10.8189 4.35412,-23.63967 l 4.68331,-23.3105 0,-22.37349 0,-22.37348 -5.39063,4.15911 c -21.80624,16.82454 -36.66718,42.3448 -40.08748,68.84109 -0.34943,2.70704 -0.81435,4.92188 -1.03315,4.92188 -0.21879,0 -4.50342,-2.07131 -9.5214,-4.60291 C 135.38718,438.35436 117.92876,425.47325 98.881669,406.42884 84.366506,391.91573 74.483011,379.68355 65.375997,364.96098 34.613695,315.23003 23.283126,255.39912 33.810772,198.28125 47.023535,126.59524 93.888028,64.205604 159.02078,31.59199 c 66.97447,-33.5358043 143.73397,-33.5358043 210.70844,0 70.88623,35.494523 119.19122,105.13878 127.64461,184.03301 5.60413,52.30253 -6.7984,106.23786 -34.53373,150.17796 -9.3823,14.86406 -18.73463,26.38676 -32.97376,40.62588 -16.79365,16.79366 -32.04589,28.55974 -50.17884,38.70963 l -5.15625,2.88621 -0.13814,-3.93421 c -0.18401,-5.24046 -4.3747,-18.10963 -8.91328,-27.37172 -5.33123,-10.87971 -5.72138,-11.297 -9.21079,-9.85163 -3.94023,1.63209 -9.75823,0.6677 -13.5862,-2.25203 -1.75146,-1.3359 -5.21614,-5.016 -7.69928,-8.17799 l -4.51481,-5.74908 -0.2589,14.7972 c -0.25109,14.35091 -0.1288,15.4459 4.05449,36.30462 2.37237,11.82909 4.15183,21.66899 3.95437,21.86645 -0.98209,0.9821 -25.33956,7.06928 -35.52657,8.87846 -15.08364,2.67881 -50.96081,3.40119 -67.16821,1.35241 z m 75.72607,-80.02782 0,-28.01566 -2.10938,-0.55785 c -1.7815,-0.47114 -4.95231,2.2806 -20.39954,17.7035 l -18.29016,18.26134 -17.79433,-17.81283 c -9.78688,-9.79706 -18.53678,-17.81284 -19.44421,-17.81284 -1.53818,0 -1.64988,1.90419 -1.64988,28.125 l 0,28.125 39.84375,0 39.84375,0 0,-28.01566 z"
         style="fill:#fdd0c1" />
      <path
         inkscape:connector-curvature="0"
         id="path4162"
         d="m 235.52393,473.83122 c -9.29274,-1.12551 -30.85008,-5.40737 -31.74886,-6.30616 -0.18105,-0.18105 1.7783,-10.8189 4.35412,-23.63967 l 4.68331,-23.3105 0,-22.37349 0,-22.37348 -5.84753,4.49956 c -19.89947,15.31229 -33.38824,37.10698 -38.59928,62.36737 -0.81988,3.97435 -1.49069,8.08763 -1.49069,9.14062 0,1.053 -0.21861,1.91453 -0.48578,1.91453 -0.26718,0 -4.5914,-2.07131 -9.60938,-4.60291 C 135.38718,438.35436 117.92876,425.47325 98.881669,406.42884 84.366506,391.91573 74.483011,379.68355 65.375997,364.96098 34.613695,315.23003 23.283126,255.39912 33.810772,198.28125 47.023535,126.59524 93.888028,64.205604 159.02078,31.59199 c 66.97447,-33.5358043 143.73397,-33.5358043 210.70844,0 70.88623,35.494523 119.19122,105.13878 127.64461,184.03301 6.4119,59.84129 -9.87198,118.4439 -46.54919,167.52171 -8.75788,11.71892 -32.39343,35.38939 -43.94964,44.01454 -15.44017,11.52402 -33.30925,22.41162 -32.24931,19.64945 1.70701,-4.44841 -9.19129,-33.85646 -15.06619,-40.65472 -0.11895,-0.13764 -2.31051,0.23314 -4.87012,0.82397 -7.09706,1.6382 -11.71428,-0.77498 -18.98239,-9.92113 L 330,389.87717 l 0,15.35472 c 0,14.46566 0.24428,16.56928 4.21875,36.33061 2.32031,11.53673 4.21875,21.27076 4.21875,21.63117 0,0.75984 -17.84006,5.78308 -28.12175,7.91828 -20.0515,4.16409 -52.97859,5.36125 -74.79182,2.71927 z m 75.72607,-79.96366 0,-28.00743 -6.79688,-2.14468 c -3.73828,-1.17957 -6.93007,-2.24457 -7.09286,-2.36668 -0.16279,-0.1221 0.14801,-1.8709 0.69068,-3.88622 0.91051,-3.38136 1.35136,-3.75767 5.71127,-4.87508 6.03351,-1.54634 20.37581,-8.5124 27.64404,-13.42671 13.89713,-9.39634 28.97614,-27.04239 34.59026,-40.47888 1.23268,-2.95022 1.65365,-3.16516 8.06253,-4.11637 15.9593,-2.36871 27.45548,-13.44966 29.86286,-28.78426 1.54723,-9.85552 -1.59867,-21.55452 -7.70193,-28.64199 -2.98061,-3.46126 -10.33768,-8.30892 -15.04355,-9.91237 l -4.06774,-1.38602 -0.65932,-7.68606 c -1.45218,-16.92866 -5.62353,-29.52635 -13.99358,-42.26132 -12.0683,-18.36184 -30.09388,-30.65253 -52.61203,-35.87337 -6.48688,-1.50398 -11.61577,-1.73887 -37.96875,-1.73887 -20.94025,0 -32.46393,0.37788 -36.84861,1.20832 -22.11179,4.18791 -42.29741,17.63172 -54.65979,36.40392 -8.62545,13.09769 -12.76949,25.81038 -14.03544,43.05653 -0.62837,8.56032 -0.63284,8.5723 -3.59232,9.64246 -4.81217,1.7401 -13.29928,9.9812 -16.03255,15.56782 -10.15997,20.76622 2.19406,46.30647 24.21741,50.06613 3.01772,0.51517 4.1869,1.27724 5.29571,3.45173 13.7528,26.97087 34.85704,45.84329 60.71631,54.29543 4.49574,1.46944 4.98974,1.91969 5.92762,5.40272 0.56274,2.08984 0.67603,4.08126 0.25179,4.42539 -0.42426,0.34413 -3.19716,1.41367 -6.162,2.37677 l -5.39063,1.75107 0,27.97273 0,27.97273 39.84375,0 39.84375,0 0,-28.00744 z m -58.57756,-80.86742 c -4.76197,-1.11467 -5.98143,-2.28897 -4.19476,-4.0394 1.149,-1.12571 3.11647,-1.17695 12.38169,-0.3225 7.91033,0.7295 14.12093,0.7295 22.03125,0 8.98195,-0.82833 11.25246,-0.78416 12.29843,0.23923 1.92094,1.87945 0.62918,3.0462 -4.61863,4.17166 -5.67376,1.2168 -32.63937,1.18195 -37.89798,-0.0489 z m -87.78019,-35.85603 c -15.5585,-5.56001 -17.78734,-22.14755 -4.05711,-30.194 2.33726,-1.36973 4.36734,-2.33369 4.5113,-2.14213 0.14397,0.19155 0.75247,6.46546 1.35223,13.94202 0.59975,7.47656 1.48815,14.96484 1.9742,16.64062 0.99008,3.41349 0.93546,3.43883 -3.78062,1.75349 z m 15.97339,-0.15914 c -11.55011,-3.55858 -9.21432,-11.5087 4.04881,-13.78057 14.29267,-2.44823 27.64848,4.08786 21.72588,10.63225 -3.76344,4.15856 -17.17763,5.79706 -25.77469,3.14832 z m 94.90013,0.0797 c -6.51386,-1.57585 -9.48294,-3.81842 -12.18347,-9.20227 l -2.19896,-4.38389 2.1535,-12.67677 c 1.18442,-6.97218 2.44184,-12.67672 2.79425,-12.67672 0.35242,0 1.34951,1.08168 2.21575,2.40372 1.47582,2.25239 1.47393,2.98106 -0.0301,11.57423 -0.88278,5.04377 -1.34123,10.22167 -1.01878,11.50645 0.97423,3.88165 4.26762,7.22637 8.14298,8.26989 3.25743,0.87714 6.54655,3.8059 6.54655,5.82931 0,0.88758 -0.15573,0.87197 -6.42172,-0.64392 z m 64.47487,-0.0797 c -11.55011,-3.55858 -9.21432,-11.5087 4.04881,-13.78057 14.29267,-2.44823 27.64848,4.08786 21.72588,10.63225 -3.76344,4.15856 -17.17763,5.79706 -25.77469,3.14832 z m 33.89854,-1.5928 c 0.48631,-1.67663 1.3749,-9.16561 1.97465,-16.64217 0.59976,-7.47656 1.20826,-13.75047 1.35223,-13.94202 0.14396,-0.19156 2.17404,0.7724 4.5113,2.14213 11.97864,7.01994 12.11954,21.30883 0.27672,28.06249 -2.18506,1.24608 -5.10374,2.52714 -6.48596,2.8468 -2.45063,0.56675 -2.49114,0.5054 -1.62894,-2.46723 z M 206.89319,247.53873 c -3.76932,-1.20897 -5.33069,-2.75788 -5.33069,-5.28816 0,-3.98827 3.92388,-5.53182 14.0625,-5.53182 7.02633,0 9.54256,0.3629 11.52561,1.66223 3.33219,2.18334 3.37404,5.71478 0.0932,7.86447 -2.80751,1.83955 -16.028,2.67972 -20.35061,1.29328 z m 112.5,0 c -3.76932,-1.20897 -5.33069,-2.75788 -5.33069,-5.28816 0,-3.98827 3.92388,-5.53182 14.0625,-5.53182 7.02633,0 9.54256,0.3629 11.52561,1.66223 3.33219,2.18334 3.37404,5.71478 0.0932,7.86447 -2.80751,1.83955 -16.028,2.67972 -20.35061,1.29328 z M 223.125,209.36275 c -13.76339,-4.32252 -20.45476,-5.2108 -24.19077,-3.21135 -1.64978,0.88294 -2.14363,0.75513 -2.95736,-0.76535 C 195.43958,204.38214 195,203.13098 195,202.6057 c 0,-1.22202 6.0245,-2.90619 10.4201,-2.91297 2.68739,-0.004 36.91042,9.69547 38.18265,10.82187 0.41748,0.36963 -5.15226,3.25369 -6.13432,3.17639 -0.41232,-0.0324 -6.86687,-1.98016 -14.34343,-4.32824 z m 74.29687,3.24304 c -1.16015,-0.55953 -2.10937,-1.31115 -2.10937,-1.67029 0,-0.98643 31.70852,-10.5119 36.68758,-11.02122 4.55926,-0.46637 11.12492,1.13894 11.12492,2.72005 0,0.50954 -0.43958,1.74781 -0.97687,2.75172 -0.77091,1.44047 -1.35087,1.62512 -2.75086,0.87587 -3.43513,-1.83842 -10.26858,-0.90678 -23.98,3.26933 -15.0543,4.58512 -14.91322,4.56101 -17.9954,3.07454 z"
         style="fill:#ebb2ab" />
      <path
         inkscape:connector-curvature="0"
         id="path4160"
         d="m 243.75,474.67449 c -9.04515,-0.93157 -24.71912,-3.43968 -32.06417,-5.13084 -7.57184,-1.74337 -8.20313,-2.06252 -7.76136,-3.92381 0.2645,-1.11435 2.3725,-11.49176 4.68447,-23.0609 l 4.20356,-21.03482 0,-22.8481 0,-22.8481 -5.85938,4.46099 c -11.74528,8.94217 -23.32749,22.99897 -30.01666,36.42984 -3.77887,7.58739 -8.06044,21.0953 -9.22662,29.10895 -0.59657,4.09946 -1.1954,7.58534 -1.33075,7.74643 -0.50357,0.5993 -18.03315,-8.67933 -26.63215,-14.09674 C 124.23882,429.7072 113.37919,420.92437 98.883656,406.42884 78.319419,385.8646 65.566063,367.99994 53.229522,342.47737 30.262459,294.96176 24.065775,238.69553 36.161633,187.5 43.816153,155.10236 57.445272,126.13272 77.925359,98.728294 86.684484,87.0077 110.312,63.345944 121.9057,54.684212 155.1444,29.85136 190.33728,15.100442 231.5625,8.7221054 c 16.61395,-2.5704978 52.55578,-2.3141665 68.85131,0.4910364 40.73511,7.0123672 73.94475,21.2007612 106.43049,45.4710702 11.49271,8.586273 35.19771,32.291285 43.78398,43.783991 24.84159,33.250377 39.64943,68.590307 45.94749,109.656797 2.06402,13.45841 2.31641,48.51462 0.44549,61.875 -5.94298,42.43916 -21.23993,79.81566 -46.41359,113.4068 -7.70866,10.28625 -29.88042,32.99664 -39.51392,40.47384 -12.2776,9.52947 -34.75061,24.20309 -35.50349,23.18179 -0.13934,-0.18902 -0.9267,-3.50774 -1.74969,-7.37493 -2.92005,-13.72133 -12.74565,-34.75335 -15.79294,-33.80534 -0.73089,0.22737 -3.53686,0.58243 -6.23551,0.78901 -6.44928,0.49368 -9.84068,-1.61289 -16.35676,-10.15996 l -4.98661,-6.54089 -0.25096,15.71796 c -0.24565,15.38586 -0.16154,16.16208 3.98116,36.7368 2.32767,11.56037 4.1281,21.11043 4.00096,21.22238 -0.12713,0.11195 -4.87179,1.49891 -10.54366,3.08214 -12.63453,3.52678 -27.02271,6.32836 -39.10368,7.61406 -8.42647,0.89677 -37.24155,1.10955 -44.80257,0.33083 z m 67.5,-80.87042 0,-28.07094 -6.79688,-2.1244 c -3.73828,-1.16842 -6.91149,-2.18627 -7.05158,-2.26189 -0.14008,-0.0757 0.28179,-1.71192 0.9375,-3.63621 1.07078,-3.14234 1.76516,-3.68724 6.81721,-5.34968 26.02576,-8.56409 48.44857,-27.81169 60.04248,-51.54009 l 2.57638,-5.27289 5.26809,-0.47769 c 11.41831,-1.03538 23.35199,-9.22056 27.92706,-19.15486 5.01408,-10.88755 4.73307,-21.91208 -0.84006,-32.95786 -3.84722,-7.6251 -12.68684,-14.84784 -20.18801,-16.49537 l -2.78931,-0.61264 -0.56187,-9.09664 c -1.29366,-20.94432 -11.86043,-43.20611 -26.94619,-56.7695 -10.37728,-9.33006 -21.3804,-15.27717 -36.2239,-19.57877 -7.0253,-2.0359 -8.75629,-2.12339 -42.01467,-2.12339 -33.22445,0 -34.99545,0.0892 -41.98873,2.11627 -15.13755,4.38765 -25.68295,10.08536 -36.24984,19.58589 -15.22692,13.69032 -25.7148,35.92252 -26.9457,57.11949 l -0.54856,9.44667 -3.94549,2.09307 c -5.2445,2.7822 -11.80065,9.07748 -14.80946,14.22018 -5.03994,8.61432 -5.20723,22.57104 -0.39618,33.0526 4.23976,9.23693 14.79229,17.33439 24.62599,18.89669 3.61774,0.57475 3.96929,0.9374 7.16012,7.38594 4.29596,8.68197 13.09193,20.34862 20.72528,27.48926 10.19743,9.53918 25.34045,18.60471 37.38699,22.38211 4.3196,1.35447 5.43603,2.12928 5.9039,4.09733 0.31733,1.33485 0.78371,3.12562 1.0364,3.97948 0.35813,1.21018 -0.89187,2.00215 -5.66952,3.59206 l -6.12895,2.03958 0,28.04856 0,28.04857 39.84375,0 39.84375,0 0,-28.07093 z m -58.37455,-81.07003 c -5.40398,-1.45357 -6.14188,-2.08219 -4.38215,-3.73317 1.02169,-0.95855 2.71984,-1.08649 6.97545,-0.52554 3.09375,0.4078 10.47656,0.74145 16.40625,0.74145 5.92969,0 13.3125,-0.33365 16.40625,-0.74145 4.34594,-0.57285 5.94476,-0.44056 7.03125,0.58176 1.25,1.17619 1.25,1.42024 0,2.19647 -4.66346,2.89594 -33.44229,3.89994 -42.43705,1.48048 z m -89.35456,-36.56382 c -7.76893,-3.38286 -12.42378,-10.55047 -11.20066,-17.24695 0.83986,-4.59814 2.59352,-7.14628 7.22924,-10.50438 5.99379,-4.34188 6.38698,-4.00931 6.39511,5.40923 0.007,7.42843 1.1516,17.78816 2.43539,22.03125 0.59424,1.96409 -0.85014,2.05649 -4.85908,0.31085 z m 110.59505,0.44163 c -5.27795,-1.26046 -9.45723,-5.31683 -11.42575,-11.08971 -0.83343,-2.44411 -0.66018,-5.31692 0.84804,-14.0625 2.47136,-14.33039 2.3539,-14.04246 4.57622,-11.21723 1.75917,2.23641 1.77897,2.6776 0.4572,10.18824 -0.75987,4.31783 -1.38216,9.40026 -1.38287,11.29429 -0.002,4.45838 3.59406,8.81007 8.49213,10.27757 2.01726,0.60439 4.31621,2.08857 5.10878,3.29819 1.3948,2.12874 1.35763,2.19622 -1.15871,2.10334 -1.42985,-0.0528 -3.91162,-0.40927 -5.51504,-0.79219 z m 100.34409,-1.10798 c 1.64422,-7.4566 2.41497,-14.35467 2.41497,-21.61355 0,-6.31367 0.29884,-8.26532 1.26559,-8.26532 1.87856,0 8.73835,5.22005 10.60643,8.07111 2.38858,3.64543 2.25959,11.68561 -0.24162,15.06077 -2.46548,3.32697 -8.46562,7.53231 -11.91106,8.34817 -2.39092,0.56617 -2.58081,0.42371 -2.13431,-1.60118 z M 206.71875,247.34663 c -4.05644,-1.49405 -5.15625,-2.59541 -5.15625,-5.16351 0,-5.32912 15.62773,-7.94707 24.20455,-4.05475 3.52178,1.59826 4.00951,2.17386 3.75,4.42561 -0.20545,1.78273 -1.17374,3.01902 -3.1108,3.9718 -3.47054,1.70705 -15.87697,2.22432 -19.6875,0.82084 z m 112.5,0 c -4.05644,-1.49405 -5.15625,-2.59541 -5.15625,-5.16351 0,-5.32912 15.62773,-7.94707 24.20455,-4.05475 3.52178,1.59826 4.00951,2.17386 3.75,4.42561 -0.20545,1.78273 -1.17374,3.01902 -3.1108,3.9718 -3.47054,1.70705 -15.87697,2.22432 -19.6875,0.82084 z m -96.5625,-38.46322 c -14.58363,-4.51351 -15.15348,-4.61267 -20.52926,-3.5725 -4.45622,0.86224 -5.68134,0.82976 -6.31288,-0.16739 -0.431,-0.6805 -0.65333,-1.65914 -0.49408,-2.17477 0.39541,-1.28026 6.05217,-3.16373 9.69584,-3.22834 2.39451,-0.0425 36.45765,9.70222 37.64938,10.77061 0.17682,0.15852 -0.87787,0.9017 -2.34375,1.65149 -2.49071,1.27399 -3.6476,1.05925 -17.66525,-3.2791 z m 74.55211,3.197 c -2.03044,-1.64415 -1.80917,-1.74572 14.51647,-6.66366 19.32135,-5.82037 22.16119,-6.30544 27.10967,-4.6305 3.91554,1.32532 4.74016,2.36181 3.47212,4.36418 -0.63007,0.99495 -1.58178,1.03043 -4.75072,0.17713 -4.72533,-1.27241 -6.0033,-1.03734 -23.33214,4.29166 -7.38788,2.27192 -13.77474,4.13078 -14.19302,4.13078 -0.41828,0 -1.68836,-0.75132 -2.82238,-1.66959 z"
         style="fill:#c2af76" />
      <path
         inkscape:connector-curvature="0"
         id="path4158"
         d="m 244.21875,474.67006 c -8.09671,-0.70658 -24.69908,-3.32271 -32.53292,-5.12641 -7.57184,-1.74337 -8.20313,-2.06252 -7.76136,-3.92381 0.2645,-1.11435 2.3725,-11.49176 4.68447,-23.0609 l 4.20356,-21.03482 0,-22.8481 0,-22.8481 -5.85938,4.46099 c -11.74528,8.94217 -23.32749,22.99897 -30.01666,36.42984 -3.77887,7.58739 -8.06044,21.0953 -9.22662,29.10895 -0.59657,4.09946 -1.1954,7.58534 -1.33075,7.74643 -0.50357,0.5993 -18.03315,-8.67933 -26.63215,-14.09674 C 124.23882,429.7072 113.37919,420.92437 98.883656,406.42884 78.319419,385.8646 65.566063,367.99994 53.229522,342.47737 30.262459,294.96176 24.065775,238.69553 36.161633,187.5 43.816153,155.10236 57.445272,126.13272 77.925359,98.728294 86.684484,87.0077 110.312,63.345944 121.9057,54.684212 155.1444,29.85136 190.33728,15.100442 231.5625,8.7221054 c 16.61395,-2.5704978 52.55578,-2.3141665 68.85131,0.4910364 40.73511,7.0123672 73.94475,21.2007612 106.43049,45.4710702 11.49271,8.586273 35.19771,32.291285 43.78398,43.783991 24.84159,33.250377 39.64943,68.590307 45.94749,109.656797 2.06402,13.45841 2.31641,48.51462 0.44549,61.875 -5.94298,42.43916 -21.23993,79.81566 -46.41359,113.4068 -7.70866,10.28625 -29.88042,32.99664 -39.51392,40.47384 -12.36281,9.59561 -34.71201,24.1756 -35.53461,23.18179 -0.15646,-0.18902 -0.80974,-3.08587 -1.45174,-6.43743 -1.55736,-8.13023 -6.55538,-21.20969 -11.11286,-29.08157 l -3.70361,-6.39702 3.08651,-2.99157 c 1.69759,-1.64536 4.25716,-5.58065 5.68794,-8.74508 2.17582,-4.81224 2.60607,-7.05719 2.62986,-13.72226 0.0189,-5.31307 -0.53821,-9.62226 -1.67192,-12.93032 -2.18084,-6.36355 -19.70085,-29.22919 -23.98603,-31.30456 l -2.97897,-1.44275 4.04897,-3.14636 c 12.87642,-10.00595 22.27952,-19.86349 30.22684,-31.68766 2.63981,-3.92755 4.57771,-5.60765 8.76203,-7.59644 17.42633,-8.2826 24.50924,-29.14524 15.98005,-47.06902 L 398.26072,238.59375 398.04621,213.75 C 397.85917,192.08703 397.5627,187.64929 395.73067,179.08864 389.7678,151.22573 378.79108,131.11162 358.7513,111.3264 341.21565,94.013503 317.01765,81.772175 291.30334,77.205712 c -11.39333,-2.023277 -32.15085,-2.023277 -43.54418,0 -47.37541,8.413139 -85.20859,40.965348 -100.43324,86.414178 -5.91993,17.67223 -8.26487,48.02811 -5.68299,73.56761 0.7037,6.96094 1.18003,15.39844 1.05849,18.75 -0.41734,11.50947 2.97531,21.58904 9.64798,28.66413 1.85067,1.96228 5.22538,6.54606 7.49935,10.1862 16.70779,26.74553 39.47206,44.42694 71.43511,55.48492 9.05274,3.1319 10.57957,3.95705 11.06014,5.97725 0.30665,1.28906 0.76607,3.04801 1.02095,3.90877 0.31074,1.04944 -0.24439,1.76939 -1.68515,2.1854 -1.1817,0.34121 -3.94152,1.27631 -6.13292,2.07797 l -3.98438,1.4576 0,27.99763 0,27.99763 39.84375,0 39.84375,0 0,-27.99763 0,-27.99763 -3.98437,-1.51564 c -2.19141,-0.8336 -5.36647,-1.7896 -7.05569,-2.12444 -2.42682,-0.48106 -2.96781,-0.97664 -2.57812,-2.36173 0.27125,-0.96412 0.7237,-2.5688 1.00544,-3.56597 0.35227,-1.24676 2.4752,-2.45874 6.79687,-3.88029 3.45655,-1.13699 8.2745,-3.0633 10.70658,-4.2807 2.43207,-1.21741 4.62539,-2.21347 4.87404,-2.21347 0.24864,0 -0.14181,1.42135 -0.86766,3.15857 -0.72585,1.73721 -1.59666,5.86153 -1.93513,9.16516 -0.89965,8.78118 1.30254,16.50042 7.11203,24.92946 l 4.67601,6.78446 0,15.77448 c 0,14.96138 0.21729,16.85489 4.21553,36.73439 2.31855,11.52795 4.11152,21.05149 3.98438,21.16344 -0.63506,0.55917 -21.78023,6.12652 -28.12765,7.40579 -17.64855,3.5569 -47.65508,5.20492 -65.85351,3.61681 z m 12.1875,-161.21047 c -8.72229,-2.21852 -9.02284,-2.34574 -8.11785,-3.43626 1.25406,-1.51115 45.63947,-1.47046 47.15316,0.0432 1.997,1.997 -5.91569,3.30703 -21.69156,3.59125 -8.50781,0.15328 -16.3125,0.0641 -17.34375,-0.19822 z m -92.88536,-37.28937 c -7.76893,-3.38286 -12.42378,-10.55047 -11.20066,-17.24695 0.83986,-4.59814 2.59352,-7.14628 7.22924,-10.50438 5.99379,-4.34188 6.38698,-4.00931 6.39511,5.40923 0.007,7.42843 1.1516,17.78816 2.43539,22.03125 0.59424,1.96409 -0.85014,2.05649 -4.85908,0.31085 z m 111.28173,0.39033 c -6.74805,-1.59321 -12.30455,-8.11373 -12.29963,-14.43356 0.003,-3.62245 2.2925,-18.70332 3.40488,-22.42607 0.49265,-1.64876 0.55243,-1.64876 1.80228,0 1.59077,2.09852 1.61185,6.26986 0.075,14.8436 -0.69827,3.89548 -0.87271,7.75667 -0.42796,9.47299 0.98203,3.7898 4.84139,7.57367 8.55716,8.38979 2.72378,0.59825 5.2331,2.67422 5.30584,4.38958 0.036,0.84938 -2.16186,0.76845 -6.41757,-0.23633 z m 99.65741,-1.05668 c 1.64422,-7.4566 2.41497,-14.35467 2.41497,-21.61355 0,-6.31367 0.29884,-8.26532 1.26559,-8.26532 1.87856,0 8.73835,5.22005 10.60643,8.07111 2.38858,3.64543 2.25959,11.68561 -0.24162,15.06077 -2.46548,3.32697 -8.46562,7.53231 -11.91106,8.34817 -2.39092,0.56617 -2.58081,0.42371 -2.13431,-1.60118 z M 206.83574,247.11716 c -1.99815,-0.74356 -4.05554,-1.77446 -4.57198,-2.2909 -1.72191,-1.72191 0.0761,-5.46893 3.27119,-6.81696 3.91132,-1.65024 16.22155,-1.67035 20.10081,-0.0328 4.95046,2.08969 5.20878,6.36181 0.5181,8.56822 -3.89535,1.83228 -15.04477,2.16269 -19.31812,0.57248 z m 112.5,0 c -1.99815,-0.74356 -4.05554,-1.77446 -4.57198,-2.2909 -1.72191,-1.72191 0.0761,-5.46893 3.27119,-6.81696 3.91132,-1.65024 16.22155,-1.67035 20.10081,-0.0328 4.95046,2.08969 5.20878,6.36181 0.5181,8.56822 -3.89535,1.83228 -15.04477,2.16269 -19.31812,0.57248 z M 150.41145,231.97595 c -1.17929,-7.86411 0.20583,-31.11044 2.37078,-39.78845 5.68282,-22.77907 14.9575,-39.98417 30.00949,-55.66942 10.4048,-10.84254 20.56411,-18.5124 32.66594,-24.66139 18.33053,-9.31385 35.57231,-13.408727 56.48651,-13.415421 34.64944,-0.01106 64.95508,12.956461 88.99333,38.079511 15.11115,15.7931 24.31892,32.8552 30.04124,55.66672 2.0385,8.12631 3.74245,36.42937 2.40329,39.91918 -0.54567,1.422 -0.7763,1.43953 -2.2297,0.16952 -0.89159,-0.77909 -2.88157,-2.06103 -4.42217,-2.84876 l -2.80108,-1.43223 -0.1865,-10.63823 c -0.22391,-12.77284 -1.41194,-20.73645 -4.63154,-31.04616 -13.58047,-43.48705 -51.17858,-73.53725 -97.00662,-77.53233 -53.34921,-4.65073 -101.09194,26.54743 -117.10275,76.52246 -3.62256,11.30717 -4.79875,19.02198 -4.99548,32.76608 l -0.16244,11.34827 -2.8125,2.26771 c -6.37858,5.14302 -5.89568,5.12165 -6.6198,0.29294 z m 147.24727,-19.86902 c -2.72285,-1.42665 -2.66162,-1.45549 13.60986,-6.41111 19.81023,-6.03336 21.81985,-6.39244 27.09766,-4.84187 4.38872,1.28936 5.24222,2.23992 3.90669,4.35098 -0.65944,1.0424 -1.42408,1.08865 -3.87466,0.23438 -1.67918,-0.58537 -4.08569,-1.06431 -5.34778,-1.06431 -1.73297,0 -21.41013,5.49468 -31.68168,8.84684 -0.53623,0.17499 -2.20576,-0.32672 -3.71009,-1.11491 z m -75.93997,-3.65044 c -13.06647,-4.15656 -17.22364,-4.62788 -23.54258,-2.66919 -1.40146,0.43441 -2.16384,0.13494 -2.60887,-1.02478 -0.88111,-2.29615 0.21481,-3.07143 6.05495,-4.28344 4.93225,-1.0236 5.67892,-0.87985 23.16839,4.46028 15.42576,4.71001 17.83608,5.69039 16.46144,6.69555 -2.46911,1.80545 -5.32901,1.3401 -19.53333,-3.17842 z"
         style="fill:#ca7a6f" />
      <path
         inkscape:connector-curvature="0"
         id="path4156"
         d="m 244.21875,474.67006 c -8.09671,-0.70658 -24.69908,-3.32271 -32.53292,-5.12641 -7.57184,-1.74337 -8.20313,-2.06252 -7.76136,-3.92381 0.2645,-1.11435 2.3725,-11.49176 4.68447,-23.0609 l 4.20356,-21.03482 0,-22.8481 0,-22.8481 -5.85938,4.46099 c -11.74528,8.94217 -23.32749,22.99897 -30.01666,36.42984 -3.77887,7.58739 -8.06044,21.0953 -9.22662,29.10895 -0.59657,4.09946 -1.1954,7.58534 -1.33075,7.74643 -0.50357,0.5993 -18.03315,-8.67933 -26.63215,-14.09674 C 124.23882,429.7072 113.37919,420.92437 98.883656,406.42884 78.319419,385.8646 65.566063,367.99994 53.229522,342.47737 30.262459,294.96176 24.065775,238.69553 36.161633,187.5 43.816153,155.10236 57.445272,126.13272 77.925359,98.728294 86.684484,87.0077 110.312,63.345944 121.9057,54.684212 155.1444,29.85136 190.33728,15.100442 231.5625,8.7221054 c 16.61395,-2.5704978 52.55578,-2.3141665 68.85131,0.4910364 40.73511,7.0123672 73.94475,21.2007612 106.43049,45.4710702 11.49271,8.586273 35.19771,32.291285 43.78398,43.783991 24.84159,33.250377 39.64943,68.590307 45.94749,109.656797 2.06402,13.45841 2.31641,48.51462 0.44549,61.875 -5.94298,42.43916 -21.23993,79.81566 -46.41359,113.4068 -7.70866,10.28625 -29.88042,32.99664 -39.51392,40.47384 -12.36281,9.59561 -34.71201,24.1756 -35.53461,23.18179 -0.15646,-0.18902 -0.80974,-3.08587 -1.45174,-6.43743 -1.55736,-8.13023 -6.55538,-21.20969 -11.11286,-29.08157 l -3.70361,-6.39702 3.08651,-2.99157 c 1.69759,-1.64536 4.25716,-5.58065 5.68794,-8.74508 2.17582,-4.81224 2.60607,-7.05719 2.62986,-13.72226 0.0189,-5.31307 -0.53821,-9.62226 -1.67192,-12.93032 -2.18084,-6.36355 -19.70085,-29.22919 -23.98603,-31.30456 l -2.97897,-1.44275 4.04897,-3.14636 c 12.87642,-10.00595 22.27952,-19.86349 30.22684,-31.68766 2.63981,-3.92755 4.57771,-5.60765 8.76203,-7.59644 17.42633,-8.2826 24.50924,-29.14524 15.98005,-47.06902 L 398.26072,238.59375 398.04621,213.75 C 397.85917,192.08703 397.5627,187.64929 395.73067,179.08864 389.7678,151.22573 378.79108,131.11162 358.7513,111.3264 341.21565,94.013503 317.01765,81.772175 291.30334,77.205712 c -11.39333,-2.023277 -32.15085,-2.023277 -43.54418,0 -47.37541,8.413139 -85.20859,40.965348 -100.43324,86.414178 -5.91993,17.67223 -8.26487,48.02811 -5.68299,73.56761 0.7037,6.96094 1.18003,15.39844 1.05849,18.75 -0.41734,11.50947 2.97531,21.58904 9.64798,28.66413 1.85067,1.96228 5.22538,6.54606 7.49935,10.1862 16.70779,26.74553 39.47206,44.42694 71.43511,55.48492 9.05274,3.1319 10.57957,3.95705 11.06014,5.97725 0.30665,1.28906 0.76607,3.04801 1.02095,3.90877 0.31074,1.04944 -0.24439,1.76939 -1.68515,2.1854 -1.1817,0.34121 -3.94152,1.27631 -6.13292,2.07797 l -3.98438,1.4576 0,27.99763 0,27.99763 39.84375,0 39.84375,0 0,-27.99763 0,-27.99763 -3.98437,-1.51564 c -2.19141,-0.8336 -5.36647,-1.7896 -7.05569,-2.12444 -2.42682,-0.48106 -2.96781,-0.97664 -2.57812,-2.36173 0.27125,-0.96412 0.7237,-2.5688 1.00544,-3.56597 0.35227,-1.24676 2.4752,-2.45874 6.79687,-3.88029 3.45655,-1.13699 8.2745,-3.0633 10.70658,-4.2807 2.43207,-1.21741 4.62539,-2.21347 4.87404,-2.21347 0.24864,0 -0.23657,1.58203 -1.07825,3.51562 -1.05569,2.42527 -1.53571,6.27788 -1.54769,12.42188 -0.0199,10.20549 1.55336,14.79263 7.89084,23.00719 l 3.72035,4.82225 0,15.90985 c 0,15.12177 0.20881,16.94805 4.21553,36.86973 2.31855,11.52795 4.11152,21.05149 3.98438,21.16344 -0.63506,0.55917 -21.78023,6.12652 -28.12765,7.40579 -17.64855,3.5569 -47.65508,5.20492 -65.85351,3.61681 z m 9.375,-161.98936 c -2.57813,-0.74138 -5.05556,-1.36657 -5.50541,-1.38933 -0.44986,-0.0228 -0.3803,-0.56871 0.15458,-1.21325 1.14059,-1.37441 44.8585,-1.60089 47.05438,-0.24376 5.17545,3.1986 -31.72127,5.71686 -41.70355,2.84634 z m 21.20887,-36.12015 c -6.74414,-1.59229 -12.30139,-8.11111 -12.30452,-14.43356 -0.002,-3.4726 2.34799,-18.84169 3.36322,-21.9982 0.32883,-1.0224 0.68943,-1.04627 1.80602,-0.11958 1.73985,1.44393 1.76165,5.08872 0.0831,13.89037 -1.52086,7.97484 -0.82171,11.83597 2.79879,15.45647 1.32001,1.32 3.73431,2.69306 5.36512,3.05125 2.72379,0.59825 5.2331,2.67422 5.30584,4.38957 0.036,0.84939 -2.16186,0.76845 -6.41756,-0.23632 z M 207.0538,246.96694 c -7.17198,-2.208 -7.2361,-6.81423 -0.12858,-9.23601 5.5222,-1.8816 11.86384,-1.88621 17.36254,-0.0127 7.35641,2.50659 7.13569,7.04012 -0.45244,9.29356 -5.85856,1.73981 -11.02934,1.72596 -16.78152,-0.0449 z m 112.5,0 c -7.17197,-2.208 -7.2361,-6.81423 -0.12858,-9.23601 5.5222,-1.8816 11.86384,-1.88621 17.36254,-0.0127 7.35641,2.50659 7.13569,7.04012 -0.45244,9.29356 -5.85856,1.73981 -11.02935,1.72596 -16.78152,-0.0449 z M 150.41751,230.00077 c -0.91341,-8.52925 0.007,-25.47777 1.87543,-34.53202 2.32835,-11.28338 4.87788,-18.61604 10.43085,-30 15.93091,-32.65947 46.82847,-56.49124 83.83871,-64.66611 10.62633,-2.347149 33.12259,-2.88069 44.28454,-1.050278 24.82101,4.070318 46.92826,14.864608 64.92141,31.699148 17.89356,16.74137 29.90003,37.89265 35.27486,62.14224 1.98054,8.93558 3.38631,30.77085 2.3401,36.34764 l -0.62282,3.31991 -4.42716,-2.95877 -4.42718,-2.95878 -0.0765,-10.3125 c -0.13656,-18.40523 -3.71152,-32.77569 -12.24423,-49.21875 -17.4135,-33.55688 -49.68365,-55.18104 -88.2845,-59.15926 -45.86515,-4.72687 -89.81753,18.4497 -110.79805,58.42504 -8.78258,16.73396 -12.21221,30.31286 -12.68812,50.23609 l -0.29789,12.47062 -4.21649,3.21953 -4.2165,3.21954 -0.66645,-6.22329 z m 147.24121,-17.89384 c -2.72285,-1.42665 -2.66162,-1.45549 13.60986,-6.41111 19.81023,-6.03336 21.81985,-6.39244 27.09766,-4.84187 4.38872,1.28936 5.24222,2.23992 3.90669,4.35098 -0.65944,1.0424 -1.42408,1.08865 -3.87466,0.23438 -1.67918,-0.58537 -4.08569,-1.06431 -5.34778,-1.06431 -1.73297,0 -21.41013,5.49468 -31.68168,8.84684 -0.53623,0.17499 -2.20576,-0.32672 -3.71009,-1.11491 z m -75.93997,-3.65044 c -13.06647,-4.15656 -17.22364,-4.62788 -23.54258,-2.66919 -1.40146,0.43441 -2.16384,0.13494 -2.60887,-1.02478 -0.88111,-2.29615 0.21481,-3.07143 6.05495,-4.28344 4.93225,-1.0236 5.67892,-0.87985 23.16839,4.46028 15.42576,4.71001 17.83608,5.69039 16.46144,6.69555 -2.46911,1.80545 -5.32901,1.3401 -19.53333,-3.17842 z"
         style="fill:#6eae91" />
      <path
         inkscape:connector-curvature="0"
         id="path4154"
         d="m 241.875,474.24578 c -9.1835,-0.9422 -21.97322,-3.05207 -31.14056,-5.13715 -4.85092,-1.10331 -6.35944,-1.83174 -6.35944,-3.07084 0,-0.89342 1.89844,-11.06356 4.21875,-22.60029 l 4.21875,-20.97588 0,-23.3071 0,-23.3071 -4.45313,3.04734 c -7.13086,4.87976 -19.09574,17.47719 -24.79442,26.10524 -8.34615,12.63644 -16.65849,34.67938 -16.68338,44.24154 -0.004,1.38754 -0.45708,2.80123 -1.0077,3.14153 -1.44501,0.89308 -18.39019,-8.02666 -30.40512,-16.0049 C 100.91439,413.43314 73.259208,382.28246 55.366885,346.15176 42.701768,320.57657 35.321416,296.20377 31.739517,268.125 29.964969,254.2142 30.233326,223.59563 32.253062,209.53125 42.014199,141.55977 78.825244,83.128026 135.68527,45.348885 163.7742,26.685934 197.74462,13.921133 232.96875,8.7934304 246.82169,6.7768087 279.36585,6.5165309 292.5,8.3173186 346.43506,15.712208 392.72337,38.342453 429.84671,75.46579 c 36.3919,36.39189 59.09292,82.03828 66.67392,134.06546 1.99731,13.70721 2.22806,44.09658 0.4449,58.59375 -5.10448,41.49986 -21.42381,82.06614 -45.99041,114.32203 -17.22217,22.6127 -41.02977,44.15867 -64.61702,58.47869 -10.51263,6.3823 -10.95228,6.42571 -11.67505,1.15247 -1.11056,-8.10239 -8.30615,-26.38061 -13.72802,-34.8719 -1.17551,-1.84097 -0.95741,-2.38461 2.55957,-6.38012 8.41311,-9.55779 10.0386,-26.83972 3.61958,-38.48242 -3.38557,-6.14068 -18.31576,-24.69733 -21.27932,-26.44794 -1.5113,-0.89276 -2.63831,-1.88638 -2.50447,-2.20807 0.13385,-0.32168 4.06213,-3.77777 8.72951,-7.68017 9.19602,-7.68882 16.28209,-15.38471 23.28929,-25.29353 3.36573,-4.75946 5.49582,-6.77217 8.63822,-8.1622 19.05704,-8.42984 26.71186,-32.35937 16.10319,-50.33974 -1.56492,-2.65235 -1.77537,-5.57226 -2.02765,-28.13269 -0.30955,-27.68212 -1.27387,-35.4085 -6.30052,-50.48155 -16.4636,-49.3682 -58.79089,-82.773123 -111.18437,-87.747306 -69.24607,-6.574149 -131.42943,44.567556 -138.93437,114.264336 -1.30429,12.11277 -1.33376,39.3768 -0.0539,49.88511 0.5338,4.38281 0.9455,11.81111 0.91489,16.50734 -0.0381,5.83509 0.49786,10.31702 1.69253,14.15549 1.70814,5.48827 5.98811,12.72188 9.01229,15.23171 0.832,0.6905 4.76469,6.15061 8.73933,12.13358 10.86152,16.34975 25.88445,30.74644 42.02569,40.27384 6.74475,3.98109 20.2412,9.87922 31.30018,13.67859 5.75484,1.97711 6.13565,2.29371 7.2061,5.99093 0.6216,2.14694 0.75091,3.90352 0.28736,3.90352 -0.46354,0 -3.17896,0.87406 -6.03424,1.94236 l -5.19142,1.94236 0,28.05764 0,28.05764 39.84375,0 39.84375,0 0,-28.05764 0,-28.05764 -5.19142,-1.94236 c -2.85527,-1.0683 -5.8084,-1.94236 -6.5625,-1.94236 -1.44529,0 -1.71933,-1.88634 -0.78207,-5.38342 0.39859,-1.48723 1.69752,-2.40491 4.44032,-3.13705 2.13231,-0.56917 6.93551,-2.4434 10.67379,-4.16495 3.73829,-1.72155 6.79688,-2.98066 6.79688,-2.79805 0,0.18262 -0.68376,3.001 -1.51946,6.26309 -2.89582,11.30348 -0.43288,22.36749 7.17411,32.22757 l 3.72035,4.82225 0,16.37184 c 0,15.59798 0.19381,17.33639 4.10026,36.77853 l 4.10027,20.4067 -1.9909,0.75447 c -4.58116,1.73612 -20.51626,5.69595 -30.11588,7.48374 -19.69264,3.66744 -44.78153,4.74028 -64.21875,2.74606 z m 15.46875,-160.73816 c -8.22435,-1.94577 -9.8117,-2.57287 -8.99715,-3.55444 1.17236,-1.41275 46.25082,-1.31716 46.7229,0.0991 0.71324,2.13971 -6.17372,3.33306 -20.85075,3.61293 -8.25,0.15732 -15.84375,0.0864 -16.875,-0.15756 z m 17.8125,-36.87829 c -6.359,-1.53462 -11.21753,-6.2855 -12.29355,-12.02115 -0.6753,-3.59968 2.08329,-23.43976 3.47397,-24.98518 0.42475,-0.472 1.26786,0.26655 1.9079,1.67128 0.92977,2.04063 0.84973,4.19377 -0.42289,11.37612 -1.4442,8.15072 -1.44978,9.15881 -0.0698,12.60759 1.46929,3.67214 6.08824,7.53451 9.0104,7.53451 1.36186,0 4.48777,2.82669 4.48777,4.05819 0,0.76308 -2.31094,0.67154 -6.09375,-0.24136 z m -67.37176,-29.48779 c -9.33423,-2.62175 -7.99825,-7.95639 2.54646,-10.16816 9.61425,-2.01661 20.47961,1.76127 18.94764,6.58808 -1.19525,3.76589 -13.52241,5.81912 -21.4941,3.58008 z m 112.5,0 c -9.33423,-2.62175 -7.99825,-7.95639 2.54646,-10.16816 9.61425,-2.01661 20.47961,1.76127 18.94764,6.58808 -1.19525,3.76589 -13.52241,5.81912 -21.4941,3.58008 z M 150.41751,230.00077 c -0.91341,-8.52925 0.007,-25.47777 1.87543,-34.53202 2.32835,-11.28338 4.87788,-18.61604 10.43085,-30 15.93091,-32.65947 46.82847,-56.49124 83.83871,-64.66611 10.62633,-2.347149 33.12259,-2.88069 44.28454,-1.050278 24.82101,4.070318 46.92826,14.864608 64.92141,31.699148 17.89356,16.74137 29.90003,37.89265 35.27486,62.14224 1.98054,8.93558 3.38631,30.77085 2.3401,36.34764 l -0.62282,3.31991 -4.42716,-2.95877 -4.42718,-2.95878 -0.0765,-10.3125 c -0.13656,-18.40523 -3.71152,-32.77569 -12.24423,-49.21875 -17.4135,-33.55688 -49.68365,-55.18104 -88.2845,-59.15926 -45.86515,-4.72687 -89.81753,18.4497 -110.79805,58.42504 -8.78258,16.73396 -12.21221,30.31286 -12.68812,50.23609 l -0.29789,12.47062 -4.21649,3.21953 -4.2165,3.21954 -0.66645,-6.22329 z m 147.58133,-18.03942 c -1.85514,-1.5022 -1.29316,-1.75551 14.33202,-6.46004 16.73341,-5.0382 23.64121,-5.95944 28.40628,-3.78832 2.58225,1.17655 2.76143,1.55921 1.5926,3.40146 -0.57776,0.91064 -1.3974,0.96837 -3.32793,0.23438 -4.43609,-1.6866 -8.33227,-1.09981 -23.91094,3.6011 -14.36041,4.33331 -15.26315,4.49236 -17.09203,3.01142 z m -75.34259,-3.42294 c -13.31493,-4.18711 -18.91352,-4.94592 -23.53306,-3.18958 -1.93053,0.73399 -2.75017,0.67626 -3.32793,-0.23438 -1.20774,-1.90359 -0.97721,-2.31161 2.00369,-3.54633 5.29586,-2.19362 11.16882,-1.39735 27.98247,3.79395 14.14618,4.3677 16.03477,5.17484 14.58645,6.23387 -2.3162,1.69365 -2.95195,1.5839 -17.71162,-3.05753 z"
         style="fill:#468f62" />
      <path
         inkscape:connector-curvature="0"
         id="path4152"
         d="m 242.34375,474.25342 c -9.34416,-0.89224 -21.8908,-2.93436 -31.60931,-5.14479 -4.85092,-1.10331 -6.35944,-1.83174 -6.35944,-3.07084 0,-0.89342 1.89844,-11.06356 4.21875,-22.60029 l 4.21875,-20.97588 0,-23.31506 0,-23.31506 -2.95156,1.69362 c -4.70285,2.69853 -18.10019,15.77516 -23.16816,22.61353 -9.568,12.91044 -16.61701,29.12715 -19.24601,44.27666 -0.72328,4.16788 -1.54759,7.81052 -1.83183,8.09474 -0.28422,0.28423 -5.07402,-1.89245 -10.64398,-4.83706 C 100.38939,418.81796 58.164589,367.73592 40.878281,309.64781 33.461213,284.72384 30.751755,266.01355 30.792499,240 30.841359,208.80339 35.969796,182.07495 47.344736,153.73284 77.698477,78.102658 144.68904,24.189301 225.59265,10.280663 c 70.56041,-12.1304763 145.37033,10.193164 197.48537,58.930596 41.20528,38.534731 65.26667,85.151011 73.39514,142.194991 1.97671,13.87215 1.97566,43.26952 -0.002,58.23826 -8.10196,61.32066 -37.99232,115.12277 -85.1172,153.2094 -12.73303,10.29091 -33.95994,24.22753 -35.12561,23.06186 -0.22692,-0.22691 -1.03706,-3.0922 -1.80033,-6.36729 -2.08295,-8.93776 -5.62322,-18.19901 -10.20758,-26.70273 l -4.10956,-7.62301 2.32873,-2.18772 c 1.2808,-1.20325 3.65393,-4.87959 5.27361,-8.16963 2.38235,-4.83925 3.02238,-7.45856 3.35062,-13.71242 0.61918,-11.797 -1.03242,-16.17851 -11.12967,-29.52573 -4.64439,-6.13926 -10.11548,-12.67206 -12.15798,-14.51732 -2.04268,-1.84528 -3.71381,-3.54775 -3.71381,-3.78329 0,-0.23553 2.00391,-1.94655 4.45312,-3.80228 7.89029,-5.97829 19.75896,-18.3649 25.77844,-26.90339 4.97943,-7.06319 6.59884,-8.6532 10.75413,-10.55884 7.02098,-3.21987 13.57181,-9.73272 16.78351,-16.6862 2.40479,-5.2065 2.69955,-6.86833 2.69955,-15.21967 0,-8.63226 -0.24139,-9.88469 -3.04688,-15.80838 l -3.04687,-6.43339 -0.004,-22.62911 c -0.005,-30.25106 -2.45782,-44.60175 -10.91466,-63.85936 -8.13991,-18.53591 -23.85104,-38.45194 -39.9575,-50.65166 C 311.04666,73.11671 258.792,67.193786 217.19041,85.997178 c -15.9123,7.192165 -25.7516,13.846122 -37.5292,25.379642 -20.68556,20.25685 -33.15425,44.54928 -37.75813,73.56321 -1.17413,7.39942 -1.34629,14.15282 -0.89621,35.15625 0.87381,40.77815 1.51128,48.3567 4.64211,55.18848 1.45018,3.16443 4.10652,7.17224 5.90297,8.90625 1.79646,1.73401 4.78982,5.68399 6.65192,8.77774 7.88871,13.10657 20.39019,27.25018 32.57701,36.85613 10.65315,8.39708 24.79408,15.64333 41.25,21.13776 9.20639,3.07389 9.27914,3.12382 10.39676,7.13289 l 0.90652,3.25179 -5.65165,1.94579 -5.65163,1.94579 -0.24812,28.31805 -0.24813,28.31805 39.87125,0 39.87125,0 -0.24813,-28.31805 -0.24812,-28.31805 -6.09375,-2.09803 c -4.09836,-1.41103 -6.06817,-2.57575 -6.01563,-3.55695 0.24312,-4.54005 0.47058,-4.76051 7.19659,-6.97555 3.73328,-1.22945 8.35301,-3.02242 10.26606,-3.98437 1.91306,-0.96195 3.66474,-1.749 3.89263,-1.749 0.22789,0 -0.17718,1.96549 -0.90015,4.36775 -3.33622,11.0854 -0.75223,23.39324 7.02875,33.47884 l 3.84425,4.98285 0,16.37184 c 0,15.59798 0.19381,17.33639 4.10026,36.77853 l 4.10027,20.4067 -1.9909,0.75447 c -4.55845,1.72751 -20.50198,5.69385 -30.11588,7.49208 -19.27648,3.60554 -43.71842,4.65813 -63.75,2.74536 z m 15,-160.7458 c -8.22435,-1.94577 -9.8117,-2.57287 -8.99715,-3.55444 1.17236,-1.41275 46.25082,-1.31716 46.7229,0.0991 0.71324,2.13971 -6.17372,3.33306 -20.85075,3.61293 -8.25,0.15732 -15.84375,0.0864 -16.875,-0.15756 z m 17.8125,-36.87829 c -6.359,-1.53462 -11.21753,-6.2855 -12.29355,-12.02115 -0.6753,-3.59968 2.08329,-23.43976 3.47397,-24.98518 0.42475,-0.472 1.26786,0.26655 1.9079,1.67128 0.92977,2.04063 0.84973,4.19377 -0.42289,11.37612 -1.4442,8.15072 -1.44978,9.15881 -0.0698,12.60759 1.46929,3.67214 6.08824,7.53451 9.0104,7.53451 1.36186,0 4.48777,2.82669 4.48777,4.05819 0,0.76308 -2.31094,0.67154 -6.09375,-0.24136 z m -67.37176,-29.48779 c -9.33423,-2.62175 -7.99825,-7.95639 2.54646,-10.16816 9.61425,-2.01661 20.47961,1.76127 18.94764,6.58808 -1.19525,3.76589 -13.52241,5.81912 -21.4941,3.58008 z m 112.5,0 c -9.33423,-2.62175 -7.99825,-7.95639 2.54646,-10.16816 9.61425,-2.01661 20.47961,1.76127 18.94764,6.58808 -1.19525,3.76589 -13.52241,5.81912 -21.4941,3.58008 z M 150.41751,230.00077 c -0.91341,-8.52925 0.007,-25.47777 1.87543,-34.53202 2.32835,-11.28338 4.87788,-18.61604 10.43085,-30 15.93091,-32.65947 46.82847,-56.49124 83.83871,-64.66611 10.62633,-2.347149 33.12259,-2.88069 44.28454,-1.050278 24.82101,4.070318 46.92826,14.864608 64.92141,31.699148 17.89356,16.74137 29.90003,37.89265 35.27486,62.14224 1.98054,8.93558 3.38631,30.77085 2.3401,36.34764 l -0.62282,3.31991 -4.42716,-2.95877 -4.42718,-2.95878 -0.0765,-10.3125 c -0.13656,-18.40523 -3.71152,-32.77569 -12.24423,-49.21875 -17.4135,-33.55688 -49.68365,-55.18104 -88.2845,-59.15926 -45.86515,-4.72687 -89.81753,18.4497 -110.79805,58.42504 -8.78258,16.73396 -12.21221,30.31286 -12.68812,50.23609 l -0.29789,12.47062 -4.21649,3.21953 -4.2165,3.21954 -0.66645,-6.22329 z m 147.58133,-18.03942 c -1.85514,-1.5022 -1.29316,-1.75551 14.33202,-6.46004 16.73341,-5.0382 23.64121,-5.95944 28.40628,-3.78832 2.58225,1.17655 2.76143,1.55921 1.5926,3.40146 -0.57776,0.91064 -1.3974,0.96837 -3.32793,0.23438 -4.43609,-1.6866 -8.33227,-1.09981 -23.91094,3.6011 -14.36041,4.33331 -15.26315,4.49236 -17.09203,3.01142 z m -75.34259,-3.42294 c -13.31493,-4.18711 -18.91352,-4.94592 -23.53306,-3.18958 -1.93053,0.73399 -2.75017,0.67626 -3.32793,-0.23438 -1.20774,-1.90359 -0.97721,-2.31161 2.00369,-3.54633 5.29586,-2.19362 11.16882,-1.39735 27.98247,3.79395 14.14618,4.3677 16.03477,5.17484 14.58645,6.23387 -2.3162,1.69365 -2.95195,1.5839 -17.71162,-3.05753 z"
         style="fill:#51565b" />
      <path
         inkscape:connector-curvature="0"
         id="path4150"
         d="m 247.91653,474.34219 c -17.91329,-1.37486 -42.38571,-5.80739 -43.15675,-7.81671 -0.22518,-0.58681 1.36252,-9.50212 3.52823,-19.81183 l 3.93766,-18.7449 0.52779,-26.3699 0.52779,-26.36989 -4.21875,2.87154 c -6.13538,4.17612 -17.28426,15.1844 -22.49572,22.212 -9.43563,12.72384 -16.50395,29.02788 -19.12001,44.10281 -0.72328,4.16788 -1.54759,7.81052 -1.83183,8.09474 -0.28422,0.28423 -5.07402,-1.89245 -10.64398,-4.83706 C 100.38939,418.81796 58.164589,367.73592 40.878281,309.64781 33.461213,284.72384 30.751755,266.01355 30.792499,240 30.841359,208.80339 35.969796,182.07495 47.344736,153.73284 77.698477,78.102658 144.68904,24.189301 225.59265,10.280663 c 70.56041,-12.1304763 145.37033,10.193164 197.48537,58.930596 41.20528,38.534731 65.26667,85.151011 73.39514,142.194991 1.97671,13.87215 1.97566,43.26952 -0.002,58.23826 -8.10196,61.32066 -37.99232,115.12277 -85.1172,153.2094 -12.73303,10.29091 -33.95994,24.22753 -35.12561,23.06186 -0.22692,-0.22691 -1.03706,-3.0922 -1.80033,-6.36729 -2.08295,-8.93776 -5.62322,-18.19901 -10.20758,-26.70273 l -4.10956,-7.62301 2.32873,-2.18772 c 1.2808,-1.20325 3.65393,-4.87959 5.27361,-8.16963 2.38235,-4.83925 3.02238,-7.45856 3.35062,-13.71242 0.61918,-11.797 -1.03242,-16.17851 -11.12967,-29.52573 -4.64439,-6.13926 -10.11548,-12.67206 -12.15798,-14.51732 -2.04268,-1.84528 -3.71381,-3.54775 -3.71381,-3.78329 0,-0.23553 2.00391,-1.94655 4.45312,-3.80228 7.89029,-5.97829 19.75896,-18.3649 25.77844,-26.90339 4.97943,-7.06319 6.59884,-8.6532 10.75413,-10.55884 7.02098,-3.21987 13.57181,-9.73272 16.78351,-16.6862 2.40479,-5.2065 2.69955,-6.86833 2.69955,-15.21967 0,-8.63226 -0.24139,-9.88469 -3.04688,-15.80838 l -3.04687,-6.43339 -0.004,-22.62911 c -0.005,-30.25106 -2.45782,-44.60175 -10.91466,-63.85936 -8.13991,-18.53591 -23.85104,-38.45194 -39.9575,-50.65166 C 311.04666,73.11671 258.792,67.193786 217.19041,85.997178 c -15.9123,7.192165 -25.7516,13.846122 -37.5292,25.379642 -20.68556,20.25685 -33.15425,44.54928 -37.75813,73.56321 -1.17413,7.39942 -1.34629,14.15282 -0.89621,35.15625 0.87381,40.77815 1.51128,48.3567 4.64211,55.18848 1.45018,3.16443 4.10652,7.17224 5.90297,8.90625 1.79646,1.73401 4.78982,5.68399 6.65192,8.77774 7.88871,13.10657 20.39019,27.25018 32.57701,36.85613 10.65315,8.39708 24.79408,15.64333 41.25,21.13776 9.20403,3.07311 9.27943,3.12479 10.39392,7.12298 l 0.90367,3.24186 -7.08063,2.47817 c -7.06221,2.47173 -13.49473,5.49041 -11.71696,5.4986 0.51563,0.003 1.99219,-0.59861 3.28125,-1.3355 1.28906,-0.73689 2.66016,-1.35476 3.04688,-1.37303 0.38671,-0.0183 0.70312,12.41209 0.70312,27.62303 l 0,27.65625 39.84375,0 39.84375,0 0,-27.65625 c 0,-15.21094 0.19662,-27.65625 0.43694,-27.65625 0.24032,0 1.85149,0.67455 3.58037,1.49899 2.43618,1.16174 3.37967,2.38232 4.19347,5.42506 0.57754,2.15933 3.18512,6.85466 5.79464,10.43405 l 4.74458,6.508 -0.003,16.42633 c -0.003,15.4809 0.21684,17.52358 3.81957,35.49077 2.10251,10.48544 3.62831,19.57114 3.39066,20.19046 -0.85884,2.23809 -27.86612,8.70512 -45.17581,10.81757 -11.4774,1.40069 -32.58232,1.87358 -44.11472,0.98846 z m 67.69272,-107.00231 c -0.95397,-0.53658 -5.17272,-2.17897 -9.375,-3.64974 -5.23011,-1.83051 -7.61585,-3.13014 -7.56238,-4.11963 0.24463,-4.52619 0.47423,-4.7483 7.19659,-6.96214 3.73328,-1.22945 8.35301,-3.02242 10.26606,-3.98437 4.49864,-2.26207 4.63654,-2.22853 3.40928,0.82912 -0.56913,1.41797 -1.29697,6.24209 -1.61741,10.72026 -0.54177,7.5711 -0.70428,8.0737 -2.31714,7.1665 z M 151.46797,234.19246 c -1.00687,-3.17574 -1.21175,-16.3224 -0.40335,-25.8817 5.6277,-66.54691 63.48436,-114.461966 131.5009,-108.904879 52.21992,4.266479 95.55591,41.091249 107.47341,91.325559 2.27533,9.5909 3.73903,27.25957 2.92934,35.36079 l -0.62452,6.24849 -3.98438,-2.3593 -3.98437,-2.35931 0,-9.62575 c 0,-29.8082 -12.10071,-57.91609 -33.95995,-78.8832 -13.7144,-13.15468 -28.5608,-21.67749 -47.13027,-27.05589 -11.25844,-3.26085 -18.40186,-4.204 -32.00934,-4.2262 -29.36326,-0.0479 -56.34748,10.69712 -77.59839,30.89944 -22.27318,21.17414 -34.30205,49.27782 -34.30205,80.14164 l 0,10.50154 -3.75953,3.02124 c -2.59288,2.08369 -3.87993,2.6415 -4.1475,1.79753 z"
         style="fill:#00713e" />
      <path
         inkscape:connector-curvature="0"
         id="path4148"
         d="m 247.91653,474.34219 c -17.90195,-1.37398 -42.38564,-5.80722 -43.15578,-7.81416 -0.22463,-0.5854 1.49511,-10.52889 3.82166,-22.09664 l 4.23009,-21.03227 0,-23.6504 0,-23.65039 4.48396,-2.75901 c 3.88567,-2.39089 12.89237,-6.77682 13.91646,-6.77682 0.19227,0 0.34958,12.44531 0.34958,27.65625 l 0,27.65625 39.84375,0 39.84375,0 0,-27.65625 c 0,-15.21094 0.19662,-27.65625 0.43694,-27.65625 0.24032,0 1.85149,0.67455 3.58037,1.49899 2.43618,1.16174 3.37967,2.38232 4.19347,5.42506 0.57754,2.15933 3.18512,6.85466 5.79464,10.43405 l 4.74458,6.508 -0.003,16.42633 c -0.003,15.4809 0.21684,17.52358 3.81957,35.49077 2.10251,10.48544 3.62831,19.57114 3.39066,20.19046 -0.85884,2.23809 -27.86612,8.70512 -45.17581,10.81757 -11.4774,1.4007 -32.58232,1.87358 -44.11472,0.98846 z M 151.46797,234.19246 c -1.00687,-3.17574 -1.21175,-16.3224 -0.40335,-25.8817 5.6277,-66.54691 63.48436,-114.461966 131.5009,-108.904879 52.21992,4.266479 95.55591,41.091249 107.47341,91.325559 2.27533,9.5909 3.73903,27.25957 2.92934,35.36079 l -0.62452,6.24849 -3.98438,-2.3593 -3.98437,-2.35931 0,-9.62575 c 0,-29.8082 -12.10071,-57.91609 -33.95995,-78.8832 -13.7144,-13.15468 -28.5608,-21.67749 -47.13027,-27.05589 -11.25844,-3.26085 -18.40186,-4.204 -32.00934,-4.2262 -29.36326,-0.0479 -56.34748,10.69712 -77.59839,30.89944 -22.27318,21.17414 -34.30205,49.27782 -34.30205,80.14164 l 0,10.50154 -3.75953,3.02124 c -2.59288,2.08369 -3.87993,2.6415 -4.1475,1.79753 z"
         style="fill:#301f1f" />
    </g>
  </g>
</svg>
